<?xml version="1.0" encoding="utf-8"?>
<!-- Generator: Adobe Illustrator 25.4.1, SVG Export Plug-In . SVG Version: 6.00 Build 0)  -->
<svg version="1.1" id="Capa_1" xmlns="http://www.w3.org/2000/svg" xmlns:xlink="http://www.w3.org/1999/xlink" x="0px" y="0px"
	 viewBox="0 0 126 126" style="enable-background:new 0 0 126 126;" xml:space="preserve">
<style type="text/css">
	.st0{fill:#5213B0;}
	.st1{fill:#761CFE;}
	.st2{fill:#FFFFFF;}
</style>
<g>
	<rect y="85.5" class="st0" width="14.3" height="40.5"/>
	<rect x="85.5" class="st0" width="40.5" height="14.3"/>
	<path class="st1" d="M0,126L126,0l0,0H81.3c-2.4,0-4.8,1-6.5,2.7L2.7,74.8C1,76.5,0,78.8,0,81.2V126z"/>
</g>
<g>
	<path class="st2" d="M20.9,79.3l-1.5-1.5l2.6-2.6l6.5,6.5l-1.7,1.7l-5-5L20.9,79.3z"/>
	<path class="st2" d="M32.3,65.1l6.5,6.4l-1.6,1.6l-4-4l2.6,5.4l-1.4,1.4L29,73.2l4.1,4l-1.6,1.6L25,72.4l1.9-1.9l6.3,2.7L30.4,67
		L32.3,65.1z"/>
	<path class="st2" d="M36.2,63.6l1.4,1.4l2.2-2.2l1.2,1.2l-2.2,2.2l1.4,1.4l2.5-2.5l1.3,1.3l-4.1,4l-6.5-6.5l4.1-4l1.3,1.2
		L36.2,63.6z"/>
	<path class="st2" d="M48.3,60.2c0.1,0.5,0.1,0.9-0.1,1.5c-0.2,0.5-0.5,1-1,1.5c-0.7,0.7-1.5,1.1-2.3,1.3s-1.6-0.1-2.3-0.7l1.7-1.7
		c0.3,0.2,0.5,0.3,0.8,0.3c0.3,0,0.6-0.1,0.8-0.4c0.2-0.2,0.3-0.4,0.3-0.6c0-0.2-0.1-0.4-0.3-0.6c-0.2-0.2-0.4-0.2-0.6-0.3
		c-0.2,0-0.4,0-0.7,0.1c-0.2,0.1-0.5,0.2-0.9,0.4c-0.6,0.3-1,0.5-1.4,0.6c-0.4,0.1-0.8,0.2-1.3,0.1c-0.4-0.1-0.9-0.3-1.3-0.7
		c-0.4-0.4-0.6-0.8-0.7-1.3c-0.1-0.5,0-1,0.2-1.5c0.2-0.5,0.5-1,1-1.4c0.7-0.7,1.5-1.1,2.2-1.2s1.5,0.1,2.1,0.7L43,58
		c-0.2-0.2-0.5-0.3-0.7-0.3c-0.3,0-0.5,0.1-0.7,0.3c-0.2,0.2-0.3,0.4-0.3,0.6c0,0.2,0.1,0.4,0.3,0.6c0.2,0.2,0.3,0.2,0.5,0.2
		c0.2,0,0.4,0,0.6-0.1c0.2-0.1,0.5-0.2,0.9-0.4c0.6-0.3,1-0.5,1.4-0.6c0.4-0.1,0.8-0.2,1.3-0.1c0.5,0.1,0.9,0.3,1.3,0.7
		C48,59.4,48.2,59.8,48.3,60.2z"/>
	<path class="st2" d="M51.3,47.1c0.9-0.1,1.8,0.1,2.6,0.6l-1.7,1.7c-0.3-0.1-0.7-0.1-1.1,0c-0.4,0.1-0.7,0.3-1,0.6
		c-0.5,0.5-0.7,1.1-0.7,1.7c0,0.6,0.3,1.2,0.9,1.8c0.6,0.6,1.3,0.9,1.9,0.9c0.6,0,1.3-0.3,1.8-0.8c0.4-0.4,0.6-0.8,0.7-1.3
		c0.1-0.5,0-1-0.3-1.5l-2,2l-1.1-1.1l3.3-3.3l1.6,1.5c0.3,0.5,0.4,1,0.5,1.6c0.1,0.6,0,1.2-0.2,1.8c-0.2,0.6-0.6,1.2-1.1,1.7
		c-0.7,0.7-1.4,1.1-2.1,1.3s-1.5,0.2-2.3,0c-0.8-0.2-1.5-0.7-2.1-1.3c-0.6-0.6-1.1-1.3-1.3-2.1c-0.2-0.8-0.2-1.5,0-2.3
		c0.2-0.8,0.6-1.5,1.3-2.1C49.5,47.7,50.4,47.3,51.3,47.1z"/>
	<path class="st2" d="M62.6,47.8l-3.9-1l-0.4,0.4l2.5,2.4l-1.6,1.6l-6.5-6.5l2.7-2.7c0.5-0.5,1-0.9,1.6-1c0.5-0.2,1-0.2,1.5-0.1
		c0.5,0.1,0.9,0.4,1.3,0.8c0.5,0.5,0.7,1,0.8,1.6c0.1,0.6-0.1,1.2-0.5,1.8l4.1,1L62.6,47.8z M57.3,46.1l1-1c0.3-0.3,0.5-0.6,0.5-0.9
		c0-0.3-0.1-0.6-0.4-0.8c-0.3-0.3-0.5-0.4-0.8-0.4c-0.3,0-0.6,0.2-0.9,0.5l-1,1L57.3,46.1z"/>
	<path class="st2" d="M67.9,40.1l-2.4,2.4l0.8,1.6l-1.7,1.7L60.5,37l1.8-1.8l8.8,4.1l-1.7,1.7L67.9,40.1z M66.3,39.3l-3.2-1.6
		l1.6,3.2L66.3,39.3z"/>
	<path class="st2" d="M70,27.5l1.3,1.2l-1.8,1.8l5.3,5.2l-1.6,1.6l-5.3-5.2l-1.7,1.7l-1.3-1.2L70,27.5z"/>
	<path class="st2" d="M72.2,25.3l6.5,6.5l-1.6,1.6l-6.5-6.5L72.2,25.3z"/>
	<path class="st2" d="M83.3,25.4c0.1,0.5,0.1,0.9-0.1,1.5c-0.2,0.5-0.5,1-1,1.5c-0.7,0.7-1.5,1.1-2.3,1.3c-0.8,0.1-1.6-0.1-2.3-0.7
		l1.7-1.7c0.3,0.2,0.5,0.3,0.8,0.3c0.3,0,0.6-0.1,0.8-0.4c0.2-0.2,0.3-0.4,0.3-0.6c0-0.2-0.1-0.4-0.3-0.6c-0.2-0.2-0.4-0.2-0.6-0.3
		c-0.2,0-0.4,0-0.7,0.1c-0.2,0.1-0.5,0.2-0.9,0.4c-0.6,0.3-1,0.5-1.4,0.6c-0.4,0.1-0.8,0.2-1.3,0.1c-0.4-0.1-0.9-0.3-1.3-0.7
		c-0.4-0.4-0.6-0.8-0.7-1.3c-0.1-0.5,0-1,0.2-1.5s0.5-1,1-1.4c0.7-0.7,1.5-1.1,2.2-1.2c0.8-0.1,1.5,0.1,2.1,0.7L78,23.2
		c-0.2-0.2-0.5-0.3-0.7-0.3c-0.3,0-0.5,0.1-0.7,0.3c-0.2,0.2-0.3,0.4-0.3,0.6s0.1,0.4,0.3,0.6c0.2,0.2,0.3,0.2,0.5,0.2
		c0.2,0,0.4,0,0.6-0.1c0.2-0.1,0.5-0.2,0.9-0.4c0.6-0.3,1-0.5,1.4-0.6c0.4-0.1,0.8-0.2,1.3-0.1c0.5,0.1,0.9,0.3,1.3,0.7
		C83,24.5,83.2,24.9,83.3,25.4z"/>
</g>
</svg>
