<?xml version="1.0" encoding="utf-8"?>
<!-- Generator: Adobe Illustrator 25.4.1, SVG Export Plug-In . SVG Version: 6.00 Build 0)  -->
<svg version="1.1" id="Capa_1" xmlns="http://www.w3.org/2000/svg" xmlns:xlink="http://www.w3.org/1999/xlink" x="0px" y="0px"
	 viewBox="0 0 100.7 65.6" style="enable-background:new 0 0 100.7 65.6;" xml:space="preserve">
<style type="text/css">
	.st0{fill:#F4991C;}
</style>
<g>
	<path class="st0" d="M44.9,6.3c-9,0.9-17.5,5-17.9,14.8c-0.4,11.1,8.8,14.3,17.9,16.5l0,12.3c-4.5-2-4.6-7.2-4.6-7.2L25,44.4
		c1.2,10.7,10.4,14.7,19.9,15.3l0,4.1h3.2V2.4h-3.2V6.3z M44.9,24.2c-0.3-0.1-0.6-0.3-0.9-0.4c-4-2-3.4-6.2,0.9-7.7L44.9,24.2z"/>
	<path class="st0" d="M68.2,33.4c-4.6-4-10.8-5.8-16-7.2v-9.9c3.1,1.5,3.8,4.6,3.8,4.6l14.8-2.4c-1.7-6.8-8.9-11.4-18.6-12.2l0-3.9
		h-2.6v61.4h2.6v-4.2c5.3-0.5,9.9-1.9,12.4-3.4C72.5,51.4,75.7,40.1,68.2,33.4z M52.2,50.2l0-10.7c3.6,1.3,4.9,2.5,5.5,4.5
		C58.4,46.5,56.6,49.3,52.2,50.2z"/>
</g>
</svg>
