<?xml version="1.0" encoding="utf-8"?>
<!-- Generator: Adobe Illustrator 25.4.1, SVG Export Plug-In . SVG Version: 6.00 Build 0)  -->
<svg version="1.1" id="Capa_1" xmlns="http://www.w3.org/2000/svg" xmlns:xlink="http://www.w3.org/1999/xlink" x="0px" y="0px"
	 viewBox="0 0 100.7 65.6" style="enable-background:new 0 0 100.7 65.6;" xml:space="preserve">
<style type="text/css">
	.st0{fill:#F4991C;}
</style>
<g>
	<path class="st0" d="M33.8,28.3H19.4c-1.8,0-3.1,1.5-3,3.3l-0.2,28.4c0,0.1,0,0.2,0,0.2c0.3,1.9,2,3.4,3.9,3.4h18.4
		c1.8,0,3.1-1.4,3-3.2l-4-29.6c0,0,0,0-0.1,0C36.9,29.4,35.4,28.3,33.8,28.3z"/>
	<path class="st0" d="M84.2,40.5c-0.2-2.1-1.3-3.7-2.7-4.8c1.1-0.8,1.7-1.9,1.8-3.3c0.2-1.9-0.3-4.8-2.3-6.9c-1-1.1-2.8-2.3-5.6-2.3
		H62.3c0-1.9,0-4.9,0.1-7.5c0.2-3.8-1.9-8.5-4.1-10.9c-1.1-1.3-2.2-2-3.4-2.1c-0.4,0-0.7-0.1-1.1-0.1c-2.4,0-5.3,1-5.9,3.1
		c-0.2,0.9,0,1.9,0.2,2.9c0.3,1.4,0.7,3.1,0.3,5.5c-0.7,4-6.8,13.8-8.8,15.6L43.9,60c2.7,1.1,9,3.3,12.3,3.3h16.4
		c1.1,0,4.9-0.2,6-3.4c0.5-1.5,0.3-2.9-0.2-4.2c0-0.1,0-0.2,0-0.3c0,0,0-0.1,0-0.1c2.1-0.5,3.4-1.9,3.7-3.9c0.4-2.4-0.3-4.1-1-5.2
		C83.3,45.3,84.4,43.3,84.2,40.5z"/>
</g>
</svg>
