<?xml version="1.0" encoding="utf-8"?>
<!-- Generator: Adobe Illustrator 25.4.1, SVG Export Plug-In . SVG Version: 6.00 Build 0)  -->
<svg version="1.1" id="Capa_1" xmlns="http://www.w3.org/2000/svg" xmlns:xlink="http://www.w3.org/1999/xlink" x="0px" y="0px"
	 viewBox="0 0 101.3 67.4" style="enable-background:new 0 0 101.3 67.4;" xml:space="preserve">
<style type="text/css">
	.st0{fill:#F4991C;stroke:#F4991E;stroke-miterlimit:10;}
	.st1{display:none;fill:#FFFFFF;}
	.st2{display:none;}
	.st3{display:inline;fill:#4F4F4F;stroke:#F4991E;stroke-miterlimit:10;}
	.st4{display:inline;}
	.st5{fill:none;stroke:#F4991E;stroke-miterlimit:10;}
	.st6{fill:#4F4F4F;stroke:#F4991E;stroke-miterlimit:10;}
	.st7{display:inline;fill:#F4991C;stroke:#F4991E;stroke-miterlimit:10;}
</style>
<g>
	<g>
		<path class="st0" d="M-71.5,75.7c-8.6,0-15.7,7-15.7,15.7c0,8.6,7,15.7,15.7,15.7c5.6,0,10.6-3,13.3-7.5c-2.2-3.5-5-9.9-1.7-18.7
			C-62.7,77.7-66.8,75.7-71.5,75.7z"/>
		<path class="st0" d="M-60.7,104.8c-0.2,0.2-0.4,0.3-0.7,0.5c-1.5,4.1-5.5,7-10.1,7c-4.7,0-8.6-2.9-10.1-7.1
			c-0.5-0.3-0.9-0.6-1.1-0.8c-0.1-0.1-0.2-0.1-0.2-0.2l-0.1,0.1c-9.8,8.4-9.6,23.2-9.6,23.8l0,0.5h24.8c0.4-5.7,2.1-15.9,8.9-23.4
			c-0.5-0.5-0.9-0.8-1.2-1c-0.1,0.1-0.3,0.2-0.4,0.4C-60.6,104.7-60.6,104.8-60.7,104.8z"/>
	</g>
	<g>
		<path class="st0" d="M-28.5,103.7c-0.2,0.1-0.3,0.3-0.5,0.4c-0.1,0.1-0.2,0.1-0.2,0.2c-1.5,1.2-5.1,3.5-9.7,4.3
			c-0.5,0.1-0.9,0.1-1.4,0.2c-0.4,0-0.8,0-1.2,0c-1.5,0-2.9-0.2-4.3-0.5c-4.3-1.1-7.6-3.7-8.6-4.4c-0.1-0.1-0.2-0.2-0.3-0.2
			l-0.2,0.1c-11.2,9.7-11,26.6-11,27.3l0,0.6H-18l0-0.6C-18.8,111.5-26.6,105-28.5,103.7z M-35.2,117l-6.7-3.4l-6.7,3.4v-8.3
			l6.7,3.6l6.7-3.6V117z"/>
	</g>
	<g>
		<g>
			<path class="st0" d="M-59.4,88.7c0,9.9,8.1,18,18,18h0c4.8,0,9.3-1.9,12.7-5.3c3.4-3.4,5.3-7.9,5.3-12.7c0-9.9-8.1-18-18-18
				C-51.3,70.7-59.4,78.8-59.4,88.7z"/>
		</g>
	</g>
	<path class="st0" d="M-16.2,127.8l20.2,0l0-0.5c0-0.6-0.2-13.1-9-20.7l-0.1-0.1c-0.3,0.3-0.6,0.5-0.9,0.8l-6.2,12.1l-1.1-7.1
		l1.8-2.9c-1.1,0.3-2.3,0.4-3.5,0.4c-0.3,0-0.6,0-0.9,0c-0.6,0-1.1-0.1-1.7-0.2c-0.2,0-0.4-0.1-0.6-0.1l1.7,2.8l-1.2,6.8
		C-16.8,122.4-16.4,125.6-16.2,127.8z"/>
	<path class="st0" d="M-14.5,107.9c7.8,0,14.1-6.3,14.1-14.1c0-7.8-6.3-14.1-14.1-14.1c-3.2,0-6.1,1-8.4,2.8c0.7,2,1.1,4.2,1.1,6.5
		c0,4.7-1.7,9-4.6,12.3C-23.8,105.3-19.5,107.9-14.5,107.9z"/>
</g>
<line class="st1" x1="-442.1" y1="526.9" x2="679.9" y2="526.9"/>
<g class="st2">
	<path class="st3" d="M48.8,38.6c-0.6,1-1.3,2.3-2,3.6c-0.6,1.3-1.1,2.5-1.1,3.4l0,0.2l0.1,0.2c1.8,2.2,3.9,4.5,3.9,4.5
		c0.1,0.1,0.2,0.2,0.4,0.2c0.1,0,0.3-0.1,0.4-0.2c0,0,2.7-2.9,3.9-4.5c0.1-0.1,0.1-0.3,0.1-0.4c0,0-0.3-1-0.6-2
		c-0.3-1-0.6-2.1-0.7-2.3C53,41,52.3,39,52.1,38.3c-0.2-0.5-0.6-1.2-1.1-2.2c0.3-1.1,0.6-2.2,0.7-2.5c0,0,0.2-0.3,0.4-0.5
		c0.2-0.3,0.4-0.5,0.4-1c0-0.2-0.1-0.6-0.4-0.7c-0.3-0.1-0.5-0.2-0.9-0.2c-0.4,0-0.8,0-1.1,0c-0.5,0-0.9,0-1.3,0.2
		c-0.2,0.1-0.4,0.2-0.5,0.4c-0.1,0.2-0.2,0.4-0.2,0.7c0,0.5,0.2,1,0.6,1.6c0.5,0.9,1,1.6,1.3,2.2c-0.1,0.4-0.2,0.7-0.3,0.9
		C49.4,37.4,49.2,37.9,48.8,38.6z M49.4,33.6c-0.4-0.6-0.5-1-0.5-1.2l0-0.1c0,0,0.1-0.1,0.3-0.1c0.2,0,0.5-0.1,0.8-0.1
		c0.3,0,0.7,0,1.1,0c0.1,0,0.2,0,0.3,0l0,0.1c-0.1,0.1-0.2,0.3-0.4,0.5l-0.2,0.3c-0.1,0.1-0.1,0.2-0.2,0.3c0,0.2-0.2,0.8-0.4,1.6
		C50,34.5,49.7,34.1,49.4,33.6z M50.5,37.5c0,0,0-0.1,0.1-0.1c0.3,0.5,0.5,0.9,0.6,1.2c0.3,0.8,1,2.8,1.1,3.1
		c0.1,0.1,0.4,1.2,0.7,2.2c0.2,0.7,0.4,1.4,0.5,1.8c-0.6,0.7-1.5,1.7-2.2,2.6c-0.4,0.5-0.8,0.9-1.1,1.2c-0.2-0.2-0.5-0.6-0.9-1
		c-0.7-0.8-1.6-1.9-2.5-2.9c0-0.4,0.2-1.1,0.5-1.8c0.5-1.1,1.2-2.5,1.9-3.7C49.7,38.9,50.3,38,50.5,37.5z"/>
	<g class="st4">
		<path class="st5" d="M67.1,20.4L66.7,17c-0.1,0.9-0.2,1.7-0.4,2.4C66,20.5,65.6,21.4,65,22c-0.9,3.4-3.3,6.3-7,7.9
			c-2.2,0.9-3.4,1.6-3.7,2c0,0,0,0,0,0.1c0,0.1,0,0.1,0,0.2l0.1,0.1c0.1,0.1,0.3,0.2,0.6,0.3c0.6,0.2,1.5,0.5,2.5,0.8
			c2,0.5,4.6,1.2,6.7,2.3c1.4,0.7,2.6,1.6,3.2,2.9c0.5,0.9,0.9,2.1,1.3,3.4"/>
		<path class="st5" d="M64.3,24.7"/>
		<path class="st5" d="M40.3,17.9c2.7-0.7,5.8-1.4,7.7-2.9c1.2-1,2-2.2,2.1-4.1c0,0,0,0,0,0c0-0.2,0-0.4,0-0.7
			c0-0.2,0.2-0.4,0.5-0.4c0.3,0,0.5,0.2,0.5,0.4c0,0.1,0,0.3,0,0.4c0,0.1,0,0.2,0,0.4c0,1.3,0.3,2.2,0.9,2.9
			c0.5,0.7,1.3,1.2,2.3,1.7c1.9,0.8,4.3,1.2,6.5,1.8c1.4,0.4,2.7,1,3.5,2.1c0.2,0.3,0.4,0.7,0.6,1.1c0.2-0.4,0.3-0.8,0.5-1.3
			c0.3-1,0.4-2.2,0.4-3.5c0-1.8-0.3-3.6-0.9-5.2c-0.6-1.6-1.6-2.8-2.8-3.4L61.9,7c-2.5-2.6-6.5-4.5-12.3-4.9C44,2.1,38.4,5.8,36,8.7
			l-0.1,0.1c-0.9,0.6-1.4,1.4-1.7,2.3c-0.3,0.9-0.5,1.9-0.4,3c0,0.4,0,0.7,0,1.1c0.1,2.2,0.8,4.3,1.7,5.5c0.3-0.6,0.8-1.1,1.4-1.5
			C37.8,18.6,39,18.2,40.3,17.9z"/>
		<path class="st5" d="M70.1,53.7C69.2,48.2,68,42,66.4,38.9c-0.8-1.7-3.1-2.8-5.5-3.6c-2.5-0.8-5-1.3-6.5-1.9
			c-0.4-0.2-0.8-0.4-1-0.7c-0.1-0.2-0.2-0.4-0.2-0.6c0-0.3,0.1-0.6,0.3-0.8c0.2-0.2,0.5-0.4,0.8-0.7c0.7-0.5,1.8-1,3.3-1.6
			c3.5-1.4,5.6-4.1,6.5-7.3c-0.1-1.1-0.5-1.8-1.2-2.3c-0.7-0.6-1.8-1-2.9-1.3c-2.4-0.7-5.3-1-7.4-2.5c-0.8-0.6-1.4-1.3-1.9-2.3
			c-0.2,0.4-0.4,0.7-0.6,1c-0.7,1-1.8,1.7-2.9,2.3c-2.3,1.1-5,1.7-7.2,2.3c-1.5,0.4-2.7,0.9-3.2,1.5c-0.3,0.3-0.4,0.6-0.5,1
			c0.8,3.3,3,6.2,6.5,7.6c2.3,0.9,3.5,1.6,4.1,2.2c0.2,0.2,0.3,0.5,0.3,0.8c0,0.3-0.2,0.6-0.4,0.8c-0.2,0.2-0.5,0.4-0.9,0.5
			c-0.7,0.3-1.6,0.5-2.6,0.8c-2,0.5-4.5,1.2-6.5,2.2c-1.3,0.7-2.3,1.5-2.8,2.5c-1.2,2.3-2.2,6.5-3,10.6c-0.8,4.2-1.3,8.5-1.7,11.2
			c-0.1,1.2-0.2,2.1-0.3,2.6c6.1,1.1,11.2,0.8,14.6,1.6c0.8,0.2,1.5,0.3,2.3,0.3c1.5,0,2.9-0.3,4.2-0.4h0.1c1.3,0.1,2.7,0.1,4.3,0.1
			c4.4,0,10.1-0.4,16.8-1.7c0-0.5-0.1-1.4-0.3-2.6C70.8,58.9,70.5,56.4,70.1,53.7z"/>
		<path class="st6" d="M66.8,17.6"/>
		<path class="st6" d="M71.2,53.9c-0.4-1.3-2.6-14.3-3.9-15.4c-1.1-0.9-1.9-2.2-3.2-2.9c-2.1-1.1-4.7-1.7-6.7-2.3
			c-1-0.3-1.9-0.5-2.5-0.8c-0.3-0.1-0.5-0.3-0.6-0.3l-0.1-0.1c0-0.1,0-0.1,0-0.2c0,0,0,0,0-0.1c0.3-0.4,1.5-1.1,3.7-2
			c3.8-1.5,6.1-4.5,7-7.9c0.6-0.6,1-1.5,1.3-2.5c0.2-0.7,0.3-1.6,0.4-2.4l0.1-3.1c0-0.1-0.4-2.5-1-3.7c-0.8-1.6-1.7-3.1-3.2-3.8
			c-2.7-2.7-6.9-4.8-12.9-5.1l0,0c-6.1,0-11.8,3.8-14.5,6.9c-1,0.7-1.6,1.7-2,2.7c-0.4,1-0.5,2.1-0.5,3.2c0,0.4,0,0.8,0,1.1
			c0.2,2.8,1,5.4,2.6,6.8c0.9,3.4,3.3,6.4,7,7.9c1.5,0.6,2.5,1.1,3.1,1.5c0.3,0.2,0.5,0.4,0.6,0.5c0.1,0.1,0.1,0.2,0.1,0.2l0,0.1
			c-0.1,0.1-0.3,0.2-0.6,0.4c-1.2,0.6-3.8,1.1-6.4,1.9c-2.5,0.8-5,2-6.1,4.1c-1.7,3.3-2.9,9.6-3.8,15C28.4,59,28,63.6,28,63.6
			c0,0.2,0.1,0.5,0.4,0.5c6.5,1.2,11.8,0.9,15,1.7c0.9,0.2,1.7,0.3,2.5,0.3c1.6,0,3.1-0.3,4.3-0.4c1.3,0.1,2.7,0.1,4.3,0.1
			c4.6,0,10.5-0.4,17.5-1.8c0.2,0,0.4-0.3,0.4-0.5c0,0-0.4-4.6-1.3-10.1 M35.4,20.6c-0.9-1.2-1.6-3.3-1.7-5.5c0-0.4,0-0.7,0-1.1
			c0-1,0.1-2,0.4-3c0.3-0.9,0.9-1.7,1.7-2.3L36,8.7c2.4-3,8-6.6,13.7-6.6c5.8,0.3,9.7,2.3,12.3,4.9L62,7.1c1.3,0.6,2.2,1.8,2.8,3.4
			c0.6,1.6,0.9,3.4,0.9,5.2c0,1.3-0.2,2.5-0.4,3.5c-0.1,0.5-0.3,0.9-0.5,1.3c-0.1-0.4-0.3-0.8-0.6-1.1c-0.8-1.1-2.1-1.7-3.5-2.1
			c-2.1-0.7-4.6-1-6.5-1.8c-0.9-0.4-1.7-0.9-2.3-1.7c-0.5-0.7-0.9-1.6-0.9-2.9c0-0.1,0-0.2,0-0.4c0-0.1,0-0.3,0-0.4
			c0-0.2-0.2-0.4-0.5-0.4c-0.3,0-0.5,0.2-0.5,0.4c0,0.2,0,0.4,0,0.7c0,0,0,0,0,0c-0.1,1.9-0.9,3.2-2.1,4.1c-2,1.5-5.1,2.2-7.7,2.9
			c-1.3,0.4-2.6,0.7-3.5,1.3C36.2,19.5,35.7,20,35.4,20.6z M54.5,64.9c-1.6,0-3,0-4.3-0.1h-0.1c-1.3,0.1-2.7,0.4-4.2,0.4
			c-0.7,0-1.5-0.1-2.3-0.3c-3.4-0.8-8.5-0.5-14.6-1.6c0-0.5,0.1-1.4,0.3-2.6c0.3-2.7,0.9-7,1.7-11.2c0.8-4.2,1.8-8.3,3-10.6
			c0.5-1,1.5-1.8,2.8-2.5c1.9-1,4.4-1.6,6.5-2.2c1-0.3,1.9-0.5,2.6-0.8c0.3-0.2,0.6-0.3,0.9-0.5c0.2-0.2,0.4-0.5,0.4-0.8
			c0-0.3-0.1-0.6-0.3-0.8c-0.6-0.7-1.8-1.3-4.1-2.2c-3.6-1.4-5.7-4.3-6.5-7.6c0-0.4,0.2-0.7,0.5-1c0.6-0.6,1.8-1.1,3.2-1.5
			c2.2-0.6,5-1.2,7.2-2.3c1.1-0.6,2.2-1.3,2.9-2.3c0.2-0.3,0.4-0.7,0.6-1c0.4,1,1.1,1.7,1.9,2.3c2.1,1.4,5,1.8,7.4,2.5
			c1.2,0.3,2.2,0.7,2.9,1.3c0.7,0.6,1.1,1.3,1.2,2.3c-0.9,3.2-3,5.9-6.5,7.3c-1.5,0.6-2.6,1.1-3.3,1.6c-0.4,0.2-0.6,0.4-0.8,0.7
			c-0.2,0.2-0.3,0.5-0.3,0.8c0,0.2,0.1,0.4,0.2,0.6c0.2,0.3,0.6,0.5,1,0.7c1.5,0.6,4,1.1,6.5,1.9c2.5,0.8,4.7,1.9,5.5,3.6
			c1.6,3.1,2.9,9.4,3.7,14.8c0.4,2.7,0.7,5.2,1,7.1c0.1,1.2,0.2,2.1,0.3,2.6C64.6,64.5,58.9,64.9,54.5,64.9z"/>
		<path class="st6" d="M64.3,24.7"/>
	</g>
</g>
<g class="st2">
	<path class="st7" d="M78.4,31.6c0.1-2.5-0.9-4.8-3.6-6.2c-5.9-3.4-13.4-3.7-20.1-3.7c-7.9,0-15.5,1.7-22.6,5.2
		c-4.3,2.1-9.6,5.8-9.5,11.1c0,0.1,0,0.2,0,0.3c0.3,3,0.5,6.1,0.8,9.1c0.3,3.2,1.1,4.1,4,5.9c7.4,4.8,17.5,4.4,25.8,3.2
		c7.8-1.1,16.8-3.5,22.9-8.8c2.1-1.8,2-3.2,2.1-5.8c0.1-3.3,0.2-6.6,0.3-9.9C78.5,31.8,78.5,31.7,78.4,31.6z M37.2,26.5
		c6-2.5,12.6-3.1,19-3.1c5.9,0,12.5,0.5,17.7,3.4c4.7,2.3,2.5,7.5-0.3,10.4c-2.1,2.2-5.3,3.4-8,4.3c-3.6,1.3-7.3,2.1-11,2.7
		c-7.3,1.2-15.2,1.9-22.5,0.4c-3.5-0.7-7.3-2.4-7.8-6.4C23.5,32,32.7,28.4,37.2,26.5z M75.3,46c-4.9,5.2-13.7,7.2-20.5,8.4
		c-8.4,1.6-18.1,1.8-25.9-2.3c-0.8-0.4-3.6-1.9-3.7-2.7c-0.1-1.3-0.2-2.5-0.3-3.8c-0.1-1-0.2-2-0.3-3c1.3,1.3,3,2.1,4.7,2.8
		C38,48.8,49.1,47,58,45.3c6.2-1.2,13.1-3,17.7-7.7c0.4-0.4,0.7-0.8,1-1.2c0,1-0.1,2-0.1,3C76.5,41.8,77,44.2,75.3,46z"/>
	<path class="st7" d="M30.1,36.2c0.2,0,0.4,0,0.7,0c0.1,0,0.2,0,0.3-0.1c2.3-0.3,4.5-0.6,6.8-0.9c0.4,0.6,0.8,1.2,1.3,1.8
		c-1.9,0.3-3.7,0.7-5.6,0.9c-0.8,0.1-0.4,1.3,0.3,1.1c2.1-0.3,4.2-0.7,6.3-1c1.9,1.6,4.2,2.8,6.3,2.6c2.4-0.2,3.3-2.5,3.8-4.5
		c0.5-0.1,1.1-0.2,1.6-0.3c3.3-0.6,7.3-0.8,11-1.5c0.4,2.1-0.5,4.4-3.2,4.5c-0.8,0-0.9,1.4,0,1.3c3.3-0.2,4.8-2.9,4.6-6
		c0-0.1,0-0.1,0-0.2c1.9-0.4,3.7-1,5.2-1.9c0.7-0.4,0.1-1.4-0.6-1c-1.4,0.8-3.2,1.1-5,1.4c-0.1-0.2-0.2-0.5-0.4-0.7
		c2.1-0.4,4.3-0.9,6.3-1.5c0.7-0.2,0.4-1.4-0.3-1.1c-2.2,0.7-4.5,1.3-6.8,1.7c-1.6-1.5-4-2.5-5.9-2.8c-3.1-0.6-6,0.9-7.1,3.9
		c-0.1,0.3-0.2,0.6-0.2,0.9c-3.6,0.4-7.1,0.7-10.6,1.1c-0.7-1.9-0.4-3.6,2.1-4.1c0.8-0.2,0.5-1.5-0.4-1.3c-3.7,0.8-4.3,3.2-3.3,5.6
		c-2.4,0.2-4.8,0.5-7.2,0.8C29.4,35.1,29.3,36.2,30.1,36.2z M55.7,29.3c1.9-0.1,3.8,0.8,5.3,1.9c-3.2,0.6-6.5,1.1-9.8,1.5
		C51.7,30.8,52.8,29.5,55.7,29.3z M50.8,33.6c3.7-0.4,7.4-0.8,11.1-1.4c0.2,0.2,0.3,0.4,0.5,0.7C61.9,32.9,61.4,33,61,33
		c-3.1,0.6-6.3,1.1-9.4,1.6c-0.3,0.1-0.7,0.1-1,0.2C50.6,34.4,50.7,34,50.8,33.6z M48.7,37.1c-1.2,3.8-4.5,2.9-7.1,0.7
		c2.4-0.4,4.8-0.9,7.2-1.4C48.8,36.6,48.7,36.8,48.7,37.1z M49.3,33.7c-0.1,0.5-0.2,0.9-0.3,1.4c-2.8,0.5-5.7,1.1-8.5,1.6
		c-0.5-0.5-0.9-1.1-1.2-1.7C42.7,34.5,46,34.1,49.3,33.7z"/>
</g>
<g class="st2">
	<path class="st7" d="M44.1,57.8c-0.1,0-0.2,0-0.3,0c-0.6-0.2-1.8-0.8-2.3-2.4c-0.1-0.3,0.1-0.7,0.4-0.8c0.3-0.1,0.7,0.1,0.8,0.4
		c0.4,1.1,1.2,1.5,1.4,1.6c0,0,0.1,0,0.1,0c3.2,0,6,0,8.8-0.1c2.9,0,5.9-0.1,9.4-0.1c0,0,0,0,0,0l0.6,0c3.4,0,8,0,10-2.2
		c0.8-0.9,1.1-2.1,0.8-3c-0.4-1-1.5-1.7-3.2-1.9c-0.3,0-0.6-0.4-0.6-0.7c0-0.3,0.3-0.6,0.7-0.6c1.9,0.2,3.5-0.5,4.3-1.9
		c0.7-1.1,0.7-2.4,0.1-3.4c-0.7-1.1-2.1-1.8-3.9-1.9c-0.6,0-1.1,0-1.6,0c-0.3,0-0.6-0.3-0.6-0.6c0-0.3,0.2-0.6,0.6-0.7
		c0.6,0,1.1-0.1,1.6,0c3-0.2,5.8-0.9,6.1-3.7c0.1-1,0-1.8-0.5-2.3c-0.9-1.1-3.1-1.1-4.9-1.2c-0.7,0-1.4,0-2-0.1
		c-0.3,0-0.6-0.4-0.5-0.7c0-0.3,0.3-0.6,0.7-0.6c3.6,0.2,5.8-0.2,6.9-1.3c0.6-0.7,0.9-1.6,0.7-2.9c-0.4-3.6-6.9-3.1-11.2-2.9
		c-0.8,0.1-1.5,0.1-2.1,0.1c-1,0-1.6-0.2-2.1-0.7c-0.8-0.9-0.6-2.4-0.4-4.1c0.1-1,0.3-2.1,0.2-3.2l0-0.7c-0.2-4.7-0.6-7.9-4.5-8
		c-1.6,0-2.8,0.3-3.4,1c-1.2,1.2-1,3.6-1.2,6.3c-0.2,2.6-0.5,4-1.5,6.3c-0.8,1.9-2,4.4-6.6,5.4c-0.6,0.1-1.2,0.2-1.8,0.2
		c-1.6,0.1-2.7,0.2-2.8,1c-0.1,0.3-0.4,0.6-0.8,0.5c-0.3-0.1-0.6-0.4-0.5-0.8c0.4-1.8,2.4-1.9,4-2c0.6,0,1.2-0.1,1.6-0.2
		c4-0.8,5.1-3.1,5.7-4.4c0.8-1.9,1.2-3,1.5-5.9c0.3-2.9-0.1-5.5,1.5-7.2c1-1,2.4-1.4,4.4-1.4C63,6,63.2,11,63.4,15.1l0,0.7
		c0.1,1.2-0.1,2.4-0.2,3.5c-0.2,1.4-0.3,2.7,0.1,3.1c0.2,0.2,0.6,0.3,1.1,0.3c0.6,0,1.3-0.1,2.1-0.1c4.8-0.3,12-0.8,12.6,4
		c0.2,1.7-0.2,3-1.1,3.9c-0.5,0.5-1.1,0.9-1.8,1.2c0.6,0.2,1.2,0.6,1.6,1.1c0.7,0.8,1,1.9,0.8,3.3c-0.3,2.6-2.1,3.8-4.1,4.4
		c0.9,0.5,1.5,1.2,1.8,1.7c0.9,1.4,0.9,3.3-0.1,4.8c-0.6,1-1.5,1.7-2.7,2.1c0.7,0.5,1.2,1.1,1.5,1.8c0.5,1.4,0.1,3-1,4.3
		c-2.4,2.7-7.1,2.7-11,2.6l-0.5,0c-3.6,0-6.6,0-9.5,0.1c-2.8,0-5.5,0.1-8.7,0.1C44.3,57.8,44.2,57.8,44.1,57.8z"/>
	<path class="st7" d="M34,60.7c-1.4,0-2.8-0.1-4.1-0.2c-0.4,0-0.9,0-1.3-0.1c-4.9-0.2-4.6-7.4-4.4-13.2c0.1-2,0.2-3.8,0-5.1
		c-0.4-3.7-0.7-4.9-1.1-6.2c-0.4-1.3-0.7-2.6-1.1-6.2c-0.7-6.6,3.5-7.3,7.6-7.9c0.7-0.1,1.4-0.2,2-0.3c5.7-1.1,6.4,0,7.8,3.8
		l0.1,0.3c0.2,0.1,0.3,0.3,0.4,0.5c0.2,1,0.3,1.7,0.5,2.2c0.3,1.5,0.5,2.2,0.6,4.5c0.1,2.2,0.3,4.2,0.4,6.3c0.1,2.1,0.2,4.1,0.4,6.2
		c0.1,1,0.2,2,0.4,3.2c0.5,3.4,1.1,7.2-0.6,9.9C40.2,60.3,37.2,60.7,34,60.7z M35,22.3c-0.8,0-1.8,0.1-3.1,0.4
		c-0.7,0.1-1.4,0.2-2.1,0.4c-4.3,0.7-7.1,1.1-6.5,6.5c0.4,3.5,0.7,4.8,1.1,6c0.4,1.3,0.7,2.7,1.1,6.4c0.1,1.4,0.1,3.3,0,5.3
		c-0.2,5.2-0.5,11.7,3.1,11.9c0.4,0,0.8,0,1.3,0.1c3.8,0.2,9.1,0.5,10.4-1.6c1.5-2.3,0.9-5.9,0.5-9.1c-0.2-1.2-0.3-2.3-0.4-3.3
		c-0.1-2.1-0.2-4.1-0.4-6.2c-0.1-2-0.2-4.1-0.4-6.3c-0.1-2.1-0.3-2.9-0.6-4.3c-0.1-0.5-0.2-1-0.4-1.7c-0.1-0.1-0.2-0.2-0.2-0.3
		l-0.3-0.8C37.4,23.3,37,22.3,35,22.3z"/>
	<path class="st7" d="M33.4,35.4c-1,0-1.9-0.4-2.6-1.2c-1.3-1.4-1.5-3.1-0.6-4.5c1-1.5,3-2.2,4.5-1.6c0.2,0,0.3,0,0.4,0.1
		c2.1,1.7,2.1,3.4,1.9,4.2c-0.3,1.3-1.3,2.3-2.7,2.7C34.1,35.4,33.7,35.4,33.4,35.4z M33.7,29.3c-0.9,0-1.9,0.5-2.4,1.3
		c-0.4,0.6-0.7,1.6,0.5,2.8c0.6,0.7,1.4,0.9,2.3,0.7c0.9-0.2,1.6-0.9,1.7-1.7c0.2-0.9-0.3-1.9-1.3-2.8c0,0-0.1,0-0.1,0
		C34.2,29.3,33.9,29.3,33.7,29.3z"/>
</g>
<g>
	<path class="st5" d="M33.1,58.5c0.3-0.5,0.7-1,1.2-1.4c0-0.1,0-0.1-0.1-0.2l-1.1-2.4c0,0.1-0.1,0.2-0.1,0.3
		c-0.2,0.3-0.4,0.3-0.5,0.3h0c-0.2,0-0.3-0.1-0.4-0.2c-0.2,0.8-0.5,1.6-0.9,2.3C31.9,57.7,32.5,58.1,33.1,58.5z"/>
	<path class="st5" d="M34.9,48.9c-1.1,0.7-1.9,1.9-2.1,3.1l0,0.1l0.7,0.6c0.1-0.1,0.3-0.1,0.4,0l0.2,0.2L34,53.1l0.7,0.6
		c0.4-1.6,0.9-3.2,1.5-4.7C35.8,48.9,35.4,48.9,34.9,48.9L34.9,48.9z"/>
	<path class="st5" d="M28.9,47.7c1.2,1.2,2.3,2.4,3.4,3.6c0.3-1.1,1-2.1,1.9-2.7l0-0.1c0-0.2,0.1-0.4,0.3-0.4
		c0.8-0.1,1.6-0.6,2.2-1.4c0.6-0.8,1.1-1.9,1.4-2.8c0.2-0.4,0.3-0.8,0.4-1.3c-1.6-0.8-3-1.9-4.3-3.2c-1.6,1.2-3.4,2.1-5.1,2.9
		c-1.2,0.6-2.5,1.2-4,1.2c-0.1,0-0.3,0-0.4,0c0,0.1,0.1,0.3,0.1,0.4c0.5,1.3,1.4,2.4,2.5,3c0.1,0.1,0.2,0.1,0.3,0.2
		c0.2,0.1,0.4,0.2,0.5,0.3C28.5,47.5,28.7,47.5,28.9,47.7z"/>
	<path class="st5" d="M43.2,29.7c5.9,1,12.1,0.8,17.9-0.8c-0.3-2.1-0.6-4.3-1.6-6.1c-0.9-1.6-2.3-2.8-3.8-3.3l0,0
		c-0.7,1.6-1.3,3.3-1.6,5.1l-0.1,0.5l-1.5-1.3c0,0.1-0.1,0.2-0.1,0.3l0,0l1.3,2.8c0.1,0.1,0.2,0.4,0.1,0.6l0,0.1l-0.1,0.1
		c-0.5,0.5-1,1-1.3,1.6l-0.2,0.3l-0.3-0.2c-0.7-0.6-1.5-1.1-2.4-1.5l-0.3-0.1l0.2-0.3c0.5-0.9,0.8-1.8,1.1-2.8l0,0l-0.4-0.4
		c-0.3,0.3-0.6,0.6-1,0.9l-0.2,0.2l-0.2-0.2c-0.3-0.4-0.5-0.8-0.6-1.2l-1.7-4.6c-1.2,0.8-2.2,2.1-2.8,3.7
		C42.9,25,42.7,27.4,43.2,29.7z"/>
	<path class="st5" d="M32.7,53.9c0.1-0.3,0.2-0.5,0.3-0.8l-0.5-0.4c-0.3,0.3-0.6,0.6-0.8,0.9l0.8,0.9C32.6,54.3,32.7,54.2,32.7,53.9
		z"/>
	<path class="st5" d="M29,41.7c1.8-0.9,3.6-1.8,5.2-3c0.1-0.1,0.4-0.1,0.5,0c1.2,1.3,2.6,2.5,4.1,3.2c0-0.1,0-0.1,0-0.2
		c0.1-1.2-0.4-2.6-1.3-3.6c-0.9-1-2.1-1.6-3-2.1c-0.9-0.4-2.1-0.9-3.2-0.7c-1,0.1-2,0.7-2.8,1.2c-1.3,0.8-2.6,1.8-3.3,3.3
		c-0.4,0.9-0.5,2-0.4,3.1C26.2,43.1,27.7,42.3,29,41.7z"/>
	<path class="st5" d="M49,24.5c0.7-0.7,1.4-1.4,2.1-2.1c-1-1.3-2.2-2.5-3.3-3.6l-0.1,0c-0.3,0.1-0.5,0.2-0.8,0.3l1.8,4.7
		C48.8,24.1,48.9,24.3,49,24.5z"/>
	<path class="st5" d="M53.8,19.2c-1.1,0.7-1.9,1.9-2.1,3.1l0,0.1l0.7,0.6c0.1-0.1,0.3-0.1,0.4,0l0.2,0.2l-0.1,0.2l0.7,0.6
		c0.4-1.6,0.9-3.2,1.5-4.7C54.7,19.2,54.3,19.1,53.8,19.2L53.8,19.2z"/>
	<path class="st5" d="M52,28.8c0.3-0.5,0.7-1,1.2-1.4c0-0.1,0-0.1-0.1-0.2L52,24.9c0,0.1-0.1,0.2-0.1,0.3c-0.2,0.3-0.4,0.3-0.5,0.3
		h0c-0.2,0-0.3-0.1-0.4-0.2c-0.2,0.8-0.5,1.6-0.9,2.3C50.8,27.9,51.4,28.3,52,28.8z"/>
	<path class="st5" d="M47.8,11.9c1.8-0.9,3.6-1.8,5.2-3c0.1-0.1,0.4-0.1,0.5,0c1.2,1.4,2.6,2.5,4.1,3.2c0-0.1,0-0.1,0-0.2
		c0.1-1.2-0.4-2.6-1.3-3.6c-0.9-1-2.1-1.6-3-2.1c-0.9-0.4-2.1-0.9-3.2-0.7c-1,0.1-2,0.7-2.8,1.2C45.9,7.5,44.6,8.5,44,10
		c-0.4,0.9-0.5,2-0.4,3.1C45,13.3,46.6,12.5,47.8,11.9z"/>
	<path class="st5" d="M51.6,24.2c0.1-0.3,0.2-0.5,0.3-0.8L51.4,23c-0.3,0.3-0.6,0.6-0.8,0.9l0.8,0.9C51.4,24.6,51.5,24.4,51.6,24.2z
		"/>
	<path class="st5" d="M47.8,17.9c1.2,1.2,2.3,2.4,3.4,3.6c0.3-1.1,1-2.1,1.9-2.7l0-0.1c0-0.2,0.1-0.4,0.3-0.4
		c0.8-0.1,1.6-0.6,2.2-1.4c0.6-0.8,1.1-1.9,1.4-2.8c0.2-0.4,0.3-0.8,0.4-1.3c-1.6-0.8-3-1.9-4.3-3.2c-1.6,1.2-3.4,2.1-5.1,2.9
		c-1.2,0.6-2.5,1.2-4,1.2c-0.1,0-0.3,0-0.4,0c0,0.1,0.1,0.3,0.1,0.4c0.5,1.3,1.4,2.4,2.5,3c0.1,0.1,0.2,0.1,0.3,0.2
		c0.2,0.1,0.4,0.2,0.5,0.3C47.4,17.7,47.6,17.7,47.8,17.9z"/>
	<path class="st5" d="M30.1,54.3c0.7-0.7,1.4-1.4,2.1-2.1c-1-1.3-2.2-2.5-3.3-3.6l-0.1,0c-0.3,0.1-0.5,0.2-0.8,0.3l1.8,4.7
		C29.9,53.8,30,54.1,30.1,54.3z"/>
	<path class="st5" d="M70.4,53.9c0.1-0.3,0.2-0.5,0.3-0.8l-0.5-0.4c-0.3,0.3-0.6,0.6-0.8,0.9l0.8,0.9C70.3,54.3,70.4,54.2,70.4,53.9
		z"/>
	<path class="st5" d="M67.9,54.3c0.7-0.7,1.4-1.4,2.1-2.1c-1-1.3-2.2-2.5-3.3-3.6l-0.1,0c-0.3,0.1-0.5,0.2-0.8,0.3l1.8,4.7
		C67.6,53.8,67.7,54.1,67.9,54.3z"/>
	<path class="st5" d="M66.7,41.7c1.8-0.9,3.6-1.8,5.2-3c0.1-0.1,0.4-0.1,0.5,0c1.2,1.3,2.6,2.5,4.1,3.2c0-0.1,0-0.1,0-0.2
		c0.1-1.2-0.4-2.6-1.3-3.6c-0.9-1-2.1-1.6-3-2.1c-0.9-0.4-2.1-0.9-3.2-0.7c-1,0.1-2,0.7-2.8,1.2c-1.3,0.8-2.6,1.8-3.3,3.3
		c-0.4,0.9-0.5,2-0.4,3.1C63.9,43.1,65.4,42.3,66.7,41.7z"/>
	<path class="st5" d="M66.7,47.7c1.2,1.2,2.3,2.4,3.4,3.6c0.3-1.1,1-2.1,1.9-2.7l0-0.1c0-0.2,0.1-0.4,0.3-0.4
		c0.8-0.1,1.6-0.6,2.2-1.4c0.6-0.8,1.1-1.9,1.4-2.8c0.2-0.4,0.3-0.8,0.4-1.3c-1.6-0.8-3-1.9-4.3-3.2c-1.6,1.2-3.4,2.1-5.1,2.9
		c-1.2,0.6-2.5,1.2-4,1.2c-0.1,0-0.3,0-0.4,0c0,0.1,0.1,0.3,0.1,0.4c0.5,1.3,1.4,2.4,2.5,3c0.1,0.1,0.2,0.1,0.3,0.2
		c0.2,0.1,0.4,0.2,0.5,0.3C66.2,47.5,66.4,47.5,66.7,47.7z"/>
	<path class="st5" d="M74.5,49.2L74.5,49.2c-0.7,1.7-1.3,3.4-1.6,5.1l-0.1,0.5l-1.5-1.3c0,0.1-0.1,0.2-0.1,0.3l0,0l1.3,2.8
		c0.1,0.1,0.2,0.4,0.1,0.6l0,0.1l-0.1,0.1c-0.5,0.5-1,1-1.3,1.6L71,59.5l-0.3-0.2c-0.7-0.6-1.5-1.1-2.4-1.5l-0.3-0.1l0.2-0.3
		c0.5-0.9,0.8-1.8,1.1-2.8l0,0L69,54.1c-0.3,0.3-0.6,0.6-1,0.9l-0.2,0.2L67.6,55c-0.3-0.4-0.5-0.8-0.6-1.2l-1.7-4.6
		c-1.2,0.8-2.2,2.1-2.8,3.7c-0.7,1.9-0.8,4.3-0.4,6.6c5.9,1,12.1,0.8,17.9-0.8c-0.3-2.1-0.6-4.3-1.6-6.1
		C77.4,51,76.1,49.8,74.5,49.2z"/>
	<path class="st5" d="M72.6,48.9c-1.1,0.7-1.9,1.9-2.1,3.1l0,0.1l0.7,0.6c0.1-0.1,0.3-0.1,0.4,0l0.2,0.2l-0.1,0.2l0.7,0.6
		c0.4-1.6,0.9-3.2,1.5-4.7C73.5,48.9,73.1,48.9,72.6,48.9L72.6,48.9z"/>
	<path class="st5" d="M70.9,58.5c0.3-0.5,0.7-1,1.2-1.4c0-0.1,0-0.1-0.1-0.2l-1.1-2.4c0,0.1-0.1,0.2-0.1,0.3
		c-0.2,0.3-0.4,0.3-0.5,0.3h0c-0.2,0-0.3-0.1-0.4-0.2c-0.2,0.8-0.5,1.6-0.9,2.3C69.6,57.7,70.3,58.1,70.9,58.5z"/>
	<path class="st5" d="M36.8,49.2L36.8,49.2c-0.7,1.7-1.3,3.4-1.6,5.1l-0.1,0.5l-1.5-1.3c0,0.1-0.1,0.2-0.1,0.3l0,0l1.3,2.8
		c0.1,0.1,0.2,0.4,0.1,0.6l0,0.1l-0.1,0.1c-0.5,0.5-1,1-1.3,1.6l-0.2,0.3L33,59.2c-0.7-0.6-1.5-1.1-2.4-1.5l-0.3-0.1l0.2-0.3
		c0.5-0.9,0.8-1.8,1.1-2.8l0,0l-0.4-0.4c-0.3,0.3-0.6,0.6-1,0.9l-0.2,0.2L29.9,55c-0.3-0.4-0.5-0.8-0.6-1.2l-1.7-4.6
		c-1.2,0.8-2.2,2.1-2.8,3.7c-0.7,1.9-0.8,4.3-0.4,6.6c5.9,1,12.1,0.8,17.9-0.8c-0.3-2.1-0.6-4.3-1.6-6.1
		C39.7,51,38.3,49.8,36.8,49.2z"/>
	<path class="st5" d="M36.1,48.3c0.4-0.3,0.8-0.7,1.2-1.1c0.7-0.9,1.1-2,1.5-3c0.2-0.4,0.3-0.9,0.4-1.4c0.1,0,0.1-0.1,0.1-0.1
		c0.1-0.1,0-0.2,0-0.3c0-0.2,0.1-0.3,0.1-0.5c0.1-1.4-0.5-3-1.5-4.1c-1-1.1-2.3-1.8-3.3-2.2c-1-0.5-2.3-0.9-3.6-0.8
		c-1.1,0.1-2.2,0.7-3.1,1.3c-1.4,0.9-2.8,1.9-3.6,3.6c-0.5,1.1-0.6,2.3-0.4,3.6c0,0.1,0,0.2,0.1,0.3c0.1,0.3,0.1,0.6,0.2,0.9
		c0.5,1.4,1.5,2.7,2.8,3.4c0.1,0.1,0.2,0.1,0.3,0.2c0.2,0.1,0.4,0.2,0.5,0.3c-1.7,0.7-3.2,2.4-4,4.5c-0.8,2.1-0.9,4.7-0.3,7.2
		c0,0.1,0.1,0.2,0.3,0.3c2.5,0.4,5,0.7,7.5,0.7c3.8,0,7.6-0.5,11.3-1.5c0.2,0,0.3-0.2,0.3-0.4c-0.3-2.3-0.7-4.7-1.7-6.7
		C40.1,50.2,38.2,48.7,36.1,48.3z M36.2,49c-0.7,1.5-1.2,3.1-1.5,4.7L34,53.1l0.1-0.2l-0.2-0.2c-0.1-0.1-0.3-0.1-0.4,0l-0.7-0.6
		l0-0.1c0.1-1.3,0.9-2.5,2.1-3.1l0.1-0.1C35.4,48.9,35.8,48.9,36.2,49z M32.1,55c0.1,0.1,0.2,0.2,0.4,0.2h0c0.1,0,0.3-0.1,0.5-0.3
		c0-0.1,0.1-0.2,0.1-0.3l1.1,2.4c0,0,0.1,0.1,0.1,0.2c-0.4,0.4-0.8,0.9-1.2,1.4c-0.6-0.5-1.2-0.9-1.9-1.2
		C31.6,56.6,31.9,55.8,32.1,55z M31.7,53.6c0.3-0.3,0.6-0.6,0.8-0.9l0.5,0.4c-0.1,0.2-0.2,0.5-0.3,0.8c-0.1,0.2-0.1,0.4-0.2,0.6
		L31.7,53.6z M25.1,39.7c0.7-1.5,2-2.5,3.3-3.3c0.8-0.5,1.8-1,2.8-1.2c1.1-0.1,2.3,0.3,3.2,0.7c0.9,0.4,2.1,1,3,2.1
		c0.9,1,1.4,2.4,1.3,3.6c0,0.1,0,0.1,0,0.2c-1.5-0.8-2.9-1.9-4.1-3.2c-0.1-0.1-0.3-0.2-0.5,0c-1.6,1.3-3.4,2.2-5.2,3
		c-1.2,0.6-2.8,1.4-4.2,1.1C24.6,41.8,24.7,40.7,25.1,39.7z M27.8,47.2c-0.1-0.1-0.2-0.1-0.3-0.2c-1.1-0.6-2.1-1.7-2.5-3
		c-0.1-0.1-0.1-0.3-0.1-0.4c0.1,0,0.3,0,0.4,0c1.4,0,2.8-0.7,4-1.2c1.7-0.8,3.5-1.7,5.1-2.9c1.2,1.4,2.7,2.5,4.3,3.2
		c-0.1,0.4-0.3,0.9-0.4,1.3c-0.4,0.9-0.8,2-1.4,2.8c-0.6,0.9-1.4,1.4-2.2,1.4c-0.2,0-0.3,0.2-0.3,0.4l0,0.1
		c-0.9,0.7-1.6,1.6-1.9,2.7c-1.1-1.3-2.2-2.5-3.4-3.6c-0.2-0.2-0.4-0.2-0.6-0.2C28.2,47.4,28,47.3,27.8,47.2z M28.8,48.6L28.8,48.6
		c1.2,1.1,2.3,2.3,3.4,3.6c-0.7,0.7-1.4,1.4-2.1,2.1c-0.1-0.2-0.2-0.5-0.3-0.7l-1.8-4.7C28.3,48.7,28.6,48.6,28.8,48.6z M24.3,59.5
		c-0.5-2.4-0.3-4.7,0.4-6.6c0.6-1.6,1.6-3,2.8-3.7l1.7,4.6c0.1,0.4,0.3,0.8,0.6,1.2l0.2,0.2l0.2-0.2c0.3-0.3,0.6-0.6,1-0.9l0.4,0.4
		l0,0c-0.2,1-0.6,1.9-1.1,2.8l-0.2,0.3l0.3,0.1c0.8,0.4,1.6,0.9,2.4,1.5l0.3,0.2l0.2-0.3c0.4-0.6,0.8-1.2,1.3-1.6l0.1-0.1l0-0.1
		c0-0.3-0.1-0.5-0.1-0.6l-1.3-2.8l0,0c0-0.1,0.1-0.2,0.1-0.3l1.5,1.3l0.1-0.5c0.4-1.7,0.9-3.5,1.6-5.1l0,0c1.5,0.6,2.9,1.8,3.8,3.3
		c1,1.8,1.4,4,1.6,6.1C36.4,60.3,30.3,60.5,24.3,59.5z"/>
	<path class="st5" d="M78.9,52.2c-1.1-2.1-3-3.5-5.1-3.9c0.4-0.3,0.8-0.7,1.2-1.1c0.7-0.9,1.1-2,1.5-3c0.2-0.4,0.3-0.9,0.4-1.4
		c0.1,0,0.1-0.1,0.1-0.1c0.1-0.1,0-0.2,0-0.3c0-0.2,0.1-0.3,0.1-0.5c0.1-1.4-0.5-3-1.5-4.1c-1-1.1-2.3-1.8-3.3-2.2
		c-1-0.5-2.3-0.9-3.6-0.8c-1.1,0.1-2.2,0.7-3.1,1.3c-1.4,0.9-2.8,1.9-3.6,3.6c-0.5,1.1-0.6,2.3-0.4,3.6c0,0.1,0,0.2,0.1,0.3
		c0.1,0.3,0.1,0.6,0.2,0.9c0.5,1.4,1.5,2.7,2.8,3.4c0.1,0.1,0.2,0.1,0.3,0.2c0.2,0.1,0.4,0.2,0.5,0.3c-1.7,0.7-3.2,2.4-4,4.5
		c-0.8,2.1-0.9,4.7-0.3,7.2c0,0.1,0.1,0.2,0.3,0.3c2.5,0.4,5,0.7,7.5,0.7c3.8,0,7.6-0.5,11.3-1.5c0.2,0,0.3-0.2,0.3-0.4
		C80.4,56.6,80,54.2,78.9,52.2z M73.9,49c-0.7,1.5-1.2,3.1-1.5,4.7l-0.7-0.6l0.1-0.2l-0.2-0.2c-0.1-0.1-0.3-0.1-0.4,0l-0.7-0.6
		l0-0.1c0.1-1.3,0.9-2.5,2.1-3.1l0.1-0.1C73.1,48.9,73.5,48.9,73.9,49z M69.8,55c0.1,0.1,0.2,0.2,0.4,0.2h0c0.1,0,0.3-0.1,0.5-0.3
		c0-0.1,0.1-0.2,0.1-0.3l1.1,2.4c0,0,0.1,0.1,0.1,0.2c-0.4,0.4-0.8,0.9-1.2,1.4c-0.6-0.5-1.2-0.9-1.9-1.2
		C69.3,56.6,69.6,55.8,69.8,55z M69.4,53.6c0.3-0.3,0.6-0.6,0.8-0.9l0.5,0.4c-0.1,0.2-0.2,0.5-0.3,0.8c-0.1,0.2-0.1,0.4-0.2,0.6
		L69.4,53.6z M62.8,39.7c0.7-1.5,2-2.5,3.3-3.3c0.8-0.5,1.8-1,2.8-1.2c1.1-0.1,2.3,0.3,3.2,0.7c0.9,0.4,2.1,1,3,2.1
		c0.9,1,1.4,2.4,1.3,3.6c0,0.1,0,0.1,0,0.2c-1.5-0.8-2.9-1.9-4.1-3.2c-0.1-0.1-0.3-0.2-0.5,0c-1.6,1.3-3.4,2.2-5.2,3
		c-1.2,0.6-2.8,1.4-4.2,1.1C62.3,41.8,62.4,40.7,62.8,39.7z M65.6,47.2c-0.1-0.1-0.2-0.1-0.3-0.2c-1.1-0.6-2.1-1.7-2.5-3
		c-0.1-0.1-0.1-0.3-0.1-0.4c0.1,0,0.3,0,0.4,0c1.4,0,2.8-0.7,4-1.2c1.7-0.8,3.5-1.7,5.1-2.9c1.2,1.4,2.7,2.5,4.3,3.2
		c-0.1,0.4-0.3,0.9-0.4,1.3c-0.3,0.9-0.8,2-1.4,2.8c-0.6,0.9-1.4,1.4-2.2,1.4c-0.2,0-0.3,0.2-0.3,0.4l0,0.1
		c-0.9,0.7-1.6,1.6-1.9,2.7c-1.1-1.3-2.2-2.5-3.4-3.6c-0.2-0.2-0.4-0.2-0.6-0.2C65.9,47.4,65.7,47.3,65.6,47.2z M66.5,48.6
		L66.5,48.6c1.2,1.1,2.3,2.3,3.4,3.6c-0.7,0.7-1.4,1.4-2.1,2.1c-0.1-0.2-0.2-0.5-0.3-0.7l-1.8-4.7C66,48.7,66.3,48.6,66.5,48.6z
		 M62.1,59.5c-0.5-2.4-0.3-4.7,0.4-6.6c0.6-1.6,1.6-3,2.8-3.7l1.7,4.6c0.1,0.4,0.3,0.8,0.6,1.2l0.2,0.2L68,55c0.3-0.3,0.6-0.6,1-0.9
		l0.4,0.4l0,0c-0.2,1-0.6,1.9-1.1,2.8l-0.2,0.3l0.3,0.1c0.8,0.4,1.6,0.9,2.4,1.5l0.3,0.2l0.2-0.3c0.4-0.6,0.8-1.2,1.3-1.6l0.1-0.1
		l0-0.1c0-0.3-0.1-0.5-0.1-0.6l-1.3-2.8l0,0c0-0.1,0.1-0.2,0.1-0.3l1.5,1.3l0.1-0.5c0.4-1.7,0.9-3.5,1.6-5.1l0,0
		c1.5,0.6,2.9,1.8,3.8,3.3c1,1.8,1.4,4,1.6,6.1C74.1,60.3,68,60.5,62.1,59.5z"/>
	<path class="st5" d="M42.9,22.9c-0.8,2.1-0.9,4.7-0.3,7.2c0,0.1,0.1,0.2,0.3,0.3c2.5,0.4,5,0.7,7.5,0.7c3.8,0,7.6-0.5,11.3-1.5
		c0.2,0,0.3-0.2,0.3-0.4c-0.3-2.3-0.7-4.7-1.7-6.7c-1.1-2.1-3-3.5-5.1-3.9c0.4-0.3,0.8-0.7,1.2-1.1c0.7-0.9,1.1-2,1.5-3
		c0.2-0.4,0.3-0.9,0.4-1.4c0.1,0,0.1-0.1,0.1-0.1c0.1-0.1,0-0.2,0-0.3c0-0.2,0.1-0.3,0.1-0.5c0.1-1.4-0.5-3-1.5-4.1
		c-1-1.1-2.3-1.8-3.3-2.2c-1-0.5-2.3-0.9-3.6-0.8c-1.1,0.1-2.2,0.7-3.1,1.3C45.5,7,44.1,8,43.3,9.7c-0.5,1.1-0.6,2.3-0.4,3.6
		c0,0.1,0,0.2,0.1,0.3c0.1,0.3,0.1,0.6,0.2,0.9c0.5,1.4,1.5,2.7,2.8,3.4c0.1,0.1,0.2,0.1,0.3,0.2c0.2,0.1,0.4,0.2,0.5,0.3
		C45.2,19,43.7,20.7,42.9,22.9z M55.1,19.3c-0.7,1.5-1.2,3.1-1.5,4.7l-0.7-0.6l0.1-0.2L52.8,23c-0.1-0.1-0.3-0.1-0.4,0l-0.7-0.6
		l0-0.1c0.1-1.3,0.9-2.5,2.1-3.1l0.1-0.1C54.3,19.1,54.7,19.2,55.1,19.3z M51,25.3c0.1,0.1,0.2,0.2,0.4,0.2h0c0.1,0,0.3-0.1,0.5-0.3
		c0-0.1,0.1-0.2,0.1-0.3l1.1,2.4c0,0,0.1,0.1,0.1,0.2c-0.4,0.4-0.8,0.9-1.2,1.4c-0.6-0.5-1.2-0.9-1.9-1.2
		C50.4,26.8,50.7,26.1,51,25.3z M50.6,23.9c0.3-0.3,0.6-0.6,0.8-0.9l0.5,0.4c-0.1,0.2-0.2,0.5-0.3,0.8c-0.1,0.2-0.1,0.4-0.2,0.6
		L50.6,23.9z M44,10c0.7-1.5,2-2.5,3.3-3.3c0.8-0.5,1.8-1,2.8-1.2c1.1-0.1,2.3,0.3,3.2,0.7c0.9,0.4,2.1,1,3,2.1
		c0.9,1,1.4,2.4,1.3,3.6c0,0.1,0,0.1,0,0.2c-1.5-0.8-2.9-1.9-4.1-3.2c-0.1-0.1-0.3-0.2-0.5,0c-1.6,1.3-3.4,2.2-5.2,3
		c-1.2,0.6-2.8,1.4-4.2,1.1C43.4,12,43.6,10.9,44,10z M46.7,17.4c-0.1-0.1-0.2-0.1-0.3-0.2c-1.1-0.6-2.1-1.7-2.5-3
		c-0.1-0.1-0.1-0.3-0.1-0.4c0.1,0,0.3,0,0.4,0c1.4,0,2.8-0.7,4-1.2c1.7-0.8,3.5-1.7,5.1-2.9c1.2,1.4,2.7,2.5,4.3,3.2
		c-0.1,0.4-0.3,0.9-0.4,1.3c-0.4,0.9-0.8,2-1.4,2.8c-0.6,0.9-1.4,1.4-2.2,1.4c-0.2,0-0.3,0.2-0.3,0.4l0,0.1
		c-0.9,0.7-1.6,1.6-1.9,2.7c-1.1-1.3-2.2-2.5-3.4-3.6c-0.2-0.2-0.4-0.2-0.6-0.2C47.1,17.6,46.9,17.5,46.7,17.4z M47.7,18.8
		L47.7,18.8c1.2,1.1,2.3,2.3,3.4,3.6c-0.7,0.7-1.4,1.4-2.1,2.1c-0.1-0.2-0.2-0.5-0.3-0.7l-1.8-4.7C47.2,19,47.4,18.9,47.7,18.8z
		 M46.4,19.4l1.7,4.6c0.1,0.4,0.3,0.8,0.6,1.2l0.2,0.2l0.2-0.2c0.3-0.3,0.6-0.6,1-0.9l0.4,0.4l0,0c-0.2,1-0.6,1.9-1.1,2.8l-0.2,0.3
		l0.3,0.1c0.8,0.4,1.6,0.9,2.4,1.5l0.3,0.2l0.2-0.3c0.4-0.6,0.8-1.2,1.3-1.6l0.1-0.1l0-0.1c0-0.3-0.1-0.5-0.1-0.6l-1.3-2.8l0,0
		c0-0.1,0.1-0.2,0.1-0.3l1.5,1.3l0.1-0.5c0.4-1.7,0.9-3.5,1.6-5.1l0,0c1.5,0.6,2.9,1.7,3.8,3.3c1,1.8,1.4,4,1.6,6.1
		c-5.8,1.6-12,1.8-17.9,0.8c-0.5-2.4-0.3-4.7,0.4-6.6C44.1,21.5,45.2,20.2,46.4,19.4z"/>
	<path class="st5" d="M58.7,45.9L58.7,45.9c-2.4-1.4-4.5-2.8-6.6-4.6c0-1.2-0.1-2.6-0.1-4c0-1,0.1-2,0.2-2.9
		c0.1-0.3-0.1-0.5-0.4-0.6c-0.3-0.1-0.5,0.1-0.6,0.4c-0.2,0.9-0.2,2-0.2,3c0,1.4,0.1,2.9,0.1,4.1c0,0,0,0.1-0.1,0.1
		c-0.1,0.1-0.3,0.4-0.6,0.6c-0.4,0.3-0.9,0.7-1.3,1c-0.5,0.3-0.9,0.6-1.1,0.8l0,0c-1.3,1-2.7,1.9-4.1,2.9c-0.2,0.2-0.3,0.5-0.1,0.7
		c0.2,0.2,0.5,0.3,0.7,0.1c1.3-1,2.8-1.8,4.1-2.9c0.2-0.1,0.4-0.3,0.8-0.5c0.5-0.3,1.1-0.8,1.6-1.2c0.3-0.2,0.5-0.4,0.7-0.6l0.1-0.1
		c2.1,1.8,4.1,3.1,6.5,4.5c0.2,0.1,0.5,0.1,0.7-0.2C59,46.3,58.9,46.1,58.7,45.9z"/>
</g>
</svg>
