<?xml version="1.0" encoding="utf-8"?>
<!-- Generator: Adobe Illustrator 25.4.1, SVG Export Plug-In . SVG Version: 6.00 Build 0)  -->
<svg version="1.1" id="Capa_1" xmlns="http://www.w3.org/2000/svg" xmlns:xlink="http://www.w3.org/1999/xlink" x="0px" y="0px"
	 viewBox="0 0 101.3 67.4" style="enable-background:new 0 0 101.3 67.4;" xml:space="preserve">
<style type="text/css">
	.st0{fill:#F4991C;}
</style>
<g>
	<g>
		<path class="st0" d="M24.1,10.1c-8.6,0-15.7,7-15.7,15.7c0,8.6,7,15.7,15.7,15.7c5.6,0,10.6-3,13.3-7.5c-2.2-3.5-5-9.9-1.7-18.7
			C32.8,12.1,28.7,10.1,24.1,10.1z"/>
		<path class="st0" d="M34.8,39.2c-0.2,0.2-0.4,0.3-0.7,0.5c-1.5,4.1-5.5,7-10.1,7c-4.7,0-8.6-2.9-10.1-7.1
			c-0.5-0.3-0.9-0.6-1.1-0.8c-0.1-0.1-0.2-0.1-0.2-0.2l-0.1,0.1c-9.8,8.4-9.6,23.2-9.6,23.8l0,0.5h24.8c0.4-5.7,2.1-15.9,8.9-23.4
			c-0.5-0.5-0.9-0.8-1.2-1c-0.1,0.1-0.3,0.2-0.4,0.4C34.9,39.1,34.9,39.2,34.8,39.2z"/>
	</g>
	<g>
		<path class="st0" d="M67,38.2c-0.2,0.1-0.3,0.3-0.5,0.4c-0.1,0.1-0.2,0.1-0.2,0.2c-1.5,1.2-5.1,3.5-9.7,4.3
			c-0.5,0.1-0.9,0.1-1.4,0.2c-0.4,0-0.8,0-1.2,0c-1.5,0-2.9-0.2-4.3-0.5c-4.3-1.1-7.6-3.7-8.6-4.4c-0.1-0.1-0.2-0.2-0.3-0.2
			l-0.2,0.1c-11.2,9.7-11,26.6-11,27.3l0,0.6h47.8l0-0.6C76.7,45.9,68.9,39.5,67,38.2z M60.4,51.4L53.6,48l-6.7,3.4v-8.3l6.7,3.6
			l6.7-3.6V51.4z"/>
	</g>
	<g>
		<g>
			<path class="st0" d="M36.1,23.1c0,9.9,8.1,18,18,18h0c4.8,0,9.3-1.9,12.7-5.3c3.4-3.4,5.3-7.9,5.3-12.7c0-9.9-8.1-18-18-18
				C44.2,5.1,36.1,13.2,36.1,23.1z"/>
		</g>
	</g>
	<path class="st0" d="M79.4,62.2l20.2,0l0-0.5c0-0.6-0.2-13.1-9-20.7l-0.1-0.1c-0.3,0.3-0.6,0.5-0.9,0.8l-6.2,12.1l-1.1-7.1l1.8-2.9
		c-1.1,0.3-2.3,0.4-3.5,0.4c-0.3,0-0.6,0-0.9,0c-0.6,0-1.1-0.1-1.7-0.2c-0.2,0-0.4-0.1-0.6-0.1l1.7,2.8l-1.2,6.8
		C78.7,56.8,79.2,60,79.4,62.2z"/>
	<path class="st0" d="M81.1,42.3c7.8,0,14.1-6.3,14.1-14.1c0-7.8-6.3-14.1-14.1-14.1c-3.2,0-6.1,1-8.4,2.8c0.7,2,1.1,4.2,1.1,6.5
		c0,4.7-1.7,9-4.6,12.3C71.7,39.7,76.1,42.3,81.1,42.3z"/>
</g>
</svg>
