<?xml version="1.0" encoding="utf-8"?>
<!-- Generator: Adobe Illustrator 25.4.1, SVG Export Plug-In . SVG Version: 6.00 Build 0)  -->
<svg version="1.1" id="Capa_1" xmlns="http://www.w3.org/2000/svg" xmlns:xlink="http://www.w3.org/1999/xlink" x="0px" y="0px"
	 viewBox="0 0 100 30" style="enable-background:new 0 0 100 30;" xml:space="preserve">
<style type="text/css">
	.st0{fill-rule:evenodd;clip-rule:evenodd;}
</style>
<g>
	<path class="st0" d="M82.5,17.4h6.9V19h-6.9v1.1c0,0.1,0,0.3,0.1,0.4c0.1,0.1,0.1,0.2,0.2,0.3c0.2,0.2,0.4,0.3,0.7,0.3h5.9v1.6h-6
		c-0.3,0-0.7-0.1-1-0.2c-0.3-0.1-0.6-0.3-0.8-0.6c-0.2-0.2-0.4-0.5-0.6-0.8c-0.1-0.3-0.2-0.7-0.2-1v-3.4c0-0.3,0.1-0.7,0.2-1
		c0.1-0.3,0.3-0.6,0.6-0.8c0.2-0.2,0.5-0.4,0.8-0.6c0.3-0.1,0.7-0.2,1-0.2h6v1.6h-5.9c-0.3,0-0.5,0.1-0.7,0.3
		c-0.1,0.1-0.2,0.2-0.2,0.3c-0.1,0.1-0.1,0.3-0.1,0.4V17.4L82.5,17.4z M77.5,20.8c0,0,0.1,0.1,0.1,0.1c0,0,0.1,0.1,0.1,0.1
		c0,0,0.1,0.1,0.1,0.1c0,0,0.1,0,0.1,0c0.1,0,0.1,0,0.2,0c0,0,0.1,0,0.1-0.1c0.1-0.1,0.1-0.2,0.1-0.4v-6.5H80v6.5
		c0,0.3,0,0.6-0.2,0.8c-0.1,0.3-0.3,0.5-0.4,0.7c-0.2,0.2-0.4,0.3-0.7,0.5c-0.3,0.1-0.5,0.2-0.8,0.2c-0.1,0-0.3,0-0.4,0
		c-0.1,0-0.2-0.1-0.4-0.1c-0.2-0.1-0.4-0.2-0.6-0.3c-0.2-0.1-0.3-0.3-0.4-0.4c-0.1-0.1-0.2-0.3-0.3-0.4c-0.1-0.1-0.1-0.2-0.1-0.3
		c0-0.1-0.1-0.1-0.1-0.2c-0.1-0.1-0.1-0.2-0.2-0.3c-0.1-0.2-0.2-0.3-0.3-0.5c-0.1-0.2-0.2-0.4-0.3-0.7c-0.1-0.2-0.2-0.5-0.3-0.7
		c-0.1-0.2-0.2-0.5-0.4-0.7c-0.1-0.2-0.2-0.4-0.3-0.7c-0.1-0.2-0.2-0.4-0.3-0.6c-0.1-0.1-0.1-0.3-0.2-0.4c0-0.1-0.1-0.2-0.1-0.2
		c0-0.1-0.1-0.1-0.1-0.2c0-0.1-0.1-0.1-0.2-0.2c0-0.1-0.1-0.1-0.2-0.1c-0.1,0-0.1,0-0.2,0c-0.1,0-0.1,0.1-0.1,0.1
		c-0.1,0.1-0.1,0.2-0.1,0.4v6.5h-1.7v-6.5c0-0.6,0.2-1.1,0.6-1.5c0.2-0.2,0.4-0.3,0.7-0.5c0.3-0.1,0.6-0.2,0.8-0.2
		c0.3,0,0.6,0,0.8,0.1c0.3,0.1,0.5,0.2,0.7,0.5c0.1,0.1,0.3,0.3,0.4,0.5c0.1,0.1,0.2,0.3,0.2,0.4c0.1,0.2,0.2,0.3,0.2,0.5
		c0.1,0.3,0.3,0.6,0.4,0.9c0.2,0.4,0.4,0.8,0.6,1.1c0.2,0.4,0.4,0.8,0.6,1.2c0.1,0.3,0.3,0.6,0.4,0.8c0,0.1,0.1,0.1,0.1,0.2l0,0l0,0
		l0,0c0.1,0.1,0.1,0.2,0.2,0.3C77.4,20.7,77.4,20.7,77.5,20.8L77.5,20.8z M62.2,19.3v3.4h-1.7v-8.6l2.6,0h4.2c0.3,0,0.7,0.1,1,0.2
		c0.3,0.1,0.6,0.3,0.8,0.6c0.2,0.2,0.4,0.5,0.6,0.8c0.1,0.3,0.2,0.7,0.2,1c0,0.4-0.1,0.7-0.2,1.1c-0.1,0.3-0.3,0.5-0.5,0.7
		c0.2,0.2,0.4,0.4,0.5,0.7c0.2,0.3,0.2,0.7,0.2,1.1v2.5h-1.7v-2.5c0-0.3-0.1-0.5-0.3-0.7c-0.2-0.2-0.4-0.3-0.6-0.3H62.2L62.2,19.3z
		 M62.2,17.7h5c0.1,0,0.3,0,0.4-0.1c0.1-0.1,0.2-0.1,0.3-0.2c0.2-0.2,0.3-0.4,0.3-0.7c0-0.3-0.1-0.5-0.3-0.7
		c-0.1-0.1-0.2-0.2-0.3-0.2c-0.1-0.1-0.2-0.1-0.4-0.1l-5,0L62.2,17.7L62.2,17.7z M52.8,17.4h6.9V19h-6.9v1.1c0,0.1,0,0.3,0.1,0.4
		c0.1,0.1,0.1,0.2,0.2,0.3c0.2,0.2,0.4,0.3,0.7,0.3h5.9v1.6h-6c-0.3,0-0.7-0.1-1-0.2c-0.3-0.1-0.6-0.3-0.8-0.6
		c-0.2-0.2-0.4-0.5-0.6-0.8c-0.1-0.3-0.2-0.7-0.2-1v-3.4c0-0.3,0.1-0.7,0.2-1c0.1-0.3,0.3-0.6,0.6-0.8c0.2-0.2,0.5-0.4,0.8-0.6
		c0.3-0.1,0.7-0.2,1-0.2h6v1.6h-5.9c-0.3,0-0.5,0.1-0.7,0.3c-0.1,0.1-0.2,0.2-0.2,0.3c-0.1,0.1-0.1,0.3-0.1,0.4V17.4L52.8,17.4z
		 M44.8,15.8H41v-1.6h9.3v1.6h-3.8v7h-1.7V15.8L44.8,15.8z M33.3,17.4h6.9V19h-6.9v1.1c0,0.1,0,0.3,0.1,0.4c0.1,0.1,0.1,0.2,0.2,0.3
		c0.2,0.2,0.4,0.3,0.7,0.3h5.9v1.6h-6c-0.3,0-0.7-0.1-1-0.2c-0.3-0.1-0.6-0.3-0.8-0.6c-0.2-0.2-0.4-0.5-0.6-0.8
		c-0.1-0.3-0.2-0.7-0.2-1v-3.4c0-0.3,0.1-0.7,0.2-1c0.1-0.3,0.3-0.6,0.6-0.8c0.2-0.2,0.5-0.4,0.8-0.6c0.3-0.1,0.7-0.2,1-0.2h6v1.6
		h-5.9c-0.3,0-0.5,0.1-0.7,0.3c-0.1,0.1-0.2,0.2-0.2,0.3c-0.1,0.1-0.1,0.3-0.1,0.4V17.4L33.3,17.4z M94,15.8h-3.8v-1.6h9.3v1.6h-3.8
		v7H94V15.8L94,15.8z"/>
	<g>
		<path d="M35.3,7.7h-1.7c-1.1,0-1.6,0.4-1.6,1.4v3.4c0,0.1,0.1,0.2,0.2,0.2h0.4c0.1,0,0.2-0.1,0.2-0.2v-1.2h2.5
			c1.1,0,1.6-0.4,1.6-1.4V9.1C36.9,8.1,36.4,7.7,35.3,7.7z M36,9.2v0.7c0,0.5-0.1,0.7-0.8,0.7h-2.4V9.2c0-0.5,0.1-0.7,0.8-0.7h1.6
			C35.9,8.5,36,8.7,36,9.2z"/>
		<path d="M40.8,7.7h-2.7c-0.1,0-0.2,0.1-0.2,0.2v0.3c0,0.1,0.1,0.2,0.2,0.2h2.6c0.7,0,0.8,0.2,0.8,0.6v0h-2.7
			c-0.7,0-1.1,0.3-1.1,0.9v0.3c0,0.7,0.3,1,1.1,1h2.9c0.4,0,0.6-0.2,0.6-0.6V9.1C42.4,8.1,41.9,7.7,40.8,7.7z M41.4,10.6H39
			c-0.4,0-0.4-0.1-0.4-0.4v-0.2c0-0.2,0-0.3,0.4-0.3h2.5v0.7C41.5,10.6,41.5,10.6,41.4,10.6z"/>
		<path d="M46.6,7.7h-1.7c-1.1,0-1.6,0.4-1.6,1.4v0.7c0,1,0.4,1.4,1.6,1.4h2.5v0c0,0.6-0.1,0.7-0.8,0.7h-2.9c-0.1,0-0.2,0.1-0.2,0.2
			v0.3c0,0.1,0.1,0.2,0.2,0.2h2.9c1.1,0,1.6-0.4,1.6-1.4V9.1C48.2,8.1,47.7,7.7,46.6,7.7z M47.4,9.1v1.4h-2.4
			c-0.7,0-0.8-0.2-0.8-0.7V9.1c0-0.5,0.1-0.7,0.8-0.7h1.6C47.3,8.4,47.4,8.6,47.4,9.1z"/>
		<path d="M52.6,7.7h-1.7c-1.1,0-1.6,0.4-1.6,1.4V10c0,1,0.4,1.4,1.6,1.4h1.7c1.1,0,1.6-0.4,1.6-1.4V9.1C54.2,8.1,53.7,7.7,52.6,7.7
			z M53.3,9.2v0.7c0,0.5-0.1,0.7-0.8,0.7h-1.6c-0.7,0-0.8-0.2-0.8-0.7V9.2c0-0.5,0.1-0.7,0.8-0.7h1.6C53.2,8.4,53.3,8.7,53.3,9.2z"
			/>
		<path d="M58.5,9.1h-2.2c-0.4,0-0.4-0.1-0.4-0.3V8.7c0-0.2,0-0.3,0.4-0.3h2.9c0.1,0,0.2-0.1,0.2-0.2V7.9c0-0.1-0.1-0.2-0.2-0.2h-3
			c-0.7,0-1.1,0.3-1.1,0.9v0.2c0,0.6,0.4,0.9,1.1,0.9h2.2c0.4,0,0.4,0.2,0.4,0.3v0.2c0,0.2-0.1,0.3-0.4,0.3h-3.1
			c-0.1,0-0.2,0.1-0.2,0.2v0.3c0,0.1,0.1,0.2,0.2,0.2h3.2c0.7,0,1.1-0.3,1.1-1v-0.3C59.6,9.4,59.3,9.1,58.5,9.1z M59.3,7.8L59.3,7.8
			L59.3,7.8L59.3,7.8z"/>
	</g>
	<path id="SVGID_00000094583607233057992080000009053645664554496387_" class="st0" d="M19,13.2h3c0.1,0,0.3-0.2,0.3-0.3v-0.4h0V11
		c0-0.3,0-0.5-0.1-0.8c-0.2-0.4-0.5-0.7-0.8-0.9l0,0l-7.1-4.1c-0.3-0.2-0.6-0.3-0.9-0.3c-0.3,0-0.7,0.1-0.9,0.3L5.1,9.2l0,0
		c-0.4,0.2-0.7,0.5-0.8,0.9c-0.1,0.2-0.1,0.5-0.1,0.8h0v8.1h0c0,0.3,0,0.5,0.1,0.8c0.2,0.4,0.5,0.7,0.8,0.9l0,0l7.1,4.1
		c0.3,0.2,0.6,0.3,0.9,0.3c0.3,0,0.7-0.1,0.9-0.3l7.1-4.1l0,0c0.4-0.2,0.7-0.5,0.8-0.9c0.1-0.3,0.1-0.5,0.1-0.8v-1.6h0V17
		c0-0.2-0.1-0.3-0.3-0.3h-3c-0.1,0-0.1,0.1-0.2,0.2v0.7c0,0.2,0,0.3-0.1,0.5c-0.1,0.3-0.3,0.5-0.5,0.6l0,0l-4.4,2.5
		c-0.2,0.1-0.4,0.2-0.6,0.2c-0.2,0-0.4-0.1-0.6-0.2l-4.4-2.5l0,0C8,18.4,7.8,18.2,7.7,18c-0.1-0.2-0.1-0.3-0.1-0.5v-0.8h7.3
		c0.2,0,0.3-0.1,0.3-0.3v-2.9c0-0.1-0.1-0.2-0.2-0.2h-2.5l-0.1,0H7.6v-0.7c0-0.2,0-0.3,0.1-0.5c0.1-0.3,0.3-0.5,0.5-0.6v0l4.4-2.5
		c0.2-0.1,0.4-0.2,0.6-0.2c0.2,0,0.4,0.1,0.6,0.2l4.4,2.5l0,0c0.2,0.1,0.4,0.3,0.5,0.6c0.1,0.2,0.1,0.3,0.1,0.5v0.4
		C18.7,13.1,18.8,13.2,19,13.2L19,13.2z M25.8,9.3v11.4c0,0.4-0.1,0.7-0.2,1.1c-0.2,0.6-0.6,1-1.2,1.3l0,0l-10,5.8
		c-0.4,0.2-0.8,0.4-1.3,0.4c-0.5,0-0.9-0.1-1.3-0.4l-10-5.8l0,0c-0.5-0.3-0.9-0.8-1.2-1.3c-0.1-0.3-0.2-0.7-0.2-1.1V9.3
		c0-0.4,0.1-0.7,0.2-1.1c0.2-0.6,0.6-1,1.2-1.3l0,0l10-5.8c0.4-0.2,0.8-0.4,1.3-0.4c0.5,0,0.9,0.1,1.3,0.4l10,5.8l0,0
		c0.5,0.3,0.9,0.8,1.2,1.3C25.8,8.6,25.8,8.9,25.8,9.3L25.8,9.3z"/>
</g>
</svg>
