<?xml version="1.0" encoding="utf-8"?>
<!-- Generator: Adobe Illustrator 25.4.1, SVG Export Plug-In . SVG Version: 6.00 Build 0)  -->
<svg version="1.1" id="Capa_1" xmlns="http://www.w3.org/2000/svg" xmlns:xlink="http://www.w3.org/1999/xlink" x="0px" y="0px"
	 viewBox="0 0 1080 1080" style="enable-background:new 0 0 1080 1080;" xml:space="preserve">
<style type="text/css">
	.st0{fill:#9B9B9B;}
</style>
<g>
	<path class="st0" d="M157.1,906l-29.9-29.9l5.7-5.7l33.8,8.4l-3,3l-8.6-33.6l5.7-5.7l30,29.8l-6.5,6.5l-20-19.9l1.2-1.2l6.8,26.8
		l-3.1,3.1l-27-6.6l1.5-1.5l19.9,19.9L157.1,906z"/>
	<path class="st0" d="M212.9,851.2c-2.4,2.4-4.9,4.2-7.7,5.4c-2.8,1.2-5.6,1.9-8.5,2c-2.9,0.1-5.6-0.4-8.3-1.5
		c-2.7-1.1-5.1-2.7-7.4-4.9s-3.9-4.7-4.9-7.4c-1.1-2.7-1.6-5.5-1.5-8.3c0.1-2.9,0.7-5.7,2-8.5c1.2-2.8,3-5.3,5.3-7.6
		c2.4-2.4,4.9-4.1,7.7-5.4c2.7-1.2,5.5-1.8,8.4-1.9c2.9-0.1,5.6,0.4,8.3,1.5c2.7,1,5.2,2.7,7.4,4.9c2.2,2.2,3.9,4.7,4.9,7.4
		c1.1,2.7,1.6,5.5,1.5,8.3c-0.1,2.8-0.7,5.6-1.9,8.4C217,846.3,215.2,848.9,212.9,851.2z M206.9,845.4c1.3-1.3,2.3-2.8,3-4.4
		c0.7-1.6,1-3.2,1-4.9c0-1.7-0.3-3.4-1-5c-0.7-1.6-1.8-3.2-3.2-4.6c-1.4-1.4-3-2.5-4.6-3.2c-1.6-0.7-3.3-1.1-5-1.1
		c-1.7,0-3.3,0.3-4.9,1s-3.1,1.7-4.4,3c-1.3,1.3-2.3,2.8-3,4.4c-0.7,1.6-1,3.2-1,4.9c0,1.7,0.3,3.4,1,5c0.7,1.6,1.8,3.2,3.2,4.6
		c1.4,1.4,2.9,2.4,4.6,3.2c1.7,0.7,3.3,1.1,5,1.1c1.7,0,3.3-0.3,4.9-1C204.1,847.7,205.6,846.7,206.9,845.4z"/>
	<path class="st0" d="M233.9,829.2L204,799.3l13.6-13.6c3.2-3.2,6.7-5.5,10.4-6.7c3.7-1.2,7.4-1.4,11-0.6s6.9,2.8,10,5.8
		c3,3,4.9,6.3,5.8,10c0.8,3.6,0.6,7.3-0.6,11c-1.2,3.7-3.5,7.2-6.7,10.4L233.9,829.2z M235.1,816.6l6.3-6.3c2-2,3.3-4.1,4.1-6.3
		c0.7-2.2,0.8-4.4,0.2-6.6c-0.6-2.2-1.8-4.2-3.7-6.1c-1.9-1.9-4-3.1-6.1-3.7c-2.2-0.6-4.4-0.5-6.6,0.2c-2.2,0.7-4.3,2.1-6.3,4.1
		l-6.3,6.3L235.1,816.6z"/>
	<path class="st0" d="M284.1,779.9c-2.4,2.4-4.9,4.2-7.7,5.4c-2.8,1.2-5.6,1.9-8.5,2c-2.9,0.1-5.6-0.4-8.3-1.5
		c-2.7-1.1-5.1-2.7-7.4-4.9s-3.9-4.7-4.9-7.4c-1.1-2.7-1.6-5.5-1.5-8.3c0.1-2.9,0.7-5.7,2-8.5c1.2-2.8,3-5.3,5.3-7.6
		c2.4-2.4,4.9-4.1,7.7-5.4c2.7-1.2,5.5-1.8,8.4-1.9c2.9-0.1,5.6,0.4,8.3,1.5c2.7,1,5.2,2.7,7.4,4.9c2.2,2.2,3.9,4.7,4.9,7.4
		c1.1,2.7,1.6,5.5,1.5,8.3c-0.1,2.8-0.7,5.6-1.9,8.4C288.2,775.1,286.5,777.6,284.1,779.9z M278.2,774.1c1.3-1.3,2.3-2.8,3-4.4
		c0.7-1.6,1-3.2,1-4.9c0-1.7-0.3-3.4-1-5c-0.7-1.6-1.8-3.2-3.2-4.6c-1.4-1.4-3-2.5-4.6-3.2c-1.6-0.7-3.3-1.1-5-1.1
		c-1.7,0-3.3,0.3-4.9,1c-1.6,0.7-3.1,1.7-4.4,3c-1.3,1.3-2.3,2.8-3,4.4c-0.7,1.6-1,3.2-1,4.9s0.3,3.4,1,5c0.7,1.6,1.8,3.2,3.2,4.6
		c1.4,1.4,2.9,2.4,4.6,3.2c1.7,0.7,3.3,1.1,5,1.1c1.7,0,3.3-0.3,4.9-1C275.4,776.4,276.9,775.4,278.2,774.1z"/>
	<path class="st0" d="M317.2,745.8l-29.9-29.9l12.9-12.9c2.7-2.7,5.4-4.5,8.2-5.6c2.8-1.1,5.5-1.3,8.2-0.7s5.1,2,7.4,4.2
		c2.2,2.2,3.6,4.7,4.2,7.3c0.6,2.7,0.3,5.4-0.7,8.2c-1.1,2.8-2.9,5.5-5.6,8.2l-9.1,9.1l0-6.2l11.4,11.4L317.2,745.8z M313.6,728.3
		l-6.4-0.2l8.7-8.7c2.1-2.1,3.3-4.2,3.4-6.1c0.1-2-0.6-3.8-2.2-5.4c-1.6-1.7-3.5-2.4-5.4-2.3c-2,0.1-4,1.3-6.1,3.4l-8.7,8.7
		l-0.2-6.4L313.6,728.3z"/>
	<path class="st0" d="M348,715l-29.9-29.9l12.9-12.9c2.7-2.7,5.4-4.5,8.2-5.6c2.8-1.1,5.5-1.3,8.2-0.7c2.7,0.6,5.1,2,7.4,4.2
		c2.2,2.2,3.6,4.7,4.2,7.3c0.6,2.7,0.3,5.4-0.8,8.2c-1.1,2.8-3,5.5-5.6,8.2l-9.1,9.1l0-6.1l11.4,11.4L348,715z M344.4,697.5
		l-6.3-0.2l8.7-8.7c2.1-2.1,3.3-4.2,3.4-6.2c0.1-2-0.6-3.8-2.2-5.4c-1.6-1.6-3.5-2.4-5.4-2.3c-2,0.1-4,1.3-6.1,3.4l-8.7,8.7
		l-0.2-6.4L344.4,697.5z M367,696l-18.3-3.4l7.4-7.4l18.4,3.3L367,696z"/>
	<path class="st0" d="M393.2,670.9c-4.2,4.2-8.7,6.4-13.5,6.4c-4.8,0-9.3-2.1-13.7-6.5L349.3,654l6.9-6.9l16.5,16.5
		c2.8,2.8,5.5,4.3,7.9,4.4c2.4,0.1,4.7-0.9,6.8-3c2.1-2.1,3.1-4.4,3-6.8c-0.1-2.4-1.6-5.1-4.4-7.9l-16.5-16.5l6.8-6.8l16.7,16.7
		c4.4,4.4,6.6,9,6.5,13.7C399.6,662.1,397.4,666.6,393.2,670.9z"/>
	<path class="st0" d="M414.4,637.6l16.3-16.3l5.5,5.5L413,650l-29.9-29.9l22.6-22.6l5.5,5.5l-15.7,15.7L414.4,637.6z M401.6,625.8
		l14.4-14.4l5.4,5.4l-14.4,14.4L401.6,625.8z"/>
	<path class="st0" d="M441.7,621.4l-29.9-29.9l14.6-14.6c3.8-3.8,7.3-5.9,10.6-6.3c3.3-0.5,6.1,0.5,8.5,2.8c1.6,1.6,2.5,3.3,2.9,5.2
		s0.2,3.9-0.5,5.8s-1.9,3.8-3.7,5.5l-0.9-2.6c1.9-1.9,3.8-3.2,5.9-4.1c2.1-0.8,4.1-1.1,6.1-0.7c2,0.4,3.9,1.4,5.6,3.2
		c2.6,2.6,3.6,5.6,3,9c-0.6,3.5-2.8,7.2-6.8,11.1L441.7,621.4z M443.4,609.3l8.1-8.1c1.8-1.8,2.9-3.4,3.2-5c0.3-1.5-0.1-2.9-1.4-4.2
		c-1.3-1.3-2.6-1.7-4.2-1.4c-1.5,0.3-3.2,1.4-5,3.2l-8.6,8.6l-5-5l7.4-7.4c1.7-1.7,2.7-3.3,3-4.7c0.3-1.5-0.1-2.8-1.3-4
		c-1.2-1.2-2.5-1.6-4-1.3c-1.5,0.3-3.1,1.3-4.7,3l-6.9,6.9L443.4,609.3z"/>
	<path class="st0" d="M470.4,592.6l-16.6-43.2l6.8-6.8l43.2,16.5l-7.3,7.3l-37.3-15.5l2.7-2.7l15.4,37.3L470.4,592.6z M470.7,579.6
		l-3.4-7.1l15.4-15.4l7.1,3.4L470.7,579.6z"/>
	<path class="st0" d="M508.4,535.9l-5.3-5.3l12.1-12.1l5.3,5.3L508.4,535.9z"/>
	<path class="st0" d="M549,503l16.3-16.3l5.5,5.5l-23.1,23.1l-29.9-29.9l22.6-22.6l5.5,5.5l-15.7,15.7L549,503z M536.2,491.2
		l14.4-14.4l5.4,5.4l-14.4,14.4L536.2,491.2z"/>
	<path class="st0" d="M582.5,480.5l-24.2-24.2l-9.6,9.6l-5.6-5.6l26-26l5.6,5.6l-9.6,9.6l24.2,24.2L582.5,480.5z"/>
	<path class="st0" d="M604,447.9l16.3-16.3l5.5,5.5l-23.1,23.1l-29.9-29.9l22.6-22.6l5.5,5.5l-15.7,15.7L604,447.9z M591.2,436.1
		l14.4-14.4l5.4,5.4l-14.4,14.4L591.2,436.1z"/>
	<path class="st0" d="M631.3,431.7l-29.9-29.9l12.9-12.9c2.7-2.7,5.4-4.5,8.2-5.6c2.8-1.1,5.5-1.3,8.2-0.7c2.7,0.6,5.1,2,7.4,4.2
		c2.2,2.2,3.6,4.7,4.2,7.3c0.6,2.7,0.3,5.4-0.8,8.2c-1.1,2.8-3,5.5-5.6,8.2l-9.1,9.1l0-6.1l11.4,11.4L631.3,431.7z M627.7,414.2
		l-6.3-0.2l8.7-8.7c2.1-2.1,3.3-4.2,3.4-6.2c0.1-2-0.6-3.8-2.2-5.4c-1.7-1.6-3.5-2.4-5.4-2.3c-2,0.1-4,1.3-6.1,3.4l-8.7,8.7
		l-0.2-6.4L627.7,414.2z M650.3,412.7l-18.3-3.4l7.4-7.4l18.4,3.3L650.3,412.7z"/>
	<path class="st0" d="M662.7,400.3l-29.9-29.9l5.7-5.7l39.1,3.9l-2.8,2.8l-21.5-21.5l6.8-6.8l29.9,29.9l-5.7,5.7l-39.2-3.8l2.8-2.8
		l21.5,21.5L662.7,400.3z"/>
	<path class="st0" d="M698.5,353.4l16.3-16.3l5.5,5.5l-23.1,23.1L667.3,336l22.6-22.6l5.5,5.5l-15.7,15.7L698.5,353.4z M685.7,341.6
		l14.4-14.4l5.4,5.4L691.1,347L685.7,341.6z"/>
	<path class="st0" d="M732,331l-24.2-24.2l-9.6,9.6l-5.6-5.6l26-26l5.6,5.6l-9.6,9.6l24.2,24.2L732,331z"/>
	<path class="st0" d="M764.3,298.7l-29.9-29.9l12.9-12.9c2.7-2.7,5.4-4.5,8.2-5.6c2.8-1.1,5.5-1.3,8.2-0.7c2.7,0.6,5.1,2,7.4,4.2
		c2.2,2.2,3.6,4.7,4.2,7.3c0.6,2.7,0.3,5.4-0.7,8.2c-1.1,2.8-2.9,5.5-5.6,8.2l-9.1,9.1l0-6.2l11.4,11.4L764.3,298.7z M760.6,281.2
		l-6.4-0.2l8.7-8.7c2.1-2.1,3.3-4.2,3.4-6.1c0.1-2-0.6-3.8-2.2-5.4c-1.7-1.6-3.5-2.4-5.4-2.3c-2,0.1-4,1.3-6.1,3.4l-8.7,8.7
		l-0.2-6.4L760.6,281.2z"/>
	<path class="st0" d="M789.7,273.3l-16.6-43.2l6.8-6.8l43.2,16.5l-7.3,7.3l-37.3-15.5l2.7-2.7l15.4,37.3L789.7,273.3z M790,260.3
		l-3.4-7.1l15.4-15.4l7.1,3.4L790,260.3z"/>
	<path class="st0" d="M840.8,223.2c-2.4,2.4-4.9,4.2-7.6,5.4c-2.7,1.2-5.5,1.9-8.4,1.9c-2.9,0.1-5.6-0.4-8.3-1.5
		c-2.7-1.1-5.2-2.7-7.4-5c-2.2-2.2-3.9-4.7-5-7.4c-1.1-2.7-1.6-5.5-1.5-8.3c0.1-2.9,0.7-5.7,2-8.4c1.2-2.7,3.1-5.3,5.4-7.7
		c2.6-2.6,5.5-4.6,8.5-5.8c3-1.2,6.1-1.7,9.2-1.5l-0.3,8.5c-2.2-0.1-4.2,0.3-6.1,1c-1.8,0.7-3.5,1.8-5,3.4c-1.5,1.5-2.5,3-3.3,4.7
		c-0.7,1.7-1.1,3.3-1.1,5.1c0,1.7,0.3,3.4,1,5c0.7,1.6,1.8,3.2,3.2,4.6c1.4,1.4,2.9,2.4,4.5,3.1c1.6,0.7,3.3,1,5.1,1
		c1.7,0,3.4-0.4,5.1-1.1c1.6-0.7,3.2-1.8,4.6-3.2c1.4-1.4,2.5-2.9,3.3-4.7c0.9-1.7,1.4-3.7,1.5-6l8.9,1.1c-0.4,2.8-1.3,5.7-2.8,8.5
		C844.8,218.6,843,221.1,840.8,223.2z M841.9,212.8l-11.2-11.2l6.3-6.3l12.1,12.1L841.9,212.8z"/>
	<path class="st0" d="M873.8,190.2c-2.4,2.4-4.9,4.2-7.7,5.4c-2.8,1.2-5.6,1.9-8.5,2c-2.9,0.1-5.6-0.4-8.3-1.5
		c-2.7-1.1-5.1-2.7-7.4-4.9c-2.2-2.2-3.9-4.7-4.9-7.4c-1.1-2.7-1.6-5.5-1.5-8.3c0.1-2.9,0.7-5.7,2-8.5c1.2-2.8,3-5.3,5.3-7.6
		c2.4-2.4,4.9-4.1,7.7-5.4c2.7-1.2,5.5-1.8,8.4-1.9c2.9-0.1,5.6,0.4,8.3,1.5c2.7,1,5.2,2.7,7.4,4.9c2.2,2.2,3.9,4.7,4.9,7.4
		c1.1,2.7,1.6,5.5,1.5,8.3c-0.1,2.8-0.7,5.6-1.9,8.4C877.9,185.4,876.2,187.9,873.8,190.2z M867.9,184.4c1.3-1.3,2.3-2.8,3-4.4
		c0.7-1.6,1-3.2,1-4.9c0-1.7-0.3-3.4-1-5c-0.7-1.6-1.8-3.2-3.2-4.6c-1.4-1.4-3-2.5-4.6-3.2c-1.6-0.7-3.3-1.1-5-1.1
		c-1.7,0-3.3,0.3-4.9,1c-1.6,0.7-3.1,1.7-4.4,3c-1.3,1.3-2.3,2.8-3,4.4c-0.7,1.6-1,3.2-1,4.9c0,1.7,0.3,3.4,1,5
		c0.7,1.6,1.8,3.2,3.2,4.6c1.4,1.4,2.9,2.4,4.6,3.2c1.7,0.7,3.3,1.1,5,1.1c1.7,0,3.3-0.3,4.9-1C865.1,186.7,866.6,185.7,867.9,184.4
		z"/>
	<path class="st0" d="M905.2,158.9c-2.4,2.4-5,4.4-7.8,5.9c-2.8,1.6-5.4,2.5-7.8,2.8l-2.9-7.6c2.2-0.4,4.5-1.1,6.8-2.3
		c2.3-1.2,4.4-2.6,6.2-4.4c1.4-1.4,2.3-2.6,2.9-3.7s0.8-2.1,0.7-3c-0.1-0.9-0.4-1.6-1.1-2.3c-0.8-0.8-1.7-1.1-2.8-1
		c-1.1,0.2-2.3,0.6-3.6,1.3c-1.3,0.7-2.7,1.6-4.2,2.5c-1.5,1-3.1,1.9-4.7,2.7c-1.6,0.8-3.3,1.5-4.9,1.9s-3.3,0.4-5,0
		c-1.7-0.4-3.3-1.4-4.9-3c-1.7-1.7-2.8-3.7-3.3-6.1c-0.5-2.3-0.2-4.9,0.8-7.6c1-2.7,2.9-5.5,5.8-8.3c1.9-1.9,3.9-3.5,6.2-4.9
		c2.3-1.4,4.5-2.3,6.8-2.8l3.1,7.4c-2.2,0.6-4.2,1.4-6,2.4c-1.8,1-3.3,2.2-4.7,3.5c-1.3,1.3-2.3,2.6-2.8,3.8
		c-0.5,1.2-0.7,2.2-0.6,3.1c0.1,0.9,0.5,1.6,1.2,2.3c0.8,0.8,1.7,1.1,2.8,0.9c1.1-0.2,2.3-0.6,3.6-1.3c1.3-0.7,2.7-1.6,4.2-2.5
		c1.5-1,3.1-1.9,4.7-2.7c1.6-0.9,3.2-1.5,4.9-1.9c1.7-0.4,3.3-0.4,5,0c1.7,0.4,3.3,1.4,4.8,2.9c1.7,1.7,2.7,3.7,3.2,6
		c0.5,2.3,0.2,4.9-0.8,7.6C909.9,153.3,908,156.1,905.2,158.9z"/>
	<path class="st0" d="M223.6,911.7l-21.1-21.1l4.9-4.9l17.1,17.1l10.6-10.6l4,4L223.6,911.7z"/>
	<path class="st0" d="M252.1,884c-1.7,1.7-3.5,2.9-5.4,3.8c-2,0.9-3.9,1.3-6,1.4c-2,0.1-4-0.3-5.9-1.1c-1.9-0.8-3.6-1.9-5.2-3.5
		c-1.6-1.6-2.7-3.3-3.5-5.2c-0.8-1.9-1.1-3.9-1-5.9c0.1-2,0.5-4,1.4-6c0.9-1.9,2.1-3.7,3.8-5.4c1.7-1.7,3.5-2.9,5.4-3.8
		c1.9-0.9,3.9-1.3,5.9-1.4c2,0,4,0.3,5.9,1c1.9,0.7,3.6,1.9,5.2,3.5c1.6,1.6,2.7,3.3,3.5,5.2c0.8,1.9,1.1,3.9,1,5.9
		c-0.1,2-0.5,4-1.4,5.9C255,880.6,253.7,882.3,252.1,884z M247.9,879.9c0.9-0.9,1.7-2,2.1-3.1c0.5-1.1,0.7-2.3,0.7-3.5
		c0-1.2-0.2-2.4-0.7-3.5c-0.5-1.2-1.2-2.2-2.2-3.2c-1-1-2.1-1.8-3.2-2.2c-1.2-0.5-2.3-0.7-3.5-0.8c-1.2,0-2.4,0.2-3.5,0.7
		c-1.1,0.5-2.2,1.2-3.1,2.1c-0.9,0.9-1.7,2-2.1,3.1c-0.5,1.1-0.7,2.3-0.7,3.5c0,1.2,0.2,2.4,0.7,3.5c0.5,1.2,1.2,2.2,2.2,3.2
		c1,1,2.1,1.7,3.2,2.2c1.2,0.5,2.3,0.8,3.5,0.8c1.2,0,2.4-0.2,3.5-0.7C245.9,881.5,247,880.8,247.9,879.9z"/>
	<path class="st0" d="M274.2,861.9c-1.7,1.7-3.5,3.1-5.5,4.2c-2,1.1-3.8,1.8-5.5,2l-2-5.3c1.5-0.3,3.1-0.8,4.8-1.6
		c1.6-0.8,3.1-1.9,4.4-3.1c1-1,1.6-1.8,2-2.6c0.4-0.8,0.6-1.5,0.5-2.1c-0.1-0.6-0.3-1.2-0.8-1.6c-0.6-0.6-1.2-0.8-2-0.7
		s-1.6,0.4-2.6,0.9c-0.9,0.5-1.9,1.1-3,1.8c-1.1,0.7-2.2,1.3-3.3,1.9c-1.2,0.6-2.3,1-3.5,1.3c-1.2,0.3-2.3,0.3-3.5,0
		c-1.2-0.3-2.3-1-3.4-2.1c-1.2-1.2-2-2.6-2.3-4.3c-0.3-1.6-0.2-3.4,0.6-5.3c0.7-1.9,2.1-3.9,4.1-5.8c1.3-1.3,2.8-2.5,4.4-3.5
		c1.6-1,3.2-1.6,4.8-2l2.2,5.2c-1.5,0.4-2.9,1-4.2,1.7c-1.3,0.7-2.4,1.5-3.3,2.5c-0.9,0.9-1.6,1.8-2,2.7c-0.4,0.8-0.5,1.5-0.4,2.2
		c0.1,0.6,0.4,1.2,0.8,1.6c0.5,0.5,1.2,0.8,2,0.6c0.8-0.1,1.6-0.4,2.5-0.9c0.9-0.5,1.9-1.1,3-1.8c1.1-0.7,2.2-1.3,3.3-1.9
		c1.1-0.6,2.3-1.1,3.5-1.3c1.2-0.3,2.3-0.3,3.5,0c1.2,0.3,2.3,1,3.4,2.1c1.2,1.2,1.9,2.6,2.3,4.2c0.3,1.6,0.1,3.4-0.6,5.3
		C277.6,857.9,276.2,859.9,274.2,861.9z"/>
	<path class="st0" d="M305.1,831c-1.6,1.6-3.4,2.9-5.3,3.7c-1.9,0.9-3.9,1.3-5.9,1.4c-2,0-4-0.3-5.9-1.1c-1.9-0.8-3.6-1.9-5.2-3.5
		s-2.8-3.3-3.5-5.2c-0.8-1.9-1.1-3.9-1.1-5.9c0.1-2,0.5-4,1.4-5.9c0.9-1.9,2.1-3.7,3.8-5.3c1.8-1.8,3.8-3.2,5.9-4
		c2.1-0.8,4.3-1.2,6.5-0.9l-0.2,6c-1.5-0.1-3,0.1-4.3,0.6c-1.3,0.5-2.5,1.2-3.5,2.3c-1,1-1.7,2-2.2,3.2c-0.5,1.1-0.8,2.3-0.8,3.5
		s0.2,2.4,0.7,3.5c0.5,1.2,1.2,2.2,2.2,3.2c1,1,2.1,1.8,3.2,2.2c1.2,0.5,2.3,0.7,3.5,0.7c1.2,0,2.4-0.3,3.5-0.8
		c1.1-0.5,2.2-1.2,3.2-2.2c1-1,1.8-2.2,2.3-3.5c0.5-1.3,0.6-2.7,0.5-4.3l6-0.2c0.2,2.2-0.1,4.4-0.9,6.5
		C308.3,827.1,307,829.1,305.1,831z"/>
	<path class="st0" d="M326.9,809.2c-1.7,1.7-3.5,2.9-5.4,3.8c-2,0.9-3.9,1.3-6,1.4c-2,0-4-0.3-5.9-1.1c-1.9-0.8-3.6-1.9-5.2-3.5
		c-1.6-1.6-2.7-3.3-3.5-5.2c-0.8-1.9-1.1-3.9-1-5.9c0.1-2,0.5-4,1.4-6c0.9-1.9,2.1-3.7,3.8-5.4c1.7-1.7,3.5-2.9,5.4-3.8
		c1.9-0.9,3.9-1.3,5.9-1.4c2-0.1,4,0.3,5.9,1c1.9,0.7,3.6,1.9,5.2,3.5c1.6,1.6,2.7,3.3,3.5,5.2c0.8,1.9,1.1,3.9,1,5.9
		c-0.1,2-0.5,4-1.4,5.9C329.8,805.7,328.6,807.5,326.9,809.2z M322.7,805.1c0.9-0.9,1.7-2,2.1-3.1c0.5-1.1,0.7-2.3,0.7-3.5
		c0-1.2-0.2-2.4-0.7-3.5c-0.5-1.2-1.2-2.2-2.2-3.2c-1-1-2.1-1.8-3.2-2.2c-1.2-0.5-2.3-0.7-3.5-0.8c-1.2,0-2.4,0.2-3.5,0.7
		c-1.1,0.5-2.2,1.2-3.1,2.1c-0.9,0.9-1.7,2-2.1,3.1c-0.5,1.1-0.7,2.3-0.7,3.5c0,1.2,0.2,2.4,0.7,3.5c0.5,1.2,1.2,2.2,2.2,3.2
		c1,1,2.1,1.7,3.2,2.2c1.2,0.5,2.3,0.8,3.5,0.8c1.2,0,2.4-0.2,3.5-0.7C320.7,806.7,321.8,806,322.7,805.1z"/>
	<path class="st0" d="M341.7,793.6l-21.1-21.1l10.3-10.3c2.7-2.7,5.1-4.1,7.5-4.5c2.3-0.3,4.3,0.3,6,2c1.1,1.1,1.8,2.3,2.1,3.7
		c0.3,1.4,0.2,2.7-0.3,4.1c-0.5,1.4-1.4,2.7-2.6,3.9l-0.7-1.8c1.3-1.3,2.7-2.3,4.2-2.9c1.5-0.6,2.9-0.8,4.3-0.5c1.4,0.3,2.7,1,4,2.2
		c1.8,1.8,2.5,3.9,2.1,6.4c-0.4,2.4-2,5-4.8,7.8L341.7,793.6z M342.9,785.1l5.7-5.7c1.3-1.3,2-2.4,2.3-3.5c0.2-1.1-0.1-2-1-3
		c-0.9-0.9-1.9-1.2-3-1c-1.1,0.2-2.3,1-3.5,2.2l-6.1,6.1l-3.6-3.6l5.2-5.2c1.2-1.2,1.9-2.3,2.1-3.3c0.2-1-0.1-2-0.9-2.8
		c-0.8-0.8-1.8-1.1-2.8-0.9c-1,0.2-2.2,0.9-3.3,2.1l-4.9,4.9L342.9,785.1z"/>
	<path class="st0" d="M364.8,770.6l-21.1-21.1l9.1-9.1c1.9-1.9,3.8-3.2,5.8-4c2-0.8,3.9-0.9,5.8-0.5s3.6,1.4,5.2,3
		c1.6,1.6,2.5,3.3,2.9,5.2c0.4,1.9,0.2,3.8-0.6,5.8c-0.8,2-2.1,3.9-4,5.8l-6.4,6.4l0-4.3l8,8L364.8,770.6z M362.2,758.2l-4.5-0.1
		l6.1-6.1c1.5-1.5,2.3-3,2.4-4.4c0.1-1.4-0.4-2.7-1.6-3.8c-1.2-1.2-2.4-1.7-3.8-1.6c-1.4,0.1-2.8,0.9-4.3,2.4l-6.1,6.1l-0.2-4.5
		L362.2,758.2z M378.2,757.2l-12.9-2.4l5.2-5.2l13,2.3L378.2,757.2z"/>
	<path class="st0" d="M397.5,738.6c-1.7,1.7-3.5,2.9-5.4,3.8c-2,0.9-3.9,1.3-6,1.4c-2,0.1-4-0.3-5.9-1.1c-1.9-0.8-3.6-1.9-5.2-3.5
		c-1.6-1.6-2.7-3.3-3.5-5.2c-0.8-1.9-1.1-3.9-1-5.9c0.1-2,0.5-4,1.4-6c0.9-1.9,2.1-3.7,3.8-5.4c1.7-1.7,3.5-2.9,5.4-3.8
		c1.9-0.9,3.9-1.3,5.9-1.4c2,0,4,0.3,5.9,1s3.6,1.9,5.2,3.5c1.6,1.6,2.7,3.3,3.5,5.2c0.8,1.9,1.1,3.9,1,5.9c-0.1,2-0.5,4-1.4,5.9
		C400.4,735.1,399.2,736.9,397.5,738.6z M393.3,734.4c0.9-0.9,1.7-2,2.1-3.1c0.5-1.1,0.7-2.3,0.7-3.5c0-1.2-0.2-2.4-0.7-3.5
		c-0.5-1.2-1.2-2.2-2.2-3.2c-1-1-2.1-1.8-3.2-2.2c-1.2-0.5-2.3-0.7-3.5-0.8c-1.2,0-2.4,0.2-3.5,0.7c-1.1,0.5-2.2,1.2-3.1,2.1
		c-0.9,0.9-1.7,2-2.1,3.1c-0.5,1.1-0.7,2.3-0.7,3.5c0,1.2,0.2,2.4,0.7,3.5c0.5,1.2,1.2,2.2,2.2,3.2c1,1,2.1,1.7,3.2,2.2
		c1.2,0.5,2.3,0.8,3.5,0.8c1.2,0,2.4-0.2,3.5-0.7C391.4,736.1,392.4,735.4,393.3,734.4z"/>
	<path class="st0" d="M419.6,716.4c-1.7,1.7-3.5,3.1-5.5,4.2c-2,1.1-3.8,1.8-5.5,2l-2-5.3c1.5-0.3,3.1-0.8,4.8-1.6
		c1.6-0.8,3.1-1.9,4.4-3.1c1-1,1.6-1.8,2-2.6c0.4-0.8,0.6-1.5,0.5-2.1c-0.1-0.6-0.3-1.2-0.8-1.6c-0.6-0.6-1.2-0.8-2-0.7
		c-0.8,0.1-1.6,0.4-2.6,0.9c-0.9,0.5-1.9,1.1-3,1.8c-1.1,0.7-2.2,1.3-3.3,1.9c-1.2,0.6-2.3,1-3.5,1.3c-1.2,0.3-2.3,0.3-3.5,0
		c-1.2-0.3-2.3-1-3.4-2.1c-1.2-1.2-2-2.6-2.3-4.3c-0.3-1.6-0.2-3.4,0.6-5.3c0.7-1.9,2.1-3.9,4.1-5.8c1.3-1.3,2.8-2.5,4.4-3.5
		c1.6-1,3.2-1.6,4.8-2l2.2,5.2c-1.5,0.4-2.9,1-4.2,1.7c-1.3,0.7-2.4,1.5-3.3,2.5c-0.9,0.9-1.6,1.8-2,2.7c-0.4,0.8-0.5,1.5-0.4,2.2
		c0.1,0.6,0.4,1.2,0.8,1.6c0.5,0.5,1.2,0.8,2,0.6c0.8-0.1,1.6-0.4,2.5-1c0.9-0.5,1.9-1.1,3-1.8c1.1-0.7,2.2-1.3,3.3-1.9
		c1.1-0.6,2.3-1.1,3.5-1.3c1.2-0.3,2.3-0.3,3.5,0c1.2,0.3,2.3,1,3.4,2.1c1.2,1.2,1.9,2.6,2.3,4.2c0.3,1.6,0.1,3.4-0.6,5.3
		C423,712.5,421.7,714.4,419.6,716.4z"/>
	<path class="st0" d="M450.7,685.4c-1.6,1.6-3.5,2.9-5.4,3.8c-2,0.9-3.9,1.3-6,1.4c-2,0.1-4-0.3-5.9-1.1c-1.9-0.8-3.6-1.9-5.2-3.5
		c-1.6-1.6-2.7-3.3-3.5-5.2c-0.8-1.9-1.1-3.9-1-5.9c0.1-2,0.5-4,1.4-6c0.9-1.9,2.1-3.7,3.8-5.4c1.7-1.7,3.5-2.9,5.4-3.8
		c1.9-0.9,3.9-1.3,5.9-1.4c2-0.1,4,0.3,5.9,1c1.9,0.7,3.7,1.9,5.2,3.5c1.6,1.6,2.7,3.3,3.5,5.2c0.8,1.9,1.1,3.9,1,5.9
		c-0.1,2-0.5,4-1.4,5.9C453.6,681.9,452.3,683.7,450.7,685.4z M446.5,681.2c0.9-0.9,1.7-2,2.1-3.1s0.7-2.3,0.7-3.5
		c0-1.2-0.3-2.4-0.8-3.6c-0.5-1.2-1.2-2.2-2.2-3.2c-1-1-2.1-1.8-3.2-2.2c-1.2-0.5-2.3-0.7-3.5-0.7s-2.4,0.2-3.5,0.7
		c-1.1,0.5-2.1,1.2-3.1,2.1c-0.9,0.9-1.7,2-2.1,3.1c-0.5,1.1-0.7,2.3-0.7,3.5c0,1.2,0.3,2.4,0.8,3.5c0.5,1.2,1.2,2.2,2.2,3.2
		c1,1,2.1,1.7,3.2,2.2c1.2,0.5,2.3,0.8,3.5,0.8c1.2,0,2.4-0.2,3.5-0.7C444.5,682.9,445.6,682.2,446.5,681.2z M462.1,683
		c-0.8,0.8-1.7,1.5-2.6,2.1c-0.9,0.6-1.9,1-3,1.3c-1.1,0.3-2.4,0.5-3.9,0.6c-1.5,0.1-3.1,0.1-5,0l3.8-6.4c1.3,0.2,2.4,0.3,3.3,0.3
		c0.9,0,1.7-0.2,2.3-0.4c0.6-0.3,1.2-0.6,1.6-1.1c1.3-1.3,1.9-3,1.9-5l4.8,0.4C465.5,677.9,464.4,680.6,462.1,683z"/>
	<path class="st0" d="M475.3,660.8c-3,3-6.2,4.5-9.5,4.5c-3.4,0-6.6-1.5-9.7-4.6l-11.8-11.8l4.9-4.9l11.6,11.6c2,2,3.9,3,5.6,3.1
		c1.7,0.1,3.3-0.7,4.8-2.1c1.5-1.5,2.2-3.1,2.1-4.8c-0.1-1.7-1.1-3.6-3.1-5.6l-11.6-11.6l4.8-4.8l11.8,11.8c3.1,3.1,4.6,6.3,4.6,9.7
		C479.8,654.7,478.3,657.8,475.3,660.8z"/>
	<path class="st0" d="M490.2,637.3l11.5-11.5l3.9,3.9l-16.3,16.3L468.2,625l15.9-15.9l3.9,3.9L477,624.1L490.2,637.3z M481.2,629
		l10.2-10.2l3.8,3.8L485,632.8L481.2,629z"/>
	<path class="st0" d="M518,617.3l-21.1-21.1l9.1-9.1c1.9-1.9,3.8-3.2,5.8-4c2-0.8,3.9-0.9,5.8-0.5c1.9,0.4,3.6,1.4,5.2,3
		c1.6,1.6,2.5,3.3,2.9,5.2c0.4,1.9,0.2,3.8-0.6,5.8c-0.8,2-2.1,3.9-4,5.8l-6.4,6.4l0-4.3l8,8L518,617.3z M515.4,605l-4.5-0.1
		l6.1-6.1c1.5-1.5,2.3-3,2.4-4.4c0.1-1.4-0.4-2.7-1.6-3.8c-1.2-1.2-2.4-1.7-3.8-1.6c-1.4,0.1-2.8,0.9-4.3,2.4l-6.1,6.1l-0.2-4.5
		L515.4,605z M531.4,603.9l-12.9-2.4l5.2-5.2l13,2.3L531.4,603.9z"/>
	<path class="st0" d="M541.1,586.4l11.5-11.5l3.9,3.9l-16.3,16.3l-21.1-21.1l15.9-15.9l3.9,3.9l-11.1,11.1L541.1,586.4z
		 M532.1,578.1l10.2-10.2l3.8,3.8l-10.2,10.2L532.1,578.1z"/>
	<path class="st0" d="M557.6,577.7l-11.7-30.5l4.8-4.8l30.5,11.7l-5.1,5.1l-26.3-10.9l1.9-1.9l10.9,26.4L557.6,577.7z M557.8,568.5
		l-2.4-5l10.8-10.8l5,2.4L557.8,568.5z"/>
	<path class="st0" d="M583.5,551.9l-21.1-21.1l4.9-4.9l17.1,17.1l10.6-10.6l4,4L583.5,551.9z"/>
	<path class="st0" d="M601.7,533.7l-21.1-21.1l4.9-4.9l21.1,21.1L601.7,533.7z"/>
	<path class="st0" d="M622,514.1c-1.6,1.6-3.4,2.9-5.3,3.7c-1.9,0.9-3.9,1.3-5.9,1.4c-2,0-4-0.3-5.9-1.1c-1.9-0.8-3.6-1.9-5.2-3.5
		s-2.8-3.3-3.5-5.2c-0.8-1.9-1.1-3.9-1.1-5.9s0.5-4,1.4-5.9c0.9-1.9,2.1-3.7,3.8-5.3c1.8-1.8,3.8-3.2,5.9-4s4.3-1.2,6.5-0.9l-0.2,6
		c-1.5-0.1-3,0.1-4.3,0.6c-1.3,0.5-2.5,1.2-3.5,2.3c-1,1-1.7,2-2.2,3.2c-0.5,1.1-0.8,2.3-0.8,3.5s0.2,2.4,0.7,3.5
		c0.5,1.2,1.2,2.2,2.2,3.2c1,1,2.1,1.8,3.2,2.2c1.2,0.5,2.3,0.7,3.5,0.7c1.2,0,2.4-0.3,3.5-0.8c1.1-0.5,2.2-1.2,3.2-2.2
		c1-1,1.8-2.2,2.3-3.5c0.5-1.3,0.6-2.7,0.5-4.3l6-0.2c0.2,2.2-0.1,4.4-0.9,6.5S623.9,512.2,622,514.1z"/>
	<path class="st0" d="M634.6,493l11.5-11.5l3.9,3.9l-16.3,16.3l-21.1-21.1l15.9-15.9l3.9,3.9l-11.1,11.1L634.6,493z M625.5,484.6
		l10.2-10.2l3.8,3.8l-10.2,10.2L625.5,484.6z"/>
	<path class="st0" d="M661.1,474.9c-1.7,1.7-3.5,3.1-5.5,4.2c-2,1.1-3.8,1.8-5.5,2l-2-5.3c1.5-0.3,3.1-0.8,4.8-1.6
		c1.6-0.8,3.1-1.9,4.4-3.1c1-1,1.6-1.8,2-2.6c0.4-0.8,0.6-1.5,0.5-2.1c-0.1-0.6-0.3-1.2-0.8-1.6c-0.6-0.6-1.2-0.8-2-0.7
		c-0.8,0.1-1.6,0.4-2.6,0.9c-0.9,0.5-1.9,1.1-3,1.8c-1.1,0.7-2.2,1.3-3.3,1.9c-1.2,0.6-2.3,1-3.5,1.3c-1.2,0.3-2.3,0.3-3.5,0
		c-1.2-0.3-2.3-1-3.4-2.1c-1.2-1.2-2-2.6-2.3-4.3c-0.3-1.6-0.2-3.4,0.6-5.3c0.7-1.9,2.1-3.9,4.1-5.8c1.3-1.3,2.8-2.5,4.4-3.5
		c1.6-1,3.2-1.6,4.8-2l2.2,5.2c-1.5,0.4-2.9,1-4.2,1.7c-1.3,0.7-2.4,1.5-3.3,2.5c-0.9,0.9-1.6,1.8-2,2.7c-0.4,0.8-0.5,1.5-0.4,2.2
		c0.1,0.6,0.4,1.2,0.8,1.6c0.5,0.5,1.2,0.8,2,0.6c0.8-0.1,1.6-0.4,2.5-0.9c0.9-0.5,1.9-1.1,3-1.8c1.1-0.7,2.2-1.3,3.3-1.9
		c1.1-0.6,2.3-1.1,3.5-1.3c1.2-0.3,2.3-0.3,3.5,0c1.2,0.3,2.3,1,3.4,2.1c1.2,1.2,1.9,2.6,2.3,4.2c0.3,1.6,0.1,3.4-0.6,5.3
		C664.5,471,663.2,472.9,661.1,474.9z"/>
	<path class="st0" d="M682.5,445l11.5-11.5l3.9,3.9l-16.3,16.3l-21.1-21.1l15.9-15.9l3.9,3.9l-11.1,11.1L682.5,445z M673.5,436.7
		l10.2-10.2l3.8,3.8l-10.2,10.2L673.5,436.7z"/>
	<path class="st0" d="M701.8,433.5l-21.1-21.1l4-4l27.6,2.7l-2,2l-15.2-15.2l4.8-4.8l21.1,21.1l-4,4l-27.7-2.7l2-2l15.2,15.2
		L701.8,433.5z"/>
	<path class="st0" d="M735.6,391.9l11.5-11.5l3.9,3.9l-16.3,16.3l-21.1-21.1l15.9-15.9l3.9,3.9l-11.1,11.1L735.6,391.9z
		 M726.6,383.6l10.2-10.2l3.8,3.8l-10.2,10.2L726.6,383.6z"/>
	<path class="st0" d="M762.2,373.9c-1.7,1.7-3.5,3.1-5.5,4.2c-2,1.1-3.8,1.8-5.5,2l-2-5.3c1.5-0.3,3.1-0.8,4.8-1.6
		c1.6-0.8,3.1-1.9,4.4-3.1c1-1,1.6-1.8,2-2.6c0.4-0.8,0.6-1.5,0.5-2.1c-0.1-0.6-0.3-1.2-0.8-1.6c-0.6-0.6-1.2-0.8-2-0.7
		c-0.8,0.1-1.6,0.4-2.6,0.9c-0.9,0.5-1.9,1.1-3,1.8c-1.1,0.7-2.2,1.3-3.3,1.9c-1.2,0.6-2.3,1-3.5,1.3c-1.2,0.3-2.3,0.3-3.5,0
		c-1.2-0.3-2.3-1-3.4-2.1c-1.2-1.2-2-2.6-2.3-4.3c-0.3-1.6-0.2-3.4,0.6-5.3c0.7-1.9,2.1-3.9,4.1-5.8c1.3-1.3,2.8-2.5,4.4-3.5
		c1.6-1,3.2-1.6,4.8-2l2.2,5.2c-1.5,0.4-2.9,1-4.2,1.7c-1.3,0.7-2.4,1.5-3.3,2.5c-0.9,0.9-1.6,1.8-2,2.7c-0.4,0.8-0.5,1.5-0.4,2.2
		c0.1,0.6,0.4,1.2,0.8,1.6c0.5,0.5,1.2,0.8,2,0.6c0.8-0.1,1.6-0.4,2.5-0.9c0.9-0.5,1.9-1.1,3-1.8c1.1-0.7,2.2-1.3,3.3-1.9
		c1.1-0.6,2.3-1.1,3.5-1.3c1.2-0.3,2.3-0.3,3.5,0c1.2,0.3,2.3,1,3.4,2.1c1.2,1.2,1.9,2.6,2.3,4.2c0.3,1.6,0.1,3.4-0.6,5.3
		C765.6,369.9,764.2,371.9,762.2,373.9z"/>
	<path class="st0" d="M778.2,357.2l-17.1-17.1l-6.8,6.7l-4-4l18.4-18.4l4,4l-6.7,6.7l17.1,17.1L778.2,357.2z"/>
	<path class="st0" d="M793.4,334.1l11.5-11.5l3.9,3.9l-16.3,16.3l-21.1-21.1l15.9-15.9l3.9,3.9l-11.1,11.1L793.4,334.1z
		 M784.3,325.8l10.2-10.2l3.8,3.8l-10.2,10.2L784.3,325.8z"/>
	<path class="st0" d="M821.2,314.2l-21.1-21.1l4-4l23.9,5.9l-2.1,2.1l-6.1-23.7l4-4l21.2,21l-4.6,4.6l-14.1-14l0.8-0.8l4.8,18.9
		l-2.2,2.2l-19-4.6l1-1l14.1,14.1L821.2,314.2z"/>
	<path class="st0" d="M860.6,275.5c-1.7,1.7-3.5,2.9-5.4,3.8c-2,0.9-3.9,1.3-6,1.4c-2,0.1-4-0.3-5.9-1.1c-1.9-0.8-3.6-1.9-5.2-3.5
		c-1.6-1.6-2.7-3.3-3.5-5.2c-0.8-1.9-1.1-3.9-1-5.9c0.1-2,0.5-4,1.4-6c0.9-1.9,2.1-3.7,3.8-5.4c1.7-1.7,3.5-2.9,5.4-3.8
		c1.9-0.9,3.9-1.3,5.9-1.4c2,0,4,0.3,5.9,1c1.9,0.7,3.6,1.9,5.2,3.5c1.6,1.6,2.7,3.3,3.5,5.2c0.8,1.9,1.1,3.9,1,5.9
		c-0.1,2-0.5,4-1.4,5.9C863.5,272.1,862.2,273.9,860.6,275.5z M856.4,271.4c0.9-0.9,1.7-2,2.1-3.1c0.5-1.1,0.7-2.3,0.7-3.5
		c0-1.2-0.2-2.4-0.7-3.5c-0.5-1.2-1.2-2.2-2.2-3.2c-1-1-2.1-1.8-3.2-2.2c-1.2-0.5-2.3-0.7-3.5-0.8c-1.2,0-2.4,0.2-3.5,0.7
		c-1.1,0.5-2.2,1.2-3.1,2.1s-1.7,2-2.1,3.1c-0.5,1.1-0.7,2.3-0.7,3.5s0.2,2.4,0.7,3.5c0.5,1.2,1.2,2.2,2.2,3.2c1,1,2.1,1.7,3.2,2.2
		c1.2,0.5,2.3,0.8,3.5,0.8c1.2,0,2.4-0.2,3.5-0.7C854.4,273,855.4,272.3,856.4,271.4z"/>
	<path class="st0" d="M875.4,260l-21.1-21.1l9.6-9.6c2.3-2.3,4.7-3.9,7.4-4.7c2.6-0.9,5.2-1,7.8-0.4c2.6,0.6,4.9,1.9,7.1,4.1
		c2.1,2.1,3.5,4.5,4.1,7c0.6,2.6,0.5,5.2-0.4,7.8c-0.9,2.6-2.5,5.1-4.7,7.4L875.4,260z M876.3,251.1l4.5-4.5
		c1.4-1.4,2.4-2.9,2.9-4.5c0.5-1.6,0.5-3.1,0.1-4.7c-0.4-1.6-1.3-3-2.6-4.3c-1.3-1.3-2.8-2.2-4.3-2.6c-1.5-0.4-3.1-0.4-4.7,0.2
		c-1.6,0.5-3.1,1.5-4.5,2.9l-4.5,4.5L876.3,251.1z"/>
	<path class="st0" d="M910.9,225.2c-1.7,1.7-3.5,2.9-5.4,3.8c-2,0.9-3.9,1.3-6,1.4c-2,0.1-4-0.3-5.9-1.1c-1.9-0.8-3.6-1.9-5.2-3.5
		c-1.6-1.6-2.7-3.3-3.5-5.2c-0.8-1.9-1.1-3.9-1-5.9c0.1-2,0.5-4,1.4-6c0.9-1.9,2.1-3.7,3.8-5.4c1.7-1.7,3.5-2.9,5.4-3.8
		c1.9-0.9,3.9-1.3,5.9-1.4c2,0,4,0.3,5.9,1s3.6,1.9,5.2,3.5c1.6,1.6,2.7,3.3,3.5,5.2c0.8,1.9,1.1,3.9,1,5.9c-0.1,2-0.5,4-1.4,5.9
		C913.8,221.8,912.5,223.5,910.9,225.2z M906.7,221.1c0.9-0.9,1.7-2,2.1-3.1c0.5-1.1,0.7-2.3,0.7-3.5c0-1.2-0.2-2.4-0.7-3.5
		c-0.5-1.2-1.2-2.2-2.2-3.2c-1-1-2.1-1.8-3.2-2.2c-1.2-0.5-2.3-0.7-3.5-0.8c-1.2,0-2.4,0.2-3.5,0.7c-1.1,0.5-2.2,1.2-3.1,2.1
		c-0.9,0.9-1.7,2-2.1,3.1c-0.5,1.1-0.7,2.3-0.7,3.5s0.2,2.4,0.7,3.5c0.5,1.2,1.2,2.2,2.2,3.2c1,1,2.1,1.7,3.2,2.2
		c1.2,0.5,2.3,0.8,3.5,0.8c1.2,0,2.4-0.2,3.5-0.7C904.7,222.7,905.8,222,906.7,221.1z"/>
	<path class="st0" d="M404.9,803.5c-1.7,1.7-3.5,3.1-5.5,4.2s-3.8,1.8-5.5,2l-2-5.3c1.5-0.3,3.1-0.8,4.8-1.6
		c1.6-0.8,3.1-1.9,4.4-3.1c1-1,1.6-1.8,2-2.6c0.4-0.8,0.6-1.5,0.5-2.1c-0.1-0.6-0.3-1.2-0.8-1.6c-0.6-0.6-1.2-0.8-2-0.7
		c-0.8,0.1-1.6,0.4-2.6,0.9c-0.9,0.5-1.9,1.1-3,1.8c-1.1,0.7-2.2,1.3-3.3,1.9c-1.2,0.6-2.3,1-3.5,1.3c-1.2,0.3-2.3,0.3-3.5,0
		c-1.2-0.3-2.3-1-3.5-2.1c-1.2-1.2-2-2.6-2.3-4.3c-0.3-1.6-0.2-3.4,0.6-5.3c0.7-1.9,2.1-3.9,4.1-5.8c1.3-1.3,2.8-2.5,4.4-3.4
		c1.6-1,3.2-1.6,4.8-2l2.2,5.2c-1.5,0.4-2.9,1-4.2,1.7c-1.3,0.7-2.4,1.5-3.3,2.5c-0.9,0.9-1.6,1.8-2,2.7c-0.4,0.8-0.5,1.5-0.4,2.2
		c0.1,0.6,0.4,1.2,0.8,1.6c0.5,0.5,1.2,0.8,2,0.6c0.8-0.1,1.6-0.4,2.5-0.9c0.9-0.5,1.9-1.1,3-1.8c1.1-0.7,2.2-1.3,3.3-1.9
		c1.1-0.6,2.3-1.1,3.4-1.3c1.2-0.3,2.3-0.3,3.5,0c1.2,0.3,2.3,1,3.4,2.1c1.2,1.2,1.9,2.6,2.3,4.2c0.3,1.6,0.1,3.4-0.6,5.3
		C408.3,799.5,407,801.4,404.9,803.5z"/>
	<path class="st0" d="M427.5,780.9c-1.7,1.7-3.5,2.9-5.4,3.8c-2,0.9-3.9,1.3-6,1.4s-4-0.3-5.9-1.1c-1.9-0.8-3.6-1.9-5.2-3.5
		c-1.6-1.6-2.7-3.3-3.5-5.2c-0.8-1.9-1.1-3.9-1-5.9c0.1-2,0.5-4,1.4-6c0.9-1.9,2.1-3.7,3.8-5.4c1.7-1.7,3.5-2.9,5.4-3.8
		c1.9-0.9,3.9-1.3,5.9-1.4s4,0.3,5.9,1c1.9,0.7,3.6,1.9,5.2,3.5c1.6,1.6,2.7,3.3,3.5,5.2c0.8,1.9,1.1,3.9,1,5.9
		c-0.1,2-0.5,4-1.4,5.9C430.4,777.5,429.1,779.3,427.5,780.9z M423.3,776.8c0.9-0.9,1.7-2,2.1-3.1c0.5-1.1,0.7-2.3,0.7-3.5
		c0-1.2-0.2-2.4-0.7-3.5s-1.2-2.2-2.2-3.2c-1-1-2.1-1.8-3.2-2.2c-1.2-0.5-2.3-0.7-3.5-0.8c-1.2,0-2.4,0.2-3.5,0.7
		c-1.1,0.5-2.2,1.2-3.1,2.1c-0.9,0.9-1.7,2-2.1,3.1c-0.5,1.1-0.7,2.3-0.7,3.5c0,1.2,0.2,2.4,0.7,3.5c0.5,1.2,1.2,2.2,2.2,3.2
		c1,1,2.1,1.7,3.2,2.2c1.2,0.5,2.3,0.8,3.5,0.8c1.2,0,2.4-0.2,3.5-0.7C421.3,778.4,422.3,777.7,423.3,776.8z"/>
	<path class="st0" d="M442.3,765.4l-21.1-21.1l4-4l27.6,2.7l-2,2l-15.2-15.2l4.8-4.8l21.1,21.1l-4,4l-27.7-2.7l2-2l15.2,15.2
		L442.3,765.4z"/>
	<path class="st0" d="M482.5,725.9c-1.7,1.7-3.5,3.1-5.5,4.2c-2,1.1-3.8,1.8-5.5,2l-2-5.3c1.5-0.3,3.1-0.8,4.8-1.6
		c1.6-0.8,3.1-1.9,4.4-3.1c1-1,1.6-1.8,2-2.6c0.4-0.8,0.6-1.5,0.5-2.1c-0.1-0.6-0.3-1.2-0.8-1.6c-0.6-0.6-1.2-0.8-2-0.7
		c-0.8,0.1-1.6,0.4-2.6,0.9c-0.9,0.5-1.9,1.1-3,1.8c-1.1,0.7-2.2,1.3-3.3,1.9c-1.2,0.6-2.3,1-3.5,1.3c-1.2,0.3-2.3,0.3-3.5,0
		c-1.2-0.3-2.3-1-3.5-2.1c-1.2-1.2-2-2.6-2.3-4.3c-0.3-1.6-0.2-3.4,0.6-5.3c0.7-1.9,2.1-3.9,4.1-5.8c1.3-1.3,2.8-2.5,4.4-3.4
		c1.6-1,3.2-1.6,4.8-2l2.2,5.2c-1.5,0.4-2.9,1-4.2,1.7c-1.3,0.7-2.4,1.5-3.3,2.5s-1.6,1.8-2,2.7c-0.4,0.8-0.5,1.5-0.4,2.2
		c0.1,0.6,0.4,1.2,0.8,1.6c0.5,0.5,1.2,0.8,2,0.6c0.8-0.1,1.6-0.4,2.5-0.9c0.9-0.5,1.9-1.1,3-1.8c1.1-0.7,2.2-1.3,3.3-1.9
		c1.1-0.6,2.3-1.1,3.4-1.3c1.2-0.3,2.3-0.3,3.5,0s2.3,1,3.4,2.1c1.2,1.2,1.9,2.6,2.3,4.2c0.3,1.6,0.1,3.4-0.6,5.3
		C485.8,722,484.5,723.9,482.5,725.9z"/>
	<path class="st0" d="M505,703.4c-1.7,1.7-3.5,2.9-5.4,3.8c-2,0.9-3.9,1.3-6,1.4c-2,0.1-4-0.3-5.9-1.1c-1.9-0.8-3.6-1.9-5.2-3.5
		c-1.6-1.6-2.7-3.3-3.5-5.2c-0.8-1.9-1.1-3.9-1-5.9c0.1-2,0.5-4,1.4-6c0.9-1.9,2.1-3.7,3.8-5.4c1.7-1.7,3.5-2.9,5.4-3.8
		c1.9-0.9,3.9-1.3,5.9-1.4c2,0,4,0.3,5.9,1c1.9,0.7,3.6,1.9,5.2,3.5c1.6,1.6,2.7,3.3,3.5,5.2c0.8,1.9,1.1,3.9,1,5.9
		c-0.1,2-0.5,4-1.4,5.9C507.9,700,506.7,701.7,505,703.4z M500.8,699.3c0.9-0.9,1.7-2,2.1-3.1c0.5-1.1,0.7-2.3,0.7-3.5
		c0-1.2-0.2-2.4-0.7-3.5c-0.5-1.2-1.2-2.2-2.2-3.2c-1-1-2.1-1.8-3.2-2.2c-1.2-0.5-2.3-0.7-3.5-0.8c-1.2,0-2.4,0.2-3.5,0.7
		c-1.1,0.5-2.2,1.2-3.1,2.1c-0.9,0.9-1.7,2-2.1,3.1c-0.5,1.1-0.7,2.3-0.7,3.5c0,1.2,0.2,2.4,0.7,3.5c0.5,1.2,1.2,2.2,2.2,3.2
		c1,1,2.1,1.7,3.2,2.2c1.2,0.5,2.3,0.8,3.5,0.8c1.2,0,2.4-0.2,3.5-0.7C498.8,700.9,499.9,700.2,500.8,699.3z"/>
	<path class="st0" d="M519.8,687.8l-21.1-21.1l4.9-4.9l17.1,17.1l10.6-10.6l4,4L519.8,687.8z"/>
	<path class="st0" d="M548.3,660.1c-1.7,1.7-3.5,2.9-5.4,3.8c-2,0.9-3.9,1.3-6,1.4c-2,0.1-4-0.3-5.9-1.1c-1.9-0.8-3.6-1.9-5.2-3.5
		c-1.6-1.6-2.7-3.3-3.5-5.2c-0.8-1.9-1.1-3.9-1-5.9s0.5-4,1.4-6c0.9-1.9,2.1-3.7,3.8-5.4c1.7-1.7,3.5-2.9,5.4-3.8
		c1.9-0.9,3.9-1.3,5.9-1.4c2,0,4,0.3,5.9,1c1.9,0.7,3.6,1.9,5.2,3.5c1.6,1.6,2.7,3.3,3.5,5.2c0.8,1.9,1.1,3.9,1,5.9
		c-0.1,2-0.5,4-1.4,5.9C551.2,656.7,549.9,658.5,548.3,660.1z M544.1,656c0.9-0.9,1.7-2,2.1-3.1c0.5-1.1,0.7-2.3,0.7-3.5
		c0-1.2-0.2-2.4-0.7-3.5c-0.5-1.2-1.2-2.2-2.2-3.2c-1-1-2.1-1.8-3.2-2.2c-1.2-0.5-2.3-0.7-3.5-0.8c-1.2,0-2.4,0.2-3.5,0.7
		c-1.1,0.5-2.2,1.2-3.1,2.1s-1.7,2-2.1,3.1c-0.5,1.1-0.7,2.3-0.7,3.5c0,1.2,0.2,2.4,0.7,3.5c0.5,1.2,1.2,2.2,2.2,3.2
		c1,1,2.1,1.7,3.2,2.2c1.2,0.5,2.3,0.8,3.5,0.8c1.2,0,2.4-0.2,3.5-0.7C542.1,657.7,543.1,656.9,544.1,656z"/>
	<path class="st0" d="M578.9,629.5c-1.7,1.7-3.5,3.1-5.5,4.2c-2,1.1-3.8,1.8-5.5,2l-2-5.3c1.5-0.3,3.1-0.8,4.8-1.6
		c1.6-0.8,3.1-1.9,4.4-3.1c1-1,1.6-1.8,2-2.6c0.4-0.8,0.6-1.5,0.5-2.1c-0.1-0.6-0.3-1.2-0.8-1.6c-0.6-0.6-1.2-0.8-2-0.7
		c-0.8,0.1-1.6,0.4-2.6,0.9c-0.9,0.5-1.9,1.1-3,1.8c-1.1,0.7-2.2,1.3-3.3,1.9s-2.3,1-3.5,1.3c-1.2,0.3-2.3,0.3-3.5,0
		c-1.2-0.3-2.3-1-3.5-2.1c-1.2-1.2-2-2.6-2.3-4.3c-0.3-1.6-0.2-3.4,0.6-5.3c0.7-1.9,2.1-3.9,4.1-5.8c1.3-1.3,2.8-2.5,4.4-3.4
		c1.6-1,3.2-1.6,4.8-2l2.2,5.2c-1.5,0.4-2.9,1-4.2,1.7c-1.3,0.7-2.4,1.5-3.3,2.5c-0.9,0.9-1.6,1.8-2,2.7c-0.4,0.8-0.5,1.5-0.4,2.2
		c0.1,0.6,0.4,1.2,0.8,1.6c0.5,0.5,1.2,0.8,2,0.6c0.8-0.1,1.6-0.4,2.5-0.9c0.9-0.5,1.9-1.1,3-1.8c1.1-0.7,2.2-1.3,3.3-1.9
		c1.1-0.6,2.3-1.1,3.4-1.3c1.2-0.3,2.3-0.3,3.5,0c1.2,0.3,2.3,1,3.4,2.1c1.2,1.2,1.9,2.6,2.3,4.2c0.3,1.6,0.1,3.4-0.6,5.3
		C582.3,625.5,580.9,627.5,578.9,629.5z"/>
	<path class="st0" d="M590.8,616.8l-21.1-21.1l4.9-4.9l21.1,21.1L590.8,616.8z"/>
	<path class="st0" d="M600.7,606.9l-21.1-21.1l4-4l23.9,5.9l-2.1,2.1l-6.1-23.7l4-4l21.2,21l-4.6,4.6l-14.1-14l0.8-0.8l4.8,18.9
		l-2.2,2.2l-19-4.6l1-1l14.1,14.1L600.7,606.9z"/>
	<path class="st0" d="M639.2,569.2c-3,3-6.2,4.5-9.5,4.5c-3.4,0-6.6-1.5-9.7-4.6l-11.8-11.8l4.9-4.9l11.6,11.6c2,2,3.9,3,5.6,3.1
		c1.7,0.1,3.3-0.7,4.8-2.1c1.5-1.5,2.2-3.1,2.1-4.8c-0.1-1.7-1.1-3.6-3.1-5.6L622.5,543l4.8-4.8l11.8,11.8c3.1,3.1,4.6,6.3,4.6,9.7
		C643.7,563,642.2,566.2,639.2,569.2z"/>
	<path class="st0" d="M653.2,554.4l-21.1-21.1l4.9-4.9l17.1,17.1l10.6-10.6l4,4L653.2,554.4z"/>
	<path class="st0" d="M668.8,538.9l-11.7-30.5l4.8-4.8l30.5,11.7l-5.1,5.1L661,509.4l1.9-1.9l10.9,26.4L668.8,538.9z M669,529.7
		l-2.4-5l10.8-10.8l5,2.4L669,529.7z"/>
	<path class="st0" d="M704.8,503.6c-1.6,1.6-3.4,2.9-5.3,3.7c-1.9,0.9-3.9,1.3-5.9,1.4c-2,0-4-0.3-5.9-1.1c-1.9-0.8-3.6-1.9-5.2-3.5
		s-2.8-3.3-3.5-5.2c-0.8-1.9-1.1-3.9-1.1-5.9c0.1-2,0.5-4,1.4-5.9c0.9-1.9,2.1-3.7,3.8-5.3c1.8-1.8,3.8-3.2,5.9-4
		c2.1-0.8,4.3-1.2,6.5-0.9l-0.2,6c-1.5-0.1-3,0.1-4.3,0.6c-1.3,0.5-2.5,1.2-3.5,2.3c-1,1-1.7,2-2.2,3.2c-0.5,1.1-0.8,2.3-0.8,3.5
		c0,1.2,0.2,2.4,0.7,3.5c0.5,1.2,1.2,2.2,2.2,3.2c1,1,2.1,1.8,3.2,2.2c1.2,0.5,2.3,0.7,3.5,0.7c1.2,0,2.4-0.2,3.5-0.8
		s2.2-1.2,3.2-2.2c1-1,1.8-2.2,2.3-3.5c0.5-1.3,0.6-2.7,0.5-4.3l6-0.2c0.2,2.2-0.1,4.4-0.9,6.5C708,499.8,706.7,501.8,704.8,503.6z"
		/>
	<path class="st0" d="M716.4,491.2l-21.1-21.1l4.9-4.9l21.1,21.1L716.4,491.2z"/>
	<path class="st0" d="M736.9,471.5c-1.7,1.7-3.5,2.9-5.4,3.8c-2,0.9-3.9,1.3-6,1.4c-2,0.1-4-0.3-5.9-1.1c-1.9-0.8-3.6-1.9-5.2-3.5
		c-1.6-1.6-2.7-3.3-3.5-5.2c-0.8-1.9-1.1-3.9-1-5.9c0.1-2,0.5-4,1.4-6c0.9-1.9,2.1-3.7,3.8-5.4c1.7-1.7,3.5-2.9,5.4-3.8
		c1.9-0.9,3.9-1.3,5.9-1.4c2,0,4,0.3,5.9,1c1.9,0.7,3.6,1.9,5.2,3.5c1.6,1.6,2.7,3.3,3.5,5.2c0.8,1.9,1.1,3.9,1,5.9
		c-0.1,2-0.5,4-1.4,5.9C739.8,468,738.6,469.8,736.9,471.5z M732.7,467.4c0.9-0.9,1.7-2,2.1-3.1c0.5-1.1,0.7-2.3,0.7-3.5
		c0-1.2-0.2-2.4-0.7-3.5c-0.5-1.2-1.2-2.2-2.2-3.2c-1-1-2.1-1.8-3.2-2.2c-1.2-0.5-2.3-0.7-3.5-0.8c-1.2,0-2.4,0.2-3.5,0.7
		c-1.1,0.5-2.2,1.2-3.1,2.1s-1.7,2-2.1,3.1c-0.5,1.1-0.7,2.3-0.7,3.5c0,1.2,0.2,2.4,0.7,3.5c0.5,1.2,1.2,2.2,2.2,3.2
		c1,1,2.1,1.7,3.2,2.2c1.2,0.5,2.3,0.8,3.5,0.8c1.2,0,2.4-0.2,3.5-0.7C730.8,469,731.8,468.3,732.7,467.4z"/>
	<path class="st0" d="M751.7,455.9l-21.1-21.1l4-4l27.6,2.7l-2,2l-15.2-15.2l4.8-4.8l21.1,21.1l-4,4l-27.7-2.7l2-2l15.2,15.2
		L751.7,455.9z"/>
	<path class="st0" d="M777,422.8l11.5-11.5l3.9,3.9l-16.3,16.3L755,410.5l15.9-15.9l3.9,3.9l-11.1,11.1L777,422.8z M768,414.5
		l10.2-10.2l3.8,3.8l-10.2,10.2L768,414.5z"/>
	<path class="st0" d="M803.6,404.8c-1.7,1.7-3.5,3.1-5.5,4.2c-2,1.1-3.8,1.8-5.5,2l-2-5.3c1.5-0.3,3.1-0.8,4.8-1.6
		c1.6-0.8,3.1-1.9,4.4-3.1c1-1,1.6-1.8,2-2.6c0.4-0.8,0.6-1.5,0.5-2.1c-0.1-0.6-0.3-1.2-0.8-1.6c-0.6-0.6-1.2-0.8-2-0.7
		c-0.8,0.1-1.6,0.4-2.6,0.9c-0.9,0.5-1.9,1.1-3,1.8c-1.1,0.7-2.2,1.3-3.3,1.9c-1.2,0.6-2.3,1-3.5,1.3c-1.2,0.3-2.3,0.3-3.5,0
		c-1.2-0.3-2.3-1-3.5-2.1c-1.2-1.2-2-2.6-2.3-4.3c-0.3-1.6-0.2-3.4,0.6-5.3c0.7-1.9,2.1-3.9,4.1-5.8c1.3-1.3,2.8-2.5,4.4-3.4
		c1.6-1,3.2-1.6,4.8-2l2.2,5.2c-1.5,0.4-2.9,1-4.2,1.7c-1.3,0.7-2.4,1.5-3.3,2.5c-0.9,0.9-1.6,1.8-2,2.7c-0.4,0.8-0.5,1.5-0.4,2.2
		c0.1,0.6,0.4,1.2,0.8,1.6c0.5,0.5,1.2,0.8,2,0.6c0.8-0.1,1.6-0.4,2.5-0.9c0.9-0.5,1.9-1.1,3-1.8c1.1-0.7,2.2-1.3,3.3-1.9
		c1.1-0.6,2.3-1.1,3.4-1.3c1.2-0.3,2.3-0.3,3.5,0c1.2,0.3,2.3,1,3.4,2.1c1.2,1.2,1.9,2.6,2.3,4.2c0.3,1.6,0.1,3.4-0.6,5.3
		C807,400.8,805.6,402.8,803.6,404.8z"/>
	<path class="st0" d="M817.8,390.3c-0.8,0.8-1.8,1.2-2.9,1.2c-1.1,0-2.1-0.4-3-1.3c-0.9-0.9-1.3-1.8-1.2-3c0-1.1,0.5-2.1,1.3-2.9
		c0.8-0.8,1.8-1.2,2.9-1.3c1.1,0,2.1,0.4,2.9,1.3c0.9,0.9,1.3,1.9,1.3,3C819.1,388.5,818.6,389.5,817.8,390.3z"/>
</g>
</svg>
