<?xml version="1.0" encoding="utf-8"?>
<!-- Generator: Adobe Illustrator 25.4.1, SVG Export Plug-In . SVG Version: 6.00 Build 0)  -->
<svg version="1.1" id="Capa_1" xmlns="http://www.w3.org/2000/svg" xmlns:xlink="http://www.w3.org/1999/xlink" x="0px" y="0px"
	 viewBox="0 0 270 233" style="enable-background:new 0 0 270 233;" xml:space="preserve">
<style type="text/css">
	.st0{fill:#7A7A7A;}
	.st1{fill:url(#SVGID_1_);}
	.st2{fill:url(#SVGID_00000061439373221956590340000000795368640574852285_);}
	.st3{fill:url(#SVGID_00000094603808025054219370000016878770574880867234_);}
	.st4{fill:url(#SVGID_00000075841248116228535320000002275779033169458048_);}
	.st5{fill:url(#SVGID_00000109748632627946266280000006815723398341321654_);}
	.st6{fill:url(#SVGID_00000171705189918229603810000002392982999825998479_);}
	.st7{fill:url(#SVGID_00000106840456000186083480000005667193618977424514_);}
	.st8{fill:url(#SVGID_00000036936164560721709460000015882022718146993030_);}
	.st9{fill:url(#SVGID_00000052809167525122867170000009779267101799954871_);}
	.st10{fill:url(#SVGID_00000183948587523151085860000005061882845000807615_);}
	.st11{fill:url(#SVGID_00000082364462879902314570000006757163501475187073_);}
	.st12{fill:url(#SVGID_00000042726677296237691500000001111713431656695969_);}
	.st13{fill:url(#SVGID_00000150786004350991643510000001091484913652152490_);}
	.st14{fill:url(#SVGID_00000163794674872363647730000006092306784483786661_);}
	.st15{fill:#5E5E5E;}
	.st16{fill:#BABABA;}
	.st17{fill:none;stroke:#5E5E5E;stroke-linecap:round;stroke-linejoin:round;stroke-miterlimit:10;}
	.st18{fill:#8F8F8F;}
	.st19{opacity:0.5;fill:#FFFFFF;}
	.st20{fill:#D9D9D9;}
	.st21{fill:#F9B800;}
	.st22{fill:#D18602;}
</style>
<g>
	<g>
		<path class="st0" d="M245.3,0.3H25.7c-2,0-3.6,1.6-3.6,3.6v21.8h226.7V3.8C248.9,1.9,247.3,0.3,245.3,0.3z"/>
		<g>
			<g>
				<linearGradient id="SVGID_1_" gradientUnits="userSpaceOnUse" x1="28.8495" y1="206.9104" x2="28.8495" y2="132.5644">
					<stop  offset="0" style="stop-color:#FFFFFF"/>
					<stop  offset="1" style="stop-color:#BBDBF0"/>
				</linearGradient>
				<path class="st1" d="M34,168.4l-15.3-4.8c6.3-20.2,3.7-50.6,3.6-50.9l16-1.5C38.4,112.6,41.3,145.1,34,168.4z"/>
			</g>
			<g>
				
					<linearGradient id="SVGID_00000020392211376130886190000000513479651560385677_" gradientUnits="userSpaceOnUse" x1="46.509" y1="206.9097" x2="46.509" y2="132.5645">
					<stop  offset="0" style="stop-color:#FFFFFF"/>
					<stop  offset="1" style="stop-color:#BBDBF0"/>
				</linearGradient>
				<path style="fill:url(#SVGID_00000020392211376130886190000000513479651560385677_);" d="M53.2,195.4l-15.9-1.8
					c2-17.8,2.1-29.5,2.3-64.4c0-5.2,0.1-10.9,0.1-17.3l16,0.1c0,6.3-0.1,12-0.1,17.2C55.4,164.7,55.4,176.7,53.2,195.4z"/>
			</g>
			<g>
				
					<linearGradient id="SVGID_00000112608770708293277690000013193998705855500678_" gradientUnits="userSpaceOnUse" x1="65.9042" y1="206.9101" x2="65.9042" y2="132.5647">
					<stop  offset="0" style="stop-color:#FFFFFF"/>
					<stop  offset="1" style="stop-color:#BBDBF0"/>
				</linearGradient>
				<path style="fill:url(#SVGID_00000112608770708293277690000013193998705855500678_);" d="M59.7,207.9c-5-23.8-2.8-93.3-2.7-96.2
					l16,0.5c0,0.7-2.3,70.4,2.3,92.4L59.7,207.9z"/>
			</g>
			<g>
				
					<linearGradient id="SVGID_00000005228454632580908460000008277256508109585048_" gradientUnits="userSpaceOnUse" x1="82.7925" y1="206.9092" x2="82.7925" y2="132.5647">
					<stop  offset="0" style="stop-color:#FFFFFF"/>
					<stop  offset="1" style="stop-color:#BBDBF0"/>
				</linearGradient>
				<path style="fill:url(#SVGID_00000005228454632580908460000008277256508109585048_);" d="M90.4,188.2l-16-1.4
					c1.8-20.9,0-74.1,0-74.6l16-0.5C90.5,113.9,92.2,166.4,90.4,188.2z"/>
			</g>
			<g>
				
					<linearGradient id="SVGID_00000021088254400531654340000011796881278166963335_" gradientUnits="userSpaceOnUse" x1="101.8765" y1="206.9096" x2="101.8765" y2="132.5641">
					<stop  offset="0" style="stop-color:#FFFFFF"/>
					<stop  offset="1" style="stop-color:#BBDBF0"/>
				</linearGradient>
				<path style="fill:url(#SVGID_00000021088254400531654340000011796881278166963335_);" d="M96.8,206.7c-6.7-25.2-5.1-92.1-5-95
					l16,0.4c0,0.7-1.6,67.5,4.5,90.5L96.8,206.7z"/>
			</g>
			<g>
				
					<linearGradient id="SVGID_00000171688140134253754740000000990284089609012893_" gradientUnits="userSpaceOnUse" x1="117.6821" y1="206.9103" x2="117.6821" y2="132.5647">
					<stop  offset="0" style="stop-color:#FFFFFF"/>
					<stop  offset="1" style="stop-color:#BBDBF0"/>
				</linearGradient>
				<path style="fill:url(#SVGID_00000171688140134253754740000000990284089609012893_);" d="M110.8,195.6
					c-3.2-22.4-1.8-81.3-1.7-83.8l16,0.4c0,0.6-1.4,60,1.6,81.2L110.8,195.6z"/>
			</g>
			<g>
				
					<linearGradient id="SVGID_00000080921788801097521790000017183742538347843004_" gradientUnits="userSpaceOnUse" x1="132.788" y1="206.9098" x2="132.788" y2="132.5643">
					<stop  offset="0" style="stop-color:#FFFFFF"/>
					<stop  offset="1" style="stop-color:#BBDBF0"/>
				</linearGradient>
				<path style="fill:url(#SVGID_00000080921788801097521790000017183742538347843004_);" d="M138.2,206.8l-15.5-4.2
					c4.7-17.3,4.2-71.1,3.6-90.4l16-0.5C142.5,114.7,144.5,183.6,138.2,206.8z"/>
			</g>
			<g>
				
					<linearGradient id="SVGID_00000111876705520471822740000007007487479365573549_" gradientUnits="userSpaceOnUse" x1="152.0802" y1="206.91" x2="152.0802" y2="132.5648">
					<stop  offset="0" style="stop-color:#FFFFFF"/>
					<stop  offset="1" style="stop-color:#BBDBF0"/>
				</linearGradient>
				<path style="fill:url(#SVGID_00000111876705520471822740000007007487479365573549_);" d="M145.3,197.7
					c-3.9-24.1-1.6-83.5-1.5-86.1l16,0.6c0,0.6-2.3,60.4,1.3,82.9L145.3,197.7z"/>
			</g>
			<g>
				
					<linearGradient id="SVGID_00000102541944588545461110000009427125750857185702_" gradientUnits="userSpaceOnUse" x1="169.1196" y1="206.9097" x2="169.1196" y2="132.5642">
					<stop  offset="0" style="stop-color:#FFFFFF"/>
					<stop  offset="1" style="stop-color:#BBDBF0"/>
				</linearGradient>
				
					<rect x="161.1" y="112" style="fill:url(#SVGID_00000102541944588545461110000009427125750857185702_);" width="16" height="68.4"/>
			</g>
			<g>
				
					<linearGradient id="SVGID_00000064344553038732596560000003687414430926403217_" gradientUnits="userSpaceOnUse" x1="185.6717" y1="206.9099" x2="185.6717" y2="132.5648">
					<stop  offset="0" style="stop-color:#FFFFFF"/>
					<stop  offset="1" style="stop-color:#BBDBF0"/>
				</linearGradient>
				<path style="fill:url(#SVGID_00000064344553038732596560000003687414430926403217_);" d="M191.7,198.3l-15.6-3.7
					c5-20.9,2.4-81.6,2.3-82.3l16-0.7C194.6,114.2,197.3,175.2,191.7,198.3z"/>
			</g>
			<g>
				
					<linearGradient id="SVGID_00000119095660532967617470000003895081913129640601_" gradientUnits="userSpaceOnUse" x1="207.2066" y1="206.9092" x2="207.2066" y2="132.5643">
					<stop  offset="0" style="stop-color:#FFFFFF"/>
					<stop  offset="1" style="stop-color:#BBDBF0"/>
				</linearGradient>
				<path style="fill:url(#SVGID_00000119095660532967617470000003895081913129640601_);" d="M204.6,209.8c-11-22.3-9-90.4-8.7-98.1
					l16,0.6c-0.7,19.8-0.7,74.6,7.1,90.4L204.6,209.8z"/>
			</g>
			<g>
				
					<linearGradient id="SVGID_00000022546909475839359690000002599580360251167674_" gradientUnits="userSpaceOnUse" x1="223.3851" y1="206.9094" x2="223.3851" y2="132.5641">
					<stop  offset="0" style="stop-color:#FFFFFF"/>
					<stop  offset="1" style="stop-color:#BBDBF0"/>
				</linearGradient>
				<path style="fill:url(#SVGID_00000022546909475839359690000002599580360251167674_);" d="M217.9,196c-4.7-23.9-4.7-81.6-4.7-84
					h16c0,0.6,0.1,58.6,4.4,80.9L217.9,196z"/>
			</g>
			<g>
				
					<linearGradient id="SVGID_00000010275732316779529990000001865234793153381284_" gradientUnits="userSpaceOnUse" x1="240.8876" y1="206.9108" x2="240.8876" y2="132.5646">
					<stop  offset="0" style="stop-color:#FFFFFF"/>
					<stop  offset="1" style="stop-color:#BBDBF0"/>
				</linearGradient>
				<path style="fill:url(#SVGID_00000010275732316779529990000001865234793153381284_);" d="M235.8,171.7
					c-5.3-18.9-5.3-58.1-5.3-59.7l16,0c0,0.4,0.1,38.7,4.7,55.4L235.8,171.7z"/>
			</g>
		</g>
		
			<linearGradient id="SVGID_00000054229424443932903770000014113254262733897615_" gradientUnits="userSpaceOnUse" x1="135.5123" y1="102.7683" x2="135.5123" y2="123.378">
			<stop  offset="0" style="stop-color:#FFFFFF"/>
			<stop  offset="1" style="stop-color:#BBDBF0"/>
		</linearGradient>
		<path style="fill:url(#SVGID_00000054229424443932903770000014113254262733897615_);" d="M109.6,18.2c-2,0-4.1-1.5-4.9-3.3l-3-7.7
			c-0.7-1.8-2.9-3.3-4.9-3.3h-56c-2,0-4.1,1.5-4.9,3.3l-3,7.7c-0.7,1.8-2.9,3.3-4.9,3.3h-2.3c-2,0-3.6,1.6-3.6,3.6v100.3
			c0,2,1.6,3.6,3.6,3.6h219.6c2,0,3.6-1.6,3.6-3.6V21.8c0-2-1.6-3.6-3.6-3.6H109.6z"/>
		<g>
			<path class="st15" d="M94.1,12.9c-0.2,0.2-0.5,0.2-0.7,0l0,0c-0.2-0.2-0.2-0.5,0-0.7L97.6,8c0.2-0.2,0.5-0.2,0.7,0l0,0
				c0.2,0.2,0.2,0.5,0,0.7L94.1,12.9z"/>
			<path class="st15" d="M93.4,8.7c-0.2-0.2-0.2-0.5,0-0.7l0,0c0.2-0.2,0.5-0.2,0.7,0l4.2,4.2c0.2,0.2,0.2,0.5,0,0.7l0,0
				c-0.2,0.2-0.5,0.2-0.7,0L93.4,8.7z"/>
		</g>
		<g>
			<path class="st15" d="M238,12.9c-0.2,0.2-0.5,0.2-0.7,0l0,0c-0.2-0.2-0.2-0.5,0-0.7l4.2-4.2c0.2-0.2,0.5-0.2,0.7,0l0,0
				c0.2,0.2,0.2,0.5,0,0.7L238,12.9z"/>
			<path class="st15" d="M237.3,8.7c-0.2-0.2-0.2-0.5,0-0.7l0,0c0.2-0.2,0.5-0.2,0.7,0l4.2,4.2c0.2,0.2,0.2,0.5,0,0.7l0,0
				c-0.2,0.2-0.5,0.2-0.7,0L237.3,8.7z"/>
		</g>
		<path class="st16" d="M228.1,40.4c0,0.7-0.5,1.2-1.2,1.2H44.1c-0.7,0-1.2-0.5-1.2-1.2V28.3c0-0.7,0.5-1.2,1.2-1.2h182.8
			c0.7,0,1.2,0.5,1.2,1.2V40.4z"/>
		<rect x="228.5" y="8.3" class="st17" width="4.4" height="4.4"/>
		<line class="st17" x1="223.9" y1="12.6" x2="219.5" y2="12.6"/>
		<g>
			<g>
				<g>
					<g>
						<path class="st15" d="M95.5,60.7c-1-1-1-2.7,0-3.8l0,0c1-1,2.7-1,3.8,0l14.3,14.3c1,1,1,2.7,0,3.8l0,0c-1,1-2.7,1-3.8,0
							L95.5,60.7z"/>
					</g>
					<g>
						<path class="st15" d="M113.5,60.7c1-1,1-2.7,0-3.8l0,0c-1.1-1-2.7-1-3.8,0L95.5,71.2c-1,1-1,2.7,0,3.8l0,0c1,1,2.7,1,3.8,0
							L113.5,60.7z"/>
					</g>
				</g>
				<g>
					<g>
						<path class="st15" d="M157.5,60.7c-1-1-1-2.7,0-3.8l0,0c1.1-1,2.7-1,3.8,0l14.3,14.3c1,1,1,2.7,0,3.8l0,0c-1,1-2.7,1-3.8,0
							L157.5,60.7z"/>
					</g>
					<g>
						<path class="st15" d="M175.6,60.7c1-1,1-2.7,0-3.8l0,0c-1-1-2.7-1-3.8,0l-14.3,14.3c-1,1-1,2.7,0,3.8l0,0c1,1,2.7,1,3.8,0
							L175.6,60.7z"/>
					</g>
				</g>
			</g>
			<g>
				<path class="st15" d="M145.6,89c1.5,0,2.7-1.2,2.7-2.7l0,0c0-1.5-1.2-2.7-2.7-2.7l-20.2,0c-1.5,0-2.7,1.2-2.7,2.7l0,0
					c0,1.5,1.2,2.7,2.7,2.7H145.6z"/>
			</g>
		</g>
		<g>
			<path class="st18" d="M243,30.5c0,0.4-0.3,0.7-0.7,0.7h-8.5c-0.4,0-0.7-0.3-0.7-0.7l0,0c0-0.4,0.3-0.7,0.7-0.7h8.5
				C242.7,29.8,243,30.1,243,30.5L243,30.5z"/>
			<path class="st18" d="M243,34.4c0,0.4-0.3,0.7-0.7,0.7h-8.5c-0.4,0-0.7-0.3-0.7-0.7l0,0c0-0.4,0.3-0.7,0.7-0.7h8.5
				C242.7,33.6,243,34,243,34.4L243,34.4z"/>
			<path class="st18" d="M243,38.2c0,0.4-0.3,0.7-0.7,0.7h-8.5c-0.4,0-0.7-0.3-0.7-0.7l0,0c0-0.4,0.3-0.7,0.7-0.7h8.5
				C242.7,37.5,243,37.8,243,38.2L243,38.2z"/>
		</g>
		<path class="st18" d="M40.2,32.9c-0.2-0.2-0.6-0.2-0.8,0l-0.6,0.6c-0.2-2.6-2.4-4.6-5-4.6c-2.8,0-5,2.3-5,5c0,2.8,2.3,5,5,5
			c0.3,0,0.6-0.3,0.6-0.6c0-0.3-0.3-0.6-0.6-0.6c-2.1,0-3.9-1.7-3.9-3.9c0-2.1,1.7-3.9,3.9-3.9c2,0,3.6,1.5,3.8,3.5L37,33.1
			c-0.2-0.2-0.6-0.2-0.8,0c-0.2,0.2-0.2,0.6,0,0.8l1.6,1.5c0.1,0.1,0.2,0.2,0.4,0.2c0,0,0,0,0,0c0.2,0,0.3-0.1,0.4-0.2l1.5-1.6
			C40.4,33.5,40.4,33.1,40.2,32.9z"/>
	</g>
	<g>
		<path class="st19" d="M246.6,230.5c-0.2,1.3-1.4,2.3-2.7,2.3H25c-1.2,0-2.4-1-2.7-2.3l-18.5-107c-0.3-1.7,0.7-3.1,2.1-3.1h257
			c1.5,0,2.4,1.4,2.1,3.1L246.6,230.5z"/>
		<path class="st20" d="M263,120.3H6c-1.5,0-2.4,1.4-2.1,3.1l3.3,19.2h254.7l3.3-19.2C265.4,121.7,264.5,120.3,263,120.3z"/>
		<path class="st21" d="M270,128.3c0,1.5-1.2,2.7-2.7,2.7H2.7c-1.5,0-2.7-1.2-2.7-2.7v-27.6C0,99.2,1.2,98,2.7,98h264.7
			c1.5,0,2.7,1.2,2.7,2.7V128.3z"/>
		<g>
			<g>
				<path class="st22" d="M11.3,125.3c0,1.2-1,2.2-2.2,2.2l0,0c-1.2,0-2.2-1-2.2-2.2v-21.7c0-1.2,1-2.2,2.2-2.2l0,0
					c1.2,0,2.2,1,2.2,2.2V125.3z"/>
				<path class="st22" d="M26.1,125.3c0,1.2-1,2.2-2.2,2.2l0,0c-1.2,0-2.2-1-2.2-2.2v-21.7c0-1.2,1-2.2,2.2-2.2l0,0
					c1.2,0,2.2,1,2.2,2.2V125.3z"/>
				<path class="st22" d="M40.9,125.3c0,1.2-1,2.2-2.2,2.2l0,0c-1.2,0-2.2-1-2.2-2.2v-21.7c0-1.2,1-2.2,2.2-2.2l0,0
					c1.2,0,2.2,1,2.2,2.2V125.3z"/>
				<path class="st22" d="M55.7,125.3c0,1.2-1,2.2-2.2,2.2l0,0c-1.2,0-2.2-1-2.2-2.2v-21.7c0-1.2,1-2.2,2.2-2.2l0,0
					c1.2,0,2.2,1,2.2,2.2V125.3z"/>
				<path class="st22" d="M70.5,125.3c0,1.2-1,2.2-2.2,2.2l0,0c-1.2,0-2.2-1-2.2-2.2v-21.7c0-1.2,1-2.2,2.2-2.2l0,0
					c1.2,0,2.2,1,2.2,2.2V125.3z"/>
				<path class="st22" d="M85.4,125.3c0,1.2-1,2.2-2.2,2.2l0,0c-1.2,0-2.2-1-2.2-2.2v-21.7c0-1.2,1-2.2,2.2-2.2l0,0
					c1.2,0,2.2,1,2.2,2.2V125.3z"/>
				<path class="st22" d="M100.2,125.3c0,1.2-1,2.2-2.2,2.2l0,0c-1.2,0-2.2-1-2.2-2.2v-21.7c0-1.2,1-2.2,2.2-2.2l0,0
					c1.2,0,2.2,1,2.2,2.2V125.3z"/>
				<path class="st22" d="M115,125.3c0,1.2-1,2.2-2.2,2.2l0,0c-1.2,0-2.2-1-2.2-2.2v-21.7c0-1.2,1-2.2,2.2-2.2l0,0
					c1.2,0,2.2,1,2.2,2.2V125.3z"/>
				<path class="st22" d="M129.8,125.3c0,1.2-1,2.2-2.2,2.2l0,0c-1.2,0-2.2-1-2.2-2.2v-21.7c0-1.2,1-2.2,2.2-2.2l0,0
					c1.2,0,2.2,1,2.2,2.2V125.3z"/>
				<path class="st22" d="M144.6,125.3c0,1.2-1,2.2-2.2,2.2l0,0c-1.2,0-2.2-1-2.2-2.2v-21.7c0-1.2,1-2.2,2.2-2.2l0,0
					c1.2,0,2.2,1,2.2,2.2V125.3z"/>
				<path class="st22" d="M159.5,125.3c0,1.2-1,2.2-2.2,2.2l0,0c-1.2,0-2.2-1-2.2-2.2v-21.7c0-1.2,1-2.2,2.2-2.2l0,0
					c1.2,0,2.2,1,2.2,2.2V125.3z"/>
				<path class="st22" d="M174.3,125.3c0,1.2-1,2.2-2.2,2.2l0,0c-1.2,0-2.2-1-2.2-2.2v-21.7c0-1.2,1-2.2,2.2-2.2l0,0
					c1.2,0,2.2,1,2.2,2.2V125.3z"/>
				<path class="st22" d="M189.1,125.3c0,1.2-1,2.2-2.2,2.2l0,0c-1.2,0-2.2-1-2.2-2.2v-21.7c0-1.2,1-2.2,2.2-2.2l0,0
					c1.2,0,2.2,1,2.2,2.2V125.3z"/>
				<path class="st22" d="M203.9,125.3c0,1.2-1,2.2-2.2,2.2l0,0c-1.2,0-2.2-1-2.2-2.2v-21.7c0-1.2,1-2.2,2.2-2.2l0,0
					c1.2,0,2.2,1,2.2,2.2V125.3z"/>
				<path class="st22" d="M218.7,125.3c0,1.2-1,2.2-2.2,2.2l0,0c-1.2,0-2.2-1-2.2-2.2v-21.7c0-1.2,1-2.2,2.2-2.2l0,0
					c1.2,0,2.2,1,2.2,2.2V125.3z"/>
				<path class="st22" d="M233.5,125.3c0,1.2-1,2.2-2.2,2.2l0,0c-1.2,0-2.2-1-2.2-2.2v-21.7c0-1.2,1-2.2,2.2-2.2l0,0
					c1.2,0,2.2,1,2.2,2.2V125.3z"/>
				<path class="st22" d="M248.4,125.3c0,1.2-1,2.2-2.2,2.2l0,0c-1.2,0-2.2-1-2.2-2.2v-21.7c0-1.2,1-2.2,2.2-2.2l0,0
					c1.2,0,2.2,1,2.2,2.2V125.3z"/>
				<path class="st22" d="M263.2,125.3c0,1.2-1,2.2-2.2,2.2l0,0c-1.2,0-2.2-1-2.2-2.2v-21.7c0-1.2,1-2.2,2.2-2.2l0,0
					c1.2,0,2.2,1,2.2,2.2V125.3z"/>
			</g>
		</g>
	</g>
</g>
</svg>
