<?xml version="1.0" encoding="utf-8"?>
<!-- Generator: Adobe Illustrator 25.4.1, SVG Export Plug-In . SVG Version: 6.00 Build 0)  -->
<svg version="1.1" id="Capa_1" xmlns="http://www.w3.org/2000/svg" xmlns:xlink="http://www.w3.org/1999/xlink" x="0px" y="0px"
	 viewBox="0 0 270 233" style="enable-background:new 0 0 270 233;" xml:space="preserve">
<style type="text/css">
	.st0{fill:#808080;}
	.st1{fill:#7A7A7A;}
	.st2{fill:url(#SVGID_1_);}
	.st3{fill:#5E5E5E;}
	.st4{fill:#BABABA;}
	.st5{fill:none;stroke:#5E5E5E;stroke-linecap:round;stroke-linejoin:round;stroke-miterlimit:10;}
	.st6{fill:#8F8F8F;}
	.st7{fill:#F2F2F2;}
	.st8{fill:#D9D9D9;}
	.st9{fill:#F9B800;}
	.st10{fill:#D18602;}
</style>
<g>
	<g>
		<path class="st0" d="M246.6,230.5c-0.2,1.3-1.4,2.3-2.7,2.3H25c-1.2,0-2.4-1-2.7-2.3l-18.5-107c-0.3-1.7,0.7-3.1,2.1-3.1h257
			c1.5,0,2.4,1.4,2.1,3.1L246.6,230.5z"/>
		<path class="st1" d="M245.3,0.3H25.7c-2,0-3.6,1.6-3.6,3.6v21.8h226.7V3.8C248.9,1.9,247.3,0.3,245.3,0.3z"/>
		<linearGradient id="SVGID_1_" gradientUnits="userSpaceOnUse" x1="135.5123" y1="102.7683" x2="135.5123" y2="123.378">
			<stop  offset="0" style="stop-color:#FFFFFF"/>
			<stop  offset="1" style="stop-color:#BBDBF0"/>
		</linearGradient>
		<path class="st2" d="M109.6,18.2c-2,0-4.1-1.5-4.9-3.3l-3-7.7c-0.7-1.8-2.9-3.3-4.9-3.3h-56c-2,0-4.1,1.5-4.9,3.3l-3,7.7
			c-0.7,1.8-2.9,3.3-4.9,3.3h-2.3c-2,0-3.6,1.6-3.6,3.6v100.3c0,2,1.6,3.6,3.6,3.6h219.6c2,0,3.6-1.6,3.6-3.6V21.8
			c0-2-1.6-3.6-3.6-3.6H109.6z"/>
		<g>
			<path class="st3" d="M94.1,12.9c-0.2,0.2-0.5,0.2-0.7,0l0,0c-0.2-0.2-0.2-0.5,0-0.7L97.6,8c0.2-0.2,0.5-0.2,0.7,0l0,0
				c0.2,0.2,0.2,0.5,0,0.7L94.1,12.9z"/>
			<path class="st3" d="M93.4,8.7c-0.2-0.2-0.2-0.5,0-0.7l0,0c0.2-0.2,0.5-0.2,0.7,0l4.2,4.2c0.2,0.2,0.2,0.5,0,0.7l0,0
				c-0.2,0.2-0.5,0.2-0.7,0L93.4,8.7z"/>
		</g>
		<g>
			<path class="st3" d="M238,12.9c-0.2,0.2-0.5,0.2-0.7,0l0,0c-0.2-0.2-0.2-0.5,0-0.7l4.2-4.2c0.2-0.2,0.5-0.2,0.7,0l0,0
				c0.2,0.2,0.2,0.5,0,0.7L238,12.9z"/>
			<path class="st3" d="M237.3,8.7c-0.2-0.2-0.2-0.5,0-0.7l0,0c0.2-0.2,0.5-0.2,0.7,0l4.2,4.2c0.2,0.2,0.2,0.5,0,0.7l0,0
				c-0.2,0.2-0.5,0.2-0.7,0L237.3,8.7z"/>
		</g>
		<path class="st4" d="M228.1,40.4c0,0.7-0.5,1.2-1.2,1.2H44.1c-0.7,0-1.2-0.5-1.2-1.2V28.3c0-0.7,0.5-1.2,1.2-1.2h182.8
			c0.7,0,1.2,0.5,1.2,1.2V40.4z"/>
		<rect x="228.5" y="8.3" class="st5" width="4.4" height="4.4"/>
		<line class="st5" x1="223.9" y1="12.6" x2="219.5" y2="12.6"/>
		<g>
			<g>
				<g>
					<g>
						<path class="st3" d="M95.5,60.7c-1-1-1-2.7,0-3.8l0,0c1-1,2.7-1,3.8,0l14.3,14.3c1,1,1,2.7,0,3.8l0,0c-1,1-2.7,1-3.8,0
							L95.5,60.7z"/>
					</g>
					<g>
						<path class="st3" d="M113.5,60.7c1-1,1-2.7,0-3.8l0,0c-1.1-1-2.7-1-3.8,0L95.5,71.2c-1,1-1,2.7,0,3.8l0,0c1,1,2.7,1,3.8,0
							L113.5,60.7z"/>
					</g>
				</g>
				<g>
					<g>
						<path class="st3" d="M157.5,60.7c-1-1-1-2.7,0-3.8l0,0c1.1-1,2.7-1,3.8,0l14.3,14.3c1,1,1,2.7,0,3.8l0,0c-1,1-2.7,1-3.8,0
							L157.5,60.7z"/>
					</g>
					<g>
						<path class="st3" d="M175.6,60.7c1-1,1-2.7,0-3.8l0,0c-1-1-2.7-1-3.8,0l-14.3,14.3c-1,1-1,2.7,0,3.8l0,0c1,1,2.7,1,3.8,0
							L175.6,60.7z"/>
					</g>
				</g>
			</g>
			<g>
				<path class="st3" d="M145.6,89c1.5,0,2.7-1.2,2.7-2.7l0,0c0-1.5-1.2-2.7-2.7-2.7l-20.2,0c-1.5,0-2.7,1.2-2.7,2.7l0,0
					c0,1.5,1.2,2.7,2.7,2.7H145.6z"/>
			</g>
		</g>
		<g>
			<path class="st6" d="M243,30.5c0,0.4-0.3,0.7-0.7,0.7h-8.5c-0.4,0-0.7-0.3-0.7-0.7l0,0c0-0.4,0.3-0.7,0.7-0.7h8.5
				C242.7,29.8,243,30.1,243,30.5L243,30.5z"/>
			<path class="st6" d="M243,34.4c0,0.4-0.3,0.7-0.7,0.7h-8.5c-0.4,0-0.7-0.3-0.7-0.7l0,0c0-0.4,0.3-0.7,0.7-0.7h8.5
				C242.7,33.6,243,34,243,34.4L243,34.4z"/>
			<path class="st6" d="M243,38.2c0,0.4-0.3,0.7-0.7,0.7h-8.5c-0.4,0-0.7-0.3-0.7-0.7l0,0c0-0.4,0.3-0.7,0.7-0.7h8.5
				C242.7,37.5,243,37.8,243,38.2L243,38.2z"/>
		</g>
		<path class="st6" d="M40.2,32.9c-0.2-0.2-0.6-0.2-0.8,0l-0.6,0.6c-0.2-2.6-2.4-4.6-5-4.6c-2.8,0-5,2.3-5,5c0,2.8,2.3,5,5,5
			c0.3,0,0.6-0.3,0.6-0.6c0-0.3-0.3-0.6-0.6-0.6c-2.1,0-3.9-1.7-3.9-3.9c0-2.1,1.7-3.9,3.9-3.9c2,0,3.6,1.5,3.8,3.5L37,33.1
			c-0.2-0.2-0.6-0.2-0.8,0c-0.2,0.2-0.2,0.6,0,0.8l1.6,1.5c0.1,0.1,0.2,0.2,0.4,0.2c0,0,0,0,0,0c0.2,0,0.3-0.1,0.4-0.2l1.5-1.6
			C40.4,33.5,40.4,33.1,40.2,32.9z"/>
		<g>
			<g>
				<path class="st7" d="M34,168.4l-15.3-4.8c6.3-20.2,3.7-50.6,3.6-50.9l16-1.5C38.4,112.6,41.3,145.1,34,168.4z"/>
			</g>
			<g>
				<path class="st7" d="M53.2,195.4l-15.9-1.8c2-17.8,2.1-29.5,2.3-64.4c0-5.2,0.1-10.9,0.1-17.3l16,0.1c0,6.3-0.1,12-0.1,17.2
					C55.4,164.7,55.4,176.7,53.2,195.4z"/>
			</g>
			<g>
				<path class="st7" d="M59.7,207.9c-5-23.8-2.8-93.3-2.7-96.2l16,0.5c0,0.7-2.3,70.4,2.3,92.4L59.7,207.9z"/>
			</g>
			<g>
				<path class="st7" d="M90.4,188.2l-16-1.4c1.8-20.9,0-74.1,0-74.6l16-0.5C90.5,113.9,92.2,166.4,90.4,188.2z"/>
			</g>
			<g>
				<path class="st7" d="M96.8,206.7c-6.7-25.2-5.1-92.1-5-95l16,0.4c0,0.7-1.6,67.5,4.5,90.5L96.8,206.7z"/>
			</g>
			<g>
				<path class="st7" d="M110.8,195.6c-3.2-22.4-1.8-81.3-1.7-83.8l16,0.4c0,0.6-1.4,60,1.6,81.2L110.8,195.6z"/>
			</g>
			<g>
				<path class="st7" d="M138.2,206.8l-15.5-4.2c4.7-17.3,4.2-71.1,3.6-90.4l16-0.5C142.5,114.7,144.5,183.6,138.2,206.8z"/>
			</g>
			<g>
				<path class="st7" d="M145.3,197.7c-3.9-24.1-1.6-83.5-1.5-86.1l16,0.6c0,0.6-2.3,60.4,1.3,82.9L145.3,197.7z"/>
			</g>
			<g>
				<rect x="161.1" y="112" class="st7" width="16" height="68.4"/>
			</g>
			<g>
				<path class="st7" d="M191.7,198.3l-15.6-3.7c5-20.9,2.4-81.6,2.3-82.3l16-0.7C194.6,114.2,197.3,175.2,191.7,198.3z"/>
			</g>
			<g>
				<path class="st7" d="M204.6,209.8c-11-22.3-9-90.4-8.7-98.1l16,0.6c-0.7,19.8-0.7,74.6,7.1,90.4L204.6,209.8z"/>
			</g>
			<g>
				<path class="st7" d="M217.9,196c-4.7-23.9-4.7-81.6-4.7-84h16c0,0.6,0.1,58.6,4.4,80.9L217.9,196z"/>
			</g>
			<g>
				<path class="st7" d="M235.8,171.7c-5.3-18.9-5.3-58.1-5.3-59.7l16,0c0,0.4,0.1,38.7,4.7,55.4L235.8,171.7z"/>
			</g>
		</g>
	</g>
	<g>
		<path class="st8" d="M263,120.3H6c-1.5,0-2.4,1.4-2.1,3.1l3.3,19.2h254.7l3.3-19.2C265.4,121.7,264.5,120.3,263,120.3z"/>
		<path class="st9" d="M270,128.3c0,1.5-1.2,2.7-2.7,2.7H2.7c-1.5,0-2.7-1.2-2.7-2.7v-27.6C0,99.2,1.2,98,2.7,98h264.7
			c1.5,0,2.7,1.2,2.7,2.7V128.3z"/>
		<g>
			<g>
				<path class="st10" d="M11.3,125.3c0,1.2-1,2.2-2.2,2.2l0,0c-1.2,0-2.2-1-2.2-2.2v-21.7c0-1.2,1-2.2,2.2-2.2l0,0
					c1.2,0,2.2,1,2.2,2.2V125.3z"/>
				<path class="st10" d="M26.1,125.3c0,1.2-1,2.2-2.2,2.2l0,0c-1.2,0-2.2-1-2.2-2.2v-21.7c0-1.2,1-2.2,2.2-2.2l0,0
					c1.2,0,2.2,1,2.2,2.2V125.3z"/>
				<path class="st10" d="M40.9,125.3c0,1.2-1,2.2-2.2,2.2l0,0c-1.2,0-2.2-1-2.2-2.2v-21.7c0-1.2,1-2.2,2.2-2.2l0,0
					c1.2,0,2.2,1,2.2,2.2V125.3z"/>
				<path class="st10" d="M55.7,125.3c0,1.2-1,2.2-2.2,2.2l0,0c-1.2,0-2.2-1-2.2-2.2v-21.7c0-1.2,1-2.2,2.2-2.2l0,0
					c1.2,0,2.2,1,2.2,2.2V125.3z"/>
				<path class="st10" d="M70.5,125.3c0,1.2-1,2.2-2.2,2.2l0,0c-1.2,0-2.2-1-2.2-2.2v-21.7c0-1.2,1-2.2,2.2-2.2l0,0
					c1.2,0,2.2,1,2.2,2.2V125.3z"/>
				<path class="st10" d="M85.4,125.3c0,1.2-1,2.2-2.2,2.2l0,0c-1.2,0-2.2-1-2.2-2.2v-21.7c0-1.2,1-2.2,2.2-2.2l0,0
					c1.2,0,2.2,1,2.2,2.2V125.3z"/>
				<path class="st10" d="M100.2,125.3c0,1.2-1,2.2-2.2,2.2l0,0c-1.2,0-2.2-1-2.2-2.2v-21.7c0-1.2,1-2.2,2.2-2.2l0,0
					c1.2,0,2.2,1,2.2,2.2V125.3z"/>
				<path class="st10" d="M115,125.3c0,1.2-1,2.2-2.2,2.2l0,0c-1.2,0-2.2-1-2.2-2.2v-21.7c0-1.2,1-2.2,2.2-2.2l0,0
					c1.2,0,2.2,1,2.2,2.2V125.3z"/>
				<path class="st10" d="M129.8,125.3c0,1.2-1,2.2-2.2,2.2l0,0c-1.2,0-2.2-1-2.2-2.2v-21.7c0-1.2,1-2.2,2.2-2.2l0,0
					c1.2,0,2.2,1,2.2,2.2V125.3z"/>
				<path class="st10" d="M144.6,125.3c0,1.2-1,2.2-2.2,2.2l0,0c-1.2,0-2.2-1-2.2-2.2v-21.7c0-1.2,1-2.2,2.2-2.2l0,0
					c1.2,0,2.2,1,2.2,2.2V125.3z"/>
				<path class="st10" d="M159.5,125.3c0,1.2-1,2.2-2.2,2.2l0,0c-1.2,0-2.2-1-2.2-2.2v-21.7c0-1.2,1-2.2,2.2-2.2l0,0
					c1.2,0,2.2,1,2.2,2.2V125.3z"/>
				<path class="st10" d="M174.3,125.3c0,1.2-1,2.2-2.2,2.2l0,0c-1.2,0-2.2-1-2.2-2.2v-21.7c0-1.2,1-2.2,2.2-2.2l0,0
					c1.2,0,2.2,1,2.2,2.2V125.3z"/>
				<path class="st10" d="M189.1,125.3c0,1.2-1,2.2-2.2,2.2l0,0c-1.2,0-2.2-1-2.2-2.2v-21.7c0-1.2,1-2.2,2.2-2.2l0,0
					c1.2,0,2.2,1,2.2,2.2V125.3z"/>
				<path class="st10" d="M203.9,125.3c0,1.2-1,2.2-2.2,2.2l0,0c-1.2,0-2.2-1-2.2-2.2v-21.7c0-1.2,1-2.2,2.2-2.2l0,0
					c1.2,0,2.2,1,2.2,2.2V125.3z"/>
				<path class="st10" d="M218.7,125.3c0,1.2-1,2.2-2.2,2.2l0,0c-1.2,0-2.2-1-2.2-2.2v-21.7c0-1.2,1-2.2,2.2-2.2l0,0
					c1.2,0,2.2,1,2.2,2.2V125.3z"/>
				<path class="st10" d="M233.5,125.3c0,1.2-1,2.2-2.2,2.2l0,0c-1.2,0-2.2-1-2.2-2.2v-21.7c0-1.2,1-2.2,2.2-2.2l0,0
					c1.2,0,2.2,1,2.2,2.2V125.3z"/>
				<path class="st10" d="M248.4,125.3c0,1.2-1,2.2-2.2,2.2l0,0c-1.2,0-2.2-1-2.2-2.2v-21.7c0-1.2,1-2.2,2.2-2.2l0,0
					c1.2,0,2.2,1,2.2,2.2V125.3z"/>
				<path class="st10" d="M263.2,125.3c0,1.2-1,2.2-2.2,2.2l0,0c-1.2,0-2.2-1-2.2-2.2v-21.7c0-1.2,1-2.2,2.2-2.2l0,0
					c1.2,0,2.2,1,2.2,2.2V125.3z"/>
			</g>
		</g>
	</g>
</g>
</svg>
