<?xml version="1.0" encoding="utf-8"?>
<!-- Generator: Adobe Illustrator 25.4.1, SVG Export Plug-In . SVG Version: 6.00 Build 0)  -->
<svg version="1.1" id="Capa_1" xmlns="http://www.w3.org/2000/svg" xmlns:xlink="http://www.w3.org/1999/xlink" x="0px" y="0px"
	 viewBox="0 0 126 126" style="enable-background:new 0 0 126 126;" xml:space="preserve">
<style type="text/css">
	.st0{fill:#5213B0;}
	.st1{fill:#761CFE;}
	.st2{fill:#FFFFFF;}
</style>
<g>
	<rect y="85.5" class="st0" width="14.28" height="40.5"/>
	<rect x="85.5" class="st0" width="40.5" height="14.28"/>
	<path class="st1" d="M0,126L126,0.02L125.98,0H81.25c-2.43,0-4.77,0.97-6.48,2.69L2.69,74.76C0.97,76.48,0,78.81,0,81.24V126z"/>
</g>
<g>
	<path class="st2" d="M28.68,63.89c1.5-0.21,2.9,0.13,4.21,1.02l-2.69,2.68c-0.56-0.2-1.13-0.22-1.72-0.08
		c-0.59,0.14-1.14,0.47-1.66,0.99c-0.8,0.8-1.18,1.71-1.12,2.73c0.05,1.02,0.54,1.99,1.47,2.91c1,1,2.03,1.51,3.07,1.53
		c1.05,0.03,2.04-0.43,2.98-1.37c0.6-0.6,0.97-1.3,1.09-2.08c0.12-0.79-0.03-1.58-0.45-2.38l-3.21,3.2l-1.83-1.82l5.34-5.32
		l2.51,2.5c0.42,0.81,0.67,1.7,0.76,2.65s-0.04,1.94-0.39,2.94c-0.35,1-0.96,1.94-1.84,2.81c-1.06,1.06-2.21,1.76-3.46,2.1
		s-2.49,0.32-3.74-0.06c-1.24-0.38-2.39-1.09-3.43-2.13c-1.04-1.04-1.75-2.18-2.14-3.42c-0.38-1.24-0.4-2.48-0.07-3.71
		c0.34-1.23,1.03-2.38,2.08-3.42C25.77,64.86,27.18,64.1,28.68,63.89z"/>
	<path class="st2" d="M46.89,64.99l-6.25-1.69l-0.58,0.58l3.97,3.96l-2.54,2.54L30.97,59.89l4.35-4.33
		c0.83-0.83,1.68-1.39,2.54-1.67c0.86-0.29,1.69-0.32,2.48-0.11s1.51,0.64,2.15,1.28c0.76,0.76,1.2,1.62,1.32,2.57
		c0.11,0.95-0.13,1.93-0.74,2.93l6.64,1.63L46.89,64.99z M38.32,62.14l1.58-1.57c0.51-0.5,0.77-0.99,0.78-1.44
		c0.01-0.46-0.2-0.91-0.63-1.34c-0.42-0.41-0.87-0.62-1.35-0.61c-0.48,0.01-0.97,0.25-1.47,0.75l-1.58,1.57L38.32,62.14z"/>
	<path class="st2" d="M55.55,52.54l-3.94,3.93l1.26,2.56L50.2,61.7L43.6,47.45l2.93-2.92l14.3,6.57l-2.71,2.7L55.55,52.54z
		 M52.96,51.26l-5.18-2.55l2.54,5.17L52.96,51.26z"/>
	<path class="st2" d="M58.86,32.11l2.02,2.02l-2.86,2.85l8.5,8.46l-2.56,2.55l-8.5-8.46l-2.83,2.82l-2.02-2.02L58.86,32.11z"/>
	<path class="st2" d="M62.47,28.51l10.52,10.48l-2.54,2.53L59.93,31.05L62.47,28.51z"/>
	<path class="st2" d="M80.46,28.71c0.18,0.75,0.14,1.53-0.13,2.36c-0.27,0.83-0.8,1.63-1.58,2.41c-1.18,1.18-2.44,1.86-3.78,2.05
		c-1.34,0.19-2.56-0.2-3.66-1.16l2.71-2.7c0.44,0.36,0.89,0.53,1.36,0.51c0.47-0.01,0.89-0.21,1.27-0.58
		c0.33-0.33,0.5-0.67,0.51-1.04c0.01-0.37-0.13-0.7-0.43-0.99c-0.27-0.27-0.58-0.4-0.93-0.41c-0.35,0-0.71,0.06-1.09,0.21
		c-0.37,0.14-0.87,0.36-1.48,0.66c-0.89,0.44-1.66,0.76-2.29,0.96c-0.64,0.21-1.31,0.25-2.04,0.13c-0.72-0.12-1.42-0.51-2.1-1.19
		c-0.63-0.62-1.01-1.32-1.15-2.09c-0.14-0.77-0.05-1.56,0.27-2.36c0.32-0.8,0.84-1.56,1.56-2.28c1.17-1.17,2.38-1.81,3.62-1.95
		c1.25-0.13,2.4,0.24,3.46,1.12l-2.75,2.74c-0.4-0.3-0.8-0.44-1.21-0.44c-0.41,0-0.78,0.17-1.13,0.52c-0.3,0.3-0.46,0.62-0.48,0.96
		c-0.02,0.34,0.12,0.66,0.42,0.97c0.25,0.25,0.54,0.38,0.88,0.39c0.34,0.01,0.68-0.05,1.04-0.19s0.85-0.36,1.49-0.65
		c0.9-0.44,1.68-0.77,2.33-0.97c0.65-0.2,1.34-0.24,2.08-0.13c0.73,0.12,1.44,0.52,2.13,1.2C79.9,27.32,80.27,27.97,80.46,28.71z"/>
</g>
</svg>
