<?xml version="1.0" encoding="utf-8"?>
<!-- Generator: Adobe Illustrator 25.4.1, SVG Export Plug-In . SVG Version: 6.00 Build 0)  -->
<svg version="1.1" id="Capa_1" xmlns="http://www.w3.org/2000/svg" xmlns:xlink="http://www.w3.org/1999/xlink" x="0px" y="0px"
	 viewBox="0 0 126 126" style="enable-background:new 0 0 126 126;" xml:space="preserve">
<style type="text/css">
	.st0{fill:#5213B0;}
	.st1{fill:#761CFE;}
	.st2{fill:#FFFFFF;}
</style>
<g>
	<rect y="85.5" class="st0" width="14.28" height="40.5"/>
	<rect x="85.5" class="st0" width="40.5" height="14.28"/>
	<path class="st1" d="M0,126L126,0.02L125.98,0H81.25c-2.43,0-4.77,0.97-6.48,2.69L2.69,74.76C0.97,76.48,0,78.81,0,81.24V126z"/>
</g>
<g>
	<path class="st2" d="M18.49,89.34l-2.44,2.43l0.78,1.59l-1.66,1.65L11.1,86.2l1.81-1.81l8.85,4.06l-1.68,1.67L18.49,89.34z
		 M16.89,88.56l-3.2-1.58l1.57,3.2L16.89,88.56z"/>
	<path class="st2" d="M17.39,79.84l3.76,3.74c0.43,0.43,0.85,0.66,1.27,0.69c0.42,0.03,0.82-0.13,1.18-0.5
		c0.37-0.37,0.54-0.76,0.5-1.18c-0.03-0.42-0.26-0.84-0.69-1.27l-3.76-3.74l1.57-1.57l3.76,3.74c0.61,0.61,1.01,1.25,1.19,1.9
		c0.18,0.66,0.17,1.3-0.03,1.92c-0.2,0.62-0.56,1.2-1.08,1.71s-1.09,0.88-1.69,1.06c-0.61,0.19-1.24,0.19-1.89-0.01
		c-0.65-0.2-1.28-0.6-1.9-1.21l-3.76-3.74L17.39,79.84z"/>
	<path class="st2" d="M29.64,67.73l6.46,6.44l-1.58,1.57l-4.04-4.03l2.64,5.42l-1.36,1.36l-5.46-2.63l4.05,4.03l-1.57,1.57
		l-6.46-6.44l1.92-1.92l6.26,2.73l-2.78-6.2L29.64,67.73z"/>
	<path class="st2" d="M33.51,66.28l1.36,1.36l2.2-2.19l1.19,1.18l-2.2,2.19l1.45,1.44l2.48-2.47l1.26,1.26l-4.05,4.03l-6.51-6.48
		l4.05-4.03l1.25,1.25L33.51,66.28z"/>
	<path class="st2" d="M47.92,62.41l-1.57,1.57l-6.63-1.36l4,3.98l-1.57,1.57l-6.51-6.48l1.57-1.57l6.67,1.39l-4.03-4.02l1.57-1.57
		L47.92,62.41z"/>
	<path class="st2" d="M47.17,50.18l1.25,1.25l-1.77,1.76l5.26,5.24L50.33,60l-5.26-5.24l-1.75,1.74l-1.25-1.25L47.17,50.18z"/>
	<path class="st2" d="M50.66,44.08l-1.27,3.15l-1.07-1.06l1.15-3.27L50.66,44.08z M57.19,50.81l-2.44,2.43l0.78,1.59l-1.66,1.65
		l-4.08-8.81l1.81-1.81l8.85,4.06l-1.68,1.67L57.19,50.81z M55.58,50.02l-3.2-1.58l1.57,3.2L55.58,50.02z"/>
	<path class="st2" d="M61.99,36.48c0.93-0.13,1.79,0.08,2.61,0.63l-1.67,1.66c-0.34-0.12-0.7-0.14-1.06-0.05
		c-0.37,0.09-0.71,0.29-1.03,0.61c-0.5,0.5-0.73,1.06-0.69,1.69c0.03,0.63,0.34,1.23,0.91,1.8c0.62,0.62,1.25,0.93,1.9,0.95
		c0.65,0.02,1.26-0.27,1.85-0.85c0.37-0.37,0.6-0.8,0.68-1.29c0.08-0.49-0.02-0.98-0.28-1.47l-1.99,1.98l-1.13-1.13l3.3-3.29
		l1.56,1.55c0.26,0.5,0.42,1.05,0.47,1.64c0.05,0.59-0.03,1.2-0.25,1.82c-0.22,0.62-0.6,1.2-1.14,1.74
		c-0.66,0.65-1.37,1.09-2.14,1.3s-1.54,0.2-2.31-0.04s-1.48-0.67-2.12-1.32c-0.64-0.64-1.09-1.35-1.32-2.11s-0.25-1.53-0.04-2.3
		c0.21-0.76,0.64-1.47,1.29-2.12C60.19,37.08,61.06,36.61,61.99,36.48z"/>
	<path class="st2" d="M73.26,37.16l-3.87-1.05l-0.36,0.36l2.46,2.45l-1.57,1.57l-6.51-6.48l2.69-2.68c0.52-0.51,1.04-0.86,1.57-1.04
		c0.53-0.18,1.04-0.2,1.53-0.07c0.49,0.13,0.93,0.4,1.33,0.79c0.47,0.47,0.74,1,0.81,1.59c0.07,0.59-0.08,1.19-0.46,1.81L75,35.43
		L73.26,37.16z M67.96,35.4l0.98-0.97c0.31-0.31,0.47-0.61,0.48-0.89c0.01-0.28-0.12-0.56-0.39-0.83c-0.26-0.26-0.54-0.38-0.83-0.38
		c-0.3,0-0.6,0.16-0.91,0.46l-0.98,0.97L67.96,35.4z"/>
	<path class="st2" d="M78.62,29.46l-2.44,2.43l0.78,1.59l-1.66,1.65l-4.08-8.81l1.81-1.81l8.85,4.06l-1.67,1.67L78.62,29.46z
		 M77.02,28.67l-3.2-1.58l1.57,3.2L77.02,28.67z"/>
	<path class="st2" d="M80.66,16.82l1.25,1.25l-1.77,1.76l5.26,5.24l-1.58,1.58l-5.26-5.24l-1.75,1.74l-1.25-1.25L80.66,16.82z"/>
	<path class="st2" d="M82.9,14.6l6.51,6.48l-1.57,1.57l-6.51-6.48L82.9,14.6z"/>
	<path class="st2" d="M94.02,14.72c0.11,0.46,0.08,0.95-0.08,1.46c-0.17,0.51-0.5,1.01-0.98,1.49c-0.73,0.73-1.51,1.15-2.34,1.27
		c-0.83,0.12-1.58-0.12-2.26-0.72l1.68-1.67c0.27,0.22,0.55,0.33,0.84,0.32c0.29-0.01,0.55-0.13,0.79-0.36
		c0.2-0.2,0.31-0.42,0.31-0.64c0.01-0.23-0.08-0.43-0.27-0.61C91.54,15.08,91.35,15,91.13,15c-0.22,0-0.44,0.04-0.67,0.13
		s-0.54,0.22-0.92,0.41c-0.55,0.27-1.02,0.47-1.42,0.6c-0.39,0.13-0.81,0.16-1.26,0.08s-0.88-0.32-1.3-0.73
		c-0.39-0.39-0.62-0.82-0.71-1.29s-0.03-0.96,0.17-1.46c0.2-0.49,0.52-0.97,0.97-1.41c0.72-0.72,1.47-1.12,2.24-1.21
		c0.77-0.08,1.48,0.15,2.14,0.69l-1.7,1.7c-0.25-0.18-0.5-0.28-0.75-0.28c-0.25,0-0.48,0.11-0.7,0.32c-0.18,0.18-0.28,0.38-0.3,0.59
		s0.07,0.41,0.26,0.6c0.15,0.15,0.34,0.23,0.54,0.24c0.21,0.01,0.42-0.03,0.64-0.12c0.22-0.09,0.53-0.22,0.92-0.4
		c0.56-0.27,1.04-0.47,1.44-0.6c0.4-0.13,0.83-0.15,1.28-0.08s0.89,0.32,1.32,0.74C93.68,13.86,93.91,14.26,94.02,14.72z"/>
</g>
</svg>
