<?xml version="1.0" encoding="utf-8"?>
<!-- Generator: Adobe Illustrator 24.0.1, SVG Export Plug-In . SVG Version: 6.00 Build 0)  -->
<svg version="1.1" id="Capa_1" xmlns="http://www.w3.org/2000/svg" xmlns:xlink="http://www.w3.org/1999/xlink" x="0px" y="0px"
	 viewBox="0 0 126 126" style="enable-background:new 0 0 126 126;" xml:space="preserve">
<style type="text/css">
	.st0{fill:#5213B0;}
	.st1{fill:#761CFE;}
	.st2{fill:#FFFFFF;}
</style>
<g>
	<g>
		<rect y="85.5" class="st0" width="14.28" height="40.5"/>
		<rect x="85.5" class="st0" width="40.5" height="14.28"/>
		<path class="st1" d="M0,126L126,0.02L125.98,0H81.25c-2.43,0-4.77,0.97-6.48,2.69L2.69,74.76C0.97,76.48,0,78.81,0,81.24V126z"/>
	</g>
	<g>
		<path class="st2" d="M22.81,87.41l-3.87-1.04l-0.36,0.36l2.46,2.45l-1.57,1.57l-6.51-6.48l2.69-2.68
			c0.52-0.51,1.04-0.86,1.57-1.04c0.53-0.18,1.04-0.2,1.53-0.07c0.49,0.13,0.93,0.39,1.33,0.79c0.47,0.47,0.74,1,0.81,1.59
			c0.07,0.59-0.08,1.19-0.46,1.81l4.11,1.01L22.81,87.41z M17.51,85.65l0.98-0.97c0.31-0.31,0.47-0.61,0.48-0.89
			c0.01-0.28-0.12-0.56-0.39-0.83c-0.26-0.26-0.54-0.38-0.83-0.38c-0.3,0-0.6,0.16-0.91,0.46l-0.98,0.97L17.51,85.65z"/>
		<path class="st2" d="M21.64,78.11L23,79.47l2.2-2.19l1.19,1.18l-2.2,2.19l1.45,1.44l2.48-2.47l1.26,1.26l-4.05,4.03l-6.51-6.48
			l4.05-4.03l1.25,1.25L21.64,78.11z"/>
		<path class="st2" d="M29.38,69.08c0.98-0.11,1.92,0.13,2.82,0.71l-1.67,1.66c-0.42-0.18-0.85-0.22-1.27-0.14
			c-0.43,0.08-0.82,0.3-1.17,0.65c-0.46,0.46-0.66,1-0.61,1.61c0.05,0.62,0.37,1.21,0.93,1.77c0.57,0.56,1.16,0.87,1.77,0.92
			c0.62,0.05,1.16-0.15,1.62-0.61c0.35-0.35,0.57-0.73,0.65-1.16c0.08-0.42,0.04-0.85-0.13-1.26l1.67-1.66
			c0.58,0.89,0.81,1.83,0.71,2.81c-0.1,0.98-0.57,1.88-1.4,2.7c-0.63,0.63-1.33,1.04-2.08,1.24c-0.76,0.2-1.52,0.18-2.28-0.06
			s-1.47-0.68-2.11-1.32s-1.09-1.34-1.33-2.1s-0.26-1.52-0.07-2.27c0.2-0.75,0.62-1.45,1.25-2.08
			C27.49,69.65,28.4,69.19,29.38,69.08z"/>
		<path class="st2" d="M35.82,62.15c0.79-0.21,1.58-0.21,2.37,0c0.79,0.22,1.51,0.64,2.15,1.28c0.64,0.64,1.07,1.35,1.28,2.15
			s0.22,1.59,0,2.37c-0.21,0.78-0.63,1.48-1.23,2.08c-0.61,0.6-1.3,1.01-2.09,1.23c-0.79,0.22-1.58,0.21-2.38,0
			s-1.52-0.64-2.16-1.28c-0.64-0.64-1.06-1.35-1.28-2.15c-0.21-0.8-0.21-1.58,0-2.37c0.21-0.78,0.63-1.48,1.23-2.08
			C34.33,62.77,35.03,62.36,35.82,62.15z M34.45,66.56c0.03,0.64,0.33,1.24,0.91,1.82c0.57,0.57,1.18,0.87,1.82,0.9
			c0.64,0.03,1.22-0.21,1.73-0.72c0.51-0.51,0.75-1.08,0.72-1.72c-0.03-0.64-0.33-1.25-0.9-1.82c-0.57-0.57-1.18-0.87-1.82-0.9
			s-1.22,0.21-1.74,0.72C34.67,65.35,34.42,65.93,34.45,66.56z"/>
		<path class="st2" d="M45.35,52.09l6.46,6.44l-1.57,1.57l-4.04-4.03l2.64,5.42l-1.36,1.36l-5.46-2.63l4.05,4.03l-1.57,1.57
			l-6.46-6.44l1.92-1.92l6.26,2.73l-2.78-6.2L45.35,52.09z"/>
		<path class="st2" d="M49.22,50.64l1.36,1.36l2.2-2.19l1.19,1.18l-2.2,2.19l1.45,1.44l2.48-2.47l1.26,1.26l-4.05,4.03l-6.51-6.48
			l4.05-4.03l1.25,1.25L49.22,50.64z"/>
		<path class="st2" d="M63.63,46.76l-1.57,1.57l-6.63-1.36l4,3.98l-1.58,1.57l-6.51-6.48l1.57-1.57l6.67,1.39l-4.03-4.02l1.57-1.57
			L63.63,46.76z"/>
		<path class="st2" d="M68.59,38.69c0.22,0.77,0.21,1.54-0.02,2.33c-0.24,0.78-0.7,1.52-1.39,2.21l-2.46,2.45l-6.51-6.48l2.46-2.45
			c0.7-0.7,1.44-1.16,2.22-1.4c0.78-0.24,1.55-0.25,2.31-0.03c0.76,0.22,1.47,0.64,2.1,1.28C67.94,37.23,68.37,37.93,68.59,38.69z
			 M66.57,40.05c0.02-0.66-0.27-1.29-0.86-1.88s-1.22-0.87-1.88-0.86c-0.67,0.02-1.3,0.33-1.92,0.94L61.16,39l3.72,3.7l0.75-0.74
			C66.24,41.35,66.55,40.71,66.57,40.05z"/>
		<path class="st2" d="M74.31,33.76l-2.44,2.43l0.78,1.59l-1.66,1.65l-4.08-8.81l1.81-1.81l8.85,4.06l-1.67,1.67L74.31,33.76z
			 M72.7,32.97l-3.2-1.58l1.57,3.2L72.7,32.97z"/>
		<path class="st2" d="M82.06,25.27c0.22,0.77,0.21,1.54-0.02,2.32c-0.24,0.79-0.7,1.52-1.39,2.21l-2.46,2.45l-6.51-6.48l2.46-2.45
			c0.7-0.7,1.44-1.16,2.22-1.4c0.78-0.24,1.55-0.25,2.31-0.03c0.76,0.22,1.47,0.64,2.1,1.28C81.41,23.81,81.84,24.51,82.06,25.27z
			 M80.04,26.64c0.02-0.66-0.27-1.29-0.86-1.88s-1.22-0.87-1.88-0.86s-1.3,0.33-1.92,0.94l-0.75,0.74l3.72,3.7l0.75-0.74
			C79.71,27.94,80.02,27.3,80.04,26.64z"/>
		<path class="st2" d="M83.51,14.64c0.79-0.21,1.58-0.21,2.37,0c0.79,0.22,1.51,0.64,2.15,1.28c0.64,0.64,1.07,1.35,1.29,2.15
			c0.22,0.8,0.22,1.59,0,2.37c-0.21,0.78-0.63,1.48-1.23,2.08c-0.61,0.6-1.3,1.02-2.09,1.23c-0.79,0.21-1.58,0.21-2.38,0
			c-0.8-0.22-1.52-0.64-2.16-1.28s-1.06-1.35-1.28-2.15c-0.21-0.79-0.21-1.58,0-2.37c0.21-0.78,0.63-1.48,1.23-2.08
			C82.03,15.27,82.73,14.85,83.51,14.64z M82.15,19.06c0.03,0.64,0.34,1.24,0.91,1.82c0.57,0.57,1.18,0.87,1.82,0.9
			c0.64,0.03,1.22-0.21,1.74-0.72c0.51-0.51,0.75-1.08,0.72-1.72c-0.03-0.64-0.33-1.25-0.9-1.82c-0.57-0.57-1.18-0.87-1.82-0.9
			c-0.64-0.03-1.22,0.21-1.73,0.72S82.12,18.42,82.15,19.06z"/>
	</g>
</g>
</svg>
