<svg id="Capa_1" data-name="Capa 1" xmlns="http://www.w3.org/2000/svg" viewBox="0 0 24 24">
  <defs>
    <style>
      .cls-1 {
        fill: #b3b3b3;
      }

      .cls-2 {
        fill: #fff;
        fill-rule: evenodd;
      }
    </style>
  </defs>
  <title>inst</title>
  <g>
    <circle class="cls-1" cx="12" cy="12" r="12"/>
    <g>
      <path class="cls-2" d="M7.57,18.26h8.86a1.83,1.83,0,0,0,1.83-1.83V7.57a1.83,1.83,0,0,0-1.83-1.83H7.57A1.83,1.83,0,0,0,5.74,7.57v8.86a1.83,1.83,0,0,0,1.83,1.83ZM6.47,7.57a1.11,1.11,0,0,1,1.1-1.1h8.86a1.11,1.11,0,0,1,1.1,1.1v8.86a1.11,1.11,0,0,1-1.1,1.1H7.57a1.11,1.11,0,0,1-1.1-1.1Z"/>
      <path class="cls-2" d="M12,15.3A3.3,3.3,0,1,0,8.7,12,3.3,3.3,0,0,0,12,15.3Zm0-5.87A2.57,2.57,0,1,1,9.43,12,2.57,2.57,0,0,1,12,9.43Z"/>
      <path class="cls-2" d="M15.67,7.23a1.1,1.1,0,1,0,1.1,1.1A1.1,1.1,0,0,0,15.67,7.23Zm0,1.67a.57.57,0,0,1,0-1.14.57.57,0,1,1,0,1.14Z"/>
    </g>
  </g>
</svg>
