<!-- Generated by IcoMoon.io -->
<svg version="1.1" xmlns="http://www.w3.org/2000/svg" width="32" height="32" viewBox="0 0 32 32">
<title>acrobat</title>
<path d="M0 29.589q0-1.632 1.952-3.392t3.936-2.848l0.48 0.704q-1.408 1.024-2.88 2.656t-1.888 2.848q2.784-0.864 8.48-12.128 2.080-4.192 3.296-8.352-1.056-3.424-1.056-6.464 0-3.68 1.504-3.68 0.736 0 1.088 0.064t0.672 0.416 0.288 1.088q0 0.48-0.096 0.896l-0.864-0.032q-0.064-0.832-0.544-1.312-0.384 0.64-0.384 2.208 0 1.216 0.288 3.008 0.096-0.576 0.288-1.728t0.288-1.696l0.832 0.096q-0.064 4.864-0.448 6.976 1.152 3.424 2.784 5.568t4.544 3.808q2.176-0.224 3.712-0.224 5.696 0 5.696 2.24 0 0.352-0.16 0.768l-0.096-0.032q-0.16 1.344-2.144 1.344-3.328 0-7.68-2.304-7.040 0.704-12.448 2.624-4.704 8.224-7.52 8.224-0.224 0-0.448-0.064t-0.384-0.128-0.448-0.224-0.384-0.224q-0.256-0.256-0.256-0.704zM10.176 21.429q4.288-1.728 9.536-2.72-3.296-2.336-5.248-6.688-1.152 3.872-4.288 9.408zM25.728 19.829q2.88 1.12 4.544 1.12 0.48 0 0.704-0.096 0-1.024-4.64-1.024h-0.608z"></path>
</svg>
