<!-- Generated by IcoMoon.io -->
<svg version="1.1" xmlns="http://www.w3.org/2000/svg" width="41" height="32" viewBox="0 0 41 32">
<title>aim</title>
<path d="M0 12.309q0-3.36 1.696-6.016t4.352-4.224 5.792-2.336 6.208-0.8q0.928 0 1.376 0.032 3.68 0.192 7.232 1.312 2.784 0.896 5.312 2.368t4.704 3.488 3.456 4.704 1.28 5.632q0 0.416-0.032 0.608-0.352 4.864-3.84 8.192t-8.608 4.704q-3.424 0.96-7.328 0.96h-0.256q-6.432 0-10.080-1.696-0.192-0.064-0.224-0.192 0-0.064 0.096-0.064 0.032 0 0.128 0.032t0.096 0q1.6 0.384 2.848 0.384 0.768 0 1.504-0.128t1.408-0.64 0.64-1.28q0-0.384-0.192-0.768-0.288-0.512-1.856-1.088t-3.648-1.056-2.432-0.64q-2.56-0.832-4.448-2.112 0-0.032 0.128-0.32t0.192-0.448 0.224-0.384 0.256-0.192h5.728q0.288 0 0.544 0.672t0.672 1.408 1.12 0.704q0.576 0 0.992-0.384t0.416-0.928q0-0.352-2.688-6.368t-3.392-7.392q-0.192-0.48-0.512-0.48-0.256 0-0.416 0.288l-0.096 0.192q-0.256 0.48-1.664 3.648l-3.424 7.616-0.224 0.48q-3.040-3.488-3.040-7.488zM6.976 17.621q0-0.32 1.728-4.128l0.16-0.096q0.192 0 1.056 2.016t0.832 2.24q0 0.128-0.16 0.128h-3.456q-0.16 0-0.16-0.16zM16.8 21.557q0 1.44 1.504 1.44t1.504-1.44v-12.416q0-1.44-1.504-1.44t-1.504 1.44v12.416zM22.72 21.557q0 1.44 1.504 1.44t1.504-1.44v-5.792l2.944 5.92q0.416 0.928 1.312 0.928 1.024 0 1.472-0.928l2.912-5.92v5.792q0 1.44 1.504 1.44 1.536 0 1.536-1.44v-12.416q0-1.44-1.504-1.44-1.12 0-1.504 0.928l-4.416 9.664-4.256-9.664q-0.448-0.928-1.536-0.928-1.472 0-1.472 1.44v12.416z"></path>
</svg>
