<!-- Generated by IcoMoon.io -->
<svg version="1.1" xmlns="http://www.w3.org/2000/svg" width="32" height="32" viewBox="0 0 32 32">
<title>alert-triangle</title>
<path d="M14.864 6.499c0.097-0.164 0.247-0.323 0.445-0.443 0.315-0.191 0.675-0.237 1.008-0.155s0.632 0.288 0.819 0.597l11.288 18.844c0.093 0.16 0.159 0.357 0.171 0.579-0.020 0.491-0.159 0.788-0.377 1.012-0.24 0.245-0.569 0.397-0.924 0.401l-22.583-0.001c-0.203-0.001-0.428-0.055-0.641-0.179-0.319-0.184-0.532-0.479-0.621-0.809s-0.051-0.692 0.123-0.993zM12.576 5.128l-11.293 18.853c-0.563 0.975-0.675 2.067-0.411 3.053s0.907 1.877 1.864 2.429c0.619 0.357 1.301 0.533 1.967 0.536h22.591c1.119-0.012 2.116-0.472 2.831-1.203s1.152-1.737 1.14-2.841c-0.008-0.715-0.204-1.392-0.541-1.965l-11.299-18.863c-0.576-0.951-1.48-1.575-2.472-1.817s-2.081-0.108-3.025 0.465c-0.572 0.347-1.033 0.82-1.349 1.352zM14.667 12.667v5.333c0 0.736 0.597 1.333 1.333 1.333s1.333-0.597 1.333-1.333v-5.333c0-0.736-0.597-1.333-1.333-1.333s-1.333 0.597-1.333 1.333zM16 24.667c0.736 0 1.333-0.597 1.333-1.333s-0.597-1.333-1.333-1.333-1.333 0.597-1.333 1.333 0.597 1.333 1.333 1.333z"></path>
</svg>
