<!-- Generated by IcoMoon.io -->
<svg version="1.1" xmlns="http://www.w3.org/2000/svg" width="28" height="32" viewBox="0 0 28 32">
<title>align-left</title>
<path d="M18 2.75v2.5c0 0.552-0.448 1-1 1h-16c-0.552 0-1-0.448-1-1v-2.5c0-0.552 0.448-1 1-1h16c0.552 0 1 0.448 1 1zM0 10.75v2.5c0 0.552 0.448 1 1 1h26c0.552 0 1-0.448 1-1v-2.5c0-0.552-0.448-1-1-1h-26c-0.552 0-1 0.448-1 1zM1 30.25h26c0.552 0 1-0.448 1-1v-2.5c0-0.552-0.448-1-1-1h-26c-0.552 0-1 0.448-1 1v2.5c0 0.552 0.448 1 1 1zM17 17.75h-16c-0.552 0-1 0.448-1 1v2.5c0 0.552 0.448 1 1 1h16c0.552 0 1-0.448 1-1v-2.5c0-0.552-0.448-1-1-1z"></path>
</svg>
