<!-- Generated by IcoMoon.io -->
<svg version="1.1" xmlns="http://www.w3.org/2000/svg" width="28" height="32" viewBox="0 0 28 32">
<title>align-center</title>
<path d="M22 2.75v2.5c0 0.552-0.448 1-1 1h-14c-0.552 0-1-0.448-1-1v-2.5c0-0.552 0.448-1 1-1h14c0.552 0 1 0.448 1 1zM1 14.25h26c0.552 0 1-0.448 1-1v-2.5c0-0.552-0.448-1-1-1h-26c-0.552 0-1 0.448-1 1v2.5c0 0.552 0.448 1 1 1zM1 30.25h26c0.552 0 1-0.448 1-1v-2.5c0-0.552-0.448-1-1-1h-26c-0.552 0-1 0.448-1 1v2.5c0 0.552 0.448 1 1 1zM21 17.75h-14c-0.552 0-1 0.448-1 1v2.5c0 0.552 0.448 1 1 1h14c0.552 0 1-0.448 1-1v-2.5c0-0.552-0.448-1-1-1z"></path>
</svg>
