<!-- Generated by IcoMoon.io -->
<svg version="1.1" xmlns="http://www.w3.org/2000/svg" width="32" height="32" viewBox="0 0 32 32">
<title>alt</title>
<path d="M28 27.333h-6.667c-0.479 0-0.92-0.257-1.158-0.672l-10.283-17.995h-5.893c-0.736 0-1.333-0.597-1.333-1.333s0.597-1.333 1.333-1.333h6.667c0.479 0 0.92 0.257 1.158 0.672l10.283 17.995h5.893c0.736 0 1.333 0.597 1.333 1.333s-0.597 1.333-1.333 1.333zM26.667 7.333c0-0.736-0.597-1.333-1.333-1.333h-6.667c-0.736 0-1.333 0.597-1.333 1.333s0.597 1.333 1.333 1.333h6.667c0.736 0 1.333-0.597 1.333-1.333z"></path>
</svg>
