<!-- Generated by IcoMoon.io -->
<svg version="1.1" xmlns="http://www.w3.org/2000/svg" width="38" height="32" viewBox="0 0 38 32">
<title>amazon-pay</title>
<path d="M0 20.325c0.144-0.262 0.325-0.306 0.606-0.156 0.65 0.35 1.288 0.712 1.95 1.044 2.544 1.275 5.2 2.225 7.963 2.894 1.306 0.313 2.619 0.563 3.95 0.738 1.969 0.262 3.95 0.375 5.938 0.325 1.087-0.025 2.175-0.113 3.256-0.238 3.525-0.419 6.931-1.3 10.206-2.675 0.181-0.075 0.369-0.125 0.569-0.075 0.419 0.113 0.563 0.563 0.256 0.869-0.175 0.175-0.394 0.319-0.6 0.462-1.919 1.319-4.012 2.275-6.225 2.994-1.538 0.494-3.1 0.863-4.694 1.1-1.1 0.163-2.212 0.275-3.325 0.3-0.050 0-0.106 0.012-0.156 0.019h-1.319c-0.050-0.006-0.106-0.019-0.156-0.019-0.225-0.012-0.45-0.019-0.669-0.025-1.056-0.044-2.106-0.163-3.15-0.331-1.713-0.281-3.388-0.712-5.025-1.306-3.381-1.225-6.412-3.038-9.1-5.438-0.112-0.1-0.188-0.238-0.275-0.356v-0.125zM9.875 4.063c-0.088 0.013-0.181 0.025-0.269 0.037-0.875 0.106-1.662 0.431-2.375 0.944-0.15 0.106-0.287 0.219-0.444 0.338-0.013-0.031-0.025-0.063-0.025-0.088-0.025-0.169-0.050-0.344-0.081-0.513-0.044-0.287-0.188-0.412-0.475-0.412h-0.719c-0.431 0-0.513 0.081-0.513 0.513v13.081c0 0.063 0 0.125 0.006 0.188 0.013 0.188 0.125 0.306 0.306 0.313 0.438 0.006 0.881 0.006 1.319 0 0.181 0 0.294-0.125 0.313-0.313 0.006-0.063 0.006-0.125 0.006-0.188v-4.525c0.069 0.056 0.106 0.088 0.138 0.119 1.119 0.931 2.406 1.238 3.813 0.963 1.275-0.25 2.162-1.031 2.738-2.181 0.438-0.869 0.619-1.794 0.644-2.756 0.031-1.069-0.075-2.119-0.506-3.112-0.531-1.225-1.412-2.031-2.744-2.306-0.2-0.044-0.406-0.063-0.613-0.094-0.175-0.006-0.344-0.006-0.519-0.006zM6.912 6.681c0-0.094 0.025-0.15 0.106-0.206 0.856-0.594 1.8-0.906 2.85-0.825 0.931 0.069 1.694 0.525 2.094 1.619 0.244 0.669 0.306 1.363 0.306 2.063 0 0.65-0.050 1.287-0.25 1.912-0.425 1.331-1.4 1.838-2.662 1.781-0.875-0.037-1.638-0.375-2.338-0.869-0.075-0.056-0.106-0.106-0.106-0.206 0.006-0.881 0-1.756 0-2.637 0-0.875 0.006-1.75 0-2.631zM19.769 4.063c-0.063 0.006-0.125 0.019-0.181 0.025-0.613 0.031-1.212 0.106-1.806 0.256-0.381 0.1-0.75 0.237-1.119 0.362-0.225 0.075-0.337 0.237-0.331 0.481 0.006 0.206-0.006 0.412 0 0.619 0.006 0.3 0.131 0.381 0.425 0.306 0.488-0.125 0.975-0.263 1.469-0.356 0.769-0.144 1.544-0.206 2.325-0.088 0.406 0.063 0.788 0.181 1.050 0.525 0.231 0.3 0.319 0.656 0.331 1.025 0.019 0.519 0.012 1.037 0.019 1.556 0 0.025-0.006 0.056-0.012 0.088-0.031-0.006-0.056 0-0.081-0.006-0.656-0.156-1.319-0.269-2-0.306-0.706-0.037-1.406 0.006-2.081 0.244-0.806 0.281-1.456 0.769-1.838 1.556-0.294 0.613-0.338 1.262-0.244 1.919 0.125 0.875 0.563 1.55 1.337 1.981 0.744 0.412 1.55 0.463 2.369 0.338 0.944-0.144 1.781-0.544 2.519-1.15 0.025-0.025 0.056-0.044 0.1-0.069 0.038 0.238 0.069 0.463 0.113 0.688 0.038 0.194 0.156 0.319 0.337 0.325 0.337 0.006 0.681 0.006 1.019 0 0.169-0.006 0.281-0.119 0.3-0.294 0.006-0.056 0.006-0.119 0.006-0.175v-6.625c0-0.269-0.012-0.537-0.056-0.806-0.119-0.806-0.462-1.469-1.188-1.9-0.419-0.25-0.881-0.375-1.363-0.444-0.225-0.031-0.45-0.050-0.675-0.081-0.244 0.006-0.494 0.006-0.744 0.006zM21.956 12.044c0 0.081-0.025 0.137-0.094 0.188-0.7 0.506-1.469 0.844-2.337 0.931-0.356 0.037-0.712 0.025-1.050-0.113-0.394-0.156-0.65-0.431-0.775-0.831s-0.125-0.813-0.006-1.213c0.156-0.519 0.525-0.813 1.025-0.975 0.506-0.162 1.031-0.188 1.55-0.137 0.525 0.044 1.038 0.144 1.563 0.213 0.1 0.012 0.131 0.063 0.131 0.162-0.006 0.3 0 0.594 0 0.894-0.006 0.294-0.012 0.588-0.006 0.881zM38.2 20.131c-0.063-0.313-0.3-0.431-0.569-0.519-0.425-0.144-0.869-0.206-1.313-0.244-0.819-0.069-1.638-0.031-2.45 0.119-0.894 0.169-1.744 0.456-2.5 0.975-0.087 0.063-0.175 0.131-0.231 0.219-0.044 0.069-0.056 0.175-0.031 0.25 0.025 0.094 0.131 0.119 0.225 0.113 0.044 0 0.094 0 0.137-0.006 0.488-0.050 0.969-0.106 1.456-0.156 0.712-0.069 1.431-0.113 2.144-0.056 0.3 0.019 0.606 0.087 0.9 0.169 0.319 0.087 0.462 0.325 0.475 0.65 0.025 0.5-0.087 0.981-0.219 1.456-0.256 0.962-0.625 1.894-0.987 2.819-0.025 0.063-0.050 0.125-0.063 0.188-0.031 0.181 0.075 0.3 0.256 0.256 0.106-0.025 0.225-0.081 0.3-0.156 0.275-0.269 0.556-0.538 0.794-0.837 0.8-1.025 1.269-2.206 1.544-3.475 0.050-0.225 0.087-0.456 0.131-0.681v-1.081zM29.944 12.431c-0.806-2.231-1.613-4.469-2.419-6.7-0.125-0.356-0.262-0.706-0.394-1.056-0.069-0.181-0.2-0.3-0.4-0.3-0.475-0.006-0.95-0.013-1.431-0.006-0.156 0-0.231 0.125-0.2 0.281 0.031 0.131 0.069 0.256 0.119 0.381 1.225 3.031 2.456 6.069 3.694 9.094 0.106 0.256 0.131 0.475 0.012 0.738-0.206 0.456-0.369 0.938-0.581 1.394-0.188 0.406-0.5 0.712-0.95 0.831-0.319 0.087-0.637 0.1-0.962 0.069-0.156-0.012-0.313-0.050-0.469-0.063-0.212-0.012-0.319 0.081-0.325 0.3-0.006 0.206-0.006 0.413 0 0.619 0.006 0.344 0.125 0.5 0.462 0.556 0.35 0.063 0.706 0.119 1.056 0.125 1.069 0.025 1.919-0.406 2.469-1.337 0.219-0.369 0.419-0.756 0.575-1.15 1.481-3.738 2.944-7.481 4.413-11.225 0.044-0.112 0.081-0.225 0.1-0.344 0.025-0.175-0.056-0.275-0.231-0.275-0.413-0.006-0.831 0-1.244 0-0.231 0-0.394 0.1-0.481 0.325-0.031 0.088-0.069 0.169-0.1 0.256-0.725 2.081-1.45 4.162-2.175 6.25-0.156 0.45-0.319 0.906-0.481 1.387-0.025-0.069-0.038-0.106-0.056-0.15z"></path>
</svg>
