<!-- Generated by IcoMoon.io -->
<svg version="1.1" xmlns="http://www.w3.org/2000/svg" width="29" height="32" viewBox="0 0 29 32">
<title>android1</title>
<path d="M0 19.701v-8.608q0-0.832 0.608-1.44t1.408-0.576q0.832 0 1.44 0.576t0.576 1.44v8.608q0 0.832-0.576 1.408t-1.44 0.608-1.408-0.608-0.608-1.408zM5.536 22.901v-13.376h18.368v13.376q0 0.832-0.576 1.408t-1.44 0.608h-14.336q-0.832 0-1.408-0.608t-0.608-1.408zM5.536 8.021h18.368q0-3.68-2.72-6.048t-6.464-2.368-6.464 2.368-2.72 6.048zM8.768-2.091q0-0.256 0.224-0.256 0.096 0 0.224 0.064l1.568 2.848-0.48 0.256q-1.536-2.816-1.536-2.912zM9.248 23.733q0-0.864 0.608-1.44t1.504-0.576q0.8 0 1.408 0.608t0.608 1.408v6.464q0 0.896-0.608 1.472t-1.504 0.544q-0.832 0-1.408-0.576t-0.608-1.44v-6.464zM9.408 3.893q0-0.512 0.384-0.896t0.896-0.352 0.896 0.352 0.352 0.896q0 0.544-0.352 0.896t-0.928 0.384q-0.512 0-0.864-0.384t-0.384-0.896zM16.064 23.733q0-0.864 0.64-1.44t1.472-0.576 1.44 0.576 0.576 1.44v6.464q0 0.896-0.608 1.472t-1.504 0.544q-0.832 0-1.408-0.576t-0.608-1.44v-6.464zM17.504 3.893q0-0.512 0.384-0.896t0.896-0.352 0.896 0.352 0.352 0.896q0 0.544-0.384 0.896t-0.896 0.384-0.864-0.384-0.384-0.896zM18.656 0.565q0.064-0.096 0.448-0.928t0.768-1.408 0.576-0.576 0.224 0.288v0.064l-1.536 2.848zM25.408 19.701v-8.576q0-0.832 0.608-1.44t1.408-0.608 1.44 0.608 0.576 1.44v8.576q0 0.832-0.576 1.408t-1.44 0.608-1.44-0.608-0.576-1.408z"></path>
</svg>
