<!-- Generated by IcoMoon.io -->
<svg version="1.1" xmlns="http://www.w3.org/2000/svg" width="28" height="32" viewBox="0 0 28 32">
<title>android</title>
<path d="M5.6 12.781v7.238c0 0.962-0.756 1.731-1.719 1.731-0.956 0-1.881-0.775-1.881-1.731v-7.238c0-0.944 0.925-1.719 1.881-1.719 0.944 0 1.719 0.775 1.719 1.719zM6.275 22.594c0 1.025 0.825 1.85 1.85 1.85h1.244l0.019 3.819c0 2.306 3.45 2.288 3.45 0v-3.819h2.325v3.819c0 2.294 3.469 2.3 3.469 0v-3.819h1.262c1.012 0 1.837-0.825 1.837-1.85v-11.213h-15.456v11.213zM21.775 10.775h-15.569c0-2.675 1.6-5 3.975-6.213l-1.194-2.206c-0.175-0.306 0.269-0.5 0.419-0.237l1.213 2.225c2.181-0.969 4.688-0.919 6.769 0l1.206-2.219c0.156-0.269 0.594-0.069 0.419 0.237l-1.194 2.2c2.356 1.213 3.956 3.537 3.956 6.213zM11.106 7.306c0-0.356-0.287-0.656-0.656-0.656-0.356 0-0.637 0.3-0.637 0.656s0.287 0.656 0.637 0.656c0.369 0 0.656-0.3 0.656-0.656zM18.194 7.306c0-0.356-0.288-0.656-0.637-0.656-0.369 0-0.656 0.3-0.656 0.656s0.288 0.656 0.656 0.656c0.35 0 0.637-0.3 0.637-0.656zM24.119 11.063c-0.944 0-1.719 0.756-1.719 1.719v7.238c0 0.962 0.775 1.731 1.719 1.731 0.962 0 1.881-0.775 1.881-1.731v-7.238c0-0.963-0.925-1.719-1.881-1.719z"></path>
</svg>
