<!-- Generated by IcoMoon.io -->
<svg version="1.1" xmlns="http://www.w3.org/2000/svg" width="23" height="32" viewBox="0 0 23 32">
<title>angellist1</title>
<path d="M0 21.781q0-2.016 0.896-3.136 0.736-0.992 2.368-1.44-0.512-1.28-0.512-1.888 0-1.056 1.12-2.24 1.184-1.12 2.208-1.12 0.544 0 1.28 0.288-1.536-4.384-2.208-6.656-0.768-2.592-0.768-3.68 0-1.536 0.768-2.4 0.8-0.896 2.144-0.896 2.304 0 5.536 9.44l0.544 1.568q0.192-0.48 0.384-1.056 3.2-9.344 5.76-9.344 1.28 0 2.016 0.864 0.768 0.864 0.768 2.24 0 0.896-0.768 3.616-0.672 2.336-2.112 6.4 1.824 0.448 2.624 1.728 0.864 1.376 0.864 4.256 0 5.696-3.392 9.312-3.456 3.616-8.768 3.616-2.112 0-4.064-0.768-1.888-0.672-3.424-2.112-1.632-1.536-2.432-3.168-0.832-1.728-0.832-3.424zM2.080 21.621q0 0.8 0.448 1.888 0.416 1.024 1.248 2.144 1.312 1.696 3.104 2.592 1.824 0.896 4.128 0.896 4.128 0 6.944-3.104 2.784-3.072 2.784-7.776 0-1.472-0.192-2.272-0.16-0.704-0.608-1.088-0.864-0.736-3.392-1.28-2.528-0.576-5.376-0.576-0.704 0-0.896 0.192-0.224 0.096-0.224 0.64 0 1.312 1.472 1.856 1.6 0.672 5.28 0.672h0.896q0.512 0 0.736 0.352 0.256 0.256 0.352 0.992-0.544 0.544-1.76 0.992-1.152 0.416-1.696 0.832-1.28 0.928-2.048 2.208-0.736 1.248-0.736 2.368 0 0.672 0.32 1.632 0.352 1.056 0.352 1.376v0.192l-0.128 0.48q-1.408-0.096-2.048-1.312-0.544-1.024-0.608-2.624-0.096 0.032-0.384 0.032h-0.352q0.032 0.16 0.032 0.384 0 0.96-0.736 1.632t-1.728 0.672q-1.504 0-3.040-1.44-1.536-1.472-1.536-2.88 0-0.256 0.096-0.512 0.032-0.224 0.512-0.704 0.8 0.992 1.088 1.376 1.344 1.888 2.432 1.888 0.288 0 0.544-0.192 0.192-0.192 0.192-0.32 0-0.256-0.384-0.928-0.256-0.48-1.184-1.696-0.896-1.152-1.44-1.6-0.48-0.448-0.704-0.448-0.608 0-1.184 0.704t-0.576 1.76zM4.96 15.509q0 0.416 0.512 1.44 0.448 0.864 1.44 2.176 0.992 1.28 1.792 1.984 0.768 0.64 1.152 0.64 0.224 0 0.448-0.224 0.224-0.256 0.224-0.512 0-0.384-0.576-1.856-0.672-1.632-1.472-2.944-0.704-1.12-1.248-1.568-0.512-0.48-0.992-0.48-0.352 0-0.8 0.48-0.48 0.48-0.48 0.864zM6.4 1.685q0 1.088 0.768 3.424 0.704 2.272 2.112 6.080 0.32-0.192 0.896-0.192 0.032 0 0.224 0t0.32 0.032q0.128 0 0.832 0.064l-2.208-6.4q-0.896-2.56-1.408-3.328-0.416-0.672-0.832-0.672-0.288 0-0.48 0.256-0.224 0.288-0.224 0.736zM11.712 18.005q0.288 0.736 0.608 1.6 0.64-0.736 1.28-1.216-0.16-0.032-0.48-0.096t-0.48-0.064q-0.64-0.128-0.928-0.224zM15.072 11.477l2.144 0.384q1.44-3.968 2.208-6.368 0.8-2.592 0.8-3.072 0-0.512-0.224-0.8-0.128-0.224-0.48-0.224-0.448 0-0.992 0.864-0.608 0.928-1.376 3.232z"></path>
</svg>
