<!-- Generated by IcoMoon.io -->
<svg version="1.1" xmlns="http://www.w3.org/2000/svg" width="32" height="32" viewBox="0 0 32 32">
<title>aperture</title>
<path d="M15.229 10l2.964-5.133c2.433 0.449 4.609 1.633 6.292 3.315 0.555 0.555 1.056 1.164 1.495 1.819h-6.925zM9.84 14l-2.963-5.129c0.204-0.239 0.416-0.468 0.637-0.689 2-2 4.7-3.296 7.7-3.489l-3.456 5.987zM10.611 20.667h-5.928c-0.443-1.251-0.683-2.597-0.683-4 0-1.907 0.444-3.708 1.235-5.309l3.467 6.005zM23.297 15.971l-1.908-3.304h5.928c0.443 1.251 0.683 2.597 0.683 4 0 1.907-0.444 3.708-1.235 5.309l-3.435-5.949zM16.784 28.641l5.376-9.308 2.963 5.131c-0.204 0.237-0.416 0.468-0.637 0.688-2 2-4.7 3.296-7.7 3.489zM14.267 31.232c0.061 0.011 0.123 0.019 0.185 0.020 0.508 0.053 1.025 0.081 1.548 0.081 4.049 0 7.719-1.643 10.371-4.296 0.488-0.488 0.941-1.009 1.356-1.561 0.056-0.063 0.105-0.129 0.147-0.199 1.757-2.417 2.793-5.395 2.793-8.611 0-2.052-0.423-4.007-1.184-5.781-0.021-0.059-0.045-0.115-0.073-0.168-0.737-1.659-1.773-3.156-3.039-4.421-2.268-2.268-5.28-3.799-8.637-4.195-0.061-0.011-0.123-0.019-0.185-0.020-0.508-0.053-1.025-0.081-1.548-0.081-4.049 0-7.719 1.643-10.371 4.296-0.488 0.487-0.941 1.009-1.356 1.561-0.056 0.063-0.105 0.129-0.148 0.199-1.756 2.417-2.792 5.395-2.792 8.611 0 2.052 0.423 4.007 1.184 5.781 0.021 0.059 0.045 0.115 0.073 0.168 0.737 1.659 1.773 3.156 3.039 4.421 2.268 2.268 5.28 3.799 8.637 4.195zM16.771 23.333l-2.964 5.133c-2.433-0.449-4.609-1.633-6.292-3.315-0.555-0.555-1.056-1.164-1.495-1.819h6.925zM20.62 16.667l-2.309 4h-4.621l-2.309-4 2.309-4h4.621z"></path>
</svg>
