<!-- Generated by IcoMoon.io -->
<svg version="1.1" xmlns="http://www.w3.org/2000/svg" width="28" height="32" viewBox="0 0 28 32">
<title>apple-alt</title>
<path d="M21.949 8.072c-2.221-0.391-6.129 0.897-7.949 1.926-1.82-1.028-5.729-2.317-7.949-1.926-5.077 0.894-6.714 7.781-5.818 12.85s3.831 11.078 9.793 11.078c0.754 0 1.508-0.288 2.152-0.646 1.13-0.627 2.514-0.627 3.644 0 0.645 0.358 1.399 0.646 2.152 0.646 5.962 0 8.898-6.009 9.793-11.078s-0.739-11.956-5.818-12.85zM18.477 5.476c1.91-1.91 1.483-5.436 1.483-5.436s-3.526-0.428-5.436 1.482c-1.911 1.911-1.482 5.436-1.482 5.436s3.525 0.428 5.436-1.482z"></path>
</svg>
