<!-- Generated by IcoMoon.io -->
<svg version="1.1" xmlns="http://www.w3.org/2000/svg" width="36" height="32" viewBox="0 0 36 32">
<title>appnet</title>
<path d="M0.064 12.885q0.288-5.056 2.368-8.48 1.568-2.56 3.072-3.648t4.416-1.568q0.96-0.16 1.824-0.192t1.632 0.128 1.408 0.384 1.248 0.64 1.056 0.8 0.96 1.024 0.864 1.088 0.768 1.248 0.672 1.248 0.64 1.312q0.224 0.448 0.448 0.96t0.48 1.12 0.416 0.992q0.256-1.536 1.824-6.016t2.144-4.64q2.912-0.672 4.64 0 0.128 0.064 0.288 0.256t0.224 0.256q-0.032 0.576-0.192 1.216t-0.256 1.056-0.416 1.152-0.384 0.992l-5.12 14.048q-0.224 1.088 0.608 2.88t2.144 2.976 2.368 0.704q0.32-0.16 0.576-0.672t0.448-0.672q0.576-0.48 2.272-0.512t2.144 0.608q0.512 0.928 0.352 1.984t-0.992 2.144-1.888 1.824-2.368 1.152-2.368 0.16q-0.928-0.192-1.728-0.576t-1.312-0.832-1.088-1.152-0.864-1.248-0.864-1.44-0.832-1.408q-0.128 0.064-0.192 0.128-0.768 1.856-2.592 3.424t-4.064 2.4-4.8 0.608-4.64-1.728q-2.72-1.984-4.192-6.528t-1.152-9.6zM4.928 12.501q-0.416 3.456 0.288 6.752t2.336 4.512q0.896 0.672 1.792 0.96t1.664 0.384 1.568-0.32 1.376-0.672 1.312-1.12 1.12-1.248 1.056-1.472 0.896-1.376 0.768-1.344q0.16-0.288 0.256-0.448-1.216-5.152-2.048-7.136-2.336-5.536-6.464-4.96-1.792 0.256-2.592 0.704t-1.6 1.568q-1.312 1.76-1.728 5.216z"></path>
</svg>
