<!-- Generated by IcoMoon.io -->
<svg version="1.1" xmlns="http://www.w3.org/2000/svg" width="32" height="32" viewBox="0 0 32 32">
<title>archive2</title>
<path d="M19.429 14.476q0-0.464-0.339-0.804t-0.804-0.339h-4.571q-0.464 0-0.804 0.339t-0.339 0.804 0.339 0.804 0.804 0.339h4.571q0.464 0 0.804-0.339t0.339-0.804zM29.714 11.048v17.143q0 0.464-0.339 0.804t-0.804 0.339h-25.143q-0.464 0-0.804-0.339t-0.339-0.804v-17.143q0-0.464 0.339-0.804t0.804-0.339h25.143q0.464 0 0.804 0.339t0.339 0.804zM30.857 3.048v4.571q0 0.464-0.339 0.804t-0.804 0.339h-27.429q-0.464 0-0.804-0.339t-0.339-0.804v-4.571q0-0.464 0.339-0.804t0.804-0.339h27.429q0.464 0 0.804 0.339t0.339 0.804z"></path>
</svg>
