<!-- Generated by IcoMoon.io -->
<svg version="1.1" xmlns="http://www.w3.org/2000/svg" width="32" height="32" viewBox="0 0 32 32">
<title>arrow-down-right</title>
<path d="M21.333 10v10.115l-11.057-11.057c-0.521-0.521-1.365-0.521-1.885 0s-0.521 1.365 0 1.885l11.057 11.057h-10.115c-0.736 0-1.333 0.597-1.333 1.333s0.597 1.333 1.333 1.333h13.333c0.181 0 0.353-0.036 0.511-0.101s0.304-0.161 0.432-0.289c0.123-0.123 0.221-0.269 0.289-0.432 0.065-0.157 0.101-0.329 0.101-0.511v-13.333c0-0.736-0.597-1.333-1.333-1.333s-1.333 0.597-1.333 1.333z"></path>
</svg>
