<!-- Generated by IcoMoon.io -->
<svg version="1.1" xmlns="http://www.w3.org/2000/svg" width="32" height="32" viewBox="0 0 32 32">
<title>arrow-alt-circle-down1</title>
<path d="M16 0.5c-8.563 0-15.5 6.938-15.5 15.5s6.938 15.5 15.5 15.5 15.5-6.938 15.5-15.5-6.938-15.5-15.5-15.5zM16 28.5c-6.906 0-12.5-5.594-12.5-12.5s5.594-12.5 12.5-12.5 12.5 5.594 12.5 12.5-5.594 12.5-12.5 12.5zM14 8.75v7.25h-4.188c-0.669 0-1 0.806-0.531 1.281l6.188 6.188c0.294 0.294 0.769 0.294 1.063 0l6.188-6.188c0.475-0.475 0.137-1.281-0.531-1.281h-4.188v-7.25c0-0.412-0.337-0.75-0.75-0.75h-2.5c-0.412 0-0.75 0.338-0.75 0.75z"></path>
</svg>
