<!-- Generated by IcoMoon.io -->
<svg version="1.1" xmlns="http://www.w3.org/2000/svg" width="32" height="32" viewBox="0 0 32 32">
<title>arrow-down3</title>
<path d="M24.391 15.724l-7.057 7.057v-15.448c0-0.736-0.597-1.333-1.333-1.333s-1.333 0.597-1.333 1.333v15.448l-7.057-7.057c-0.521-0.521-1.365-0.521-1.885 0s-0.521 1.365 0 1.885l9.333 9.333c0.123 0.123 0.269 0.221 0.432 0.289 0.327 0.135 0.695 0.135 1.021 0 0.157-0.065 0.304-0.161 0.432-0.289l9.333-9.333c0.521-0.521 0.521-1.365 0-1.885s-1.365-0.521-1.885 0z"></path>
</svg>
