<!-- Generated by IcoMoon.io -->
<svg version="1.1" xmlns="http://www.w3.org/2000/svg" width="32" height="32" viewBox="0 0 32 32">
<title>at-sign</title>
<path d="M20 16.667c0 1.105-0.447 2.103-1.172 2.828s-1.723 1.172-2.828 1.172-2.103-0.447-2.828-1.172-1.172-1.723-1.172-2.828 0.447-2.103 1.172-2.828 1.723-1.172 2.828-1.172 2.103 0.447 2.828 1.172 1.172 1.723 1.172 2.828zM20.987 21.091c0.173 0.243 0.365 0.471 0.575 0.68 0.964 0.964 2.3 1.563 3.772 1.563s2.808-0.599 3.771-1.563 1.563-2.299 1.563-3.771v-1.333c0-4.049-1.644-7.719-4.296-10.371s-6.321-4.296-10.372-4.295-7.717 1.643-10.371 4.296-4.295 6.321-4.295 10.371 1.644 7.719 4.296 10.371 6.321 4.296 10.371 4.295c3.367 0 6.473-1.136 8.92-3.025 0.583-0.449 0.691-1.287 0.24-1.871s-1.287-0.691-1.871-0.24c-1.983 1.531-4.503 2.459-7.247 2.469-3.387-0.012-6.368-1.352-8.531-3.515-2.169-2.172-3.512-5.169-3.512-8.484s1.341-6.312 3.515-8.485 5.171-3.515 8.485-3.515 6.312 1.341 8.485 3.515 3.515 5.171 3.515 8.484v1.333c0 0.737-0.297 1.401-0.781 1.885s-1.148 0.781-1.885 0.781-1.401-0.297-1.885-0.781-0.781-1.148-0.781-1.885v-6.667c0-0.736-0.597-1.333-1.333-1.333s-1.333 0.597-1.333 1.333c-1.113-0.836-2.5-1.333-4-1.333-1.84 0-3.509 0.748-4.715 1.952s-1.952 2.875-1.952 4.715 0.748 3.509 1.952 4.715 2.875 1.952 4.715 1.952 3.509-0.748 4.715-1.952c0.093-0.093 0.185-0.191 0.273-0.289z"></path>
</svg>
