<!-- Generated by IcoMoon.io -->
<svg version="1.1" xmlns="http://www.w3.org/2000/svg" width="28" height="32" viewBox="0 0 28 32">
<title>atom</title>
<path d="M25.814 16c2.508-3.431 2.594-6.164 1.571-8-0.682-1.22-2.534-3.171-7.271-2.617-1.343-3.202-3.387-5.383-6.115-5.383s-4.772 2.181-6.115 5.383c-4.733-0.549-6.589 1.397-7.271 2.617-1.024 1.838-0.938 4.568 1.571 8-2.508 3.431-2.594 6.164-1.571 8 1.826 3.271 6.355 2.724 7.271 2.617 1.342 3.201 3.387 5.383 6.115 5.383s4.773-2.181 6.115-5.383c0.915 0.106 5.444 0.654 7.271-2.617 1.024-1.837 0.938-4.568-1.571-8zM3.961 22c-0.252-0.451-0.012-1.55 0.934-3.018 0.435 0.408 0.888 0.806 1.367 1.199 0.107 0.857 0.25 1.692 0.423 2.505-1.535 0.056-2.493-0.273-2.724-0.686zM6.263 11.82c-0.479 0.393-0.931 0.791-1.367 1.199-0.946-1.469-1.186-2.568-0.934-3.019 0.213-0.384 1.024-0.717 2.37-0.717 0.107 0 0.242 0.019 0.356 0.023-0.149 0.646-0.298 1.5-0.409 2.367l-0.015 0.147zM14 4c0.592 0 1.387 0.845 2.116 2.329-0.699 0.231-1.402 0.5-2.116 0.804-0.714-0.304-1.417-0.572-2.116-0.804 0.729-1.484 1.524-2.329 2.116-2.329zM14 28c-0.592 0-1.387-0.845-2.116-2.329 0.699-0.231 1.402-0.5 2.116-0.804 0.714 0.304 1.417 0.573 2.116 0.804-0.729 1.484-1.524 2.329-2.116 2.329zM17.906 18.167c-1.669 1.192-2.884 1.833-3.906 2.343-1.022-0.509-2.238-1.151-3.906-2.343-0.124-1.737-0.124-2.596 0-4.333 1.667-1.191 2.883-1.832 3.906-2.342 1.024 0.511 2.241 1.152 3.906 2.342 0.124 1.736 0.124 2.596 0 4.333zM24.039 22c-0.229 0.414-1.188 0.739-2.724 0.684 0.172-0.813 0.316-1.648 0.422-2.504 0.479-0.393 0.931-0.791 1.367-1.199 0.946 1.468 1.186 2.567 0.934 3.018zM23.104 13.018c-0.435-0.408-0.887-0.806-1.367-1.199-0.127-1.014-0.276-1.869-0.46-2.71l0.036 0.196c0.114-0.004 0.248-0.023 0.356-0.023 1.345 0 2.157 0.334 2.37 0.717 0.251 0.451 0.011 1.551-0.934 3.019zM14 14c-1.104 0-2 0.896-2 2s0.896 2 2 2 2-0.896 2-2-0.896-2-2-2z"></path>
</svg>
