<!-- Generated by IcoMoon.io -->
<svg version="1.1" xmlns="http://www.w3.org/2000/svg" width="34" height="32" viewBox="0 0 34 32">
<title>bar-chart</title>
<path d="M9.143 17.905v6.857h-4.571v-6.857h4.571zM16 8.762v16h-4.571v-16h4.571zM22.857 13.333v11.429h-4.571v-11.429h4.571zM29.714 6.476v18.286h-4.571v-18.286h4.571zM32 26.476v-21.714q0-0.232-0.17-0.402t-0.402-0.17h-28.571q-0.232 0-0.402 0.17t-0.17 0.402v21.714q0 0.232 0.17 0.402t0.402 0.17h28.571q0.232 0 0.402-0.17t0.17-0.402zM34.286 4.762v21.714q0 1.179-0.839 2.018t-2.018 0.839h-28.571q-1.179 0-2.018-0.839t-0.839-2.018v-21.714q0-1.179 0.839-2.018t2.018-0.839h28.571q1.179 0 2.018 0.839t0.839 2.018z"></path>
</svg>
