<!-- Generated by IcoMoon.io -->
<svg version="1.1" xmlns="http://www.w3.org/2000/svg" width="32" height="32" viewBox="0 0 32 32">
<title>bath</title>
<path d="M30.5 16h-25.5v-9c0-1.103 0.897-2 2-2 0.709 0 1.333 0.372 1.688 0.93-1.031 1.575-0.918 3.723 0.427 5.19-0.261 0.295-0.251 0.745 0.031 1.027l0.707 0.707c0.293 0.293 0.768 0.293 1.061 0l5.939-5.939c0.293-0.293 0.293-0.768 0-1.061l-0.707-0.707c-0.282-0.282-0.732-0.292-1.027-0.031-1.122-1.029-2.643-1.339-4.011-0.96-0.904-1.301-2.408-2.155-4.109-2.155-2.757 0-5 2.243-5 5v9h-0.5c-0.828 0-1.5 0.672-1.5 1.5v1c0 0.828 0.672 1.5 1.5 1.5h0.5v2c0 1.777 0.773 3.373 2 4.472v2.028c0 0.828 0.672 1.5 1.5 1.5h1c0.828 0 1.5-0.672 1.5-1.5v-0.5h16v0.5c0 0.828 0.672 1.5 1.5 1.5h1c0.828 0 1.5-0.672 1.5-1.5v-2.028c1.227-1.099 2-2.695 2-4.472v-2h0.5c0.828 0 1.5-0.672 1.5-1.5v-1c0-0.828-0.672-1.5-1.5-1.5z"></path>
</svg>
