<!-- Generated by IcoMoon.io -->
<svg version="1.1" xmlns="http://www.w3.org/2000/svg" width="28" height="32" viewBox="0 0 28 32">
<title>bell1</title>
<path d="M27.462 22.643c-1.207-1.297-3.467-3.249-3.467-9.643 0-4.856-3.405-8.744-7.996-9.697v-1.303c0-1.104-0.895-2-1.999-2s-1.999 0.896-1.999 2v1.303c-4.591 0.954-7.996 4.841-7.996 9.697 0 6.394-2.259 8.346-3.467 9.643-0.375 0.403-0.541 0.885-0.538 1.357 0.007 1.025 0.811 2 2.006 2h23.988c1.195 0 2-0.975 2.006-2 0.003-0.472-0.163-0.954-0.538-1.357zM4.221 23c1.326-1.748 2.776-4.646 2.783-9.964 0-0.012-0.004-0.024-0.004-0.036 0-3.866 3.134-7 7-7s7 3.134 7 7c0 0.012-0.004 0.024-0.004 0.036 0.007 5.319 1.457 8.216 2.783 9.964h-19.559zM14 32c2.207 0 3.998-1.791 3.998-4h-7.996c0 2.209 1.791 4 3.998 4z"></path>
</svg>
