<!-- Generated by IcoMoon.io -->
<svg version="1.1" xmlns="http://www.w3.org/2000/svg" width="40" height="32" viewBox="0 0 40 32">
<title>bell-slash1</title>
<path d="M39.624 29.439l-37.374-29.219c-0.431-0.345-1.061-0.276-1.406 0.156l-0.625 0.781c-0.346 0.431-0.276 1.061 0.156 1.406l37.375 29.219c0.431 0.345 1.060 0.275 1.406-0.156l0.625-0.781c0.345-0.431 0.276-1.061-0.156-1.406zM10.221 23c1.044-1.377 2.155-3.488 2.588-6.911l-2.842-2.222c-0.204 5.671-2.279 7.543-3.428 8.776-0.375 0.403-0.541 0.885-0.538 1.357 0.007 1.025 0.811 2 2.006 2h17.479l-3.837-3h-11.428zM20 6c3.866 0 7 3.134 7 7 0 0.012-0.004 0.024-0.004 0.036 0.001 1.053 0.073 1.986 0.174 2.858l3.721 2.909c-0.519-1.383-0.896-3.218-0.896-5.803 0-4.856-3.405-8.744-7.996-9.697v-1.303c0-1.104-0.895-2-1.999-2s-1.999 0.896-1.999 2v1.303c-1.626 0.338-3.091 1.059-4.321 2.045l2.386 1.865c1.121-0.764 2.474-1.213 3.934-1.213zM20 32c2.207 0 3.998-1.791 3.998-4h-7.996c0 2.209 1.791 4 3.998 4z"></path>
</svg>
