<!-- Generated by IcoMoon.io -->
<svg version="1.1" xmlns="http://www.w3.org/2000/svg" width="28" height="32" viewBox="0 0 28 32">
<title>bitbucket1</title>
<path d="M0 3.541q0-1.92 4.064-3.264t9.792-1.344q5.76 0 9.824 1.344t4.032 3.264q0 0.384-2.304 14.080-0.288 1.472-3.552 2.848t-8 1.376-8-1.376-3.52-2.848q-2.336-13.248-2.336-14.080zM3.424 22.133v-0.128q0-0.544 0.48-0.544 0.192 0 0.384 0.16 1.504 1.184 3.904 1.856t4.032 0.736l1.632 0.096q0.256 0 0.704-0.032t1.664-0.16 2.4-0.384 2.496-0.8 2.336-1.312l0.352-0.16q0.512 0 0.512 0.544 0 0.064-0.032 0.128-0.704 3.872-0.96 5.152-0.352 1.568-3.072 2.624t-6.4 1.024-6.4-1.024-3.040-2.624q-0.608-3.040-0.992-5.152zM4.992 3.061q0 0.768 2.624 1.312t6.24 0.576q3.68 0 6.304-0.544t2.592-1.312q0-0.8-2.592-1.376t-6.304-0.544-6.272 0.544-2.592 1.344zM9.44 14.357q0 1.824 1.312 3.104t3.104 1.312 3.136-1.312 1.28-3.104-1.28-3.136-3.136-1.28-3.104 1.28-1.312 3.136zM11.648 14.357q0 0.896 0.64 1.536t1.568 0.672 1.568-0.672 0.64-1.536-0.64-1.568-1.568-0.64-1.568 0.64-0.64 1.568z"></path>
</svg>
