<!-- Generated by IcoMoon.io -->
<svg version="1.1" xmlns="http://www.w3.org/2000/svg" width="32" height="32" viewBox="0 0 32 32">
<title>blogger1</title>
<path d="M0 20.853v-11.808q0-4.16 2.976-7.136t7.136-2.976h7.072q2.080 0.256 4.448 1.824t3.328 3.68q0.032 0.064 0.16 0.288t0.16 0.32 0.128 0.32 0.128 0.384 0.096 0.512 0.128 0.704 0.128 0.928q0.288 2.24 0.832 2.72 0.448 0.416 2.272 0.448t2.080 0.256l0.448 0.352 0.256 0.544 0.096 0.448-0.064 8.192q-0.032 4.16-2.976 7.136t-7.104 2.944h-11.616q-4.16 0-7.136-2.944t-2.976-7.136zM8.288 20.693q0 0.8 0.576 1.344t1.376 0.576h11.392q0.8 0 1.376-0.576t0.544-1.344-0.544-1.376-1.376-0.544h-11.392q-0.8 0-1.376 0.544t-0.576 1.376zM8.288 9.109q0 0.8 0.576 1.376t1.376 0.576h5.6q0.8 0 1.376-0.576t0.544-1.376-0.544-1.376-1.376-0.544h-5.6q-0.8 0-1.376 0.544t-0.576 1.376z"></path>
</svg>
