<!-- Generated by IcoMoon.io -->
<svg version="1.1" xmlns="http://www.w3.org/2000/svg" width="24" height="32" viewBox="0 0 24 32">
<title>bold</title>
<path d="M19.050 15.243c2.102-1.159 3.354-3.385 3.354-5.981 0-3.015-1.641-5.477-4.289-6.511-1.543-0.626-3.061-0.751-5.010-0.751h-11.604c-0.552 0-1 0.448-1 1v2.066c0 0.552 0.448 1 1 1h2.070v19.908h-2.070c-0.552 0-1 0.448-1 1v2.026c0 0.552 0.448 1 1 1h12.231c1.513 0 2.802-0.081 4.179-0.474 3.185-0.951 5.59-3.861 5.59-7.65 0-3.261-1.661-5.73-4.45-6.633zM8.889 6.301h4.215c1.018 0 1.721 0.126 2.345 0.42 0.989 0.53 1.557 1.656 1.557 3.090 0 2.189-1.27 3.549-3.314 3.549h-4.803v-7.060zM15.929 25.393c-0.634 0.253-1.417 0.307-1.963 0.307h-5.077v-8.078h5.273c2.478 0 3.941 1.586 3.941 3.941 0 1.777-0.854 3.28-2.174 3.83z"></path>
</svg>
