<!-- Generated by IcoMoon.io -->
<svg version="1.1" xmlns="http://www.w3.org/2000/svg" width="32" height="32" viewBox="0 0 32 32">
<title>bold2</title>
<path d="M9.333 15.333v-8h9.333c1.105 0 2.103 0.447 2.828 1.172s1.172 1.723 1.172 2.828-0.447 2.103-1.172 2.828-1.723 1.172-2.828 1.172zM6.667 16.667v10.667c0 0.736 0.597 1.333 1.333 1.333h12c1.84 0 3.509-0.748 4.715-1.952s1.952-2.875 1.952-4.715-0.748-3.509-1.952-4.715c-0.433-0.433-0.927-0.808-1.467-1.109 0.045-0.043 0.089-0.085 0.133-0.129 1.204-1.204 1.952-2.873 1.952-4.713s-0.748-3.509-1.952-4.715-2.875-1.952-4.715-1.952h-10.667c-0.736 0-1.333 0.597-1.333 1.333zM9.333 18h10.667c1.105 0 2.103 0.447 2.828 1.172s1.172 1.723 1.172 2.828-0.447 2.103-1.172 2.828-1.723 1.172-2.828 1.172h-10.667z"></path>
</svg>
