<!-- Generated by IcoMoon.io -->
<svg version="1.1" xmlns="http://www.w3.org/2000/svg" width="32" height="32" viewBox="0 0 32 32">
<title>bookmark3</title>
<path d="M24.559 29.752c0.215 0.155 0.484 0.248 0.775 0.248 0.736 0 1.333-0.597 1.333-1.333v-21.333c0-1.104-0.449-2.107-1.172-2.828s-1.724-1.172-2.828-1.172h-13.333c-1.104 0-2.107 0.449-2.828 1.172s-1.172 1.724-1.172 2.828v21.333c-0.001 0.265 0.080 0.539 0.248 0.775 0.428 0.599 1.261 0.739 1.86 0.309l8.559-6.112zM24 26.076l-7.225-5.161c-0.473-0.339-1.092-0.323-1.549 0l-7.225 5.161v-18.743c0-0.368 0.148-0.7 0.391-0.943s0.575-0.391 0.943-0.391h13.333c0.368 0 0.7 0.148 0.943 0.391s0.391 0.575 0.391 0.943z"></path>
</svg>
