<!-- Generated by IcoMoon.io -->
<svg version="1.1" xmlns="http://www.w3.org/2000/svg" width="36" height="32" viewBox="0 0 36 32">
<title>brain</title>
<path d="M13 0c-1.867 0-3.421 1.284-3.863 3.014-0.047-0.001-0.091-0.014-0.137-0.014-2.209 0-4 1.791-4 4 0 0.303 0.040 0.594 0.104 0.877-1.82 0.748-3.104 2.533-3.104 4.623 0 0.786 0.197 1.52 0.521 2.182-1.5 0.863-2.521 2.464-2.521 4.318 0 2.084 1.276 3.867 3.089 4.618-0.056 0.286-0.089 0.58-0.089 0.882 0 2.485 2.014 4.5 4.5 4.5 0.258 0 0.506-0.034 0.752-0.076 0.599 1.782 2.264 3.076 4.248 3.076 2.486 0 4.5-2.015 4.5-4.5v-14.659c-0.682 0.561-1.499 0.966-2.398 1.149-0.311 0.064-0.602-0.176-0.602-0.493v-1.011c0-0.223 0.147-0.424 0.363-0.479 1.512-0.385 2.637-1.747 2.637-3.377v-4.629c0-2.209-1.791-4-4-4zM36 19c0-1.854-1.021-3.455-2.521-4.318 0.323-0.662 0.521-1.396 0.521-2.182 0-2.089-1.284-3.875-3.104-4.622 0.064-0.283 0.104-0.575 0.104-0.878 0-2.209-1.791-4-4-4-0.047 0-0.091 0.013-0.137 0.014-0.441-1.729-1.996-3.014-3.863-3.014-2.209 0-4 1.791-4 4v4.629c0 1.631 1.124 2.992 2.637 3.377 0.216 0.055 0.363 0.256 0.363 0.479v1.011c0 0.317-0.293 0.557-0.602 0.493-0.899-0.184-1.715-0.588-2.398-1.149v14.659c0 2.485 2.014 4.5 4.5 4.5 1.984 0 3.649-1.293 4.248-3.076 0.246 0.042 0.494 0.076 0.752 0.076 2.486 0 4.5-2.015 4.5-4.5 0-0.302-0.032-0.596-0.089-0.882 1.813-0.751 3.089-2.534 3.089-4.618z"></path>
</svg>
