<!-- Generated by IcoMoon.io -->
<svg version="1.1" xmlns="http://www.w3.org/2000/svg" width="32" height="32" viewBox="0 0 32 32">
<title>briefcase2</title>
<path d="M12 8.667v-1.333c0-0.368 0.148-0.7 0.391-0.943s0.575-0.391 0.943-0.391h5.333c0.368 0 0.7 0.148 0.943 0.391s0.391 0.575 0.391 0.943v1.333zM12 27.333v-16h8v16zM9.333 11.333v16h-4c-0.368 0-0.7-0.148-0.943-0.391s-0.391-0.575-0.391-0.943v-13.333c0-0.368 0.148-0.7 0.391-0.943s0.575-0.391 0.943-0.391zM22.667 8.667v-1.333c0-1.104-0.449-2.107-1.172-2.828s-1.724-1.172-2.828-1.172h-5.333c-1.104 0-2.107 0.449-2.828 1.172s-1.172 1.724-1.172 2.828v1.333h-4c-1.104 0-2.107 0.449-2.828 1.172s-1.172 1.724-1.172 2.828v13.333c0 1.104 0.449 2.107 1.172 2.828s1.724 1.172 2.828 1.172h21.333c1.104 0 2.107-0.449 2.828-1.172s1.172-1.724 1.172-2.828v-13.333c0-1.104-0.449-2.107-1.172-2.828s-1.724-1.172-2.828-1.172zM22.667 27.333v-16h4c0.368 0 0.7 0.148 0.943 0.391s0.391 0.575 0.391 0.943v13.333c0 0.368-0.148 0.7-0.391 0.943s-0.575 0.391-0.943 0.391z"></path>
</svg>
