<!-- Generated by IcoMoon.io -->
<svg version="1.1" xmlns="http://www.w3.org/2000/svg" width="32" height="32" viewBox="0 0 32 32">
<title>broom</title>
<path d="M0.675 15.45c-0.719 0.287-0.906 1.219-0.362 1.762l3.425 3.425 4.575-1.525-1.525 4.575 8 8c0.55 0.55 1.475 0.356 1.763-0.363l6.131-15.231-6.775-6.775-15.231 6.131zM31.706 1.706l-1.413-1.413c-0.387-0.394-1.025-0.394-1.413 0l-6.394 6.388-2.525-2.525c-0.262-0.269-0.712-0.188-0.869 0.156l-1.7 3.662 6.631 6.631 3.663-1.7c0.337-0.156 0.419-0.606 0.156-0.869l-2.525-2.525 6.387-6.394c0.394-0.388 0.394-1.019 0-1.413z"></path>
</svg>
