<!-- Generated by IcoMoon.io -->
<svg version="1.1" xmlns="http://www.w3.org/2000/svg" width="28" height="32" viewBox="0 0 28 32">
<title>building1</title>
<path d="M8 9.25v-2.5c0-0.412 0.338-0.75 0.75-0.75h2.5c0.412 0 0.75 0.338 0.75 0.75v2.5c0 0.412-0.338 0.75-0.75 0.75h-2.5c-0.412 0-0.75-0.338-0.75-0.75zM16.75 10h2.5c0.413 0 0.75-0.338 0.75-0.75v-2.5c0-0.412-0.337-0.75-0.75-0.75h-2.5c-0.413 0-0.75 0.338-0.75 0.75v2.5c0 0.412 0.337 0.75 0.75 0.75zM8.75 16h2.5c0.412 0 0.75-0.338 0.75-0.75v-2.5c0-0.412-0.338-0.75-0.75-0.75h-2.5c-0.412 0-0.75 0.338-0.75 0.75v2.5c0 0.412 0.338 0.75 0.75 0.75zM16.75 16h2.5c0.413 0 0.75-0.338 0.75-0.75v-2.5c0-0.412-0.337-0.75-0.75-0.75h-2.5c-0.413 0-0.75 0.338-0.75 0.75v2.5c0 0.412 0.337 0.75 0.75 0.75zM12 21.25v-2.5c0-0.413-0.338-0.75-0.75-0.75h-2.5c-0.412 0-0.75 0.337-0.75 0.75v2.5c0 0.413 0.338 0.75 0.75 0.75h2.5c0.412 0 0.75-0.337 0.75-0.75zM16.75 22h2.5c0.413 0 0.75-0.337 0.75-0.75v-2.5c0-0.413-0.337-0.75-0.75-0.75h-2.5c-0.413 0-0.75 0.337-0.75 0.75v2.5c0 0.413 0.337 0.75 0.75 0.75zM28 29.75v2.25h-28v-2.25c0-0.413 0.338-0.75 0.75-0.75h1.219v-27.5c0-0.831 0.669-1.5 1.5-1.5h21.063c0.831 0 1.5 0.669 1.5 1.5v27.5h1.219c0.413 0 0.75 0.337 0.75 0.75zM4.969 28.938h7.031v-4.188c0-0.413 0.338-0.75 0.75-0.75h2.5c0.412 0 0.75 0.337 0.75 0.75v4.188h7.031v-25.875l-18.031-0.063-0.031 25.938z"></path>
</svg>
