<!-- Generated by IcoMoon.io -->
<svg version="1.1" xmlns="http://www.w3.org/2000/svg" width="28" height="32" viewBox="0 0 28 32">
<title>calendar1</title>
<path d="M25 4h-3v-3.25c0-0.412-0.337-0.75-0.75-0.75h-2.5c-0.413 0-0.75 0.338-0.75 0.75v3.25h-8v-3.25c0-0.412-0.338-0.75-0.75-0.75h-2.5c-0.412 0-0.75 0.338-0.75 0.75v3.25h-3c-1.656 0-3 1.344-3 3v22c0 1.656 1.344 3 3 3h22c1.656 0 3-1.344 3-3v-22c0-1.656-1.344-3-3-3zM24.625 29h-21.25c-0.206 0-0.375-0.169-0.375-0.375v-18.625h22v18.625c0 0.206-0.169 0.375-0.375 0.375z"></path>
</svg>
