<!-- Generated by IcoMoon.io -->
<svg version="1.1" xmlns="http://www.w3.org/2000/svg" width="28" height="32" viewBox="0 0 28 32">
<title>calendar-times1</title>
<path d="M19.481 23.419l-1.063 1.063c-0.294 0.294-0.769 0.294-1.063 0l-3.356-3.363-3.356 3.356c-0.294 0.294-0.769 0.294-1.063 0l-1.063-1.063c-0.294-0.294-0.294-0.769 0-1.063l3.356-3.356-3.356-3.356c-0.294-0.294-0.294-0.769 0-1.063l1.063-1.063c0.294-0.294 0.769-0.294 1.063 0l3.356 3.356 3.356-3.356c0.294-0.294 0.769-0.294 1.063 0l1.063 1.063c0.294 0.294 0.294 0.769 0 1.063l-3.363 3.363 3.356 3.356c0.3 0.294 0.3 0.769 0.006 1.063zM28 7v22c0 1.656-1.344 3-3 3h-22c-1.656 0-3-1.344-3-3v-22c0-1.656 1.344-3 3-3h3v-3.25c0-0.412 0.338-0.75 0.75-0.75h2.5c0.412 0 0.75 0.338 0.75 0.75v3.25h8v-3.25c0-0.412 0.337-0.75 0.75-0.75h2.5c0.413 0 0.75 0.338 0.75 0.75v3.25h3c1.656 0 3 1.344 3 3zM25 28.625v-18.625h-22v18.625c0 0.206 0.169 0.375 0.375 0.375h21.25c0.206 0 0.375-0.169 0.375-0.375z"></path>
</svg>
