<!-- Generated by IcoMoon.io -->
<svg version="1.1" xmlns="http://www.w3.org/2000/svg" width="28" height="32" viewBox="0 0 28 32">
<title>calendar-check1</title>
<path d="M25 4h-3v-3.25c0-0.414-0.336-0.75-0.75-0.75h-2.5c-0.414 0-0.75 0.336-0.75 0.75v3.25h-8v-3.25c0-0.414-0.336-0.75-0.75-0.75h-2.5c-0.414 0-0.75 0.336-0.75 0.75v3.25h-3c-1.657 0-3 1.343-3 3v22c0 1.657 1.343 3 3 3h22c1.657 0 3-1.343 3-3v-22c0-1.657-1.343-3-3-3zM24.625 29h-21.25c-0.207 0-0.375-0.168-0.375-0.375v0-18.625h22v18.625c0 0.207-0.168 0.375-0.375 0.375v0zM21.322 16.459l-8.894 8.823c-0.294 0.292-0.769 0.29-1.061-0.004l-4.693-4.731c-0.292-0.294-0.29-0.769 0.004-1.061l1.42-1.409c0.294-0.292 0.769-0.29 1.061 0.004l2.757 2.779 6.942-6.886c0.294-0.292 0.769-0.29 1.061 0.004l1.409 1.42c0.292 0.294 0.29 0.769-0.004 1.061z"></path>
</svg>
