<!-- Generated by IcoMoon.io -->
<svg version="1.1" xmlns="http://www.w3.org/2000/svg" width="25" height="32" viewBox="0 0 25 32">
<title>calendar-1</title>
<path d="M0 29.397v-24.8h2.944q0-0.928 0.032-1.248t0.128-1.024 0.352-0.96 0.8-0.512 1.28-0.256 1.312 0.256 0.768 0.512 0.352 0.96 0.128 1.024v1.248h1.76v-1.248t0.128-1.024 0.384-0.96 0.768-0.512 1.28-0.256q0.576 0 0.992 0.128t0.704 0.256 0.448 0.544 0.288 0.608 0.128 0.768 0.032 0.8v0.896h1.728v-0.896t0.064-0.8 0.128-0.768 0.256-0.608 0.48-0.544 0.672-0.256 0.992-0.128q0.768 0 1.312 0.256t0.768 0.512 0.352 0.96 0.128 1.024v1.248h2.944v24.8h-24.832zM2.080 23.733v3.584h4.448v-3.584h-4.448zM2.080 23.029h4.448v-3.808h-4.448v3.808zM2.080 18.517h4.448v-4.16h-4.448v4.16zM2.080 13.685h4.448v-3.584h-4.448v3.584zM4.352 7.189q0 1.056 1.184 1.056t1.184-1.056v-4.16q0-1.056-1.184-1.056t-1.184 1.056v4.16zM7.2 23.733v3.584h4.864v-3.584h-4.864zM7.2 23.029h4.864v-3.808h-4.864v3.808zM7.2 18.517h4.864v-4.16h-4.864v4.16zM7.2 13.685h4.864v-3.584h-4.864v3.584zM11.232 7.189q0 1.056 1.184 1.056 1.216 0 1.216-1.056v-4.16q0-1.056-1.216-1.056-1.184 0-1.184 1.056v4.16zM12.736 23.733v3.584h4.864v-3.584h-4.864zM12.736 23.029h4.864v-3.808h-4.864v3.808zM12.736 18.517h4.864v-4.16h-4.864v4.16zM12.736 13.685h4.864v-3.584h-4.864v3.584zM18.112 7.189q0 1.056 1.216 1.056 1.184 0 1.184-1.056v-4.16q0-1.056-1.184-1.056-1.216 0-1.216 1.056v4.16zM18.272 23.733v3.584h4.48v-3.584h-4.48zM18.272 23.029h4.48v-3.808h-4.48v3.808zM18.272 18.517h4.48v-4.16h-4.48v4.16zM18.272 13.685h4.48v-3.584h-4.48v3.584z"></path>
</svg>
