<!-- Generated by IcoMoon.io -->
<svg version="1.1" xmlns="http://www.w3.org/2000/svg" width="26" height="32" viewBox="0 0 26 32">
<title>call</title>
<path d="M0.064 7.157q0.064-0.544 0.48-1.024l3.84-3.84q0.448-0.384 0.672 0.128l3.104 5.824q0.256 0.512-0.16 0.992l-1.408 1.408q-0.384 0.384-0.448 0.992 0 0.96 0.992 2.464t1.952 2.56l0.992 1.024q0.448 0.448 1.152 1.088t2.304 1.728 2.56 1.088q0.608 0 1.024-0.416l1.664-1.664q0.448-0.448 0.96-0.128l5.6 3.296q0.224 0.128 0.256 0.32t-0.128 0.384l-3.84 3.84q-0.48 0.416-1.024 0.48-1.568 0.224-3.552-0.448t-3.648-1.728-3.104-2.208-2.304-1.92l-0.832-0.8q-0.32-0.32-0.864-0.896t-1.824-2.208-2.272-3.2-1.664-3.584-0.48-3.552z"></path>
</svg>
