<!-- Generated by IcoMoon.io -->
<svg version="1.1" xmlns="http://www.w3.org/2000/svg" width="28" height="32" viewBox="0 0 28 32">
<title>caret-square-down1</title>
<path d="M7.819 13h12.362c0.669 0 1.006 0.813 0.531 1.281l-6.181 6.144c-0.294 0.294-0.762 0.294-1.056 0l-6.181-6.144c-0.481-0.469-0.144-1.281 0.525-1.281zM28 5v22c0 1.656-1.344 3-3 3h-22c-1.656 0-3-1.344-3-3v-22c0-1.656 1.344-3 3-3h22c1.656 0 3 1.344 3 3zM25 26.625v-21.25c0-0.206-0.169-0.375-0.375-0.375h-21.25c-0.206 0-0.375 0.169-0.375 0.375v21.25c0 0.206 0.169 0.375 0.375 0.375h21.25c0.206 0 0.375-0.169 0.375-0.375z"></path>
</svg>
