<!-- Generated by IcoMoon.io -->
<svg version="1.1" xmlns="http://www.w3.org/2000/svg" width="36" height="32" viewBox="0 0 36 32">
<title>cart</title>
<path d="M0 3.605q0-0.64 0.416-1.056t1.056-0.416h7.52q0.512 0 0.928 0.288t0.512 0.832l0.768 3.136h21.568l0.224-0.672q0.32-1.024 1.376-1.024 0.288 0 0.416 0.064 0.48 0.128 0.768 0.512t0.288 0.864q0 0.16-0.064 0.416l-3.776 12.576q-0.128 0.48-0.512 0.768t-0.864 0.288h-17.888q-0.512 0-0.896-0.32t-0.544-0.8l-3.456-14.016h-6.368q-0.608 0-1.024-0.416t-0.448-1.024zM11.904 9.301l1.984 7.936h15.648l0.064-0.288 2.304-7.648h-20zM13.248 24.789q0-1.216 0.896-2.080t2.080-0.864 2.080 0.864 0.864 2.080-0.864 2.080-2.080 0.864-2.080-0.864-0.896-2.080zM15.328 11.797h5.312v2.944h-4.672zM23.168 14.741l0.032-2.944h5.184l-0.768 2.944h-4.448zM24.352 24.789q0-1.216 0.896-2.080t2.080-0.864 2.080 0.864 0.864 2.080-0.864 2.080-2.080 0.864-2.080-0.864-0.896-2.080z"></path>
</svg>
