<!-- Generated by IcoMoon.io -->
<svg version="1.1" xmlns="http://www.w3.org/2000/svg" width="36" height="32" viewBox="0 0 36 32">
<title>cc-stripe</title>
<path d="M24.806 16.031c0 1.194-0.55 2.087-1.369 2.087-0.519 0-0.831-0.188-1.050-0.419l-0.012-3.3c0.231-0.256 0.55-0.438 1.063-0.438 0.806-0.006 1.369 0.906 1.369 2.069zM36 5v22c0 1.656-1.344 3-3 3h-30c-1.656 0-3-1.344-3-3v-22c0-1.656 1.344-3 3-3h30c1.656 0 3 1.344 3 3zM7.638 17.569c0-2.644-3.394-2.169-3.394-3.169 0-0.344 0.287-0.481 0.756-0.481 0.675 0 1.531 0.206 2.206 0.569v-2.088c-0.737-0.294-1.469-0.406-2.206-0.406-1.8 0-3 0.938-3 2.512 0 2.456 3.375 2.056 3.375 3.119 0 0.413-0.356 0.544-0.85 0.544-0.737 0-1.681-0.306-2.431-0.706v2.119c0.825 0.356 1.663 0.506 2.425 0.506 1.85-0.012 3.119-0.919 3.119-2.519zM11.944 12.137h-1.688v-1.925l-2.169 0.463-0.012 7.119c0 1.313 0.988 2.281 2.306 2.281 0.725 0 1.262-0.131 1.556-0.294v-1.806c-0.281 0.113-1.688 0.519-1.688-0.788v-3.156h1.688v-1.894zM16.556 12.137c-0.294-0.106-1.331-0.3-1.85 0.656l-0.137-0.656h-1.919v7.781h2.219v-5.275c0.525-0.688 1.412-0.556 1.694-0.463v-2.044zM19.319 12.137h-2.231v7.781h2.231v-7.781zM19.319 9.181l-2.231 0.475v1.806l2.231-0.475v-1.806zM26.988 15.981c0-2.581-1.469-3.988-3.025-3.988-0.869 0-1.431 0.412-1.738 0.694l-0.113-0.55h-1.956v10.363l2.219-0.469 0.006-2.512c0.319 0.231 0.794 0.563 1.569 0.563 1.587-0.006 3.038-1.281 3.038-4.1zM34 16.056c0-2.275-1.1-4.069-3.206-4.069-2.113 0-3.394 1.794-3.394 4.056 0 2.675 1.512 4.031 3.675 4.031 1.063 0 1.856-0.244 2.463-0.575v-1.788c-0.606 0.306-1.3 0.494-2.181 0.494-0.863 0-1.625-0.306-1.725-1.344h4.344c0.006-0.125 0.025-0.587 0.025-0.806zM30.775 13.8c-0.556 0-1.169 0.419-1.169 1.419h2.294c0-1-0.581-1.419-1.125-1.419z"></path>
</svg>
