<!-- Generated by IcoMoon.io -->
<svg version="1.1" xmlns="http://www.w3.org/2000/svg" width="32" height="32" viewBox="0 0 32 32">
<title>chart-bar1</title>
<path d="M24.8 22h1.4c0.4 0 0.8-0.4 0.8-0.8v-14.4c0-0.4-0.4-0.8-0.8-0.8h-1.4c-0.4 0-0.8 0.4-0.8 0.8v14.4c0 0.4 0.4 0.8 0.8 0.8zM12.8 22h1.4c0.4 0 0.8-0.4 0.8-0.8v-12.4c0-0.4-0.4-0.8-0.8-0.8h-1.4c-0.4 0-0.8 0.4-0.8 0.8v12.4c0 0.4 0.4 0.8 0.8 0.8zM18.8 22h1.4c0.4 0 0.8-0.4 0.8-0.8v-8.4c0-0.4-0.4-0.8-0.8-0.8h-1.4c-0.4 0-0.8 0.4-0.8 0.8v8.4c0 0.4 0.4 0.8 0.8 0.8zM31 25h-28v-20c0-0.553-0.447-1-1-1h-1c-0.552 0-1 0.447-1 1v21c0 1.104 0.896 2 2 2h29c0.552 0 1-0.448 1-1v-1c0-0.552-0.448-1-1-1zM6.8 22h1.4c0.4 0 0.8-0.4 0.8-0.8v-4.4c0-0.4-0.4-0.8-0.8-0.8h-1.4c-0.4 0-0.8 0.4-0.8 0.8v4.4c0 0.4 0.4 0.8 0.8 0.8z"></path>
</svg>
