<!-- Generated by IcoMoon.io -->
<svg version="1.1" xmlns="http://www.w3.org/2000/svg" width="32" height="32" viewBox="0 0 32 32">
<title>check-double</title>
<path d="M31.531 10.747l-2.262-2.276c-0.625-0.628-1.638-0.628-2.262 0l-15.006 15.092-7.006-7.046c-0.625-0.629-1.638-0.629-2.263 0l-2.263 2.276c-0.625 0.628-0.625 1.648 0 2.276l10.4 10.46c0.625 0.629 1.638 0.629 2.262 0l18.4-18.506c0.625-0.629 0.625-1.648 0-2.276zM10.411 17.669c0.428 0.439 1.136 0.439 1.576 0.011l13.254-13.142c0.439-0.428 0.439-1.136 0.011-1.576l-2.622-2.632c-0.427-0.439-1.136-0.439-1.576-0.011l-9.822 9.755-4.264-4.298c-0.428-0.439-1.136-0.439-1.575-0.011l-2.633 2.611c-0.439 0.428-0.439 1.136-0.011 1.575l7.662 7.719z"></path>
</svg>
