<!-- Generated by IcoMoon.io -->
<svg version="1.1" xmlns="http://www.w3.org/2000/svg" width="28" height="32" viewBox="0 0 28 32">
<title>check-square1</title>
<path d="M25 2h-22c-1.657 0-3 1.343-3 3v22c0 1.657 1.343 3 3 3h22c1.657 0 3-1.343 3-3v-22c0-1.657-1.343-3-3-3zM25 27h-22v-22h22v22zM22.759 11.892l-10.787 10.7c-0.294 0.292-0.769 0.29-1.061-0.004l-5.674-5.72c-0.292-0.294-0.29-0.769 0.004-1.061l1.42-1.409c0.294-0.292 0.769-0.29 1.061 0.004l3.737 3.767 8.835-8.764c0.294-0.292 0.769-0.29 1.061 0.004l1.409 1.42c0.292 0.294 0.29 0.769-0.004 1.061z"></path>
</svg>
