<!-- Generated by IcoMoon.io -->
<svg version="1.1" xmlns="http://www.w3.org/2000/svg" width="24" height="32" viewBox="0 0 24 32">
<title>chess-knight</title>
<path d="M22 14v14h-20v-2.91c0-1.894 1.070-3.625 2.764-4.472l3.578-1.789c0.991-0.503 1.658-1.515 1.658-2.683 0 0 0 0 0-0v0-3.146l-1.383 0.691c-0.388 0.197-0.674 0.546-0.782 0.967l-0.002 0.010-0.74 2.959c-0.060 0.236-0.227 0.424-0.444 0.513l-0.005 0.002-1.85 0.74c-0.082 0.034-0.178 0.054-0.279 0.054-0.11 0-0.215-0.024-0.309-0.067l0.005 0.002-3.765-1.673c-0.265-0.12-0.445-0.381-0.445-0.685 0 0 0-0 0-0v0-9.891c0-0.398 0.158-0.779 0.439-1.061l0.561-0.561-0.888-1.776c-0.070-0.138-0.112-0.301-0.112-0.474 0-0 0-0 0-0v0c0-0.414 0.336-0.75 0.75-0.75h9.25c6.627 0 12 5.373 12 12zM23.25 29h-22.5c-0.414 0-0.75 0.336-0.75 0.75v1.5c0 0.414 0.336 0.75 0.75 0.75h22.5c0.414 0 0.75-0.336 0.75-0.75v-1.5c0-0.414-0.336-0.75-0.75-0.75zM3.25 8c-0.69 0-1.25 0.56-1.25 1.25s0.56 1.25 1.25 1.25 1.25-0.56 1.25-1.25-0.56-1.25-1.25-1.25z"></path>
</svg>
