<!-- Generated by IcoMoon.io -->
<svg version="1.1" xmlns="http://www.w3.org/2000/svg" width="28" height="32" viewBox="0 0 28 32">
<title>chess-king</title>
<path d="M26 29.75v1.5c0 0.414-0.336 0.75-0.75 0.75h-22.5c-0.414 0-0.75-0.336-0.75-0.75v-1.5c0-0.414 0.336-0.75 0.75-0.75h22.5c0.414 0 0.75 0.336 0.75 0.75zM25.498 9.5h-9.998v-3h3.125c0.207 0 0.375-0.168 0.375-0.375v0-2.25c0-0.207-0.168-0.375-0.375-0.375v0h-3.125v-3.125c0-0.207-0.168-0.375-0.375-0.375v0h-2.25c-0.207 0-0.375 0.168-0.375 0.375v0 3.125h-3.125c-0.207 0-0.375 0.168-0.375 0.375v0 2.25c0 0.207 0.168 0.375 0.375 0.375v0h3.125v3h-9.998c-1.723 0-2.93 1.703-2.359 3.329l5.33 15.171h17.052l5.33-15.171c0.571-1.626-0.635-3.329-2.359-3.329z"></path>
</svg>
