<!-- Generated by IcoMoon.io -->
<svg version="1.1" xmlns="http://www.w3.org/2000/svg" width="32" height="32" viewBox="0 0 32 32">
<title>chess-board</title>
<path d="M16 16v4h-4v-4h4zM16 0h-4v4h4v-4zM16 16h4v-4h-4v4zM24 0h-4v4h4v-4zM24 32h4v-4h-4v4zM32 28v-4h-4v4h4zM8 32h4v-4h-4v4zM8 0h-4v4h4v-4zM32 12v-4h-4v4h4zM32 20v-4h-4v4h4zM0 32h4v-4h-4v4zM0 4v4h4v-4h-4zM0 12v4h4v-4h-4zM0 20v4h4v-4h-4zM16 32h4v-4h-4v4zM12 24v4h4v-4h-4zM16 12v-4h-4v4h4zM4 24v4h4v-4h-4zM8 16h-4v4h4v-4zM24 24h4v-4h-4v4zM32 0h-4v4h4v-4zM24 16h4v-4h-4v4zM24 4v4h4v-4h-4zM20 24v4h4v-4h-4zM8 20v4h4v-4h-4zM16 20v4h4v-4h-4zM12 12h-4v4h4v-4zM8 8h-4v4h4v-4zM20 20h4v-4h-4v4zM12 8v-4h-4v4h4zM20 8v-4h-4v4h4zM20 12h4v-4h-4v4z"></path>
</svg>
