<!-- Generated by IcoMoon.io -->
<svg version="1.1" xmlns="http://www.w3.org/2000/svg" width="24" height="32" viewBox="0 0 24 32">
<title>chess-rook</title>
<path d="M5.078 13.439c-0.018 2.743-0.239 8.316-2.078 14.561h17.999c-1.837-6.225-2.058-11.807-2.076-14.561l2.839-2.644c0.147-0.137 0.239-0.332 0.239-0.549 0-0 0-0 0-0v0-7.496c0-0.414-0.336-0.75-0.75-0.75h-2.5c-0.414 0-0.75 0.336-0.75 0.75v2.75h-3v-2.75c0-0.414-0.336-0.75-0.75-0.75h-4.5c-0.414 0-0.75 0.336-0.75 0.75v2.75h-3v-2.75c0-0.414-0.336-0.75-0.75-0.75h-2.5c-0.414 0-0.75 0.336-0.75 0.75v7.496c0 0.208 0.087 0.407 0.239 0.549l2.839 2.645zM10 16c0-1.105 0.895-2 2-2s2 0.895 2 2v4h-4v-4zM24 29.75v1.5c0 0.414-0.336 0.75-0.75 0.75h-22.5c-0.414 0-0.75-0.336-0.75-0.75v-1.5c0-0.414 0.336-0.75 0.75-0.75h22.5c0.414 0 0.75 0.336 0.75 0.75z"></path>
</svg>
