<!-- Generated by IcoMoon.io -->
<svg version="1.1" xmlns="http://www.w3.org/2000/svg" width="32" height="32" viewBox="0 0 32 32">
<title>chess-queen</title>
<path d="M27.25 32h-22.5c-0.414 0-0.75-0.336-0.75-0.75v-1.5c0-0.414 0.336-0.75 0.75-0.75h22.5c0.414 0 0.75 0.336 0.75 0.75v1.5c0 0.414-0.336 0.75-0.75 0.75zM15.974 0c-1.933 0-3.5 1.567-3.5 3.5s1.567 3.5 3.5 3.5 3.5-1.567 3.5-3.5-1.567-3.5-3.5-3.5zM28.759 9.665c-0.36-0.19-0.807-0.058-1.005 0.298-0.538 0.97-1.422 2.363-2.754 2.363-1.795 0-1.914-1.238-1.98-3.596-0.011-0.406-0.344-0.729-0.75-0.729h-2.563c-0.323 0-0.61 0.208-0.712 0.515-0.556 1.669-1.63 2.562-2.995 2.562s-2.44-0.893-2.995-2.562c-0.102-0.307-0.388-0.515-0.712-0.515h-2.563c-0.406 0-0.738 0.323-0.75 0.729-0.066 2.353-0.183 3.596-1.981 3.596-1.293 0-2.114-1.264-2.777-2.377-0.204-0.342-0.641-0.464-0.994-0.278l-2.449 1.292c-0.24 0.128-0.4 0.377-0.4 0.663 0 0.102 0.020 0.2 0.057 0.288l-0.002-0.005 6.563 16.091h18l6.563-16.090c0.035-0.084 0.056-0.181 0.056-0.283 0-0.286-0.16-0.535-0.396-0.661l-0.004-0.002-2.46-1.298z"></path>
</svg>
