<!-- Generated by IcoMoon.io -->
<svg version="1.1" xmlns="http://www.w3.org/2000/svg" width="32" height="32" viewBox="0 0 32 32">
<title>chess</title>
<path d="M12.489 13.602c0.207 0 0.375 0.168 0.375 0.375v0l-0 1.298c0 0.207-0.168 0.375-0.375 0.375v0h-1.613c0 1.982-0.135 6.013 1.087 9.577h-7.926c1.246-3.636 1.089-7.774 1.089-9.577h-1.615c-0.207 0-0.375-0.168-0.375-0.375v0l0-1.298c0-0.207 0.168-0.375 0.375-0.375v0h8.977zM2.597 7.193l2.161 5.942h6.483l2.161-5.942c0.178-0.489-0.184-1.006-0.705-1.006h-3.198v-1.889h1.348c0.207 0 0.375-0.168 0.375-0.375v0-1.399c0-0.207-0.168-0.375-0.375-0.375v0h-1.773v-1.774c0-0.207-0.168-0.375-0.375-0.375v0h-1.399c-0.207 0-0.375 0.168-0.375 0.375v0 1.774h-1.775c-0.207 0-0.375 0.168-0.375 0.375v0 1.399c0 0.207 0.168 0.375 0.375 0.375v0h1.349v1.889h-3.198c-0.521 0-0.883 0.517-0.705 1.006zM13.917 27.823v-1.754c0-0.207-0.168-0.375-0.375-0.375v0h-11.085c-0.207 0-0.375 0.168-0.375 0.375v0 1.754l-1.384 0.885c-0.105 0.068-0.173 0.184-0.173 0.316 0 0 0 0 0 0v0 2.601c0 0.207 0.168 0.375 0.375 0.375v0h14.199c0.207 0 0.375-0.168 0.375-0.375v0-2.601c0 0 0-0 0-0 0-0.132-0.068-0.248-0.171-0.315l-0.001-0.001-1.384-0.885zM19.578 18.809l1.555 1.060c0.006 1.133-0.010 3.994-0.744 7.158h9.22c-0.732-3.155-0.748-6.020-0.743-7.159l1.554-1.059c0.064-0.044 0.105-0.117 0.105-0.199 0-0 0-0 0-0v0-4.369c0-0.133-0.108-0.241-0.241-0.241v0h-1.728c-0.133 0-0.241 0.108-0.241 0.241v0 1.97h-1.421v-1.97c0-0.133-0.108-0.241-0.241-0.241-0 0-0 0-0 0h-3.307c-0.133 0-0.241 0.108-0.241 0.241v0 1.97h-1.421v-1.97c0-0.133-0.108-0.241-0.241-0.241v0h-1.728c-0.133 0-0.241 0.108-0.241 0.241v0 4.369c0 0 0 0 0 0 0 0.082 0.041 0.155 0.104 0.199l0.001 0.001zM24.053 22.053c0-0.523 0.424-0.947 0.947-0.947s0.947 0.424 0.947 0.947v1.895h-1.895v-1.895zM31.539 29.379l-0.854-0.665v-0.972c0-0.133-0.108-0.241-0.241-0.241v0h-10.887c-0.133 0-0.241 0.108-0.241 0.241v0 0.972l-0.855 0.665c-0.057 0.045-0.093 0.113-0.093 0.19 0 0 0 0 0 0v0 2.19c0 0.133 0.108 0.241 0.241 0.241v0h12.781c0.133 0 0.241-0.108 0.241-0.241v-2.19c-0-0.077-0.036-0.146-0.092-0.19l-0.001-0z"></path>
</svg>
