<!-- Generated by IcoMoon.io -->
<svg version="1.1" xmlns="http://www.w3.org/2000/svg" width="20" height="32" viewBox="0 0 20 32">
<title>chess-pawn</title>
<path d="M16.5 28h-13s3.75-2.671 3.75-11h-2c-0.414 0-0.75-0.336-0.75-0.75v-1.5c0-0.414 0.336-0.75 0.75-0.75h2.513c-1.78-0.84-3.013-2.651-3.013-4.75 0-2.899 2.351-5.25 5.25-5.25s5.25 2.351 5.25 5.25c0 2.099-1.233 3.91-3.013 4.75h2.513c0.414 0 0.75 0.336 0.75 0.75v1.5c0 0.414-0.336 0.75-0.75 0.75h-2c0 8.329 3.75 11 3.75 11zM18.25 29h-16.5c-0.414 0-0.75 0.336-0.75 0.75v1.5c0 0.414 0.336 0.75 0.75 0.75h16.5c0.414 0 0.75-0.336 0.75-0.75v-1.5c0-0.414-0.336-0.75-0.75-0.75z"></path>
</svg>
