<!-- Generated by IcoMoon.io -->
<svg version="1.1" xmlns="http://www.w3.org/2000/svg" width="20" height="32" viewBox="0 0 20 32">
<title>chess-bishop</title>
<path d="M7.697 4.868c-0.987-0.334-1.697-1.268-1.697-2.368 0-1.381 1.119-2.5 2.5-2.5h2.987c1.381 0 2.5 1.119 2.5 2.5 0 1.096-0.706 2.027-1.688 2.364 1.5 1.041 3.036 2.927 4.294 5.128l-7.535 7.535c-0.068 0.068-0.11 0.162-0.11 0.265s0.042 0.197 0.11 0.265l0.884 0.884c0.068 0.068 0.162 0.11 0.265 0.11s0.197-0.042 0.265-0.11l7.084-7.084c1.11 2.394 1.836 4.965 1.836 7.142 0 3.362-1.431 4.737-3.653 5.377v3.623h-11.478v-3.623c-2.221-0.64-3.652-2.016-3.652-5.377 0-4.877 3.643-11.735 7.089-14.132zM20 31.25v-1.5c0-0.414-0.336-0.75-0.75-0.75h-18.5c-0.414 0-0.75 0.336-0.75 0.75v1.5c0 0.414 0.336 0.75 0.75 0.75h18.5c0.414 0 0.75-0.336 0.75-0.75z"></path>
</svg>
