<!-- Generated by IcoMoon.io -->
<svg version="1.1" xmlns="http://www.w3.org/2000/svg" width="32" height="32" viewBox="0 0 32 32">
<title>chrome1</title>
<path d="M0 15.669q0-2.4 0.736-4.992t1.984-4.608q1.984-3.328 5.856-5.248t7.936-1.888q4.16 0 8 2.592t5.824 6.464q1.6 2.752 1.6 6.848 0 4.8-2.272 8.512t-6.144 5.664-8.64 1.92q0.64-1.152 1.952-3.488t2.368-4.192 2.048-3.456l0.032-0.064q0.096-0.16 0.384-0.608t0.416-0.608 0.288-0.544 0.32-0.672 0.16-0.672q0.192-0.768 0.192-1.536 0-2.56-1.536-4.544l8.8-2.592q-9.12 0-13.696 0.032-0.224-0.032-0.704-0.032-3.168 0-5.28 2.368t-1.792 5.536q-0.064-0.288-0.064-0.896 0-1.408 0.48-2.464l-6.528-6.432 6.336 10.912q0.608 2.304 2.56 3.744t4.288 1.472q0.544 0 1.056-0.096l-2.112 8.832q-3.68 0-7.136-2.272t-5.6-5.632q-2.112-3.264-2.112-7.36zM9.984 15.061q0 2.464 1.76 4.192t4.16 1.76 4.192-1.76 1.728-4.192q0-2.432-1.728-4.192t-4.192-1.728-4.192 1.728-1.728 4.192z"></path>
</svg>
