<!-- Generated by IcoMoon.io -->
<svg version="1.1" xmlns="http://www.w3.org/2000/svg" width="32" height="32" viewBox="0 0 32 32">
<title>circle-cross1</title>
<path d="M16 2c-8.1 0-14.667 6.566-14.667 14.667s6.567 14.667 14.667 14.667 14.667-6.566 14.667-14.667-6.567-14.667-14.667-14.667zM16 28.667c-6.627 0-12-5.373-12-12s5.373-12 12-12 12 5.373 12 12-5.373 12-12 12zM20.714 11.953c-0.521-0.521-1.366-0.521-1.886 0l-2.828 2.828-2.828-2.828c-0.521-0.521-1.365-0.521-1.886 0s-0.521 1.365 0 1.885l2.828 2.828-2.828 2.828c-0.521 0.521-0.521 1.365 0 1.885s1.365 0.521 1.886 0l2.828-2.828 2.828 2.828c0.521 0.521 1.365 0.521 1.886 0s0.521-1.366 0-1.885l-2.828-2.828 2.828-2.828c0.521-0.521 0.521-1.365 0-1.886z"></path>
</svg>
