<!-- Generated by IcoMoon.io -->
<svg version="1.1" xmlns="http://www.w3.org/2000/svg" width="24" height="32" viewBox="0 0 24 32">
<title>clipboard1</title>
<path d="M21 4h-5c0-2.206-1.794-4-4-4s-4 1.794-4 4h-5c-1.657 0-3 1.343-3 3v22c0 1.657 1.343 3 3 3h18c1.657 0 3-1.343 3-3v-22c0-1.657-1.343-3-3-3zM20.625 29h-17.25c-0.207 0-0.375-0.168-0.375-0.375v0-21.25c0-0.207 0.168-0.375 0.375-0.375v0h2.625v2.25c0 0.414 0.336 0.75 0.75 0.75h10.5c0.414 0 0.75-0.336 0.75-0.75v-2.25h2.625c0.207 0 0.375 0.168 0.375 0.375v0 21.25c0 0.207-0.168 0.375-0.375 0.375v0zM12 2.5c0.828 0 1.5 0.672 1.5 1.5s-0.672 1.5-1.5 1.5-1.5-0.672-1.5-1.5 0.672-1.5 1.5-1.5z"></path>
</svg>
