<!-- Generated by IcoMoon.io -->
<svg version="1.1" xmlns="http://www.w3.org/2000/svg" width="32" height="32" viewBox="0 0 32 32">
<title>clipboard3</title>
<path d="M9.333 7.333c0 0.736 0.3 1.404 0.781 1.885s1.149 0.781 1.885 0.781h8c0.736 0 1.404-0.3 1.885-0.781s0.781-1.149 0.781-1.885h1.333c0.368 0 0.7 0.148 0.943 0.391s0.391 0.575 0.391 0.943v18.667c0 0.368-0.148 0.7-0.391 0.943s-0.575 0.391-0.943 0.391h-16c-0.368 0-0.7-0.148-0.943-0.391s-0.391-0.575-0.391-0.943v-18.667c0-0.368 0.148-0.7 0.391-0.943s0.575-0.391 0.943-0.391zM12 2c-0.736 0-1.404 0.3-1.885 0.781s-0.781 1.149-0.781 1.885h-1.333c-1.104 0-2.107 0.449-2.828 1.172s-1.172 1.724-1.172 2.828v18.667c0 1.104 0.449 2.107 1.172 2.828s1.724 1.172 2.828 1.172h16c1.104 0 2.107-0.449 2.828-1.172s1.172-1.724 1.172-2.828v-18.667c0-1.104-0.449-2.107-1.172-2.828s-1.724-1.172-2.828-1.172h-1.333c0-0.736-0.3-1.404-0.781-1.885s-1.149-0.781-1.885-0.781zM12 4.667h8v2.667h-8z"></path>
</svg>
