<!-- Generated by IcoMoon.io -->
<svg version="1.1" xmlns="http://www.w3.org/2000/svg" width="32" height="32" viewBox="0 0 32 32">
<title>clock</title>
<path d="M16 0.5c-8.563 0-15.5 6.938-15.5 15.5s6.938 15.5 15.5 15.5 15.5-6.938 15.5-15.5-6.938-15.5-15.5-15.5zM19.569 22.381l-5.512-4.006c-0.194-0.144-0.306-0.369-0.306-0.606v-10.519c0-0.412 0.338-0.75 0.75-0.75h3c0.413 0 0.75 0.338 0.75 0.75v8.606l3.969 2.887c0.337 0.244 0.406 0.712 0.163 1.050l-1.762 2.425c-0.244 0.331-0.712 0.406-1.050 0.163z"></path>
</svg>
