<!-- Generated by IcoMoon.io -->
<svg version="1.1" xmlns="http://www.w3.org/2000/svg" width="32" height="32" viewBox="0 0 32 32">
<title>clone1</title>
<path d="M29 0h-20c-1.657 0-3 1.343-3 3v3h-3c-1.657 0-3 1.343-3 3v20c0 1.657 1.343 3 3 3h20c1.657 0 3-1.343 3-3v-3h3c1.657 0 3-1.343 3-3v-20c0-1.657-1.343-3-3-3zM22.625 29h-19.25c-0.207 0-0.375-0.168-0.375-0.375v0-19.25c0-0.207 0.168-0.375 0.375-0.375v0h2.625v14c0 1.657 1.343 3 3 3h14v2.625c0 0.207-0.168 0.375-0.375 0.375v0zM28.625 23h-19.25c-0.207 0-0.375-0.168-0.375-0.375v0-19.25c0-0.207 0.168-0.375 0.375-0.375v0h19.25c0.207 0 0.375 0.168 0.375 0.375v0 19.25c0 0.207-0.168 0.375-0.375 0.375v0z"></path>
</svg>
