<!-- Generated by IcoMoon.io -->
<svg version="1.1" xmlns="http://www.w3.org/2000/svg" width="32" height="32" viewBox="0 0 32 32">
<title>closed-captioning1</title>
<path d="M29 4h-26c-1.656 0-3 1.344-3 3v18c0 1.656 1.344 3 3 3h26c1.656 0 3-1.344 3-3v-18c0-1.656-1.344-3-3-3zM28.625 25h-25.25c-0.206 0-0.375-0.169-0.375-0.375v-17.25c0-0.206 0.169-0.375 0.375-0.375h25.25c0.206 0 0.375 0.169 0.375 0.375v17.25c0 0.206-0.169 0.375-0.375 0.375zM15.431 19.644c0.106 0.15 0.094 0.35-0.031 0.481-3.35 3.55-10.8 2.006-10.8-4.244 0-6.081 7.606-7.469 10.781-4.381 0.131 0.125 0.156 0.2 0.063 0.356l-1.094 1.906c-0.119 0.194-0.387 0.25-0.569 0.106-2.55-2-5.912-0.931-5.912 1.95 0 3 3.188 4.406 5.763 2.038 0.175-0.156 0.444-0.131 0.575 0.056l1.225 1.731zM27.331 19.644c0.106 0.15 0.094 0.35-0.031 0.481-3.35 3.556-10.8 2.006-10.8-4.244 0-6.081 7.606-7.469 10.781-4.381 0.131 0.125 0.156 0.2 0.063 0.356l-1.094 1.906c-0.119 0.194-0.387 0.25-0.569 0.106-2.55-2-5.913-0.931-5.913 1.95 0 3 3.188 4.406 5.762 2.038 0.175-0.156 0.444-0.131 0.575 0.056l1.225 1.731z"></path>
</svg>
