<!-- Generated by IcoMoon.io -->
<svg version="1.1" xmlns="http://www.w3.org/2000/svg" width="32" height="32" viewBox="0 0 32 32">
<title>cloud-drizzle</title>
<path d="M9.333 26v2.667c0 0.736 0.597 1.333 1.333 1.333s1.333-0.597 1.333-1.333v-2.667c0-0.736-0.597-1.333-1.333-1.333s-1.333 0.597-1.333 1.333zM9.333 18v2.667c0 0.736 0.597 1.333 1.333 1.333s1.333-0.597 1.333-1.333v-2.667c0-0.736-0.597-1.333-1.333-1.333s-1.333 0.597-1.333 1.333zM20 26v2.667c0 0.736 0.597 1.333 1.333 1.333s1.333-0.597 1.333-1.333v-2.667c0-0.736-0.597-1.333-1.333-1.333s-1.333 0.597-1.333 1.333zM20 18v2.667c0 0.736 0.597 1.333 1.333 1.333s1.333-0.597 1.333-1.333v-2.667c0-0.736-0.597-1.333-1.333-1.333s-1.333 0.597-1.333 1.333zM14.667 28.667v2.667c0 0.736 0.597 1.333 1.333 1.333s1.333-0.597 1.333-1.333v-2.667c0-0.736-0.597-1.333-1.333-1.333s-1.333 0.597-1.333 1.333zM14.667 20.667v2.667c0 0.736 0.597 1.333 1.333 1.333s1.333-0.597 1.333-1.333v-2.667c0-0.736-0.597-1.333-1.333-1.333s-1.333 0.597-1.333 1.333zM27.201 23.995c2.023-0.887 3.497-2.511 4.241-4.416s0.763-4.099-0.123-6.121c-0.765-1.748-2.084-3.088-3.669-3.9-1.115-0.571-2.361-0.88-3.64-0.891h-0.704c-0.967-2.743-2.857-4.944-5.22-6.337-2.644-1.559-5.887-2.109-9.095-1.281s-5.779 2.881-7.337 5.525-2.109 5.887-1.281 9.095c0.679 2.627 2.179 4.831 4.132 6.377 0.577 0.457 1.416 0.36 1.873-0.217s0.36-1.416-0.217-1.873c-1.509-1.196-2.677-2.905-3.207-4.955-0.644-2.495-0.217-5.013 0.997-7.073s3.211-3.652 5.707-4.297 5.015-0.217 7.073 0.997 3.652 3.211 4.297 5.707c0.153 0.58 0.673 1 1.291 1h1.669c0.863 0.007 1.7 0.216 2.445 0.597 1.057 0.541 1.931 1.431 2.443 2.596 0.591 1.349 0.58 2.808 0.083 4.081s-1.479 2.353-2.828 2.944c-0.675 0.296-0.981 1.081-0.687 1.756s1.081 0.981 1.756 0.687z"></path>
</svg>
