<!-- Generated by IcoMoon.io -->
<svg version="1.1" xmlns="http://www.w3.org/2000/svg" width="32" height="32" viewBox="0 0 32 32">
<title>cloud4</title>
<path d="M24 15.333c1.473 0 2.804 0.596 3.771 1.563s1.563 2.297 1.563 3.771-0.596 2.804-1.563 3.771-2.297 1.563-3.771 1.563h-11.993c-1.951-0.011-3.804-0.615-5.34-1.677-1.779-1.229-3.131-3.072-3.712-5.323-0.644-2.496-0.217-5.015 0.997-7.073s3.211-3.652 5.707-4.297 5.015-0.217 7.073 0.997 3.652 3.211 4.297 5.707c0.153 0.58 0.673 1 1.291 1zM24 12.667h-0.693c-0.967-2.743-2.857-4.944-5.22-6.337-2.644-1.559-5.887-2.111-9.095-1.281s-5.779 2.88-7.337 5.524-2.109 5.887-1.281 9.095c0.747 2.892 2.489 5.268 4.777 6.849 1.971 1.364 4.348 2.137 6.843 2.151h12.007c2.209 0 4.211-0.897 5.657-2.343s2.343-3.448 2.343-5.657-0.897-4.211-2.343-5.657-3.448-2.343-5.657-2.343z"></path>
</svg>
