<!-- Generated by IcoMoon.io -->
<svg version="1.1" xmlns="http://www.w3.org/2000/svg" width="32" height="32" viewBox="0 0 32 32">
<title>codesandbox</title>
<path d="M19.255 6.327l-3.255 1.88-3.255-1.88 2.581-1.475c0.149-0.085 0.309-0.14 0.473-0.165 0.291-0.045 0.593 0.004 0.872 0.165zM5.333 18.977l3.333 1.925v3.773l-2.66-1.52c-0.148-0.087-0.276-0.197-0.38-0.327-0.185-0.229-0.293-0.515-0.293-0.829zM23.333 24.676v-3.773l3.333-1.925v3.023c-0.001 0.161-0.033 0.328-0.093 0.483-0.107 0.275-0.3 0.512-0.568 0.667zM25.281 9.771l-9.281 5.369-9.281-5.369 3.347-1.913 5.268 3.044c0.425 0.245 0.929 0.231 1.335 0l5.267-3.043zM15.368 31.281c0.188 0.101 0.404 0.159 0.632 0.159 0.231 0 0.448-0.059 0.637-0.161 0.475-0.077 0.935-0.24 1.356-0.48l4.264-2.437c0.291-0.057 0.548-0.209 0.739-0.421l4.332-2.476c0.824-0.476 1.413-1.196 1.732-2.019 0.177-0.456 0.269-0.943 0.273-1.445v-10.667c0-0.637-0.151-1.241-0.419-1.779-0.029-0.095-0.069-0.187-0.121-0.276-0.061-0.105-0.133-0.199-0.216-0.28-0.041-0.057-0.085-0.115-0.129-0.169-0.307-0.381-0.683-0.704-1.108-0.953l-4.344-2.481c-0.196-0.223-0.457-0.368-0.737-0.423l-4.263-2.436c-0.813-0.469-1.733-0.62-2.605-0.485-0.484 0.076-0.953 0.239-1.383 0.484l-4.267 2.437c-0.28 0.055-0.541 0.2-0.737 0.421l-4.332 2.476c-0.511 0.295-0.932 0.684-1.255 1.133-0.080 0.080-0.152 0.173-0.212 0.276-0.052 0.091-0.093 0.184-0.123 0.28-0.053 0.107-0.101 0.217-0.144 0.328-0.176 0.457-0.268 0.944-0.272 1.437v10.676c0.001 0.947 0.331 1.817 0.885 2.504 0.307 0.381 0.683 0.704 1.108 0.953l4.344 2.483c0.189 0.213 0.447 0.365 0.739 0.421l4.263 2.436c0.432 0.249 0.893 0.409 1.363 0.483zM14.667 17.449v10.655l-3.333-1.904v-6.067c0-0.491-0.265-0.92-0.667-1.155l-5.333-3.081v-3.847zM17.333 28.104v-10.655l9.333-5.399v3.847l-5.333 3.081c-0.425 0.245-0.664 0.689-0.667 1.155v6.067z"></path>
</svg>
