<!-- Generated by IcoMoon.io -->
<svg version="1.1" xmlns="http://www.w3.org/2000/svg" width="32" height="32" viewBox="0 0 32 32">
<title>coffee3</title>
<path d="M25.333 20.667v-8c1.105 0 2.103 0.447 2.828 1.172s1.172 1.723 1.172 2.828-0.447 2.103-1.172 2.828-1.723 1.172-2.828 1.172zM2.667 10c-0.736 0-1.333 0.597-1.333 1.333v12c0 1.84 0.748 3.509 1.952 4.715s2.875 1.952 4.715 1.952h10.667c1.84 0 3.509-0.748 4.715-1.952s1.952-2.875 1.952-4.715c1.84 0 3.509-0.748 4.715-1.952s1.952-2.875 1.952-4.715-0.748-3.509-1.952-4.715-2.875-1.952-4.715-1.952h-1.333zM4 12.667h18.667v10.667c0 1.105-0.447 2.103-1.172 2.828s-1.723 1.172-2.828 1.172h-10.667c-1.105 0-2.103-0.447-2.828-1.172s-1.172-1.723-1.172-2.828zM6.667 2v4c0 0.736 0.597 1.333 1.333 1.333s1.333-0.597 1.333-1.333v-4c0-0.736-0.597-1.333-1.333-1.333s-1.333 0.597-1.333 1.333zM12 2v4c0 0.736 0.597 1.333 1.333 1.333s1.333-0.597 1.333-1.333v-4c0-0.736-0.597-1.333-1.333-1.333s-1.333 0.597-1.333 1.333zM17.333 2v4c0 0.736 0.597 1.333 1.333 1.333s1.333-0.597 1.333-1.333v-4c0-0.736-0.597-1.333-1.333-1.333s-1.333 0.597-1.333 1.333z"></path>
</svg>
