<!-- Generated by IcoMoon.io -->
<svg version="1.1" xmlns="http://www.w3.org/2000/svg" width="32" height="32" viewBox="0 0 32 32">
<title>cog</title>
<path d="M27.799 18.194l2.663 1.537c0.304 0.176 0.445 0.539 0.341 0.874-0.692 2.228-1.873 4.24-3.418 5.912-0.138 0.149-0.334 0.241-0.552 0.241-0.138 0-0.268-0.037-0.379-0.102l0.004 0.002-2.662-1.537c-1.074 0.925-2.335 1.67-3.714 2.169l-0.083 0.026v3.074c0 0 0 0 0 0 0 0.356-0.248 0.654-0.581 0.731l-0.005 0.001c-2.185 0.491-4.531 0.516-6.826 0-0.343-0.077-0.588-0.381-0.588-0.733v-3.074c-1.462-0.526-2.723-1.271-3.813-2.209l0.016 0.013-2.662 1.537c-0.108 0.063-0.237 0.101-0.375 0.101-0.218 0-0.414-0.093-0.551-0.241l-0-0c-1.545-1.671-2.726-3.684-3.418-5.912-0.104-0.335 0.037-0.698 0.341-0.874l2.664-1.537c-0.128-0.66-0.201-1.418-0.201-2.194s0.073-1.534 0.213-2.269l-0.012 0.075-2.663-1.537c-0.304-0.176-0.445-0.539-0.341-0.874 0.692-2.228 1.873-4.24 3.418-5.912 0.138-0.149 0.334-0.241 0.552-0.241 0.138 0 0.268 0.037 0.379 0.102l-0.004-0.002 2.661 1.537c1.074-0.925 2.335-1.67 3.714-2.169l0.083-0.026v-3.074c0 0 0 0 0 0 0-0.356 0.248-0.654 0.581-0.731l0.005-0.001c2.185-0.491 4.531-0.516 6.826-0 0.343 0.077 0.588 0.381 0.588 0.733v3.074c1.462 0.526 2.723 1.271 3.813 2.209l-0.016-0.013 2.662-1.537c0.108-0.063 0.237-0.101 0.375-0.101 0.218 0 0.414 0.093 0.551 0.241l0 0c1.545 1.671 2.726 3.684 3.418 5.912 0.104 0.335-0.037 0.698-0.341 0.874l-2.664 1.537c0.128 0.66 0.201 1.418 0.201 2.194s-0.073 1.534-0.213 2.269l0.012-0.075zM21 16c0-2.757-2.243-5-5-5s-5 2.243-5 5 2.243 5 5 5 5-2.243 5-5z"></path>
</svg>
