<!-- Generated by IcoMoon.io -->
<svg version="1.1" xmlns="http://www.w3.org/2000/svg" width="32" height="32" viewBox="0 0 32 32">
<title>columns2</title>
<path d="M16 6h9.333c0.368 0 0.7 0.148 0.943 0.391s0.391 0.575 0.391 0.943v18.667c0 0.368-0.148 0.7-0.391 0.943s-0.575 0.391-0.943 0.391h-9.333c-0.736 0-1.333 0.597-1.333 1.333s0.597 1.333 1.333 1.333h9.333c1.104 0 2.107-0.449 2.828-1.172s1.172-1.724 1.172-2.828v-18.667c0-1.104-0.449-2.107-1.172-2.828s-1.724-1.172-2.828-1.172h-9.333c-0.736 0-1.333 0.597-1.333 1.333s0.597 1.333 1.333 1.333zM16 3.333h-9.333c-1.104 0-2.107 0.449-2.828 1.172s-1.172 1.724-1.172 2.828v18.667c0 1.104 0.449 2.107 1.172 2.828s1.724 1.172 2.828 1.172h9.333c0.736 0 1.333-0.597 1.333-1.333s-0.597-1.333-1.333-1.333h-9.333c-0.368 0-0.7-0.148-0.943-0.391s-0.391-0.575-0.391-0.943v-18.667c0-0.368 0.148-0.7 0.391-0.943s0.575-0.391 0.943-0.391h9.333c0.736 0 1.333-0.597 1.333-1.333s-0.597-1.333-1.333-1.333zM14.667 4.667v24c0 0.736 0.597 1.333 1.333 1.333s1.333-0.597 1.333-1.333v-24c0-0.736-0.597-1.333-1.333-1.333s-1.333 0.597-1.333 1.333z"></path>
</svg>
