<!-- Generated by IcoMoon.io -->
<svg version="1.1" xmlns="http://www.w3.org/2000/svg" width="32" height="32" viewBox="0 0 32 32">
<title>comment1</title>
<path d="M16 2c-8.838 0-16 5.819-16 13 0 2.975 1.244 5.7 3.306 7.894-0.931 2.462-2.869 4.55-2.9 4.575-0.412 0.438-0.525 1.075-0.287 1.625s0.781 0.906 1.381 0.906c3.844 0 6.875-1.606 8.694-2.894 1.806 0.569 3.756 0.894 5.806 0.894 8.837 0 16-5.819 16-13s-7.163-13-16-13zM16 25c-1.669 0-3.319-0.256-4.9-0.756l-1.419-0.45-1.219 0.863c-0.894 0.631-2.119 1.337-3.594 1.813 0.456-0.756 0.9-1.606 1.244-2.512l0.662-1.756-1.287-1.363c-1.131-1.206-2.487-3.2-2.487-5.838 0-5.513 5.831-10 13-10s13 4.487 13 10-5.831 10-13 10z"></path>
</svg>
