<!-- Generated by IcoMoon.io -->
<svg version="1.1" xmlns="http://www.w3.org/2000/svg" width="36" height="32" viewBox="0 0 36 32">
<title>comments1</title>
<path d="M33.25 24.137c1.719-1.694 2.75-3.819 2.75-6.137 0-5-4.781-9.131-11.012-9.869-1.969-3.6-6.594-6.131-11.988-6.131-7.181 0-13 4.475-13 10 0 2.313 1.031 4.438 2.75 6.137-0.956 1.919-2.331 3.406-2.356 3.431-0.394 0.419-0.506 1.031-0.275 1.563 0.225 0.531 0.75 0.875 1.325 0.875 3.344 0 6.044-1.262 7.825-2.425 0.575 0.131 1.169 0.231 1.775 0.306 1.963 3.587 6.569 6.113 11.956 6.113 1.3 0 2.55-0.15 3.738-0.425 1.781 1.156 4.475 2.425 7.825 2.425 0.575 0 1.094-0.344 1.325-0.875 0.225-0.531 0.119-1.144-0.275-1.563-0.025-0.019-1.406-1.506-2.362-3.425zM8.7 18.369l-1.069 0.694c-0.881 0.569-1.781 1.019-2.694 1.337 0.169-0.294 0.338-0.606 0.5-0.925l0.969-1.944-1.55-1.531c-0.844-0.838-1.856-2.206-1.856-4 0-3.794 4.581-7 10-7s10 3.206 10 7-4.581 7-10 7c-1.031 0-2.063-0.119-3.063-0.35l-1.238-0.281zM31.144 22l-1.544 1.525 0.969 1.944c0.163 0.319 0.331 0.631 0.5 0.925-0.913-0.319-1.813-0.769-2.694-1.337l-1.069-0.694-1.244 0.288c-1 0.231-2.031 0.35-3.063 0.35-3.375 0-6.387-1.256-8.206-3.106 6.331-0.675 11.206-4.837 11.206-9.894 0-0.213-0.025-0.419-0.044-0.625 4.025 0.906 7.044 3.55 7.044 6.625 0 1.794-1.012 3.163-1.856 4z"></path>
</svg>
