<!-- Generated by IcoMoon.io -->
<svg version="1.1" xmlns="http://www.w3.org/2000/svg" width="31" height="32" viewBox="0 0 31 32">
<title>compass1</title>
<path d="M21.746 8.116l-9.021 4.123c-0.438 0.204-0.782 0.548-0.98 0.973l-0.005 0.012-4.123 9.021c-0.476 1.041 0.596 2.113 1.637 1.637l9.021-4.123c0.438-0.203 0.782-0.548 0.98-0.973l0.005-0.012 4.123-9.021c0.476-1.041-0.596-2.113-1.637-1.637zM16.911 17.411c-0.779 0.779-2.043 0.779-2.822 0s-0.779-2.043 0-2.822c0.779-0.779 2.043-0.779 2.822 0s0.779 2.043 0 2.822zM15.5 0.5c-8.561 0-15.5 6.939-15.5 15.5s6.939 15.5 15.5 15.5 15.5-6.939 15.5-15.5-6.939-15.5-15.5-15.5zM15.5 28.5c-6.893 0-12.5-5.608-12.5-12.5s5.607-12.5 12.5-12.5 12.5 5.607 12.5 12.5-5.608 12.5-12.5 12.5z"></path>
</svg>
