<!-- Generated by IcoMoon.io -->
<svg version="1.1" xmlns="http://www.w3.org/2000/svg" width="32" height="32" viewBox="0 0 32 32">
<title>compass3</title>
<path d="M30.667 16.667c0-4.049-1.643-7.719-4.296-10.371s-6.321-4.296-10.371-4.296-7.719 1.643-10.371 4.296-4.296 6.321-4.296 10.371 1.643 7.719 4.296 10.371 6.321 4.296 10.371 4.296 7.719-1.643 10.371-4.296 4.296-6.321 4.296-10.371zM28 16.667c0 3.315-1.341 6.312-3.515 8.485s-5.171 3.515-8.485 3.515-6.312-1.341-8.485-3.515-3.515-5.171-3.515-8.485 1.341-6.312 3.515-8.485 5.171-3.515 8.485-3.515 6.312 1.341 8.485 3.515 3.515 5.171 3.515 8.485zM22.919 11.435c0.088-0.261 0.096-0.557 0-0.843-0.233-0.699-0.988-1.076-1.687-0.843l-8.48 2.827c-0.387 0.131-0.705 0.431-0.843 0.843l-2.827 8.48c-0.088 0.261-0.096 0.557 0 0.843 0.233 0.699 0.988 1.076 1.687 0.843l8.48-2.827c0.387-0.131 0.705-0.431 0.843-0.843zM19.545 13.121l-1.773 5.317-5.317 1.773 1.772-5.317z"></path>
</svg>
