<!-- Generated by IcoMoon.io -->
<svg version="1.1" xmlns="http://www.w3.org/2000/svg" width="32" height="32" viewBox="0 0 32 32">
<title>content-left</title>
<path d="M17.333 6v5.333c0 2.21 1.79 4 4 4h5.333c2.21 0 4-1.79 4-4v-5.333c0-2.21-1.79-4-4-4h-5.333c-2.21 0-4 1.79-4 4zM20 6c0-0.737 0.597-1.333 1.333-1.333h5.333c0.737 0 1.333 0.597 1.333 1.333v5.333c0 0.737-0.597 1.333-1.333 1.333h-5.333c-0.737 0-1.333-0.597-1.333-1.333v-5.333zM1.333 6v21.333c0 2.21 1.79 4 4 4h5.333c2.21 0 4-1.79 4-4v-21.333c0-2.21-1.79-4-4-4h-5.333c-2.21 0-4 1.79-4 4zM4 6c0-0.737 0.597-1.333 1.333-1.333h5.333c0.737 0 1.333 0.597 1.333 1.333v21.333c0 0.737-0.597 1.333-1.333 1.333h-5.333c-0.737 0-1.333-0.597-1.333-1.333v-21.333zM17.333 22v5.333c0 2.21 1.79 4 4 4h5.333c2.21 0 4-1.79 4-4v-5.333c0-2.21-1.79-4-4-4h-5.333c-2.21 0-4 1.79-4 4zM20 22c0-0.737 0.597-1.333 1.333-1.333h5.333c0.737 0 1.333 0.597 1.333 1.333v5.333c0 0.737-0.597 1.333-1.333 1.333h-5.333c-0.737 0-1.333-0.597-1.333-1.333v-5.333z"></path>
</svg>
