<!-- Generated by IcoMoon.io -->
<svg version="1.1" xmlns="http://www.w3.org/2000/svg" width="32" height="32" viewBox="0 0 32 32">
<title>copyright1</title>
<path d="M16 0.5c-8.56 0-15.5 6.94-15.5 15.5s6.94 15.5 15.5 15.5 15.5-6.94 15.5-15.5-6.94-15.5-15.5-15.5zM16 28.5c-6.908 0-12.5-5.591-12.5-12.5 0-6.908 5.591-12.5 12.5-12.5 6.908 0 12.5 5.591 12.5 12.5 0 6.908-5.591 12.5-12.5 12.5zM22.709 22.183c-0.601 0.607-2.846 2.587-6.504 2.587-5.152 0-8.78-3.839-8.78-8.848 0-4.947 3.767-8.713 8.735-8.713 3.471 0 5.546 1.664 6.1 2.174 0.149 0.137 0.242 0.333 0.242 0.55 0 0.151-0.045 0.292-0.122 0.41l0.002-0.003-1.135 1.757c-0.24 0.372-0.748 0.455-1.094 0.183-0.537-0.424-1.988-1.409-3.857-1.409-3.019 0-4.87 2.208-4.87 5.005 0 2.599 1.681 5.231 4.892 5.231 2.041 0 3.553-1.19 4.108-1.702 0.329-0.304 0.85-0.252 1.114 0.109l1.242 1.698c0.091 0.122 0.146 0.276 0.146 0.443 0 0.206-0.083 0.392-0.218 0.527l0-0z"></path>
</svg>
