<!-- Generated by IcoMoon.io -->
<svg version="1.1" xmlns="http://www.w3.org/2000/svg" width="32" height="32" viewBox="0 0 32 32">
<title>copy3</title>
<path d="M14.667 11.333c-1.104 0-2.107 0.449-2.828 1.172s-1.172 1.724-1.172 2.828v12c0 1.104 0.449 2.107 1.172 2.828s1.724 1.172 2.828 1.172h12c1.104 0 2.107-0.449 2.828-1.172s1.172-1.724 1.172-2.828v-12c0-1.104-0.449-2.107-1.172-2.828s-1.724-1.172-2.828-1.172zM14.667 14h12c0.368 0 0.7 0.148 0.943 0.391s0.391 0.575 0.391 0.943v12c0 0.368-0.148 0.7-0.391 0.943s-0.575 0.391-0.943 0.391h-12c-0.368 0-0.7-0.148-0.943-0.391s-0.391-0.575-0.391-0.943v-12c0-0.368 0.148-0.7 0.391-0.943s0.575-0.391 0.943-0.391zM6.667 19.333h-1.333c-0.368 0-0.7-0.148-0.943-0.391s-0.391-0.575-0.391-0.943v-12c0-0.368 0.148-0.7 0.391-0.943s0.575-0.391 0.943-0.391h12c0.368 0 0.7 0.148 0.943 0.391s0.391 0.575 0.391 0.943v1.333c0 0.736 0.597 1.333 1.333 1.333s1.333-0.597 1.333-1.333v-1.333c0-1.104-0.449-2.107-1.172-2.828s-1.724-1.172-2.828-1.172h-12c-1.104 0-2.107 0.449-2.828 1.172s-1.172 1.724-1.172 2.828v12c0 1.104 0.449 2.107 1.172 2.828s1.724 1.172 2.828 1.172h1.333c0.736 0 1.333-0.597 1.333-1.333s-0.597-1.333-1.333-1.333z"></path>
</svg>
