<!-- Generated by IcoMoon.io -->
<svg version="1.1" xmlns="http://www.w3.org/2000/svg" width="32" height="32" viewBox="0 0 32 32">
<title>corner-down-left</title>
<path d="M25.333 6v9.333c0 1.105-0.447 2.103-1.172 2.828s-1.723 1.172-2.828 1.172h-12.781l4.391-4.391c0.521-0.521 0.521-1.365 0-1.885s-1.365-0.521-1.885 0l-6.667 6.667c-0.123 0.123-0.221 0.269-0.289 0.432-0.2 0.483-0.104 1.060 0.289 1.453l6.667 6.667c0.521 0.521 1.365 0.521 1.885 0s0.521-1.365 0-1.885l-4.391-4.391h12.781c1.84 0 3.509-0.748 4.715-1.952s1.952-2.875 1.952-4.715v-9.333c0-0.736-0.597-1.333-1.333-1.333s-1.333 0.597-1.333 1.333z"></path>
</svg>
