<!-- Generated by IcoMoon.io -->
<svg version="1.1" xmlns="http://www.w3.org/2000/svg" width="40" height="32" viewBox="0 0 40 32">
<title>cpanel</title>
<path d="M3.306 13.356h2.5l-0.388 1.475c-0.119 0.406-0.463 0.681-0.894 0.681h-1.163c-1.556 0-1.544 2.337 0 2.337h0.706c0.263 0 0.475 0.244 0.4 0.519l-0.444 1.631h-0.775c-2.094 0-3.688-1.962-3.144-4.075 0.456-1.688 1.769-2.569 3.2-2.569zM4.569 20l2.181-8.131c0.112-0.4 0.45-0.681 0.894-0.681h2.313c1.506 0 2.838 1.025 3.188 2.575 0.412 1.819-0.906 4.081-3.231 4.081h-2l0.4-1.488c0.113-0.387 0.456-0.675 0.894-0.675h0.644c0.775 0 1.3-0.731 1.144-1.412-0.131-0.575-0.619-0.925-1.144-0.925h-1.238l-1.612 5.981c-0.119 0.387-0.463 0.669-0.888 0.669l-1.544 0.006zM18.356 15.662c0.019-0.063 0.119-0.331-0.131-0.331h-3.594c-0.606 0-1.037-0.556-0.887-1.156l0.219-0.838h4.869c1.175 0 2.081 1.1 1.781 2.3l-0.875 3.238c-0.175 0.663-0.762 1.113-1.462 1.113l-3.594-0.012c-2.681 0-2.406-3.988 0.044-3.988h3.025l-0.219 0.825c-0.119 0.387-0.462 0.675-0.887 0.675h-1.35c-0.331 0-0.331 0.494 0 0.494h2.181c0.288 0 0.319-0.244 0.344-0.331l0.538-1.988zM24.8 13.356c2.15 0 3.706 2.019 3.144 4.088l-0.55 2.069c-0.075 0.306-0.356 0.488-0.644 0.488h-1.194c-0.281 0-0.475-0.25-0.4-0.519l0.663-2.5c0.206-0.725-0.35-1.463-1.131-1.463h-1.238l-1.075 4c-0.075 0.3-0.35 0.488-0.65 0.488h-1.181c-0.262 0-0.475-0.244-0.4-0.519l1.637-6.125h3.019zM31.125 15.725l-0.5 1.875c-0.056 0.206 0.094 0.419 0.319 0.419h4.581l-0.356 1.313c-0.119 0.387-0.462 0.669-0.888 0.669h-4.169c-1.25 0-2.081-1.188-1.769-2.294l0.675-2.5c0.3-1.1 1.294-1.85 2.413-1.85h2.956c1.188 0 2.075 1.106 1.769 2.3l-0.2 0.75c-0.181 0.688-0.794 1.1-1.45 1.1h-3.337l0.219-0.813c0.1-0.387 0.45-0.675 0.888-0.675h1.35c0.125 0 0.206-0.063 0.244-0.188l0.044-0.162c0.044-0.169-0.081-0.319-0.244-0.319h-2.056c-0.256 0-0.431 0.131-0.488 0.375zM35.513 20l2.225-8.319c0.075-0.294 0.344-0.494 0.65-0.494h1.181c0.281 0 0.481 0.25 0.406 0.519l-1.656 6.137c-0.319 1.294-1.513 2.156-2.806 2.156z"></path>
</svg>
