<!-- Generated by IcoMoon.io -->
<svg version="1.1" xmlns="http://www.w3.org/2000/svg" width="31" height="32" viewBox="0 0 31 32">
<title>creative-commons-pd-alt</title>
<path d="M15.475 0.5c8.862 0 15.525 6.881 15.525 15.5 0 9.194-7.406 15.5-15.525 15.5-8.375 0-15.475-6.844-15.475-15.5 0-8.306 6.544-15.5 15.475-15.5zM15.525 3.294c-7.388 0-12.731 6.119-12.731 12.706 0 6.863 5.7 12.675 12.731 12.675 6.45 0 12.675-5.069 12.675-12.675 0.006-7.113-5.637-12.706-12.675-12.706zM8.469 20.206v-8.581h4.262c2.106 0 3.156 0.969 3.156 2.906 0 0.563-0.188 2.906-3.569 2.906h-1.688v2.769h-2.162zM10.6 13.231v2.6h1.825c1.744 0 1.875-2.6-0.056-2.6h-1.769zM16.469 20.206v-8.581h3.325c1.337 0 4.375 0.325 4.375 4.287 0 3.969-3.038 4.287-4.375 4.287h-3.325zM18.6 13.425v4.981h1.244c1.5 0 2.156-0.956 2.156-2.494 0-2.625-1.95-2.494-2.188-2.494l-1.212 0.006z"></path>
</svg>
