<!-- Generated by IcoMoon.io -->
<svg version="1.1" xmlns="http://www.w3.org/2000/svg" width="36" height="32" viewBox="0 0 36 32">
<title>credit-card1</title>
<path d="M32.994 2h-29.988c-1.663 0-3.006 1.344-3.006 3v22c0 1.656 1.344 3 3.006 3h29.988c1.663 0 3.006-1.344 3.006-3v-22c0-1.656-1.344-3-3.006-3zM3.381 5h29.237c0.206 0 0.375 0.169 0.375 0.375v2.625h-29.988v-2.625c0-0.206 0.169-0.375 0.375-0.375zM32.619 27h-29.238c-0.206 0-0.375-0.169-0.375-0.375v-10.625h29.988v10.625c0 0.206-0.169 0.375-0.375 0.375zM12 20.75v2.5c0 0.413-0.338 0.75-0.75 0.75h-4.5c-0.412 0-0.75-0.337-0.75-0.75v-2.5c0-0.413 0.338-0.75 0.75-0.75h4.5c0.412 0 0.75 0.337 0.75 0.75zM24 20.75v2.5c0 0.413-0.337 0.75-0.75 0.75h-8.5c-0.412 0-0.75-0.337-0.75-0.75v-2.5c0-0.413 0.338-0.75 0.75-0.75h8.5c0.413 0 0.75 0.337 0.75 0.75z"></path>
</svg>
