<!-- Generated by IcoMoon.io -->
<svg version="1.1" xmlns="http://www.w3.org/2000/svg" width="32" height="32" viewBox="0 0 32 32">
<title>crop3</title>
<path d="M9.436 10.103l11.909-0.103c0.357 0 0.688 0.148 0.931 0.391s0.391 0.575 0.391 0.943v12h-12c-0.368 0-0.7-0.148-0.943-0.391s-0.391-0.575-0.391-0.931zM1.345 10.173l5.424-0.047-0.103 11.861c0 1.116 0.449 2.117 1.172 2.84s1.724 1.172 2.828 1.172h12v5.333c0 0.736 0.597 1.333 1.333 1.333s1.333-0.597 1.333-1.333v-5.333h5.333c0.736 0 1.333-0.597 1.333-1.333s-0.597-1.333-1.333-1.333h-5.333v-12c0-1.104-0.449-2.107-1.172-2.828s-1.724-1.172-2.84-1.172l-11.861 0.103 0.047-5.424c0.007-0.737-0.585-1.339-1.321-1.345s-1.339 0.585-1.345 1.321l-0.048 5.471-5.471 0.048c-0.736 0.007-1.328 0.608-1.321 1.345s0.608 1.328 1.345 1.321z"></path>
</svg>
