<!-- Generated by IcoMoon.io -->
<svg version="1.1" xmlns="http://www.w3.org/2000/svg" width="32" height="32" viewBox="0 0 32 32">
<title>crosshair</title>
<path d="M30.667 16.667c0-4.049-1.643-7.719-4.296-10.371s-6.321-4.296-10.371-4.296-7.719 1.643-10.371 4.296-4.296 6.321-4.296 10.371 1.643 7.719 4.296 10.371 6.321 4.296 10.371 4.296 7.719-1.643 10.371-4.296 4.296-6.321 4.296-10.371zM17.333 28.593v-3.927c0-0.736-0.597-1.333-1.333-1.333s-1.333 0.597-1.333 1.333v3.927c-2.781-0.307-5.275-1.564-7.152-3.441s-3.135-4.371-3.441-7.152h3.927c0.736 0 1.333-0.597 1.333-1.333s-0.597-1.333-1.333-1.333h-3.927c0.307-2.781 1.564-5.275 3.441-7.152s4.371-3.135 7.152-3.441v3.927c0 0.736 0.597 1.333 1.333 1.333s1.333-0.597 1.333-1.333v-3.927c2.781 0.307 5.275 1.564 7.152 3.441s3.135 4.371 3.441 7.152h-3.927c-0.736 0-1.333 0.597-1.333 1.333s0.597 1.333 1.333 1.333h3.927c-0.307 2.781-1.564 5.275-3.441 7.152s-4.371 3.135-7.152 3.441z"></path>
</svg>
