<?xml version="1.0" encoding="UTF-8"?>
<!DOCTYPE svg PUBLIC "-//W3C//DTD SVG 1.1//EN" "http://www.w3.org/Graphics/SVG/1.1/DTD/svg11.dtd">
<!-- Creator: CorelDRAW 2021 (64-Bit) -->
<svg xmlns="http://www.w3.org/2000/svg" xml:space="preserve" width="58.3425mm" height="48.0383mm" version="1.1" style="shape-rendering:geometricPrecision; text-rendering:geometricPrecision; image-rendering:optimizeQuality; fill-rule:evenodd; clip-rule:evenodd"
viewBox="0 0 5095.79 4195.8"
 xmlns:xlink="http://www.w3.org/1999/xlink"
 xmlns:xodm="http://www.corel.com/coreldraw/odm/2003">
 <defs>
  <style type="text/css">
   <![CDATA[
    .str0 {stroke:#FF5100;stroke-width:295.8;stroke-linecap:round;stroke-linejoin:round;stroke-miterlimit:22.9256}
    .fil1 {fill:#FF5100}
    .fil0 {fill:white}
   ]]>
  </style>
 </defs>
 <g id="Capa_x0020_1">
  <metadata id="CorelCorpID_0Corel-Layer"/>
  <path class="fil0 str0" d="M147.91 817.13l0 2919.22c0,146 165.79,311.53 311.53,311.53 161.31,0 170,-12.02 303.29,-112.1 66.35,-49.82 559.95,-431.55 610.63,-450.91 83.95,-32.04 2518.2,-14.29 2824.53,-13.91 145.26,0.18 191.65,-7.21 298.53,-47.63 153.28,-57.96 301.42,-196.79 374.81,-340.57 36.4,-71.29 76.65,-179.18 76.65,-281.03l0 -1984.61c0,-180.11 -96.25,-344.35 -210.57,-458.66 -114.31,-114.31 -278.54,-210.57 -458.65,-210.57l-3461.52 0c-247.48,0 -494.14,187.87 -600.28,403.57 -31.7,64.42 -68.95,169.5 -68.95,265.66z"/>
  <path class="fil1" d="M3090.2 1820.97c0,275.22 369.23,225.68 369.23,34.62l0 -57.7c0,-195.08 -369.23,-231.72 -369.23,23.08z"/>
  <path class="fil1" d="M1636.37 1797.9l0 57.7c0,191.05 369.22,240.59 369.22,-34.62 0,-252.32 -369.22,-219.78 -369.22,-23.08z"/>
  <path class="fil1" d="M2374.82 1797.9l0 57.7c0,191.05 369.22,240.59 369.22,-34.62 0,-252.32 -369.22,-219.78 -369.22,-23.08z"/>
  <path class="fil1" d="M3090.2 1820.97c0,275.22 369.23,225.68 369.23,34.62l0 -57.7c0,-195.08 -369.23,-231.72 -369.23,23.08z"/>
  <path class="fil1" d="M1636.37 1797.9l0 57.7c0,191.05 369.22,240.59 369.22,-34.62 0,-252.32 -369.22,-219.78 -369.22,-23.08z"/>
  <path class="fil1" d="M2374.82 1797.9l0 57.7c0,191.05 369.22,240.59 369.22,-34.62 0,-252.32 -369.22,-219.78 -369.22,-23.08z"/>
 </g>
</svg>
