<!-- Generated by IcoMoon.io -->
<svg version="1.1" xmlns="http://www.w3.org/2000/svg" width="32" height="32" viewBox="0 0 32 32">
<title>digital-ocean</title>
<path d="M16 31.5v-6.006c6.363 0 11.3-6.306 8.856-13-0.894-2.475-2.881-4.463-5.363-5.356-6.694-2.425-13.006 2.494-13.006 8.856h-5.987c0-10.137 9.806-18.044 20.438-14.725 4.637 1.456 8.35 5.15 9.788 9.787 3.325 10.644-4.563 20.444-14.725 20.444zM16.019 19.538h-5.975v5.975h5.975v-5.975zM10.044 25.512h-4.606v4.6h4.606v-4.6zM5.438 21.663h-3.85v3.85h3.85v-3.85z"></path>
</svg>
