<!-- Generated by IcoMoon.io -->
<svg version="1.1" xmlns="http://www.w3.org/2000/svg" width="31" height="32" viewBox="0 0 31 32">
<title>dizzy1</title>
<path d="M15.5 0.5c-8.563 0-15.5 6.938-15.5 15.5s6.938 15.5 15.5 15.5 15.5-6.938 15.5-15.5-6.938-15.5-15.5-15.5zM15.5 28.5c-6.894 0-12.5-5.606-12.5-12.5s5.606-12.5 12.5-12.5 12.5 5.606 12.5 12.5-5.606 12.5-12.5 12.5zM13.387 14.881c0.488-0.488 0.488-1.281 0-1.769l-1.119-1.113 1.119-1.119c0.488-0.488 0.488-1.281 0-1.769s-1.281-0.488-1.769 0l-1.119 1.119-1.113-1.113c-0.488-0.488-1.281-0.488-1.769 0s-0.487 1.281 0 1.769l1.119 1.119-1.119 1.119c-0.487 0.488-0.487 1.281 0 1.769s1.281 0.488 1.769 0l1.113-1.113 1.113 1.113c0.494 0.481 1.281 0.481 1.775-0.012zM23.387 9.119c-0.488-0.488-1.281-0.488-1.769 0l-1.119 1.113-1.113-1.113c-0.488-0.488-1.281-0.488-1.769 0s-0.488 1.281 0 1.769l1.119 1.119-1.119 1.119c-0.488 0.488-0.488 1.281 0 1.769s1.281 0.488 1.769 0l1.113-1.113 1.113 1.113c0.488 0.488 1.281 0.488 1.769 0s0.488-1.281 0-1.769l-1.113-1.125 1.119-1.119c0.481-0.488 0.481-1.275 0-1.762zM15.5 17c-2.206 0-4 1.794-4 4s1.794 4 4 4 4-1.794 4-4-1.794-4-4-4z"></path>
</svg>
