<!-- Generated by IcoMoon.io -->
<svg version="1.1" xmlns="http://www.w3.org/2000/svg" width="32" height="32" viewBox="0 0 32 32">
<title>dollar-sign1</title>
<path d="M14.667 15.333h-2c-0.921 0-1.752-0.372-2.357-0.976s-0.976-1.436-0.976-2.357 0.372-1.752 0.976-2.357 1.436-0.976 2.357-0.976h2zM17.333 18h2c0.921 0 1.752 0.372 2.357 0.976s0.976 1.436 0.976 2.357-0.372 1.752-0.976 2.357-1.436 0.976-2.357 0.976h-2zM22.667 6h-5.333v-4c0-0.736-0.597-1.333-1.333-1.333s-1.333 0.597-1.333 1.333v4h-2c-1.656 0-3.159 0.673-4.243 1.757s-1.757 2.587-1.757 4.243 0.673 3.159 1.757 4.243 2.587 1.757 4.243 1.757h2v6.667h-6.667c-0.736 0-1.333 0.597-1.333 1.333s0.597 1.333 1.333 1.333h6.667v4c0 0.736 0.597 1.333 1.333 1.333s1.333-0.597 1.333-1.333v-4h2c1.656 0 3.159-0.673 4.243-1.757s1.757-2.587 1.757-4.243-0.673-3.159-1.757-4.243-2.587-1.757-4.243-1.757h-2v-6.667h5.333c0.736 0 1.333-0.597 1.333-1.333s-0.597-1.333-1.333-1.333z"></path>
</svg>
