<!-- Generated by IcoMoon.io -->
<svg version="1.1" xmlns="http://www.w3.org/2000/svg" width="32" height="32" viewBox="0 0 32 32">
<title>download3</title>
<path d="M26.667 20.667v5.333c0 0.368-0.148 0.7-0.391 0.943s-0.575 0.391-0.943 0.391h-18.667c-0.368 0-0.7-0.148-0.943-0.391s-0.391-0.575-0.391-0.943v-5.333c0-0.736-0.597-1.333-1.333-1.333s-1.333 0.597-1.333 1.333v5.333c0 1.104 0.449 2.107 1.172 2.828s1.724 1.172 2.828 1.172h18.667c1.104 0 2.107-0.449 2.828-1.172s1.172-1.724 1.172-2.828v-5.333c0-0.736-0.597-1.333-1.333-1.333s-1.333 0.597-1.333 1.333zM17.333 17.448v-12.781c0-0.736-0.597-1.333-1.333-1.333s-1.333 0.597-1.333 1.333v12.781l-4.391-4.391c-0.521-0.521-1.365-0.521-1.885 0s-0.521 1.365 0 1.885l6.667 6.667c0.123 0.123 0.269 0.221 0.432 0.289s0.337 0.101 0.511 0.101c0.341 0 0.683-0.131 0.943-0.391l6.667-6.667c0.521-0.521 0.521-1.365 0-1.885s-1.365-0.521-1.885 0z"></path>
</svg>
