<!-- Generated by IcoMoon.io -->
<svg version="1.1" xmlns="http://www.w3.org/2000/svg" width="36" height="32" viewBox="0 0 36 32">
<title>drum</title>
<path d="M28.63 7.555l6.399-3.839c0.947-0.568 1.254-1.797 0.686-2.744s-1.796-1.254-2.744-0.686l-10.043 6.026c-1.479-0.198-3.19-0.311-4.927-0.311h-0.001c-9.941 0-18 3.582-18 8v10.052c0 1.904 1.502 3.65 4 5.023v-6.023c0-1.1 0.9-2 2-2s2 0.9 2 2v7.651c2.338 0.696 5.063 1.152 8 1.297v-6.947c0-1.1 0.9-2 2-2s2 0.9 2 2v6.947c2.938-0.144 5.663-0.601 8-1.297v-7.651c0-1.1 0.9-2 2-2s2 0.9 2 2v6.023c2.498-1.373 4-3.119 4-5.023v-10.052c-0.001-2.649-2.909-4.99-7.37-6.446zM18 19c-8.284 0-15-2.239-15-5s6.716-5 15-5c0.146 0 0.289 0.006 0.434 0.008l-5.463 3.277c-0.947 0.568-1.254 1.797-0.686 2.744 0.598 0.996 1.844 1.226 2.744 0.686l10.169-6.101c4.648 0.849 7.801 2.495 7.801 4.387 0 2.761-6.716 4.999-15 4.999z"></path>
</svg>
