<!-- Generated by IcoMoon.io -->
<svg version="1.1" xmlns="http://www.w3.org/2000/svg" width="28" height="32" viewBox="0 0 28 32">
<title>drupal</title>
<path d="M19.969 7.169c-1.387-0.875-2.719-1.219-4.044-2.094-0.813-0.55-1.956-1.875-2.906-3.019-0.169 1.831-0.719 2.575-1.375 3.094-1.331 1.063-2.175 1.388-3.344 2.019-0.987 0.519-6.3 4.175-6.3 10.988 0 6.825 5.737 11.844 12.113 11.844 6.356 0 11.887-4.625 11.887-11.625 0-7.019-5.188-10.688-6.031-11.206zM20.125 27.519c-1.256 1.256-5.631 1.794-7.294 0.262-0.3-0.3 0.019-0.75 0.406-0.75 0 0 1.063 0.831 3.219 0.831 1.688 0 2.875-0.481 3.406-0.875 0.381-0.288 0.525 0.269 0.262 0.531zM16.719 24.231c0.544-0.225 1.813-0.238 2.3 0.081 0.256 0.175 1.006 1.175 0.387 1.481-0.525 0.262-0.075-0.981-1.656-0.981-0.919 0-1.219 0.325-1.669 0.688-0.438 0.375-0.613 0.5-0.762 0.294-0.375-0.512 0.994-1.394 1.4-1.563zM22.5 25.313c-0.95-0.063-2.844-3.050-4.063-3.094-1.931-0.056-6.506 5.044-10.081 2.625-2.425-1.663-0.912-6.55 3.238-6.575 3.094-0.031 5.238 3.063 6.781 3.031 1.331-0.019 3.863-2.613 5.113-2.613 3.044 0 1.456 6.831-0.988 6.625z"></path>
</svg>
