<!-- Generated by IcoMoon.io -->
<svg version="1.1" xmlns="http://www.w3.org/2000/svg" width="28" height="32" viewBox="0 0 28 32">
<title>drupal1</title>
<path d="M0 17.109q0-2.24 0.672-4.256t1.568-3.296 2.048-2.4 1.824-1.536 1.216-0.736q0.32-0.16 0.96-0.48t0.96-0.512 0.928-0.544 1.088-0.8q1.344-1.088 1.6-3.616 2.336 2.816 3.392 3.52 0.8 0.544 2.368 1.248t2.336 1.184q0.608 0.352 1.152 0.736t1.728 1.568 2.016 2.432 1.472 3.36 0.672 4.384q0 5.952-4.064 9.76t-9.824 3.808q-3.712 0-6.912-1.76t-5.216-4.992-1.984-7.072zM6.080 21.941q-0.064 2.016 1.344 2.976 0.992 0.672 3.008 0.672 1.312 0 3.136-0.96t3.36-1.856 2.24-0.896q0.736 0.032 2.496 1.792t2.24 1.792q0.64 0.032 1.088-0.288t0.992-1.12q1.056-1.568 1.056-3.744 0-0.928-0.48-1.76t-1.504-0.8q-0.704 0-2.944 1.504t-3.008 1.536q-0.704 0-1.952-0.896t-2.816-1.76-3.168-0.896q-2.080 0.032-3.552 1.44t-1.536 3.264zM12.64 27.701q-0.384 0.32 0 0.64 1.472 1.344 5.28 0.992 0.736-0.064 1.536-0.352t1.184-0.576 0.512-0.384 0.128-0.512q-0.096-0.384-0.448-0.096-1.312 1.024-3.968 1.024-2.4 0-3.52-0.896-0.096-0.064-0.256-0.064t-0.448 0.224zM15.52 26.037q0.224 0.256 0.896-0.352 0.064-0.032 0.256-0.192t0.256-0.224 0.256-0.16 0.32-0.128 0.384-0.064 0.48-0.032q0.512 0 0.832 0.128t0.416 0.256 0.224 0.416q0.16 0.32 0.256 0.352t0.224 0q0.384-0.224 0.224-0.64-0.288-0.832-0.704-1.088-0.384-0.288-1.376-0.288-0.832 0-1.312 0.192-0.544 0.224-1.408 1.024-0.48 0.384-0.224 0.8z"></path>
</svg>
