<!-- Generated by IcoMoon.io -->
<svg version="1.1" xmlns="http://www.w3.org/2000/svg" width="32" height="32" viewBox="0 0 32 32">
<title>duckduckgo</title>
<path d="M0 14.965q0-6.88 4.512-11.36t11.36-4.512 11.392 4.512 4.48 11.36q0 5.824-3.296 10.016t-8.96 5.504q-0.288-0.544-1.056-1.664t-1.12-1.792q2.048 0.832 2.752 0.832 0.512 0 0.512-1.6 0-3.008-0.544-3.008-0.8 0-3.104 1.76 0-0.448-0.48-0.384h-0.16q-0.832-2.208-0.832-3.936 0-0.48 0.096-0.96 2.944 1.44 4.736 1.44 0.992 0 3.008-0.576t1.984-1.248q0-0.416-0.544-0.416-0.832 0-2.4 0.224t-2.4 0.224q-0.864 0-1.888-0.448t-1.056-1.216q0-0.16 0.064-0.224t0.128-0.096 0.192 0 0.256 0.032 0.288 0q0.288 0 0.832 0.096t0.8 0.064q0.992 0 4.064-1.152t3.072-1.824q0-0.384-0.576-0.544t-1.12-0.16q-0.448 0-1.344 0.256t-1.952 0.576-1.408 0.416q0.128-0.64 0.128-1.024 0-1.504-0.8-3.488t-1.856-2.976q-0.864-0.768-2.304-1.056-0.896-1.152-2.784-2.080t-3.392-0.96q-0.288 0-0.864 0.128t-0.768 0.128l-0.704 0.992 0.192 0.032q0.224 0 0.704-0.064t0.672-0.064q1.088 0 2.496 0.448-0.896 0.448-1.568 0.608-0.064 0.032-0.416 0.096t-0.576 0.096-0.448 0.192-0.224 0.352q1.792-0.192 2.688-0.192 1.216 0 1.92 0.224-2.464 0.288-3.776 1.696t-1.344 3.872q0 0.864 0.128 1.6 0.608 3.84 2.336 11.456 1.056 4.96 1.184 5.472l0.032 0.128q-5.12-1.6-8.032-5.952t-2.912-9.856zM9.056 10.997q0 0.192 0.096 0.384-0.032-0.512 0.576-0.896t1.152-0.384q0.256 0 0.64 0.16-0.32-0.416-0.928-0.416-0.544 0-1.024 0.32t-0.512 0.832zM10.112 13.397q0-0.416 0.352-0.736t0.736-0.352 0.768 0.352 0.32 0.736-0.32 0.768-0.768 0.32-0.736-0.32-0.352-0.768zM11.392 13.045q0 0.256 0.288 0.256t0.288-0.256q0-0.288-0.288-0.288t-0.288 0.288zM16.768 10.261q0.256-0.416 1.184-0.416 0.416 0 1.056 0.32-0.32-0.704-1.12-0.704-0.992 0-1.12 0.8zM17.504 12.757q0-0.384 0.288-0.64t0.64-0.288q0.384 0 0.672 0.288t0.256 0.64q0 0.352-0.256 0.64t-0.672 0.288q-0.352 0-0.64-0.288t-0.288-0.64zM18.624 12.437q0 0.256 0.224 0.256 0.256 0 0.256-0.256 0-0.224-0.256-0.224-0.224 0-0.224 0.224z"></path>
</svg>
