<!-- Generated by IcoMoon.io -->
<svg version="1.1" xmlns="http://www.w3.org/2000/svg" width="20" height="32" viewBox="0 0 20 32">
<title>dwolla</title>
<path d="M0 26.005q0-2.432 1.824-3.584 0.928-0.608 1.728-0.928 3.648-1.568 3.904-1.728-0.672-0.992-1.728-2.176-1.632-1.92-1.92-2.272-3.488-4.224-3.008-7.904 0.224-1.76 1.344-2.912 0.416-0.448 1.344-1.024 1.184-0.672 1.44-0.8 0.16-0.064 0.736-0.288t0.928-0.416l1.504-0.672 2.208-0.96q1.856-0.8 2.752-1.28 0.64-0.352 0.8 0.192 0 0.352-0.864 0.8-1.952 1.28-2.048 3.648-0.032 0.928 0.16 1.856t0.416 1.504 0.8 1.472 0.864 1.184 1.12 1.28 0.992 1.152q0.192 0.224 0.928 1.056t1.056 1.184 0.896 1.216 0.832 1.472 0.512 1.568 0.224 1.856q0 1.216-0.416 2.176-0.384 1.024-0.896 1.664t-1.536 1.248q-1.12 0.672-1.696 0.96-0.736 0.384-1.952 0.864-0.512 0.192-1.12 0.48t-0.736 0.32l-2.848 1.248-1.152 0.576q-1.024 0.512-1.6 0.672-2.72 0.672-4.256-0.768t-1.536-3.936z"></path>
</svg>
