<!-- Generated by IcoMoon.io -->
<svg version="1.1" xmlns="http://www.w3.org/2000/svg" width="45" height="32" viewBox="0 0 45 32">
<title>ebay1</title>
<path d="M0 17.013q0-0.992 0.16-1.728t0.704-1.472 1.472-1.248 2.688-0.768 4.096-0.288q2.816 0 4.736 0.416 1.248 0.256 1.856 0.576v5.152h-9.376q0 0.672 0.064 1.056t0.288 0.992 0.864 0.864 1.568 0.288q2.72 0 2.72-1.952h3.872v2.848q-0.864 0.416-1.792 0.608-2.176 0.48-4.8 0.48-2.944 0-4.832-0.416t-2.784-1.248-1.184-1.792-0.32-2.368zM6.336 15.925h5.696q0-0.576-0.032-0.864t-0.288-0.736-0.864-0.704-1.728-0.224q-0.992 0-1.6 0.224t-0.864 0.736-0.256 0.768-0.064 0.8zM15.712 21.749v-2.848h2.496q-0.032 1.632-2.368 2.784-0.064 0.064-0.128 0.064zM15.712 21.749q0.064 0 0.128-0.064 2.336-1.152 2.368-2.784h-2.496v-1.248h2.592q0.032-0.384 0.032-0.736 0-1.44-0.416-2.432-0.512-1.248-2.208-1.984v-5.856h3.424v6.496h0.064q0.992-1.408 2.816-1.408 1.376 0 2.208 0.832-1.28 0.928-1.28 3.264 0 3.328 2.432 3.904-0.032 0.992-0.16 1.728t-0.512 1.504-1.024 1.152-1.728 0.416q-2.048 0-2.912-1.6h-0.032v1.344h-3.296v-2.528zM15.712 17.653v-5.152q1.696 0.736 2.208 1.984 0.416 0.992 0.416 2.432 0 0.352-0.032 0.736h-2.592zM19.136 18.005q0 2.464 0.288 3.424t1.12 0.992q0.896 0 1.184-0.992t0.288-3.424v-0.16q0-1.12-0.032-1.664t-0.16-1.184-0.416-0.896-0.864-0.256q-0.512 0-0.8 0.256t-0.416 0.96-0.16 1.216-0.032 1.728zM22.944 15.829q0-2.336 1.28-3.264 0.544 0.576 0.832 1.696t0.32 1.76 0 2.048v1.664q-2.432-0.576-2.432-3.904zM23.2 10.741q0-2.208 1.28-3.008 1.088-0.832 3.232-0.832 0.128 0 1.568 0.096l3.424 6.976v3.264q0 0.448 0.064 1.248t0.064 1.088h-3.2l-0.16-1.664h-0.064q-1.056 1.856-3.2 1.856-0.576 0-0.832-0.032v-1.664q0-1.376 0-2.048t-0.32-1.76-0.832-1.696q1.216-0.928 4.32-0.928h0.768v-0.992q0-0.928-0.256-1.376t-1.152-0.448q-0.832 0-1.056 0.48t-0.224 1.44h-3.424zM26.304 15.669q0 1.984 1.312 1.984 0.416 0 0.736-0.16t0.48-0.448 0.32-0.576 0.128-0.768 0.064-0.736 0-0.768-0.032-0.64q-0.128 0-0.544 0t-0.512 0.032l-0.448 0.064t-0.448 0.096-0.352 0.16-0.288 0.256-0.224 0.352-0.16 0.512-0.032 0.64zM28.448 5.333h4.928l3.2 7.424 3.488-7.424h4.576l-6.048 11.488v6.080h-4.512v-6.080l-1.376-2.848v-2.912q0-1.76-0.672-2.784t-2.752-1.28zM29.28 6.997q2.048 0.288 2.752 1.28t0.672 2.784v2.912z"></path>
</svg>
