<!-- Generated by IcoMoon.io -->
<svg version="1.1" xmlns="http://www.w3.org/2000/svg" width="40" height="32" viewBox="0 0 40 32">
<title>ebay</title>
<path d="M25.325 16.488c-1.819 0.056-2.95 0.387-2.95 1.581 0 0.775 0.619 1.613 2.188 1.613 2.106 0 3.225-1.15 3.225-3.025v-0.206c-0.738 0-1.644 0.006-2.462 0.038zM29.794 18.969c0 0.581 0.019 1.163 0.063 1.675h-1.863c-0.050-0.431-0.069-0.85-0.069-1.262-1.006 1.238-2.206 1.594-3.869 1.594-2.469 0-3.788-1.306-3.788-2.813 0-2.188 1.8-2.956 4.913-3.025 0.856-0.019 1.813-0.025 2.606-0.025v-0.213c0-1.463-0.938-2.063-2.563-2.063-1.206 0-2.1 0.5-2.188 1.363h-2.106c0.225-2.15 2.481-2.694 4.469-2.694 2.381 0 4.394 0.844 4.394 3.363v4.1zM7.981 15.419c-0.144-3.419-5.469-3.537-5.9 0h5.9zM2.044 16.756c0.219 3.644 4.95 3.587 5.7 1.35h2.069c-0.4 2.15-2.688 2.881-4.65 2.881-3.575 0-5.156-1.969-5.156-4.625 0-2.925 1.637-4.85 5.188-4.85 2.831 0 4.9 1.481 4.9 4.713v0.531h-8.050zM15.231 19.613c1.863 0 3.137-1.344 3.137-3.363 0-2.025-1.275-3.363-3.137-3.363-1.85 0-3.137 1.338-3.137 3.363 0 2.019 1.287 3.363 3.137 3.363zM10.094 7.987h2.006v5.037c0.981-1.169 2.338-1.512 3.669-1.512 2.231 0 4.713 1.506 4.713 4.762 0 2.725-1.969 4.712-4.75 4.712-1.456 0-2.819-0.519-3.669-1.556 0 0.413-0.025 0.825-0.069 1.219h-1.969c0.031-0.637 0.069-1.425 0.069-2.069v-10.594zM40 11.844l-6.2 12.175h-2.244l1.781-3.381-4.663-8.794h2.344l3.431 6.869 3.425-6.869h2.125z"></path>
</svg>
