<!-- Generated by IcoMoon.io -->
<svg version="1.1" xmlns="http://www.w3.org/2000/svg" width="32" height="32" viewBox="0 0 32 32">
<title>edge</title>
<path d="M1.607 14.26c0.007-0.010 0.014-0.020 0.021-0.030-0.001 0.010-0.003 0.020-0.004 0.030h-0.017zM30.393 15.229c0-2.752-0.485-5.279-1.8-7.65-2.562-4.587-7.098-7.079-12.412-7.079-8.746-0.017-13.642 6.576-14.552 13.73 2.652-3.832 7.317-7.586 13.773-7.81 0 0 6.854 0 6.214 6.56h-10.991c0.398-2.337 1.16-3.687 2.146-4.933-4.691 2.181-7.616 6.006-7.546 11.77 0.052 4.465 3.133 9.052 7.546 10.748 5.21 1.99 12.049 0.45 15.008-1.333v-6.525c-5.054 3.531-16.929 3.808-17.016-4.223h19.63v-3.254z"></path>
</svg>
