<!-- Generated by IcoMoon.io -->
<svg version="1.1" xmlns="http://www.w3.org/2000/svg" width="36" height="32" viewBox="0 0 36 32">
<title>edit1</title>
<path d="M25.144 21.556l2-2c0.313-0.313 0.856-0.094 0.856 0.356v9.088c0 1.656-1.344 3-3 3h-22c-1.656 0-3-1.344-3-3v-22c0-1.656 1.344-3 3-3h17.094c0.444 0 0.669 0.537 0.356 0.856l-2 2c-0.094 0.094-0.219 0.144-0.356 0.144h-15.094v22h22v-7.094c0-0.131 0.050-0.256 0.144-0.35zM34.931 8.944l-16.413 16.413-5.65 0.625c-1.637 0.181-3.031-1.2-2.85-2.85l0.625-5.65 16.413-16.413c1.431-1.431 3.744-1.431 5.169 0l2.7 2.7c1.431 1.431 1.431 3.75 0.006 5.175zM28.756 10.875l-3.631-3.631-11.613 11.619-0.456 4.081 4.081-0.456 11.619-11.613zM32.806 5.894l-2.7-2.7c-0.256-0.256-0.675-0.256-0.925 0l-1.931 1.931 3.631 3.631 1.931-1.931c0.25-0.263 0.25-0.675-0.006-0.931z"></path>
</svg>
