<!-- Generated by IcoMoon.io -->
<svg version="1.1" xmlns="http://www.w3.org/2000/svg" width="32" height="32" viewBox="0 0 32 32">
<title>envelope-open1</title>
<path d="M30.912 10.282c-0.294-0.243-6.983-5.622-8.453-6.791-1.381-1.104-3.744-3.491-6.458-3.491-2.7 0-5.040 2.357-6.458 3.491-1.529 1.216-8.192 6.575-8.447 6.784-0.671 0.554-1.095 1.386-1.095 2.317v0 16.407c0 1.657 1.343 3 3 3h26c1.657 0 3-1.343 3-3v-16.406c0-0.928-0.421-1.758-1.083-2.308l-0.005-0.004zM29 28.625c0 0.207-0.168 0.375-0.375 0.375v0h-25.25c-0.207 0-0.375-0.168-0.375-0.375v0-15.853c0-0.113 0.051-0.22 0.139-0.292 0.992-0.801 6.8-5.472 8.273-6.643 1.135-0.907 3.113-2.837 4.588-2.837 1.481 0 3.491 1.961 4.588 2.837 1.473 1.171 7.281 5.843 8.273 6.645 0.085 0.069 0.139 0.174 0.139 0.291 0 0 0 0 0 0v-0 15.852zM27.001 16.893c0.266 0.322 0.217 0.8-0.109 1.061-1.811 1.455-3.705 2.975-4.433 3.554-1.419 1.134-3.758 3.491-6.458 3.491-2.716 0-5.080-2.39-6.458-3.491-0.705-0.56-2.609-2.088-4.433-3.554-0.326-0.262-0.375-0.739-0.109-1.061l0.954-1.158c0.261-0.317 0.729-0.365 1.049-0.108 1.789 1.438 3.66 2.94 4.41 3.536 1.097 0.876 3.107 2.837 4.588 2.837 1.475 0 3.453-1.93 4.588-2.837 0.75-0.596 2.622-2.098 4.41-3.535 0.32-0.257 0.788-0.209 1.049 0.108l0.954 1.158z"></path>
</svg>
