<!-- Generated by IcoMoon.io -->
<svg version="1.1" xmlns="http://www.w3.org/2000/svg" width="40" height="32" viewBox="0 0 40 32">
<title>erlang</title>
<path d="M1.356 15.4c-0.006 5.425 1.813 9.969 4.919 13.256h-6.275v-25.313h5.45c-2.594 3.138-4.1 7.262-4.094 12.056zM40 3.35h-5.225c1.962 2.669 3.044 6.094 2.888 10.169 0.031 0.375 0.031 0.731 0 1.506h-23.275c-0.012 6.856 2.431 12.181 8.663 12.206 4.281-0.019 7.375-3.188 9.494-6.631l6.025 3.012c-1.087 1.931-2.281 3.613-3.619 5.050h5.050v-25.313zM34.95 28.663s0-0.006 0 0v0zM34.756 3.35h0.019l-0.006-0.006-0.013 0.006zM20.337 3.95c-2.869 0.006-5.319 2.094-5.575 5.2h10.619c-0.069-3.106-2.156-5.194-5.044-5.2z"></path>
</svg>
