<!-- Generated by IcoMoon.io -->
<svg version="1.1" xmlns="http://www.w3.org/2000/svg" width="32" height="32" viewBox="0 0 32 32">
<title>esc</title>
<path d="M16 31.333c-1.859 0-3.671-0.343-5.385-1.021-1.656-0.654-3.166-1.596-4.488-2.8-2.687-2.448-4.363-5.779-4.721-9.381-0.073-0.733 0.462-1.386 1.195-1.459s1.386 0.462 1.458 1.195c0.292 2.945 1.664 5.67 3.863 7.673 1.082 0.986 2.317 1.757 3.672 2.291 1.401 0.553 2.884 0.834 4.406 0.834 1.62 0 3.192-0.317 4.671-0.942 0.711-0.301 1.396-0.673 2.038-1.106 0.636-0.43 1.234-0.923 1.777-1.466s1.036-1.141 1.466-1.777c0.433-0.641 0.805-1.327 1.106-2.038 0.626-1.479 0.943-3.051 0.943-4.671 0-1.522-0.281-3.004-0.834-4.406-0.535-1.354-1.306-2.59-2.291-3.672-2.003-2.199-4.728-3.571-7.673-3.863-0.733-0.073-1.268-0.726-1.195-1.458s0.726-1.268 1.459-1.195c3.602 0.358 6.933 2.035 9.381 4.721 1.204 1.322 2.146 2.832 2.8 4.488 0.678 1.715 1.021 3.527 1.021 5.386 0 1.979-0.388 3.9-1.153 5.709-0.368 0.869-0.823 1.708-1.353 2.492-0.524 0.776-1.127 1.507-1.79 2.17s-1.393 1.266-2.17 1.79c-0.784 0.53-1.622 0.985-2.492 1.353-1.809 0.765-3.73 1.153-5.709 1.153zM16.943 15.724l-11.057-11.057h4.781c0.736 0 1.333-0.597 1.333-1.333s-0.597-1.333-1.333-1.333h-8c-0.736 0-1.333 0.597-1.333 1.333v8c0 0.736 0.597 1.333 1.333 1.333s1.333-0.597 1.333-1.333v-4.781l11.057 11.057c0.26 0.26 0.602 0.391 0.943 0.391s0.682-0.13 0.943-0.391c0.521-0.52 0.521-1.365 0-1.885z"></path>
</svg>
