<!-- Generated by IcoMoon.io -->
<svg version="1.1" xmlns="http://www.w3.org/2000/svg" width="26" height="32" viewBox="0 0 26 32">
<title>eventful</title>
<path d="M0 14.901q0-3.424 0.928-6.464 0.896-2.944 2.656-5.088 1.792-2.144 4.32-3.264 2.592-1.152 5.696-1.152 4.096 0 6.944 1.952 2.88 1.888 4.352 5.024 1.472 3.040 1.472 6.272 0 2.976-1.504 3.84t-4.224 0.864h-13.536q0 2.72 0.96 4.736 0.928 2.080 2.432 3.072 1.6 1.056 3.392 1.056 1.312 0 2.272-0.32 0.992-0.32 1.984-1.056 0.992-0.704 1.792-1.504t2.112-2.208q0.48-0.512 1.504-0.512 1.088 0 1.728 0.672 0.672 0.672 0.672 1.856 0 1.024-0.736 2.496-0.672 1.376-2.24 2.72-1.472 1.312-3.712 2.176-2.272 0.864-5.152 0.864-6.688 0-10.4-4.32-3.712-4.352-3.712-11.712zM7.104 12.405h12.544q-0.224-4-1.92-6.016-1.632-1.984-4.352-1.984-2.624 0-4.256 2.016-1.664 2.016-2.016 5.984z"></path>
</svg>
