<!-- Generated by IcoMoon.io -->
<svg version="1.1" xmlns="http://www.w3.org/2000/svg" width="32" height="32" viewBox="0 0 32 32">
<title>eventasaurus</title>
<path d="M0 25.845v-21.696q0-2.112 1.376-3.68t3.456-1.536h22.304q2.24 0 3.744 1.184t1.472 3.424v1.888q-2.368-0.448-3.552-0.64-1.696-0.224-1.728-0.224-0.32-0.096-0.928-0.32t-1.088-0.352-1.056-0.096q-1.984 0-4.224 1.504-1.088 0.096-3.040 0.224t-3.584 0.288-3.072 0.448h-0.064l-0.032 0.032h-0.128l-0.032 0.032h-0.032q-2.304 0.448-2.784 0.832-0.576 0.48-0.64 2.272v5.28l-0.096 0.576 16.832 0.416 2.56-0.864q-1.408 2.528-2.24 4.224l-3.392 1.504-12.992 0.224q-0.096 0.096-0.32 0.096t-0.352 0.16q0.128 0.832 0.224 1.248 0.384 1.664 3.584 1.888 6.592 0.416 10.72 0.416 1.216 0 3.84-0.64t4.064-0.64q2.080 0 3.552 0.928v1.728q0 4.96-4.928 4.96h-23.136q-1.952 0-3.104-1.536t-1.184-3.552zM22.080 8.373q0-0.448 0.32-0.8t0.768-0.32 0.8 0.32 0.32 0.8-0.32 0.768-0.8 0.32-0.768-0.32-0.32-0.768z"></path>
</svg>
