<!-- Generated by IcoMoon.io -->
<svg version="1.1" xmlns="http://www.w3.org/2000/svg" width="27" height="32" viewBox="0 0 27 32">
<title>eventbrite</title>
<path d="M0.032 26.997q0.096-0.992 0.384-2.112 0.352-1.44 2.304-11.232t2.272-11.168q0.384-1.664 0.768-2.336t1.248-0.928 2.784-0.288h7.712q1.888 0 4.32 0.032t3.712 0.032q1.312 0 1.6 1.44 0.32 1.536-0.736 2.944-0.96 1.28-2.592 1.28h-12.832l-1.6 7.456 11.264 0.096q1.408 0 1.728 1.44t-0.672 2.688q-0.864 1.056-2.24 1.056h-11.52l-1.536 7.936h13.824q2.048 0 2.464 1.408t-0.544 2.784-2.176 1.408h-17.696q-0.96 0-1.504-0.544t-0.704-1.472-0.032-1.92z"></path>
</svg>
