<!-- Generated by IcoMoon.io -->
<svg version="1.1" xmlns="http://www.w3.org/2000/svg" width="27" height="32" viewBox="0 0 27 32">
<title>evernote</title>
<path d="M0 8.821q0-1.28 0.48-1.856 0.288-0.448 0.832-0.672 0.576-0.288 1.504-0.288h3.008q0.48 0 0.832-0.352t0.352-0.832q0-0.672-0.032-1.408v-1.888q0-0.8 0.384-1.408 0.48-0.672 1.6-0.992 0.352-0.192 1.696-0.192h0.608q1.888 0.064 3.136 0.544 1.216 0.512 1.44 1.984 0.832-0.032 1.536-0.032 1.696 0 2.848 0.16 3.104 0.384 4.128 0.768 1.344 0.416 1.696 2.144 0.32 1.76 0.576 6.72 0.16 2.848 0.16 4.704 0 1.408-0.096 2.272-0.512 5.504-1.376 8.128-0.448 1.344-0.896 2.208t-0.864 1.344-1.184 0.736-1.344 0.288-1.888 0.032q-3.456 0-4.64-0.8t-1.216-3.424q0-1.44 0.32-2.304t1.056-1.184 1.472-0.416q0.48-0.032 1.28-0.032h0.896q0.128 0 0.192 0.032t0 0.16-0.064 0.256-0.096 0.352-0.064 0.416q0 0.288 0.064 0.576t0.032 0.384-0.224 0.096h-0.64t-0.32 0-0.32 0.064-0.256 0.064-0.256 0.128-0.192 0.192-0.128 0.288-0.032 0.384q0 0.448 0.128 0.736t0.256 0.448 0.576 0.224 0.704 0.064h1.024q1.824 0 2.336-0.416t0.512-2.048q0-2.432-0.576-3.296t-1.824-0.992q-2.816-0.288-3.808-0.64-1.696-0.64-1.696-3.808 0-0.064-0.064-0.064t-0.096 0.064q0 2.144-0.576 3.84l-0.256 0.768q-0.352 0.8-1.184 0.832h-0.192q-0.768 0-1.728-0.256-4.064-0.512-6.336-1.504-0.768-0.352-1.184-1.28-0.544-1.12-1.12-4.128t-0.768-4.256q-0.128-1.056-0.128-1.632zM0.192 5.013v-0.064l5.856-5.76q0-0.032 0.032-0.032l-0.096 0.192q-0.352 0.64-0.352 1.536 0 0.704 0.032 3.296 0 0.32-0.32 0.32h-2.976q-1.088 0-1.888 0.352-0.16 0.096-0.288 0.16zM18.368 14.293q0.672-0.096 1.472-0.096 1.44 0.032 2.592 0.576 0-2.72-1.952-2.784h-0.096q-0.96 0-1.408 0.64-0.48 0.672-0.608 1.664z"></path>
</svg>
