<!-- Generated by IcoMoon.io -->
<svg version="1.1" xmlns="http://www.w3.org/2000/svg" width="28" height="32" viewBox="0 0 28 32">
<title>expand-arrows-alt</title>
<path d="M28.006 21.5v7c0 0.831-0.669 1.5-1.5 1.5h-7c-1.337 0-2.006-1.619-1.063-2.563l2.262-2.262-6.706-6.7-6.7 6.706 2.263 2.256c0.944 0.944 0.275 2.563-1.063 2.563h-7c-0.831 0-1.5-0.669-1.5-1.5v-7c0-1.337 1.619-2.006 2.563-1.063l2.263 2.262 6.706-6.7-6.706-6.706-2.263 2.269c-0.944 0.944-2.563 0.275-2.563-1.063v-7c0-0.831 0.669-1.5 1.5-1.5h7c1.338 0 2.006 1.619 1.063 2.563l-2.263 2.263 6.7 6.7 6.706-6.706-2.262-2.256c-0.944-0.944-0.275-2.563 1.063-2.563h7c0.831 0 1.5 0.669 1.5 1.5v7c0 1.338-1.619 2.006-2.563 1.063l-2.262-2.262-6.706 6.7 6.706 6.706 2.262-2.262c0.944-0.95 2.563-0.281 2.563 1.056z"></path>
</svg>
