<!-- Generated by IcoMoon.io -->
<svg version="1.1" xmlns="http://www.w3.org/2000/svg" width="36" height="32" viewBox="0 0 36 32">
<title>external-link-alt</title>
<path d="M36 1.5v7.999c0 1.341-1.623 1.999-2.561 1.061l-2.232-2.232-15.22 15.22c-0.586 0.586-1.536 0.586-2.121 0l-1.414-1.414c-0.586-0.586-0.586-1.536 0-2.121l15.22-15.22-2.231-2.232c-0.942-0.942-0.275-2.561 1.061-2.561h7.998c0.828 0 1.5 0.672 1.5 1.5zM25.439 16.925l-1 1c-0.271 0.271-0.439 0.646-0.439 1.061 0 0 0 0 0 0v0 9.015h-20v-20h16.5c0.414-0 0.789-0.168 1.061-0.439l1-1c0.945-0.945 0.276-2.561-1.061-2.561h-18.5c-1.657 0-3 1.343-3 3v22c0 1.657 1.343 3 3 3h22c1.657 0 3-1.343 3-3v-11.015c0-1.336-1.616-2.006-2.561-1.061z"></path>
</svg>
