<!-- Generated by IcoMoon.io -->
<svg version="1.1" xmlns="http://www.w3.org/2000/svg" width="36" height="32" viewBox="0 0 36 32">
<title>eye-slash</title>
<path d="M17.918 24.499l2.036 2.909c-0.586 0.059-1.266 0.092-1.954 0.092h-0c-7.488 0-14.061-3.997-17.585-9.977-0.261-0.436-0.415-0.961-0.415-1.523s0.154-1.087 0.423-1.537l-0.008 0.014c1.501-2.548 3.557-4.736 6.002-6.409l3.567 5.096c-0.313 0.887-0.484 1.841-0.484 2.835 0 4.671 3.758 8.455 8.418 8.499zM35.585 17.523c-1.979 3.359-4.922 6.091-8.448 7.842l0.001 0.001 2.592 3.7c0.475 0.679 0.31 1.614-0.369 2.089l-0.819 0.574c-0.679 0.475-1.614 0.31-2.089-0.369l-20.181-28.426c-0.475-0.679-0.31-1.614 0.369-2.089l0.819-0.574c0.679-0.475 1.614-0.31 2.089 0.369l3.19 4.539c1.68-0.443 3.444-0.679 5.262-0.679 7.488 0 14.061 3.997 17.585 9.977 0.261 0.436 0.415 0.961 0.415 1.523s-0.154 1.087-0.423 1.537l0.008-0.014zM26.5 16c0-4.698-3.802-8.5-8.5-8.5-1.121 0-2.191 0.217-3.171 0.611l1.206 1.691c1.617-0.511 3.44-0.385 5.025 0.463h-0.002c-1.478 0-2.676 1.198-2.676 2.676 0 1.477 1.197 2.676 2.676 2.676 1.478 0 2.676-1.198 2.676-2.676v-0.002c1.154 2.156 1.020 4.87-0.516 6.934v0.001l1.207 1.691c1.292-1.491 2.073-3.436 2.073-5.566zM16.376 22.295l-4.846-6.922c-0.313 3.274 1.832 6.147 4.846 6.922z"></path>
</svg>
