<!-- Generated by IcoMoon.io -->
<svg version="1.1" xmlns="http://www.w3.org/2000/svg" width="36" height="32" viewBox="0 0 36 32">
<title>eye</title>
<path d="M35.585 14.477c-3.524-5.98-10.096-9.977-17.585-9.977-7.491 0-14.062 4-17.585 9.977-0.261 0.436-0.415 0.961-0.415 1.523s0.154 1.087 0.423 1.537l-0.008-0.014c3.524 5.98 10.097 9.977 17.585 9.977 7.491 0 14.062-4 17.585-9.977 0.261-0.436 0.415-0.961 0.415-1.523s-0.154-1.087-0.423-1.537l0.008 0.014zM18 24.5c-4.698 0-8.5-3.802-8.5-8.5s3.802-8.5 8.5-8.5c4.698 0 8.5 3.802 8.5 8.5s-3.802 8.5-8.5 8.5zM24.5 16c0 3.59-2.91 6.5-6.5 6.5s-6.5-2.91-6.5-6.5c0-1.107 0.277-2.149 0.765-3.061l-0 0.002c0 1.478 1.198 2.676 2.676 2.676s2.677-1.198 2.677-2.676c0-1.478-1.198-2.676-2.677-2.676l-0.002 0c0.912-0.488 1.954-0.765 3.061-0.765 3.59 0 6.5 2.91 6.5 6.5z"></path>
</svg>
