<!-- Generated by IcoMoon.io -->
<svg version="1.1" xmlns="http://www.w3.org/2000/svg" width="32" height="32" viewBox="0 0 32 32">
<title>facebook3</title>
<path d="M22.667 4.667v2.667h-2.667c-0.736 0-1.404 0.3-1.885 0.781s-0.781 1.149-0.781 1.885v4c0 0.736 0.597 1.333 1.333 1.333h3.625l-0.667 2.667h-2.959c-0.736 0-1.333 0.597-1.333 1.333v9.333h-2.667v-9.333c0-0.736-0.597-1.333-1.333-1.333h-2.667v-2.667h2.667c0.736 0 1.333-0.597 1.333-1.333v-4c0-1.473 0.596-2.804 1.563-3.771s2.297-1.563 3.771-1.563zM24 2h-4c-2.209 0-4.211 0.897-5.657 2.343s-2.343 3.448-2.343 5.657v2.667h-2.667c-0.736 0-1.333 0.597-1.333 1.333v5.333c0 0.736 0.597 1.333 1.333 1.333h2.667v9.333c0 0.736 0.597 1.333 1.333 1.333h5.333c0.736 0 1.333-0.597 1.333-1.333v-9.333h2.667c0.621 0 1.144-0.425 1.293-1.009l1.333-5.333c0.179-0.715-0.256-1.439-0.971-1.617-0.111-0.028-0.223-0.041-0.323-0.040h-4v-2.667h4c0.736 0 1.333-0.597 1.333-1.333v-5.333c0-0.736-0.597-1.333-1.333-1.333z"></path>
</svg>
