<!-- Generated by IcoMoon.io -->
<svg version="1.1" xmlns="http://www.w3.org/2000/svg" width="32" height="32" viewBox="0 0 32 32">
<title>fax</title>
<path d="M4 8h-2c-1.104 0-2 0.896-2 2v20c0 1.104 0.896 2 2 2h2c1.104 0 2-0.896 2-2v-20c0-1.104-0.896-2-2-2zM30 10v-5.172c0-0.531-0.211-1.039-0.586-1.414l-2.829-2.828c-0.375-0.375-0.884-0.586-1.414-0.586h-15.171c-1.104 0-2 0.896-2 2v28c0 1.104 0.896 2 2 2h20c1.104 0 2-0.896 2-2v-18c0-1.104-0.896-2-2-2zM18 27c0 0.552-0.448 1-1 1h-2c-0.553 0-1-0.448-1-1v-2c0-0.552 0.447-1 1-1h2c0.552 0 1 0.448 1 1v2zM18 19c0 0.552-0.448 1-1 1h-2c-0.553 0-1-0.448-1-1v-2c0-0.552 0.447-1 1-1h2c0.552 0 1 0.448 1 1v2zM26 27c0 0.552-0.448 1-1 1h-2c-0.552 0-1-0.448-1-1v-2c0-0.552 0.448-1 1-1h2c0.552 0 1 0.448 1 1v2zM26 19c0 0.552-0.448 1-1 1h-2c-0.552 0-1-0.448-1-1v-2c0-0.552 0.448-1 1-1h2c0.552 0 1 0.448 1 1v2zM27 12h-16v-9h13v2c0 0.553 0.448 1 1 1h2v6z"></path>
</svg>
