<!-- Generated by IcoMoon.io -->
<svg version="1.1" xmlns="http://www.w3.org/2000/svg" width="32" height="32" viewBox="0 0 32 32">
<title>feather1</title>
<path d="M24.148 21.723c0.092-0.071 0.173-0.153 0.244-0.245l3.537-3.548c1.823-1.823 2.735-4.215 2.735-6.603s-0.912-4.78-2.735-6.603-4.215-2.735-6.603-2.735-4.78 0.912-6.603 2.735l-9 9c-0.26 0.26-0.391 0.601-0.391 0.943v10.781l-3.609 3.609c-0.521 0.521-0.521 1.365 0 1.885s1.365 0.521 1.885 0l3.609-3.609h10.781c0.369 0 0.703-0.149 0.944-0.392zM12.552 22h7.553l-2.659 2.667h-7.561zM22.764 19.333h-7.545l7.057-7.057c0.521-0.521 0.521-1.365 0-1.885s-1.365-0.521-1.885 0l-12.391 12.391v-7.563l8.609-8.609c1.303-1.303 3.008-1.953 4.717-1.953s3.415 0.651 4.717 1.953 1.953 3.008 1.953 4.717-0.651 3.415-1.953 4.717z"></path>
</svg>
