<!-- Generated by IcoMoon.io -->
<svg version="1.1" xmlns="http://www.w3.org/2000/svg" width="32" height="32" viewBox="0 0 32 32">
<title>figma</title>
<path d="M17.333 17.333c0-0.921 0.372-1.752 0.976-2.357s1.436-0.976 2.357-0.976 1.752 0.372 2.357 0.976 0.976 1.436 0.976 2.357-0.372 1.752-0.976 2.357-1.436 0.976-2.357 0.976-1.752-0.372-2.357-0.976-0.976-1.436-0.976-2.357zM11.333 11.333c-0.921 0-1.752-0.372-2.357-0.976s-0.976-1.436-0.976-2.357 0.372-1.752 0.976-2.357 1.436-0.976 2.357-0.976h3.333v6.667zM17.333 11.333v-6.667h3.333c0.921 0 1.752 0.372 2.357 0.976s0.976 1.436 0.976 2.357-0.372 1.752-0.976 2.357-1.436 0.976-2.357 0.976zM14.667 23.333v3.333c0 0.921-0.372 1.752-0.976 2.357s-1.436 0.976-2.357 0.976-1.752-0.372-2.357-0.976-0.976-1.436-0.976-2.357 0.372-1.752 0.976-2.357 1.436-0.976 2.357-0.976zM5.333 17.333c0 1.656 0.673 3.159 1.757 4.243 0.149 0.149 0.307 0.291 0.471 0.424-0.164 0.133-0.321 0.275-0.471 0.424-1.084 1.084-1.757 2.587-1.757 4.243s0.673 3.159 1.757 4.243 2.587 1.757 4.243 1.757 3.159-0.673 4.243-1.757 1.757-2.587 1.757-4.243v-4.344c0.953 0.637 2.1 1.011 3.333 1.011 1.656 0 3.159-0.673 4.243-1.757s1.757-2.587 1.757-4.243-0.673-3.159-1.757-4.243c-0.149-0.149-0.307-0.291-0.471-0.424 0.164-0.133 0.321-0.275 0.471-0.424 1.084-1.084 1.757-2.587 1.757-4.243s-0.673-3.159-1.757-4.243-2.587-1.757-4.243-1.757h-9.333c-1.656 0-3.159 0.673-4.243 1.757s-1.757 2.587-1.757 4.243 0.673 3.159 1.757 4.243c0.149 0.149 0.307 0.291 0.471 0.424-0.164 0.133-0.321 0.275-0.471 0.424-1.084 1.084-1.757 2.587-1.757 4.243zM8 17.333c0-0.921 0.372-1.752 0.976-2.357s1.436-0.976 2.357-0.976h3.333v6.667h-3.333c-0.921 0-1.752-0.372-2.357-0.976s-0.976-1.436-0.976-2.357z"></path>
</svg>
