<!-- Generated by IcoMoon.io -->
<svg version="1.1" xmlns="http://www.w3.org/2000/svg" width="24" height="32" viewBox="0 0 24 32">
<title>file-archive1</title>
<path d="M23.121 6.121l-5.243-5.243c-0.543-0.543-1.293-0.879-2.121-0.879h-12.757c-1.657 0-3 1.343-3 3v26c0 1.657 1.343 3 3 3h18c1.657 0 3-1.343 3-3v-20.757c0-0.828-0.336-1.578-0.879-2.121v0zM16 3.243l4.757 4.757h-4.757v-4.757zM21 29h-18v-26h4.982v1h2v-1h3.018v6.5c0 0.828 0.672 1.5 1.5 1.5h6.5v18zM12.017 6h-2v-2h2v2zM10.017 6v2h-2v-2h2zM10.017 10v2h-2v-2h2zM12.017 10h-2v-2h2v2zM12.136 16.605c-0.070-0.347-0.373-0.605-0.736-0.605h-1.383v-2h-2v2l-1.231 6.069c-0.412 2.032 1.141 3.931 3.214 3.931 2.066 0 3.617-1.887 3.217-3.914l-1.081-5.481zM10.017 24.38c-1.12 0-2.028-0.757-2.028-1.69s0.908-1.69 2.028-1.69 2.028 0.757 2.028 1.69c0 0.933-0.908 1.69-2.028 1.69zM12.017 14h-2v-2h2v2z"></path>
</svg>
