<!-- Generated by IcoMoon.io -->
<svg version="1.1" xmlns="http://www.w3.org/2000/svg" width="24" height="32" viewBox="0 0 24 32">
<title>file-powerpoint1</title>
<path d="M23.119 6.119l-5.244-5.244c-0.563-0.563-1.325-0.881-2.119-0.881h-12.756c-1.656 0.006-3 1.35-3 3.006v26c0 1.656 1.344 3 3 3h18c1.656 0 3-1.344 3-3v-20.756c0-0.794-0.319-1.563-0.881-2.125zM20.756 8h-4.756v-4.756l4.756 4.756zM3 29v-26h10v6.5c0 0.831 0.669 1.5 1.5 1.5h6.5v18h-18zM7.5 25.25v-10.5c0-0.412 0.338-0.75 0.75-0.75h4.325c2.294 0 3.925 1.688 3.925 4.144 0 4.644-4.294 4.156-5.969 4.156v2.95c0 0.413-0.338 0.75-0.75 0.75h-1.531c-0.412 0-0.75-0.337-0.75-0.75zM10.531 19.788h1.438c0.494 0 0.869-0.15 1.131-0.45 0.531-0.613 0.525-1.781 0.006-2.363-0.256-0.288-0.619-0.438-1.088-0.438h-1.494v3.25z"></path>
</svg>
