<!-- Generated by IcoMoon.io -->
<svg version="1.1" xmlns="http://www.w3.org/2000/svg" width="23" height="32" viewBox="0 0 23 32">
<title>file-text</title>
<path d="M18.286 24.19v-1.143q0-0.25-0.161-0.411t-0.411-0.161h-12.571q-0.25 0-0.411 0.161t-0.161 0.411v1.143q0 0.25 0.161 0.411t0.411 0.161h12.571q0.25 0 0.411-0.161t0.161-0.411zM18.286 19.619v-1.143q0-0.25-0.161-0.411t-0.411-0.161h-12.571q-0.25 0-0.411 0.161t-0.161 0.411v1.143q0 0.25 0.161 0.411t0.411 0.161h12.571q0.25 0 0.411-0.161t0.161-0.411zM22.857 13.333v14.286q0 0.714-0.5 1.214t-1.214 0.5h-19.429q-0.714 0-1.214-0.5t-0.5-1.214v-24q0-0.714 0.5-1.214t1.214-0.5h9.714v9.714q0 0.714 0.5 1.214t1.214 0.5h9.714zM22.804 11.048h-9.089v-9.089q1.464 0.268 2.357 1.161l5.571 5.571q0.893 0.893 1.161 2.357z"></path>
</svg>
