<!-- Generated by IcoMoon.io -->
<svg version="1.1" xmlns="http://www.w3.org/2000/svg" width="32" height="32" viewBox="0 0 32 32">
<title>file4</title>
<path d="M23.448 11.333h-4.781v-4.781zM27.609 11.724l-9.333-9.333c-0.123-0.123-0.269-0.221-0.432-0.289s-0.337-0.101-0.511-0.101h-9.333c-1.104 0-2.107 0.449-2.828 1.172s-1.172 1.724-1.172 2.828v21.333c0 1.104 0.449 2.107 1.172 2.828s1.724 1.172 2.828 1.172h16c1.104 0 2.107-0.449 2.828-1.172s1.172-1.724 1.172-2.828v-14.667c0-0.368-0.149-0.701-0.391-0.943zM16 4.667v8c0 0.736 0.597 1.333 1.333 1.333h8v13.333c0 0.368-0.148 0.7-0.391 0.943s-0.575 0.391-0.943 0.391h-16c-0.368 0-0.7-0.148-0.943-0.391s-0.391-0.575-0.391-0.943v-21.333c0-0.368 0.148-0.7 0.391-0.943s0.575-0.391 0.943-0.391z"></path>
</svg>
