<!-- Generated by IcoMoon.io -->
<svg version="1.1" xmlns="http://www.w3.org/2000/svg" width="24" height="32" viewBox="0 0 24 32">
<title>file-alt1</title>
<path d="M18 15.5v1.75c0 0.413-0.337 0.75-0.75 0.75h-10.5c-0.412 0-0.75-0.337-0.75-0.75v-1.75c0-0.412 0.338-0.75 0.75-0.75h10.5c0.413 0 0.75 0.338 0.75 0.75zM17.25 20h-10.5c-0.412 0-0.75 0.337-0.75 0.75v1.75c0 0.413 0.338 0.75 0.75 0.75h10.5c0.413 0 0.75-0.337 0.75-0.75v-1.75c0-0.413-0.337-0.75-0.75-0.75zM24 8.244v20.756c0 1.656-1.344 3-3 3h-18c-1.656 0-3-1.344-3-3v-26c0-1.656 1.344-3 3-3h12.756c0.794 0 1.556 0.319 2.119 0.881l5.244 5.244c0.563 0.556 0.881 1.325 0.881 2.119zM16 3.244v4.756h4.756l-4.756-4.756zM21 29v-18h-6.5c-0.831 0-1.5-0.669-1.5-1.5v-6.5h-10v26h18z"></path>
</svg>
