<!-- Generated by IcoMoon.io -->
<svg version="1.1" xmlns="http://www.w3.org/2000/svg" width="24" height="32" viewBox="0 0 24 32">
<title>file-code1</title>
<path d="M23.121 6.121l-5.243-5.243c-0.543-0.543-1.293-0.879-2.121-0.879h-12.757c-1.657 0-3 1.343-3 3v26c0 1.657 1.343 3 3 3h18c1.657 0 3-1.343 3-3v-20.757c0-0.828-0.336-1.578-0.879-2.121v0zM20.757 8h-4.757v-4.757l4.757 4.757zM3 29v-26h10v6.5c0 0.828 0.672 1.5 1.5 1.5h6.5v18h-18zM9.355 21.805l-2.051-1.805 2.051-1.805c0.115-0.101 0.187-0.249 0.187-0.413 0-0.146-0.057-0.278-0.149-0.377l0 0-1.088-1.16c-0.211-0.226-0.56-0.229-0.777-0.025l-3.604 3.378c-0.231 0.217-0.232 0.585 0 0.802l3.604 3.378c0.098 0.092 0.229 0.149 0.375 0.149 0 0 0.001 0 0.001 0h-0c0.001 0 0.001 0 0.002 0 0.158 0 0.3-0.067 0.4-0.174l0-0 1.088-1.16c0.092-0.098 0.149-0.231 0.149-0.376 0-0.164-0.072-0.312-0.186-0.412l-0.001-0.001zM14.623 13.815l-1.525-0.443c-0.046-0.014-0.099-0.022-0.154-0.022-0.249 0-0.46 0.166-0.527 0.393l-0.001 0.004-3.413 11.757c-0.085 0.291 0.084 0.597 0.375 0.682l1.525 0.443c0.293 0.085 0.597-0.085 0.682-0.375l3.413-11.757c0.085-0.291-0.084-0.597-0.375-0.682zM20.076 19.599l-3.604-3.378c-0.22-0.207-0.569-0.198-0.777 0.025l-1.088 1.16c-0.092 0.098-0.149 0.231-0.149 0.376 0 0.164 0.072 0.312 0.186 0.412l0.001 0.001 2.051 1.805-2.051 1.805c-0.115 0.101-0.187 0.249-0.187 0.413 0 0.146 0.057 0.278 0.149 0.377l-0-0 1.088 1.16c0.101 0.107 0.243 0.174 0.401 0.174 0.146 0 0.278-0.057 0.376-0.149l-0 0h-0l3.604-3.378c0.231-0.217 0.231-0.585-0-0.802z"></path>
</svg>
