<!-- Generated by IcoMoon.io -->
<svg version="1.1" xmlns="http://www.w3.org/2000/svg" width="24" height="32" viewBox="0 0 24 32">
<title>file-word1</title>
<path d="M23.119 6.119l-5.244-5.244c-0.563-0.563-1.325-0.881-2.119-0.881h-12.756c-1.656 0.006-3 1.35-3 3.006v26c0 1.656 1.344 3 3 3h18c1.656 0 3-1.344 3-3v-20.756c0-0.794-0.319-1.563-0.881-2.125zM20.756 8h-4.756v-4.756l4.756 4.756zM3 29v-26h10v6.5c0 0.831 0.669 1.5 1.5 1.5h6.5v18h-18zM16.756 16c-0.356 0-0.663 0.25-0.731 0.594-1.287 6.106-1.275 5.962-1.313 6.469-0.012-0.075-0.025-0.163-0.044-0.269-0.050-0.319 0.019 0.012-1.475-6.219-0.081-0.337-0.381-0.575-0.731-0.575h-0.831c-0.344 0-0.644 0.238-0.731 0.569-1.525 6.188-1.5 6.012-1.55 6.481-0.006-0.069-0.012-0.156-0.031-0.262-0.044-0.325-0.881-4.581-1.194-6.188-0.069-0.35-0.375-0.606-0.737-0.606h-1.050c-0.487 0-0.844 0.456-0.731 0.925 0.5 2.038 1.669 6.844 2.075 8.5 0.081 0.337 0.381 0.569 0.731 0.569h1.575c0.344 0 0.644-0.231 0.725-0.569l1.119-4.462c0.094-0.387 0.156-0.75 0.188-1.081l0.181 1.081c0.006 0.025 0.787 3.156 1.119 4.462 0.081 0.331 0.381 0.569 0.725 0.569h1.544c0.344 0 0.644-0.231 0.725-0.569 1.3-5.119 1.887-7.438 2.156-8.5 0.119-0.475-0.238-0.931-0.725-0.931h-0.988z"></path>
</svg>
