<!-- Generated by IcoMoon.io -->
<svg version="1.1" xmlns="http://www.w3.org/2000/svg" width="24" height="32" viewBox="0 0 24 32">
<title>file-archive</title>
<path d="M14 8.5v-8.5h-3.975v2h-2v-2h-6.525c-0.831 0-1.5 0.669-1.5 1.5v29c0 0.831 0.669 1.5 1.5 1.5h21c0.831 0 1.5-0.669 1.5-1.5v-20.5h-8.5c-0.825 0-1.5-0.675-1.5-1.5zM5.994 2h2v2h-2v-2zM8.012 26c-2.075 0-3.625-1.9-3.213-3.931l1.225-6.069v-2h2v-2h-2v-2h2v-2h-2v-2h2v-2h2v2h-2v2h2v2h-2v2h2v2h-2v2h1.381c0.356 0 0.669 0.256 0.738 0.606l1.081 5.481c0.4 2.025-1.15 3.913-3.213 3.913zM10.056 22.688c0 0.931-0.906 1.688-2.025 1.688s-2.031-0.75-2.031-1.688c0-0.931 0.906-1.688 2.025-1.688s2.031 0.756 2.031 1.688zM24 7.619v0.381h-8v-8h0.381c0.4 0 0.781 0.156 1.063 0.438l6.119 6.125c0.281 0.281 0.438 0.662 0.438 1.056z"></path>
</svg>
