<!-- Generated by IcoMoon.io -->
<svg version="1.1" xmlns="http://www.w3.org/2000/svg" width="32" height="32" viewBox="0 0 32 32">
<title>file-import</title>
<path d="M1 18c-0.552 0-1 0.448-1 1v2c0 0.552 0.448 1 1 1h7v-4h-7zM22 8.5v-8.5h-12.5c-0.831 0-1.5 0.669-1.5 1.5v16.5h7.999v-4.074c0-0.893 1.081-1.338 1.71-0.704l5.981 6.027c0.413 0.416 0.413 1.087 0 1.503l-5.981 6.026c-0.629 0.634-1.71 0.188-1.71-0.704v-4.073h-7.999v8.5c0 0.831 0.669 1.5 1.5 1.5h21c0.831 0 1.5-0.669 1.5-1.5v-20.5h-8.5c-0.825 0-1.5-0.675-1.5-1.5zM31.563 6.563l-6.119-6.125c-0.281-0.281-0.663-0.438-1.063-0.438h-0.381v8h8v-0.381c0-0.394-0.156-0.775-0.438-1.056z"></path>
</svg>
