<!-- Generated by IcoMoon.io -->
<svg version="1.1" xmlns="http://www.w3.org/2000/svg" width="24" height="32" viewBox="0 0 24 32">
<title>file-pdf1</title>
<path d="M23.119 6.119l-5.244-5.244c-0.563-0.563-1.325-0.881-2.119-0.881h-12.756c-1.656 0.006-3 1.35-3 3.006v26c0 1.656 1.344 3 3 3h18c1.656 0 3-1.344 3-3v-20.756c0-0.794-0.319-1.563-0.881-2.125zM20.756 8h-4.756v-4.756l4.756 4.756zM3 29v-26h10v6.5c0 0.831 0.669 1.5 1.5 1.5h6.5v18h-18zM18.637 20.019c-0.762-0.75-2.938-0.544-4.025-0.406-1.075-0.656-1.794-1.563-2.3-2.894 0.244-1.006 0.631-2.537 0.338-3.5-0.262-1.637-2.362-1.475-2.662-0.369-0.275 1.006-0.025 2.406 0.438 4.194-0.625 1.494-1.556 3.5-2.213 4.65-1.25 0.644-2.938 1.637-3.188 2.887-0.206 0.988 1.625 3.45 4.756-1.95 1.4-0.462 2.925-1.031 4.275-1.256 1.181 0.637 2.562 1.063 3.487 1.063 1.594 0 1.75-1.762 1.094-2.419zM6.256 24.881c0.319-0.856 1.531-1.844 1.9-2.188-1.188 1.894-1.9 2.231-1.9 2.188zM11.356 12.969c0.463 0 0.419 2.006 0.113 2.55-0.275-0.869-0.269-2.55-0.113-2.55zM9.831 21.506c0.606-1.056 1.125-2.313 1.544-3.419 0.519 0.944 1.181 1.7 1.881 2.219-1.3 0.269-2.431 0.819-3.425 1.2zM18.056 21.194s-0.313 0.375-2.331-0.488c2.194-0.163 2.556 0.337 2.331 0.488z"></path>
</svg>
