<!-- Generated by IcoMoon.io -->
<svg version="1.1" xmlns="http://www.w3.org/2000/svg" width="24" height="32" viewBox="0 0 24 32">
<title>file-audio1</title>
<path d="M23.121 6.121l-5.243-5.243c-0.543-0.543-1.293-0.879-2.121-0.879h-12.757c-1.657 0-3 1.343-3 3v26c0 1.657 1.343 3 3 3h18c1.657 0 3-1.343 3-3v-20.757c0-0.828-0.336-1.578-0.879-2.121v0zM20.757 8h-4.757v-4.757l4.757 4.757zM3 29v-26h10v6.5c0 0.828 0.672 1.5 1.5 1.5h6.5v18h-18zM12 24.248c0 0.668-0.808 1.003-1.28 0.53l-2.22-2.248h-1.75c-0.414 0-0.75-0.336-0.75-0.75v-3.5c0-0.414 0.336-0.75 0.75-0.75h1.75l2.22-2.309c0.473-0.473 1.28-0.138 1.28 0.53v8.497zM14.575 21.303c0.566-0.581 0.566-1.508 0-2.090-1.384-1.422 0.765-3.515 2.15-2.093 1.7 1.746 1.701 4.528 0 6.275-1.362 1.399-3.559-0.645-2.15-2.093z"></path>
</svg>
