<!-- Generated by IcoMoon.io -->
<svg version="1.1" xmlns="http://www.w3.org/2000/svg" width="24" height="32" viewBox="0 0 24 32">
<title>file-video1</title>
<path d="M23.121 6.121l-5.243-5.243c-0.543-0.543-1.293-0.879-2.121-0.879h-12.757c-1.657 0-3 1.343-3 3v26c0 1.657 1.343 3 3 3h18c1.657 0 3-1.343 3-3v-20.757c0-0.828-0.336-1.578-0.879-2.121v0zM20.757 8h-4.757v-4.757l4.757 4.757zM3 29v-26h10v6.5c0 0.828 0.672 1.5 1.5 1.5h6.5v18h-18zM17.293 15.794l-3.293 3.292v-2.336c0-0.69-0.56-1.25-1.25-1.25h-6.5c-0.69 0-1.25 0.56-1.25 1.25v6.5c0 0.69 0.56 1.25 1.25 1.25h6.5c0.69 0 1.25-0.56 1.25-1.25v-2.336l3.293 3.292c0.626 0.626 1.707 0.186 1.707-0.707v-6.998c0-0.894-1.082-1.332-1.707-0.707z"></path>
</svg>
