<!-- Generated by IcoMoon.io -->
<svg version="1.1" xmlns="http://www.w3.org/2000/svg" width="32" height="32" viewBox="0 0 32 32">
<title>film2</title>
<path d="M21.333 15.333h-10.667v-10.667h10.667zM10.667 18h10.667v10.667h-10.667zM8 8.667h-4v-2.427c0-0.435 0.175-0.827 0.461-1.112s0.677-0.461 1.112-0.461h2.427zM4 11.333h4v4h-4zM8 22h-4v-4h4zM4 24.667h4v4h-2.427c-0.435 0-0.827-0.175-1.112-0.461s-0.461-0.677-0.461-1.112zM28 22h-4v-4h4zM24 24.667h4v2.427c0 0.435-0.175 0.827-0.461 1.112s-0.677 0.461-1.112 0.461h-2.427zM28 8.667h-4v-4h2.427c0.435 0 0.827 0.175 1.112 0.461s0.461 0.677 0.461 1.112zM30.667 10v-3.76c0-1.171-0.476-2.232-1.241-2.999s-1.828-1.241-2.999-1.241h-20.853c-1.171 0-2.232 0.476-2.999 1.241s-1.241 1.828-1.241 2.999v20.853c0 1.171 0.476 2.232 1.241 2.999s1.828 1.241 2.999 1.241h20.853c1.171 0 2.232-0.476 2.999-1.241s1.241-1.828 1.241-2.999zM24 11.333h4v4h-4z"></path>
</svg>
