<!-- Generated by IcoMoon.io -->
<svg version="1.1" xmlns="http://www.w3.org/2000/svg" width="30" height="32" viewBox="0 0 30 32">
<title>firefox</title>
<path d="M29.881 14.706c-0.044-0.281-0.087-0.444-0.087-0.444s-0.113 0.125-0.294 0.369c-0.056-0.669-0.175-1.325-0.363-1.975-0.231-0.806-0.531-1.588-0.906-2.338-0.238-0.5-0.512-0.975-0.831-1.425-0.113-0.169-0.231-0.338-0.35-0.494-0.55-0.9-1.188-1.456-1.919-2.5-0.475-0.8-0.806-1.681-0.962-2.6-0.2 0.556-0.356 1.125-0.462 1.706-0.756-0.763-1.406-1.3-1.806-1.669-1.938-1.825-1.712-2.769-1.712-2.769s-3.644 4.069-2.069 8.306c0.544 1.438 1.488 2.694 2.712 3.619 1.525 1.262 3.175 2.25 4.044 4.787-0.7-1.331-1.756-2.45-3.050-3.219 0.387 0.919 0.587 1.912 0.581 2.906 0 3.813-3.1 6.906-6.912 6.9-0.519 0-1.031-0.056-1.531-0.175-0.594-0.113-1.169-0.306-1.713-0.581-0.806-0.488-1.5-1.131-2.050-1.894l-0.012-0.019 0.125 0.044c0.287 0.1 0.575 0.175 0.875 0.231 1.169 0.25 2.394 0.106 3.475-0.413 1.094-0.606 1.75-1.056 2.287-0.875h0.012c0.525 0.169 0.938-0.344 0.563-0.875-0.65-0.837-1.713-1.25-2.762-1.063-1.094 0.156-2.094 0.938-3.525 0.181-0.094-0.050-0.181-0.1-0.269-0.156-0.1-0.056 0.306 0.081 0.213 0.019-0.313-0.156-0.613-0.337-0.9-0.538-0.019-0.019 0.219 0.069 0.194 0.050-0.369-0.25-0.688-0.575-0.938-0.95-0.256-0.462-0.281-1.025-0.063-1.506 0.131-0.238 0.338-0.431 0.581-0.544 0.188 0.094 0.3 0.162 0.3 0.162s-0.081-0.156-0.131-0.238c0.019-0.006 0.031 0 0.050-0.012 0.162 0.069 0.519 0.25 0.713 0.363 0.131 0.069 0.238 0.169 0.325 0.294 0 0 0.063-0.031 0.019-0.169-0.069-0.169-0.181-0.313-0.338-0.412h0.012c0.144 0.075 0.281 0.162 0.412 0.256 0.119-0.275 0.175-0.575 0.162-0.875 0.012-0.162-0.012-0.331-0.069-0.488-0.050-0.1 0.031-0.137 0.119-0.031-0.012-0.081-0.044-0.156-0.075-0.231v-0.006s0.050-0.069 0.075-0.094c0.063-0.063 0.131-0.119 0.213-0.169 0.45-0.281 0.925-0.525 1.419-0.725 0.4-0.175 0.731-0.306 0.8-0.35 0.1-0.063 0.194-0.137 0.281-0.219 0.331-0.281 0.563-0.675 0.637-1.106 0.006-0.056 0.012-0.113 0.019-0.175v-0.094c-0.056-0.219-0.431-0.381-2.4-0.569-0.694-0.113-1.25-0.631-1.406-1.319v0.006c-0.025 0.069-0.056 0.144-0.081 0.219 0.025-0.075 0.050-0.144 0.081-0.219v-0.012c0.375-0.981 1.050-1.819 1.925-2.394 0.050-0.044-0.2 0.013-0.15-0.031 0.169-0.081 0.338-0.156 0.512-0.219 0.088-0.037-0.375-0.213-0.787-0.169-0.25 0.013-0.5 0.075-0.731 0.175 0.1-0.081 0.387-0.194 0.319-0.194-0.525 0.1-1.031 0.294-1.494 0.563 0-0.050 0.006-0.094 0.031-0.138-0.369 0.156-0.688 0.406-0.938 0.719 0.006-0.056 0.012-0.112 0.012-0.169-0.169 0.125-0.325 0.269-0.456 0.431l-0.006 0.006c-1.088-0.419-2.269-0.519-3.412-0.294l-0.013-0.006h0.013c-0.237-0.194-0.444-0.419-0.606-0.681l-0.013 0.006-0.025-0.013c-0.075-0.112-0.15-0.237-0.231-0.375-0.056-0.1-0.112-0.213-0.169-0.325 0-0.006-0.006-0.013-0.013-0.013-0.025 0-0.037 0.106-0.056 0.081v-0.006c-0.2-0.519-0.294-1.075-0.275-1.638l-0.013 0.006c-0.319 0.219-0.563 0.538-0.694 0.906-0.056 0.131-0.1 0.206-0.138 0.281v-0.031c0.006-0.069 0.038-0.206 0.031-0.194s-0.013 0.019-0.019 0.025c-0.094 0.106-0.181 0.231-0.244 0.362-0.056 0.119-0.106 0.244-0.144 0.369-0.006 0.019 0-0.019 0-0.063s0.006-0.125 0-0.106l-0.019 0.044c-0.419 0.931-0.681 1.925-0.775 2.944-0.025 0.175-0.038 0.35-0.031 0.519v0.012c-0.3 0.325-0.563 0.688-0.794 1.069-0.756 1.275-1.319 2.656-1.675 4.1 0.25-0.55 0.55-1.075 0.894-1.569-0.669 1.694-1.012 3.5-1.012 5.325 0.113-0.538 0.263-1.063 0.438-1.581-0.106 2.156 0.306 4.306 1.212 6.269 1.212 2.719 3.225 5 5.769 6.544 1.037 0.7 2.169 1.244 3.362 1.613 0.156 0.056 0.319 0.113 0.481 0.169-0.050-0.019-0.1-0.044-0.15-0.063 1.412 0.425 2.888 0.644 4.362 0.644 5.231 0 6.956-1.994 7.113-2.188 0.256-0.231 0.469-0.512 0.619-0.831 0.1-0.044 0.2-0.087 0.306-0.131l0.063-0.031 0.119-0.056c0.788-0.369 1.531-0.837 2.206-1.381 1.019-0.731 1.744-1.794 2.056-3.006 0.188-0.444 0.194-0.938 0.025-1.387 0.056-0.087 0.106-0.175 0.169-0.269 1.125-1.806 1.762-3.869 1.85-5.994v-0.175c0-0.456-0.038-0.906-0.119-1.35z"></path>
</svg>
