<!-- Generated by IcoMoon.io -->
<svg version="1.1" xmlns="http://www.w3.org/2000/svg" width="32" height="32" viewBox="0 0 32 32">
<title>flag3</title>
<path d="M6.667 18.529v-13.145c0.587-0.291 1.82-0.717 4-0.717 1.708 0 3.148 0.561 4.839 1.237 1.643 0.657 3.536 1.429 5.828 1.429 1.731 0 3.037-0.233 4-0.529v13.145c-0.587 0.291-1.82 0.717-4 0.717-1.708 0-3.148-0.561-4.839-1.237-1.643-0.657-3.536-1.429-5.828-1.429-1.731 0-3.037 0.233-4 0.529zM6.667 30v-8.616c0.587-0.291 1.82-0.717 4-0.717 1.708 0 3.148 0.561 4.839 1.237 1.643 0.657 3.536 1.429 5.828 1.429 4.329 0 6.009-1.457 6.276-1.724 0.26-0.26 0.391-0.601 0.391-0.943v-16c0-0.736-0.597-1.333-1.333-1.333-0.353 0-0.675 0.137-0.913 0.363-0.128 0.104-1.312 0.971-4.42 0.971-1.708 0-3.148-0.561-4.839-1.237-1.643-0.657-3.536-1.429-5.828-1.429-4.329 0-6.009 1.457-6.276 1.724-0.26 0.26-0.391 0.601-0.391 0.943v25.333c0 0.736 0.597 1.333 1.333 1.333s1.333-0.597 1.333-1.333z"></path>
</svg>
