<!-- Generated by IcoMoon.io -->
<svg version="1.1" xmlns="http://www.w3.org/2000/svg" width="32" height="32" viewBox="0 0 32 32">
<title>flag1</title>
<path d="M21.011 5c-3.071 0-5.832-2-10.12-2-1.956 0-3.644 0.405-5.045 0.948 0.098-0.283 0.154-0.61 0.154-0.949 0-0.122-0.007-0.242-0.021-0.361l0.001 0.014c-0.163-1.429-1.345-2.553-2.78-2.646-1.747-0.113-3.2 1.27-3.2 2.994 0 1.11 0.604 2.079 1.5 2.598v25.402c0 0.552 0.448 1 1 1h1c0.552 0 1-0.448 1-1v-5.215c2.367-1.080 4.454-1.785 7.989-1.785 3.071 0 5.832 2 10.12 2 3.655 0 6.373-1.414 8.034-2.499 0.847-0.554 1.357-1.498 1.357-2.51v-14.995c0-2.154-2.204-3.611-4.181-2.757-2.244 0.968-4.591 1.761-6.808 1.761zM29 21c-1.361 0.963-3.802 2-6.391 2-3.747 0-6.375-2-10.12-2-2.71 0-6.024 0.588-7.989 1.5v-14.5c1.361-0.963 3.801-2 6.391-2 3.747 0 6.375 2 10.12 2 2.704 0 6.020-1.085 7.989-2v15z"></path>
</svg>
