<!-- Generated by IcoMoon.io -->
<svg version="1.1" xmlns="http://www.w3.org/2000/svg" width="32" height="32" viewBox="0 0 32 32">
<title>flag-checkered</title>
<path d="M29.157 4.183c1.326-0.616 2.843 0.351 2.843 1.813v15.194c0 0.658-0.323 1.275-0.865 1.647-2.24 1.535-4.646 2.554-7.657 2.554-4.211 0-6.977-2.174-10.326-2.174-3.178 0-5.383 0.629-7.152 1.383v5.9c0 0.828-0.672 1.5-1.5 1.5h-1c-0.828 0-1.5-0.672-1.5-1.5v-24.128c-0.906-0.633-1.5-1.682-1.5-2.872 0-1.982 1.647-3.578 3.646-3.497 1.779 0.072 3.236 1.498 3.347 3.275 0.032 0.521-0.051 1.019-0.224 1.473 1.296-0.477 2.693-0.751 4.253-0.751 4.211 0 6.977 2.174 10.326 2.174 2.531 0 5.163-0.994 7.309-1.991zM6 8.414v4.406c1.813-0.667 3.199-1.114 4.6-1.307v-4.473c-1.469 0.136-2.527 0.612-4.6 1.374zM19.8 8.989c-1.651-0.292-3.118-0.874-4.6-1.334v4.214c1.511 0.419 2.973 1.028 4.6 1.394v-4.274zM10.6 11.513v4.377c2.050-0.186 3.369-0.040 4.6 0.238v-4.259c-1.578-0.44-2.911-0.589-4.6-0.356zM15.2 20.402c1.646 0.291 3.108 0.87 4.6 1.334v-4.213c-1.517-0.422-2.971-1.028-4.6-1.395v4.274zM6 21.381c1.476-0.524 2.987-0.865 4.6-1.035v-4.456c-1.632 0.147-2.96 0.503-4.6 1.085v4.406zM29 7.531c-1.331 0.553-2.912 1.102-4.6 1.404v4.494c1.707-0.273 3.127-0.881 4.6-1.493v-4.406zM29 20.654v-4.406c-1.387 0.887-3.049 1.413-4.6 1.626v4.474c1.567-0.149 3.031-0.69 4.6-1.694zM19.8 13.263v4.26c1.604 0.446 2.913 0.584 4.6 0.351v-4.444c-1.625 0.262-3.121 0.167-4.6-0.167z"></path>
</svg>
