<!-- Generated by IcoMoon.io -->
<svg version="1.1" xmlns="http://www.w3.org/2000/svg" width="31" height="32" viewBox="0 0 31 32">
<title>flattr</title>
<path d="M0 27.317v-16.448q0-5.728 2.72-8.896t8.288-3.168h17.536q-0.16 0.16-1.664 1.696t-3.2 3.232-3.488 3.488-3.040 2.976-1.344 1.184q-0.48 0-0.48-0.512v-4.992h-1.536q-1.888 0-3.008 0.192t-2.016 0.832-1.248 1.824-0.384 3.072v8.384zM2.144 31.061q0.16-0.16 1.696-1.696t3.2-3.232 3.488-3.52 3.040-2.976 1.312-1.152q0.48 0 0.48 0.512v4.992h1.536q3.712 0 5.184-1.152t1.44-4.768v-8.384l7.168-7.136v16.448q0 5.728-2.688 8.896t-8.32 3.168h-17.536z"></path>
</svg>
