<!-- Generated by IcoMoon.io -->
<svg version="1.1" xmlns="http://www.w3.org/2000/svg" width="32" height="32" viewBox="0 0 32 32">
<title>folder-plus</title>
<path d="M29 8h-12l-4-4h-10c-1.657 0-3 1.343-3 3v18c0 1.657 1.343 3 3 3h26c1.657 0 3-1.343 3-3v-14c0-1.657-1.343-3-3-3zM23 18.5c0 0.552-0.448 1-1 1h-4.5v4.5c0 0.552-0.448 1-1 1h-1c-0.553 0-1-0.448-1-1v-4.5h-4.5c-0.553 0-1-0.448-1-1v-1c0-0.552 0.447-1 1-1h4.5v-4.5c0-0.553 0.447-1 1-1h1c0.552 0 1 0.447 1 1v4.5h4.5c0.552 0 1 0.448 1 1v1z"></path>
</svg>
