<!-- Generated by IcoMoon.io -->
<svg version="1.1" xmlns="http://www.w3.org/2000/svg" width="32" height="32" viewBox="0 0 32 32">
<title>folder-plus1</title>
<path d="M30.667 26v-14.667c0-1.104-0.449-2.107-1.172-2.828s-1.724-1.172-2.828-1.172h-11.287l-2.271-3.407c-0.243-0.36-0.648-0.593-1.109-0.593h-6.667c-1.104 0-2.107 0.449-2.828 1.172s-1.172 1.724-1.172 2.828v18.667c0 1.104 0.449 2.107 1.172 2.828s1.724 1.172 2.828 1.172h21.333c1.104 0 2.107-0.449 2.828-1.172s1.172-1.724 1.172-2.828zM28 26c0 0.368-0.148 0.7-0.391 0.943s-0.575 0.391-0.943 0.391h-21.333c-0.368 0-0.7-0.148-0.943-0.391s-0.391-0.575-0.391-0.943v-18.667c0-0.368 0.148-0.7 0.391-0.943s0.575-0.391 0.943-0.391h5.953l2.271 3.407c0.256 0.383 0.675 0.591 1.109 0.593h12c0.368 0 0.7 0.148 0.943 0.391s0.391 0.575 0.391 0.943zM12 20.667h2.667v2.667c0 0.736 0.597 1.333 1.333 1.333s1.333-0.597 1.333-1.333v-2.667h2.667c0.736 0 1.333-0.597 1.333-1.333s-0.597-1.333-1.333-1.333h-2.667v-2.667c0-0.736-0.597-1.333-1.333-1.333s-1.333 0.597-1.333 1.333v2.667h-2.667c-0.736 0-1.333 0.597-1.333 1.333s0.597 1.333 1.333 1.333z"></path>
</svg>
