<!-- Generated by IcoMoon.io -->
<svg version="1.1" xmlns="http://www.w3.org/2000/svg" width="36" height="32" viewBox="0 0 36 32">
<title>folder-open1</title>
<path d="M32.996 14h-2.996v-3c0-1.657-1.343-3-3-3h-10l-4-4h-10c-1.657 0-3 1.343-3 3v18c0 1.657 1.343 3 3 3h25c1.068 0 2.005-0.558 2.537-1.398l0.007-0.012 4.996-8c1.247-1.995-0.19-4.59-2.544-4.59zM3.375 7h8.382l4 4h10.868c0.207 0 0.375 0.168 0.375 0.375v0 2.625h-17.5c-1.084 0-2.034 0.575-2.561 1.437l-0.007 0.013-3.931 6.515v-14.591c0-0.207 0.168-0.375 0.375-0.375 0 0 0 0 0 0h-0zM28 25h-23.5l4.827-8h23.673l-5 8z"></path>
</svg>
