<!-- Generated by IcoMoon.io -->
<svg version="1.1" xmlns="http://www.w3.org/2000/svg" width="28" height="32" viewBox="0 0 28 32">
<title>font</title>
<path d="M9.5 26h-1.501l1.662-5.049h8.639l1.662 5.049h-1.462c-0.552 0-1 0.448-1 1v2c0 0.552 0.448 1 1 1h8.5c0.552 0 1-0.448 1-1v-2c0-0.552-0.448-1-1-1h-1.671l-8.11-23.328c-0.14-0.394-0.51-0.672-0.945-0.672 0 0 0 0-0 0h-4.548c0 0 0 0 0 0-0.435 0-0.805 0.277-0.942 0.665l-0.002 0.007-8.11 23.328h-1.671c-0.552 0-1 0.448-1 1v2c0 0.552 0.448 1 1 1h8.5c0.552 0 1-0.448 1-1v-2c0-0.552-0.448-1-1-1zM13.522 9.014c0.272-0.951 0.413-1.76 0.474-2.165 0.052 0.408 0.184 1.217 0.483 2.169l2.583 7.75h-6.164l2.623-7.754z"></path>
</svg>
