<!-- Generated by IcoMoon.io -->
<svg version="1.1" xmlns="http://www.w3.org/2000/svg" width="28" height="32" viewBox="0 0 28 32">
<title>font-awesome-flag</title>
<path d="M27.773 22.464c0 0.448-0.384 0.64-0.832 0.832-1.792 0.768-3.712 1.472-5.76 1.472-2.88 0-4.224-1.792-7.68-1.792-2.496 0-5.12 0.896-7.232 1.856-0.128 0.064-0.256 0.064-0.384 0.128v4.864c0 1.338-1.008 2.176-2.112 2.176-1.216 0-2.176-0.96-2.176-2.176v-23.424c-0.832-0.64-1.408-1.664-1.408-2.816 0-1.984 1.6-3.584 3.584-3.584s3.584 1.6 3.584 3.584c0 1.152-0.512 2.176-1.408 2.816v1.984c0.258-0.086 3.673-1.792 7.168-1.792 4.079 0 6.105 1.728 7.936 1.728 2.432 0 5.12-1.728 5.76-1.728 0.512 0 0.96 0.384 0.96 0.832v15.040z"></path>
</svg>
