<!-- Generated by IcoMoon.io -->
<svg version="1.1" xmlns="http://www.w3.org/2000/svg" width="32" height="32" viewBox="0 0 32 32">
<title>fort-awesome-alt</title>
<path d="M13.231 15.069v3.231c0 0.131-0.1 0.231-0.231 0.231h-1.387c-0.131 0-0.231-0.1-0.231-0.231v-3.231c0-0.131 0.1-0.231 0.231-0.231h1.387c0.131 0 0.231 0.1 0.231 0.231zM20.387 14.838h-1.387c-0.131 0-0.231 0.1-0.231 0.231v3.231c0 0.131 0.1 0.231 0.231 0.231h1.387c0.131 0 0.231-0.1 0.231-0.231v-3.231c-0.006-0.131-0.106-0.231-0.231-0.231zM18.569 31.288c-0.056 0.006-0.106 0.019-0.163 0.025-0.063 0.012-0.131 0.019-0.194 0.031-0.056 0.006-0.113 0.019-0.175 0.025s-0.125 0.019-0.188 0.025c-0.063 0.006-0.125 0.012-0.181 0.019-0.063 0.006-0.119 0.012-0.181 0.019s-0.131 0.012-0.194 0.019c-0.056 0.006-0.113 0.012-0.169 0.012-0.069 0.006-0.144 0.006-0.212 0.012-0.050 0-0.106 0.006-0.156 0.006-0.081 0.006-0.163 0.006-0.244 0.006-0.044 0-0.087 0.006-0.131 0.006-0.125 0-0.25 0.006-0.375 0.006s-0.25 0-0.375-0.006c-0.044 0-0.088 0-0.131-0.006-0.081 0-0.162-0.006-0.244-0.006-0.050 0-0.106-0.006-0.156-0.006-0.069-0.006-0.144-0.006-0.213-0.012-0.056-0.006-0.113-0.006-0.169-0.012-0.063-0.006-0.131-0.012-0.194-0.019s-0.119-0.012-0.181-0.019c-0.063-0.006-0.125-0.012-0.181-0.019-0.063-0.006-0.125-0.012-0.188-0.025-0.056-0.006-0.113-0.019-0.175-0.025s-0.131-0.019-0.194-0.031c-0.056-0.006-0.106-0.019-0.162-0.025-4.1-0.681-7.656-2.981-10-6.212-0.013-0.012-0.019-0.031-0.031-0.044-0.050-0.069-0.1-0.137-0.144-0.206-0.019-0.025-0.038-0.050-0.050-0.075-0.044-0.069-0.087-0.131-0.131-0.2-0.019-0.031-0.038-0.056-0.056-0.087-0.044-0.069-0.087-0.131-0.125-0.2-0.019-0.031-0.038-0.056-0.056-0.087-0.044-0.069-0.081-0.137-0.125-0.206-0.013-0.025-0.031-0.050-0.044-0.075-0.15-0.25-0.288-0.506-0.425-0.762-0.006-0.012-0.013-0.019-0.019-0.031-0.038-0.069-0.069-0.137-0.106-0.206-0.019-0.038-0.038-0.069-0.050-0.106-0.031-0.063-0.063-0.131-0.094-0.194-0.019-0.044-0.038-0.081-0.056-0.125-0.031-0.063-0.056-0.125-0.087-0.188l-0.056-0.131c-0.025-0.063-0.056-0.125-0.081-0.188-0.019-0.044-0.038-0.094-0.056-0.137l-0.075-0.188c-0.019-0.050-0.038-0.094-0.056-0.144-0.025-0.063-0.050-0.125-0.069-0.188-0.019-0.056-0.038-0.113-0.063-0.175-0.038-0.1-0.069-0.206-0.106-0.306-0.019-0.056-0.038-0.113-0.056-0.175-0.019-0.056-0.031-0.113-0.050-0.169s-0.038-0.119-0.050-0.175c-0.019-0.056-0.031-0.113-0.050-0.169-0.019-0.063-0.031-0.119-0.050-0.181-0.012-0.056-0.031-0.113-0.044-0.169-0.019-0.063-0.031-0.125-0.044-0.188-0.012-0.056-0.025-0.106-0.037-0.163-0.012-0.069-0.031-0.137-0.044-0.2-0.012-0.050-0.019-0.1-0.031-0.15-0.019-0.081-0.031-0.169-0.050-0.25-0.006-0.038-0.012-0.069-0.019-0.106l-0.056-0.356c-0.006-0.038-0.012-0.081-0.019-0.119-0.012-0.081-0.025-0.163-0.031-0.244-0.006-0.050-0.012-0.094-0.019-0.144-0.006-0.075-0.019-0.15-0.025-0.225-0.006-0.050-0.012-0.1-0.012-0.15-0.006-0.075-0.012-0.15-0.019-0.219-0.006-0.050-0.006-0.1-0.012-0.15-0.006-0.075-0.012-0.15-0.012-0.231 0-0.050-0.006-0.094-0.006-0.144-0.006-0.081-0.006-0.169-0.012-0.25 0-0.044 0-0.081-0.006-0.125 0-0.125-0.006-0.25-0.006-0.375 0-3.344 1.056-6.438 2.862-8.975 0.144-0.2 0.294-0.4 0.444-0.594 0.306-0.388 0.631-0.769 0.975-1.125 0.169-0.181 0.344-0.356 0.525-0.525s0.362-0.338 0.55-0.5c0.281-0.244 0.569-0.475 0.869-0.7 0.1-0.075 0.2-0.15 0.3-0.219 1.706-1.225 3.688-2.106 5.831-2.55 1.006-0.206 2.056-0.313 3.125-0.313s2.113 0.106 3.125 0.313c2.144 0.438 4.125 1.319 5.85 2.544 0.1 0.075 0.2 0.144 0.3 0.219 0.3 0.225 0.587 0.456 0.869 0.7 0.75 0.65 1.438 1.369 2.050 2.15 0.156 0.194 0.3 0.394 0.444 0.594 1.806 2.544 2.863 5.637 2.863 8.981 0 0.125 0 0.25-0.006 0.375 0 0.044 0 0.081-0.006 0.125 0 0.081-0.006 0.169-0.012 0.25 0 0.050-0.006 0.094-0.006 0.144-0.006 0.075-0.006 0.15-0.012 0.044-0.006 0.050-0.006 0.1-0.012 0.15-0.006 0.075-0.012 0.15-0.019 0.219-0.006 0.050-0.012 0.1-0.012 0.15-0.006 0.075-0.019 0.15-0.025 0.225-0.006 0.050-0.012 0.094-0.019 0.144-0.012 0.081-0.025 0.163-0.031 0.244-0.006 0.038-0.012 0.081-0.019 0.119l-0.056 0.356c-0.006 0.038-0.012 0.069-0.019 0.106-0.012 0.081-0.031 0.169-0.050 0.25-0.012 0.050-0.019 0.1-0.031 0.15-0.012 0.069-0.031 0.137-0.044 0.2-0.012 0.056-0.025 0.106-0.038 0.163-0.012 0.063-0.031 0.125-0.044 0.188-0.012 0.056-0.031 0.113-0.044 0.169-0.019 0.063-0.031 0.119-0.050 0.181-0.012 0.056-0.031 0.113-0.050 0.169s-0.038 0.119-0.050 0.175c-0.019 0.056-0.031 0.113-0.050 0.169s-0.038 0.113-0.056 0.175c-0.031 0.1-0.069 0.206-0.106 0.306-0.019 0.056-0.038 0.113-0.063 0.175s-0.044 0.125-0.069 0.188c-0.019 0.050-0.038 0.094-0.056 0.144l-0.075 0.188c-0.019 0.044-0.038 0.094-0.056 0.137-0.025 0.063-0.050 0.125-0.081 0.188l-0.056 0.131c-0.025 0.063-0.056 0.125-0.087 0.188-0.019 0.044-0.038 0.081-0.056 0.125-0.031 0.063-0.063 0.131-0.094 0.194-0.019 0.038-0.038 0.069-0.050 0.106-0.038 0.069-0.069 0.137-0.106 0.206-0.006 0.012-0.012 0.019-0.019 0.031-0.137 0.256-0.275 0.512-0.425 0.762-0.012 0.025-0.031 0.050-0.044 0.075-0.044 0.069-0.081 0.137-0.125 0.206-0.019 0.031-0.038 0.056-0.056 0.087-0.044 0.069-0.087 0.131-0.125 0.2-0.019 0.031-0.038 0.056-0.056 0.087-0.044 0.069-0.087 0.131-0.131 0.2-0.019 0.025-0.038 0.050-0.050 0.075-0.050 0.069-0.094 0.137-0.144 0.206-0.012 0.012-0.019 0.031-0.031 0.044-2.35 3.419-5.906 5.712-10.006 6.4zM25.9 25.9c0.813-0.813 1.512-1.712 2.1-2.681v-4.456c0-0.131-0.1-0.231-0.231-0.231h-1.387c-0.131 0-0.231 0.1-0.231 0.231v1.613h-1.844v-9c0-0.131-0.1-0.231-0.231-0.231h-1.381c-0.131 0-0.231 0.1-0.231 0.231v1.619h-1.844v-1.619c0-0.131-0.1-0.231-0.231-0.231h-1.387c-0.131 0-0.231 0.1-0.231 0.231v1.619h-1.844v-1.619c0-0.3-0.406-0.231-0.594-0.231v-1.919c0.419-0.1 0.863-0.175 1.3-0.175 0.55 0 1.050 0.219 1.587 0.219 0.231 0 1.4-0.056 1.4-0.406v-3.025c0-0.131-0.1-0.231-0.231-0.231-0.262 0-0.762 0.219-1.212 0.219-0.494 0-1.056-0.219-1.644-0.219-0.406 0-0.806 0.056-1.2 0.144v-0.244c0.275-0.131 0.462-0.419 0.462-0.719 0-1.050-1.588-1.050-1.588 0 0 0.3 0.188 0.594 0.463 0.719v5.638c-0.188 0-0.594-0.069-0.594 0.231v1.619h-1.844v-1.619c0-0.131-0.1-0.231-0.231-0.231h-1.387c-0.131 0-0.231 0.1-0.231 0.231v1.619h-1.844v-1.619c0-0.131-0.1-0.231-0.231-0.231h-1.381c-0.131 0-0.231 0.1-0.231 0.231v9h-1.85v-1.613c0-0.131-0.1-0.231-0.231-0.231h-1.381c-0.131 0-0.231 0.1-0.231 0.231v4.456c0.588 0.969 1.288 1.869 2.1 2.681 1.287 1.288 2.781 2.294 4.45 3 0.869 0.369 1.762 0.644 2.681 0.825v-4.738c0-3.663 5.537-3.663 5.537 0v4.738c0.919-0.181 1.813-0.462 2.681-0.825 1.669-0.706 3.163-1.712 4.45-3z"></path>
</svg>
