<!-- Generated by IcoMoon.io -->
<svg version="1.1" xmlns="http://www.w3.org/2000/svg" width="37" height="32" viewBox="0 0 37 32">
<title>foursquare1</title>
<path d="M0 13.013q0-3.36 2.464-5.76t5.888-2.368q2.72 0 4.896 1.536t3.008 3.968l2.112-2.048 5.056 4.864 13.984-14.272v12.96l-8.544 6.592 1.088 1.152-11.616 11.296-10.112-9.824q-3.424-0.064-5.824-2.432t-2.4-5.664zM1.184 13.013q0 2.88 2.080 4.896t5.024 2.016q1.056 0 2.080-0.288l7.040 6.24 18.72-14.72 0.032-9.664-18.496 19.072-2.88-4.672q0.64-1.376 0.64-2.88 0-2.848-2.080-4.896t-5.056-2.016-5.024 2.016-2.080 4.896zM2.72 13.077q0-2.24 1.6-3.84t3.808-1.568 3.84 1.568 1.568 3.84q0 2.24-1.568 3.808t-3.84 1.6-3.808-1.6-1.6-3.808z"></path>
</svg>
