<!-- Generated by IcoMoon.io -->
<svg version="1.1" xmlns="http://www.w3.org/2000/svg" width="32" height="32" viewBox="0 0 32 32">
<title>framer</title>
<path d="M16.552 11.333l-6.667-6.667h14.115v6.667zM8 22v-8h7.448l6.667 6.667h-6.115c-0.736 0-1.333 0.597-1.333 1.333s0.597 1.333 1.333 1.333h9.333c0.341 0 0.683-0.131 0.943-0.391 0.521-0.521 0.521-1.365 0-1.885l-7.057-7.057h6.115c0.736 0 1.333-0.597 1.333-1.333v-9.333c0-0.736-0.597-1.333-1.333-1.333h-18.667c-0.736 0-1.333 0.597-1.333 1.333 0 0.368 0.149 0.701 0.391 0.943l7.057 7.057h-6.115c-0.736 0-1.333 0.597-1.333 1.333v9.333c0 0.736 0.597 1.333 1.333 1.333s1.333-0.597 1.333-1.333zM5.724 22.943l9.333 9.333c0.521 0.521 1.365 0.521 1.885 0 0.26-0.26 0.391-0.601 0.391-0.943v-9.333c0-0.736-0.597-1.333-1.333-1.333s-1.333 0.597-1.333 1.333v6.115l-7.057-7.057c-0.521-0.521-1.365-0.521-1.885 0s-0.521 1.365 0 1.885zM6.667 23.333h9.333c0.736 0 1.333-0.597 1.333-1.333s-0.597-1.333-1.333-1.333h-9.333c-0.736 0-1.333 0.597-1.333 1.333s0.597 1.333 1.333 1.333z"></path>
</svg>
