<!-- Generated by IcoMoon.io -->
<svg version="1.1" xmlns="http://www.w3.org/2000/svg" width="31" height="32" viewBox="0 0 31 32">
<title>frown-open1</title>
<path d="M15.5 0.5c-8.563 0-15.5 6.938-15.5 15.5s6.938 15.5 15.5 15.5 15.5-6.938 15.5-15.5-6.938-15.5-15.5-15.5zM15.5 28.5c-6.894 0-12.5-5.606-12.5-12.5s5.606-12.5 12.5-12.5 12.5 5.606 12.5 12.5-5.606 12.5-12.5 12.5zM12.5 13c0-1.106-0.894-2-2-2s-2 0.894-2 2 0.894 2 2 2 2-0.894 2-2zM20.5 11c-1.106 0-2 0.894-2 2s0.894 2 2 2 2-0.894 2-2-0.894-2-2-2zM15.5 18c-2.225 0-5.55 1.331-5.988 3.825-0.125 0.738 0.563 1.344 1.281 1.131 1.95-0.6 3.713-0.956 4.706-0.956s2.756 0.356 4.706 0.956c0.712 0.219 1.406-0.394 1.281-1.131-0.438-2.494-3.762-3.825-5.988-3.825z"></path>
</svg>
