<!-- Generated by IcoMoon.io -->
<svg version="1.1" xmlns="http://www.w3.org/2000/svg" width="31" height="32" viewBox="0 0 31 32">
<title>frown1</title>
<path d="M15.5 0.5c-8.563 0-15.5 6.938-15.5 15.5s6.938 15.5 15.5 15.5 15.5-6.938 15.5-15.5-6.938-15.5-15.5-15.5zM15.5 28.5c-6.894 0-12.5-5.606-12.5-12.5s5.606-12.5 12.5-12.5 12.5 5.606 12.5 12.5-5.606 12.5-12.5 12.5zM10.5 15c1.106 0 2-0.894 2-2s-0.894-2-2-2-2 0.894-2 2 0.894 2 2 2zM20.5 11c-1.106 0-2 0.894-2 2s0.894 2 2 2 2-0.894 2-2-0.894-2-2-2zM15.5 19c-2.512 0-4.875 1.106-6.488 3.038-0.531 0.637-0.444 1.581 0.194 2.113 0.637 0.525 1.581 0.444 2.112-0.194 1.037-1.244 2.563-1.962 4.181-1.962s3.144 0.712 4.181 1.962c0.506 0.606 1.444 0.744 2.113 0.194 0.637-0.531 0.719-1.475 0.194-2.113-1.613-1.931-3.975-3.038-6.488-3.038z"></path>
</svg>
