<!-- Generated by IcoMoon.io -->
<svg version="1.1" xmlns="http://www.w3.org/2000/svg" width="31" height="32" viewBox="0 0 31 32">
<title>futbol1</title>
<path d="M30.238 11.213c-2.125-6.55-8.2-10.713-14.731-10.713-1.588 0-3.2 0.244-4.794 0.762-8.137 2.644-12.594 11.387-9.95 19.525 2.125 6.55 8.2 10.713 14.731 10.713 1.587 0 3.2-0.244 4.794-0.762 8.137-2.644 12.594-11.387 9.95-19.525zM25.581 23.319l-3.262 0.4-2.731-3.806 1.525-4.7 4.444-1.381 2.431 2.275c-0.012 1.919-0.462 3.819-1.356 5.575-0.294 0.581-0.669 1.113-1.050 1.637zM25.581 8.606l-0.65 3.319-4.419 1.375-4.012-2.906v-4.612l2.962-1.638c2.45 0.813 4.588 2.375 6.119 4.463zM11.556 4.15l2.944 1.631v4.613l-4.012 2.906-4.412-1.375-0.631-3.281c1.519-2.088 3.619-3.662 6.113-4.494zM8.688 23.719l-3.319-0.406c-0.9-1.256-2.331-3.725-2.362-7.206l2.438-2.275 4.444 1.387 1.519 4.644-2.719 3.856zM11.7 27.906l-1.4-3.006 2.725-3.856h4.913l2.769 3.856-1.4 3.006c-0.387 0.113-3.6 1.275-7.606 0z"></path>
</svg>
