<!-- Generated by IcoMoon.io -->
<svg version="1.1" xmlns="http://www.w3.org/2000/svg" width="40" height="32" viewBox="0 0 40 32">
<title>gamepad</title>
<path d="M30 6h-20c-5.525 0-10 4.475-10 10s4.475 10 10 10c2.8 0 5.325-1.15 7.137-3h5.719c1.813 1.85 4.344 3 7.137 3 5.525 0 10-4.475 10-10s-4.469-10-9.994-10zM16 17.25c0 0.413-0.338 0.75-0.75 0.75h-3.25v3.25c0 0.413-0.338 0.75-0.75 0.75h-2.5c-0.412 0-0.75-0.337-0.75-0.75v-3.25h-3.25c-0.412 0-0.75-0.337-0.75-0.75v-2.5c0-0.412 0.338-0.75 0.75-0.75h3.25v-3.25c0-0.412 0.338-0.75 0.75-0.75h2.5c0.412 0 0.75 0.338 0.75 0.75v3.25h3.25c0.412 0 0.75 0.338 0.75 0.75v2.5zM27.5 21.5c-1.656 0-3-1.344-3-3s1.344-3 3-3 3 1.344 3 3-1.344 3-3 3zM32.5 16.5c-1.656 0-3-1.344-3-3s1.344-3 3-3 3 1.344 3 3-1.344 3-3 3z"></path>
</svg>
