<!-- Generated by IcoMoon.io -->
<svg version="1.1" xmlns="http://www.w3.org/2000/svg" width="36" height="32" viewBox="0 0 36 32">
<title>gem1</title>
<path d="M29 0h-22c-0.25 0-0.487 0.125-0.625 0.338l-6.25 9.2c-0.181 0.275-0.163 0.637 0.044 0.887l17.25 21.3c0.3 0.369 0.863 0.369 1.163 0l17.25-21.3c0.206-0.256 0.225-0.613 0.044-0.887l-6.244-9.2c-0.144-0.212-0.375-0.338-0.631-0.338zM27.794 3l3.956 6h-4.275l-3.231-6h3.55zM15.162 3h5.669l3.231 6h-12.125l3.225-6zM8.206 3h3.55l-3.231 6h-4.275l3.956-6zM5.519 12h3.212l4.269 10-7.481-10zM11.95 12h12.1l-6.050 15.206-6.050-15.206zM23 22l4.262-10h3.212l-7.475 10z"></path>
</svg>
