<!-- Generated by IcoMoon.io -->
<svg version="1.1" xmlns="http://www.w3.org/2000/svg" width="32" height="32" viewBox="0 0 32 32">
<title>git-branch</title>
<path d="M26.667 8.667c0 0.737-0.297 1.401-0.781 1.885s-1.148 0.781-1.885 0.781-1.401-0.297-1.885-0.781-0.781-1.148-0.781-1.885 0.297-1.401 0.781-1.885 1.148-0.781 1.885-0.781 1.401 0.297 1.885 0.781 0.781 1.148 0.781 1.885zM10.667 24.667c0 0.737-0.297 1.401-0.781 1.885s-1.148 0.781-1.885 0.781-1.401-0.297-1.885-0.781-0.781-1.148-0.781-1.885 0.297-1.401 0.781-1.885 1.148-0.781 1.885-0.781 1.401 0.297 1.885 0.781 0.781 1.148 0.781 1.885zM22.605 13.816c-0.267 2.487-1.385 4.716-3.063 6.393s-3.907 2.797-6.393 3.063c-0.247-0.913-0.729-1.729-1.377-2.377-0.663-0.661-1.501-1.152-2.439-1.393v-14.835c0-0.736-0.597-1.333-1.333-1.333s-1.333 0.597-1.333 1.333v14.835c-0.937 0.241-1.776 0.732-2.437 1.393-0.964 0.964-1.563 2.3-1.563 3.772s0.599 2.808 1.563 3.771 2.299 1.563 3.771 1.563 2.808-0.599 3.771-1.563c0.675-0.675 1.171-1.531 1.407-2.489 3.212-0.281 6.099-1.703 8.251-3.853s3.572-5.039 3.853-8.251c0.959-0.236 1.815-0.732 2.489-1.407 0.964-0.963 1.563-2.299 1.563-3.771s-0.599-2.808-1.563-3.771-2.299-1.563-3.771-1.563-2.808 0.599-3.771 1.563-1.563 2.299-1.563 3.771 0.599 2.808 1.563 3.771c0.648 0.648 1.464 1.131 2.377 1.377z"></path>
</svg>
