<!-- Generated by IcoMoon.io -->
<svg version="1.1" xmlns="http://www.w3.org/2000/svg" width="32" height="32" viewBox="0 0 32 32">
<title>git-pull-request</title>
<path d="M26.667 24.667c0 0.737-0.297 1.401-0.781 1.885s-1.148 0.781-1.885 0.781-1.401-0.297-1.885-0.781-0.781-1.148-0.781-1.885 0.297-1.401 0.781-1.885 1.148-0.781 1.885-0.781 1.401 0.297 1.885 0.781 0.781 1.148 0.781 1.885zM10.667 8.667c0 0.737-0.297 1.401-0.781 1.885s-1.148 0.781-1.885 0.781-1.401-0.297-1.885-0.781-0.781-1.148-0.781-1.885 0.297-1.401 0.781-1.885 1.148-0.781 1.885-0.781 1.401 0.297 1.885 0.781 0.781 1.148 0.781 1.885zM17.333 10h4c0.368 0 0.7 0.148 0.943 0.391s0.391 0.575 0.391 0.943v8.168c-0.937 0.241-1.776 0.732-2.437 1.393-0.964 0.964-1.563 2.3-1.563 3.772s0.599 2.808 1.563 3.771 2.299 1.563 3.771 1.563 2.808-0.599 3.771-1.563 1.563-2.299 1.563-3.771-0.599-2.808-1.563-3.771c-0.663-0.663-1.5-1.152-2.437-1.393v-8.169c0-1.104-0.449-2.107-1.172-2.828s-1.724-1.172-2.828-1.172h-4c-0.736 0-1.333 0.597-1.333 1.333s0.597 1.333 1.333 1.333zM6.667 13.832v14.835c0 0.736 0.597 1.333 1.333 1.333s1.333-0.597 1.333-1.333v-14.835c0.937-0.241 1.776-0.732 2.437-1.393 0.964-0.964 1.563-2.3 1.563-3.772s-0.599-2.808-1.563-3.771-2.299-1.563-3.771-1.563-2.808 0.599-3.771 1.563-1.563 2.299-1.563 3.771 0.599 2.808 1.563 3.771c0.661 0.663 1.5 1.153 2.437 1.395z"></path>
</svg>
