<!-- Generated by IcoMoon.io -->
<svg version="1.1" xmlns="http://www.w3.org/2000/svg" width="32" height="32" viewBox="0 0 32 32">
<title>git-merge</title>
<path d="M26.667 24.667c0 0.737-0.297 1.401-0.781 1.885s-1.148 0.781-1.885 0.781-1.401-0.297-1.885-0.781-0.781-1.148-0.781-1.885 0.297-1.401 0.781-1.885 1.148-0.781 1.885-0.781 1.401 0.297 1.885 0.781 0.781 1.148 0.781 1.885zM10.667 8.667c0 0.737-0.297 1.401-0.781 1.885s-1.148 0.781-1.885 0.781-1.401-0.297-1.885-0.781-0.781-1.148-0.781-1.885 0.297-1.401 0.781-1.885 1.148-0.781 1.885-0.781 1.401 0.297 1.885 0.781 0.781 1.148 0.781 1.885zM9.333 28.667v-7.999c0.379 0.505 0.793 0.981 1.239 1.427 2.152 2.152 5.039 3.572 8.251 3.853 0.236 0.959 0.732 1.815 1.407 2.489 0.963 0.964 2.299 1.563 3.771 1.563s2.808-0.599 3.771-1.563 1.563-2.299 1.563-3.771-0.599-2.808-1.563-3.771-2.299-1.563-3.771-1.563-2.808 0.599-3.771 1.563c-0.648 0.648-1.131 1.464-1.377 2.377-2.487-0.267-4.716-1.385-6.393-3.063s-2.797-3.907-3.063-6.393c0.911-0.248 1.727-0.732 2.375-1.38 0.964-0.963 1.563-2.299 1.563-3.771s-0.599-2.808-1.563-3.771-2.299-1.563-3.771-1.563-2.808 0.599-3.771 1.563-1.563 2.299-1.563 3.771 0.599 2.808 1.563 3.771c0.661 0.663 1.5 1.153 2.437 1.395v14.835c0 0.736 0.597 1.333 1.333 1.333s1.333-0.597 1.333-1.333z"></path>
</svg>
