<!-- Generated by IcoMoon.io -->
<svg version="1.1" xmlns="http://www.w3.org/2000/svg" width="32" height="32" viewBox="0 0 32 32">
<title>gitlab1</title>
<path d="M30.984 20.932c0.348-0.227 0.657-0.595 0.847-1.019 0.229-0.513 0.285-1.108 0.1-1.74l-1.688-4.999-3.243-9.979c-0.091-0.305-0.26-0.591-0.529-0.849-0.355-0.323-0.804-0.489-1.255-0.496-0.468-0.007-0.943 0.159-1.301 0.487-0.22 0.196-0.395 0.445-0.504 0.729-0.008 0.020-0.016 0.044-0.024 0.069l-2.956 9.091h-8.863l-2.943-9.031c-0.091-0.305-0.26-0.591-0.529-0.849-0.353-0.323-0.803-0.489-1.253-0.496-0.468-0.008-0.943 0.157-1.301 0.487-0.221 0.195-0.395 0.445-0.505 0.728-0.008 0.021-0.016 0.045-0.024 0.069l-3.255 10.016-1.627 5.040c-0.141 0.439-0.156 0.901-0.051 1.339 0.131 0.543 0.448 1.044 0.936 1.403l14.2 10.32c0.461 0.331 1.091 0.347 1.568 0zM29.337 18.832l-13.337 9.693-13.311-9.673 1.607-4.883 2.515-7.74 2.521 7.744c0.183 0.56 0.7 0.916 1.268 0.92h10.8c0.589 0 1.089-0.383 1.268-0.921l2.515-7.739 2.523 7.765z"></path>
</svg>
