<!-- Generated by IcoMoon.io -->
<svg version="1.1" xmlns="http://www.w3.org/2000/svg" width="32" height="32" viewBox="0 0 32 32">
<title>gitlab</title>
<path d="M1.861 12.483l14.139 18.374-15.495-11.501c-0.428-0.321-0.607-0.875-0.446-1.375l1.803-5.498zM6.574 1.558c-0.196-0.553-0.982-0.553-1.178 0l-3.535 10.925h8.248l-3.535-10.925zM10.109 12.483l5.891 18.374 5.891-18.374h-11.782zM31.942 17.982l-1.803-5.498-14.139 18.374 15.495-11.501c0.428-0.321 0.607-0.875 0.446-1.375zM26.604 1.558c-0.196-0.553-0.982-0.553-1.178 0l-3.535 10.925h8.248l-3.535-10.925z"></path>
</svg>
