<!-- Generated by IcoMoon.io -->
<svg version="1.1" xmlns="http://www.w3.org/2000/svg" width="31" height="32" viewBox="0 0 31 32">
<title>google-plus2</title>
<path d="M15.5 0.5c-8.556 0-15.5 6.944-15.5 15.5s6.944 15.5 15.5 15.5 15.5-6.944 15.5-15.5-6.944-15.5-15.5-15.5zM11.081 23.75c-4.3 0-7.75-3.469-7.75-7.75s3.45-7.75 7.75-7.75c1.956 0 3.756 0.688 5.188 2.019l-2.1 2.037c-0.825-0.806-1.956-1.194-3.088-1.194-2.681 0-4.825 2.219-4.825 4.881s2.138 4.881 4.825 4.881c2.037 0 4.056-1.194 4.381-3.331h-4.381v-2.662h7.306c0.081 0.425 0.119 0.85 0.119 1.294 0 4.425-2.969 7.575-7.425 7.575zM25.469 17.113v2.219h-2.219v-2.219h-2.219v-2.219h2.219v-2.219h2.219v2.219h2.2v2.219h-2.2z"></path>
</svg>
