<!-- Generated by IcoMoon.io -->
<svg version="1.1" xmlns="http://www.w3.org/2000/svg" width="21" height="32" viewBox="0 0 21 32">
<title>google1</title>
<path d="M0 25.109q0-2.784 2.848-4.96t6.88-2.176h1.728q-1.344-1.28-1.344-2.752 0-0.928 0.512-1.856-0.32 0.032-0.928 0.032-3.328 0-5.44-2.080t-2.112-5.12q0-2.912 2.624-5.088t5.984-2.176h9.92l-2.208 1.6h-3.136q1.504 0.576 2.368 2.176t0.832 3.552q0 2.976-2.816 5.184-1.184 0.928-1.536 1.472t-0.352 1.344q0 0.608 0.864 1.536t1.728 1.568q1.952 1.376 2.72 2.816t0.736 3.616q0 2.88-2.624 5.024t-7.104 2.112q-4.256 0-7.2-1.6t-2.944-4.224zM3.584 24.053q0 2.208 1.888 3.776t4.64 1.536q3.808 0 5.536-1.408t1.696-3.744q0-0.608-0.128-1.024-0.096-0.352-0.224-0.672t-0.384-0.608-0.448-0.512-0.608-0.512-0.672-0.48-0.8-0.576-0.832-0.544q-1.248-0.384-2.464-0.384h-0.128q-2.784 0-4.896 1.504-2.176 1.536-2.176 3.648zM5.696 6.165q0.352 2.528 1.952 4.352t3.488 1.856h0.128q1.792 0 2.88-1.664 0.864-1.344 0.864-3.168 0-0.512-0.064-1.088-0.32-2.528-1.888-4.288t-3.52-1.824h-0.128q-1.824 0-2.912 1.632-0.864 1.312-0.864 3.136 0 0.512 0.064 1.056z"></path>
</svg>
