<!-- Generated by IcoMoon.io -->
<svg version="1.1" xmlns="http://www.w3.org/2000/svg" width="32" height="32" viewBox="0 0 32 32">
<title>gopuram</title>
<path d="M31 22h-1v-7c0-0.553-0.448-1-1-1h-1v-5c0-0.553-0.448-1-1-1h-1v-7c0-0.552-0.448-1-1-1s-1 0.448-1 1v1h-4v-1c0-0.552-0.448-1-1-1s-1 0.448-1 1v1h-4v-1c0-0.552-0.447-1-1-1s-1 0.448-1 1v1h-4v-1c0-0.552-0.447-1-1-1s-1 0.448-1 1v7h-1c-0.553 0-1 0.447-1 1v5h-1c-0.553 0-1 0.447-1 1v7h-1c-0.552 0-1 0.448-1 1v8c0 0.552 0.448 1 1 1h5v-10h2v-8h2v-6h2v6h-2v8h-2v10h5v-5c0-0.552 0.447-1 1-1h4c0.552 0 1 0.448 1 1v5h5v-10h-2v-8h-2v-6h2v6h2v8h2v10h5c0.552 0 1-0.448 1-1v-8c0-0.552-0.448-1-1-1zM14 22v-4c0-0.552 0.447-1 1-1h2c0.552 0 1 0.448 1 1v4h-4zM14.5 14v-3c0-0.553 0.447-1 1-1h1c0.552 0 1 0.447 1 1v3h-3z"></path>
</svg>
