<!-- Generated by IcoMoon.io -->
<svg version="1.1" xmlns="http://www.w3.org/2000/svg" width="24" height="32" viewBox="0 0 24 32">
<title>gowalla</title>
<path d="M0 15.317v-3.296q0-2.784 2.752-6.4t5.472-5.12q2.496-1.408 5.984-1.408 1.408 0 2.848 0.32t2.72 0.992 2.144 1.856 0.8 2.72q0 0.416-0.064 0.768t-0.224 0.768-0.288 0.672-0.448 0.672-0.448 0.608-0.544 0.608-0.544 0.544-0.576 0.576-0.576 0.512h5.376q0.064 2.304 0.064 3.456 0 8.096-1.344 10.432-1.12 1.952-3.008 3.456t-4.096 2.24q-1.248 0.48-1.792 0.48h-2.688q-0.096 0-1.536-0.544-3.84-1.696-3.84-5.568 0-0.128 0.032-0.352t0-0.32q-4.288-2.208-5.76-6.88-0.416-1.344-0.416-1.792zM4.672 11.157q0 1.28 0.32 2.592t0.896 2.528 1.696 1.984 2.432 0.768q0.384 0 1.28-0.48t1.568-0.48q0.448 0 1.632 0.32t1.184 0.64q0 0.672-0.832 0.672-4.16 0-4.16 2.432 0 1.856 1.344 2.784t3.296 0.96q1.504 0 2.944-0.544t2.336-1.568q1.344-1.6 1.344-5.248 0-0.608-0.032-1.792t-0.032-1.728q0-1.536 0.16-2.56h-6.176q-0.032 0.256-0.032 0.736 0 0.352 0.032 1.088t0.032 1.12q0 1.12-0.256 1.792-0.16 0.032-0.544 0.032-1.536 0-2.56-1.056t-1.408-2.368-0.384-2.848q0-1.44 0.384-2.912t1.376-2.688 2.464-1.216q0.32 0 0.672 0.096-0.128 0.704-0.128 1.088 0 1.12 0.608 1.856t1.696 0.736 1.824-0.736 0.736-1.856q0-1.312-0.992-2.24t-2.24-1.28-2.528-0.352q-4.32 0-7.136 2.72t-2.816 7.008z"></path>
</svg>
