<!-- Generated by IcoMoon.io -->
<svg version="1.1" xmlns="http://www.w3.org/2000/svg" width="38" height="32" viewBox="0 0 38 32">
<title>gplus</title>
<path d="M0 25.109q0-2.784 2.848-4.96t6.88-2.176h1.728q-1.344-1.28-1.344-2.752 0-0.928 0.512-1.856-0.32 0.032-0.928 0.032-3.328 0-5.44-2.080t-2.112-5.12q0-2.912 2.624-5.088t5.984-2.176h9.92l-2.208 1.6h-3.136q1.504 0.576 2.368 2.176t0.832 3.552q0 2.976-2.816 5.184-1.184 0.928-1.536 1.472t-0.352 1.344q0 0.608 0.864 1.536t1.728 1.568q1.952 1.376 2.72 2.816t0.736 3.616q0 2.88-2.624 5.024t-7.104 2.112q-4.256 0-7.2-1.6t-2.944-4.224zM3.584 24.053q0 2.208 1.888 3.776t4.64 1.536q3.808 0 5.536-1.408t1.696-3.744q0-0.608-0.128-1.024-0.096-0.352-0.224-0.672t-0.384-0.608-0.448-0.512-0.608-0.512-0.672-0.48-0.8-0.576-0.832-0.544q-1.248-0.384-2.464-0.384-2.88-0.032-5.024 1.504t-2.176 3.648zM5.696 6.165q0.352 2.528 1.952 4.352t3.488 1.856q1.888 0.064 3.008-1.664t0.8-4.256-1.888-4.288-3.52-1.824-3.040 1.632-0.8 4.192zM23.456 6.933v-1.6h6.4v-6.4h1.6v6.4h6.432v1.6h-6.432v6.432h-1.6v-6.432h-6.4z"></path>
</svg>
