<!-- Generated by IcoMoon.io -->
<svg version="1.1" xmlns="http://www.w3.org/2000/svg" width="31" height="32" viewBox="0 0 31 32">
<title>grin-beam-sweat1</title>
<path d="M27.5 10c1.844 0 3.331-1.644 3.331-3.669 0-1.563-1.981-4.719-2.887-6.081-0.225-0.331-0.669-0.331-0.887 0-0.906 1.363-2.887 4.519-2.887 6.081 0 2.025 1.488 3.669 3.331 3.669zM15.5 25c3.244 0 7.206-2.056 7.706-5 0.106-0.619-0.481-1.156-1.106-0.956-1.619 0.519-4.025 0.819-6.6 0.819s-4.975-0.3-6.6-0.819c-0.613-0.194-1.213 0.331-1.106 0.956 0.5 2.944 4.462 5 7.706 5zM23.644 14.481c0.225-0.069 0.375-0.281 0.356-0.519-0.206-2.631-2.012-4.463-3.5-4.463s-3.294 1.831-3.5 4.463c-0.019 0.231 0.131 0.45 0.356 0.519 0.219 0.069 0.462-0.031 0.581-0.231l0.594-1.063c0.481-0.856 1.2-1.35 1.969-1.35s1.488 0.494 1.969 1.35l0.594 1.063c0.131 0.225 0.387 0.287 0.581 0.231zM30.225 11.175c-1.538 0.981-2.875 0.806-2.9 0.806 0.431 1.262 0.675 2.612 0.675 4.019 0 6.894-5.606 12.5-12.5 12.5s-12.5-5.606-12.5-12.5 5.606-12.5 12.5-12.5c2.488 0 4.8 0.737 6.75 1.994 0.106-0.594 0.394-1.506 1.075-2.856-2.3-1.35-4.969-2.138-7.825-2.138-8.563 0-15.5 6.938-15.5 15.5s6.938 15.5 15.5 15.5 15.5-6.938 15.5-15.5c0-1.688-0.275-3.306-0.775-4.825zM10.5 11.838c0.769 0 1.488 0.494 1.969 1.35l0.594 1.063c0.131 0.231 0.387 0.294 0.581 0.231 0.225-0.069 0.375-0.281 0.356-0.519-0.206-2.631-2.012-4.463-3.5-4.463s-3.294 1.831-3.5 4.463c-0.019 0.231 0.131 0.45 0.356 0.519 0.219 0.069 0.463-0.031 0.581-0.231l0.594-1.063c0.481-0.863 1.2-1.35 1.969-1.35z"></path>
</svg>
