<!-- Generated by IcoMoon.io -->
<svg version="1.1" xmlns="http://www.w3.org/2000/svg" width="31" height="32" viewBox="0 0 31 32">
<title>grin-stars1</title>
<path d="M15.5 0.5c-8.563 0-15.5 6.938-15.5 15.5s6.938 15.5 15.5 15.5 15.5-6.938 15.5-15.5-6.938-15.5-15.5-15.5zM15.5 28.5c-6.894 0-12.5-5.606-12.5-12.5s5.606-12.5 12.5-12.5 12.5 5.606 12.5 12.5-5.606 12.5-12.5 12.5zM22.1 19.038c-1.619 0.519-4.025 0.819-6.6 0.819s-4.975-0.3-6.6-0.819c-0.613-0.194-1.213 0.331-1.106 0.956 0.494 2.95 4.456 5 7.706 5s7.206-2.056 7.706-5c0.1-0.613-0.481-1.15-1.106-0.956zM7.856 15.444c-0.063 0.387 0.337 0.688 0.687 0.494l1.956-1.019 1.956 1.019c0.35 0.194 0.75-0.106 0.688-0.494l-0.375-2.181 1.588-1.537c0.281-0.281 0.119-0.762-0.269-0.825l-2.181-0.313-0.969-1.975c-0.181-0.363-0.688-0.363-0.869 0l-0.969 1.975-2.181 0.313c-0.388 0.056-0.556 0.537-0.269 0.825l1.587 1.537-0.381 2.181zM24.087 10.9l-2.181-0.313-0.969-1.975c-0.181-0.363-0.688-0.363-0.869 0l-0.969 1.975-2.181 0.313c-0.387 0.056-0.556 0.537-0.269 0.825l1.587 1.537-0.375 2.181c-0.063 0.387 0.337 0.688 0.688 0.494l1.956-1.019 1.956 1.019c0.35 0.194 0.75-0.106 0.688-0.494l-0.375-2.181 1.587-1.537c0.281-0.287 0.113-0.762-0.275-0.825z"></path>
</svg>
