<!-- Generated by IcoMoon.io -->
<svg version="1.1" xmlns="http://www.w3.org/2000/svg" width="31" height="32" viewBox="0 0 31 32">
<title>grin-wink1</title>
<path d="M20.5 11.25c-1.606 0-3.492 1.058-3.741 2.633-0.109 0.701 0.719 1.14 1.239 0.678l0.597-0.53c0.926-0.824 2.885-0.824 3.811 0l0.597 0.53c0.53 0.464 1.348 0.016 1.239-0.678-0.249-1.575-2.136-2.633-3.742-2.633zM10.5 15c1.104 0 2-0.896 2-2s-0.896-2-2-2-2 0.896-2 2 0.896 2 2 2zM22.097 19.040c-1.621 0.519-4.025 0.816-6.597 0.816s-4.976-0.297-6.597-0.816c-0.621-0.196-1.213 0.336-1.107 0.959 0.496 2.947 4.457 5.001 7.704 5.001s7.208-2.054 7.704-5.001c0.105-0.618-0.479-1.155-1.107-0.959zM15.5 0.5c-8.561 0-15.5 6.939-15.5 15.5s6.939 15.5 15.5 15.5 15.5-6.939 15.5-15.5-6.939-15.5-15.5-15.5zM15.5 28.5c-6.893 0-12.5-5.608-12.5-12.5s5.607-12.5 12.5-12.5 12.5 5.607 12.5 12.5-5.608 12.5-12.5 12.5z"></path>
</svg>
