<!-- Generated by IcoMoon.io -->
<svg version="1.1" xmlns="http://www.w3.org/2000/svg" width="31" height="32" viewBox="0 0 31 32">
<title>grin-alt1</title>
<path d="M12.519 15.5c0.775-1.169 0.944-2.331 0.981-3.5-0.031-1.169-0.206-2.331-0.981-3.5-0.5-0.75-1.569-0.713-2.044 0-0.775 1.169-0.944 2.331-0.981 3.5 0.031 1.169 0.206 2.331 0.981 3.5 0.506 0.75 1.575 0.712 2.044 0zM20.519 15.5c0.775-1.169 0.944-2.331 0.981-3.5-0.031-1.169-0.206-2.331-0.981-3.5-0.5-0.75-1.569-0.713-2.044 0-0.775 1.169-0.944 2.331-0.981 3.5 0.031 1.169 0.206 2.331 0.981 3.5 0.506 0.75 1.575 0.712 2.044 0zM15.5 0.5c-8.563 0-15.5 6.938-15.5 15.5s6.938 15.5 15.5 15.5 15.5-6.938 15.5-15.5-6.938-15.5-15.5-15.5zM15.5 28.5c-6.894 0-12.5-5.606-12.5-12.5s5.606-12.5 12.5-12.5 12.5 5.606 12.5 12.5-5.606 12.5-12.5 12.5zM22.1 19.038c-1.619 0.519-4.025 0.819-6.6 0.819s-4.975-0.3-6.6-0.819c-0.619-0.194-1.213 0.331-1.106 0.956 0.494 2.95 4.456 5 7.706 5s7.206-2.056 7.706-5c0.1-0.613-0.481-1.15-1.106-0.956z"></path>
</svg>
