<!-- Generated by IcoMoon.io -->
<svg version="1.1" xmlns="http://www.w3.org/2000/svg" width="31" height="32" viewBox="0 0 31 32">
<title>grin-squint1</title>
<path d="M15.5 0.5c-8.563 0-15.5 6.938-15.5 15.5s6.938 15.5 15.5 15.5 15.5-6.938 15.5-15.5-6.938-15.5-15.5-15.5zM15.5 28.5c-6.894 0-12.5-5.606-12.5-12.5s5.606-12.5 12.5-12.5 12.5 5.606 12.5 12.5-5.606 12.5-12.5 12.5zM22.1 19.038c-1.619 0.519-4.025 0.819-6.6 0.819s-4.975-0.3-6.6-0.819c-0.619-0.194-1.213 0.337-1.106 0.956 0.494 2.944 4.456 5 7.706 5s7.206-2.056 7.706-5c0.1-0.613-0.481-1.15-1.106-0.956zM7.431 16.488c0.225 0.262 0.619 0.356 0.956 0.156l5-3c0.225-0.137 0.363-0.381 0.363-0.644s-0.137-0.506-0.363-0.644l-5-3c-0.319-0.188-0.713-0.119-0.956 0.156-0.237 0.281-0.237 0.688-0.006 0.969l2.1 2.519-2.1 2.519c-0.237 0.281-0.231 0.694 0.006 0.969zM22.613 16.644c0.337 0.2 0.731 0.106 0.956-0.156 0.238-0.281 0.238-0.688 0.006-0.969l-2.1-2.519 2.1-2.519c0.238-0.281 0.231-0.688-0.006-0.969-0.238-0.275-0.637-0.338-0.956-0.156l-5 3c-0.225 0.137-0.363 0.381-0.363 0.644s0.137 0.506 0.363 0.644l5 3z"></path>
</svg>
