<!-- Generated by IcoMoon.io -->
<svg version="1.1" xmlns="http://www.w3.org/2000/svg" width="31" height="32" viewBox="0 0 31 32">
<title>grin-beam1</title>
<path d="M15.5 0.5c-8.563 0-15.5 6.938-15.5 15.5s6.938 15.5 15.5 15.5 15.5-6.938 15.5-15.5-6.938-15.5-15.5-15.5zM15.5 28.5c-6.894 0-12.5-5.606-12.5-12.5s5.606-12.5 12.5-12.5 12.5 5.606 12.5 12.5-5.606 12.5-12.5 12.5zM22.1 19.038c-1.619 0.519-4.025 0.819-6.6 0.819s-4.975-0.3-6.6-0.819c-0.613-0.194-1.213 0.331-1.106 0.956 0.494 2.944 4.456 5 7.706 5s7.206-2.056 7.706-5c0.1-0.613-0.481-1.15-1.106-0.956zM7.356 14.481c0.219 0.069 0.463-0.031 0.581-0.231l0.594-1.063c0.481-0.856 1.2-1.35 1.969-1.35s1.488 0.494 1.969 1.35l0.594 1.063c0.131 0.231 0.387 0.294 0.581 0.231 0.225-0.069 0.375-0.281 0.356-0.519-0.206-2.631-2.012-4.463-3.5-4.463s-3.294 1.831-3.5 4.463c-0.019 0.231 0.131 0.45 0.356 0.519zM17.356 14.481c0.219 0.069 0.462-0.031 0.581-0.231l0.594-1.063c0.481-0.856 1.2-1.35 1.969-1.35s1.488 0.494 1.969 1.35l0.594 1.063c0.131 0.231 0.387 0.294 0.581 0.231 0.225-0.069 0.375-0.281 0.356-0.519-0.206-2.631-2.012-4.463-3.5-4.463s-3.294 1.831-3.5 4.463c-0.019 0.231 0.131 0.45 0.356 0.519z"></path>
</svg>
