<!-- Generated by IcoMoon.io -->
<svg version="1.1" xmlns="http://www.w3.org/2000/svg" width="32" height="32" viewBox="0 0 32 32">
<title>grin-squint-tears1</title>
<path d="M7.319 24.006c-1.612 0.231-5.25 0.856-6.306 1.913-1.369 1.369-1.344 3.619 0.056 5.019s3.644 1.425 5.019 0.056c1.056-1.056 1.681-4.694 1.912-6.306 0.050-0.4-0.287-0.738-0.681-0.681zM4.744 21.4c-2.225-4.65-1.431-10.394 2.419-14.238 2.362-2.362 5.5-3.663 8.837-3.663 2.262 0 4.425 0.613 6.325 1.731 0.238-1.269 0.5-2.256 0.75-3.019-2.212-1.137-4.644-1.712-7.075-1.712-3.969 0-7.931 1.512-10.963 4.537-4.631 4.631-5.706 11.463-3.25 17.125 0.763-0.256 1.731-0.519 2.956-0.762zM26.762 9.675c2.813 4.787 2.181 11.056-1.925 15.162-2.363 2.363-5.5 3.663-8.838 3.663-1.906 0-3.737-0.438-5.4-1.238-0.244 1.219-0.5 2.188-0.762 2.95 1.963 0.85 4.063 1.288 6.169 1.288 3.969 0 7.931-1.512 10.963-4.538 4.881-4.881 5.819-12.213 2.825-18.038-0.769 0.25-1.762 0.506-3.031 0.75zM24.681 7.994c1.613-0.231 5.25-0.856 6.306-1.912 1.369-1.369 1.344-3.619-0.056-5.019s-3.644-1.425-5.019-0.056c-1.056 1.056-1.681 4.694-1.913 6.306-0.050 0.4 0.288 0.738 0.681 0.681zM12.994 14.762c-0.188-0.188-0.45-0.262-0.713-0.2l-5.656 1.419c-0.356 0.087-0.594 0.419-0.569 0.788 0.031 0.363 0.319 0.656 0.681 0.688l3.269 0.3 0.3 3.269c0.031 0.363 0.325 0.65 0.688 0.681h0.056c0.344 0 0.644-0.231 0.731-0.569l1.412-5.656c0.063-0.262-0.012-0.531-0.2-0.719zM15.475 13.194l5.656-1.412c0.356-0.088 0.594-0.419 0.569-0.787-0.031-0.363-0.319-0.656-0.681-0.688l-3.269-0.3-0.3-3.269c-0.031-0.362-0.325-0.65-0.688-0.681-0.35-0.006-0.7 0.213-0.787 0.569l-1.412 5.656c-0.063 0.256 0.012 0.525 0.2 0.713 0.313 0.313 0.706 0.2 0.713 0.2zM18.725 18.725c-1.819 1.819-3.731 3.306-5.244 4.087-0.575 0.3-0.625 1.094-0.106 1.462 2.431 1.731 6.687 0.387 8.981-1.913s3.644-6.55 1.913-8.981c-0.363-0.512-1.156-0.475-1.462 0.106-0.769 1.512-2.262 3.419-4.081 5.238z"></path>
</svg>
