<!-- Generated by IcoMoon.io -->
<svg version="1.1" xmlns="http://www.w3.org/2000/svg" width="40" height="32" viewBox="0 0 40 32">
<title>grin-tears1</title>
<path d="M7.319 16.006c-1.612 0.231-5.25 0.856-6.306 1.913-1.369 1.369-1.344 3.619 0.056 5.019s3.644 1.425 5.019 0.056c1.056-1.056 1.681-4.694 1.912-6.306 0.050-0.4-0.287-0.738-0.681-0.681zM38.987 17.919c-1.056-1.056-4.694-1.681-6.306-1.913-0.394-0.056-0.731 0.281-0.675 0.675 0.231 1.613 0.856 5.25 1.913 6.306 1.369 1.369 3.619 1.344 5.019-0.056 1.394-1.394 1.419-3.644 0.050-5.012zM31.075 21.775c-2.087 3.994-6.269 6.725-11.075 6.725s-8.988-2.731-11.075-6.725c-0.781 2.337-1.575 2.744-1.769 2.906 2.788 4.113 7.5 6.819 12.844 6.819s10.056-2.706 12.844-6.819c-0.2-0.169-0.994-0.575-1.769-2.906zM7.669 14.031c0.95-5.956 6.112-10.531 12.331-10.531s11.381 4.575 12.331 10.531c0.131-0.012 0.325-0.15 3.094 0.438-0.775-7.844-7.381-13.969-15.425-13.969s-14.65 6.125-15.425 13.963c2.781-0.588 2.944-0.45 3.094-0.431zM20 25c3.244 0 7.206-2.056 7.706-5 0.106-0.619-0.481-1.156-1.106-0.956-1.619 0.519-4.025 0.819-6.6 0.819s-4.975-0.3-6.6-0.819c-0.613-0.194-1.213 0.331-1.106 0.956 0.5 2.944 4.463 5 7.706 5zM28.144 14.481c0.225-0.069 0.375-0.281 0.356-0.519-0.206-2.631-2.012-4.463-3.5-4.463s-3.294 1.831-3.5 4.463c-0.019 0.231 0.131 0.45 0.356 0.519 0.219 0.069 0.462-0.031 0.581-0.231l0.594-1.063c0.481-0.856 1.2-1.35 1.969-1.35s1.488 0.494 1.969 1.35l0.594 1.063c0.131 0.225 0.387 0.287 0.581 0.231zM15 11.838c0.769 0 1.488 0.494 1.969 1.35l0.594 1.063c0.131 0.231 0.387 0.294 0.581 0.231 0.225-0.069 0.375-0.281 0.356-0.519-0.206-2.631-2.012-4.463-3.5-4.463s-3.294 1.831-3.5 4.463c-0.019 0.231 0.131 0.45 0.356 0.519 0.219 0.069 0.463-0.031 0.581-0.231l0.594-1.063c0.481-0.863 1.2-1.35 1.969-1.35z"></path>
</svg>
