<!-- Generated by IcoMoon.io -->
<svg version="1.1" xmlns="http://www.w3.org/2000/svg" width="31" height="32" viewBox="0 0 31 32">
<title>grin-tongue1</title>
<path d="M15.5 0.5c-8.563 0-15.5 6.938-15.5 15.5s6.938 15.5 15.5 15.5 15.5-6.938 15.5-15.5-6.938-15.5-15.5-15.5zM19.5 25.5c0 2.225-1.819 4.031-4.056 4-2.194-0.031-3.944-1.863-3.944-4.063v-2.675l1.106-0.55c0.938-0.469 1.969 0.106 2.181 1.031l0.175 0.756c0.131 0.575 0.95 0.575 1.081 0l0.175-0.756c0.212-0.925 1.238-1.506 2.181-1.031l1.106 0.55v2.738zM21.262 27.081c0.137-0.506 0.238-1.031 0.238-1.581v-2.719c0.887-0.775 1.525-1.719 1.706-2.781 0.106-0.619-0.481-1.156-1.106-0.956-1.619 0.519-4.025 0.819-6.6 0.819s-4.975-0.3-6.6-0.819c-0.619-0.194-1.213 0.331-1.106 0.956 0.181 1.063 0.819 2.006 1.706 2.781v2.719c0 0.55 0.1 1.075 0.238 1.581-4-2.087-6.737-6.269-6.737-11.081 0-6.894 5.606-12.5 12.5-12.5s12.5 5.606 12.5 12.5c0 4.813-2.738 8.994-6.738 11.081zM10.5 11c-1.106 0-2 0.894-2 2s0.894 2 2 2 2-0.894 2-2-0.894-2-2-2zM20.5 11c-1.106 0-2 0.894-2 2s0.894 2 2 2 2-0.894 2-2-0.894-2-2-2z"></path>
</svg>
