<!-- Generated by IcoMoon.io -->
<svg version="1.1" xmlns="http://www.w3.org/2000/svg" width="31" height="32" viewBox="0 0 31 32">
<title>grin-hearts1</title>
<path d="M22.1 19.038c-1.619 0.519-4.025 0.819-6.6 0.819s-4.975-0.3-6.6-0.819c-0.613-0.194-1.213 0.331-1.106 0.956 0.494 2.95 4.456 5 7.706 5s7.206-2.056 7.706-5c0.1-0.613-0.481-1.15-1.106-0.956zM12.55 15.981c0.281 0.075 0.575-0.094 0.656-0.375l1.213-4.369c0.35-1.269-0.463-2.569-1.8-2.781-1.162-0.188-2.275 0.613-2.594 1.744l-0.125 0.444-0.444-0.119c-1.137-0.294-2.388 0.269-2.806 1.375-0.481 1.262 0.237 2.619 1.512 2.95l4.388 1.131zM24.35 11.9c-0.419-1.1-1.669-1.669-2.806-1.375l-0.444 0.119-0.125-0.444c-0.313-1.131-1.425-1.931-2.594-1.744-1.337 0.213-2.15 1.512-1.8 2.781l1.212 4.369c0.075 0.281 0.369 0.45 0.656 0.375l4.387-1.137c1.275-0.331 1.994-1.681 1.512-2.944zM15.5 0.5c-8.563 0-15.5 6.938-15.5 15.5s6.938 15.5 15.5 15.5 15.5-6.938 15.5-15.5-6.938-15.5-15.5-15.5zM15.5 28.5c-6.894 0-12.5-5.606-12.5-12.5s5.606-12.5 12.5-12.5 12.5 5.606 12.5 12.5-5.606 12.5-12.5 12.5z"></path>
</svg>
