<!-- Generated by IcoMoon.io -->
<svg version="1.1" xmlns="http://www.w3.org/2000/svg" width="24" height="32" viewBox="0 0 24 32">
<title>gripfire</title>
<path d="M10.738 31.488c0-0.331 0.3-0.762 0.3-1.394 0-0.95-0.813-2.494-4.881-5.413-2.144-1.819-4.156-3.656-4.156-6.769 0-7.169 9.194-11.031 9.194-16.788 0-0.206-0.012-0.419-0.037-0.625 0.319 0.15 2.444 2.706 2.444 5.65 0 5.031-6.569 8.075-6.569 12.688 0 1.681 1.037 2.95 2.037 4.344 1.406 1.887 2.762 3.556 2.762 5.406-0.006 0.906-0.275 1.856-1.094 2.9zM19.863 16.4c0.094 0.525 0.137 1.038 0.137 1.538 0 3.238-1.837 6.094-4.206 8.55-0.063 0.063-0.137 0.15-0.2 0.15-0.225 0-2.219-2.6-2.219-3.325 0 0 2.613-3.481 2.613-6.056 0-0.675-0.169-1.356-0.569-2.088-0.094 2.019-3.481 5.481-3.631 5.481-0.169 0-1.119-1.375-1.119-2.631 0-0.331 0.063-0.669 0.2-0.988 0.15-0.344 3.537-4.5 3.537-7.294 0-0.387-0.063-0.75-0.213-1.069l-0.25-0.45c1.044 0.406 5.162 4.006 5.919 8.181z"></path>
</svg>
