<!-- Generated by IcoMoon.io -->
<svg version="1.1" xmlns="http://www.w3.org/2000/svg" width="24" height="32" viewBox="0 0 24 32">
<title>guest</title>
<path d="M0 22.677q0-0.704 0.384-2.048 0.736-2.784 2.784-5.056t4.704-3.296q-2.528-2.016-2.528-5.152 0-2.752 2.016-4.672t4.736-1.92 4.768 1.92 1.984 4.672q0 3.104-2.464 5.12 3.392 1.216 5.664 4.064t2.272 6.336q0 2.944-2.336 3.392-0.096 0.32-0.416 0.832-0.192 0.512-0.736 0.928t-1.568 0.64-1.568 0.384-1.824 0.288-1.248 0.16q-0.064 0-0.224 0.032t-0.224 0.032h-3.84q-1.632 0-4.128-0.512t-2.848-1.44q-0.544-0.544-0.8-1.344-0.8-0.16-1.344-0.672-1.216-0.48-1.216-2.688z"></path>
</svg>
