<!-- Generated by IcoMoon.io -->
<svg version="1.1" xmlns="http://www.w3.org/2000/svg" width="28" height="32" viewBox="0 0 28 32">
<title>hand-point-down1</title>
<path d="M11.8 32c2.851 0 5.2-2.36 5.2-5.2v-2.228c0.522-0.118 0.982-0.288 1.411-0.511l-0.032 0.015c1.375 0.157 2.811-0.219 3.924-0.999 3.28-0.071 5.697-2.337 5.697-6.246v-1.331c0-3.754-2.5-6.157-2.5-7.95v-0.167c0.309-0.359 0.5-0.846 0.5-1.383v-4c0-1.105-0.806-2-1.8-2h-14.4c-0.994 0-1.8 0.895-1.8 2v4c0 0.537 0.19 1.023 0.5 1.383v0.167c0 0.435-0.387 0.929-1.479 1.886l-0.009 0.008-0.009 0.008c-0.621 0.553-1.303 1.132-2.078 1.616-1.891 1.169-4.924 1.9-4.924 4.732 0 3.558 2.205 5.75 5.2 5.75 0.502 0 0.968-0.051 1.4-0.136v5.386c0 2.819 2.381 5.2 5.2 5.2zM11.8 29c-1.169 0-2.2-1.048-2.2-2.2v-9.9c-1.083 0-2.2 1.65-4.4 1.65-1.65 0-2.2-1.289-2.2-2.75 0-0.55 2.045-1.278 3.506-2.183 0.911-0.567 1.702-1.22 2.492-1.925 1.148-1.007 2.29-2.115 2.475-3.692h11.047c0.235 2.674 2.48 4.657 2.48 7.5v1.331c0 2.533-1.387 3.57-3.833 3.163-0.5 0.913-2.124 1.509-3.352 0.808-1.139 1.21-2.899 1.112-3.816 0.309v5.689c0 1.186-1.014 2.2-2.2 2.2zM20.5 4c0-0.828 0.672-1.5 1.5-1.5s1.5 0.672 1.5 1.5-0.672 1.5-1.5 1.5-1.5-0.672-1.5-1.5z"></path>
</svg>
