<!-- Generated by IcoMoon.io -->
<svg version="1.1" xmlns="http://www.w3.org/2000/svg" width="28" height="32" viewBox="0 0 28 32">
<title>hand-peace1</title>
<path d="M22.634 11.998c-0.857-1.353-2.423-2.126-4.063-1.896v-5.477c0-2.55-2.051-4.625-4.571-4.625s-4.571 2.075-4.571 4.625l0.571 5.875-1.167-4.928c-0.921-2.394-3.592-3.565-5.944-2.621-2.342 0.939-3.486 3.61-2.575 5.978l3.485 9.058c-1.91 1.56-2.75 3.613-1.546 5.764l3.428 6.125c0.734 1.311 2.115 2.125 3.606 2.125h12.856c1.922 0 3.597-1.34 4.035-3.237l1.714-7.437c0.069-0.285 0.108-0.613 0.108-0.95v-0l0.001-4.375c0-2.81-2.704-4.834-5.366-4.002zM24.999 20.375c0 0.093-0.011 0.186-0.031 0.276l-1.714 7.438c-0.124 0.536-0.581 0.911-1.111 0.911h-12.856c-0.405 0-0.784-0.226-0.988-0.591l-3.428-6.125c-0.285-0.509-0.164-1.167 0.282-1.53l1.665-1.36c0.225-0.185 0.367-0.463 0.367-0.775 0-0.129-0.024-0.253-0.069-0.366l0.002 0.007-4.006-10.409c-0.785-2.041 2.161-3.173 2.92-1.201l3.736 9.71c0.148 0.378 0.51 0.641 0.933 0.641 0 0 0 0 0 0h0.727c0.552 0 1-0.448 1-1v-11.375c0-2.148 3.143-2.152 3.143 0v11.375c0 0.552 0.448 1 1 1h0.428c0.552 0 1-0.448 1-1v-1.75c0-1.57 2.285-1.572 2.285 0v1.75c0 0.552 0.448 1 1 1h0.428c0.552 0 1-0.448 1-1 0-1.57 2.285-1.572 2.285 0v4.375z"></path>
</svg>
