<!-- Generated by IcoMoon.io -->
<svg version="1.1" xmlns="http://www.w3.org/2000/svg" width="34" height="32" viewBox="0 0 34 32">
<title>hand-holding-usd</title>
<path d="M16.1 9.019l3.125 0.894c0.225 0.063 0.381 0.275 0.381 0.506 0 0.287-0.238 0.525-0.525 0.525h-2.050c-0.225 0-0.444-0.050-0.644-0.137-0.3-0.137-0.65-0.106-0.881 0.125l-1.094 1.094c-0.331 0.331-0.294 0.894 0.094 1.15 0.594 0.394 1.269 0.631 1.987 0.719v1.106c0 0.55 0.45 1 1 1h1c0.55 0 1-0.45 1-1v-1.1c1.894-0.225 3.331-1.938 3.081-3.938-0.181-1.438-1.294-2.581-2.681-2.981l-3.125-0.894c-0.225-0.063-0.381-0.275-0.381-0.506 0-0.287 0.238-0.525 0.525-0.525h2.050c0.225 0 0.444 0.050 0.644 0.138 0.3 0.138 0.65 0.106 0.881-0.125l1.094-1.094c0.331-0.331 0.294-0.894-0.094-1.15-0.594-0.394-1.269-0.631-1.988-0.719v-1.106c0-0.55-0.45-1-1-1h-1c-0.55 0-1 0.45-1 1v1.1c-1.894 0.225-3.331 1.938-3.081 3.938 0.181 1.438 1.294 2.581 2.681 2.981zM33.369 20.506c-0.7-0.669-1.781-0.625-2.519 0l-5.45 4.619c-0.669 0.569-1.5 0.875-2.363 0.875h-6.981c-0.519 0-0.944-0.45-0.944-1s0.425-1 0.944-1h4.619c0.944 0 1.813-0.681 1.962-1.663 0.194-1.25-0.719-2.337-1.863-2.337h-9.444c-1.594 0-3.138 0.581-4.369 1.644l-2.744 2.356h-3.275c-0.519 0-0.944 0.45-0.944 1v6c0 0.55 0.425 1 0.944 1h21.056c0.856 0 1.688-0.306 2.363-0.875l8.925-7.563c0.9-0.756 0.969-2.206 0.081-3.056z"></path>
</svg>
