<!-- Generated by IcoMoon.io -->
<svg version="1.1" xmlns="http://www.w3.org/2000/svg" width="28" height="32" viewBox="0 0 28 32">
<title>hand-pointer1</title>
<path d="M22.386 11.21c-1.218-1.548-3.292-1.997-4.992-1.194-0.945-0.98-2.261-1.405-3.537-1.227v-4.602c0-2.309-1.858-4.188-4.143-4.188s-4.143 1.879-4.143 4.188v10.071c-1.244-0.463-2.704-0.318-3.88 0.555-1.835 1.362-2.237 3.958-0.909 5.822l6.856 9.625c0.776 1.090 2.033 1.74 3.362 1.74h11.143c1.925 0 3.598-1.344 4.035-3.237l1.714-7.437c0.069-0.285 0.108-0.613 0.108-0.95v-5.25c0-2.928-2.914-4.955-5.614-3.915zM5.062 17.481l1.695 2.38c0.562 0.789 1.814 0.393 1.814-0.58v-15.093c0-1.57 2.286-1.572 2.286 0v10.938c0 0.552 0.448 1 1 1h0.429c0.552 0 1-0.448 1-1v-2.188c0-1.57 2.286-1.572 2.286 0v2.188c0 0.552 0.448 1 1 1h0.429c0.552 0 1-0.448 1-1v-1.313c0-1.57 2.286-1.572 2.286 0v1.313c0 0.552 0.448 1 1 1h0.429c0.552 0 1-0.448 1-1 0-1.57 2.286-1.572 2.286 0v5.25c0 0.093-0.011 0.186-0.031 0.276l-1.714 7.438c-0.124 0.536-0.581 0.911-1.111 0.911h-11.143c-0.361 0-0.704-0.18-0.919-0.481l-6.857-9.625c-0.9-1.264 0.937-2.676 1.837-1.413zM11.009 25v-6c0-0.552 0.392-1 0.875-1h0.375c0.483 0 0.875 0.448 0.875 1v6c0 0.552-0.392 1-0.875 1h-0.375c-0.483 0-0.875-0.448-0.875-1zM15.723 25v-6c0-0.552 0.392-1 0.875-1h0.375c0.483 0 0.875 0.448 0.875 1v6c0 0.552-0.392 1-0.875 1h-0.375c-0.483 0-0.875-0.448-0.875-1zM20.438 25v-6c0-0.552 0.392-1 0.875-1h0.375c0.483 0 0.875 0.448 0.875 1v6c0 0.552-0.392 1-0.875 1h-0.375c-0.483 0-0.875-0.448-0.875-1z"></path>
</svg>
