<!-- Generated by IcoMoon.io -->
<svg version="1.1" xmlns="http://www.w3.org/2000/svg" width="32" height="32" viewBox="0 0 32 32">
<title>hand-point-right1</title>
<path d="M26.8 8.6h-5.386c0.087-0.419 0.136-0.901 0.136-1.395 0-0.002 0-0.004 0-0.005v0c0-2.995-2.192-5.2-5.75-5.2-2.832 0-3.563 3.034-4.732 4.924-0.483 0.776-1.062 1.457-1.616 2.078l-0.008 0.009-0.008 0.009c-0.957 1.092-1.451 1.479-1.886 1.479h-0.167c-0.359-0.309-0.846-0.5-1.383-0.5h-4c-1.105 0-2 0.806-2 1.8v14.4c0 0.994 0.895 1.8 2 1.8h4c0.537 0 1.023-0.191 1.383-0.5h0.167c1.793 0 4.196 2.5 7.95 2.5h1.331c3.909 0 6.175-2.416 6.246-5.697 0.78-1.113 1.156-2.549 0.999-3.924 0.207-0.397 0.378-0.857 0.488-1.34l0.008-0.039h2.228c2.84 0 5.2-2.349 5.2-5.2 0-2.819-2.381-5.2-5.2-5.2zM26.8 16h-5.689c0.802 0.917 0.901 2.677-0.309 3.816 0.702 1.228 0.105 2.852-0.808 3.352 0.408 2.445-0.63 3.833-3.163 3.833h-1.331c-2.843 0-4.826-2.245-7.5-2.48v-11.047c1.577-0.185 2.685-1.326 3.692-2.475 0.705-0.791 1.358-1.581 1.925-2.492 0.905-1.462 1.633-3.506 2.183-3.506 1.461 0 2.75 0.55 2.75 2.2 0 2.2-1.65 3.317-1.65 4.4h9.9c1.152 0 2.2 1.031 2.2 2.2 0 1.186-1.014 2.2-2.2 2.2zM5.5 24c0 0.828-0.672 1.5-1.5 1.5s-1.5-0.672-1.5-1.5 0.672-1.5 1.5-1.5 1.5 0.672 1.5 1.5z"></path>
</svg>
