<!-- Generated by IcoMoon.io -->
<svg version="1.1" xmlns="http://www.w3.org/2000/svg" width="32" height="32" viewBox="0 0 32 32">
<title>hand-spock1</title>
<path d="M1.319 23.862l8.068 7.595c0.357 0.337 0.84 0.544 1.371 0.544h14.85c0.886 0 1.666-0.582 1.918-1.431l1.988-6.707c0.19-0.617 0.299-1.326 0.299-2.060 0-0 0-0 0-0v0-2.302c0-0.253 0.030-0.506 0.088-0.753l1.983-8.338c0.631-2.651-1.395-5.171-4.096-5.158-0.259-1.554-1.409-2.948-3.116-3.374-2.238-0.559-4.514 0.791-5.078 3.047l-1.056 6.578-1.355-8.249c-0.518-2.254-2.769-3.661-5.019-3.143-1.851 0.425-3.134 2.024-3.243 3.831-2.665 0.052-4.591 2.535-4.004 5.115l1.94 8.532c-1.7-1.407-4.205-1.25-5.718 0.358-1.586 1.685-1.506 4.333 0.179 5.919zM3.323 19.999l0-0c0.451-0.48 1.203-0.499 1.679-0.051l3.313 3.118c0.637 0.599 1.685 0.146 1.685-0.728v-4.342c0-0.075-0.008-0.149-0.025-0.222l-2.133-9.386c-0.35-1.539 1.969-2.054 2.316-0.526l1.9 8.36c0.105 0.449 0.501 0.778 0.975 0.778 0 0 0 0 0 0h0.538c0.642 0 1.118-0.598 0.975-1.224l-2.601-11.322c-0.351-1.529 1.962-2.067 2.315-0.532l2.826 12.302c0.105 0.448 0.502 0.776 0.975 0.776 0 0 0 0 0 0h0.826c0.466 0 0.858-0.319 0.969-0.75l0.002-0.007 2.648-10.593c0.381-1.526 2.685-0.947 2.304 0.576l-2.383 9.532c-0.158 0.631 0.32 1.242 0.97 1.242h0.606c0.47 0 0.864-0.324 0.971-0.762l0.001-0.007 1.683-7.069c0.364-1.528 2.675-0.98 2.31 0.55l-1.985 8.338c-0.108 0.435-0.17 0.934-0.17 1.448v2.302c0 0.409-0.059 0.816-0.175 1.208l-1.776 5.991h-13.707l-7.78-7.323c-0.477-0.449-0.5-1.202-0.051-1.679z"></path>
</svg>
