<!-- Generated by IcoMoon.io -->
<svg version="1.1" xmlns="http://www.w3.org/2000/svg" width="32" height="32" viewBox="0 0 32 32">
<title>hand-spock</title>
<path d="M0.679 19.787c0.946-1.005 2.528-1.053 3.534-0.107l3.787 3.564v-4.963l-2.438-10.726c-0.306-1.346 0.537-2.686 1.884-2.992s2.686 0.537 2.992 1.884l2.171 9.554h0.615l-2.973-12.94c-0.309-1.346 0.531-2.687 1.877-2.996s2.687 0.531 2.996 1.877l3.23 14.059h0.944l3.027-12.106c0.335-1.34 1.692-2.154 3.032-1.819s2.154 1.692 1.819 3.032l-2.723 10.894h0.692l1.923-8.079c0.32-1.343 1.668-2.173 3.011-1.853s2.173 1.668 1.853 3.011l-2.268 9.529c-0.104 0.417-0.163 0.897-0.163 1.39v0 2.631c0 0.608-0.090 1.195-0.259 1.748l0.011-0.043-1.636 5.518c-0.378 1.274-1.548 2.147-2.876 2.147h-13.542c0 0 0 0 0 0-0.796 0-1.52-0.31-2.058-0.817l0.002 0.001-8.356-7.864c-1.005-0.946-1.053-2.529-0.107-3.534z"></path>
</svg>
