<!-- Generated by IcoMoon.io -->
<svg version="1.1" xmlns="http://www.w3.org/2000/svg" width="32" height="32" viewBox="0 0 32 32">
<title>hand-scissors1</title>
<path d="M16 30l4.375-0.001c0.32 0 0.639-0.036 0.95-0.108l7.437-1.714c1.897-0.437 3.237-2.113 3.237-4.035v-12.856c0-1.49-0.814-2.872-2.125-3.606l-6.125-3.428c-2.151-1.204-4.204-0.364-5.764 1.546l-9.058-3.485c-2.368-0.911-5.038 0.233-5.978 2.575-0.944 2.353 0.227 5.023 2.621 5.944l4.928 1.167-5.875-0.571c-2.55 0-4.625 2.051-4.625 4.571s2.075 4.571 4.625 4.571h5.477c-0.23 1.64 0.543 3.206 1.896 4.063-0.832 2.662 1.192 5.366 4.002 5.366zM16 26.999c-1.572 0-1.57-2.285 0-2.285 0.552 0 1-0.448 1-1v-0.428c0-0.552-0.448-1-1-1h-1.75c-1.572 0-1.57-2.285 0-2.285h1.75c0.552 0 1-0.448 1-1v-0.428c0-0.552-0.448-1-1-1h-11.375c-2.152 0-2.148-3.143 0-3.143h11.375c0.552 0 1-0.448 1-1v-0.727c0 0 0 0 0-0 0-0.423-0.263-0.785-0.634-0.931l-0.007-0.002-9.71-3.737c-1.972-0.759-0.84-3.705 1.201-2.92l10.409 4.006c0.107 0.042 0.23 0.067 0.359 0.067 0.311 0 0.59-0.142 0.773-0.366l0.001-0.002 1.36-1.665c0.364-0.445 1.022-0.566 1.53-0.282l6.125 3.428c0.364 0.204 0.591 0.582 0.591 0.988v12.856c0 0.531-0.375 0.988-0.911 1.111l-7.438 1.714c-0.083 0.020-0.178 0.031-0.276 0.031h-4.375z"></path>
</svg>
