<!-- Generated by IcoMoon.io -->
<svg version="1.1" xmlns="http://www.w3.org/2000/svg" width="36" height="32" viewBox="0 0 36 32">
<title>hand-lizard1</title>
<path d="M34.793 18.159l-9.147-14.107c-0.833-1.285-2.244-2.052-3.776-2.052h-18.37c-1.93 0-3.5 1.57-3.5 3.5v0.5c0 2.757 2.243 5 5 5h12.253l-1.146 3h-7.107c-3.033 0-5.5 2.467-5.5 5.5 0 1.93 1.57 3.5 3.5 3.5h8.222c0.187 0 0.37 0.034 0.544 0.102l6.234 2.424v4.474h14v-7.761c0-1.452-0.417-2.863-1.207-4.080zM33 27h-8v-1.474c0-1.247-0.751-2.344-1.913-2.796l-6.234-2.424c-0.483-0.194-1.042-0.306-1.628-0.306-0.001 0-0.002 0-0.003 0h-8.222c-0.276 0-0.5-0.224-0.5-0.5 0-1.378 1.122-2.5 2.5-2.5h7.107c1.235 0 2.362-0.775 2.803-1.93l1.535-4.018c0.562-1.472-0.527-3.053-2.102-3.053h-13.342c-1.103 0-2-0.897-2-2v-0.5c0-0.276 0.224-0.5 0.5-0.5h18.37c0.51 0 0.981 0.256 1.259 0.684l9.147 14.107c0.454 0.69 0.724 1.536 0.724 2.445 0 0.001 0 0.002 0 0.003v-0 4.761z"></path>
</svg>
