<!-- Generated by IcoMoon.io -->
<svg version="1.1" xmlns="http://www.w3.org/2000/svg" width="32" height="32" viewBox="0 0 32 32">
<title>hand-rock</title>
<path d="M32 8.049c0-1.645-1.304-3.021-2.949-3.049-1.68-0.028-3.051 1.326-3.051 3h-0.5v-1.951c0-1.645-1.304-3.022-2.949-3.049-1.68-0.028-3.051 1.326-3.051 3v2h-0.5v-2.951c0-1.645-1.304-3.022-2.949-3.049-1.68-0.028-3.051 1.326-3.051 3v3h-0.5v-1.951c0-1.645-1.304-3.022-2.949-3.049-1.68-0.028-3.051 1.326-3.051 3v8.5l-0.5-0.444v-3.006c0-1.645-1.304-3.021-2.949-3.049-1.68-0.028-3.051 1.326-3.051 3v4.153c0 0 0 0 0 0 0 1.781 0.776 3.38 2.008 4.479l0.006 0.005 6.979 6.204c0.619 0.552 1.007 1.352 1.007 2.242 0 0 0 0 0 0v0 0.417c0 0.828 0.672 1.5 1.5 1.5h15c0.828 0 1.5-0.672 1.5-1.5v-0.183c0-0.841 0.173-1.641 0.485-2.367l-0.015 0.039 3.060-7.267c0.297-0.687 0.47-1.488 0.47-2.328 0 0 0 0 0 0v0-8.345z"></path>
</svg>
