<!-- Generated by IcoMoon.io -->
<svg version="1.1" xmlns="http://www.w3.org/2000/svg" width="28" height="32" viewBox="0 0 28 32">
<title>hand-point-up1</title>
<path d="M6.6 5.2v5.386c-0.419-0.086-0.901-0.136-1.395-0.136-0.002 0-0.004 0-0.005 0h0c-2.995 0-5.2 2.192-5.2 5.75 0 2.832 3.034 3.563 4.924 4.732 0.776 0.483 1.457 1.062 2.078 1.616l0.009 0.008 0.009 0.008c1.092 0.957 1.479 1.451 1.479 1.886v0.167c-0.309 0.359-0.5 0.846-0.5 1.383v4c0 1.105 0.806 2 1.8 2h14.4c0.994 0 1.8-0.895 1.8-2v-4c0-0.537-0.191-1.023-0.5-1.383v-0.167c0-1.793 2.5-4.196 2.5-7.95v-1.331c0-3.909-2.416-6.175-5.697-6.246-1.113-0.78-2.549-1.156-3.924-0.999-0.397-0.207-0.857-0.378-1.34-0.488l-0.039-0.008v-2.228c0-2.84-2.349-5.2-5.2-5.2-2.819 0-5.2 2.381-5.2 5.2zM14 5.2v5.689c0.917-0.802 2.677-0.901 3.816 0.309 1.228-0.702 2.852-0.105 3.352 0.808 2.445-0.408 3.833 0.63 3.833 3.162v1.331c0 2.843-2.245 4.826-2.48 7.5h-11.047c-0.185-1.577-1.326-2.685-2.475-3.692-0.791-0.705-1.581-1.358-2.492-1.925-1.462-0.905-3.506-1.633-3.506-2.183 0-1.461 0.55-2.75 2.2-2.75 2.2 0 3.317 1.65 4.4 1.65v-9.9c0-1.152 1.031-2.2 2.2-2.2 1.186 0 2.2 1.014 2.2 2.2zM22 26.5c0.828 0 1.5 0.672 1.5 1.5s-0.672 1.5-1.5 1.5-1.5-0.672-1.5-1.5 0.672-1.5 1.5-1.5z"></path>
</svg>
