<!-- Generated by IcoMoon.io -->
<svg version="1.1" xmlns="http://www.w3.org/2000/svg" width="32" height="32" viewBox="0 0 32 32">
<title>hand-rock1</title>
<path d="M25.554 4.941c-1.4-2.119-4.132-2.642-6.176-1.474-1.842-1.967-4.947-1.943-6.771-0.001-2.947-1.689-6.794 0.316-6.917 3.8-2.888-0.678-5.69 1.485-5.69 4.449v3.56c0 2.046 0.892 3.997 2.449 5.352l6.107 5.318c0.266 0.231 0.194 0.348 0.194 2.056 0 1.105 0.895 2 2 2h15.75c1.105 0 2-0.895 2-2 0-1.47-0.063-1.922 0.249-2.648l2.677-6.229c0.381-0.886 0.574-1.823 0.574-2.785v-7.153c0-3.302-3.395-5.541-6.446-4.244zM29 16.338c0 0.001 0 0.002 0 0.003 0 0.578-0.121 1.127-0.34 1.624l0.010-0.026-2.677 6.228c-0.327 0.761-0.493 1.565-0.493 2.391v0.442h-13.75v-0.643c0-1.023-0.446-1.999-1.224-2.676l-6.107-5.317c-0.902-0.785-1.419-1.911-1.419-3.090v-3.56c0-2.075 3.25-2.096 3.25 0.042v2.577c0 0 0 0 0 0 0 0.3 0.132 0.57 0.342 0.753l0.001 0.001 0.438 0.381c0.175 0.153 0.405 0.246 0.657 0.246 0.552 0 1-0.448 1-1v0-7.286c0-2.069 3.25-2.108 3.25 0.042v1.672c0 0.552 0.448 1 1 1h0.438c0.552 0 1-0.448 1-1v-2.571c0-2.071 3.25-2.105 3.25 0.042v2.529c0 0.552 0.448 1 1 1h0.438c0.552 0 1-0.448 1-1v-1.714c0-2.064 3.25-2.111 3.25 0.042v1.672c0 0.552 0.448 1 1 1h0.438c0.552 0 1-0.448 1-1 0-2.072 3.25-2.101 3.25 0.042v7.153z"></path>
</svg>
