<!-- Generated by IcoMoon.io -->
<svg version="1.1" xmlns="http://www.w3.org/2000/svg" width="32" height="32" viewBox="0 0 32 32">
<title>hand-point-left1</title>
<path d="M0 13.8c0 2.851 2.36 5.2 5.2 5.2h2.228c0.118 0.522 0.288 0.982 0.511 1.411l-0.015-0.032c-0.157 1.375 0.219 2.811 0.999 3.924 0.071 3.28 2.337 5.697 6.246 5.697h1.331c3.754 0 6.157-2.5 7.95-2.5h0.167c0.359 0.309 0.846 0.5 1.383 0.5h4c1.105 0 2-0.806 2-1.8v-14.4c0-0.994-0.895-1.8-2-1.8h-4c-0.537 0-1.023 0.191-1.383 0.5h-0.167c-0.435 0-0.929-0.387-1.886-1.479l-0.008-0.009-0.008-0.009c-0.553-0.621-1.132-1.303-1.616-2.078-1.169-1.891-1.899-4.924-4.732-4.924-3.558 0-5.75 2.205-5.75 5.2 0 0.502 0.051 0.968 0.136 1.4h-5.386c-2.819 0-5.2 2.381-5.2 5.2zM3 13.8c0-1.169 1.048-2.2 2.2-2.2h9.9c0-1.083-1.65-2.2-1.65-4.4 0-1.65 1.289-2.2 2.75-2.2 0.55 0 1.278 2.045 2.183 3.506 0.567 0.911 1.22 1.702 1.925 2.492 1.007 1.148 2.115 2.29 3.692 2.475v11.047c-2.674 0.235-4.657 2.48-7.5 2.48h-1.331c-2.533 0-3.57-1.387-3.163-3.833-0.913-0.5-1.509-2.124-0.808-3.352-1.21-1.139-1.112-2.899-0.309-3.816h-5.689c-1.186 0-2.2-1.014-2.2-2.2zM28 22.5c0.828 0 1.5 0.672 1.5 1.5s-0.672 1.5-1.5 1.5-1.5-0.672-1.5-1.5 0.672-1.5 1.5-1.5z"></path>
</svg>
