<!-- Generated by IcoMoon.io -->
<svg version="1.1" xmlns="http://www.w3.org/2000/svg" width="28" height="32" viewBox="0 0 28 32">
<title>hand-paper1</title>
<path d="M23.286 7.040v-0.677c0-2.726-2.532-4.793-5.19-4.097-1.602-3.094-5.881-2.966-7.374 0.047-2.58-0.66-5.15 1.308-5.15 4.061v7.883c-1.247-0.464-2.707-0.317-3.88 0.554-1.835 1.362-2.237 3.958-0.909 5.822l7.498 10.526c0.367 0.511 0.96 0.84 1.629 0.84h13.931c0.931 0 1.74-0.643 1.949-1.551l1.887-8.185c0.206-0.857 0.325-1.842 0.325-2.854v-8.223c0-2.539-2.22-4.5-4.714-4.147zM25 19.41c0 0.733-0.083 1.467-0.248 2.18l-1.708 7.409h-12.62l-7.2-10.106c-0.902-1.267 0.939-2.674 1.837-1.413l1.696 2.38c0.562 0.789 1.814 0.393 1.814-0.58v-12.906c0-1.603 2.286-1.551 2.286 0.043v9.582c0 0.552 0.448 1 1 1h0.428c0.552 0 1-0.448 1-1v-11.813c0-1.604 2.286-1.551 2.286 0.043v11.769c0 0.552 0.448 1 1 1h0.428c0.552 0 1-0.448 1-1v-9.68c0-1.604 2.286-1.551 2.286 0.043v9.636c0 0.552 0.448 1 1 1h0.429c0.552 0 1-0.448 1-1v-4.769c0-1.64 2.286-1.603 2.286-0.043v8.223z"></path>
</svg>
