<!-- Generated by IcoMoon.io -->
<svg version="1.1" xmlns="http://www.w3.org/2000/svg" width="40" height="32" viewBox="0 0 40 32">
<title>handshake1</title>
<path d="M32.45 7.994l-2.975-2.975c-0.635-0.63-1.51-1.019-2.475-1.019 0 0-0 0-0 0h-14.175c-0.925 0-1.819 0.369-2.475 1.019l-2.975 2.975h-7.375v15.981h4c1.1 0 1.987-0.887 1.994-1.981h0.569l5.287 4.775c1.931 1.569 4.612 1.606 6.6 0.238 0.781 0.675 1.625 0.994 2.569 0.994 1.137 0 2.206-0.462 3.050-1.5 1.381 0.544 3.012 0.163 4-1.050l1.637-2.019c0.35-0.431 0.569-0.925 0.681-1.438h3.619c0.006 1.094 0.9 1.981 1.994 1.981h4v-15.981h-7.55zM3 21.975c-0.55 0-1-0.45-1-1s0.45-1 1-1 1 0.45 1 1c0 0.556-0.45 1-1 1zM27.375 21.544l-1.631 2.012c-0.175 0.212-0.488 0.25-0.706 0.075l-1.494-1.212-1.875 2.281c-0.375 0.456-0.938 0.3-1.125 0.15l-2.3-1.969-0.975 1.2c-0.869 1.069-2.45 1.231-3.456 0.413l-6.081-5.5h-1.731v-8.006h2.619l3.856-3.85c0.125-0.050 0.231-0.094 0.356-0.144h3.544l-2.419 2.219c-1.838 1.681-1.944 4.519-0.275 6.331 0.925 1.012 3.825 2.575 6.344 0.275l0.512-0.469 6.762 5.487c0.212 0.175 0.244 0.494 0.075 0.706zM34 18.994h-4.325c-0.144-0.175-0.306-0.337-0.481-0.481l-6.419-5.213 0.781-0.713c0.406-0.375 0.438-1.006 0.063-1.412l-0.681-0.731c-0.375-0.406-1.006-0.431-1.413-0.063l-3.45 3.162c-0.594 0.544-1.606 0.588-2.162 0-0.581-0.619-0.531-1.569 0.075-2.119l4.1-3.756c0.462-0.425 1.063-0.656 1.688-0.656l5.231-0.013c0.131 0 0.256 0.050 0.344 0.144l3.856 3.85h2.794v8zM37 21.975c-0.55 0-1-0.45-1-1s0.45-1 1-1 1 0.45 1 1c0 0.556-0.45 1-1 1z"></path>
</svg>
