<!-- Generated by IcoMoon.io -->
<svg version="1.1" xmlns="http://www.w3.org/2000/svg" width="32" height="32" viewBox="0 0 32 32">
<title>hard-drive</title>
<path d="M28 18v6.667c0 0.368-0.148 0.7-0.391 0.943s-0.575 0.391-0.943 0.391h-21.333c-0.368 0-0.7-0.148-0.943-0.391s-0.391-0.575-0.391-0.943v-6.667zM8.459 8.077c0.088-0.175 0.213-0.328 0.363-0.449 0.229-0.185 0.516-0.295 0.832-0.295h12.684c0.2 0.001 0.393 0.045 0.568 0.125 0.268 0.123 0.493 0.332 0.636 0.619l3.633 7.256h-22.349zM6.075 6.883l-4.588 9.163c-0.041 0.079-0.075 0.161-0.1 0.249-0.037 0.125-0.055 0.251-0.053 0.372v8c0 1.104 0.449 2.107 1.172 2.828s1.724 1.172 2.828 1.172h21.333c1.104 0 2.107-0.449 2.828-1.172s1.172-1.724 1.172-2.828v-8c0-0.201-0.044-0.391-0.121-0.556-0.007-0.013-0.013-0.028-0.020-0.041l-0.012-0.024-4.588-9.163c-0.42-0.845-1.105-1.481-1.911-1.849-0.517-0.236-1.083-0.363-1.659-0.367h-12.703c-0.948 0-1.823 0.332-2.511 0.889-0.441 0.357-0.807 0.808-1.068 1.327zM8 23.333c0.736 0 1.333-0.597 1.333-1.333s-0.597-1.333-1.333-1.333-1.333 0.597-1.333 1.333 0.597 1.333 1.333 1.333zM13.333 23.333c0.736 0 1.333-0.597 1.333-1.333s-0.597-1.333-1.333-1.333-1.333 0.597-1.333 1.333 0.597 1.333 1.333 1.333z"></path>
</svg>
