<!-- Generated by IcoMoon.io -->
<svg version="1.1" xmlns="http://www.w3.org/2000/svg" width="36" height="32" viewBox="0 0 36 32">
<title>hdd1</title>
<path d="M35.463 14.728l-6.567-9.441c-0.549-0.782-1.447-1.287-2.463-1.287 0 0-0 0-0 0h-16.865c0 0-0 0-0 0-1.016 0-1.914 0.505-2.456 1.277l-0.006 0.010-6.567 9.441c-0.336 0.478-0.537 1.072-0.537 1.713v0 8.559c0 1.657 1.343 3 3 3h30c1.657 0 3-1.343 3-3v-8.559c0-0.613-0.188-1.21-0.537-1.713zM9.568 7h16.865l4.87 7h-26.604l4.87-7zM33 25h-30v-8h30v8zM31 21c0 1.105-0.895 2-2 2s-2-0.895-2-2 0.895-2 2-2 2 0.895 2 2zM25 21c0 1.105-0.895 2-2 2s-2-0.895-2-2 0.895-2 2-2 2 0.895 2 2z"></path>
</svg>
