<!-- Generated by IcoMoon.io -->
<svg version="1.1" xmlns="http://www.w3.org/2000/svg" width="32" height="32" viewBox="0 0 32 32">
<title>heading</title>
<path d="M31 5v-2c0-0.552-0.448-1-1-1h-10c-0.552 0-1 0.448-1 1v2c0 0.552 0.448 1 1 1h2.351v8h-12.703v-8h2.351c0.552 0 1-0.448 1-1v-2c0-0.552-0.448-1-1-1h-10c-0.552 0-1 0.448-1 1v2c0 0.552 0.448 1 1 1h2.33v20h-2.33c-0.552 0-1 0.448-1 1v2c0 0.552 0.448 1 1 1h10c0.552 0 1-0.448 1-1v-2c0-0.552-0.448-1-1-1h-2.351v-8h12.703v8h-2.351c-0.552 0-1 0.448-1 1v2c0 0.552 0.448 1 1 1h10c0.552 0 1-0.448 1-1v-2c0-0.552-0.448-1-1-1h-2.33v-20h2.33c0.552 0 1-0.448 1-1z"></path>
</svg>
