<!-- Generated by IcoMoon.io -->
<svg version="1.1" xmlns="http://www.w3.org/2000/svg" width="32" height="32" viewBox="0 0 32 32">
<title>hexagon</title>
<path d="M26.667 22c-0.001 0.161-0.033 0.328-0.093 0.483-0.107 0.275-0.3 0.512-0.568 0.667l-9.332 5.332c-0.149 0.085-0.309 0.14-0.473 0.165-0.291 0.045-0.593-0.004-0.872-0.165l-9.321-5.327c-0.148-0.087-0.276-0.197-0.38-0.327-0.185-0.228-0.293-0.513-0.293-0.828v-10.657c0.001-0.171 0.033-0.337 0.093-0.492 0.107-0.275 0.3-0.512 0.568-0.667l9.332-5.332c0.149-0.085 0.309-0.14 0.473-0.165 0.291-0.045 0.593 0.004 0.872 0.165l9.321 5.327c0.148 0.087 0.276 0.197 0.38 0.327 0.185 0.228 0.293 0.513 0.293 0.828zM29.333 22v-10.667c-0.001-0.947-0.331-1.817-0.885-2.504-0.307-0.381-0.683-0.704-1.108-0.953l-9.345-5.34c-0.813-0.469-1.733-0.62-2.605-0.485-0.484 0.076-0.953 0.239-1.383 0.484l-9.335 5.335c-0.824 0.476-1.413 1.196-1.732 2.019-0.177 0.456-0.269 0.943-0.273 1.436v10.676c0.001 0.947 0.331 1.817 0.885 2.504 0.307 0.381 0.683 0.704 1.108 0.953l9.345 5.34c0.813 0.469 1.733 0.62 2.605 0.485 0.484-0.076 0.953-0.239 1.383-0.484l9.335-5.335c0.824-0.476 1.413-1.196 1.732-2.019 0.177-0.456 0.269-0.943 0.273-1.445z"></path>
</svg>
