<!-- Generated by IcoMoon.io -->
<svg version="1.1" xmlns="http://www.w3.org/2000/svg" width="40" height="32" viewBox="0 0 40 32">
<title>hips</title>
<path d="M0 5.013c0-0.112 0.056-0.169 0.169-0.169h2.556c0.119 0 0.175 0.056 0.175 0.169v5.075c0.95-0.481 1.981-0.719 3.112-0.713 1.5 0.006 2.762 0.387 3.769 1.125 1.169 0.844 1.75 1.994 1.75 3.456v8.506c0 0.119-0.056 0.175-0.169 0.175h-1.706c-0.569 0-1.025-0.456-1.025-1.019v-7.662c0-0.056 0.169-1.688-2.862-1.688-3.038 0-2.862 1.637-2.862 1.688v8.506c0 0.119-0.056 0.175-0.175 0.175h-2.563c-0.113 0-0.169-0.056-0.169-0.175v-17.45zM31.106 18.856c0.856 0.637 2.131 1.194 3.65 1.194 1.456 0 2.050-0.281 2.281-0.85 0.188-0.494-0.038-1.006-0.763-1.325l-3.35-1.469c-1.337-0.588-2.113-1.5-2.325-2.725-0.356-2.106 1.387-3.331 1.419-3.356 0.825-0.6 2-0.963 3.656-0.963 1.188 0 2.337 0.206 3.444 0.619 0.081 0.031 0.119 0.081 0.119 0.162v2.794c0 0.131-0.144 0.213-0.25 0.15-2.481-1.294-4.788-0.769-5.25-0.425-0.413 0.306-0.375 0.781 0.163 1.006l3.6 1.581c1.031 0.444 1.756 1.15 2.181 2.131 0.344 0.788 0.413 1.6 0.194 2.444-0.6 2.306-2.806 2.844-2.85 2.863-0.656 0.194-1.475 0.269-2.269 0.269-1.038 0-2.038-0.169-3.012-0.512-0.606-0.212-0.913-0.644-0.913-1.294v-2.15c0-0.131 0.144-0.231 0.275-0.144zM23.512 9.363c-1.981 0-6.512 1.256-6.512 6.469v11.469c0 0.050 0.038 0.169 0.169 0.169h2.556c0.119 0 0.175-0.056 0.175-0.169v-5.55c1.031 0.794 2.238 1.194 3.606 1.194 3.781 0 6.794-3.031 6.794-6.794 0.006-3.769-3.012-6.787-6.788-6.787zM23.512 20.044c-1.075 0-1.994-0.381-2.75-1.137-0.762-0.762-1.137-1.675-1.137-2.75 0-2.156 1.725-3.887 3.887-3.887 2.156 0 3.887 1.725 3.887 3.887 0.006 2.144-1.706 3.887-3.887 3.887zM15.725 22.462c0 0.119-0.056 0.175-0.175 0.175h-2.556c-0.1 0-0.169-0.087-0.169-0.175v-12.613c0-0.088 0.069-0.175 0.169-0.175h2.556c0.119 0 0.175 0.056 0.175 0.175v12.613zM14.269 4.531c0.994 0 1.806 0.794 1.806 1.806 0 0.987-0.794 1.806-1.806 1.806s-1.806-0.831-1.806-1.806c0.006-1 0.813-1.806 1.806-1.806z"></path>
</svg>
