<!-- Generated by IcoMoon.io -->
<svg version="1.1" xmlns="http://www.w3.org/2000/svg" width="32" height="32" viewBox="0 0 32 32">
<title>home3</title>
<path d="M3.181 11.615c-0.315 0.245-0.515 0.625-0.515 1.052v14.667c0 1.104 0.449 2.107 1.172 2.828s1.724 1.172 2.828 1.172h18.667c1.104 0 2.107-0.449 2.828-1.172s1.172-1.724 1.172-2.828v-14.667c-0.001-0.4-0.179-0.791-0.515-1.052l-12-9.333c-0.477-0.367-1.148-0.38-1.637 0zM21.333 28.667v-12c0-0.736-0.597-1.333-1.333-1.333h-8c-0.736 0-1.333 0.597-1.333 1.333v12h-4c-0.368 0-0.7-0.148-0.943-0.391s-0.391-0.575-0.391-0.943v-14.015l10.667-8.296 10.667 8.296v14.015c0 0.368-0.148 0.7-0.391 0.943s-0.575 0.391-0.943 0.391zM13.333 28.667v-10.667h5.333v10.667z"></path>
</svg>
