<!-- Generated by IcoMoon.io -->
<svg version="1.1" xmlns="http://www.w3.org/2000/svg" width="32" height="32" viewBox="0 0 32 32">
<title>hornbill</title>
<path d="M4.711 23.144c0.134 0.989-0.361 1.999-1.309 2.456-1.178 0.569-2.597 0.073-3.167-1.105-0.568-1.177-0.071-2.599 1.106-3.166 0.441-0.212 0.914-0.276 1.366-0.211-4.893-6.959 3.25-11.908 3.25-11.908-0.366 2.69-0.515 5.697-0.515 5.697-4.207 2.591 0.058 4.004 2.488 4.554 1.236 3.351 4.449 5.746 8.229 5.746 0.12 0 0.236-0.013 0.354-0.017l0.007 1.179c-6.201 0.087-9.919-1.821-11.809-3.225zM11.461 2.663c0.056-0.438-0.006-0.896-0.212-1.322-0.569-1.177-1.989-1.674-3.166-1.106-1.179 0.569-1.675 1.989-1.106 3.167 0.436 0.904 1.376 1.401 2.324 1.327-1.409 1.869-3.364 5.598-3.276 11.877l1.365-0.009c-0.001-0.056-0.009-0.111-0.009-0.168 0-3.684 2.273-6.833 5.491-8.135 0.501-2.359 1.921-7.144 4.615-2.768 0 0 3.009 0.149 5.699 0.515 0-0.001-4.865-8.002-11.724-3.379zM30.473 11.048c1.177-0.568 1.676-1.988 1.106-3.166s-1.989-1.673-3.167-1.106c-0.954 0.461-1.449 1.481-1.304 2.477-1.982-1.371-5.615-3.066-11.466-2.984l0.009 1.406c0.169-0.009 0.337-0.026 0.509-0.026 3.706 0 6.869 2.3 8.156 5.548 2.444 0.564 6.566 1.974 2.404 4.534 0 0-0.146 3.008-0.513 5.697 0 0 8.341-5.072 3.060-12.163 0.402 0.031 0.817-0.031 1.207-0.219zM23.316 27.265c1.339-2.029 2.901-5.606 2.821-11.229l-1.22 0.009c0.005 0.129 0.019 0.254 0.019 0.384 0 3.767-2.378 6.972-5.712 8.216-0.553 2.434-1.965 6.666-4.548 2.468 0 0-3.008-0.146-5.699-0.514 0 0 4.995 8.209 11.994 3.186 0.019 0.295 0.091 0.591 0.227 0.873 0.566 1.181 1.988 1.674 3.165 1.107 1.179-0.569 1.674-1.989 1.106-3.166-0.41-0.851-1.266-1.339-2.153-1.334z"></path>
</svg>
