<!-- Generated by IcoMoon.io -->
<svg version="1.1" xmlns="http://www.w3.org/2000/svg" width="28" height="32" viewBox="0 0 28 32">
<title>hospital1</title>
<path d="M8 15.25v-2.5c0-0.414 0.336-0.75 0.75-0.75h2.5c0.414 0 0.75 0.336 0.75 0.75v2.5c0 0.414-0.336 0.75-0.75 0.75h-2.5c-0.414 0-0.75-0.336-0.75-0.75zM16.75 16h2.5c0.414 0 0.75-0.336 0.75-0.75v-2.5c0-0.414-0.336-0.75-0.75-0.75h-2.5c-0.414 0-0.75 0.336-0.75 0.75v2.5c0 0.414 0.336 0.75 0.75 0.75zM12 21.25v-2.5c0-0.414-0.336-0.75-0.75-0.75h-2.5c-0.414 0-0.75 0.336-0.75 0.75v2.5c0 0.414 0.336 0.75 0.75 0.75h2.5c0.414 0 0.75-0.336 0.75-0.75zM16.75 22h2.5c0.414 0 0.75-0.336 0.75-0.75v-2.5c0-0.414-0.336-0.75-0.75-0.75h-2.5c-0.414 0-0.75 0.336-0.75 0.75v2.5c0 0.414 0.336 0.75 0.75 0.75zM28 29.75v2.25h-28v-2.25c0-0.414 0.336-0.75 0.75-0.75h1.219v-23.685c0-0.726 0.672-1.315 1.5-1.315h5.531v-2.5c0-0.828 0.672-1.5 1.5-1.5h7c0.828 0 1.5 0.672 1.5 1.5v2.5h5.531c0.828 0 1.5 0.589 1.5 1.315v23.685h1.219c0.414 0 0.75 0.336 0.75 0.75zM4.969 28.938h7.031v-4.188c0-0.414 0.336-0.75 0.75-0.75h2.5c0.414 0 0.75 0.336 0.75 0.75v4.188h7.031v-21.938h-4.031v1.5c0 0.828-0.672 1.5-1.5 1.5h-7c-0.828 0-1.5-0.672-1.5-1.5v-1.5h-4.031v21.938zM16.625 4h-1.625v-1.625c0-0.207-0.168-0.375-0.375-0.375v0h-1.25c-0.207 0-0.375 0.168-0.375 0.375v0 1.625h-1.625c-0.207 0-0.375 0.168-0.375 0.375v0 1.25c0 0.207 0.168 0.375 0.375 0.375v0h1.625v1.625c0 0.207 0.168 0.375 0.375 0.375v0h1.25c0.207 0 0.375-0.168 0.375-0.375v0-1.625h1.625c0.207 0 0.375-0.168 0.375-0.375v0-1.25c0-0.207-0.168-0.375-0.375-0.375v0z"></path>
</svg>
