<!-- Generated by IcoMoon.io -->
<svg version="1.1" xmlns="http://www.w3.org/2000/svg" width="24" height="32" viewBox="0 0 24 32">
<title>hourglass1</title>
<path d="M23 3h0.25c0.414 0 0.75-0.336 0.75-0.75v-1.5c0-0.414-0.336-0.75-0.75-0.75h-22.5c-0.414 0-0.75 0.336-0.75 0.75v1.5c0 0.414 0.336 0.75 0.75 0.75h0.25c0 5.035 2.012 10.363 6.074 13-4.080 2.649-6.074 7.994-6.074 13h-0.25c-0.414 0-0.75 0.336-0.75 0.75v1.5c0 0.414 0.336 0.75 0.75 0.75h22.5c0.414 0 0.75-0.336 0.75-0.75v-1.5c0-0.414-0.336-0.75-0.75-0.75h-0.25c0-5.035-2.012-10.363-6.074-13 4.080-2.649 6.074-7.994 6.074-13zM4 3h16c0 6.351-3.582 11.5-8 11.5s-8-5.149-8-11.5zM20 29h-16c0-6.351 3.582-11.5 8-11.5s8 5.149 8 11.5z"></path>
</svg>
