<!-- Generated by IcoMoon.io -->
<svg version="1.1" xmlns="http://www.w3.org/2000/svg" width="22" height="32" viewBox="0 0 22 32">
<title>html51</title>
<path d="M0 5.365h22.368l-2.112 22.72-9.088 2.592-9.088-2.592zM2.080 3.445v-4.256h1.44v1.408h1.28v-1.408h1.408v4.256h-1.408v-1.408h-1.28v1.408h-1.44zM4.16 10.005l0.768 8.512 0.032-0.064h9.6l-0.32 3.616-3.072 0.864-3.104-0.896-0.192-2.176h-2.816l0.384 4.352 5.728 1.632 5.728-1.632 0.8-8.544h-10.208l-0.256-2.848h10.72l0.256-2.816h-14.048zM6.848 0.629v-1.44h3.904v1.44h-1.248v2.816h-1.408v-2.816h-1.248zM11.36 3.445v-4.256h1.504l0.864 1.472 0.896-1.472h1.504v4.256h-1.376v-2.176l-1.024 1.6v-0.032l-0.96-1.504v2.112h-1.408zM16.864 3.445v-4.256h1.408v2.816h1.984v1.44h-3.392z"></path>
</svg>
