<!-- Generated by IcoMoon.io -->
<svg version="1.1" xmlns="http://www.w3.org/2000/svg" width="36" height="32" viewBox="0 0 36 32">
<title>id-card1</title>
<path d="M33 2h-30c-1.656 0-3 1.344-3 3v22c0 1.656 1.344 3 3 3h30c1.656 0 3-1.344 3-3v-22c0-1.656-1.344-3-3-3zM33 27h-14.050c0.056-0.281 0.050 0.225 0.050-1.4 0-1.988-1.881-3.6-4.2-3.6-0.675 0-1.169 0.5-2.8 0.5-1.681 0-2.088-0.5-2.8-0.5-2.319 0-4.2 1.613-4.2 3.6 0 1.625-0.013 1.119 0.050 1.4h-2.050v-18h30v18zM22.5 22h7c0.275 0 0.5-0.225 0.5-0.5v-1c0-0.275-0.225-0.5-0.5-0.5h-7c-0.275 0-0.5 0.225-0.5 0.5v1c0 0.275 0.225 0.5 0.5 0.5zM22.5 18h7c0.275 0 0.5-0.225 0.5-0.5v-1c0-0.275-0.225-0.5-0.5-0.5h-7c-0.275 0-0.5 0.225-0.5 0.5v1c0 0.275 0.225 0.5 0.5 0.5zM22.5 14h7c0.275 0 0.5-0.225 0.5-0.5v-1c0-0.275-0.225-0.5-0.5-0.5h-7c-0.275 0-0.5 0.225-0.5 0.5v1c0 0.275 0.225 0.5 0.5 0.5zM12 20c2.206 0 4-1.794 4-4s-1.794-4-4-4-4 1.794-4 4 1.794 4 4 4z"></path>
</svg>
