<!-- Generated by IcoMoon.io -->
<svg version="1.1" xmlns="http://www.w3.org/2000/svg" width="30" height="32" viewBox="0 0 30 32">
<title>ie</title>
<path d="M0.032 26.197q-0.096-1.12 0.224-1.888 1.248-4.48 2.944-7.648 3.648-6.912 10.016-11.264v-0.448q-1.888 0.8-3.808 2.080t-3.264 2.592-2.432 2.496-1.6 1.92l-0.544 0.736q-0.064-1.888 0.512-3.68t1.44-3.008 1.728-2.144 1.504-1.376l0.608-0.416q0.128-0.064 0.32-0.192t0.896-0.416 1.376-0.608 1.76-0.544 2.048-0.384 2.24-0.064 2.368 0.384q2.048-1.504 4.096-2.336t3.136-0.928l1.056-0.096q1.6-0.16 2.464 0.512t0.992 1.76 0 2.176-0.384 1.92l-0.288 0.768-0.16-0.16q0.672-1.824 0.64-3.008t-0.544-1.792-1.184-0.928-1.152-0.32l-0.512-0.064q-0.128 0-0.384 0t-1.024 0.16-1.568 0.416-1.92 0.8-2.208 1.312q2.208 0.352 3.936 1.344t2.752 2.24 1.728 2.72 0.992 2.848 0.416 2.496 0.128 1.792l-0.032 0.704h-17.824q-0.096 1.344 0.32 2.336t1.088 1.44 1.312 0.736 1.152 0.288l0.48 0.032q0.128 0 0.352-0.032t0.864-0.16 1.088-0.448 0.992-0.928 0.704-1.472h9.344q-0.512 1.888-1.504 3.424t-2.176 2.464-2.496 1.632-2.528 1.024-2.176 0.512-1.536 0.224h-0.608q-2.496 0-3.424-0.192-1.92 1.504-4.064 2.336t-3.296 0.96l-1.152 0.096q-1.472 0-2.496-0.768t-1.312-1.792-0.416-2.176zM2.432 26.037q0 0.768 0.096 1.344t0.256 0.928l0.128 0.288q0.128 0.096 0.352 0.256t1.056 0.416 1.824 0.256 2.624-0.512 3.456-1.6q-0.256-0.064-0.704-0.192t-1.6-0.576-2.208-0.992-2.144-1.536-1.696-2.048q-0.704 1.088-1.056 2.144t-0.384 1.824zM11.488 12.469h8.48q0.032-1.152-0.384-2.016t-1.024-1.248-1.216-0.608-1.056-0.256l-0.448-0.032q-0.192 0-0.48 0.032t-1.056 0.256-1.344 0.608-1.056 1.248-0.416 2.016z"></path>
</svg>
