<!-- Generated by IcoMoon.io -->
<svg version="1.1" xmlns="http://www.w3.org/2000/svg" width="32" height="32" viewBox="0 0 32 32">
<title>image3</title>
<path d="M6.667 3.333c-1.104 0-2.107 0.449-2.828 1.172s-1.172 1.724-1.172 2.828v18.667c0 1.104 0.449 2.107 1.172 2.828s1.724 1.172 2.828 1.172h18.667c1.104 0 2.107-0.449 2.828-1.172s1.172-1.724 1.172-2.828v-18.667c0-1.104-0.449-2.107-1.172-2.828s-1.724-1.172-2.828-1.172zM14.667 12c0-0.92-0.375-1.755-0.976-2.357s-1.437-0.976-2.357-0.976-1.755 0.375-2.357 0.976-0.976 1.437-0.976 2.357 0.375 1.755 0.976 2.357 1.437 0.976 2.357 0.976 1.755-0.375 2.357-0.976 0.976-1.437 0.976-2.357zM12 12c0 0.184-0.073 0.349-0.195 0.472s-0.288 0.195-0.472 0.195-0.349-0.073-0.472-0.195-0.195-0.288-0.195-0.472 0.073-0.349 0.195-0.472 0.288-0.195 0.472-0.195 0.349 0.073 0.472 0.195 0.195 0.288 0.195 0.472zM9.885 27.333l11.448-11.448 5.333 5.333v4.781c0 0.368-0.148 0.7-0.391 0.943s-0.575 0.391-0.943 0.391zM26.667 17.448l-4.391-4.391c-0.521-0.521-1.365-0.521-1.885 0l-14.192 14.192c-0.18-0.067-0.34-0.172-0.475-0.307-0.243-0.243-0.391-0.575-0.391-0.943v-18.667c0-0.368 0.148-0.7 0.391-0.943s0.575-0.391 0.943-0.391h18.667c0.368 0 0.7 0.148 0.943 0.391s0.391 0.575 0.391 0.943z"></path>
</svg>
