<!-- Generated by IcoMoon.io -->
<svg version="1.1" xmlns="http://www.w3.org/2000/svg" width="36" height="32" viewBox="0 0 36 32">
<title>images1</title>
<path d="M30 26v1c0 1.657-1.343 3-3 3h-24c-1.657 0-3-1.343-3-3v-16c0-1.657 1.343-3 3-3h1v3h-0.625c-0.207 0-0.375 0.168-0.375 0.375v0 15.25c0 0.207 0.168 0.375 0.375 0.375v0h23.25c0.207 0 0.375-0.168 0.375-0.375v0-0.625h3zM32.625 5h-23.25c-0.207 0-0.375 0.168-0.375 0.375v0 15.25c0 0.207 0.168 0.375 0.375 0.375v0h23.25c0.207 0 0.375-0.168 0.375-0.375v0-15.25c0-0.207-0.168-0.375-0.375-0.375v0zM33 2c1.657 0 3 1.343 3 3v16c0 1.657-1.343 3-3 3h-24c-1.657 0-3-1.343-3-3v-16c0-1.657 1.343-3 3-3h24zM16.5 9c0 1.381-1.119 2.5-2.5 2.5s-2.5-1.119-2.5-2.5 1.119-2.5 2.5-2.5 2.5 1.119 2.5 2.5zM12 15l2.47-2.47c0.293-0.293 0.768-0.293 1.061 0l2.47 2.47 6.47-6.47c0.293-0.293 0.768-0.293 1.061 0l4.47 4.47v5h-18v-3z"></path>
</svg>
