<!-- Generated by IcoMoon.io -->
<svg version="1.1" xmlns="http://www.w3.org/2000/svg" width="32" height="32" viewBox="0 0 32 32">
<title>image1</title>
<path d="M29 4h-26c-1.657 0-3 1.343-3 3v18c0 1.657 1.343 3 3 3h26c1.657 0 3-1.343 3-3v-18c0-1.657-1.343-3-3-3zM28.625 25h-25.25c-0.207 0-0.375-0.168-0.375-0.375v0-17.25c0-0.207 0.168-0.375 0.375-0.375v0h25.25c0.207 0 0.375 0.168 0.375 0.375v0 17.25c0 0.207-0.168 0.375-0.375 0.375v0zM8 9.5c-1.381 0-2.5 1.119-2.5 2.5s1.119 2.5 2.5 2.5 2.5-1.119 2.5-2.5-1.119-2.5-2.5-2.5zM6 22h20v-5l-5.47-5.47c-0.293-0.293-0.768-0.293-1.061 0l-7.47 7.47-2.47-2.47c-0.293-0.293-0.768-0.293-1.061 0l-2.47 2.47v3z"></path>
</svg>
