<!-- Generated by IcoMoon.io -->
<svg version="1.1" xmlns="http://www.w3.org/2000/svg" width="28" height="32" viewBox="0 0 28 32">
<title>imdb</title>
<path d="M21.906 18.044c0 0.337 0.1 0.9-0.387 0.9-0.1 0-0.188-0.050-0.238-0.15-0.137-0.319-0.069-2.756-0.069-2.794 0-0.238-0.069-0.794 0.306-0.794 0.456 0 0.387 0.456 0.387 0.794v2.044zM16.563 14.369c0-0.606 0.1-1-0.644-1v5.231c0.762 0.019 0.644-0.544 0.644-1.15v-3.081zM28 5v22c0 1.656-1.344 3-3 3h-22c-1.656 0-3-1.344-3-3v-22c0-1.656 1.344-3 3-3h22c1.656 0 3 1.344 3 3zM1.331 14.3c-0.006 0.006-0.012 0.019-0.019 0.025h0.019v-0.025zM6.063 12h-2.063v7.988h2.063v-7.988zM13.144 12h-2.694l-0.475 3.744c-0.169-1.25-0.338-2.506-0.544-3.744h-2.675v7.988h1.812v-5.281l0.762 5.281h1.287l0.725-5.4v5.4h1.794v-7.988zM18.538 14.831c0-0.506 0.019-1.050-0.087-1.525-0.269-1.406-1.962-1.306-3.063-1.306h-1.537v7.988c5.381 0.006 4.687 0.375 4.687-5.156zM23.906 15.912c0-1.081-0.050-1.881-1.387-1.881-0.556 0-0.931 0.169-1.306 0.575v-2.606h-1.981v7.988h1.863l0.119-0.506c0.356 0.425 0.744 0.613 1.306 0.613 1.238 0 1.387-0.95 1.387-1.931v-2.25z"></path>
</svg>
