<!-- Generated by IcoMoon.io -->
<svg version="1.1" xmlns="http://www.w3.org/2000/svg" width="32" height="32" viewBox="0 0 32 32">
<title>inbox2</title>
<path d="M28 18v6.667c0 0.368-0.148 0.7-0.391 0.943s-0.575 0.391-0.943 0.391h-21.333c-0.368 0-0.7-0.148-0.943-0.391s-0.391-0.575-0.391-0.943v-6.667h5.953l2.271 3.407c0.243 0.36 0.648 0.593 1.109 0.593h5.333c0.435-0.003 0.853-0.211 1.109-0.593l2.271-3.407zM8.459 8.077c0.088-0.175 0.213-0.328 0.363-0.449 0.229-0.185 0.516-0.295 0.832-0.295h12.684c0.2 0.001 0.393 0.045 0.568 0.125 0.268 0.123 0.493 0.332 0.636 0.619l3.633 7.256h-5.841c-0.461 0-0.867 0.233-1.109 0.593l-2.271 3.407h-3.907l-2.271-3.407c-0.256-0.383-0.675-0.591-1.109-0.593h-5.841zM6.075 6.883l-4.588 9.163c-0.041 0.079-0.075 0.161-0.1 0.249-0.037 0.125-0.055 0.251-0.053 0.372v8c0 1.104 0.449 2.107 1.172 2.828s1.724 1.172 2.828 1.172h21.333c1.104 0 2.107-0.449 2.828-1.172s1.172-1.724 1.172-2.828v-8c0-0.201-0.044-0.391-0.121-0.556-0.007-0.013-0.013-0.028-0.020-0.041l-0.012-0.024-4.588-9.163c-0.42-0.845-1.105-1.481-1.911-1.849-0.517-0.236-1.083-0.363-1.659-0.367h-12.703c-0.948 0-1.823 0.332-2.511 0.889-0.441 0.357-0.807 0.808-1.068 1.327z"></path>
</svg>
