<!-- Generated by IcoMoon.io -->
<svg version="1.1" xmlns="http://www.w3.org/2000/svg" width="41" height="32" viewBox="0 0 41 32">
<title>intensedebate</title>
<path d="M0 9.845q5.568-1.056 6.656-2.272 0.864-0.96 1.44-2.912 0.576 0.736 0.736 1.536t0.032 1.28l-0.16 0.416q-0.192 0.416-0.32 0.672t-0.256 0.416-0.288 0.352-0.32 0.288-0.512 0.352-0.672 0.448q-1.12 0.864-1.056 1.984t0.96 1.76q0.832 0.512 1.632-0.192t1.664-2.496q0.384-0.8 0.608-2.112t0.608-2.336 1.504-1.888q0.64-0.512 1.472-0.608t1.6-0.032 1.632 0 1.92-0.768 2.144-2.048q0.16-0.192 0.448-0.512t1.216-0.928 1.888-0.896 2.368 0.032 2.752 1.44q-1.536-0.672-2.88-0.672t-2.144 0.48-1.408 1.056-0.832 1.056l-0.224 0.48q-0.48 1.184-0.896 1.952t-0.768 1.248-0.8 0.704-0.768 0.384-1.024 0.256-1.216 0.32q-1.376 0.416-1.6 1.728-0.192 1.152 0.704 1.696 1.024 0.576 2.624-0.448 1.184-0.768 1.92-1.6t0.96-1.408 0.896-1.248 1.632-1.184q1.376-0.672 2.624-0.928t2.656-0.256 2.144-0.096q6.304-1.024 7.872-3.648 1.536-2.528 1.568-4.16 0.544 1.856 0.384 3.328t-0.864 2.56-1.408 1.824-1.312 1.088l-0.576 0.352q-2.464 1.28-4.096 1.76t-2.688 0.672-1.984 0.704q-3.296 1.76-1.664 4.96 0.672 1.312 1.984 1.408t2.464-0.928q0.192-0.16 0.448-0.448t0.736-1.248 0.48-1.952q0.64 1.792 0.512 3.072t-0.672 2.048l-0.48 0.704q-1.152 1.216-1.92 1.696t-2.016 0.608-2.88-0.48q-2.752-0.672-3.808-0.672t-1.984 0.576q-0.896 0.512-1.376 1.344t-0.064 1.568q0.448 0.8 1.088 0.864t2.048-0.672q1.248-0.736 2.112-0.96t2.176-0.256q2.784-0.064 4.448 1.216 1.184 0.768 2.368 1.824-1.28-0.768-2.528-0.992t-2.112 0.032-1.536 0.576-1.024 0.704l-0.32 0.32q-1.44 1.632-2.4 2.304t-1.696 0.672-1.888-0.48q-0.32-0.128-1.248-0.544t-1.344-0.512v-3.52q0-3.872-2.944-5.952-1.888-1.28-4.288-1.28-2.432 0-4.288 1.248-0.64-0.928-1.632-1.056v-2.4q0-0.992-0.672-1.696t-1.696-0.672h-0.576zM4.064 27.893v-5.184q0-2.080 0.608-3.168 1.28-2.272 4.288-2.272 2.208 0 3.552 1.376t1.312 3.52v4.32h-6.464v2.144q0 1.536 1.6 1.536 1.44 0 1.6-1.568h3.264q0 1.984-1.312 3.36-1.376 1.376-3.552 1.376-3.008 0-4.288-2.272-0.608-1.088-0.608-3.168zM7.36 24.021h3.2v-1.792q0-1.792-1.6-1.792t-1.6 1.792v1.792zM15.744 30.389q0.352-1.152 0.352-2.272 0-0.352-0.096-0.64 0.768 0.128 1.088 0.16 1.984 0.192 2.72 1.472 0.064 0.096 0.16 0.288t0.224 0.736-0.032 0.992q-0.992-0.768-2.080-0.96t-1.728 0.032z"></path>
</svg>
