<!-- Generated by IcoMoon.io -->
<svg version="1.1" xmlns="http://www.w3.org/2000/svg" width="20" height="32" viewBox="0 0 20 32">
<title>italic</title>
<path d="M12.797 26h-2.116l3.881-20h2.545c0.485 0 0.889-0.345 0.98-0.802l0.001-0.006 0.39-2c0.12-0.617-0.352-1.191-0.982-1.191h-9.983c-0.485 0-0.889 0.345-0.98 0.802l-0.001 0.006-0.39 2c-0.12 0.617 0.352 1.191 0.982 1.191h2.115l-3.881 20h-2.467c0 0 0 0-0 0-0.485 0-0.889 0.345-0.98 0.802l-0.001 0.006-0.39 2c-0.12 0.617 0.352 1.192 0.982 1.192h9.905c0 0 0 0 0 0 0.485 0 0.889-0.345 0.98-0.802l0.001-0.006 0.39-2c0.12-0.617-0.352-1.192-0.982-1.192z"></path>
</svg>
