<!-- Generated by IcoMoon.io -->
<svg version="1.1" xmlns="http://www.w3.org/2000/svg" width="24" height="32" viewBox="0 0 24 32">
<title>java</title>
<path d="M7.6 24.75s-1.225 0.712 0.869 0.95c2.537 0.288 3.831 0.25 6.625-0.281 0 0 0.738 0.462 1.762 0.863-6.262 2.681-14.175-0.156-9.256-1.531zM6.838 21.244s-1.369 1.012 0.725 1.231c2.706 0.281 4.85 0.3 8.55-0.413 0 0 0.512 0.519 1.319 0.8-7.581 2.219-16.019 0.181-10.594-1.619zM13.287 15.3c1.544 1.775-0.406 3.375-0.406 3.375s3.919-2.025 2.119-4.556c-1.681-2.362-2.969-3.537 4.006-7.581 0.006 0-10.95 2.737-5.719 8.762zM21.575 27.337s0.906 0.744-0.994 1.325c-3.619 1.094-15.050 1.425-18.225 0.044-1.144-0.494 1-1.188 1.675-1.331 0.7-0.15 1.106-0.125 1.106-0.125-1.269-0.894-8.206 1.756-3.525 2.512 12.762 2.075 23.275-0.931 19.962-2.425zM8.188 17.613s-5.819 1.381-2.063 1.881c1.588 0.212 4.75 0.163 7.694-0.081 2.406-0.2 4.825-0.637 4.825-0.637s-0.85 0.363-1.462 0.781c-5.906 1.556-17.313 0.831-14.031-0.756 2.781-1.337 5.037-1.188 5.037-1.188zM18.625 23.444c6.006-3.119 3.225-6.119 1.288-5.712-0.475 0.1-0.688 0.188-0.688 0.188s0.175-0.275 0.512-0.394c3.831-1.35 6.781 3.975-1.238 6.081 0-0.006 0.094-0.087 0.125-0.163zM15 0s3.325 3.325-3.156 8.438c-5.194 4.1-1.188 6.444 0 9.113-3.031-2.738-5.256-5.144-3.762-7.387 2.194-3.281 8.262-4.881 6.919-10.162zM8.781 31.9c5.762 0.369 14.613-0.206 14.819-2.931 0 0-0.4 1.031-4.762 1.856-4.919 0.925-10.988 0.819-14.581 0.225 0-0.006 0.737 0.606 4.525 0.85z"></path>
</svg>
