<!-- Generated by IcoMoon.io -->
<svg version="1.1" xmlns="http://www.w3.org/2000/svg" width="28" height="32" viewBox="0 0 28 32">
<title>jedi-order</title>
<path d="M14.493 20.983l1.965-2.868-1.261 3.469 3.91 0.568-3.91 0.567 1.514 2.964s-1.889-1.986-2.156-2.266c0.11 4.299 0.137 5.356 0.137 5.356s9.65-4.478 4.289-14.381c0 0 6.686-7.379 0.631-11.921 0 0 10.344 6.244 3.784 16.966 0 0 5.424-5.298 2.586-10.659 0 0 4.919 6.938-1.073 14.569 0 0 1.64-1.009 3.091-4.857 0 0-1.058 11.454-13.873 11.604v0.001h-0.255v-0.001c-12.814-0.15-13.872-11.604-13.872-11.604 1.451 3.848 3.090 4.857 3.090 4.857-5.992-7.632-1.072-14.569-1.072-14.569-2.838 5.361 2.586 10.659 2.586 10.659-6.559-10.723 3.784-16.966 3.784-16.966-6.055 4.541 0.631 11.921 0.631 11.921-5.361 9.903 4.289 14.381 4.289 14.381s0.027-1.058 0.137-5.356l-2.155 2.266 1.514-2.964-3.91-0.567 3.91-0.568-1.261-3.469 1.965 2.868c0.141-5.491 0.489-19.114 0.491-19.178l0.001-0.152 0.001 0.063 0.002-0.063 0.001 0.152c0.003 0.107 0.351 13.7 0.491 19.178z"></path>
</svg>
