<!-- Generated by IcoMoon.io -->
<svg version="1.1" xmlns="http://www.w3.org/2000/svg" width="34" height="32" viewBox="0 0 34 32">
<title>jedi</title>
<path d="M29.999 22l3.68-3.679c0.206-1.050 0.321-2.133 0.321-3.241 0-0.363-0.042-0.719-0.066-1.079h-2.934l2.578-2.578c-0.906-4.049-3.277-7.691-6.744-10.142-0.173-0.123-0.373-0.187-0.578-0.187-0.336 0-0.651 0.169-0.843 0.453-0.191 0.281-0.227 0.624-0.101 0.943 0.409 1.029 0.616 2.108 0.616 3.207 0 2.82-1.314 5.411-3.606 7.108-0.251 0.186-0.404 0.469-0.419 0.775-0.015 0.307 0.11 0.604 0.343 0.814 2.058 1.859 2.959 4.594 2.411 7.317-0.609 3.022-3.052 5.444-6.082 6.031l-0.156-4.084 1.698 1.154c0.186 0.129 0.462 0.106 0.626-0.050 0.096-0.091 0.155-0.22 0.155-0.362 0-0.095-0.027-0.184-0.073-0.26l0.001 0.002-1.257-2.108 2.629-0.545c0.231-0.047 0.399-0.253 0.399-0.489s-0.168-0.441-0.399-0.489l-2.629-0.546 1.258-2.111c0.12-0.202 0.084-0.457-0.086-0.619-0.169-0.159-0.436-0.181-0.625-0.050l-1.899 1.292-0.721-17.996c-0.009-0.268-0.228-0.481-0.497-0.481-0.001 0-0.002 0-0.003 0h0c-0.271 0-0.49 0.211-0.5 0.479l-0.72 17.998-1.899-1.291c-0.196-0.133-0.454-0.114-0.625 0.049-0.17 0.162-0.206 0.417-0.085 0.621l1.257 2.108-2.629 0.546c-0.231 0.047-0.399 0.253-0.399 0.489s0.167 0.442 0.399 0.489l2.629 0.545-1.258 2.111c-0.12 0.202-0.084 0.458 0.087 0.621 0.162 0.153 0.439 0.172 0.625 0.047l1.697-1.155-0.156 4.079c-3.559-0.727-6.243-3.868-6.243-7.62 0-2.192 0.914-4.225 2.573-5.724 0.232-0.21 0.357-0.507 0.342-0.813s-0.168-0.588-0.418-0.774c-2.292-1.697-3.607-4.289-3.607-7.109 0-1.098 0.207-2.176 0.615-3.204 0.126-0.318 0.089-0.662-0.101-0.943-0.193-0.284-0.508-0.453-0.844-0.453-0.206 0-0.406 0.065-0.579 0.188-3.492 2.47-5.85 6.086-6.748 10.129l2.586 2.586h-2.951c-0.039 0.62-0.061 1.244-0.031 1.874 0.039 0.839 0.159 1.658 0.319 2.463l3.663 3.663h-2.494c2.578 5.639 8.196 9.684 14.694 9.982 0.269 0.012 0.537 0.018 0.803 0.018 6.896 0 12.834-4.114 15.499-10h-2.497z"></path>
</svg>
