<!-- Generated by IcoMoon.io -->
<svg version="1.1" xmlns="http://www.w3.org/2000/svg" width="28" height="32" viewBox="0 0 28 32">
<title>journal-whills</title>
<path d="M28 22.4v-20.8c0-1-0.6-1.6-1.6-1.6h-20.4c-3.4 0-6 2.6-6 6v20c0 3.4 2.6 6 6 6h20.4c0.8 0 1.6-0.6 1.6-1.6v-1c0-0.4-0.2-0.8-0.6-1.2-0.2-1-0.2-3.8 0-4.6 0.4-0.2 0.6-0.6 0.6-1.2zM8.318 9.024l1.329 1.329c0.098 0.098 0.226 0.146 0.354 0.146s0.256-0.049 0.354-0.146c0.195-0.195 0.195-0.512 0-0.707l-1.651-1.651c0.625-1.306 1.64-2.373 2.898-3.079-0.374 0.609-0.601 1.317-0.601 2.084 0 1.248 0.583 2.348 1.479 3.082-0.603 0.629-0.979 1.478-0.979 2.418 0 1.684 1.19 3.088 2.774 3.422l0.085-2.044-0.648 0.44c-0.043 0.028-0.092 0.043-0.141 0.043-0.063 0-0.124-0.024-0.172-0.068-0.048-0.046-0.078-0.11-0.078-0.182 0-0.047 0.013-0.091 0.036-0.129l-0.001 0.001 0.534-0.894-1.119-0.232c-0.116-0.024-0.199-0.127-0.199-0.245s0.083-0.221 0.199-0.245l1.119-0.232-0.534-0.894c-0.059-0.101-0.042-0.229 0.043-0.309 0.085-0.081 0.215-0.090 0.313-0.026l0.751 0.51 0.289-6.926c0.006-0.134 0.116-0.239 0.25-0.239s0.244 0.106 0.25 0.239l0.293 7.018 0.887-0.603c0.039-0.026 0.088-0.042 0.14-0.042 0.067 0 0.127 0.026 0.173 0.068l-0-0c0.048 0.046 0.078 0.11 0.078 0.182 0 0.047-0.013 0.091-0.036 0.129l0.001-0.001-0.534 0.894 1.119 0.232c0.116 0.024 0.199 0.127 0.199 0.245s-0.083 0.221-0.199 0.245l-1.119 0.232 0.534 0.894c0.059 0.101 0.042 0.229-0.043 0.309-0.048 0.045-0.111 0.068-0.172 0.068-0.049 0-0.098-0.014-0.141-0.043l-0.793-0.539 0.089 2.143c1.583-0.334 2.773-1.738 2.773-3.421 0-0.94-0.376-1.789-0.979-2.418 0.896-0.734 1.479-1.834 1.479-3.082 0-0.766-0.226-1.475-0.6-2.083 1.258 0.705 2.273 1.772 2.898 3.079l-1.651 1.651c-0.195 0.195-0.195 0.512 0 0.707 0.098 0.098 0.226 0.146 0.354 0.146s0.256-0.049 0.354-0.146l1.329-1.329c0.186 0.63 0.317 1.284 0.317 1.975 0 0.033-0.009 0.062-0.009 0.094l-2.319 2.029c-0.105 0.092-0.171 0.226-0.171 0.376 0 0.126 0.047 0.242 0.125 0.33l-0-0.001c0.092 0.105 0.226 0.171 0.375 0.171 0 0 0.001 0 0.001 0h-0c0.117 0 0.234-0.041 0.329-0.124l1.474-1.29c-0.722 3.099-3.486 5.414-6.804 5.414s-6.082-2.315-6.804-5.414l1.474 1.29c0.087 0.077 0.202 0.124 0.328 0.124 0 0 0.001 0 0.001 0h-0c0.139 0 0.277-0.057 0.376-0.171 0.182-0.208 0.161-0.524-0.047-0.705l-2.319-2.029c-0.001-0.033-0.009-0.062-0.009-0.094-0.001-0.691 0.131-1.346 0.317-1.976zM23.8 28h-17.8c-1.2 0-2-0.8-2-2s1-2 2-2h17.8v4z"></path>
</svg>
