<!-- Generated by IcoMoon.io -->
<svg version="1.1" xmlns="http://www.w3.org/2000/svg" width="18" height="32" viewBox="0 0 18 32">
<title>kaggle</title>
<path d="M18.233 31.811c-0.032 0.126-0.157 0.188-0.376 0.188h-4.183c-0.251 0-0.469-0.109-0.658-0.329l-6.908-8.786-1.926 1.832v6.814c0 0.314-0.157 0.47-0.47 0.47h-3.243c-0.314 0-0.47-0.156-0.47-0.47v-31.061c0-0.313 0.156-0.469 0.47-0.469h3.243c0.313 0 0.47 0.157 0.47 0.469v19.125l8.27-8.364c0.219-0.219 0.439-0.329 0.658-0.329h4.324c0.435 0 0.494 0.492 0.329 0.658l-8.741 8.457 9.116 11.325z"></path>
</svg>
