<!-- Generated by IcoMoon.io -->
<svg version="1.1" xmlns="http://www.w3.org/2000/svg" width="32" height="32" viewBox="0 0 32 32">
<title>key3</title>
<path d="M27.057 2.391l-2.667 2.667c-0.521 0.521-0.521 1.365 0 1.885s1.365 0.521 1.885 0l2.667-2.667c0.521-0.521 0.521-1.365 0-1.885s-1.365-0.521-1.885 0zM16.123 15.197c-1.683-1.659-3.877-2.492-6.071-2.497-2.203-0.004-4.411 0.827-6.104 2.497-1.703 1.68-2.564 3.895-2.58 6.111s0.819 4.443 2.499 6.145c1.787 1.764 4.012 2.595 6.228 2.58s4.431-0.876 6.111-2.58 2.512-3.929 2.497-6.145-0.876-4.431-2.58-6.111zM14.251 17.096c1.18 1.164 1.776 2.693 1.785 4.231s-0.565 3.075-1.729 4.255-2.693 1.776-4.231 1.785-3.075-0.565-4.255-1.729c-1.221-1.236-1.796-2.773-1.785-4.311s0.607-3.067 1.785-4.231c1.172-1.156 2.697-1.732 4.225-1.728 1.521 0.003 3.039 0.58 4.203 1.728zM16.129 17.089l5.48-5.48c0.521-0.521 0.521-1.365 0-1.885s-1.365-0.521-1.885 0l-5.48 5.48c-0.521 0.521-0.521 1.365 0 1.885s1.365 0.521 1.885 0zM19.724 11.609l4 4c0.521 0.521 1.365 0.521 1.885 0l4.667-4.667c0.521-0.521 0.521-1.365 0-1.885l-4-4c-0.521-0.521-1.365-0.521-1.885 0s-0.521 1.365 0 1.885l3.057 3.057-2.781 2.781-3.057-3.057c-0.521-0.521-1.365-0.521-1.885 0s-0.521 1.365 0 1.885zM21.609 11.609l4.667-4.667c0.521-0.521 0.521-1.365 0-1.885s-1.365-0.521-1.885 0l-4.667 4.667c-0.521 0.521-0.521 1.365 0 1.885s1.365 0.521 1.885 0z"></path>
</svg>
