<!-- Generated by IcoMoon.io -->
<svg version="1.1" xmlns="http://www.w3.org/2000/svg" width="36" height="32" viewBox="0 0 36 32">
<title>keyboard1</title>
<path d="M33 4h-30c-1.657 0-3 1.343-3 3v18c0 1.657 1.343 3 3 3h30c1.657 0 3-1.343 3-3v-18c0-1.657-1.343-3-3-3zM33.5 25c0 0.276-0.224 0.5-0.5 0.5h-30c-0.276 0-0.5-0.224-0.5-0.5v-18c0-0.276 0.224-0.5 0.5-0.5h30c0.276 0 0.5 0.224 0.5 0.5v18zM10.625 16.875v-1.75c0-0.414-0.336-0.75-0.75-0.75h-1.75c-0.414 0-0.75 0.336-0.75 0.75v1.75c0 0.414 0.336 0.75 0.75 0.75h1.75c0.414 0 0.75-0.336 0.75-0.75zM16.625 16.875v-1.75c0-0.414-0.336-0.75-0.75-0.75h-1.75c-0.414 0-0.75 0.336-0.75 0.75v1.75c0 0.414 0.336 0.75 0.75 0.75h1.75c0.414 0 0.75-0.336 0.75-0.75zM22.625 16.875v-1.75c0-0.414-0.336-0.75-0.75-0.75h-1.75c-0.414 0-0.75 0.336-0.75 0.75v1.75c0 0.414 0.336 0.75 0.75 0.75h1.75c0.414 0 0.75-0.336 0.75-0.75zM28.625 16.875v-1.75c0-0.414-0.336-0.75-0.75-0.75h-1.75c-0.414 0-0.75 0.336-0.75 0.75v1.75c0 0.414 0.336 0.75 0.75 0.75h1.75c0.414 0 0.75-0.336 0.75-0.75zM7.625 22v-1.75c0-0.414-0.336-0.75-0.75-0.75h-1.75c-0.414 0-0.75 0.336-0.75 0.75v1.75c0 0.414 0.336 0.75 0.75 0.75h1.75c0.414 0 0.75-0.336 0.75-0.75zM31.625 22v-1.75c0-0.414-0.336-0.75-0.75-0.75h-1.75c-0.414 0-0.75 0.336-0.75 0.75v1.75c0 0.414 0.336 0.75 0.75 0.75h1.75c0.414 0 0.75-0.336 0.75-0.75zM7.625 11.75v-1.75c0-0.414-0.336-0.75-0.75-0.75h-1.75c-0.414 0-0.75 0.336-0.75 0.75v1.75c0 0.414 0.336 0.75 0.75 0.75h1.75c0.414 0 0.75-0.336 0.75-0.75zM13.625 11.75v-1.75c0-0.414-0.336-0.75-0.75-0.75h-1.75c-0.414 0-0.75 0.336-0.75 0.75v1.75c0 0.414 0.336 0.75 0.75 0.75h1.75c0.414 0 0.75-0.336 0.75-0.75zM19.625 11.75v-1.75c0-0.414-0.336-0.75-0.75-0.75h-1.75c-0.414 0-0.75 0.336-0.75 0.75v1.75c0 0.414 0.336 0.75 0.75 0.75h1.75c0.414 0 0.75-0.336 0.75-0.75zM25.625 11.75v-1.75c0-0.414-0.336-0.75-0.75-0.75h-1.75c-0.414 0-0.75 0.336-0.75 0.75v1.75c0 0.414 0.336 0.75 0.75 0.75h1.75c0.414 0 0.75-0.336 0.75-0.75zM31.625 11.75v-1.75c0-0.414-0.336-0.75-0.75-0.75h-1.75c-0.414 0-0.75 0.336-0.75 0.75v1.75c0 0.414 0.336 0.75 0.75 0.75h1.75c0.414 0 0.75-0.336 0.75-0.75zM25.5 21.625v-1c0-0.414-0.336-0.75-0.75-0.75h-13.5c-0.414 0-0.75 0.336-0.75 0.75v1c0 0.414 0.336 0.75 0.75 0.75h13.5c0.414 0 0.75-0.336 0.75-0.75z"></path>
</svg>
