<!-- Generated by IcoMoon.io -->
<svg version="1.1" xmlns="http://www.w3.org/2000/svg" width="34" height="32" viewBox="0 0 34 32">
<title>keyboard2</title>
<path d="M6.857 20.476v1.714q0 0.286-0.286 0.286h-1.714q-0.286 0-0.286-0.286v-1.714q0-0.286 0.286-0.286h1.714q0.286 0 0.286 0.286zM9.143 15.905v1.714q0 0.286-0.286 0.286h-4q-0.286 0-0.286-0.286v-1.714q0-0.286 0.286-0.286h4q0.286 0 0.286 0.286zM6.857 11.333v1.714q0 0.286-0.286 0.286h-1.714q-0.286 0-0.286-0.286v-1.714q0-0.286 0.286-0.286h1.714q0.286 0 0.286 0.286zM25.143 20.476v1.714q0 0.286-0.286 0.286h-15.429q-0.286 0-0.286-0.286v-1.714q0-0.286 0.286-0.286h15.429q0.286 0 0.286 0.286zM13.714 15.905v1.714q0 0.286-0.286 0.286h-1.714q-0.286 0-0.286-0.286v-1.714q0-0.286 0.286-0.286h1.714q0.286 0 0.286 0.286zM11.429 11.333v1.714q0 0.286-0.286 0.286h-1.714q-0.286 0-0.286-0.286v-1.714q0-0.286 0.286-0.286h1.714q0.286 0 0.286 0.286zM18.286 15.905v1.714q0 0.286-0.286 0.286h-1.714q-0.286 0-0.286-0.286v-1.714q0-0.286 0.286-0.286h1.714q0.286 0 0.286 0.286zM16 11.333v1.714q0 0.286-0.286 0.286h-1.714q-0.286 0-0.286-0.286v-1.714q0-0.286 0.286-0.286h1.714q0.286 0 0.286 0.286zM22.857 15.905v1.714q0 0.286-0.286 0.286h-1.714q-0.286 0-0.286-0.286v-1.714q0-0.286 0.286-0.286h1.714q0.286 0 0.286 0.286zM29.714 20.476v1.714q0 0.286-0.286 0.286h-1.714q-0.286 0-0.286-0.286v-1.714q0-0.286 0.286-0.286h1.714q0.286 0 0.286 0.286zM20.571 11.333v1.714q0 0.286-0.286 0.286h-1.714q-0.286 0-0.286-0.286v-1.714q0-0.286 0.286-0.286h1.714q0.286 0 0.286 0.286zM25.143 11.333v1.714q0 0.286-0.286 0.286h-1.714q-0.286 0-0.286-0.286v-1.714q0-0.286 0.286-0.286h1.714q0.286 0 0.286 0.286zM29.714 11.333v6.286q0 0.286-0.286 0.286h-4q-0.286 0-0.286-0.286v-1.714q0-0.286 0.286-0.286h2v-4.286q0-0.286 0.286-0.286h1.714q0.286 0 0.286 0.286zM32 24.762v-16h-29.714v16h29.714zM34.286 8.762v16q0 0.946-0.67 1.616t-1.616 0.67h-29.714q-0.946 0-1.616-0.67t-0.67-1.616v-16q0-0.946 0.67-1.616t1.616-0.67h29.714q0.946 0 1.616 0.67t0.67 1.616z"></path>
</svg>
