<!-- Generated by IcoMoon.io -->
<svg version="1.1" xmlns="http://www.w3.org/2000/svg" width="26" height="32" viewBox="0 0 26 32">
<title>keybase</title>
<path d="M11.075 26.931c0 0.613-0.5 1.113-1.113 1.113s-1.113-0.5-1.113-1.113 0.5-1.113 1.113-1.113c0.613-0.006 1.113 0.494 1.113 1.113zM16.875 25.813c-0.613 0-1.113 0.5-1.113 1.113s0.5 1.113 1.113 1.113 1.113-0.5 1.113-1.113-0.5-1.113-1.113-1.113zM25.769 23.563c0 2.431-0.475 4.619-1.387 6.438h-1.706c1.469-2.419 1.906-5.925 1.4-8.394-1.006 1.844-3.256 2.413-5.369 1.8-7.988-2.344-12.031 1.231-14.662 3.144l1.181-3.706-2.494 2.644c0.3 1.669 0.981 3.206 1.95 4.519h-1.8c-0.606-0.988-1.075-2.063-1.387-3.206l-1.488 1.575c0-4.681-0.344-9.225 3.844-13.45 1.263-1.275 2.731-2.262 4.319-2.919-0.425-0.844-0.594-1.825-0.487-2.875l-1.244-0.075c-1.119-0.069-1.975-1.031-1.912-2.15v-0.006l0.1-1.638c0.069-1.069 0.963-1.913 2.031-1.913 0.081 0-0.019-0.006 1.762 0.106 0.869 0.050 1.344 0.613 1.425 0.712 0.444-0.65 0.906-1.281 1.537-2.156l1.287 0.756c-0.85 1.813-0.569 2.262-0.563 2.269 0.244 0 0.869-0.031 2.025 0.356 1.244 0.412 2.244 1.294 2.806 2.481 0.025 0.056 0.969 1.813 0.075 3.912 1.188 0.381 3.206 1.244 5.15 3.238 2.288 2.35 3.606 5.463 3.606 8.537zM8 7.644c0.2-0.625 0.481-1.231 0.819-1.837 0.006-0.125 0.137-0.819-0.488-0.862-1.781-0.112-1.644-0.1-1.669-0.1-0.287 0-0.519 0.219-0.537 0.506l-0.1 1.638c-0.019 0.294 0.213 0.55 0.506 0.569l1.469 0.088zM9.613 11.506c0.35 0.588 0.881 1.006 1.394 1.25 0-1.325 1.781-2.619 3.3-1.094l0.525 0.644c1.3-1.175 1.213-2.831 0.756-3.806-0.863-1.819-2.931-2-3.394-1.981-0.644 0.025-1.231-0.338-1.481-0.956-0.856 1.325-2.325 3.906-1.1 5.944zM14.794 15.781l-1.231 1.006c-0.119 0.1-0.137 0.275-0.037 0.394l0.556 0.681c0.063 0.075 0.238 0.169 0.394 0.038l1.225-1 0.344 0.425c0.306 0.375 0.863-0.087 0.563-0.456-3.975-4.894-2.594-3.194-3.456-4.256-0.294-0.375-0.869 0.088-0.563 0.456 0.119 0.144 1.15 1.412 1.238 1.519l-0.6 0.494c-0.287 0.238 0.162 0.831 0.463 0.588l0.606-0.5 0.5 0.613zM22.194 17.387c-1.056-1.481-2.663-2.919-4.587-3.775-0.494-0.219-0.938-0.381-1.431-0.537-0.125 0.137-0.256 0.269-0.4 0.387l1.994 2.45c0.65 0.794 0.531 1.969-0.262 2.619-0.081 0.069-0.819 0.669-1.813 0.306-0.181 0.144-0.631 0.619-1.387 0.619-0.537 0-1.037-0.238-1.381-0.656l-0.556-0.681c-0.394-0.488-0.494-1.119-0.313-1.675-0.512-0.619-0.519-1.331-0.287-1.875-0.45-0.081-1.669-0.387-2.669-1.338-3.487 1.294-5.5 4.025-6.331 5.7-0.931 1.887-1.175 3.806-1.244 5.637 0.512-0.544-0.244 0.256 7.125-7.556l-1.869 5.85c3.612-1.944 7.75-2.25 12.338-0.9 1.475 0.431 2.819 0.1 3.5-0.869 0.694-0.975 0.531-2.356-0.425-3.706zM6.912 6.706l0.975 0.063 0.063-0.975-0.975-0.063-0.063 0.975z"></path>
</svg>
