<!-- Generated by IcoMoon.io -->
<svg version="1.1" xmlns="http://www.w3.org/2000/svg" width="32" height="32" viewBox="0 0 32 32">
<title>kiss-wink-heart1</title>
<path d="M19 19.281c0-1.2-1.8-2.594-4.469-2.75-0.238-0.025-0.463 0.15-0.512 0.387-0.056 0.238 0.069 0.481 0.294 0.575l1.056 0.45c0.812 0.344 1.3 0.844 1.3 1.344s-0.488 1-1.294 1.344l-1.063 0.45c-0.356 0.15-0.375 0.762 0 0.925l1.056 0.45c0.812 0.344 1.3 0.844 1.3 1.344s-0.488 1-1.294 1.344l-1.063 0.45c-0.225 0.094-0.35 0.337-0.294 0.575 0.050 0.225 0.256 0.387 0.488 0.387h0.031c2.675-0.156 4.469-1.55 4.469-2.75 0-0.813-0.837-1.706-2.2-2.25 1.356-0.569 2.194-1.462 2.194-2.275zM23.406 14.063l0.594 0.531c0.238 0.206 0.581 0.25 0.856 0.1s0.431-0.463 0.381-0.775c-0.25-1.575-2.137-2.631-3.738-2.631s-3.494 1.056-3.738 2.631c-0.050 0.313 0.106 0.625 0.381 0.775 0.363 0.194 0.7 0.044 0.856-0.1l0.594-0.531c0.925-0.825 2.887-0.825 3.813 0zM8.5 13.031c0 1.106 0.894 2 2 2s2-0.894 2-2-0.894-2-2-2-2 0.894-2 2zM31.319 25.156c-0.5-1.3-1.969-1.969-3.319-1.619l-0.525 0.137-0.144-0.525c-0.369-1.337-1.688-2.281-3.063-2.063-1.575 0.25-2.538 1.788-2.125 3.288l1.431 5.162c0.094 0.331 0.438 0.531 0.775 0.444l5.188-1.344c1.506-0.394 2.356-1.988 1.781-3.481zM20.875 27.269c-1.631 0.781-3.45 1.231-5.375 1.231-6.894 0-12.5-5.606-12.5-12.5s5.606-12.5 12.5-12.5 12.5 5.606 12.5 12.5c0 1.381-0.231 2.706-0.65 3.95 0.563 0.4 1.063 0.887 1.413 1.494 0.4 0.006 0.788 0.087 1.163 0.181 0.681-1.744 1.069-3.637 1.069-5.625 0.006-8.563-6.931-15.5-15.494-15.5s-15.5 6.938-15.5 15.5 6.938 15.5 15.5 15.5c2.213 0 4.306-0.469 6.213-1.306-0.156-0.456 0.269 1.075-0.837-2.925z"></path>
</svg>
