<!-- Generated by IcoMoon.io -->
<svg version="1.1" xmlns="http://www.w3.org/2000/svg" width="40" height="32" viewBox="0 0 40 32">
<title>language</title>
<path d="M19 26h-17.5c-0.828 0-1.5-0.672-1.5-1.5v-17c0-0.828 0.672-1.5 1.5-1.5h17.5v20zM11.458 21.461c0.094 0.314 0.381 0.539 0.72 0.539 0 0 0 0 0 0h1.429c0.514 0 0.875-0.505 0.71-0.991l-3.591-10.566c-0.104-0.298-0.382-0.509-0.71-0.509 0 0 0 0 0 0h-2.031c-0.328 0-0.607 0.21-0.709 0.503l-0.002 0.005-3.591 10.566c-0.165 0.486 0.196 0.991 0.71 0.991h1.425c0.341 0 0.628-0.227 0.72-0.538l0.001-0.005 0.57-1.988h3.763l0.584 1.992zM9.017 12.685s0.27 1.316 0.489 2.076l0.675 2.346h-2.379l0.692-2.346c0.219-0.759 0.489-2.076 0.489-2.076h0.034zM38.5 26h-17.5v-20h17.5c0.828 0 1.5 0.672 1.5 1.5v17c0 0.828-0.672 1.5-1.5 1.5zM36.25 11.75h-4v-1c0-0.414-0.336-0.75-0.75-0.75h-1c-0.414 0-0.75 0.336-0.75 0.75v1h-4c-0.414 0-0.75 0.336-0.75 0.75v1c0 0.414 0.336 0.75 0.75 0.75h7.132c-0.391 0.894-1.032 1.811-1.876 2.7-0.41-0.431-0.775-0.869-1.085-1.308-0.227-0.322-0.662-0.417-1-0.215l-0.861 0.514c-0.372 0.222-0.481 0.714-0.233 1.070 0.379 0.546 0.819 1.084 1.311 1.608-0.508 0.389-1.053 0.765-1.631 1.123-0.345 0.213-0.461 0.66-0.26 1.012l0.496 0.869c0.21 0.368 0.683 0.489 1.044 0.267 0.796-0.489 1.536-1.011 2.215-1.556 0.682 0.548 1.423 1.069 2.212 1.555 0.361 0.222 0.835 0.101 1.045-0.267l0.496-0.869c0.201-0.351 0.086-0.797-0.258-1.011-0.631-0.392-1.162-0.764-1.673-1.16l0.045 0.033c1.314-1.402 2.236-2.893 2.67-4.366h0.713c0.414 0 0.75-0.336 0.75-0.75v-1c0-0.414-0.336-0.75-0.75-0.75z"></path>
</svg>
