<!-- Generated by IcoMoon.io -->
<svg version="1.1" xmlns="http://www.w3.org/2000/svg" width="30" height="32" viewBox="0 0 30 32">
<title>lanyrd</title>
<path d="M0 2.485q-0.032-0.352 0.192-0.64t0.448-0.544 0.736-0.48 0.864-0.416 1.056-0.448 1.12-0.48q1.728-0.704 3.104-0.512t1.728 1.12q0.8 2.144 3.264 10.24t3.712 11.552q8.576-2.816 10.432-3.36 0.512-0.192 1.184-0.128t1.056 0.736q0.736 1.504 1.024 3.168t0.032 2.368q-0.608 0.48-1.92 1.024t-2.4 0.928-2.88 0.928-2.336 0.736q-0.32 0.096-1.216 0.416t-1.696 0.608-1.856 0.608-1.952 0.544-1.728 0.384-1.44 0.096-0.8-0.288q-0.576-0.576-1.024-1.664t-0.928-2.784-0.608-2.112q-1.344-4-3.616-10.816t-3.328-10.016q-0.192-0.416-0.224-0.768z"></path>
</svg>
