<!-- Generated by IcoMoon.io -->
<svg version="1.1" xmlns="http://www.w3.org/2000/svg" width="40" height="32" viewBox="0 0 40 32">
<title>laravel</title>
<path d="M39.844 15.1c-0.263-0.3-3.925-4.881-4.569-5.656s-0.962-0.637-1.356-0.581c-0.4 0.056-5.031 0.838-5.569 0.925-0.538 0.094-0.875 0.306-0.544 0.769 0.294 0.412 3.337 4.731 4.012 5.681l-12.106 2.9-9.637-16.094c-0.381-0.569-0.463-0.769-1.338-0.725-0.875 0.038-7.556 0.594-8.031 0.637-0.475 0.038-1 0.25-0.525 1.375s8.063 17.475 8.275 17.95c0.213 0.475 0.762 1.25 2.050 0.938 1.319-0.319 5.894-1.512 8.394-2.169 1.319 2.394 4.012 7.244 4.512 7.938 0.663 0.931 1.125 0.775 2.144 0.462 0.8-0.244 12.475-4.444 13-4.656 0.525-0.219 0.85-0.369 0.494-0.9-0.263-0.387-3.344-4.512-4.956-6.675 1.106-0.294 5.038-1.338 5.456-1.456 0.494-0.125 0.563-0.363 0.294-0.662zM17.831 19.6c-0.144 0.031-6.925 1.656-7.287 1.738s-0.363 0.044-0.406-0.081c-0.044-0.125-8.063-16.669-8.175-16.875s-0.106-0.369 0-0.369 6.406-0.563 6.625-0.575c0.225-0.013 0.2 0.038 0.281 0.175 0 0 8.888 15.338 9.037 15.606 0.163 0.269 0.069 0.35-0.075 0.381zM36.956 23.188c0.106 0.169 0.219 0.281-0.125 0.4-0.337 0.125-11.481 3.881-11.694 3.975-0.219 0.094-0.387 0.125-0.663-0.281s-3.9-6.675-3.9-6.675l11.8-3.069c0.294-0.094 0.388-0.156 0.575 0.137 0.181 0.3 3.9 5.344 4.006 5.512zM37.712 14.806c-0.263 0.056-4.6 1.131-4.6 1.131l-3.544-4.863c-0.1-0.144-0.181-0.281 0.069-0.313s4.275-0.762 4.456-0.8c0.181-0.044 0.337-0.094 0.563 0.213s3.288 4.188 3.406 4.338c0.112 0.144-0.087 0.231-0.35 0.294z"></path>
</svg>
