<!-- Generated by IcoMoon.io -->
<svg version="1.1" xmlns="http://www.w3.org/2000/svg" width="31" height="32" viewBox="0 0 31 32">
<title>laugh-beam1</title>
<path d="M15.5 0.5c-8.563 0-15.5 6.938-15.5 15.5s6.938 15.5 15.5 15.5 15.5-6.938 15.5-15.5-6.938-15.5-15.5-15.5zM24.337 24.837c-2.363 2.363-5.5 3.663-8.838 3.663s-6.475-1.3-8.838-3.663-3.663-5.5-3.663-8.838 1.3-6.475 3.663-8.838 5.5-3.663 8.838-3.663 6.475 1.3 8.838 3.663 3.663 5.5 3.663 8.838-1.3 6.475-3.663 8.838zM20.5 9.5c-1.488 0-3.294 1.831-3.5 4.463-0.044 0.537 0.675 0.744 0.931 0.281l0.594-1.063c0.481-0.856 1.2-1.35 1.969-1.35s1.488 0.494 1.969 1.35l0.594 1.063c0.256 0.463 0.975 0.25 0.931-0.281-0.194-2.631-2-4.463-3.488-4.463zM7.938 14.244l0.594-1.063c0.481-0.856 1.2-1.35 1.969-1.35s1.488 0.494 1.969 1.35l0.594 1.063c0.256 0.463 0.975 0.25 0.931-0.281-0.206-2.631-2.013-4.463-3.5-4.463s-3.294 1.831-3.5 4.463c-0.037 0.531 0.681 0.744 0.944 0.281zM22.65 18h-14.3c-0.513 0-0.906 0.438-0.844 0.938 0.469 3.7 3.681 6.563 7.569 6.563h0.85c3.887 0 7.1-2.863 7.569-6.563 0.063-0.5-0.331-0.938-0.844-0.938z"></path>
</svg>
