<!-- Generated by IcoMoon.io -->
<svg version="1.1" xmlns="http://www.w3.org/2000/svg" width="31" height="32" viewBox="0 0 31 32">
<title>laugh-wink1</title>
<path d="M15.5 0.5c-8.563 0-15.5 6.938-15.5 15.5s6.938 15.5 15.5 15.5 15.5-6.938 15.5-15.5-6.938-15.5-15.5-15.5zM24.337 24.837c-2.363 2.363-5.5 3.663-8.838 3.663s-6.475-1.3-8.838-3.663c-2.362-2.363-3.663-5.5-3.663-8.838s1.3-6.475 3.663-8.838c2.363-2.362 5.5-3.663 8.838-3.663s6.475 1.3 8.838 3.663c2.363 2.363 3.663 5.5 3.663 8.838s-1.3 6.475-3.663 8.838zM20.5 10.25c-1.606 0-3.494 1.056-3.744 2.631-0.106 0.7 0.719 1.137 1.238 0.675l0.594-0.531c0.925-0.825 2.887-0.825 3.813 0l0.594 0.531c0.531 0.463 1.35 0.019 1.238-0.675-0.238-1.575-2.125-2.631-3.731-2.631zM10.5 14c1.106 0 2-0.894 2-2s-0.894-2-2-2-2 0.894-2 2 0.894 2 2 2zM22.65 18h-14.3c-0.513 0-0.906 0.438-0.844 0.938 0.469 3.7 3.681 6.563 7.569 6.563h0.85c3.887 0 7.1-2.863 7.569-6.563 0.063-0.5-0.331-0.938-0.844-0.938z"></path>
</svg>
