<!-- Generated by IcoMoon.io -->
<svg version="1.1" xmlns="http://www.w3.org/2000/svg" width="41" height="32" viewBox="0 0 41 32">
<title>lego</title>
<path d="M0 21.621h0.768q-0.224-0.448-0.224-1.088 0-2.080 1.472-5.952t2.784-5.856q1.024-1.568 2.688-1.568 1.44 0 1.44 1.088 0 1.664-2.304 6.368h2.624q0.64-1.984 1.696-4.032 1.088-2.176 2.336-2.912t3.712-0.736q0.928 0 1.824 0.448t0.864 1.28-0.416 1.344-1.184 0.704-1.408 0.288-1.472 0.064h-0.288q-0.48 0.704-0.896 1.856 0.576-0.096 1.184-0.096 2.048 0 2.048 1.216 0 0.288-0.096 0.576v0q-0.512 1.888-2.816 1.888-0.736 0-1.6-0.16-0.512 1.536-0.672 2.336 1.664-0.32 2.464-0.32t1.376 0.352 0.576 1.152q0 1.088-0.736 1.824t-1.728 0.992-2.048 0.256q-2.080 0-3.072-1.312v0q-0.64-0.768-0.64-1.984 0-0.736 0.096-1.44 0.256-1.6 0.896-3.584h-2.624q-0.288 0.608-0.832 1.76t-0.8 1.76h-0.032l-0.224 0.448q0.704-0.064 1.088-0.064 1.888 0 1.888 1.28 0 1.632-1.248 2.336t-2.976 0.736q-2.080 0-2.72-1.248h-0.768zM17.216 19.125q0-1.216 0.512-3.040t1.056-3.168q0.608-1.44 1.152-2.368t1.376-1.824 1.952-1.312 2.56-0.416q1.6 0 2.784 0.608t1.184 2.080q0 1.216-0.672 2.176t-1.824 0.992q-1.664 0-1.664-1.056 0-0.192 0.128-0.576t0.096-0.576q0-0.416-0.704-0.416-0.544 0-1.024 0.448t-0.928 1.376-0.576 1.312-0.48 1.248v0q-1.024 2.688-1.024 3.808 0 0.928 0.896 0.928 0.8 0 1.408-0.8t0.832-1.664q-1.344-0.064-1.344-1.12 0-1.184 0.896-1.728t2.112-0.544q1.664 0 2.080 1.12v0q0.128 0.352 0.128 0.832 0 1.6-0.896 3.392t-2.208 2.784v0q-1.696 1.312-3.84 1.312-2.176 0-3.2-1.312v0q-0.768-0.928-0.768-2.496zM27.744 21.621h1.344q-0.576-0.832-0.576-2.112 0-2.528 1.568-6.528 0.608-1.504 1.056-2.368t1.184-1.792 1.824-1.312 2.496-0.416q3.84 0 3.84 3.68 0 1.6-0.704 3.84v0q-0.48 1.632-1.312 3.52v0q-1.184 2.464-2.336 3.488v0q-1.472 1.312-3.808 1.312-2.304 0-3.232-1.312h-1.344zM32.352 18.133h0.096q-0.192 1.12 0.704 1.12 0.736 0 1.376-1.216h-0.064q0.544-1.152 1.44-3.712t0.896-3.264q0-0.768-0.672-0.768-0.64 0-1.056 0.512-0.576 0.832-1.664 3.808v0q-0.8 2.144-1.056 3.52z"></path>
</svg>
