<!-- Generated by IcoMoon.io -->
<svg version="1.1" xmlns="http://www.w3.org/2000/svg" width="32" height="32" viewBox="0 0 32 32">
<title>lemon1</title>
<path d="M30.257 1.743c-1.758-1.758-4.25-2.247-6.066-1.189-2.466 1.436-10.222-3.123-18.491 5.146-8.28 8.28-3.705 16.017-5.146 18.491-1.058 1.816-0.569 4.308 1.189 6.066s4.251 2.246 6.066 1.189c2.464-1.436 10.222 3.123 18.491-5.146 8.28-8.28 3.705-16.017 5.146-18.491 1.058-1.816 0.569-4.308-1.189-6.066zM28.857 6.299c-2.425 4.163 2.85 10.352-4.678 17.88s-13.717 2.253-17.88 4.678c-1.417 0.825-4.002-1.703-3.156-3.155 2.425-4.163-2.85-10.352 4.678-17.88s13.717-2.253 17.88-4.678c1.421-0.828 4 1.705 3.155 3.156zM18.24 6.845c0.086 0.685-0.4 1.31-1.085 1.395-3.428 0.428-8.486 5.487-8.915 8.915-0.086 0.687-0.712 1.171-1.395 1.085-0.685-0.086-1.171-0.71-1.085-1.395 0.573-4.58 6.51-10.513 11.085-11.085 0.685-0.085 1.31 0.4 1.395 1.085z"></path>
</svg>
