<!-- Generated by IcoMoon.io -->
<svg version="1.1" xmlns="http://www.w3.org/2000/svg" width="32" height="32" viewBox="0 0 32 32">
<title>life-ring1</title>
<path d="M16 31.5c8.56 0 15.5-6.94 15.5-15.5s-6.94-15.5-15.5-15.5-15.5 6.94-15.5 15.5 6.94 15.5 15.5 15.5zM9.538 26.705l3.338-3.338c1.988 0.844 4.258 0.845 6.248 0l3.338 3.338c-3.951 2.395-8.974 2.395-12.925 0zM21 16c0 2.757-2.243 5-5 5s-5-2.243-5-5 2.243-5 5-5 5 2.243 5 5zM26.705 22.462l-3.338-3.338c0.844-1.988 0.845-4.258 0-6.248l3.338-3.338c2.395 3.951 2.395 8.974 0 12.925zM22.462 5.295l-3.338 3.338c-1.988-0.844-4.258-0.845-6.248 0l-3.338-3.338c3.951-2.395 8.974-2.395 12.925 0zM5.295 9.538l3.338 3.338c-0.844 1.988-0.845 4.258 0 6.248l-3.338 3.338c-2.395-3.951-2.395-8.974 0-12.925z"></path>
</svg>
