<!-- Generated by IcoMoon.io -->
<svg version="1.1" xmlns="http://www.w3.org/2000/svg" width="32" height="32" viewBox="0 0 32 32">
<title>line-book</title>
<path d="M8.667 2c-1.288 0-2.457 0.524-3.3 1.367s-1.367 2.012-1.367 3.3v20c0 1.288 0.524 2.457 1.367 3.3s2.012 1.367 3.3 1.367h18c0.736 0 1.333-0.597 1.333-1.333v-26.667c0-0.736-0.597-1.333-1.333-1.333zM25.333 24.667v4h-16.667c-0.552 0-1.051-0.223-1.415-0.585s-0.585-0.863-0.585-1.415 0.223-1.051 0.585-1.415 0.863-0.585 1.415-0.585zM8.667 4.667h16.667v17.333h-16.667c-0.716 0-1.393 0.161-2 0.449v-15.783c0-0.552 0.223-1.051 0.585-1.415s0.863-0.585 1.415-0.585z"></path>
</svg>
