<!-- Generated by IcoMoon.io -->
<svg version="1.1" xmlns="http://www.w3.org/2000/svg" width="32" height="32" viewBox="0 0 32 32">
<title>line-refresh-ccw</title>
<path d="M28.577 12.221c-1.228-3.471-3.749-6.116-6.827-7.585s-6.72-1.764-10.191-0.536c-1.963 0.695-3.669 1.805-4.992 3.152l-3.901 3.667v-4.919c0-0.736-0.597-1.333-1.333-1.333s-1.333 0.597-1.333 1.333v7.997c0 0.020 0 0.040 0.001 0.059 0.007 0.153 0.039 0.3 0.092 0.435 0.053 0.136 0.131 0.264 0.231 0.38 0.016 0.017 0.032 0.036 0.048 0.052 0.121 0.127 0.268 0.229 0.432 0.3 0.159 0.068 0.332 0.107 0.515 0.109 0.005 0 0.009 0 0.015 0h8c0.736 0 1.333-0.597 1.333-1.333s-0.597-1.332-1.333-1.332h-4.635l3.773-3.545c1.036-1.056 2.396-1.947 3.977-2.507 2.777-0.983 5.687-0.748 8.152 0.429s4.479 3.291 5.461 6.068c0.245 0.695 1.008 1.057 1.701 0.812s1.057-1.008 0.812-1.701zM27.3 20.667l-3.733 3.508c-2.112 2.113-4.84 3.155-7.572 3.155s-5.46-1.040-7.543-3.123c-1.187-1.187-2.031-2.575-2.511-3.975-0.24-0.696-0.997-1.067-1.695-0.828s-1.067 0.997-0.828 1.695c0.613 1.785 1.676 3.523 3.148 4.993 2.604 2.603 6.019 3.904 9.429 3.903s6.824-1.304 9.397-3.879l3.94-3.7v4.917c0 0.736 0.597 1.333 1.333 1.333s1.333-0.597 1.333-1.333v-7.997c0-0.020 0-0.040-0.001-0.059-0.007-0.153-0.039-0.3-0.092-0.435-0.053-0.136-0.131-0.264-0.231-0.38-0.016-0.017-0.032-0.036-0.048-0.052-0.121-0.127-0.268-0.229-0.432-0.3-0.159-0.068-0.332-0.107-0.515-0.109-0.005 0-0.009 0-0.015 0h-8c-0.736 0-1.333 0.597-1.333 1.333s0.597 1.333 1.333 1.333z"></path>
</svg>
