<!-- Generated by IcoMoon.io -->
<svg version="1.1" xmlns="http://www.w3.org/2000/svg" width="32" height="32" viewBox="0 0 32 32">
<title>line-grid-2</title>
<path d="M26.667 2h-21.333c-2.21 0-4 1.79-4 4v21.333c0 2.21 1.79 4 4 4h21.333c2.21 0 4-1.79 4-4v-21.333c0-2.21-1.79-4-4-4zM28 6v9.333h-10.667v-10.667h9.333c0.737 0 1.333 0.597 1.333 1.333zM5.333 4.667h9.333v10.667h-10.667v-9.333c0-0.737 0.597-1.333 1.333-1.333zM4 27.333v-9.333h10.667v10.667h-9.333c-0.737 0-1.333-0.597-1.333-1.333zM26.667 28.667h-9.333v-10.667h10.667v9.333c0 0.737-0.597 1.333-1.333 1.333z"></path>
</svg>
