<!-- Generated by IcoMoon.io -->
<svg version="1.1" xmlns="http://www.w3.org/2000/svg" width="32" height="32" viewBox="0 0 32 32">
<title>line-content-right</title>
<path d="M10.667 2h-5.333c-2.21 0-4 1.79-4 4v5.333c0 2.21 1.79 4 4 4h5.333c2.21 0 4-1.79 4-4v-5.333c0-2.21-1.79-4-4-4zM12 11.333c0 0.737-0.597 1.333-1.333 1.333h-5.333c-0.737 0-1.333-0.597-1.333-1.333v-5.333c0-0.737 0.597-1.333 1.333-1.333h5.333c0.737 0 1.333 0.597 1.333 1.333v5.333zM26.667 2h-5.333c-2.21 0-4 1.79-4 4v21.333c0 2.21 1.79 4 4 4h5.333c2.21 0 4-1.79 4-4v-21.333c0-2.21-1.79-4-4-4zM28 27.333c0 0.737-0.597 1.333-1.333 1.333h-5.333c-0.737 0-1.333-0.597-1.333-1.333v-21.333c0-0.737 0.597-1.333 1.333-1.333h5.333c0.737 0 1.333 0.597 1.333 1.333v21.333zM10.667 18h-5.333c-2.21 0-4 1.79-4 4v5.333c0 2.21 1.79 4 4 4h5.333c2.21 0 4-1.79 4-4v-5.333c0-2.21-1.79-4-4-4zM12 27.333c0 0.737-0.597 1.333-1.333 1.333h-5.333c-0.737 0-1.333-0.597-1.333-1.333v-5.333c0-0.737 0.597-1.333 1.333-1.333h5.333c0.737 0 1.333 0.597 1.333 1.333v5.333z"></path>
</svg>
