<!-- Generated by IcoMoon.io -->
<svg version="1.1" xmlns="http://www.w3.org/2000/svg" width="32" height="32" viewBox="0 0 32 32">
<title>line-trending-down</title>
<path d="M22.667 26h8c0.181 0 0.353-0.036 0.511-0.101s0.304-0.161 0.432-0.289 0.224-0.275 0.289-0.432c0.065-0.157 0.101-0.329 0.101-0.511v-8c0-0.736-0.597-1.333-1.333-1.333s-1.333 0.597-1.333 1.333v4.781l-10.391-10.391c-0.521-0.521-1.365-0.521-1.885 0l-5.724 5.724-9.057-9.057c-0.521-0.521-1.365-0.521-1.885 0s-0.521 1.365 0 1.885l10 10c0.521 0.521 1.365 0.521 1.885 0l5.724-5.724 9.448 9.448h-4.781c-0.736 0-1.333 0.597-1.333 1.333s0.597 1.333 1.333 1.333z"></path>
</svg>
