<!-- Generated by IcoMoon.io -->
<svg version="1.1" xmlns="http://www.w3.org/2000/svg" width="32" height="32" viewBox="0 0 32 32">
<title>line-grid</title>
<path d="M4 3.333c-0.736 0-1.333 0.597-1.333 1.333v9.333c0 0.736 0.597 1.333 1.333 1.333h9.333c0.736 0 1.333-0.597 1.333-1.333v-9.333c0-0.736-0.597-1.333-1.333-1.333zM5.333 6h6.667v6.667h-6.667zM18.667 3.333c-0.736 0-1.333 0.597-1.333 1.333v9.333c0 0.736 0.597 1.333 1.333 1.333h9.333c0.736 0 1.333-0.597 1.333-1.333v-9.333c0-0.736-0.597-1.333-1.333-1.333zM20 6h6.667v6.667h-6.667zM18.667 18c-0.736 0-1.333 0.597-1.333 1.333v9.333c0 0.736 0.597 1.333 1.333 1.333h9.333c0.736 0 1.333-0.597 1.333-1.333v-9.333c0-0.736-0.597-1.333-1.333-1.333zM20 20.667h6.667v6.667h-6.667zM4 18c-0.736 0-1.333 0.597-1.333 1.333v9.333c0 0.736 0.597 1.333 1.333 1.333h9.333c0.736 0 1.333-0.597 1.333-1.333v-9.333c0-0.736-0.597-1.333-1.333-1.333zM5.333 20.667h6.667v6.667h-6.667z"></path>
</svg>
