<!-- Generated by IcoMoon.io -->
<svg version="1.1" xmlns="http://www.w3.org/2000/svg" width="32" height="32" viewBox="0 0 32 32">
<title>line-arrow-up</title>
<path d="M7.609 17.609l7.057-7.057v15.448c0 0.736 0.597 1.333 1.333 1.333s1.333-0.597 1.333-1.333v-15.448l7.057 7.057c0.521 0.521 1.365 0.521 1.885 0s0.521-1.365 0-1.885l-9.333-9.333c-0.123-0.123-0.269-0.221-0.432-0.289s-0.337-0.101-0.511-0.101c-0.341 0-0.683 0.131-0.943 0.391l-9.333 9.333c-0.521 0.521-0.521 1.365 0 1.885s1.365 0.521 1.885 0z"></path>
</svg>
