<!-- Generated by IcoMoon.io -->
<svg version="1.1" xmlns="http://www.w3.org/2000/svg" width="32" height="32" viewBox="0 0 32 32">
<title>line-stack</title>
<path d="M26.667 2h-12c-2.21 0-4 1.79-4 4v5.333h-5.333c-2.21 0-4 1.79-4 4v12c0 2.21 1.79 4 4 4h12c2.21 0 4-1.79 4-4v-5.333h5.333c2.21 0 4-1.79 4-4v-12c0-2.21-1.79-4-4-4zM18.667 27.333c0 0.737-0.597 1.333-1.333 1.333h-12c-0.737 0-1.333-0.597-1.333-1.333v-12c0-0.737 0.597-1.333 1.333-1.333h5.333v4c0 2.21 1.79 4 4 4h4v5.333zM28 18c0 0.737-0.597 1.333-1.333 1.333h-12c-0.737 0-1.333-0.597-1.333-1.333v-12c0-0.737 0.597-1.333 1.333-1.333h12c0.737 0 1.333 0.597 1.333 1.333v12z"></path>
</svg>
