<!-- Generated by IcoMoon.io -->
<svg version="1.1" xmlns="http://www.w3.org/2000/svg" width="32" height="32" viewBox="0 0 32 32">
<title>line-contract</title>
<path d="M9.333 4.667v4c0 0.368-0.148 0.7-0.391 0.943s-0.575 0.391-0.943 0.391h-4c-0.736 0-1.333 0.597-1.333 1.333s0.597 1.333 1.333 1.333h4c1.104 0 2.107-0.449 2.828-1.172s1.172-1.724 1.172-2.828v-4c0-0.736-0.597-1.333-1.333-1.333s-1.333 0.597-1.333 1.333zM28 10h-4c-0.368 0-0.7-0.148-0.943-0.391s-0.391-0.575-0.391-0.943v-4c0-0.736-0.597-1.333-1.333-1.333s-1.333 0.597-1.333 1.333v4c0 1.104 0.449 2.107 1.172 2.828s1.724 1.172 2.828 1.172h4c0.736 0 1.333-0.597 1.333-1.333s-0.597-1.333-1.333-1.333zM22.667 28.667v-4c0-0.368 0.148-0.7 0.391-0.943s0.575-0.391 0.943-0.391h4c0.736 0 1.333-0.597 1.333-1.333s-0.597-1.333-1.333-1.333h-4c-1.104 0-2.107 0.449-2.828 1.172s-1.172 1.724-1.172 2.828v4c0 0.736 0.597 1.333 1.333 1.333s1.333-0.597 1.333-1.333zM4 23.333h4c0.368 0 0.7 0.148 0.943 0.391s0.391 0.575 0.391 0.943v4c0 0.736 0.597 1.333 1.333 1.333s1.333-0.597 1.333-1.333v-4c0-1.104-0.449-2.107-1.172-2.828s-1.724-1.172-2.828-1.172h-4c-0.736 0-1.333 0.597-1.333 1.333s0.597 1.333 1.333 1.333z"></path>
</svg>
