<!-- Generated by IcoMoon.io -->
<svg version="1.1" xmlns="http://www.w3.org/2000/svg" width="32" height="32" viewBox="0 0 32 32">
<title>line-shopping-bag</title>
<path d="M25.333 7.333h-18.667l2-2.667h14.667zM29.059 7.856l-3.992-5.323c-0.261-0.348-0.659-0.532-1.067-0.533h-16c-0.435 0-0.821 0.208-1.067 0.533l-3.992 5.323c-0.057 0.075-0.108 0.156-0.148 0.243-0.087 0.183-0.128 0.377-0.127 0.568v18.667c0 1.104 0.449 2.107 1.172 2.828s1.724 1.172 2.828 1.172h18.667c1.104 0 2.107-0.449 2.828-1.172s1.172-1.724 1.172-2.828v-18.667c0-0.292-0.095-0.563-0.252-0.78-0.005-0.007-0.009-0.013-0.015-0.020zM5.333 10h21.333v17.333c0 0.368-0.148 0.7-0.391 0.943s-0.575 0.391-0.943 0.391h-18.667c-0.368 0-0.7-0.148-0.943-0.391s-0.391-0.575-0.391-0.943zM20 14c0 1.105-0.447 2.103-1.172 2.828s-1.723 1.172-2.828 1.172-2.103-0.447-2.828-1.172-1.172-1.723-1.172-2.828c0-0.736-0.597-1.333-1.333-1.333s-1.333 0.597-1.333 1.333c0 1.84 0.748 3.509 1.952 4.715s2.875 1.952 4.715 1.952 3.509-0.748 4.715-1.952 1.952-2.875 1.952-4.715c0-0.736-0.597-1.333-1.333-1.333s-1.333 0.597-1.333 1.333z"></path>
</svg>
