<!-- Generated by IcoMoon.io -->
<svg version="1.1" xmlns="http://www.w3.org/2000/svg" width="32" height="32" viewBox="0 0 32 32">
<title>line-database</title>
<path d="M5.333 7.336c0 0 0.004-0.127 0.284-0.384 0.327-0.3 0.895-0.644 1.741-0.973 1.999-0.78 5.095-1.312 8.641-1.312s6.643 0.532 8.643 1.312c0.845 0.329 1.415 0.673 1.741 0.973 0.273 0.252 0.283 0.375 0.283 0.384 0 0.004-0.009 0.127-0.284 0.379-0.327 0.3-0.895 0.644-1.741 0.973-1.999 0.78-5.095 1.312-8.641 1.312s-6.643-0.532-8.643-1.312c-0.845-0.329-1.415-0.673-1.741-0.973-0.277-0.256-0.283-0.379-0.283-0.379zM26.667 20.043v5.961c-0.055 0.129-0.128 0.241-0.289 0.388-0.327 0.3-0.895 0.643-1.737 0.971-1.993 0.776-5.079 1.304-8.64 1.304s-6.647-0.528-8.64-1.304c-0.844-0.328-1.411-0.671-1.737-0.971-0.16-0.147-0.235-0.259-0.265-0.323l-0.008-6.019c0.331 0.168 0.68 0.323 1.043 0.464 2.396 0.932 5.836 1.485 9.608 1.485s7.212-0.553 9.608-1.485c0.369-0.144 0.724-0.3 1.059-0.472zM26.667 10.703v5.951c0 0.005 0 0.011 0 0.017-0.055 0.129-0.128 0.241-0.289 0.388-0.327 0.3-0.895 0.643-1.737 0.971-1.993 0.776-5.079 1.304-8.64 1.304s-6.647-0.528-8.64-1.304c-0.844-0.328-1.411-0.671-1.737-0.971-0.16-0.147-0.235-0.259-0.265-0.323-0.001-0.053-0.005-0.105-0.012-0.156l-0.007-5.876c0.331 0.171 0.684 0.325 1.051 0.469 2.401 0.936 5.851 1.493 9.611 1.493s7.209-0.557 9.611-1.493c0.368-0.144 0.723-0.3 1.056-0.471zM2.667 7.333v18.667c0 0.077 0.003 0.155 0.009 0.232 0.076 0.887 0.567 1.596 1.143 2.125 0.664 0.609 1.567 1.099 2.573 1.491 2.396 0.932 5.836 1.485 9.608 1.485s7.212-0.553 9.608-1.485c1.007-0.392 1.909-0.881 2.573-1.491 0.576-0.529 1.067-1.239 1.143-2.125 0.007-0.077 0.009-0.155 0.009-0.232v-18.667c0-0.075-0.003-0.149-0.009-0.224-0.073-0.885-0.563-1.593-1.136-2.12-0.664-0.612-1.569-1.103-2.577-1.496-2.401-0.936-5.851-1.493-9.611-1.493s-7.209 0.557-9.611 1.493c-1.008 0.393-1.913 0.885-2.577 1.496-0.573 0.527-1.063 1.236-1.136 2.12-0.007 0.075-0.009 0.149-0.009 0.224z"></path>
</svg>
