<!-- Generated by IcoMoon.io -->
<svg version="1.1" xmlns="http://www.w3.org/2000/svg" width="32" height="32" viewBox="0 0 32 32">
<title>line-move</title>
<path d="M14.667 6.552v8.781h-8.781l1.724-1.724c0.521-0.521 0.521-1.365 0-1.885s-1.365-0.521-1.885 0l-4 4c-0.241 0.241-0.391 0.575-0.391 0.943 0 0.181 0.036 0.353 0.101 0.511s0.161 0.304 0.289 0.432l4 4c0.521 0.521 1.365 0.521 1.885 0s0.521-1.365 0-1.885l-1.724-1.724h8.781v8.781l-1.724-1.724c-0.521-0.521-1.365-0.521-1.885 0s-0.521 1.365 0 1.885l4 4c0.128 0.128 0.275 0.224 0.432 0.289s0.329 0.101 0.511 0.101c0.173 0 0.348-0.033 0.511-0.101 0.157-0.065 0.304-0.161 0.432-0.289l4-4c0.521-0.521 0.521-1.365 0-1.885s-1.365-0.521-1.885 0l-1.724 1.724v-8.781h8.781l-1.724 1.724c-0.521 0.521-0.521 1.365 0 1.885s1.365 0.521 1.885 0l4-4c0.128-0.128 0.224-0.275 0.289-0.432 0.2-0.483 0.104-1.060-0.289-1.453l-4-4c-0.521-0.521-1.365-0.521-1.885 0s-0.521 1.365 0 1.885l1.724 1.724h-8.781v-8.781l1.724 1.724c0.521 0.521 1.365 0.521 1.885 0s0.521-1.365 0-1.885l-4-4c-0.123-0.123-0.269-0.221-0.432-0.289-0.327-0.135-0.695-0.135-1.021 0-0.157 0.065-0.304 0.161-0.432 0.289l-4 4c-0.521 0.521-0.521 1.365 0 1.885s1.365 0.521 1.885 0z"></path>
</svg>
