<!-- Generated by IcoMoon.io -->
<svg version="1.1" xmlns="http://www.w3.org/2000/svg" width="32" height="32" viewBox="0 0 32 32">
<title>line-tool</title>
<path d="M20.543 9.991l5.027-5.008c0.108-0.105 0.203-0.24 0.273-0.395 0.303-0.672 0.003-1.461-0.668-1.763-0.351-0.157-0.709-0.293-1.076-0.408-2.109-0.656-4.453-0.571-6.617 0.409-2.348 1.063-4.044 2.979-4.885 5.212-0.739 1.956-0.823 4.165-0.116 6.263l-8.596 8.596c-0.812 0.812-1.219 1.88-1.219 2.943s0.407 2.131 1.219 2.943 1.88 1.219 2.943 1.219 2.131-0.407 2.943-1.219l8.597-8.597c0.067 0.023 0.133 0.044 0.201 0.065 2.109 0.656 4.453 0.571 6.617-0.409 2.348-1.063 4.044-2.979 4.885-5.212s0.832-4.792-0.231-7.14c-0.060-0.137-0.152-0.273-0.272-0.393-0.521-0.521-1.365-0.521-1.885 0l-5.008 5.027zM18.648 8.133c-0.511 0.52-0.764 1.2-0.763 1.875 0.003 0.669 0.256 1.343 0.761 1.859l2.143 2.144c0.531 0.52 1.209 0.773 1.884 0.772 0.669-0.003 1.343-0.256 1.859-0.761l3.432-3.432c0.12 1.061-0.020 2.124-0.388 3.101-0.603 1.599-1.812 2.963-3.489 3.723-1.547 0.7-3.216 0.761-4.727 0.292-0.263-0.081-0.521-0.18-0.772-0.293-0.516-0.232-1.103-0.109-1.491 0.273l-9.213 9.213c-0.292 0.292-0.672 0.437-1.057 0.437s-0.765-0.145-1.057-0.437-0.437-0.672-0.437-1.057 0.145-0.765 0.437-1.057l9.213-9.213c0.401-0.401 0.493-0.995 0.272-1.492-0.759-1.677-0.767-3.501-0.164-5.1s1.812-2.963 3.489-3.723c1.136-0.515 2.34-0.684 3.497-0.551z"></path>
</svg>
