<!-- Generated by IcoMoon.io -->
<svg version="1.1" xmlns="http://www.w3.org/2000/svg" width="32" height="32" viewBox="0 0 32 32">
<title>line-twitch</title>
<path d="M26.667 4.667v14.115l-4.552 4.552h-6.115c-0.341 0-0.683 0.131-0.943 0.391l-3.057 3.057v-2.115c0-0.736-0.597-1.333-1.333-1.333h-5.333v-18.667zM28 2h-24c-0.736 0-1.333 0.597-1.333 1.333v21.333c0 0.736 0.597 1.333 1.333 1.333h5.333v4c0 0.736 0.597 1.333 1.333 1.333 0.368 0 0.701-0.149 0.943-0.391l4.943-4.943h6.115c0.368 0 0.701-0.149 0.943-0.391l5.333-5.333c0.26-0.26 0.391-0.601 0.391-0.943v-16c0-0.736-0.597-1.333-1.333-1.333zM16 15.333v-5.333c0-0.736-0.597-1.333-1.333-1.333s-1.333 0.597-1.333 1.333v5.333c0 0.736 0.597 1.333 1.333 1.333s1.333-0.597 1.333-1.333zM22.667 15.333v-5.333c0-0.736-0.597-1.333-1.333-1.333s-1.333 0.597-1.333 1.333v5.333c0 0.736 0.597 1.333 1.333 1.333s1.333-0.597 1.333-1.333z"></path>
</svg>
