<!-- Generated by IcoMoon.io -->
<svg version="1.1" xmlns="http://www.w3.org/2000/svg" width="32" height="32" viewBox="0 0 32 32">
<title>line-droplet</title>
<path d="M16.943 3.311c-0.521-0.521-1.367-0.52-1.887 0.001l-7.537 7.551c-2.343 2.344-3.513 5.417-3.512 8.487s1.173 6.143 3.517 8.484c2.341 2.34 5.412 3.511 8.477 3.512 3.077-0.001 6.151-1.175 8.493-3.517 2.34-2.341 3.511-5.412 3.512-8.477-0.001-3.079-1.175-6.151-3.517-8.492zM16.001 6.14l6.603 6.603c1.824 1.823 2.736 4.208 2.736 6.599s-0.909 4.777-2.732 6.6-4.208 2.735-6.599 2.736-4.777-0.909-6.6-2.732-2.735-4.208-2.736-6.599 0.909-4.777 2.732-6.6z"></path>
</svg>
