<!-- Generated by IcoMoon.io -->
<svg version="1.1" xmlns="http://www.w3.org/2000/svg" width="32" height="32" viewBox="0 0 32 32">
<title>line-zap</title>
<path d="M15.447 7.68l-0.769 6.155c0.044 0.955 0.62 1.499 1.323 1.499h9.153l-8.6 10.32 0.769-6.155c-0.044-0.955-0.62-1.499-1.323-1.499h-9.153zM16.309 2.48l-13.333 16c-0.472 0.565-0.395 1.407 0.171 1.877 0.249 0.209 0.553 0.311 0.853 0.309h10.489l-1.145 9.168c-0.092 0.731 0.427 1.397 1.157 1.488 0.465 0.059 0.904-0.131 1.189-0.469l13.333-16c0.472-0.565 0.395-1.407-0.171-1.877-0.249-0.209-0.553-0.311-0.853-0.309h-10.489l1.145-9.168c0.092-0.731-0.427-1.397-1.157-1.488-0.465-0.059-0.904 0.131-1.189 0.469z"></path>
</svg>
