<!-- Generated by IcoMoon.io -->
<svg version="1.1" xmlns="http://www.w3.org/2000/svg" width="32" height="32" viewBox="0 0 32 32">
<title>line-refresh-cw</title>
<path d="M5.937 13.112c0.983-2.777 2.996-4.892 5.461-6.069s5.376-1.412 8.152-0.429c1.581 0.56 2.941 1.451 3.977 2.507l3.773 3.547h-4.635c-0.736 0-1.333 0.597-1.333 1.333s0.597 1.333 1.333 1.333h7.996c0.007 0 0.012 0 0.019 0 0.183-0.001 0.357-0.041 0.515-0.109 0.159-0.068 0.305-0.168 0.432-0.3 0.016-0.017 0.032-0.035 0.048-0.052 0.1-0.116 0.177-0.244 0.231-0.38s0.085-0.281 0.092-0.435c0.001-0.020 0.001-0.039 0.001-0.057v-8c0-0.736-0.597-1.333-1.333-1.333s-1.333 0.597-1.333 1.333v4.919l-3.901-3.665c-1.323-1.347-3.028-2.457-4.991-3.152-3.471-1.228-7.113-0.932-10.191 0.536s-5.599 4.115-6.827 7.585c-0.247 0.693 0.117 1.455 0.811 1.701s1.456-0.117 1.701-0.812zM2.667 22.416l3.94 3.703c2.572 2.575 5.987 3.877 9.397 3.879s6.825-1.3 9.429-3.903c1.472-1.472 2.535-3.209 3.148-4.993 0.24-0.696-0.131-1.455-0.828-1.695s-1.455 0.131-1.695 0.828c-0.481 1.4-1.324 2.788-2.511 3.975-2.084 2.083-4.812 3.123-7.543 3.123s-5.459-1.043-7.572-3.155l-3.733-3.511h4.633c0.736 0 1.333-0.597 1.333-1.333s-0.597-1.333-1.333-1.333h-7.996c-0.007 0-0.012 0-0.019 0-0.183 0.001-0.357 0.041-0.515 0.109-0.159 0.068-0.305 0.168-0.432 0.3-0.016 0.017-0.032 0.035-0.048 0.052-0.1 0.116-0.177 0.244-0.231 0.38s-0.085 0.281-0.092 0.435c-0.001 0.020-0.001 0.039-0.001 0.057v8c0 0.736 0.597 1.333 1.333 1.333s1.333-0.597 1.333-1.333z"></path>
</svg>
