<!-- Generated by IcoMoon.io -->
<svg version="1.1" xmlns="http://www.w3.org/2000/svg" width="32" height="32" viewBox="0 0 32 32">
<title>line-linkedin</title>
<path d="M21.333 10c-2.577 0-4.912 1.047-6.6 2.733s-2.733 4.023-2.733 6.6v9.333c0 0.736 0.597 1.333 1.333 1.333h5.333c0.736 0 1.333-0.597 1.333-1.333v-9.333c0-0.368 0.148-0.7 0.391-0.943s0.575-0.391 0.943-0.391 0.7 0.148 0.943 0.391 0.391 0.575 0.391 0.943v9.333c0 0.736 0.597 1.333 1.333 1.333h5.333c0.736 0 1.333-0.597 1.333-1.333v-9.333c0-2.577-1.047-4.912-2.733-6.6s-4.023-2.733-6.6-2.733zM21.333 12.667c1.841 0 3.507 0.745 4.715 1.952s1.952 2.873 1.952 4.715v8h-2.667v-8c0-1.104-0.449-2.107-1.172-2.828s-1.724-1.172-2.828-1.172-2.107 0.449-2.828 1.172-1.172 1.724-1.172 2.828v8h-2.667v-8c0-1.841 0.745-3.507 1.952-4.715s2.873-1.952 4.715-1.952zM2.667 11.333c-0.736 0-1.333 0.597-1.333 1.333v16c0 0.736 0.597 1.333 1.333 1.333h5.333c0.736 0 1.333-0.597 1.333-1.333v-16c0-0.736-0.597-1.333-1.333-1.333zM4 14h2.667v13.333h-2.667zM9.333 6c0-1.104-0.449-2.107-1.172-2.828s-1.724-1.172-2.828-1.172-2.107 0.449-2.828 1.172-1.172 1.724-1.172 2.828 0.449 2.107 1.172 2.828 1.724 1.172 2.828 1.172 2.107-0.449 2.828-1.172 1.172-1.724 1.172-2.828zM6.667 6c0 0.368-0.148 0.7-0.391 0.943s-0.575 0.391-0.943 0.391-0.7-0.148-0.943-0.391-0.391-0.575-0.391-0.943 0.148-0.7 0.391-0.943 0.575-0.391 0.943-0.391 0.7 0.148 0.943 0.391 0.391 0.575 0.391 0.943z"></path>
</svg>
