<!-- Generated by IcoMoon.io -->
<svg version="1.1" xmlns="http://www.w3.org/2000/svg" width="32" height="32" viewBox="0 0 32 32">
<title>line-user-cross</title>
<path d="M22.667 28.667v-2.667c0-1.84-0.748-3.509-1.952-4.715s-2.875-1.952-4.715-1.952h-9.333c-1.84 0-3.509 0.748-4.715 1.952s-1.952 2.875-1.952 4.715v2.667c0 0.736 0.597 1.333 1.333 1.333s1.333-0.597 1.333-1.333v-2.667c0-1.105 0.447-2.103 1.172-2.828s1.723-1.172 2.828-1.172h9.333c1.105 0 2.103 0.447 2.828 1.172s1.172 1.723 1.172 2.828v2.667c0 0.736 0.597 1.333 1.333 1.333s1.333-0.597 1.333-1.333zM18 10c0-1.84-0.748-3.509-1.952-4.715s-2.875-1.952-4.715-1.952-3.509 0.748-4.715 1.952-1.952 2.875-1.952 4.715 0.748 3.509 1.952 4.715 2.875 1.952 4.715 1.952 3.509-0.748 4.715-1.952 1.952-2.875 1.952-4.715zM15.333 10c0 1.105-0.447 2.103-1.172 2.828s-1.723 1.172-2.828 1.172-2.103-0.447-2.828-1.172-1.172-1.723-1.172-2.828 0.447-2.103 1.172-2.828 1.723-1.172 2.828-1.172 2.103 0.447 2.828 1.172 1.172 1.723 1.172 2.828zM29.724 10.391l-2.391 2.391-2.391-2.391c-0.521-0.521-1.365-0.521-1.885 0s-0.521 1.365 0 1.885l2.391 2.391-2.391 2.391c-0.521 0.521-0.521 1.365 0 1.885s1.365 0.521 1.885 0l2.391-2.391 2.391 2.391c0.521 0.521 1.365 0.521 1.885 0s0.521-1.365 0-1.885l-2.391-2.391 2.391-2.391c0.521-0.521 0.521-1.365 0-1.885s-1.365-0.521-1.885 0z"></path>
</svg>
