<!-- Generated by IcoMoon.io -->
<svg version="1.1" xmlns="http://www.w3.org/2000/svg" width="32" height="32" viewBox="0 0 32 32">
<title>line-cast</title>
<path d="M2.4 23.44c1.251 0.255 2.305 0.925 3.056 1.848 0.54 0.663 0.924 1.457 1.105 2.321 0.152 0.72 0.859 1.181 1.58 1.029s1.181-0.859 1.029-1.58c-0.269-1.28-0.84-2.463-1.647-3.455-1.127-1.384-2.717-2.395-4.591-2.777-0.721-0.147-1.425 0.319-1.573 1.040s0.319 1.425 1.040 1.573zM2.519 18.059c2.668 0.297 4.992 1.551 6.675 3.395 1.492 1.635 2.479 3.732 2.748 6.035 0.085 0.732 0.748 1.255 1.479 1.169s1.255-0.748 1.169-1.479c-0.335-2.867-1.565-5.483-3.427-7.523-2.104-2.305-5.017-3.877-8.351-4.248-0.732-0.081-1.391 0.445-1.472 1.177s0.445 1.391 1.177 1.472zM4 11.333v-2.667c0-0.368 0.148-0.7 0.391-0.943s0.575-0.391 0.943-0.391h21.333c0.368 0 0.7 0.148 0.943 0.391s0.391 0.575 0.391 0.943v16c0 0.368-0.148 0.7-0.391 0.943s-0.575 0.391-0.943 0.391h-8c-0.736 0-1.333 0.597-1.333 1.333s0.597 1.333 1.333 1.333h8c1.104 0 2.107-0.449 2.828-1.172s1.172-1.724 1.172-2.828v-16c0-1.104-0.449-2.107-1.172-2.828s-1.724-1.172-2.828-1.172h-21.333c-1.104 0-2.107 0.449-2.828 1.172s-1.172 1.724-1.172 2.828v2.667c0 0.736 0.597 1.333 1.333 1.333s1.333-0.597 1.333-1.333zM2.667 28.667c0.736 0 1.333-0.597 1.333-1.333s-0.597-1.333-1.333-1.333-1.333 0.597-1.333 1.333 0.597 1.333 1.333 1.333z"></path>
</svg>
