<!-- Generated by IcoMoon.io -->
<svg version="1.1" xmlns="http://www.w3.org/2000/svg" width="32" height="32" viewBox="0 0 32 32">
<title>line-phone-off</title>
<path d="M8.039 17.021c-2.243-3.457-3.52-7.253-3.885-10.913-0.032-0.355 0.085-0.697 0.305-0.961s0.537-0.44 0.904-0.473l4.117-0.007c0.361-0.004 0.676 0.125 0.916 0.341 0.227 0.205 0.384 0.488 0.431 0.811 0.189 1.429 0.544 2.823 1.009 4.033 0.108 0.288 0.107 0.596 0.013 0.877-0.065 0.193-0.175 0.375-0.323 0.527l-1.683 1.681c-0.521 0.521-0.521 1.365 0 1.885s1.365 0.521 1.885 0l1.705-1.705c0.429-0.44 0.751-0.968 0.943-1.541 0.283-0.843 0.285-1.781-0.052-2.681-0.385-1.004-0.691-2.192-0.859-3.46-0.139-0.953-0.608-1.795-1.284-2.407-0.719-0.648-1.675-1.039-2.703-1.028h-3.995c-0.117 0-0.243 0.005-0.364 0.016-1.099 0.1-2.056 0.637-2.711 1.421s-1.011 1.823-0.911 2.935c0.408 4.083 1.828 8.285 4.301 12.1 0.4 0.617 1.227 0.793 1.844 0.393s0.793-1.227 0.393-1.844zM12.38 22.173l1.895-1.895c1.239 1.104 2.557 2.041 3.865 2.767 0.529 0.295 1.173 0.189 1.591-0.223l1.693-1.693c0.221-0.219 0.503-0.343 0.797-0.372 0.203-0.020 0.413 0.007 0.612 0.080 1.363 0.508 2.76 0.848 4.045 1.005 0.32 0.045 0.611 0.219 0.816 0.469 0.195 0.237 0.308 0.54 0.305 0.865v4.008c0.001 0.373-0.145 0.707-0.387 0.949s-0.572 0.393-0.941 0.395c-4.199-0.448-7.948-1.855-11.017-3.883-1.209-0.768-2.316-1.613-3.276-2.475zM29.724 1.057l-16.308 16.307c-0.041 0.032-0.081 0.068-0.119 0.105-0.039 0.039-0.073 0.079-0.107 0.12l-12.8 12.8c-0.521 0.521-0.521 1.365 0 1.885s1.365 0.521 1.885 0l8.216-8.216c1.097 0.997 2.352 1.96 3.693 2.812 3.424 2.263 7.579 3.816 12.115 4.308 0.123 0.012 0.255 0.017 0.384 0.017 1.104-0.004 2.104-0.457 2.824-1.183s1.164-1.729 1.16-2.828v-3.992c0.005-0.964-0.332-1.867-0.909-2.572-0.613-0.748-1.5-1.277-2.556-1.427-1.067-0.131-2.26-0.419-3.448-0.861-0.577-0.212-1.191-0.291-1.792-0.232-0.884 0.085-1.743 0.465-2.425 1.14l-0.96 0.96c-0.812-0.516-1.628-1.125-2.413-1.815l15.445-15.444c0.521-0.521 0.521-1.365 0-1.885s-1.365-0.521-1.885 0z"></path>
</svg>
