<!-- Generated by IcoMoon.io -->
<svg version="1.1" xmlns="http://www.w3.org/2000/svg" width="32" height="32" viewBox="0 0 32 32">
<title>line-camera-off</title>
<path d="M12 6h7.287l2.271 3.407c0.256 0.383 0.675 0.591 1.109 0.593h5.333c0.368 0 0.7 0.148 0.943 0.391s0.391 0.575 0.391 0.943v12.453c0 0.736 0.597 1.333 1.333 1.333s1.333-0.597 1.333-1.333v-12.453c0-1.104-0.449-2.107-1.172-2.828s-1.724-1.172-2.828-1.172h-4.62l-2.271-3.407c-0.243-0.36-0.648-0.593-1.109-0.593h-8c-0.736 0-1.333 0.597-1.333 1.333s0.597 1.333 1.333 1.333zM11.016 13.568c-0.195 0.217-0.377 0.449-0.545 0.696-1.040 1.519-1.364 3.319-1.051 4.993s1.269 3.235 2.788 4.273 3.319 1.364 4.993 1.051c1.183-0.221 2.307-0.763 3.232-1.596l4.348 4.348h-20.781c-0.368 0-0.7-0.148-0.943-0.391s-0.391-0.575-0.391-0.943v-14.667c0-0.368 0.148-0.7 0.391-0.943s0.575-0.391 0.943-0.391h3.448zM13.884 12.664l-11.608-11.607c-0.521-0.521-1.365-0.521-1.885 0s-0.521 1.365 0 1.885l4.391 4.391h-0.781c-1.104 0-2.107 0.449-2.828 1.172s-1.172 1.724-1.172 2.828v14.667c0 1.104 0.449 2.107 1.172 2.828s1.724 1.172 2.828 1.172h23.448l2.276 2.276c0.521 0.521 1.365 0.521 1.885 0s0.521-1.365 0-1.885l-17.691-17.691zM18.543 21.095c-0.533 0.448-1.167 0.74-1.833 0.865-1.008 0.189-2.084-0.007-2.996-0.631s-1.484-1.556-1.673-2.564 0.007-2.084 0.631-2.996c0.075-0.109 0.153-0.213 0.235-0.311z"></path>
</svg>
