<!-- Generated by IcoMoon.io -->
<svg version="1.1" xmlns="http://www.w3.org/2000/svg" width="32" height="32" viewBox="0 0 32 32">
<title>line-globe</title>
<path d="M22.601 15.333c-0.285-3.587-1.469-7.137-3.565-10.28 2.093 0.545 3.964 1.643 5.449 3.128 1.877 1.877 3.135 4.371 3.441 7.152zM19.039 28.279c1.977-2.968 3.249-6.471 3.559-10.279h5.329c-0.307 2.781-1.564 5.275-3.441 7.152-1.484 1.484-3.355 2.581-5.447 3.127zM9.399 18c0.285 3.587 1.469 7.137 3.565 10.28-2.093-0.545-3.964-1.643-5.449-3.128-1.877-1.877-3.135-4.371-3.441-7.152zM12.961 5.055c-1.976 2.968-3.248 6.471-3.559 10.279h-5.329c0.307-2.781 1.564-5.275 3.441-7.152 1.485-1.484 3.355-2.581 5.447-3.127zM16.005 2c0 0 0 0 0 0-4.059 0.001-7.725 1.644-10.376 4.296-2.653 2.652-4.296 6.321-4.296 10.371s1.643 7.719 4.296 10.371c2.651 2.652 6.317 4.295 10.365 4.296 0 0 0 0 0 0 4.059-0.001 7.724-1.644 10.376-4.296 2.653-2.652 4.296-6.321 4.296-10.371s-1.643-7.719-4.296-10.371c-2.651-2.652-6.317-4.295-10.365-4.296zM19.928 18c-0.336 3.717-1.755 7.147-3.927 9.935-2.305-2.961-3.608-6.424-3.927-9.935zM15.999 5.399c2.305 2.961 3.608 6.424 3.927 9.935h-7.853c0.336-3.717 1.755-7.147 3.927-9.935z"></path>
</svg>
