<!-- Generated by IcoMoon.io -->
<svg version="1.1" xmlns="http://www.w3.org/2000/svg" width="32" height="32" viewBox="0 0 32 32">
<title>line-corner-left-down</title>
<path d="M26.667 4.667h-9.333c-1.84 0-3.509 0.748-4.715 1.952s-1.952 2.875-1.952 4.715v12.781l-4.391-4.391c-0.521-0.521-1.365-0.521-1.885 0s-0.521 1.365 0 1.885l6.667 6.667c0.123 0.123 0.269 0.221 0.432 0.289 0.327 0.135 0.695 0.135 1.021 0 0.157-0.065 0.304-0.161 0.432-0.289l6.667-6.667c0.521-0.521 0.521-1.365 0-1.885s-1.365-0.521-1.885 0l-4.391 4.391v-12.781c0-1.105 0.447-2.103 1.172-2.828s1.723-1.172 2.828-1.172h9.333c0.736 0 1.333-0.597 1.333-1.333s-0.597-1.333-1.333-1.333z"></path>
</svg>
