<!-- Generated by IcoMoon.io -->
<svg version="1.1" xmlns="http://www.w3.org/2000/svg" width="32" height="32" viewBox="0 0 32 32">
<title>line-award</title>
<path d="M19.981 21.232l1 7.536-4.295-2.577c-0.415-0.245-0.937-0.261-1.372 0l-4.295 2.577 1.001-7.535c1.228 0.495 2.572 0.767 3.979 0.767s2.751-0.273 3.981-0.768zM20.443 17.988c-0.077 0.040-0.151 0.087-0.217 0.14-1.227 0.764-2.673 1.205-4.225 1.205-2.209 0-4.208-0.893-5.657-2.343s-2.343-3.448-2.343-5.657 0.893-4.208 2.343-5.657 3.448-2.343 5.657-2.343 4.208 0.893 5.657 2.343 2.343 3.448 2.343 5.657-0.893 4.208-2.343 5.657c-0.371 0.371-0.777 0.705-1.215 0.997zM9.52 19.807l-1.508 11.351c-0.097 0.729 0.416 1.4 1.147 1.497 0.312 0.041 0.615-0.029 0.861-0.179l5.98-3.588 5.981 3.588c0.632 0.379 1.451 0.175 1.829-0.457 0.163-0.271 0.217-0.575 0.179-0.861l-1.507-11.353c0.373-0.287 0.728-0.597 1.060-0.929 1.928-1.928 3.124-4.596 3.124-7.541s-1.196-5.613-3.124-7.543-4.597-3.124-7.543-3.124-5.613 1.196-7.543 3.124-3.124 4.597-3.124 7.543 1.196 5.613 3.124 7.543c0.333 0.333 0.688 0.644 1.061 0.931z"></path>
</svg>
