<!-- Generated by IcoMoon.io -->
<svg version="1.1" xmlns="http://www.w3.org/2000/svg" width="32" height="32" viewBox="0 0 32 32">
<title>line-external-link</title>
<path d="M22.667 18v8c0 0.368-0.148 0.7-0.391 0.943s-0.575 0.391-0.943 0.391h-14.667c-0.368 0-0.7-0.148-0.943-0.391s-0.391-0.575-0.391-0.943v-14.667c0-0.368 0.148-0.7 0.391-0.943s0.575-0.391 0.943-0.391h8c0.736 0 1.333-0.597 1.333-1.333s-0.597-1.333-1.333-1.333h-8c-1.104 0-2.107 0.449-2.828 1.172s-1.172 1.724-1.172 2.828v14.667c0 1.104 0.449 2.107 1.172 2.828s1.724 1.172 2.828 1.172h14.667c1.104 0 2.107-0.449 2.828-1.172s1.172-1.724 1.172-2.828v-8c0-0.736-0.597-1.333-1.333-1.333s-1.333 0.597-1.333 1.333zM14.276 20.276l12.391-12.391v4.781c0 0.736 0.597 1.333 1.333 1.333s1.333-0.597 1.333-1.333v-8c0-0.181-0.036-0.353-0.101-0.511s-0.161-0.304-0.288-0.431c-0.001-0.001-0.001-0.001-0.003-0.003-0.123-0.123-0.269-0.221-0.431-0.288-0.157-0.065-0.329-0.101-0.511-0.101h-8c-0.736 0-1.333 0.597-1.333 1.333s0.597 1.333 1.333 1.333h4.781l-12.391 12.391c-0.521 0.521-0.521 1.365 0 1.885s1.365 0.521 1.885 0z"></path>
</svg>
