<!-- Generated by IcoMoon.io -->
<svg version="1.1" xmlns="http://www.w3.org/2000/svg" width="32" height="32" viewBox="0 0 32 32">
<title>line-arrow-left</title>
<path d="M16.943 25.057l-7.057-7.057h15.448c0.736 0 1.333-0.597 1.333-1.333s-0.597-1.333-1.333-1.333h-15.448l7.057-7.057c0.521-0.521 0.521-1.365 0-1.885s-1.365-0.521-1.885 0l-9.333 9.333c-0.128 0.128-0.224 0.275-0.289 0.432-0.068 0.163-0.101 0.337-0.101 0.511 0 0.341 0.131 0.683 0.391 0.943l9.333 9.333c0.521 0.521 1.365 0.521 1.885 0s0.521-1.365 0-1.885z"></path>
</svg>
