<!-- Generated by IcoMoon.io -->
<svg version="1.1" xmlns="http://www.w3.org/2000/svg" width="32" height="32" viewBox="0 0 32 32">
<title>line-command</title>
<path d="M21.333 22h2.667c0.737 0 1.401 0.297 1.885 0.781s0.781 1.148 0.781 1.885-0.297 1.401-0.781 1.885-1.148 0.781-1.885 0.781-1.401-0.297-1.885-0.781-0.781-1.148-0.781-1.885zM10.667 22v2.667c0 0.737-0.297 1.401-0.781 1.885s-1.148 0.781-1.885 0.781-1.401-0.297-1.885-0.781-0.781-1.148-0.781-1.885 0.297-1.401 0.781-1.885 1.148-0.781 1.885-0.781zM10.667 11.333h-2.667c-0.737 0-1.401-0.297-1.885-0.781s-0.781-1.148-0.781-1.885 0.297-1.401 0.781-1.885 1.148-0.781 1.885-0.781 1.401 0.297 1.885 0.781 0.781 1.148 0.781 1.885zM21.333 11.333h-10.667v10.667h10.667zM24 6c0.737 0 1.401 0.297 1.885 0.781s0.781 1.148 0.781 1.885-0.297 1.401-0.781 1.885-1.148 0.781-1.885 0.781h-2.667v-2.667c0-0.737 0.297-1.401 0.781-1.885s1.148-0.781 1.885-0.781zM13.333 14v-5.333c0-1.472-0.599-2.808-1.563-3.771s-2.299-1.563-3.771-1.563-2.808 0.599-3.771 1.563-1.563 2.299-1.563 3.771 0.599 2.808 1.563 3.771 2.299 1.563 3.771 1.563zM13.333 19.333h-5.333c-1.472 0-2.808 0.599-3.771 1.563s-1.563 2.299-1.563 3.771 0.599 2.808 1.563 3.771 2.299 1.563 3.771 1.563 2.808-0.599 3.771-1.563 1.563-2.299 1.563-3.771zM18.667 19.333v5.333c0 1.472 0.599 2.808 1.563 3.771s2.299 1.563 3.771 1.563 2.808-0.599 3.771-1.563 1.563-2.299 1.563-3.771-0.599-2.808-1.563-3.771-2.299-1.563-3.771-1.563zM18.667 14v5.333h-5.333v-5.333zM24 3.333c-1.472 0-2.808 0.599-3.771 1.563s-1.563 2.299-1.563 3.771v5.333h5.333c1.472 0 2.808-0.599 3.771-1.563s1.563-2.299 1.563-3.771-0.599-2.808-1.563-3.771-2.299-1.563-3.771-1.563z"></path>
</svg>
