<!-- Generated by IcoMoon.io -->
<svg version="1.1" xmlns="http://www.w3.org/2000/svg" width="32" height="32" viewBox="0 0 32 32">
<title>line-map</title>
<path d="M9.333 5.631v18.263l-6.667 3.809v-18.263zM22.667 27.703v-18.263l6.667-3.809v18.261zM20.713 31.18c0.109 0.057 0.227 0.1 0.351 0.125 0.044 0.009 0.089 0.016 0.135 0.020s0.091 0.007 0.136 0.007c-0.001 0.001-0.001 0.001-0.001 0.001s0 0 0.001 0c0.231 0 0.459-0.061 0.661-0.176l0.020-0.012 9.313-5.321c0.427-0.244 0.668-0.691 0.671-1.157v-21.333c0-0.736-0.597-1.333-1.333-1.333-0.244 0-0.472 0.065-0.661 0.176l-8.713 4.979-10.004-5.003c-0.111-0.056-0.228-0.1-0.352-0.125-0.045-0.009-0.089-0.016-0.135-0.020s-0.091-0.007-0.136-0.007c0.001 0 0.001 0 0.001 0s0 0-0.001 0c-0.231 0-0.459 0.061-0.66 0.176l-0.020 0.011-9.313 5.323c-0.428 0.244-0.669 0.691-0.672 1.157v21.333c0 0.736 0.597 1.333 1.333 1.333 0.244 0 0.472-0.065 0.661-0.176l8.713-4.979zM20 9.491v18.352l-8-4v-18.352z"></path>
</svg>
