<!-- Generated by IcoMoon.io -->
<svg version="1.1" xmlns="http://www.w3.org/2000/svg" width="32" height="32" viewBox="0 0 32 32">
<title>line-cloud-lightning</title>
<path d="M25.599 24.507c2.164-0.44 3.948-1.717 5.077-3.421s1.611-3.845 1.171-6.009c-0.404-1.988-1.515-3.656-3.023-4.789-1.357-1.023-3.039-1.613-4.819-1.62h-0.699c-0.967-2.743-2.857-4.944-5.22-6.337-2.644-1.559-5.887-2.109-9.095-1.281s-5.779 2.883-7.337 5.525-2.109 5.887-1.281 9.095c0.796 3.084 2.724 5.579 5.225 7.153 0.191 0.12 0.384 0.235 0.581 0.344 0.644 0.357 1.456 0.124 1.812-0.52s0.124-1.456-0.52-1.812c-0.153-0.085-0.305-0.175-0.453-0.268-1.949-1.228-3.444-3.165-4.064-5.564-0.644-2.496-0.217-5.015 0.996-7.073s3.211-3.652 5.707-4.297 5.015-0.217 7.073 0.996 3.652 3.211 4.297 5.707c0.155 0.58 0.675 1 1.292 1h1.675c1.195 0.005 2.32 0.4 3.227 1.083 1.005 0.756 1.743 1.863 2.012 3.189 0.293 1.444-0.025 2.867-0.78 4.007s-1.941 1.988-3.385 2.281c-0.721 0.147-1.188 0.851-1.041 1.572s0.851 1.188 1.572 1.041zM16.224 14.593l-5.333 8c-0.408 0.613-0.243 1.44 0.369 1.849 0.229 0.153 0.489 0.225 0.74 0.224h5.508l-3.952 5.927c-0.408 0.613-0.243 1.44 0.369 1.849s1.44 0.243 1.849-0.369l5.333-8c0.141-0.208 0.225-0.464 0.225-0.74 0-0.736-0.597-1.333-1.333-1.333h-5.508l3.952-5.927c0.408-0.613 0.243-1.44-0.369-1.849s-1.44-0.243-1.849 0.369z"></path>
</svg>
