<!-- Generated by IcoMoon.io -->
<svg version="1.1" xmlns="http://www.w3.org/2000/svg" width="32" height="32" viewBox="0 0 32 32">
<title>line-gift</title>
<path d="M14.667 18v10.667h-8v-10.667zM17.333 28.667v-10.667h8v10.667zM10 8.667c-0.552 0-1.051-0.223-1.415-0.585s-0.585-0.863-0.585-1.415 0.223-1.051 0.585-1.415 0.863-0.585 1.415-0.585c0.839 0 1.523 0.297 2.112 0.781 0.501 0.411 0.935 0.959 1.301 1.569 0.321 0.535 0.577 1.095 0.773 1.604zM17.795 8.667c0.215-0.555 0.471-1.115 0.791-1.649 0.367-0.612 0.801-1.159 1.301-1.569 0.591-0.484 1.275-0.781 2.113-0.781 0.552 0 1.051 0.223 1.415 0.585s0.585 0.863 0.585 1.415-0.223 1.051-0.585 1.415-0.863 0.585-1.415 0.585zM14.667 11.333v4h-10.667v-4h6zM26.217 8.667c0.288-0.607 0.449-1.284 0.449-2 0-1.288-0.524-2.457-1.367-3.3s-2.012-1.367-3.3-1.367c-1.547 0-2.812 0.573-3.803 1.385-0.804 0.659-1.424 1.471-1.897 2.259-0.107 0.177-0.207 0.355-0.3 0.531-0.093-0.176-0.193-0.353-0.3-0.531-0.473-0.788-1.093-1.6-1.897-2.259-0.991-0.812-2.256-1.385-3.803-1.385-1.288 0-2.457 0.524-3.3 1.367s-1.367 2.012-1.367 3.3c0 0.716 0.161 1.393 0.449 2h-3.116c-0.736 0-1.333 0.597-1.333 1.333v6.667c0 0.736 0.597 1.333 1.333 1.333h1.333v12c0 0.736 0.597 1.333 1.333 1.333h21.333c0.736 0 1.333-0.597 1.333-1.333v-12h1.333c0.736 0 1.333-0.597 1.333-1.333v-6.667c0-0.736-0.597-1.333-1.333-1.333zM17.333 11.333h10.667v4h-10.667z"></path>
</svg>
