<!-- Generated by IcoMoon.io -->
<svg version="1.1" xmlns="http://www.w3.org/2000/svg" width="32" height="32" viewBox="0 0 32 32">
<title>line-corner-right-up</title>
<path d="M5.333 28.667h9.333c1.84 0 3.509-0.748 4.715-1.952s1.952-2.875 1.952-4.715v-12.781l4.391 4.391c0.521 0.521 1.365 0.521 1.885 0s0.521-1.365 0-1.885l-6.667-6.667c-0.123-0.123-0.269-0.221-0.432-0.289-0.483-0.2-1.060-0.104-1.453 0.289l-6.667 6.667c-0.521 0.521-0.521 1.365 0 1.885s1.365 0.521 1.885 0l4.391-4.391v12.781c0 1.105-0.447 2.103-1.172 2.828s-1.723 1.172-2.828 1.172h-9.333c-0.736 0-1.333 0.597-1.333 1.333s0.597 1.333 1.333 1.333z"></path>
</svg>
