<!-- Generated by IcoMoon.io -->
<svg version="1.1" xmlns="http://www.w3.org/2000/svg" width="32" height="32" viewBox="0 0 32 32">
<title>line-tag</title>
<path d="M28.396 19.489c0.777-0.781 1.165-1.803 1.165-2.82 0.001-1.019-0.387-2.043-1.165-2.827l-11.453-11.453c-0.241-0.24-0.575-0.389-0.943-0.389h-13.333c-0.736 0-1.333 0.597-1.333 1.333v13.333c0 0.341 0.131 0.683 0.391 0.944l11.456 11.443c0.781 0.78 1.808 1.171 2.829 1.169s2.048-0.392 2.827-1.172zM26.511 17.604l-9.56 9.56c-0.261 0.261-0.6 0.392-0.943 0.392s-0.683-0.129-0.943-0.389l-11.065-11.053v-11.447h11.448l11.063 11.063c0.256 0.257 0.385 0.596 0.385 0.939 0 0.341-0.129 0.679-0.385 0.936zM9.333 11.333c0.736 0 1.333-0.597 1.333-1.333s-0.597-1.333-1.333-1.333-1.333 0.597-1.333 1.333 0.597 1.333 1.333 1.333z"></path>
</svg>
