<!-- Generated by IcoMoon.io -->
<svg version="1.1" xmlns="http://www.w3.org/2000/svg" width="32" height="32" viewBox="0 0 32 32">
<title>line-cloud-upload</title>
<path d="M14.667 19.885v8.781c0 0.736 0.597 1.333 1.333 1.333s1.333-0.597 1.333-1.333v-8.781l3.057 3.057c0.521 0.521 1.365 0.521 1.885 0s0.521-1.365 0-1.885l-5.333-5.333c-0.123-0.123-0.269-0.221-0.432-0.289s-0.337-0.101-0.511-0.101c-0.341 0-0.683 0.131-0.943 0.391l-5.333 5.333c-0.521 0.521-0.521 1.365 0 1.885s1.365 0.521 1.885 0zM27.825 26.357c1.939-1.057 3.268-2.803 3.845-4.765s0.407-4.149-0.651-6.088c-0.905-1.66-2.316-2.873-3.945-3.551-0.965-0.401-2.007-0.613-3.065-0.62h-0.703c-0.967-2.743-2.859-4.944-5.223-6.336-2.644-1.557-5.887-2.108-9.095-1.279s-5.777 2.883-7.336 5.527-2.108 5.887-1.279 9.095c0.496 1.916 1.431 3.612 2.633 4.951 0.492 0.548 1.336 0.592 1.883 0.1s0.592-1.336 0.1-1.883c-0.917-1.020-1.647-2.333-2.035-3.836-0.645-2.496-0.219-5.015 0.995-7.073s3.209-3.653 5.705-4.299 5.015-0.219 7.073 0.995 3.653 3.209 4.299 5.705c0.155 0.58 0.675 1 1.292 1h1.671c0.715 0.005 1.415 0.148 2.060 0.416 1.087 0.452 2.023 1.257 2.627 2.364 0.705 1.293 0.82 2.748 0.433 4.059s-1.271 2.472-2.564 3.176c-0.647 0.352-0.885 1.163-0.532 1.809s1.163 0.885 1.809 0.532z"></path>
</svg>
