<!-- Generated by IcoMoon.io -->
<svg version="1.1" xmlns="http://www.w3.org/2000/svg" width="32" height="32" viewBox="0 0 32 32">
<title>line-help</title>
<path d="M30.667 16.667c0-4.049-1.643-7.719-4.296-10.371s-6.321-4.296-10.371-4.296-7.719 1.643-10.371 4.296-4.296 6.321-4.296 10.371 1.643 7.719 4.296 10.371 6.321 4.296 10.371 4.296 7.719-1.643 10.371-4.296 4.296-6.321 4.296-10.371zM20 16.667c0 1.105-0.447 2.103-1.172 2.828s-1.723 1.172-2.828 1.172-2.103-0.447-2.828-1.172-1.172-1.723-1.172-2.828 0.447-2.103 1.172-2.828 1.723-1.172 2.828-1.172 2.103 0.447 2.828 1.172 1.172 1.723 1.172 2.828zM23.491 7.291l-3.813 3.813c0 0 0 0 0 0-1.055-0.697-2.319-1.104-3.677-1.104s-2.623 0.407-3.676 1.105l-3.813-3.813c2.052-1.644 4.656-2.625 7.489-2.625s5.437 0.981 7.491 2.624zM25.376 9.176c1.643 2.053 2.624 4.657 2.624 7.491s-0.981 5.437-2.624 7.491l-3.813-3.813c0.697-1.055 1.104-2.319 1.104-3.677s-0.407-2.623-1.105-3.676zM10.439 20.343l-3.813 3.813c-1.644-2.052-2.625-4.656-2.625-7.489s0.981-5.437 2.624-7.491l3.813 3.813c-0.697 1.055-1.104 2.319-1.104 3.677s0.407 2.623 1.105 3.676zM8.509 26.043l3.813-3.813c1.055 0.697 2.319 1.104 3.677 1.104s2.623-0.407 3.676-1.105l3.813 3.813c-2.052 1.644-4.656 2.625-7.489 2.625s-5.437-0.981-7.491-2.624z"></path>
</svg>
