<!-- Generated by IcoMoon.io -->
<svg version="1.1" xmlns="http://www.w3.org/2000/svg" width="32" height="32" viewBox="0 0 32 32">
<title>line-check-circle</title>
<path d="M28 15.44v1.227c-0.001 3.313-1.345 6.311-3.52 8.483s-5.173 3.512-8.487 3.509-6.312-1.345-8.483-3.52-3.512-5.172-3.511-8.487 1.345-6.311 3.52-8.483 5.173-3.512 8.487-3.511c1.773 0.001 3.448 0.385 4.865 1.033 0.669 0.307 1.461 0.011 1.767-0.659s0.011-1.461-0.659-1.767c-1.769-0.808-3.821-1.273-5.972-1.275-4.049-0.003-7.719 1.639-10.373 4.289s-4.299 6.32-4.301 10.369 1.639 7.719 4.289 10.373 6.319 4.3 10.368 4.301 7.719-1.639 10.373-4.289 4.3-6.319 4.303-10.369v-1.227c0-0.736-0.597-1.333-1.333-1.333s-1.333 0.597-1.333 1.333zM28.391 5.057l-12.391 12.403-3.057-3.056c-0.521-0.521-1.365-0.521-1.885 0s-0.521 1.365 0 1.885l4 4c0.521 0.521 1.365 0.52 1.887 0l13.333-13.347c0.52-0.521 0.52-1.365-0.001-1.885s-1.365-0.52-1.885 0.001z"></path>
</svg>
