<!-- Generated by IcoMoon.io -->
<svg version="1.1" xmlns="http://www.w3.org/2000/svg" width="32" height="32" viewBox="0 0 32 32">
<title>line-unlock</title>
<path d="M6.667 16.667h18.667c0.368 0 0.7 0.148 0.943 0.391s0.391 0.575 0.391 0.943v9.333c0 0.368-0.148 0.7-0.391 0.943s-0.575 0.391-0.943 0.391h-18.667c-0.368 0-0.7-0.148-0.943-0.391s-0.391-0.575-0.391-0.943v-9.333c0-0.368 0.148-0.7 0.391-0.943s0.575-0.391 0.943-0.391zM10.667 14v-4c-0.001-1.475 0.593-2.807 1.559-3.775 0.964-0.965 2.292-1.563 3.761-1.565 1.373 0.004 2.597 0.504 3.536 1.333 0.851 0.753 1.463 1.776 1.707 2.945 0.151 0.721 0.856 1.184 1.577 1.033s1.184-0.856 1.033-1.577c-0.363-1.743-1.277-3.272-2.549-4.399-1.413-1.251-3.269-2.005-5.297-2.003-2.209 0.003-4.209 0.901-5.655 2.349s-2.341 3.449-2.339 5.657v4h-1.333c-1.104 0-2.107 0.449-2.828 1.172s-1.172 1.724-1.172 2.828v9.333c0 1.104 0.449 2.107 1.172 2.828s1.724 1.172 2.828 1.172h18.667c1.104 0 2.107-0.449 2.828-1.172s1.172-1.724 1.172-2.828v-9.333c0-1.104-0.449-2.107-1.172-2.828s-1.724-1.172-2.828-1.172z"></path>
</svg>
