<!-- Generated by IcoMoon.io -->
<svg version="1.1" xmlns="http://www.w3.org/2000/svg" width="32" height="32" viewBox="0 0 32 32">
<title>line-toggle-right</title>
<path d="M10.667 6c-2.945 0-5.613 1.196-7.543 3.124s-3.124 4.597-3.124 7.543 1.196 5.613 3.124 7.543 4.597 3.124 7.543 3.124h10.667c2.945 0 5.613-1.196 7.543-3.124s3.124-4.597 3.124-7.543-1.196-5.613-3.124-7.543-4.597-3.124-7.543-3.124zM10.667 8.667h10.667c2.209 0 4.208 0.893 5.657 2.343s2.343 3.448 2.343 5.657-0.893 4.208-2.343 5.657-3.448 2.343-5.657 2.343h-10.667c-2.209 0-4.208-0.893-5.657-2.343s-2.343-3.448-2.343-5.657 0.893-4.208 2.343-5.657 3.448-2.343 5.657-2.343zM26.667 16.667c0-1.472-0.599-2.808-1.563-3.771s-2.299-1.563-3.771-1.563-2.808 0.599-3.771 1.563-1.563 2.299-1.563 3.771 0.599 2.808 1.563 3.771 2.299 1.563 3.771 1.563 2.808-0.599 3.771-1.563 1.563-2.299 1.563-3.771zM24 16.667c0 0.737-0.297 1.401-0.781 1.885s-1.148 0.781-1.885 0.781-1.401-0.297-1.885-0.781-0.781-1.148-0.781-1.885 0.297-1.401 0.781-1.885 1.148-0.781 1.885-0.781 1.401 0.297 1.885 0.781 0.781 1.148 0.781 1.885z"></path>
</svg>
