<!-- Generated by IcoMoon.io -->
<svg version="1.1" xmlns="http://www.w3.org/2000/svg" width="32" height="32" viewBox="0 0 32 32">
<title>line-reply</title>
<path d="M18.667 12.667h-12.781l6.209-6.209c0.521-0.521 0.521-1.365 0-1.886s-1.365-0.521-1.886 0l-8.485 8.485c-0.521 0.521-0.521 1.365 0 1.886l8.485 8.485c0.521 0.521 1.365 0.521 1.886 0s0.521-1.365 0-1.886l-6.209-6.209h12.781c5.155 0 9.333 4.179 9.333 9.333v1.333c0 0.736 0.597 1.333 1.333 1.333s1.333-0.597 1.333-1.333v-1.333c0-6.628-5.373-12-12-12z"></path>
</svg>
