<!-- Generated by IcoMoon.io -->
<svg version="1.1" xmlns="http://www.w3.org/2000/svg" width="32" height="32" viewBox="0 0 32 32">
<title>line-youtube</title>
<path d="M28.751 9.516c0.383 2.039 0.597 4.393 0.583 6.833 0.025 2.037-0.164 4.356-0.583 6.695-0.076 0.277-0.2 0.537-0.363 0.767-0.303 0.428-0.744 0.753-1.265 0.9-0.805 0.215-2.875 0.367-5.169 0.455-2.973 0.115-5.953 0.115-5.953 0.115s-2.98 0-5.953-0.113c-2.295-0.088-4.364-0.239-5.155-0.451-0.273-0.076-0.528-0.199-0.755-0.357-0.415-0.293-0.733-0.715-0.893-1.231-0.38-2.035-0.592-4.381-0.577-6.813-0.028-2.053 0.161-4.389 0.583-6.747 0.076-0.277 0.2-0.537 0.363-0.767 0.303-0.428 0.744-0.753 1.265-0.9 0.805-0.215 2.875-0.367 5.169-0.455 2.973-0.113 5.953-0.113 5.953-0.113s2.98 0 5.955 0.104c2.292 0.080 4.376 0.217 5.141 0.404 0.292 0.084 0.561 0.22 0.797 0.399 0.409 0.309 0.717 0.748 0.857 1.277zM31.347 8.903c-0.289-1.155-0.957-2.12-1.844-2.791-0.497-0.376-1.061-0.659-1.665-0.833-1.197-0.293-3.595-0.431-5.789-0.507-3.023-0.105-6.048-0.105-6.048-0.105s-3.029 0-6.055 0.116c-2.189 0.084-4.6 0.233-5.756 0.543-1.165 0.329-2.108 1.027-2.752 1.933-0.36 0.508-0.625 1.081-0.783 1.691-0.008 0.032-0.015 0.065-0.020 0.095-0.457 2.531-0.665 5.057-0.635 7.308-0.016 2.565 0.215 5.108 0.636 7.336 0.008 0.041 0.017 0.083 0.028 0.117 0.327 1.147 1.027 2.089 1.935 2.731 0.476 0.336 1.009 0.591 1.576 0.748 1.172 0.313 3.581 0.463 5.771 0.547 3.025 0.116 6.055 0.116 6.055 0.116s3.029 0 6.055-0.116c2.189-0.084 4.599-0.233 5.756-0.543 1.164-0.329 2.108-1.027 2.751-1.933 0.36-0.508 0.627-1.081 0.783-1.689 0.008-0.033 0.016-0.067 0.020-0.095 0.453-2.512 0.661-5.020 0.635-7.253 0.016-2.567-0.215-5.111-0.636-7.339-0.005-0.027-0.011-0.053-0.016-0.076zM14.333 18.401v-4.136l3.636 2.068zM13.659 21.852l7.667-4.36c0.64-0.364 0.864-1.179 0.5-1.819-0.124-0.219-0.301-0.389-0.5-0.5l-7.667-4.36c-0.64-0.364-1.455-0.14-1.819 0.5-0.12 0.211-0.176 0.44-0.175 0.659v8.72c0 0.736 0.597 1.333 1.333 1.333 0.243 0 0.469-0.065 0.659-0.175z"></path>
</svg>
