<!-- Generated by IcoMoon.io -->
<svg version="1.1" xmlns="http://www.w3.org/2000/svg" width="32" height="32" viewBox="0 0 32 32">
<title>line-corner-left-up</title>
<path d="M26.667 26h-9.333c-1.105 0-2.103-0.447-2.828-1.172s-1.172-1.723-1.172-2.828v-12.781l4.391 4.391c0.521 0.521 1.365 0.521 1.885 0s0.521-1.365 0-1.885l-6.667-6.667c-0.128-0.128-0.275-0.224-0.432-0.289s-0.329-0.101-0.511-0.101-0.353 0.036-0.511 0.101c-0.157 0.065-0.304 0.161-0.432 0.289l-6.667 6.667c-0.521 0.521-0.521 1.365 0 1.885s1.365 0.521 1.885 0l4.391-4.391v12.781c0 1.84 0.748 3.509 1.952 4.715s2.875 1.952 4.715 1.952h9.333c0.736 0 1.333-0.597 1.333-1.333s-0.597-1.333-1.333-1.333z"></path>
</svg>
