<!-- Generated by IcoMoon.io -->
<svg version="1.1" xmlns="http://www.w3.org/2000/svg" width="32" height="32" viewBox="0 0 32 32">
<title>line-pen-tool</title>
<path d="M24.943 18.943l0.391-0.391 2.115 2.115-7.448 7.448-2.115-2.115 0.391-0.391zM3.003 2.043c-0.047-0.012-0.093-0.021-0.141-0.028-0.191-0.029-0.379-0.015-0.556 0.035-0.176 0.049-0.345 0.136-0.493 0.26-0.123 0.103-0.228 0.228-0.308 0.372-0.080 0.141-0.132 0.293-0.155 0.449-0.027 0.171-0.020 0.34 0.016 0.495 0.001 0.007 0.004 0.015 0.005 0.021l0.005 0.023 4.661 19.311c0.125 0.517 0.537 0.892 1.035 0.995l7.687 1.537c-0.188 0.479-0.089 1.044 0.299 1.431l4 4c0.521 0.521 1.365 0.521 1.885 0l9.333-9.333c0.521-0.521 0.521-1.365 0-1.885l-4-4c-0.387-0.387-0.952-0.487-1.431-0.299l-1.537-7.687c-0.104-0.523-0.501-0.912-0.995-1.035zM18.667 15.333c0-1.104-0.449-2.107-1.172-2.828s-1.724-1.172-2.828-1.172c-0.617 0-1.203 0.14-1.724 0.391l-5.983-5.983 13.9 3.355 1.693 8.465-5.657 5.657-8.465-1.693-3.356-13.899 5.983 5.983c-0.251 0.521-0.391 1.107-0.391 1.724 0 1.104 0.449 2.107 1.172 2.828s1.724 1.172 2.828 1.172 2.107-0.449 2.828-1.172 1.172-1.724 1.172-2.828zM16 15.333c0 0.368-0.148 0.7-0.391 0.943s-0.575 0.391-0.943 0.391-0.7-0.148-0.943-0.391-0.391-0.575-0.391-0.943c0-0.36 0.141-0.685 0.375-0.927 0.005-0.005 0.011-0.011 0.017-0.016s0.011-0.011 0.016-0.017c0.24-0.232 0.565-0.373 0.925-0.373 0.368 0 0.7 0.148 0.943 0.391s0.391 0.575 0.391 0.943z"></path>
</svg>
