<!-- Generated by IcoMoon.io -->
<svg version="1.1" xmlns="http://www.w3.org/2000/svg" width="32" height="32" viewBox="0 0 32 32">
<title>line-marquee-minus</title>
<path d="M9.333 3.333c0 0.737-0.597 1.333-1.333 1.333h-2.667c-0.737 0-1.333 0.597-1.333 1.333v2.667c0 0.737-0.597 1.333-1.333 1.333s-1.333-0.597-1.333-1.333v-2.667c0-2.21 1.79-4 4-4h2.667c0.737 0 1.333 0.597 1.333 1.333zM4 14v5.333c0 0.737-0.597 1.333-1.333 1.333s-1.333-0.597-1.333-1.333v-5.333c0-0.737 0.597-1.333 1.333-1.333s1.333 0.597 1.333 1.333zM9.333 30c0 0.737-0.597 1.333-1.333 1.333h-2.667c-2.21 0-4-1.79-4-4v-2.667c0-0.737 0.597-1.333 1.333-1.333s1.333 0.597 1.333 1.333v2.667c0 0.737 0.597 1.333 1.333 1.333h2.667c0.737 0 1.333 0.597 1.333 1.333zM20 30c0 0.737-0.597 1.333-1.333 1.333h-5.333c-0.737 0-1.333-0.597-1.333-1.333s0.597-1.333 1.333-1.333h5.333c0.737 0 1.333 0.597 1.333 1.333zM30.667 24.667v2.667c0 2.21-1.79 4-4 4h-2.667c-0.737 0-1.333-0.597-1.333-1.333s0.597-1.333 1.333-1.333h2.667c0.737 0 1.333-0.597 1.333-1.333v-2.667c0-0.737 0.597-1.333 1.333-1.333s1.333 0.597 1.333 1.333zM30.667 14v5.333c0 0.737-0.597 1.333-1.333 1.333s-1.333-0.597-1.333-1.333v-5.333c0-0.737 0.597-1.333 1.333-1.333s1.333 0.597 1.333 1.333zM30.667 6v2.667c0 0.737-0.597 1.333-1.333 1.333s-1.333-0.597-1.333-1.333v-2.667c0-0.737-0.597-1.333-1.333-1.333h-2.667c-0.737 0-1.333-0.597-1.333-1.333s0.597-1.333 1.333-1.333h2.667c2.21 0 4 1.79 4 4zM20 3.333c0 0.737-0.597 1.333-1.333 1.333h-5.333c-0.737 0-1.333-0.597-1.333-1.333s0.597-1.333 1.333-1.333h5.333c0.737 0 1.333 0.597 1.333 1.333zM21.333 15.333h-10.667c-0.736 0-1.333 0.597-1.333 1.333s0.597 1.333 1.333 1.333h10.667c0.736 0 1.333-0.597 1.333-1.333s-0.597-1.333-1.333-1.333z"></path>
</svg>
