<!-- Generated by IcoMoon.io -->
<svg version="1.1" xmlns="http://www.w3.org/2000/svg" width="32" height="32" viewBox="0 0 32 32">
<title>line-air-play</title>
<path d="M6.667 22h-1.333c-0.368 0-0.7-0.148-0.943-0.391s-0.391-0.575-0.391-0.943v-13.333c0-0.368 0.148-0.7 0.391-0.943s0.575-0.391 0.943-0.391h21.333c0.368 0 0.7 0.148 0.943 0.391s0.391 0.575 0.391 0.943v13.333c0 0.368-0.148 0.7-0.391 0.943s-0.575 0.391-0.943 0.391h-1.333c-0.736 0-1.333 0.597-1.333 1.333s0.597 1.333 1.333 1.333h1.333c1.104 0 2.107-0.449 2.828-1.172s1.172-1.724 1.172-2.828v-13.333c0-1.104-0.449-2.107-1.172-2.828s-1.724-1.172-2.828-1.172h-21.333c-1.104 0-2.107 0.449-2.828 1.172s-1.172 1.724-1.172 2.828v13.333c0 1.104 0.449 2.107 1.172 2.828s1.724 1.172 2.828 1.172h1.333c0.736 0 1.333-0.597 1.333-1.333s-0.597-1.333-1.333-1.333zM17.024 19.813c-0.047-0.057-0.105-0.116-0.171-0.171-0.565-0.472-1.407-0.395-1.877 0.171l-6.667 8c-0.192 0.229-0.309 0.528-0.309 0.853 0 0.736 0.597 1.333 1.333 1.333h13.333c0.3 0.001 0.604-0.1 0.853-0.309 0.565-0.472 0.643-1.312 0.171-1.877zM16 22.749l3.82 4.584h-7.64z"></path>
</svg>
