<!-- Generated by IcoMoon.io -->
<svg version="1.1" xmlns="http://www.w3.org/2000/svg" width="32" height="32" viewBox="0 0 32 32">
<title>line-cloud-off</title>
<path d="M31.375 23.787c0.861-2.033 0.816-4.227 0.048-6.123s-2.261-3.503-4.295-4.364c-1.035-0.437-2.117-0.644-3.143-0.633h-0.675c-0.827-2.373-2.348-4.347-4.281-5.745-1.731-1.251-3.792-2.041-5.983-2.249-0.733-0.069-1.384 0.468-1.453 1.201s0.468 1.384 1.201 1.453c1.715 0.163 3.324 0.781 4.673 1.756 1.711 1.237 3.003 3.048 3.561 5.245 0.149 0.583 0.671 1.005 1.291 1.005h1.695c0.653-0.007 1.373 0.125 2.073 0.423 1.356 0.575 2.351 1.643 2.864 2.909s0.543 2.725-0.032 4.081c-0.287 0.679 0.029 1.46 0.708 1.748s1.46-0.029 1.748-0.708zM6.472 9.024l16.976 16.976h-11.461c-1.28 0.013-2.537-0.229-3.699-0.703-1.908-0.777-3.559-2.18-4.628-4.113-1.247-2.256-1.463-4.801-0.801-7.099 0.576-2 1.813-3.805 3.612-5.063zM0.391 2.943l4.172 4.173c-2.108 1.6-3.568 3.808-4.267 6.233-0.849 2.949-0.573 6.227 1.031 9.127 1.373 2.484 3.501 4.292 5.955 5.292 1.489 0.605 3.099 0.915 4.732 0.899h11.987c0.652-0.001 1.289-0.080 1.889-0.225l3.835 3.835c0.521 0.521 1.365 0.521 1.885 0s0.521-1.365 0-1.885l-29.333-29.333c-0.521-0.521-1.365-0.521-1.885 0s-0.521 1.365 0 1.885z"></path>
</svg>
