<!-- Generated by IcoMoon.io -->
<svg version="1.1" xmlns="http://www.w3.org/2000/svg" width="32" height="32" viewBox="0 0 32 32">
<title>line-paper-stack</title>
<path d="M18.667 30h-12c-0.737 0-1.333-0.597-1.333-1.333v-22.434c-1.553 0.55-2.667 2.027-2.667 3.768v18.667c0 2.209 1.791 4 4 4h13.333c1.741 0 3.217-1.114 3.768-2.667h-5.101zM25.333 0.667h-13.333c-2.209 0-4 1.791-4 4v18.667c0 2.209 1.791 4 4 4h13.333c2.209 0 4-1.791 4-4v-18.667c0-2.209-1.791-4-4-4zM26.667 23.333c0 0.737-0.597 1.334-1.333 1.334h-13.333c-0.736 0-1.333-0.597-1.333-1.334v-18.667c0-0.737 0.597-1.333 1.333-1.333h13.333c0.737 0 1.333 0.597 1.333 1.333v18.667z"></path>
</svg>
