<!-- Generated by IcoMoon.io -->
<svg version="1.1" xmlns="http://www.w3.org/2000/svg" width="32" height="32" viewBox="0 0 32 32">
<title>line-truck</title>
<path d="M20 20.667h-17.333v-14.667h17.333v5.333zM22.667 12.667h3.448l3.219 3.219v4.781h-6.667zM9.333 25.333c0 0.552-0.223 1.051-0.585 1.415s-0.863 0.585-1.415 0.585-1.051-0.223-1.415-0.585-0.585-0.863-0.585-1.415 0.223-1.051 0.585-1.415 0.863-0.585 1.415-0.585 1.051 0.223 1.415 0.585 0.585 0.863 0.585 1.415zM29.333 25.333c0-0.716-0.161-1.393-0.449-2h1.783c0.736 0 1.333-0.597 1.333-1.333v-6.667c0-0.341-0.131-0.683-0.391-0.943l-4-4c-0.241-0.241-0.575-0.391-0.943-0.391h-4v-5.333c0-0.736-0.597-1.333-1.333-1.333h-20c-0.736 0-1.333 0.597-1.333 1.333v17.333c0 0.736 0.597 1.333 1.333 1.333h1.783c-0.288 0.607-0.449 1.284-0.449 2 0 1.288 0.524 2.457 1.367 3.3s2.012 1.367 3.3 1.367 2.457-0.524 3.3-1.367 1.367-2.012 1.367-3.3c0-0.716-0.161-1.393-0.449-2h8.899c-0.288 0.607-0.449 1.284-0.449 2 0 1.288 0.524 2.457 1.367 3.3s2.012 1.367 3.3 1.367 2.457-0.524 3.3-1.367 1.367-2.012 1.367-3.3zM26.667 25.333c0 0.552-0.223 1.051-0.585 1.415s-0.863 0.585-1.415 0.585-1.051-0.223-1.415-0.585-0.585-0.863-0.585-1.415 0.223-1.051 0.585-1.415 0.863-0.585 1.415-0.585 1.051 0.223 1.415 0.585 0.585 0.863 0.585 1.415z"></path>
</svg>
