<!-- Generated by IcoMoon.io -->
<svg version="1.1" xmlns="http://www.w3.org/2000/svg" width="32" height="32" viewBox="0 0 32 32">
<title>line-link</title>
<path d="M12.265 18.799c1.323 1.769 3.24 2.835 5.264 3.127s4.164-0.189 5.933-1.512c0.319-0.239 0.62-0.5 0.873-0.757l3.993-3.993c1.551-1.605 2.296-3.668 2.261-5.713s-0.852-4.081-2.441-5.615c-1.563-1.509-3.584-2.256-5.599-2.244-1.989 0.011-3.979 0.761-5.516 2.244l-2.308 2.295c-0.523 0.519-0.525 1.364-0.005 1.885s1.364 0.525 1.885 0.005l2.279-2.265c1.027-0.989 2.351-1.489 3.68-1.497 1.345-0.008 2.688 0.489 3.731 1.496 1.060 1.024 1.604 2.377 1.628 3.744s-0.473 2.739-1.48 3.781l-4.007 4.007c-0.152 0.155-0.351 0.329-0.571 0.493-1.18 0.883-2.603 1.203-3.956 1.008s-2.628-0.904-3.509-2.084c-0.441-0.589-1.276-0.711-1.867-0.269s-0.711 1.276-0.269 1.867zM19.735 14.535c-1.323-1.769-3.24-2.835-5.264-3.127s-4.165 0.189-5.935 1.512c-0.319 0.239-0.619 0.5-0.873 0.757l-3.993 3.993c-1.551 1.605-2.296 3.668-2.261 5.713s0.852 4.081 2.441 5.615c1.563 1.509 3.584 2.256 5.599 2.244 1.989-0.011 3.979-0.761 5.516-2.244l2.297-2.297c0.521-0.521 0.521-1.365 0-1.885s-1.365-0.521-1.885 0l-2.261 2.264c-1.027 0.989-2.351 1.489-3.68 1.497-1.345 0.008-2.688-0.489-3.731-1.496-1.060-1.024-1.604-2.377-1.628-3.744s0.473-2.739 1.48-3.781l4.007-4.007c0.152-0.155 0.351-0.329 0.571-0.493 1.18-0.883 2.603-1.203 3.956-1.008s2.628 0.904 3.509 2.084c0.441 0.589 1.276 0.711 1.867 0.269s0.711-1.276 0.269-1.867z"></path>
</svg>
