<!-- Generated by IcoMoon.io -->
<svg version="1.1" xmlns="http://www.w3.org/2000/svg" width="32" height="32" viewBox="0 0 32 32">
<title>line-search</title>
<path d="M30.276 29.057l-7.567-7.567c1.642-2.053 2.624-4.657 2.624-7.49 0-6.627-5.372-12-12-12s-12 5.373-12 12 5.373 12 12 12c2.833 0 5.437-0.982 7.49-2.624l7.567 7.567c0.26 0.26 0.602 0.391 0.943 0.391s0.683-0.13 0.943-0.391c0.521-0.52 0.521-1.365 0-1.885zM13.333 23.333c-5.155 0-9.333-4.179-9.333-9.333s4.179-9.333 9.333-9.333c5.155 0 9.333 4.179 9.333 9.333s-4.178 9.333-9.333 9.333z"></path>
</svg>
