<!-- Generated by IcoMoon.io -->
<svg version="1.1" xmlns="http://www.w3.org/2000/svg" width="32" height="32" viewBox="0 0 32 32">
<title>line-battery-charging</title>
<path d="M6.667 23.333h-2.667c-0.368 0-0.7-0.148-0.943-0.391s-0.391-0.575-0.391-0.943v-10.667c0-0.368 0.148-0.7 0.391-0.943s0.575-0.391 0.943-0.391h4.253c0.736 0 1.333-0.597 1.333-1.333s-0.597-1.333-1.333-1.333h-4.253c-1.104 0-2.107 0.449-2.828 1.172s-1.172 1.724-1.172 2.828v10.667c0 1.104 0.449 2.107 1.172 2.828s1.724 1.172 2.828 1.172h2.667c0.736 0 1.333-0.597 1.333-1.333s-0.597-1.333-1.333-1.333zM20 10h2.667c0.368 0 0.7 0.148 0.943 0.391s0.391 0.575 0.391 0.943v10.667c0 0.368-0.148 0.7-0.391 0.943s-0.575 0.391-0.943 0.391h-4.253c-0.736 0-1.333 0.597-1.333 1.333s0.597 1.333 1.333 1.333h4.253c1.104 0 2.107-0.449 2.828-1.172s1.172-1.724 1.172-2.828v-10.667c0-1.104-0.449-2.107-1.172-2.828s-1.724-1.172-2.828-1.172h-2.667c-0.736 0-1.333 0.597-1.333 1.333s0.597 1.333 1.333 1.333zM32 18v-2.667c0-0.736-0.597-1.333-1.333-1.333s-1.333 0.597-1.333 1.333v2.667c0 0.736 0.597 1.333 1.333 1.333s1.333-0.597 1.333-1.333zM13.557 7.927l-5.333 8c-0.408 0.613-0.243 1.44 0.369 1.849 0.229 0.153 0.489 0.225 0.74 0.224h5.508l-3.952 5.927c-0.408 0.613-0.243 1.44 0.369 1.849s1.44 0.243 1.849-0.369l5.333-8c0.141-0.208 0.225-0.464 0.225-0.74 0-0.736-0.597-1.333-1.333-1.333h-5.508l3.952-5.927c0.408-0.613 0.243-1.44-0.369-1.849s-1.44-0.243-1.849 0.369z"></path>
</svg>
