<!-- Generated by IcoMoon.io -->
<svg version="1.1" xmlns="http://www.w3.org/2000/svg" width="32" height="32" viewBox="0 0 32 32">
<title>line-wifi</title>
<path d="M7.52 18.424c2.616-2.179 5.815-3.185 8.977-3.073 2.889 0.103 5.747 1.14 8.095 3.077 0.568 0.468 1.408 0.388 1.877-0.18s0.388-1.408-0.18-1.877c-2.809-2.317-6.232-3.561-9.696-3.684-3.795-0.135-7.641 1.075-10.779 3.689-0.565 0.471-0.643 1.312-0.171 1.877s1.312 0.643 1.877 0.171zM2.775 13.667c3.916-3.452 8.8-5.093 13.648-4.983 4.591 0.105 9.145 1.783 12.805 4.985 0.555 0.485 1.396 0.429 1.881-0.125s0.429-1.396-0.125-1.881c-4.144-3.627-9.303-5.527-14.501-5.645-5.492-0.125-11.033 1.737-15.471 5.649-0.553 0.487-0.605 1.329-0.119 1.881s1.329 0.605 1.881 0.119zM12.145 23.233c1.32-0.939 2.861-1.327 4.365-1.208 1.188 0.093 2.353 0.504 3.364 1.212 0.603 0.423 1.435 0.276 1.857-0.327s0.276-1.435-0.327-1.857c-1.404-0.984-3.025-1.556-4.684-1.687-2.107-0.167-4.272 0.38-6.12 1.692-0.6 0.427-0.741 1.259-0.315 1.859s1.259 0.741 1.859 0.315zM16 28.667c0.736 0 1.333-0.597 1.333-1.333s-0.597-1.333-1.333-1.333-1.333 0.597-1.333 1.333 0.597 1.333 1.333 1.333z"></path>
</svg>
