<!-- Generated by IcoMoon.io -->
<svg version="1.1" xmlns="http://www.w3.org/2000/svg" width="32" height="32" viewBox="0 0 32 32">
<title>line-trending-up</title>
<path d="M22.667 10h4.781l-9.448 9.448-5.724-5.724c-0.521-0.521-1.365-0.521-1.885 0l-10 10c-0.521 0.521-0.521 1.365 0 1.885s1.365 0.521 1.885 0l9.057-9.057 5.724 5.724c0.521 0.521 1.365 0.521 1.885 0l10.391-10.391v4.781c0 0.736 0.597 1.333 1.333 1.333s1.333-0.597 1.333-1.333v-8c0-0.181-0.036-0.353-0.101-0.511s-0.161-0.304-0.288-0.431c-0.001-0.001-0.001-0.001-0.003-0.003-0.123-0.123-0.269-0.221-0.431-0.288-0.157-0.065-0.329-0.101-0.511-0.101h-8c-0.736 0-1.333 0.597-1.333 1.333s0.597 1.333 1.333 1.333z"></path>
</svg>
