<!-- Generated by IcoMoon.io -->
<svg version="1.1" xmlns="http://www.w3.org/2000/svg" width="32" height="32" viewBox="0 0 32 32">
<title>line-paragraph</title>
<path d="M25.333 2h-12c-4.418 0-8 3.582-8 8s3.582 8 8 8h5.333v12c0 0.736 0.597 1.333 1.333 1.333s1.333-0.597 1.333-1.333v-25.333h2.667v25.333c0 0.736 0.597 1.333 1.333 1.333s1.333-0.597 1.333-1.333v-26.667c0-0.736-0.597-1.333-1.333-1.333zM8 10c0-2.945 2.388-5.333 5.333-5.333h5.333v10.667h-5.333c-2.945 0-5.333-2.388-5.333-5.333z"></path>
</svg>
