<!-- Generated by IcoMoon.io -->
<svg version="1.1" xmlns="http://www.w3.org/2000/svg" width="32" height="32" viewBox="0 0 32 32">
<title>line-book-open</title>
<path d="M28 6v17.333h-8c-0.971 0-1.883 0.26-2.667 0.713v-14.047c0-1.105 0.447-2.103 1.172-2.828s1.723-1.172 2.828-1.172zM14.667 24.047c-0.784-0.453-1.696-0.713-2.667-0.713h-8v-17.333h6.667c1.105 0 2.103 0.447 2.828 1.172s1.172 1.723 1.172 2.828zM29.333 3.333h-8c-1.84 0-3.509 0.748-4.715 1.952-0.223 0.223-0.429 0.461-0.619 0.715-0.189-0.253-0.396-0.492-0.619-0.715-1.205-1.204-2.875-1.952-4.715-1.952h-8c-0.736 0-1.333 0.597-1.333 1.333v20c0 0.736 0.597 1.333 1.333 1.333h9.333c0.737 0 1.401 0.297 1.885 0.781s0.781 1.148 0.781 1.885c0 0.736 0.597 1.333 1.333 1.333s1.333-0.597 1.333-1.333c0-0.737 0.297-1.401 0.781-1.885s1.148-0.781 1.885-0.781h9.333c0.736 0 1.333-0.597 1.333-1.333v-20c0-0.736-0.597-1.333-1.333-1.333z"></path>
</svg>
