<!-- Generated by IcoMoon.io -->
<svg version="1.1" xmlns="http://www.w3.org/2000/svg" width="32" height="32" viewBox="0 0 32 32">
<title>line-ban</title>
<path d="M30.667 16.667c0-4.049-1.643-7.719-4.296-10.371s-6.321-4.296-10.371-4.296-7.719 1.643-10.371 4.296-4.296 6.321-4.296 10.371 1.643 7.719 4.296 10.371 6.321 4.296 10.371 4.296 7.719-1.643 10.371-4.296 4.296-6.321 4.296-10.371zM25.376 24.157l-16.867-16.867c2.053-1.643 4.657-2.624 7.491-2.624 3.315 0 6.312 1.341 8.485 3.515s3.515 5.171 3.515 8.485c0 2.833-0.981 5.437-2.624 7.491zM6.624 9.176l16.867 16.867c-2.053 1.643-4.657 2.624-7.491 2.624-3.315 0-6.312-1.341-8.485-3.515s-3.515-5.171-3.515-8.485c0-2.833 0.981-5.437 2.624-7.491z"></path>
</svg>
