<!-- Generated by IcoMoon.io -->
<svg version="1.1" xmlns="http://www.w3.org/2000/svg" width="32" height="32" viewBox="0 0 32 32">
<title>line-github</title>
<path d="M11.617 24.723c-1.691 0.507-2.747 0.447-3.444 0.227-0.308-0.097-0.575-0.235-0.819-0.403-0.548-0.379-0.969-0.9-1.492-1.563-0.475-0.601-1.133-1.476-2.068-1.968-0.247-0.131-0.515-0.236-0.805-0.309-0.715-0.179-1.439 0.256-1.617 0.971s0.256 1.439 0.971 1.617c0.099 0.031 0.207 0.080 0.207 0.080 0.336 0.177 0.649 0.539 1.219 1.261 0.488 0.619 1.141 1.464 2.071 2.105 0.443 0.305 0.948 0.568 1.532 0.752 1.353 0.428 2.981 0.395 5.013-0.216 0.705-0.212 1.105-0.955 0.893-1.66s-0.955-1.105-1.66-0.893zM22.667 30v-5.056c0.069-0.912-0.075-1.791-0.389-2.589 1.036-0.228 2.084-0.569 3.063-1.097 2.777-1.499 4.661-4.323 4.661-9.231 0-2.004-0.688-3.849-1.839-5.308 0.473-1.793 0.301-3.635-0.391-5.244-0.163-0.377-0.479-0.643-0.845-0.752-0.476-0.141-2.309-0.412-5.831 1.816-3.031-0.721-6.076-0.679-8.861-0.003-3.519-2.225-5.351-1.955-5.827-1.813-0.395 0.117-0.695 0.4-0.847 0.753-0.739 1.723-0.832 3.563-0.389 5.243-1.24 1.571-1.849 3.468-1.839 5.356 0 4.829 1.852 7.631 4.588 9.145 1.003 0.555 2.080 0.913 3.143 1.156-0.247 0.624-0.381 1.281-0.405 1.941-0.007 0.188-0.004 0.377 0.007 0.565l0.001 5.117c0 0.736 0.597 1.333 1.333 1.333s1.333-0.597 1.333-1.333v-5.16c0-0.028-0.001-0.060-0.003-0.092-0.008-0.112-0.009-0.224-0.005-0.336 0.027-0.757 0.321-1.501 0.887-2.085 0.193-0.199 0.328-0.463 0.365-0.763 0.091-0.731-0.428-1.397-1.159-1.488-0.453-0.056-0.903-0.125-1.341-0.212-1.053-0.208-2.024-0.513-2.863-0.977-1.74-0.964-3.188-2.761-3.213-6.723 0.017-1.655 0.559-3.092 1.632-4.22 0.343-0.364 0.467-0.895 0.283-1.387-0.373-0.997-0.455-2.107-0.187-3.189 0.655 0.143 1.805 0.555 3.529 1.709 0.313 0.209 0.711 0.285 1.1 0.177 2.663-0.743 5.656-0.803 8.627 0.003 0.361 0.097 0.759 0.044 1.091-0.18 1.724-1.155 2.875-1.567 3.529-1.709 0.252 1.021 0.209 2.127-0.188 3.189-0.172 0.469-0.077 1.007 0.284 1.387 1.011 1.060 1.632 2.496 1.632 4.080 0 4.1-1.485 5.927-3.26 6.884-0.831 0.448-1.791 0.74-2.831 0.933-0.429 0.080-0.868 0.141-1.311 0.191-0.28 0.031-0.557 0.152-0.779 0.367-0.529 0.512-0.544 1.356-0.032 1.885 0.089 0.093 0.173 0.191 0.251 0.293 0.453 0.599 0.695 1.353 0.632 2.156 0 0.032-0.001 0.068-0.004 0.104v5.163c0 0.736 0.597 1.333 1.333 1.333s1.333-0.597 1.333-1.333z"></path>
</svg>
