<!-- Generated by IcoMoon.io -->
<svg version="1.1" xmlns="http://www.w3.org/2000/svg" width="32" height="32" viewBox="0 0 32 32">
<title>line-circle-check</title>
<path d="M16 2c-8.1 0-14.667 6.566-14.667 14.667s6.567 14.667 14.667 14.667 14.667-6.566 14.667-14.667-6.567-14.667-14.667-14.667zM16 28.667c-6.627 0-12-5.373-12-12s5.373-12 12-12 12 5.373 12 12-5.373 12-12 12zM19.542 13.057l-4.714 4.714-1.885-1.885c-0.521-0.521-1.365-0.521-1.886 0s-0.521 1.365 0 1.886l2.828 2.827c0.521 0.521 1.365 0.521 1.886 0l5.657-5.657c0.521-0.521 0.521-1.365 0-1.886-0.52-0.52-1.365-0.52-1.886 0.001z"></path>
</svg>
