<!-- Generated by IcoMoon.io -->
<svg version="1.1" xmlns="http://www.w3.org/2000/svg" width="32" height="32" viewBox="0 0 32 32">
<title>line-pocket</title>
<path d="M5.333 3.333c-1.104 0-2.107 0.449-2.828 1.172s-1.172 1.724-1.172 2.828v8c0 4.049 1.643 7.719 4.296 10.371s6.321 4.296 10.371 4.296 7.719-1.643 10.371-4.296 4.296-6.321 4.296-10.371v-8c0-1.104-0.449-2.107-1.172-2.828s-1.724-1.172-2.828-1.172zM5.333 6h21.333c0.368 0 0.7 0.148 0.943 0.391s0.391 0.575 0.391 0.943v8c0 3.315-1.341 6.312-3.515 8.485s-5.171 3.515-8.485 3.515-6.312-1.341-8.485-3.515-3.515-5.171-3.515-8.485v-8c0-0.368 0.148-0.7 0.391-0.943s0.575-0.391 0.943-0.391zM9.724 14.943l5.333 5.333c0.521 0.521 1.365 0.521 1.885 0l5.333-5.333c0.521-0.521 0.521-1.365 0-1.885s-1.365-0.521-1.885 0l-4.391 4.391-4.391-4.391c-0.521-0.521-1.365-0.521-1.885 0s-0.521 1.365 0 1.885z"></path>
</svg>
