<!-- Generated by IcoMoon.io -->
<svg version="1.1" xmlns="http://www.w3.org/2000/svg" width="32" height="32" viewBox="0 0 32 32">
<title>line-chrome</title>
<path d="M9.869 14.044l-2.992-5.175c0.203-0.237 0.416-0.467 0.637-0.688 2.173-2.173 5.171-3.515 8.485-3.515s6.312 1.341 8.485 3.515c0.555 0.555 1.056 1.164 1.495 1.819h-9.98c-1.84 0-3.509 0.748-4.715 1.952-0.596 0.596-1.080 1.304-1.417 2.092zM14.267 31.232c0.061 0.011 0.123 0.019 0.185 0.020 0.508 0.053 1.025 0.081 1.548 0.081 4.049 0 7.719-1.643 10.371-4.296s4.296-6.321 4.296-10.371c0-2.052-0.423-4.007-1.184-5.781-0.021-0.059-0.045-0.115-0.073-0.168-0.737-1.659-1.773-3.156-3.039-4.421-2.652-2.653-6.321-4.296-10.371-4.296s-7.719 1.643-10.371 4.296c-0.488 0.487-0.941 1.009-1.356 1.561-0.056 0.063-0.105 0.129-0.148 0.199-1.756 2.417-2.792 5.395-2.792 8.611 0 4.049 1.643 7.719 4.296 10.371 2.268 2.268 5.28 3.799 8.637 4.195zM16.793 23.287l-2.988 5.18c-2.433-0.449-4.609-1.633-6.291-3.315-2.173-2.173-3.515-5.171-3.515-8.485 0-1.907 0.444-3.709 1.236-5.309l4.857 8.403c0.315 0.6 0.719 1.145 1.192 1.62 1.205 1.205 2.875 1.953 4.715 1.953 0.268 0 0.533-0.016 0.793-0.047zM19.517 18.575c-0.020 0.029-0.040 0.061-0.059 0.092l-0.101 0.176c-0.153 0.235-0.331 0.453-0.528 0.652-0.727 0.725-1.724 1.172-2.829 1.172s-2.103-0.447-2.828-1.172c-0.221-0.221-0.416-0.468-0.581-0.735-0.015-0.032-0.032-0.063-0.049-0.093l-0.109-0.188c-0.276-0.544-0.432-1.16-0.432-1.812 0-1.105 0.447-2.103 1.172-2.828s1.723-1.172 2.828-1.172 2.103 0.447 2.828 1.172 1.172 1.723 1.172 2.828c0 0.691-0.175 1.341-0.483 1.908zM16.784 28.641l4.853-8.415c0.652-1.029 1.029-2.251 1.029-3.56 0-1.5-0.497-2.887-1.333-4h5.984c0.443 1.251 0.683 2.597 0.683 4 0 3.315-1.341 6.312-3.515 8.485-2 2-4.7 3.296-7.701 3.489z"></path>
</svg>
