<!-- Generated by IcoMoon.io -->
<svg version="1.1" xmlns="http://www.w3.org/2000/svg" width="32" height="32" viewBox="0 0 32 32">
<title>line-map-pin</title>
<path d="M29.333 14c0-3.681-1.493-7.017-3.905-9.428s-5.747-3.905-9.428-3.905-7.017 1.493-9.428 3.905-3.905 5.747-3.905 9.428c0 0.759 0.071 1.504 0.2 2.235 0.365 2.064 1.199 4.005 2.243 5.76 3.643 6.121 10.151 10.448 10.151 10.448 0.441 0.289 1.020 0.305 1.479 0 0 0 6.509-4.327 10.151-10.448 1.044-1.755 1.877-3.696 2.243-5.76 0.131-0.731 0.201-1.476 0.201-2.235zM26.667 14c0 0.592-0.055 1.183-0.159 1.771-0.295 1.667-0.983 3.304-1.909 4.861-2.549 4.285-6.715 7.663-8.492 8.987-1.864-1.221-6.117-4.636-8.707-8.987-0.927-1.557-1.615-3.195-1.909-4.861-0.103-0.588-0.157-1.179-0.157-1.771 0-2.945 1.192-5.611 3.124-7.543s4.597-3.124 7.543-3.124 5.611 1.192 7.543 3.124 3.124 4.597 3.124 7.543zM21.333 14c0-1.472-0.599-2.808-1.563-3.771s-2.299-1.563-3.771-1.563-2.808 0.599-3.771 1.563-1.563 2.299-1.563 3.771 0.599 2.808 1.563 3.771 2.299 1.563 3.771 1.563 2.808-0.599 3.771-1.563 1.563-2.299 1.563-3.771zM18.667 14c0 0.737-0.297 1.401-0.781 1.885s-1.148 0.781-1.885 0.781-1.401-0.297-1.885-0.781-0.781-1.148-0.781-1.885 0.297-1.401 0.781-1.885 1.148-0.781 1.885-0.781 1.401 0.297 1.885 0.781 0.781 1.148 0.781 1.885z"></path>
</svg>
