<!-- Generated by IcoMoon.io -->
<svg version="1.1" xmlns="http://www.w3.org/2000/svg" width="32" height="32" viewBox="0 0 32 32">
<title>line-target</title>
<path d="M30.667 16.667c0-4.049-1.643-7.719-4.296-10.371s-6.321-4.296-10.371-4.296-7.719 1.643-10.371 4.296-4.296 6.321-4.296 10.371 1.643 7.719 4.296 10.371 6.321 4.296 10.371 4.296 7.719-1.643 10.371-4.296 4.296-6.321 4.296-10.371zM28 16.667c0 3.315-1.341 6.312-3.515 8.485s-5.171 3.515-8.485 3.515-6.312-1.341-8.485-3.515-3.515-5.171-3.515-8.485 1.341-6.312 3.515-8.485 5.171-3.515 8.485-3.515 6.312 1.341 8.485 3.515 3.515 5.171 3.515 8.485zM25.333 16.667c0-2.577-1.047-4.912-2.733-6.6s-4.023-2.733-6.6-2.733-4.912 1.047-6.6 2.733-2.733 4.023-2.733 6.6 1.047 4.912 2.733 6.6 4.023 2.733 6.6 2.733 4.912-1.047 6.6-2.733 2.733-4.023 2.733-6.6zM22.667 16.667c0 1.841-0.745 3.507-1.952 4.715s-2.873 1.952-4.715 1.952-3.507-0.745-4.715-1.952-1.952-2.873-1.952-4.715 0.745-3.507 1.952-4.715 2.873-1.952 4.715-1.952 3.507 0.745 4.715 1.952 1.952 2.873 1.952 4.715zM20 16.667c0-1.104-0.449-2.107-1.172-2.828s-1.724-1.172-2.828-1.172-2.107 0.449-2.828 1.172-1.172 1.724-1.172 2.828 0.449 2.107 1.172 2.828 1.724 1.172 2.828 1.172 2.107-0.449 2.828-1.172 1.172-1.724 1.172-2.828zM17.333 16.667c0 0.368-0.148 0.7-0.391 0.943s-0.575 0.391-0.943 0.391-0.7-0.148-0.943-0.391-0.391-0.575-0.391-0.943 0.148-0.7 0.391-0.943 0.575-0.391 0.943-0.391 0.7 0.148 0.943 0.391 0.391 0.575 0.391 0.943z"></path>
</svg>
