<!-- Generated by IcoMoon.io -->
<svg version="1.1" xmlns="http://www.w3.org/2000/svg" width="32" height="32" viewBox="0 0 32 32">
<title>line-credit-card</title>
<path d="M4 4.667c-1.104 0-2.107 0.449-2.828 1.172s-1.172 1.724-1.172 2.828v16c0 1.104 0.449 2.107 1.172 2.828s1.724 1.172 2.828 1.172h24c1.104 0 2.107-0.449 2.828-1.172s1.172-1.724 1.172-2.828v-16c0-1.104-0.449-2.107-1.172-2.828s-1.724-1.172-2.828-1.172zM29.333 12.667h-26.667v-4c0-0.368 0.148-0.7 0.391-0.943s0.575-0.391 0.943-0.391h24c0.368 0 0.7 0.148 0.943 0.391s0.391 0.575 0.391 0.943zM2.667 15.333h26.667v9.333c0 0.368-0.148 0.7-0.391 0.943s-0.575 0.391-0.943 0.391h-24c-0.368 0-0.7-0.148-0.943-0.391s-0.391-0.575-0.391-0.943z"></path>
</svg>
