<!-- Generated by IcoMoon.io -->
<svg version="1.1" xmlns="http://www.w3.org/2000/svg" width="32" height="32" viewBox="0 0 32 32">
<title>line-git-commit</title>
<path d="M20 16.667c0 1.105-0.447 2.103-1.172 2.828s-1.723 1.172-2.828 1.172-2.103-0.447-2.828-1.172-1.172-1.723-1.172-2.828 0.447-2.103 1.172-2.828 1.723-1.172 2.828-1.172 2.103 0.447 2.828 1.172 1.172 1.723 1.172 2.828zM22.68 18h7.933c0.736 0 1.333-0.597 1.333-1.333s-0.597-1.333-1.333-1.333h-7.933c-0.049 0-0.097 0.003-0.145 0.008-0.264-1.309-0.913-2.48-1.82-3.388-1.205-1.205-2.875-1.953-4.715-1.953s-3.509 0.748-4.715 1.952c-0.908 0.908-1.556 2.079-1.82 3.387-0.043-0.003-0.088-0.005-0.132-0.005h-7.933c-0.736 0-1.333 0.597-1.333 1.333s0.597 1.333 1.333 1.333h7.933c0.044 0 0.089-0.003 0.132-0.007 0.264 1.309 0.913 2.48 1.82 3.387 1.205 1.205 2.875 1.953 4.715 1.953s3.509-0.748 4.715-1.952c0.908-0.908 1.556-2.079 1.82-3.388 0.048 0.005 0.096 0.008 0.145 0.008z"></path>
</svg>
