<!-- Generated by IcoMoon.io -->
<svg version="1.1" xmlns="http://www.w3.org/2000/svg" width="32" height="32" viewBox="0 0 32 32">
<title>line-corner-up-left</title>
<path d="M28 27.333v-9.333c0-1.84-0.748-3.509-1.952-4.715s-2.875-1.952-4.715-1.952h-12.781l4.391-4.391c0.521-0.521 0.521-1.365 0-1.885s-1.365-0.521-1.885 0l-6.667 6.667c-0.128 0.128-0.224 0.275-0.289 0.432s-0.101 0.329-0.101 0.511 0.036 0.353 0.101 0.511c0.065 0.157 0.161 0.304 0.289 0.432l6.667 6.667c0.521 0.521 1.365 0.521 1.885 0s0.521-1.365 0-1.885l-4.391-4.391h12.781c1.105 0 2.103 0.447 2.828 1.172s1.172 1.723 1.172 2.828v9.333c0 0.736 0.597 1.333 1.333 1.333s1.333-0.597 1.333-1.333z"></path>
</svg>
