<!-- Generated by IcoMoon.io -->
<svg version="1.1" xmlns="http://www.w3.org/2000/svg" width="32" height="32" viewBox="0 0 32 32">
<title>line-alert-circle</title>
<path d="M30.667 16.667c0-4.049-1.643-7.719-4.296-10.371s-6.321-4.296-10.371-4.296-7.719 1.643-10.371 4.296-4.296 6.321-4.296 10.371 1.643 7.719 4.296 10.371 6.321 4.296 10.371 4.296 7.719-1.643 10.371-4.296 4.296-6.321 4.296-10.371zM28 16.667c0 3.315-1.341 6.312-3.515 8.485s-5.171 3.515-8.485 3.515-6.312-1.341-8.485-3.515-3.515-5.171-3.515-8.485 1.341-6.312 3.515-8.485 5.171-3.515 8.485-3.515 6.312 1.341 8.485 3.515 3.515 5.171 3.515 8.485zM14.667 11.333v5.333c0 0.736 0.597 1.333 1.333 1.333s1.333-0.597 1.333-1.333v-5.333c0-0.736-0.597-1.333-1.333-1.333s-1.333 0.597-1.333 1.333zM16 23.333c0.736 0 1.333-0.597 1.333-1.333s-0.597-1.333-1.333-1.333-1.333 0.597-1.333 1.333 0.597 1.333 1.333 1.333z"></path>
</svg>
