<!-- Generated by IcoMoon.io -->
<svg version="1.1" xmlns="http://www.w3.org/2000/svg" width="32" height="32" viewBox="0 0 32 32">
<title>line-anchor</title>
<path d="M18.667 7.333c0 0.737-0.297 1.401-0.781 1.885s-1.148 0.781-1.885 0.781-1.401-0.297-1.885-0.781-0.781-1.148-0.781-1.885 0.297-1.401 0.781-1.885 1.148-0.781 1.885-0.781 1.401 0.297 1.885 0.781 0.781 1.148 0.781 1.885zM6.667 15.333h-4c-0.736 0-1.333 0.597-1.333 1.333 0 4.049 1.643 7.719 4.296 10.371s6.321 4.296 10.371 4.296 7.719-1.643 10.371-4.296 4.296-6.321 4.296-10.371c0-0.736-0.597-1.333-1.333-1.333h-4c-0.736 0-1.333 0.597-1.333 1.333s0.597 1.333 1.333 1.333h2.593c-0.307 2.781-1.564 5.275-3.441 7.152s-4.371 3.135-7.152 3.441v-16.095c0.937-0.241 1.776-0.732 2.437-1.393 0.964-0.964 1.563-2.3 1.563-3.772s-0.599-2.808-1.563-3.771-2.299-1.563-3.771-1.563-2.808 0.599-3.771 1.563-1.563 2.299-1.563 3.771 0.599 2.808 1.563 3.771c0.661 0.663 1.5 1.153 2.437 1.395v16.095c-2.781-0.307-5.275-1.564-7.152-3.441s-3.135-4.371-3.441-7.152h2.593c0.736 0 1.333-0.597 1.333-1.333s-0.597-1.333-1.333-1.333z"></path>
</svg>
