<!-- Generated by IcoMoon.io -->
<svg version="1.1" xmlns="http://www.w3.org/2000/svg" width="32" height="32" viewBox="0 0 32 32">
<title>line-calendar</title>
<path d="M9.333 3.333v1.333h-2.667c-1.104 0-2.107 0.449-2.828 1.172s-1.172 1.724-1.172 2.828v18.667c0 1.104 0.449 2.107 1.172 2.828s1.724 1.172 2.828 1.172h18.667c1.104 0 2.107-0.449 2.828-1.172s1.172-1.724 1.172-2.828v-18.667c0-1.104-0.449-2.107-1.172-2.828s-1.724-1.172-2.828-1.172h-2.667v-1.333c0-0.736-0.597-1.333-1.333-1.333s-1.333 0.597-1.333 1.333v1.333h-8v-1.333c0-0.736-0.597-1.333-1.333-1.333s-1.333 0.597-1.333 1.333zM26.667 12.667h-21.333v-4c0-0.368 0.148-0.7 0.391-0.943s0.575-0.391 0.943-0.391h2.667v1.333c0 0.736 0.597 1.333 1.333 1.333s1.333-0.597 1.333-1.333v-1.333h8v1.333c0 0.736 0.597 1.333 1.333 1.333s1.333-0.597 1.333-1.333v-1.333h2.667c0.368 0 0.7 0.148 0.943 0.391s0.391 0.575 0.391 0.943zM5.333 15.333h21.333v12c0 0.368-0.148 0.7-0.391 0.943s-0.575 0.391-0.943 0.391h-18.667c-0.368 0-0.7-0.148-0.943-0.391s-0.391-0.575-0.391-0.943z"></path>
</svg>
