<!-- Generated by IcoMoon.io -->
<svg version="1.1" xmlns="http://www.w3.org/2000/svg" width="32" height="32" viewBox="0 0 32 32">
<title>line-voicemail</title>
<path d="M12 16c0 1.289-0.521 2.453-1.367 3.3s-2.011 1.367-3.3 1.367-2.453-0.521-3.3-1.367-1.367-2.011-1.367-3.3 0.521-2.453 1.367-3.3 2.011-1.367 3.3-1.367 2.453 0.521 3.3 1.367 1.367 2.011 1.367 3.3zM29.333 16c0 1.289-0.521 2.453-1.367 3.3s-2.011 1.367-3.3 1.367-2.453-0.521-3.3-1.367-1.367-2.011-1.367-3.3 0.521-2.453 1.367-3.3 2.011-1.367 3.3-1.367 2.453 0.521 3.3 1.367 1.367 2.011 1.367 3.3zM7.333 23.333h17.333c2.025 0 3.86-0.823 5.185-2.148s2.148-3.16 2.148-5.185-0.823-3.86-2.148-5.185-3.16-2.148-5.185-2.148-3.86 0.823-5.185 2.148-2.148 3.16-2.148 5.185c0 1.772 0.631 3.4 1.676 4.667h-6.019c1.045-1.267 1.676-2.895 1.676-4.667 0-2.025-0.823-3.86-2.148-5.185s-3.16-2.148-5.185-2.148-3.86 0.823-5.185 2.148-2.148 3.16-2.148 5.185 0.823 3.86 2.148 5.185 3.16 2.148 5.185 2.148z"></path>
</svg>
