<!-- Generated by IcoMoon.io -->
<svg version="1.1" xmlns="http://www.w3.org/2000/svg" width="32" height="32" viewBox="0 0 32 32">
<title>line-message-circle</title>
<path d="M29.333 15.996v-0.663c0-0.023-0.001-0.051-0.003-0.077-0.181-3.117-1.484-5.948-3.523-8.068-2.136-2.223-5.085-3.669-8.401-3.852-0.021-0.001-0.048-0.003-0.073-0.003h-0.652c-1.873-0.021-3.843 0.413-5.685 1.344-1.631 0.828-3.055 1.984-4.185 3.38-1.763 2.179-2.809 4.94-2.811 7.928-0.019 1.7 0.337 3.48 1.099 5.169l-2.363 7.089c-0.088 0.261-0.096 0.557 0 0.843 0.233 0.699 0.988 1.076 1.687 0.843l7.085-2.361c1.547 0.703 3.312 1.101 5.168 1.097 1.829-0.012 3.619-0.411 5.255-1.155 2.549-1.161 4.72-3.164 6.055-5.833 0.859-1.665 1.353-3.62 1.348-5.681zM26.667 16.004c0.004 1.633-0.389 3.167-1.052 4.452-1.068 2.136-2.776 3.713-4.789 4.629-1.293 0.589-2.713 0.905-4.168 0.915-1.628 0.004-3.161-0.389-4.447-1.052-0.332-0.172-0.704-0.189-1.033-0.080l-5.071 1.691 1.691-5.071c0.117-0.351 0.080-0.716-0.075-1.023-0.736-1.459-1.072-3.005-1.056-4.451 0.001-2.385 0.825-4.56 2.217-6.279 0.895-1.105 2.024-2.023 3.32-2.68 1.456-0.736 3.003-1.072 4.448-1.056h0.608c2.616 0.143 4.939 1.281 6.625 3.036 1.603 1.668 2.629 3.888 2.781 6.337z"></path>
</svg>
