<!-- Generated by IcoMoon.io -->
<svg version="1.1" xmlns="http://www.w3.org/2000/svg" width="32" height="32" viewBox="0 0 32 32">
<title>line-headphones</title>
<path d="M26.667 26c0 0.368-0.148 0.7-0.391 0.943s-0.575 0.391-0.943 0.391h-1.333c-0.368 0-0.7-0.148-0.943-0.391s-0.391-0.575-0.391-0.943v-4c0-0.368 0.148-0.7 0.391-0.943s0.575-0.391 0.943-0.391h2.667v4zM5.333 26v-5.333h2.667c0.368 0 0.7 0.148 0.943 0.391s0.391 0.575 0.391 0.943v4c0 0.368-0.148 0.7-0.391 0.943s-0.575 0.391-0.943 0.391h-1.333c-0.368 0-0.7-0.148-0.943-0.391s-0.391-0.575-0.391-0.943zM2.667 26c0 1.104 0.449 2.107 1.172 2.828s1.724 1.172 2.828 1.172h1.333c1.104 0 2.107-0.449 2.828-1.172s1.172-1.724 1.172-2.828v-4c0-1.104-0.449-2.107-1.172-2.828s-1.724-1.172-2.828-1.172h-2.667v-1.333c0-2.945 1.192-5.611 3.124-7.543s4.597-3.124 7.543-3.124 5.611 1.192 7.543 3.124 3.124 4.597 3.124 7.543v1.333h-2.667c-1.104 0-2.107 0.449-2.828 1.172s-1.172 1.724-1.172 2.828v4c0 1.104 0.449 2.107 1.172 2.828s1.724 1.172 2.828 1.172h1.333c1.104 0 2.107-0.449 2.828-1.172s1.172-1.724 1.172-2.828v-9.333c0-3.681-1.493-7.017-3.905-9.428s-5.747-3.905-9.428-3.905-7.017 1.493-9.428 3.905-3.905 5.747-3.905 9.428v8z"></path>
</svg>
