<!-- Generated by IcoMoon.io -->
<svg version="1.1" xmlns="http://www.w3.org/2000/svg" width="32" height="32" viewBox="0 0 32 32">
<title>line-codepen</title>
<path d="M7.008 16.667l-3.008 2.105v-4.212zM28 18.772l-3.008-2.105 3.008-2.105zM22.667 18.295l4.283 2.999-9.616 6.249v-5.516zM11.659 16.667l4.341-3.039 4.341 3.039-4.341 3.039zM5.051 21.292l4.283-2.997 5.333 3.733v5.516zM16.743 2.225c-0.212-0.143-0.468-0.225-0.743-0.225s-0.531 0.083-0.743 0.225l-13.292 8.64c-0.149 0.093-0.284 0.217-0.391 0.371-0.167 0.237-0.245 0.511-0.241 0.78v9.301c-0.003 0.245 0.061 0.493 0.197 0.715 0.055 0.091 0.121 0.175 0.199 0.251 0.063 0.063 0.133 0.119 0.211 0.169l0.025 0.016 13.292 8.64c0.212 0.143 0.468 0.225 0.743 0.225s0.531-0.083 0.743-0.225l13.292-8.64c0.149-0.092 0.284-0.216 0.391-0.369 0.167-0.237 0.244-0.511 0.241-0.781v-9.301c0.003-0.245-0.061-0.493-0.197-0.715-0.055-0.089-0.121-0.175-0.199-0.251-0.063-0.063-0.133-0.119-0.211-0.169l-0.025-0.016zM17.333 11.305v-5.515l9.616 6.251-4.283 2.997zM14.667 5.791v5.516l-5.333 3.733-4.283-2.999z"></path>
</svg>
