<!-- Generated by IcoMoon.io -->
<svg version="1.1" xmlns="http://www.w3.org/2000/svg" width="32" height="32" viewBox="0 0 32 32">
<title>line-microphone-off</title>
<path d="M16.688 19.24c-0.219 0.059-0.448 0.089-0.685 0.089-0.74-0.001-1.404-0.297-1.887-0.78-0.484-0.483-0.783-1.147-0.783-1.883v-0.781zM21.333 13.12v-7.12c0.001-1.471-0.596-2.807-1.559-3.772s-2.297-1.564-3.769-1.565c-1.352-0.001-2.591 0.503-3.532 1.336-0.848 0.751-1.456 1.769-1.699 2.929-0.151 0.721 0.312 1.427 1.033 1.577s1.427-0.312 1.577-1.033c0.123-0.587 0.429-1.1 0.855-1.477 0.467-0.413 1.075-0.663 1.744-0.665 0.761 0.004 1.421 0.301 1.903 0.783 0.484 0.485 0.781 1.149 0.78 1.888v7.12c0 0.736 0.597 1.333 1.333 1.333s1.333-0.597 1.333-1.333zM24 14v2.667c0 0.501-0.047 0.987-0.124 1.393-0.136 0.724 0.34 1.421 1.064 1.557s1.421-0.34 1.557-1.064c0.109-0.579 0.169-1.229 0.169-1.887v-2.667c0-0.736-0.597-1.333-1.333-1.333s-1.333 0.597-1.333 1.333zM10.667 32.667h10.667c0.736 0 1.333-0.597 1.333-1.333s-0.597-1.333-1.333-1.333h-4v-2.699c1.928-0.252 3.721-0.976 5.245-2.169l7.145 7.145c0.521 0.521 1.365 0.521 1.885 0s0.521-1.365 0-1.885l-7.784-7.784c-0.060-0.105-0.135-0.204-0.225-0.292-0.084-0.083-0.176-0.151-0.273-0.207l-21.051-21.052c-0.521-0.521-1.365-0.521-1.885 0s-0.521 1.365 0 1.885l10.276 10.276v3.448c0.001 1.473 0.601 2.808 1.565 3.771s2.3 1.56 3.772 1.559c0.985-0.001 1.911-0.269 2.703-0.737l1.969 1.969c-1.279 0.924-2.771 1.424-4.283 1.497-0.125-0.039-0.257-0.059-0.393-0.059-0.137 0-0.268 0.020-0.393 0.059-1.889-0.092-3.749-0.849-5.207-2.276-1.537-1.505-2.337-3.477-2.397-5.475-0.003-0.149-0.003-0.299-0.003-0.299v-2.676c0-0.736-0.597-1.333-1.333-1.333s-1.333 0.597-1.333 1.333v2.657c0 0.199 0.004 0.397 0.004 0.397 0.080 2.659 1.148 5.292 3.197 7.3 1.732 1.697 3.899 2.684 6.132 2.964v2.681h-4c-0.736 0-1.333 0.597-1.333 1.333s0.597 1.333 1.333 1.333z"></path>
</svg>
