<!-- Generated by IcoMoon.io -->
<svg version="1.1" xmlns="http://www.w3.org/2000/svg" width="28" height="32" viewBox="0 0 28 32">
<title>linux</title>
<path d="M12.256 7.725c-0.012-0.088 0.119-0.144 0.2-0.181 0.106-0.044 0.244-0.063 0.344-0.006 0.025 0.013 0.050 0.044 0.037 0.069-0.025 0.075-0.15 0.063-0.219 0.1-0.063 0.031-0.113 0.106-0.188 0.106-0.063 0.006-0.169-0.025-0.175-0.088zM13.8 7.706c0.063 0.031 0.113 0.106 0.188 0.106 0.069 0 0.175-0.025 0.181-0.094 0.012-0.088-0.119-0.144-0.2-0.181-0.106-0.044-0.244-0.063-0.344-0.006-0.025 0.013-0.050 0.044-0.037 0.069 0.019 0.081 0.144 0.069 0.213 0.106zM27.219 27.094c-0.031 0.512-0.406 0.863-0.869 1.144-0.931 0.563-2.331 0.988-3.181 2.012v0c-0.887 1.056-1.981 1.663-3.019 1.744-1.031 0.081-2-0.394-2.519-1.438v-0.006c-0.069-0.131-0.119-0.275-0.156-0.419-1.344 0.075-2.512-0.331-3.444-0.256-1.375 0.075-2.237 0.406-3.019 0.413-0.3 0.663-0.894 1.1-1.619 1.262-1 0.231-2.256 0-3.494-0.65v0c-1.156-0.613-2.625-0.556-3.706-0.781-0.544-0.113-1.019-0.313-1.256-0.769-0.231-0.456-0.188-1.081 0.137-1.981 0.106-0.319 0.025-0.794-0.050-1.3-0.037-0.244-0.075-0.494-0.075-0.738 0-0.269 0.044-0.531 0.175-0.775 0.281-0.531 0.738-0.756 1.156-0.906s0.8-0.25 1.063-0.519c0.325-0.344 0.631-0.9 1.038-1.262-0.162-1.075 0.013-2.212 0.388-3.331 0.787-2.369 2.45-4.637 3.631-6.044 1.006-1.431 1.3-2.581 1.406-4.044 0.069-1.987-1.531-8.463 4.869-8.45 5.056 0.006 4.769 5.338 4.737 8.206-0.019 1.881 1.019 3.156 2.087 4.5 0.95 1.125 2.194 2.769 2.906 4.65 0.581 1.538 0.806 3.238 0.231 4.944 0.087 0.031 0.175 0.075 0.256 0.125 0.087 0.050 0.169 0.113 0.25 0.181 0.413 0.35 0.544 0.894 0.656 1.4 0.119 0.506 0.225 0.981 0.45 1.231 0.694 0.775 0.994 1.344 0.969 1.856zM13.8 6.819c0.225 0.056 0.556 0.15 0.813 0.275-0.131-0.763 0.281-1.469 0.738-1.438 0.556 0.019 0.869 0.969 0.569 1.706-0.050 0.119-0.175 0.213-0.244 0.287 0.419 0.144 0.688 0.256 0.788 0.306 0.494-0.594 0.675-1.638 0.269-2.525-0.613-1.338-2.137-1.362-2.75 0.025-0.2 0.45-0.244 0.931-0.181 1.362zM10.912 7.994c0.488-0.356 0.431-0.294 0.369-0.344-0.5-0.431-0.412-1.713 0.113-1.756 0.394-0.031 0.675 0.669 0.6 1.225 0.194-0.131 0.419-0.225 0.637-0.287 0.106-1.206-0.563-2.094-1.194-2.094-1.181 0-1.5 2.344-0.525 3.256zM10.325 9.3c0.094 0.306 0.381 0.656 0.919 0.956 0.488 0.287 0.75 0.719 1.25 0.938 0.162 0.069 0.356 0.119 0.6 0.131 1.15 0.069 1.694-0.706 2.388-0.931 0.731-0.231 1.256-0.688 1.419-1.131 0.2-0.531-0.131-0.919-0.656-1.137-0.706-0.306-1.019-0.325-1.412-0.581-0.644-0.412-1.175-0.556-1.619-0.556-0.9 0-1.45 0.612-1.744 0.888-0.031 0.031-0.494 0.369-0.881 0.656-0.262 0.206-0.35 0.463-0.262 0.769zM8.231 25.1l-1.225-2.225c-0.425-0.575-0.862-0.925-1.369-1-0.481-0.075-0.787 0.087-1.106 0.431-0.3 0.319-0.55 0.769-0.894 1.125-0.487 0.406-0.581 0.387-1.225 0.619-0.394 0.137-0.706 0.288-0.925 0.706-0.169 0.313-0.131 0.762-0.056 1.25 0.075 0.494 0.188 1.019 0.038 1.494v0.012c-0.313 0.856-0.313 1.356-0.163 1.65 0.494 0.962 2.912 0.381 4.781 1.369 1.962 1.025 4.538 1.069 4.706-1.125 0.131-1.281-1.969-3.063-2.563-4.306zM17.85 27.337c0.2-0.688 0.394-1.331 0.425-1.813 0.050-0.95 0.1-1.794 0.275-2.494 0.194-0.788 0.581-1.444 1.337-1.706 0.144-1.319 1.169-1.319 2.394-0.781 1.181 0.531 1.625 1 1.425 1.631 0.063 0 0.125-0.006 0.262 0 0.325-1.056-0.894-1.75-1.919-2.175 0.181-0.75 0.15-1.506-0.025-2.231-0.375-1.581-1.413-2.988-2.2-3.688-0.144-0.006-0.131 0.119 0.163 0.406 0.725 0.669 2.319 3.075 1.456 5.306-0.244-0.063-0.475-0.094-0.681-0.087-0.331-1.819-1.094-3.325-1.475-4.037-0.719-1.338-1.844-4.081-2.325-5.981-0.281 0.4-0.775 0.744-1.394 0.938-0.294 0.094-0.606 0.344-0.994 0.563-0.869 0.5-1.875 0.55-2.65-0.075-0.281-0.225-0.5-0.475-0.787-0.644-0.1-0.056-0.319-0.206-0.387-0.256-0.125 2.362-1.706 5.331-2.456 7.044-0.519 1.231-0.825 2.55-0.862 3.844-1.362-1.819-0.369-4.144 0.162-5.15 0.594-1.1 0.688-1.406 0.544-1.3-0.537 0.875-1.375 2.269-1.7 3.7-0.169 0.744-0.2 1.5 0.019 2.2s0.694 1.344 1.537 1.869c0 0 1.55 0.894 2.394 2.031 0.463 0.625 0.606 1.169 0.463 1.556-0.156 0.419-0.6 0.556-1.044 0.556 0.3 0.375 0.644 0.813 0.9 1.225 2.35 1.606 5.137 0.981 7.144-0.45zM25.938 25.531c-0.625-0.706-0.45-2.069-1.069-2.6-0.431-0.375-0.85-0.337-1.413-0.319-0.481 0.55-1.613 1.225-2.4 1.019-0.719-0.181-1.125-1.019-1.175-1.844-0.019 0.012-0.044 0.019-0.063 0.031-0.444 0.244-0.694 0.675-0.856 1.319-0.156 0.637-0.212 1.469-0.262 2.419-0.044 0.738-0.387 1.65-0.619 2.538-0.219 0.825-0.363 1.575-0.069 2.269 0.45 0.906 1.219 1.275 2.106 1.206s1.9-0.613 2.725-1.594c1.375-1.663 3.894-1.856 3.95-2.906 0.019-0.319-0.194-0.813-0.856-1.538zM10.831 9.294c0.125 0.119 0.294 0.281 0.5 0.444 0.412 0.325 0.988 0.662 1.706 0.662 0.725 0 1.406-0.369 1.988-0.675 0.306-0.162 0.681-0.438 0.925-0.65s0.369-0.394 0.194-0.412c-0.175-0.019-0.162 0.162-0.375 0.319-0.275 0.2-0.606 0.463-0.869 0.613-0.463 0.262-1.219 0.637-1.869 0.637s-1.169-0.3-1.556-0.606c-0.194-0.156-0.356-0.313-0.481-0.431-0.094-0.088-0.119-0.287-0.269-0.306-0.088-0.006-0.113 0.231 0.106 0.406z"></path>
</svg>
