<!-- Generated by IcoMoon.io -->
<svg version="1.1" xmlns="http://www.w3.org/2000/svg" width="32" height="32" viewBox="0 0 32 32">
<title>list2</title>
<path d="M4.571 23.048v3.429q0 0.232-0.17 0.402t-0.402 0.17h-3.429q-0.232 0-0.402-0.17t-0.17-0.402v-3.429q0-0.232 0.17-0.402t0.402-0.17h3.429q0.232 0 0.402 0.17t0.17 0.402zM4.571 16.19v3.429q0 0.232-0.17 0.402t-0.402 0.17h-3.429q-0.232 0-0.402-0.17t-0.17-0.402v-3.429q0-0.232 0.17-0.402t0.402-0.17h3.429q0.232 0 0.402 0.17t0.17 0.402zM4.571 9.333v3.429q0 0.232-0.17 0.402t-0.402 0.17h-3.429q-0.232 0-0.402-0.17t-0.17-0.402v-3.429q0-0.232 0.17-0.402t0.402-0.17h3.429q0.232 0 0.402 0.17t0.17 0.402zM32 23.048v3.429q0 0.232-0.17 0.402t-0.402 0.17h-24q-0.232 0-0.402-0.17t-0.17-0.402v-3.429q0-0.232 0.17-0.402t0.402-0.17h24q0.232 0 0.402 0.17t0.17 0.402zM4.571 2.476v3.429q0 0.232-0.17 0.402t-0.402 0.17h-3.429q-0.232 0-0.402-0.17t-0.17-0.402v-3.429q0-0.232 0.17-0.402t0.402-0.17h3.429q0.232 0 0.402 0.17t0.17 0.402zM32 16.19v3.429q0 0.232-0.17 0.402t-0.402 0.17h-24q-0.232 0-0.402-0.17t-0.17-0.402v-3.429q0-0.232 0.17-0.402t0.402-0.17h24q0.232 0 0.402 0.17t0.17 0.402zM32 9.333v3.429q0 0.232-0.17 0.402t-0.402 0.17h-24q-0.232 0-0.402-0.17t-0.17-0.402v-3.429q0-0.232 0.17-0.402t0.402-0.17h24q0.232 0 0.402 0.17t0.17 0.402zM32 2.476v3.429q0 0.232-0.17 0.402t-0.402 0.17h-24q-0.232 0-0.402-0.17t-0.17-0.402v-3.429q0-0.232 0.17-0.402t0.402-0.17h24q0.232 0 0.402 0.17t0.17 0.402z"></path>
</svg>
