<!-- Generated by IcoMoon.io -->
<svg version="1.1" xmlns="http://www.w3.org/2000/svg" width="32" height="32" viewBox="0 0 32 32">
<title>list-ul1</title>
<path d="M6.857 24.762q0 1.429-1 2.429t-2.429 1-2.429-1-1-2.429 1-2.429 2.429-1 2.429 1 1 2.429zM6.857 15.619q0 1.429-1 2.429t-2.429 1-2.429-1-1-2.429 1-2.429 2.429-1 2.429 1 1 2.429zM32 23.048v3.429q0 0.232-0.17 0.402t-0.402 0.17h-21.714q-0.232 0-0.402-0.17t-0.17-0.402v-3.429q0-0.232 0.17-0.402t0.402-0.17h21.714q0.232 0 0.402 0.17t0.17 0.402zM6.857 6.476q0 1.429-1 2.429t-2.429 1-2.429-1-1-2.429 1-2.429 2.429-1 2.429 1 1 2.429zM32 13.905v3.429q0 0.232-0.17 0.402t-0.402 0.17h-21.714q-0.232 0-0.402-0.17t-0.17-0.402v-3.429q0-0.232 0.17-0.402t0.402-0.17h21.714q0.232 0 0.402 0.17t0.17 0.402zM32 4.762v3.429q0 0.232-0.17 0.402t-0.402 0.17h-21.714q-0.232 0-0.402-0.17t-0.17-0.402v-3.429q0-0.232 0.17-0.402t0.402-0.17h21.714q0.232 0 0.402 0.17t0.17 0.402z"></path>
</svg>
