<!-- Generated by IcoMoon.io -->
<svg version="1.1" xmlns="http://www.w3.org/2000/svg" width="32" height="32" viewBox="0 0 32 32">
<title>list-alt1</title>
<path d="M29 2h-26c-1.657 0-3 1.343-3 3v22c0 1.657 1.343 3 3 3h26c1.657 0 3-1.343 3-3v-22c0-1.657-1.343-3-3-3zM28.625 27h-25.25c-0.207 0-0.375-0.168-0.375-0.375v0-21.25c0-0.207 0.168-0.375 0.375-0.375v0h25.25c0.207 0 0.375 0.168 0.375 0.375v0 21.25c0 0.207-0.168 0.375-0.375 0.375v0zM26 21.25v1.5c0 0.414-0.336 0.75-0.75 0.75h-12.5c-0.414 0-0.75-0.336-0.75-0.75v-1.5c0-0.414 0.336-0.75 0.75-0.75h12.5c0.414 0 0.75 0.336 0.75 0.75zM26 15.25v1.5c0 0.414-0.336 0.75-0.75 0.75h-12.5c-0.414 0-0.75-0.336-0.75-0.75v-1.5c0-0.414 0.336-0.75 0.75-0.75h12.5c0.414 0 0.75 0.336 0.75 0.75zM26 9.25v1.5c0 0.414-0.336 0.75-0.75 0.75h-12.5c-0.414 0-0.75-0.336-0.75-0.75v-1.5c0-0.414 0.336-0.75 0.75-0.75h12.5c0.414 0 0.75 0.336 0.75 0.75zM10.25 10c0 1.243-1.007 2.25-2.25 2.25s-2.25-1.007-2.25-2.25 1.007-2.25 2.25-2.25 2.25 1.007 2.25 2.25zM10.25 16c0 1.243-1.007 2.25-2.25 2.25s-2.25-1.007-2.25-2.25 1.007-2.25 2.25-2.25 2.25 1.007 2.25 2.25zM10.25 22c0 1.243-1.007 2.25-2.25 2.25s-2.25-1.007-2.25-2.25 1.007-2.25 2.25-2.25 2.25 1.007 2.25 2.25z"></path>
</svg>
