<!-- Generated by IcoMoon.io -->
<svg version="1.1" xmlns="http://www.w3.org/2000/svg" width="32" height="32" viewBox="0 0 32 32">
<title>list-ol</title>
<path d="M0.204 8.72c0-0.467 0.245-0.723 0.723-0.723h0.946v-2.492c0-0.323 0.033-0.656 0.033-0.656h-0.022s-0.111 0.167-0.178 0.234c-0.278 0.267-0.656 0.278-0.979-0.067l-0.345-0.389c-0.334-0.334-0.311-0.701 0.033-1.024l1.357-1.246c0.278-0.256 0.523-0.356 0.901-0.356h0.757c0.478 0 0.734 0.245 0.734 0.723v5.274h0.968c0.478 0 0.723 0.256 0.723 0.723v0.556c0 0.467-0.245 0.723-0.723 0.723h-4.206c-0.478 0-0.723-0.256-0.723-0.723v-0.556zM0.138 19.037c0-2.955 3.185-3.524 3.185-4.323 0-0.449-0.372-0.547-0.58-0.547-0.197 0-0.405 0.066-0.591 0.241-0.317 0.306-0.657 0.438-1.007 0.153l-0.536-0.427c-0.361-0.285-0.449-0.613-0.175-0.963 0.416-0.547 1.193-1.171 2.528-1.171 1.215 0 2.78 0.657 2.78 2.473 0 2.397-2.922 2.9-3.042 3.557h2.441c0.471 0 0.722 0.252 0.722 0.711v0.547c0 0.46-0.252 0.711-0.722 0.711h-4.246c-0.438 0-0.755-0.252-0.755-0.711v-0.252zM0.353 28.413l0.35-0.58c0.241-0.416 0.569-0.438 0.974-0.197 0.306 0.131 0.602 0.197 0.897 0.197 0.635 0 0.897-0.219 0.897-0.514 0-0.416-0.35-0.569-0.996-0.569h-0.296c-0.372 0-0.58-0.131-0.766-0.492l-0.066-0.12c-0.153-0.296-0.077-0.613 0.175-0.93l0.35-0.438c0.427-0.525 0.766-0.843 0.766-0.843v-0.022s-0.263 0.066-0.788 0.066h-0.81c-0.471 0-0.711-0.252-0.711-0.711v-0.547c0-0.471 0.241-0.711 0.711-0.711h3.655c0.471 0 0.711 0.252 0.711 0.711v0.208c0 0.361-0.088 0.613-0.317 0.886l-1.094 1.259c1.226 0.317 1.795 1.28 1.795 2.178 0 1.335-0.897 2.758-3.031 2.758-1.040 0-1.762-0.296-2.244-0.591-0.361-0.263-0.394-0.613-0.164-0.996zM9 8.25h22c0.552 0 1-0.448 1-1v-2.5c0-0.552-0.448-1-1-1h-22c-0.552 0-1 0.448-1 1v2.5c0 0.552 0.448 1 1 1zM9 18.25h22c0.552 0 1-0.448 1-1v-2.5c0-0.552-0.448-1-1-1h-22c-0.552 0-1 0.448-1 1v2.5c0 0.552 0.448 1 1 1zM9 28.25h22c0.552 0 1-0.448 1-1v-2.5c0-0.552-0.448-1-1-1h-22c-0.552 0-1 0.448-1 1v2.5c0 0.552 0.448 1 1 1z"></path>
</svg>
