<!-- Generated by IcoMoon.io -->
<svg version="1.1" xmlns="http://www.w3.org/2000/svg" width="38" height="32" viewBox="0 0 38 32">
<title>lkdto</title>
<path d="M0 15.413v-1.088q0-3.616 2.688-6.304t6.88-2.688q4.352 0 7.904 3.584 0.672 0.64 1.728 1.984l3.072 4.032q1.248 1.664 1.664 2.080 2.368 2.368 4.704 2.368 1.888 0 3.072-1.28 1.056-1.056 1.216-2.72 0.032-0.16 0.032-0.448 0-0.704-0.192-1.312-0.288-0.992-1.056-1.824 0-0.032-0.032-0.032-1.216-1.28-3.040-1.28-2.496 0-4.704 2.368l-2.72-3.552q-0.192-0.256-0.32-0.416 1.76-1.92 3.616-2.752t4.288-0.8q3.968 0 6.848 2.688h0.032l0.032 0.032q2.656 2.656 2.656 6.88 0 0.96-0.16 2.016-0.512 2.848-2.528 4.896-1.952 1.984-4.8 2.528-1.056 0.16-1.984 0.16-4.48 0-7.936-3.488-0.736-0.736-1.792-2.144l-3.072-3.968q-1.248-1.664-1.664-2.080-2.368-2.368-4.768-2.368-0.704 0-1.28 0.192-0.928 0.256-1.76 1.088-0.928 1.024-1.152 2.272-0.096 0.448-0.096 0.896 0 1.824 1.184 3.104l0.064 0.064q1.248 1.28 3.104 1.28 2.528 0 4.704-2.4l2.688 3.52 0.288 0.384q-1.824 1.952-3.68 2.784t-4.16 0.832q-4.192 0-6.912-2.656v-0.032q-2.016-2.016-2.496-4.896-0.16-0.8-0.16-1.504z"></path>
</svg>
