<!-- Generated by IcoMoon.io -->
<svg version="1.1" xmlns="http://www.w3.org/2000/svg" width="32" height="32" viewBox="0 0 32 32">
<title>location-2</title>
<path d="M16 2c-8.1 0-14.667 6.567-14.667 14.667s6.567 14.667 14.667 14.667c8.1 0 14.667-6.566 14.667-14.667s-6.566-14.667-14.667-14.667zM17.333 28.591v-3.924c0-0.736-0.597-1.333-1.333-1.333s-1.333 0.597-1.333 1.333v3.924c-5.562-0.615-9.976-5.029-10.591-10.591h3.924c0.736 0 1.333-0.597 1.333-1.333s-0.597-1.333-1.333-1.333h-3.924c0.615-5.562 5.029-9.976 10.591-10.591v3.924c0 0.736 0.597 1.333 1.333 1.333s1.333-0.597 1.333-1.333v-3.924c5.562 0.615 9.976 5.029 10.591 10.591h-3.924c-0.736 0-1.333 0.597-1.333 1.333s0.597 1.333 1.333 1.333h3.924c-0.615 5.562-5.029 9.976-10.591 10.591z"></path>
</svg>
