<!-- Generated by IcoMoon.io -->
<svg version="1.1" xmlns="http://www.w3.org/2000/svg" width="32" height="32" viewBox="0 0 32 32">
<title>lock4</title>
<path d="M6.667 16.667h18.667c0.368 0 0.7 0.148 0.943 0.391s0.391 0.575 0.391 0.943v9.333c0 0.368-0.148 0.7-0.391 0.943s-0.575 0.391-0.943 0.391h-18.667c-0.368 0-0.7-0.148-0.943-0.391s-0.391-0.575-0.391-0.943v-9.333c0-0.368 0.148-0.7 0.391-0.943s0.575-0.391 0.943-0.391zM24 14v-4c0-2.209-0.897-4.211-2.343-5.657s-3.448-2.343-5.657-2.343-4.211 0.897-5.657 2.343-2.343 3.448-2.343 5.657v4h-1.333c-1.104 0-2.107 0.449-2.828 1.172s-1.172 1.724-1.172 2.828v9.333c0 1.104 0.449 2.107 1.172 2.828s1.724 1.172 2.828 1.172h18.667c1.104 0 2.107-0.449 2.828-1.172s1.172-1.724 1.172-2.828v-9.333c0-1.104-0.449-2.107-1.172-2.828s-1.724-1.172-2.828-1.172zM10.667 14v-4c0-1.473 0.596-2.804 1.563-3.771s2.297-1.563 3.771-1.563 2.804 0.596 3.771 1.563 1.563 2.297 1.563 3.771v4z"></path>
</svg>
