<!-- Generated by IcoMoon.io -->
<svg version="1.1" xmlns="http://www.w3.org/2000/svg" width="32" height="32" viewBox="0 0 32 32">
<title>magnet</title>
<path d="M10.256 10h-9.506c-0.412 0-0.75-0.338-0.75-0.75v-5c0-1.244 1.006-2.25 2.25-2.25h6.5c1.244 0 2.25 1.006 2.25 2.25v5c0.006 0.412-0.331 0.75-0.744 0.75zM32.006 9.25v-5.006c0-1.244-1.006-2.25-2.25-2.25h-6.5c-1.244 0-2.25 1.006-2.25 2.25v5c0 0.412 0.337 0.75 0.75 0.75h9.5c0.413 0.006 0.75-0.331 0.75-0.744zM21.756 12c-0.413 0-0.75 0.338-0.75 0.75v3.25c0 8.006-10 7.994-10 0v-3.25c0-0.412-0.338-0.75-0.75-0.75h-9.5c-0.419 0-0.75 0.338-0.75 0.756 0.006 1.338 0.037 2.519 0 3.331 0 9.413 8.512 15.413 16.050 15.413s15.944-6 15.944-15.419c-0.038-0.8-0.012-2.063 0-3.325 0-0.419-0.331-0.756-0.75-0.756h-9.494z"></path>
</svg>
