<!-- Generated by IcoMoon.io -->
<svg version="1.1" xmlns="http://www.w3.org/2000/svg" width="27" height="32" viewBox="0 0 27 32">
<title>mailchimp</title>
<path d="M26.66 20.233c-0.193-0.412-0.561-0.696-1.022-0.805-0.154-0.704-0.367-1.050-0.387-1.102 0.081-0.093 0.16-0.186 0.177-0.207 0.651-0.808 0.226-1.991-0.887-2.271-0.626-0.602-1.193-0.886-1.659-1.119-0.446-0.223-0.268-0.136-0.687-0.324-0.111-0.544-0.148-1.811-0.325-2.699-0.159-0.799-0.479-1.379-0.973-1.759-0.198-0.428-0.474-0.859-0.808-1.176 1.552-2.38 1.961-4.731 0.824-5.962-0.506-0.548-1.258-0.808-2.157-0.808-1.266 0-2.824 0.516-4.396 1.471 0 0-1.024-0.824-1.046-0.841-4.38-3.449-16.767 11.794-12.395 15.125l1.129 0.863c-0.709 1.971 0.277 4.321 2.331 5.076 0.454 0.167 0.946 0.248 1.457 0.219 0 0 3.318 6.085 10.319 6.087 8.099 0.003 10.159-7.92 10.181-7.991 0 0.001 0.656-0.969 0.323-1.776zM1.258 16.747c-0.887-1.498 0.657-4.574 1.756-6.323 2.716-4.322 7.236-7.732 9.288-7.246l0.564-0.216c0.002 0.002 1.542 1.303 1.544 1.304 1.061-0.637 2.411-1.286 3.675-1.415-0.769 0.173-1.706 0.572-2.816 1.251-0.027 0.016-2.626 1.77-4.214 3.345-0.866 0.858-4.341 5.026-4.338 5.022 0.635-1.202 1.054-1.792 2.059-3.056 0.569-0.715 1.176-1.411 1.796-2.053 0.288-0.298 0.58-0.585 0.872-0.857 0.201-0.187 0.402-0.367 0.603-0.539 0.092-0.079 0.185-0.156 0.277-0.232l0.001-0.001-2.037-1.682 0.107 0.754 1.481 1.304s-1.31 0.882-1.962 1.438c-2.612 2.229-5.175 5.65-6.129 8.981l0.046-0.002c-0.475 0.262-0.946 0.682-1.358 1.253-0.010-0.003-1.065-0.777-1.215-1.031zM5.577 23.003c-1.564 0-2.833-1.336-2.833-2.982s1.268-2.983 2.833-2.983c0.406 0 0.791 0.090 1.14 0.251 0 0 0.602 0.304 0.771 1.738 0.176-0.448 0.265-0.816 0.265-0.816 0.202 0.617 0.305 1.266 0.264 1.922 0.168-0.223 0.347-0.642 0.347-0.642 0.313 1.833-1.025 3.511-2.787 3.511zM9.064 12.469s1.218-2.316 3.896-3.848c-0.199-0.032-0.687 0.030-0.773 0.040 0.486-0.418 1.39-0.697 2.014-0.824-0.182-0.116-0.618-0.146-0.834-0.151-0.064-0.002-0.063-0.001-0.139 0.002 0.588-0.328 1.676-0.521 2.666-0.347-0.124-0.165-0.406-0.286-0.604-0.344-0.018-0.005-0.095-0.024-0.095-0.024l0.074-0.018c0.596-0.115 1.293 0.009 1.844 0.231-0.063-0.145-0.216-0.314-0.331-0.421-0.012-0.011-0.081-0.061-0.081-0.061 0.576 0.119 1.129 0.371 1.544 0.656-0.056-0.109-0.196-0.293-0.293-0.393 0.551 0.157 1.169 0.551 1.434 1.114 0.006 0.012 0.023 0.059 0.025 0.064-1.044-0.803-4.090-0.575-7.14 1.401-1.396 0.905-2.419 1.895-3.209 2.924zM25.522 21.616c-0.037 0.072-0.421 2.15-2.616 3.876-2.773 2.179-6.416 1.958-7.792 0.738-0.735-0.688-1.053-1.671-1.053-1.671s-0.083 0.554-0.098 0.772c-0.554-0.943-0.508-2.095-0.508-2.095s-0.296 0.552-0.431 0.861c-0.408-1.039-0.197-2.111-0.197-2.111l-0.322 0.481s-0.151-1.176 0.22-2.154c0.398-1.046 1.168-1.806 1.319-1.901-0.584-0.186-1.258-0.718-1.259-0.719 0 0 0.268 0.017 0.454-0.025 0 0-1.181-0.846-1.389-2.141 0.171 0.211 0.531 0.451 0.531 0.451-0.116-0.339-0.187-1.093-0.078-1.835l0.001-0.001c0.224-1.418 1.392-2.341 2.715-2.329 1.409 0.012 2.353 0.308 3.534-0.781 0.25-0.231 0.449-0.429 0.801-0.507 0.037-0.008 0.129-0.047 0.317-0.047 0.191 0 0.374 0.043 0.542 0.143 0.641 0.381 0.779 1.376 0.848 2.105 0.254 2.705 0.152 2.223 1.246 2.781 0.523 0.266 1.109 0.518 1.777 1.232 0.002 0.002 0.005 0.006 0.005 0.006h0.008c0.563 0.014 0.853 0.457 0.594 0.779-1.889 2.256-4.529 3.337-7.469 3.427-0.121 0.003-0.395 0.009-0.396 0.009-1.188 0.036-1.574 1.573-0.829 2.497 0.471 0.584 1.377 0.776 2.123 0.779l0.011-0.004c3.216 0.065 6.446-2.211 7.004-3.465 0.004-0.009 0.038-0.089 0.038-0.089-0.129 0.152-3.261 3.101-7.067 2.994 0 0-0.416-0.009-0.808-0.1-0.517-0.12-0.909-0.348-1.059-0.863 0.316 0.063 0.716 0.104 1.179 0.104 2.747 0 4.727-1.249 4.521-1.266-0.008 0-0.016 0.002-0.030 0.005-0.321 0.074-3.623 1.354-5.711 0.698 0.005-0.064 0.015-0.126 0.030-0.181 0.186-0.622 0.516-0.535 1.049-0.558 1.905-0.063 3.442-0.543 4.594-1.089 1.228-0.583 2.164-1.334 2.502-1.714 0.438 0.737 0.435 1.683 0.435 1.683s0.171-0.060 0.399-0.060c0.711 0.001 0.858 0.639 0.318 1.288zM16.191 22.472c0-0.003-0.001-0.006-0.001-0.009 0.001 0.003 0.001 0.006 0.001 0.009zM16.191 22.459c-0.001-0.008-0.001-0.016-0.001-0.024-0.001-0.041-0.002-0.083 0-0.126-0.001 0.046-0.001 0.089 0 0.126 0.001 0.008 0.001 0.017 0.001 0.024zM16.198 22.55c0 0.001 0 0.003 0.001 0.004 0-0.001 0-0.003-0.001-0.004zM16.199 22.558c0.012 0.099 0.032 0.144 0.034 0.15-0.014-0.031-0.026-0.084-0.034-0.15zM12.123 3.73l0.179-0.552 0.305 1.107-0.377-0.122-0.107-0.434zM13.521 4.838l-0.226-0.787 0.623 0.522c-0.14 0.090-0.273 0.179-0.397 0.264zM16.191 22.459c-0.001-0.008-0.001-0.016-0.001-0.024 0.001 0.008 0.001 0.017 0.001 0.024zM16.19 22.434c-0.001-0.041-0.002-0.083 0-0.126-0.002 0.047-0.002 0.089 0 0.126zM16.191 22.472c0-0.003-0.001-0.006-0.001-0.009zM16.199 22.554c0-0.001 0-0.003-0.001-0.004zM16.199 22.558c0.012 0.099 0.032 0.144 0.034 0.15-0.014-0.031-0.026-0.084-0.034-0.15zM19.456 13.894c-0.004-0.21 0.029-0.557 0.227-0.622h0.001c0.338-0.117 0.786 0.749 0.807 1.518-0.267-0.134-0.581-0.191-0.904-0.162-0.081-0.248-0.12-0.481-0.13-0.733zM12.836 5.329l-0.849-0.711 1.286 0.393c-0.166 0.117-0.313 0.225-0.436 0.319zM14.568 15.763c-0.213 0.081-0.364 0.144-0.438 0.134-0.118-0.018-0.004-0.234 0.255-0.444 0.521-0.415 1.235-0.544 1.846-0.317 0.267 0.098 0.567 0.295 0.725 0.524 0.059 0.087 0.076 0.152 0.051 0.18-0.048 0.056-0.219-0.019-0.472-0.118-0.647-0.241-1.124-0.278-1.967 0.041zM15.477 16.671c-0.144 0.059-0.238 0.104-0.276 0.073s-0.001-0.151 0.134-0.282c0.117-0.113 0.239-0.177 0.379-0.236 0.022-0.009 0.045-0.017 0.069-0.024 0.065-0.017 0.131-0.039 0.202-0.050 0.57-0.097 0.988 0.219 0.933 0.311-0.024 0.043-0.13 0.033-0.288 0.023-0.327-0.023-0.669-0.017-1.154 0.184zM5.322 18.584c-0.116 0.024-0.051 0.011-0.165 0.043-0.019 0.005-0.035 0.010-0.051 0.017l0.003-0.001c-0.036 0.017-0.069 0.028-0.101 0.046-0.027 0.015-0.254 0.116-0.439 0.343-0.249 0.309-0.34 0.714-0.324 1.104 0.015 0.379 0.126 0.588 0.147 0.639 0.086 0.185-0.116 0.223-0.299 0.024l-0.001-0.001c-0.147-0.156-0.241-0.393-0.288-0.604-0.186-0.872 0.203-1.748 1.101-2.098 0.050-0.020 0.109-0.032 0.156-0.046h-0.001c0.092-0.027 0.42-0.094 0.754-0.042 0.367 0.057 0.69 0.241 0.896 0.479l0.001 0.001c0.158 0.179 0.277 0.433 0.256 0.658v0.001c-0.008 0.094-0.049 0.228-0.134 0.263-0.031 0.013-0.063 0.006-0.085-0.016-0.061-0.060-0.014-0.183-0.162-0.394-0.198-0.279-0.644-0.547-1.263-0.417zM7.215 20.532c0.117 0.676-0.375 1.281-0.97 1.294-0.417 0.009-0.644-0.251-0.604-0.308 0.019-0.027 0.082-0.015 0.18-0.001 0.531 0.082 0.854-0.241 0.931-0.581 0.001-0.006 0.022-0.096 0.021-0.159 0.004-0.055-0.002-0.11-0.010-0.16-0.063-0.351-0.466-0.418-0.725-0.697-0.232-0.253-0.187-0.576-0.041-0.732 0.176-0.173 0.427-0.11 0.424-0.049 0 0.032-0.061 0.057-0.136 0.109-0.098 0.069-0.111 0.135-0.086 0.249 0.016 0.063 0.044 0.103 0.105 0.151 0.218 0.172 0.803 0.294 0.909 0.883zM20.519 15.44c0.161 0.025 0.264 0.224 0.229 0.446s-0.193 0.38-0.354 0.354c-0.161-0.025-0.264-0.224-0.229-0.446s0.193-0.379 0.354-0.354zM18.749 16.084c0.089-0.162 0.34-0.194 0.562-0.073s0.329 0.351 0.241 0.512c-0.089 0.162-0.34 0.194-0.562 0.073s-0.33-0.351-0.241-0.512z"></path>
</svg>
