<!-- Generated by IcoMoon.io -->
<svg version="1.1" xmlns="http://www.w3.org/2000/svg" width="24" height="32" viewBox="0 0 24 32">
<title>mandalorian</title>
<path d="M12.705 31.993c-0.061-0.204-0.106-0.989-0.087-1.536 0.034-0.993 0.061-1.545 0.088-1.797 0.040-0.387 0.179-1.295 0.205-1.336 0.037-0.060 0.025-1.742-0.015-2.071-0.019-0.161-0.039-0.744-0.043-1.296-0.008-1.029-0.033-1.258-0.171-1.547-0.069-0.145-0.077-0.24-0.062-0.714 0.010-0.301 0-0.658-0.021-0.794-0.128-0.811-0.216-1.731-0.203-2.119 0.013-0.383 0.027-0.447 0.129-0.604 0.191-0.294 0.407-0.878 0.539-1.454 0.141-0.616 0.242-1.074 0.287-1.296 0.056-0.276 0.152-0.607 0.273-0.941 0.142-0.391 0.156-0.962 0.023-0.962-0.019 0-0.086 0.076-0.151 0.169s-0.297 0.3-0.518 0.46c-0.523 0.38-0.731 0.587-0.791 0.786-0.058 0.194-0.064 0.452-0.010 0.485 0.021 0.013 0.081 0.15 0.132 0.305 0.101 0.305 0.117 0.633 0.045 0.96-0.024 0.111-0.066 0.342-0.091 0.514s-0.061 0.404-0.078 0.514c-0.018 0.11-0.061 0.23-0.097 0.266-0.060 0.060-0.071 0.057-0.128-0.033-0.034-0.054-0.075-0.188-0.090-0.297s-0.102-0.444-0.193-0.746c-0.205-0.681-0.22-1.009-0.060-1.31 0.057-0.108 0.104-0.238 0.104-0.288 0-0.149-0.137-0.332-0.463-0.618-0.441-0.386-0.539-0.495-0.639-0.706-0.107-0.225-0.191-0.254-0.284-0.096-0.111 0.188-0.162 0.569-0.186 1.376l-0.022 0.758 0.122 0.141c0.201 0.231 0.754 1.028 0.861 1.239 0.213 0.421 0.271 0.731 0.276 1.473 0.004 0.74 0.059 1.422 0.125 1.544 0.023 0.041 0.032 0.084 0.021 0.095s0.026 0.131 0.081 0.267c0.055 0.136 0.113 0.389 0.129 0.561s0.064 0.464 0.107 0.648c0.139 0.598 0.173 0.88 0.149 1.259-0.012 0.204-0.033 0.692-0.046 1.082-0.082 2.61-0.116 3.624-0.127 3.826-0.008 0.126-0.024 0.719-0.037 1.317-0.023 1.019-0.081 1.711-0.151 1.791-0.040 0.046-0.504-0.307-0.783-0.593-0.234-0.242-0.251-0.299-0.177-0.622 0.044-0.188 0.141-1.143 0.208-2.039 0.023-0.299 0.051-0.656 0.063-0.794 0.052-0.586 0.104-1.272 0.163-2.174 0.035-0.529 0.083-1.027 0.107-1.108s0.056-0.618 0.071-1.194l0.027-1.048-0.141-0.269c-0.107-0.205-0.304-0.434-0.826-0.959-0.377-0.379-0.74-0.769-0.807-0.866l-0.122-0.176 0.047-0.681c0.068-0.982 0.069-3.036 0.001-3.691l-0.056-0.544-0.205-0.283c-0.366-0.505-0.363-0.484-0.389-2.079-0.006-0.379-0.024-0.719-0.039-0.754-0.052-0.117-0.191-0.166-0.534-0.191-0.554-0.039-0.685-0.119-1.491-0.909-0.384-0.377-0.771-0.748-0.859-0.824-0.176-0.151-0.174-0.124-0.035-0.602l0.084-0.291-0.106-0.19c-0.058-0.104-0.131-0.219-0.162-0.254-0.083-0.094-0.344-0.681-0.374-0.843-0.019-0.104-0.006-0.167 0.054-0.244 0.139-0.179 0.213-0.355 0.278-0.671 0.146-0.699 0.484-1.631 0.662-1.826 0.199-0.217 0.481-0.066 0.588 0.314 0.084 0.299 0.086 0.612 0.006 1.159-0.033 0.23-0.061 0.542-0.062 0.694-0.001 0.251 0.012 0.293 0.141 0.462 0.208 0.273 0.483 0.463 0.95 0.657 0.106 0.044 0.239 0.124 0.295 0.178 0.698 0.67 1.164 1.011 1.434 1.053 0.324 0.050 0.499 0.284 0.627 0.837 0.082 0.353 0.25 0.696 0.341 0.696 0.037 0 0.131-0.039 0.208-0.087 0.124-0.076 0.141-0.108 0.141-0.261-0.001-0.232-0.073-0.88-0.125-1.115-0.023-0.104-0.049-0.254-0.058-0.334s-0.038-0.241-0.064-0.356c-0.159-0.697-0.228-0.966-0.256-1.003-0.097-0.126-0.255-0.638-0.308-0.995-0.102-0.694-0.248-0.889-0.807-1.087-0.29-0.103-0.556-0.258-0.832-0.486-0.072-0.059-0.251-0.201-0.397-0.316s-0.276-0.221-0.287-0.235c-0.011-0.014-0.087-0.071-0.168-0.126-0.39-0.264-0.553-0.436-0.704-0.748l-0.152-0.314-0.027-1.623 0.432-0.409c0.247-0.234 0.53-0.459 0.662-0.527 0.207-0.106 0.278-0.118 0.711-0.128 0.533-0.012 0.633 0.001 0.729 0.097s0.085 0.4-0.018 0.531c-0.046 0.059-0.084 0.124-0.084 0.145 0 0.036-0.163 0.307-0.339 0.562-0.043 0.062-0.133 0.334-0.148 0.426 1.277 0.837 1.347 0.236 0.879 1.811l0.713 0.159c0.194-0.541 0.404-1.079 0.538-1.639 0.018-0.477-0.749-0.262-0.963-0.542-0.146-0.371 0.196-0.886 0.379-1.2 0.1-0.146 0.414-0.294 0.551-0.259 0.055 0.014 0.26-0.022 0.461-0.080 0.199-0.057 0.411-0.105 0.472-0.105s0.229-0.036 0.374-0.081c0.228-0.069 0.281-0.073 0.397-0.025 0.073 0.030 0.237 0.068 0.364 0.085s0.295 0.070 0.375 0.119 0.221 0.111 0.314 0.136c0.157 0.042 0.188 0.036 0.441-0.104l0.272-0.15 0.669-0.026c0.652-0.025 0.676-0.029 0.954-0.168l0.286-0.144 0.154 0.089c0.11 0.064 0.196 0.171 0.303 0.374 0.148 0.282 0.149 0.286 0.086 0.461-0.055 0.153-0.056 0.206-0.006 0.399 0.031 0.123 0.091 0.289 0.131 0.369s0.078 0.193 0.082 0.251c0.019 0.271-0.002 0.331-0.151 0.433-0.136 0.092-0.436 0.494-0.436 0.584 0 0.020-0.030 0.106-0.067 0.189-0.315 0.719-0.422 0.848-0.891 1.061-0.575 0.263-0.769 0.324-1.013 0.324-0.194 0-0.25 0.016-0.284 0.079-0.023 0.043-0.138 0.148-0.256 0.232-0.127 0.092-0.238 0.211-0.274 0.299-0.034 0.080-0.104 0.162-0.156 0.182s-0.121 0.067-0.153 0.107c-0.033 0.039-0.229 0.19-0.438 0.336s-0.429 0.314-0.492 0.372-0.129 0.107-0.149 0.107-0.080 0.046-0.133 0.103c-0.082 0.087-0.093 0.132-0.071 0.287 0.014 0.102 0.054 0.267 0.089 0.367 0.082 0.237 0.082 0.491-0.003 0.661-0.089 0.179-0.056 0.416 0.084 0.599 0.126 0.164 0.135 0.285 0.044 0.553-0.038 0.113-0.066 0.341-0.066 0.557-0.001 0.305 0.014 0.393 0.091 0.524 0.075 0.127 0.114 0.155 0.203 0.145 0.124-0.014 0.144-0.066 0.294-0.758 0.136-0.627 0.232-0.745 0.86-1.068 0.184-0.094 0.466-0.247 0.627-0.34s0.424-0.231 0.586-0.307c0.417-0.197 0.691-0.407 0.951-0.729 0.444-0.549 0.624-1.014 0.803-2.081 0.034-0.205 0.089-0.353 0.179-0.483 0.081-0.117 0.148-0.289 0.181-0.457 0.064-0.331 0.178-0.567 0.349-0.719 0.294-0.261 0.375-0.068 0.287 0.679-0.029 0.241-0.069 0.646-0.090 0.899l-0.038 0.46 0.556 0.511 0.007 0.526c0.004 0.289 0.029 0.596 0.058 0.681l0.051 0.154-0.402 0.393c-0.534 0.521-0.805 0.871-1.047 1.351-0.111 0.218-0.234 0.444-0.274 0.502-0.136 0.194-0.404 0.813-0.547 1.266l-0.143 0.451-0.436 0.406c-0.239 0.223-0.498 0.453-0.573 0.511-0.191 0.145-0.266 0.322-0.266 0.624 0 0.186 0.027 0.31 0.099 0.454 0.054 0.109 0.113 0.244 0.131 0.302s0.061 0.139 0.098 0.181c0.088 0.099 0.12 1.008 0.052 1.451-0.043 0.28-0.227 0.751-0.294 0.751-0.112 0-0.254 0.579-0.317 1.296-0.011 0.126-0.039 0.371-0.061 0.544s-0.060 0.624-0.084 1.003c-0.048 0.764-0.012 1.173 0.128 1.447 0.213 0.418 0.033 0.793-0.689 1.427l-0.248 0.218 0.004 0.324c0.002 0.179 0.034 0.428 0.071 0.554 0.288 0.999 0.296 1.058 0.274 2.321-0.029 1.65-0.016 2.517 0.039 2.759 0.026 0.115 0.057 0.313 0.068 0.439s0.041 0.333 0.068 0.46c0.029 0.141 0.049 0.689 0.049 1.421l0.001 1.191-0.113 0.164c-0.169 0.244-0.944 0.846-0.968 0.768zM14.551 29.174c-0.011-0.019-0.021-0.429-0.021-0.912 0-0.879-0.056-1.721-0.141-2.153-0.025-0.126-0.051-0.606-0.056-1.066-0.009-0.746-0.088-1.523-0.165-1.649-0.041-0.067-0.189-1.104-0.189-1.331-0.001-0.264 0.064-0.375 0.33-0.571 0.259-0.19 0.304-0.196 0.342-0.045 0.018 0.069 0.091 0.351 0.162 0.627 0.246 0.945 0.259 1.017 0.253 1.359-0.006 0.361-0.008 0.383-0.109 1.108-0.061 0.442-0.073 0.774-0.065 1.777 0.011 1.212-0.040 2.233-0.127 2.579-0.044 0.174-0.175 0.343-0.214 0.277zM10.114 26.825c-0.015-0.024-0.063-0.328-0.108-0.674s-0.093-0.651-0.108-0.674c-0.014-0.024-0.043-0.206-0.062-0.406s-0.057-0.466-0.083-0.593c-0.062-0.299-0.209-1.209-0.214-1.317-0.002-0.046-0.021-0.253-0.044-0.46-0.042-0.388-0.053-1.729-0.014-1.768 0.060-0.060 0.414 0.172 0.708 0.464l0.33 0.328-0.028 0.404c-0.016 0.223-0.037 0.639-0.049 0.927s-0.031 0.617-0.042 0.732c-0.011 0.115-0.038 0.585-0.059 1.045-0.049 1.088-0.121 1.956-0.166 2-0.020 0.019-0.047 0.015-0.063-0.009zM4.664 10.163c1.317 0.799 1.115 0.884 1.781 1.104 0.813 0.268 1.179 0.446 1.447 1.054-2.729 2.259-4.313 3.619-4.794 4.426-1.939 3.251-0.374 6.349 3.922 5.451-0.886 1.827-4.873 1.789-6.168-0.306-1.542-2.497-1.381-7.394 3.813-11.729zM17.839 21.352c3.541 0.43 5.145-2.359 2.909-5.577 0 0-1.679-1.834-4.017-4.247 0.186-0.966 0.593-2.008 1.911-3.364 5.575 3.969 5.75 8.851 5.779 9.335 0.267 4.411-4.916 5.695-6.581 3.853z"></path>
</svg>
