<!-- Generated by IcoMoon.io -->
<svg version="1.1" xmlns="http://www.w3.org/2000/svg" width="40" height="32" viewBox="0 0 40 32">
<title>markdown</title>
<path d="M37.116 28.308h-34.231c-1.591 0-2.884-1.294-2.884-2.884v-18.846c0-1.591 1.294-2.884 2.884-2.884h34.231c1.591 0 2.884 1.294 2.884 2.884v18.846c0.001 1.591-1.293 2.884-2.884 2.884zM9.616 22.539v-7.5l3.846 4.808 3.846-4.808v7.5h3.846v-13.078h-3.846l-3.846 4.808-3.846-4.808h-3.846v13.077h3.846zM35.384 16h-3.846v-6.539h-3.846v6.539h-3.846l5.769 6.731 5.769-6.731z"></path>
</svg>
