<!-- Generated by IcoMoon.io -->
<svg version="1.1" xmlns="http://www.w3.org/2000/svg" width="26" height="32" viewBox="0 0 26 32">
<title>mastodon</title>
<path d="M26.113 11.194c0-6.075-3.981-7.856-3.981-7.856-3.906-1.794-14.281-1.775-18.15 0 0 0-3.981 1.781-3.981 7.856 0 7.231-0.412 16.212 6.6 18.069 2.531 0.669 4.706 0.813 6.456 0.712 3.175-0.175 4.956-1.131 4.956-1.131l-0.106-2.306s-2.269 0.712-4.819 0.631c-2.525-0.087-5.188-0.275-5.6-3.375-0.037-0.275-0.056-0.563-0.056-0.869 5.35 1.306 9.912 0.569 11.169 0.419 3.506-0.419 6.563-2.581 6.95-4.556 0.613-3.113 0.563-7.594 0.563-7.594zM21.419 19.019h-2.913v-7.137c0-3.106-4-3.225-4 0.431v3.906h-2.894v-3.906c0-3.656-4-3.537-4-0.431v7.138h-2.919c0-7.631-0.325-9.244 1.15-10.938 1.619-1.806 4.988-1.925 6.488 0.381l0.725 1.219 0.725-1.219c1.506-2.319 4.881-2.175 6.488-0.381 1.481 1.706 1.15 3.313 1.15 10.938z"></path>
</svg>
