<!-- Generated by IcoMoon.io -->
<svg version="1.1" xmlns="http://www.w3.org/2000/svg" width="32" height="32" viewBox="0 0 32 32">
<title>maximize</title>
<path d="M24.781 6l-7.057 7.057c-0.521 0.521-0.521 1.365 0 1.885s1.365 0.521 1.885 0l7.057-7.057v4.781c0 0.736 0.597 1.333 1.333 1.333s1.333-0.597 1.333-1.333v-8c0-0.181-0.036-0.353-0.101-0.511s-0.161-0.304-0.288-0.431c-0.001-0.001-0.001-0.001-0.003-0.003-0.123-0.123-0.269-0.221-0.431-0.288-0.157-0.065-0.329-0.101-0.511-0.101h-8c-0.736 0-1.333 0.597-1.333 1.333s0.597 1.333 1.333 1.333zM7.219 27.333l7.057-7.057c0.521-0.521 0.521-1.365 0-1.885s-1.365-0.521-1.885 0l-7.057 7.057v-4.781c0-0.736-0.597-1.333-1.333-1.333s-1.333 0.597-1.333 1.333v8c0 0.736 0.597 1.333 1.333 1.333h8c0.736 0 1.333-0.597 1.333-1.333s-0.597-1.333-1.333-1.333z"></path>
</svg>
