<!-- Generated by IcoMoon.io -->
<svg version="1.1" xmlns="http://www.w3.org/2000/svg" width="43" height="32" viewBox="0 0 43 32">
<title>meetup1</title>
<path d="M0 13.653q0-1.12 0.064-3.36 0.768-0.256 1.536-0.256h0.576q0.544 0.736 1.28 2.24t0.992 1.952q0.064-0.224 0.256-1.184t0.32-1.344 0.352-1.184 0.512-1.28 0.608-0.992q0.896 0.16 1.472 0.16 0.192 0 0.352-0.032 0.768 1.728 1.472 5.216t1.216 4.96q-0.032 0-0.128-0.032l-0.096-0.032q-0.288 0-0.832 0.16t-0.704 0.224q-1.28-3.232-1.984-6.496-0.48 0.832-0.48 2.848t-0.352 2.816l-0.16-0.064q-0.256 0-0.704 0.064t-0.672 0.064h-0.576q-0.864-1.536-1.824-2.848-0.096 0.192-0.096 0.48t0.096 0.832 0.064 0.8l-0.032 0.384q-0.96 0.48-1.664 0.48-0.224 0-0.32-0.032-0.544-1.792-0.544-4.544zM11.36 16.085q0-0.864 0.256-1.856t0.896-1.824 1.504-0.832q0.32 0 0.896 0.16t0.736 0.192q0.288 1.28 0.288 2.592 0 0.896-0.192 1.76-0.384-0.128-1.216-0.16t-1.184-0.096q-0.16 0.64-0.16 1.184 0 0.672 0.32 1.184t0.96 0.512q0.288 0 0.832-0.16t0.832-0.16q0.544 0 0.736 0.448-1.344 0.512-2.624 0.512-1.472 0-2.176-0.96t-0.704-2.496zM13.216 15.189l0.256-0.032q0.096 0 0.256 0.064t0.224 0.064l0.224-0.096q0.064-0.448 0.064-0.704 0-0.576-0.16-1.28-0.704 0.8-0.864 1.984zM16.736 16.917q0-3.936 2.496-5.824 1.024 0.096 1.92 0.736-0.032 0.544-0.256 2.144-0.16 1.248-0.16 2.080v0.448q-0.64 0.064-0.928 0.064-0.256 0-1.376-0.16-0.16 0.384-0.16 0.736 0 0.704 0.544 1.184t1.248 0.512q0.832 0 1.312-0.736 0.576 0.192 0.672 0.544-0.704 0.672-2.016 0.672-1.184 0-2.24-0.64t-1.056-1.76zM18.528 15.541q0.128 0.192 0.448 0.192h0.288q0.288-0.608 0.288-1.568 0-0.416-0.192-1.248-0.096 0.256-0.32 0.8t-0.352 0.96-0.16 0.864zM21.696 14.933q-0.064-0.832 0.736-0.832 0.192 0 0.576 0.032t0.544 0.032q0.096-0.48 0.096-0.992 0-0.928-0.224-2.784t-0.256-2.752q0-1.376 0.32-2.304 0.16 0.096 0.864 0.16t1.28 0.8q-0.192 0.832-0.192 2.144 0 0.64 0.128 2.592 0.064 1.12 0.064 1.952 0 0.64-0.032 1.088h0.192q0.224 0 0.288-0.192t0.064-0.416 0.128-0.192q0.256 0 0.608 0.256t0.704 0.704 0.48 0.512q-0.288 0.224-1.28 0.288t-1.248 0.128q-0.032 0.384-0.032 1.152 0 0.512 0.032 1.056t0.032 1.216 0.032 1.056q-0.256 0.032-0.736 0.064t-0.704 0.064v-0.64q0-0.672-0.096-1.824-0.128-1.408-0.128-1.952-0.192-0.064-1.024-0.128t-1.216-0.288zM28.576 14.677q0-0.64 0.064-1.856 0.352 0.032 0.64 0.16t0.672 0.32 0.576 0.32l-0.032 0.864q0 1.888 0.288 3.712 0.608-0.224 0.992-0.736t0.544-1.344 0.16-1.344 0.064-1.408v-0.352q0.096 0.032 0.288 0.032 0.64 0.064 1.568 0.8 0 0.096 0.032 0.288t0 0.32q0 0.48-0.128 0.96t-0.224 0.704-0.48 0.8-0.448 0.736q-0.48 0.384-1.088 1.344-0.672 0.224-1.216 0.224-2.272 0-2.272-4.544zM34.976 18.133q0.224-0.192 0.768-0.32 0-0.096 0.032-0.288 0.128-1.12 0.224-1.824t0.416-1.888 0.704-1.888 1.12-1.28 1.696-0.544q1.088 0 2.432 0.768 0.544 1.184 0.544 2.4 0 2.112-1.472 3.808t-3.616 2.176q-0.064 1.024-0.064 1.536 0 2.336 0.576 3.744-0.256-0.064-1.184-0.064-0.48 0-0.704-0.064-0.288-0.672-0.512-3.072t-0.96-3.2zM37.856 17.333q1.248-0.32 2.112-1.536t0.832-2.528q0-0.96-0.48-1.792-0.736 0.672-1.248 1.76t-0.736 1.92-0.48 2.176z"></path>
</svg>
