<!-- Generated by IcoMoon.io -->
<svg version="1.1" xmlns="http://www.w3.org/2000/svg" width="31" height="32" viewBox="0 0 31 32">
<title>megaport</title>
<path d="M15.5 0.5c-8.56 0-15.5 6.94-15.5 15.5s6.94 15.5 15.5 15.5 15.5-6.939 15.5-15.5c0-8.56-6.94-15.5-15.5-15.5zM20.841 17.229l3.729 3.729v5.441l-1.629 1.202-1.628-1.202v-4.091l-2.090-2.090-2.090 2.090v4.091l-1.633 1.202-1.633-1.202v-4.091l-2.090-2.090-2.090 2.089v4.091l-1.629 1.202-1.629-1.202v-5.441l3.717-3.717v-5.491l3.719-3.719v-4.726l1.629-1.202 1.629 1.202v4.727l3.719 3.719zM15.494 11.010l2.090 2.090v4.15l-2.084 2.083-2.096-2.096v-4.137l2.090-2.089z"></path>
</svg>
