<!-- Generated by IcoMoon.io -->
<svg version="1.1" xmlns="http://www.w3.org/2000/svg" width="31" height="32" viewBox="0 0 31 32">
<title>meh-rolling-eyes1</title>
<path d="M15.5 0.5c-8.563 0-15.5 6.938-15.5 15.5s6.938 15.5 15.5 15.5 15.5-6.938 15.5-15.5-6.938-15.5-15.5-15.5zM15.5 28.5c-6.894 0-12.5-5.606-12.5-12.5s5.606-12.5 12.5-12.5 12.5 5.606 12.5 12.5-5.606 12.5-12.5 12.5zM21 9.5c-2.488 0-4.5 2.012-4.5 4.5s2.012 4.5 4.5 4.5 4.5-2.012 4.5-4.5-2.012-4.5-4.5-4.5zM21 16.5c-1.381 0-2.5-1.119-2.5-2.5 0-0.85 0.456-1.569 1.106-2.019-0.063 0.162-0.106 0.331-0.106 0.519 0 0.831 0.669 1.5 1.5 1.5s1.5-0.669 1.5-1.5c0-0.181-0.044-0.356-0.106-0.519 0.65 0.45 1.106 1.169 1.106 2.019 0 1.381-1.119 2.5-2.5 2.5zM14.5 14c0-2.488-2.012-4.5-4.5-4.5s-4.5 2.012-4.5 4.5 2.013 4.5 4.5 4.5 4.5-2.012 4.5-4.5zM7.5 14c0-0.85 0.456-1.569 1.106-2.019-0.063 0.162-0.106 0.331-0.106 0.519 0 0.831 0.669 1.5 1.5 1.5s1.5-0.669 1.5-1.5c0-0.181-0.044-0.356-0.106-0.519 0.65 0.45 1.106 1.169 1.106 2.019 0 1.381-1.119 2.5-2.5 2.5s-2.5-1.119-2.5-2.5zM19.5 22h-8c-0.825 0-1.5 0.675-1.5 1.5s0.675 1.5 1.5 1.5h8c0.825 0 1.5-0.675 1.5-1.5s-0.675-1.5-1.5-1.5z"></path>
</svg>
