<!-- Generated by IcoMoon.io -->
<svg version="1.1" xmlns="http://www.w3.org/2000/svg" width="32" height="32" viewBox="0 0 32 32">
<title>microphone3</title>
<path d="M16 3.333c0.737 0 1.401 0.297 1.885 0.781s0.781 1.148 0.781 1.885v10.667c0 0.737-0.297 1.401-0.781 1.885s-1.148 0.781-1.885 0.781-1.401-0.297-1.885-0.781-0.781-1.148-0.781-1.885v-10.667c0-0.737 0.297-1.401 0.781-1.885s1.148-0.781 1.885-0.781zM16 0.667c-1.472 0-2.808 0.599-3.771 1.563s-1.563 2.299-1.563 3.771v10.667c0 1.472 0.599 2.808 1.563 3.771s2.299 1.563 3.771 1.563 2.808-0.599 3.771-1.563 1.563-2.299 1.563-3.771v-10.667c0-1.472-0.599-2.808-1.563-3.771s-2.299-1.563-3.771-1.563zM10.667 32.667h10.667c0.736 0 1.333-0.597 1.333-1.333s-0.597-1.333-1.333-1.333h-4v-2.749c2.412-0.301 4.576-1.408 6.209-3.041 1.928-1.929 3.124-4.597 3.124-7.543v-2.667c0-0.736-0.597-1.333-1.333-1.333s-1.333 0.597-1.333 1.333v2.667c0 2.209-0.893 4.208-2.343 5.657s-3.448 2.343-5.657 2.343-4.208-0.893-5.657-2.343-2.343-3.448-2.343-5.657v-2.667c0-0.736-0.597-1.333-1.333-1.333s-1.333 0.597-1.333 1.333v2.667c0 2.945 1.196 5.613 3.124 7.543 1.633 1.633 3.796 2.74 6.209 3.041v2.749h-4c-0.736 0-1.333 0.597-1.333 1.333s0.597 1.333 1.333 1.333z"></path>
</svg>
