<!-- Generated by IcoMoon.io -->
<svg version="1.1" xmlns="http://www.w3.org/2000/svg" width="40" height="32" viewBox="0 0 40 32">
<title>money-bill-alt1</title>
<path d="M20 9c-3.314 0-6 3.134-6 7s2.686 7 6 7c3.313 0 6-3.133 6-7s-2.686-7-6-7zM22.5 19.5c0 0.276-0.224 0.5-0.5 0.5h-4c-0.276 0-0.5-0.224-0.5-0.5v-1c0-0.276 0.224-0.5 0.5-0.5h1v-3.465l-0.029 0.019c-0.078 0.053-0.174 0.084-0.277 0.084-0.173 0-0.325-0.088-0.415-0.221l-0.001-0.002-0.555-0.832c-0.053-0.078-0.084-0.174-0.084-0.277 0-0.173 0.088-0.325 0.221-0.415l0.002-0.001 0.958-0.639c0.234-0.158 0.522-0.252 0.832-0.252 0 0 0 0 0 0h0.849c0.276 0 0.5 0.224 0.5 0.5v5.5h1c0.276 0 0.5 0.224 0.5 0.5v1zM38 4h-36c-1.104 0-2 0.896-2 2v20c0 1.104 0.896 2 2 2h36c1.104 0 2-0.896 2-2v-20c0-1.104-0.896-2-2-2zM37 21c-2.209 0-4 1.791-4 4h-26c0-2.209-1.791-4-4-4v-10c2.209 0 4-1.791 4-4h26c0 2.209 1.791 4 4 4v10z"></path>
</svg>
