<!-- Generated by IcoMoon.io -->
<svg version="1.1" xmlns="http://www.w3.org/2000/svg" width="32" height="32" viewBox="0 0 32 32">
<title>moon1</title>
<path d="M17.446 32c4.922 0 9.436-2.238 12.428-5.923 1.767-2.177-0.16-5.358-2.891-4.838-5.147 0.98-9.892-2.954-9.892-8.175 0-3.027 1.629-5.768 4.215-7.24 2.422-1.378 1.812-5.049-0.939-5.557-0.878-0.17-1.888-0.267-2.921-0.267h-0c-8.835 0-16 7.161-16 16 0 8.835 7.161 16 16 16zM17.446 3c0.812 0 1.606 0.075 2.376 0.217-3.422 1.948-5.731 5.628-5.731 9.847 0 7.115 6.478 12.45 13.453 11.121-2.384 2.937-6.021 4.814-10.098 4.814-7.18 0-13-5.82-13-13s5.82-13 13-13z"></path>
</svg>
