<!-- Generated by IcoMoon.io -->
<svg version="1.1" xmlns="http://www.w3.org/2000/svg" width="40" height="32" viewBox="0 0 40 32">
<title>motorcycle</title>
<path d="M32.059 12c-0.929-0.007-1.821 0.145-2.652 0.43l-2.058-3.43h5.151c0.828 0 1.5-0.672 1.5-1.5v-2c0-0.828-0.672-1.5-1.5-1.5h-2.832c-0.442 0-0.839 0.191-1.114 0.495l-0.001 0.001-2.343 2.604-1.423-2.372c-0.267-0.439-0.743-0.728-1.286-0.728 0 0 0 0 0 0h-5c-0.552 0-1 0.448-1 1v1c0 0.552 0.448 1 1 1h4.151l1.2 2h-9.607c-1.108-1.442-2.808-2.5-6.244-2.5h-3.466c-0.841 0-1.549 0.688-1.534 1.529 0.015 0.815 0.681 1.471 1.5 1.471h3.5c1.531 0 2.418 0.682 2.987 1.548l-0.706 1.283c-0.813-0.242-1.679-0.358-2.578-0.326-4.212 0.154-7.605 3.595-7.701 7.808-0.102 4.503 3.518 8.186 7.998 8.186 3.728 0 6.859-2.55 7.747-6h5.265c0.855 0 1.537-0.714 1.498-1.567-0.132-2.945 1.095-5.854 3.512-7.814l0.78 1.3c-1.728 1.478-2.819 3.68-2.802 6.136 0.029 4.347 3.575 7.903 7.922 7.944 4.477 0.042 8.115-3.593 8.077-8.069-0.037-4.349-3.591-7.899-7.94-7.931zM8 25c-2.757 0-5-2.243-5-5s2.243-5 5-5c0.265 0 0.525 0.021 0.779 0.061l-2.594 4.716c-0.549 0.998 0.175 2.223 1.314 2.223h5.081c-0.773 1.764-2.535 3-4.581 3zM32.272 24.993c-2.88 0.153-5.272-2.146-5.272-4.993 0-1.335 0.527-2.549 1.383-3.447l3.088 5.147c0.284 0.474 0.898 0.627 1.372 0.343l0.858-0.515c0.474-0.284 0.627-0.898 0.343-1.372l-3.035-5.058c0.298-0.063 0.64-0.099 0.99-0.099 0 0 0.001 0 0.001 0h-0c2.847 0 5.146 2.392 4.993 5.272-0.135 2.535-2.186 4.586-4.721 4.721z"></path>
</svg>
