<!-- Generated by IcoMoon.io -->
<svg version="1.1" xmlns="http://www.w3.org/2000/svg" width="32" height="32" viewBox="0 0 32 32">
<title>music3</title>
<path d="M10.667 24.667c0 0.737-0.297 1.401-0.781 1.885s-1.148 0.781-1.885 0.781-1.401-0.297-1.885-0.781-0.781-1.148-0.781-1.885 0.297-1.401 0.781-1.885 1.148-0.781 1.885-0.781 1.401 0.297 1.885 0.781 0.781 1.148 0.781 1.885zM29.333 22v-17.333c0-0.067-0.005-0.143-0.019-0.219-0.121-0.727-0.808-1.217-1.535-1.096l-16 2.667c-0.635 0.108-1.113 0.656-1.113 1.315v12.713c-0.784-0.453-1.696-0.713-2.667-0.713-1.472 0-2.808 0.599-3.771 1.563s-1.563 2.299-1.563 3.771 0.599 2.808 1.563 3.771 2.299 1.563 3.771 1.563 2.808-0.599 3.771-1.563 1.563-2.299 1.563-3.771v-16.204l13.333-2.223v11.14c-0.784-0.453-1.696-0.713-2.667-0.713-1.472 0-2.808 0.599-3.771 1.563s-1.563 2.299-1.563 3.771 0.599 2.808 1.563 3.771 2.299 1.563 3.771 1.563 2.808-0.599 3.771-1.563 1.563-2.299 1.563-3.771zM26.667 22c0 0.737-0.297 1.401-0.781 1.885s-1.148 0.781-1.885 0.781-1.401-0.297-1.885-0.781-0.781-1.148-0.781-1.885 0.297-1.401 0.781-1.885 1.148-0.781 1.885-0.781 1.401 0.297 1.885 0.781 0.781 1.148 0.781 1.885z"></path>
</svg>
