<!-- Generated by IcoMoon.io -->
<svg version="1.1" xmlns="http://www.w3.org/2000/svg" width="29" height="32" viewBox="0 0 29 32">
<title>neos</title>
<path d="M24.215 32h-5.944l-6.763-9.659v5.694l-5.402 3.965h-6.106v-30.136l2.529-1.864h6.753l7.734 11.008v-7.043l5.402-3.966h6.106v28.844l-4.309 3.156zM0.673 2.204v28.795l4.501-3.305v-15.572l13.468 19.231h5.299l3.272-2.386h-4.892l-19.761-28.156-1.887 1.393zM5.832 31.367l5.003-3.674v-6.315l-4.987-7.148v13.809l-4.536 3.328h4.521zM3.289 0.673l19.413 27.661h5.148v-27.661h-4.984v19.848l-13.934-19.848h-5.643zM17.689 11.978l4.501 6.426v-17.408l-4.501 3.31v7.673z"></path>
</svg>
