<!-- Generated by IcoMoon.io -->
<svg version="1.1" xmlns="http://www.w3.org/2000/svg" width="36" height="32" viewBox="0 0 36 32">
<title>newspaper1</title>
<path d="M34.5 4h-27.5c-1.304 0-2.415 0.836-2.828 2h-2.672c-0.828 0-1.5 0.672-1.5 1.5v17c0 1.933 1.567 3.5 3.5 3.5h31c0.828 0 1.5-0.672 1.5-1.5v-21c0-0.828-0.672-1.5-1.5-1.5zM3 24.5v-15.5h1v15.5c0 0.276-0.224 0.5-0.5 0.5s-0.5-0.224-0.5-0.5zM33 25h-26.036c0.023-0.163 0.036-0.33 0.036-0.5v-17.5h26v18zM10.75 17.5h8.5c0.414 0 0.75-0.336 0.75-0.75v-6c0-0.414-0.336-0.75-0.75-0.75h-8.5c-0.414 0-0.75 0.336-0.75 0.75v6c0 0.414 0.336 0.75 0.75 0.75zM12.5 12.5h5v2.5h-5v-2.5zM10 21.25v-1.5c0-0.414 0.336-0.75 0.75-0.75h8.5c0.414 0 0.75 0.336 0.75 0.75v1.5c0 0.414-0.336 0.75-0.75 0.75h-8.5c-0.414 0-0.75-0.336-0.75-0.75zM22 21.25v-1.5c0-0.414 0.336-0.75 0.75-0.75h6.5c0.414 0 0.75 0.336 0.75 0.75v1.5c0 0.414-0.336 0.75-0.75 0.75h-6.5c-0.414 0-0.75-0.336-0.75-0.75zM22 12.25v-1.5c0-0.414 0.336-0.75 0.75-0.75h6.5c0.414 0 0.75 0.336 0.75 0.75v1.5c0 0.414-0.336 0.75-0.75 0.75h-6.5c-0.414 0-0.75-0.336-0.75-0.75zM22 16.75v-1.5c0-0.414 0.336-0.75 0.75-0.75h6.5c0.414 0 0.75 0.336 0.75 0.75v1.5c0 0.414-0.336 0.75-0.75 0.75h-6.5c-0.414 0-0.75-0.336-0.75-0.75z"></path>
</svg>
