<!-- Generated by IcoMoon.io -->
<svg version="1.1" xmlns="http://www.w3.org/2000/svg" width="22" height="32" viewBox="0 0 22 32">
<title>nimblr</title>
<path d="M14.537 18.706c0.973 0 1.697 0.716 1.697 1.685 0 0.972-0.726 1.685-1.697 1.685-0.981 0-1.697-0.723-1.697-1.685 0-0.969 0.724-1.685 1.697-1.685zM6.188 20.391c0-0.976 0.73-1.685 1.697-1.685 0.973 0 1.697 0.716 1.697 1.685 0 0.963-0.717 1.685-1.697 1.685-0.965 0-1.697-0.707-1.697-1.685zM11.11 9.934c-2.172 0-6.394 1.239-8.282 4.253l-2.828-14.188v20.968c0 6.103 4.976 11.032 11.11 11.032 6.14 0 11.11-4.934 11.11-11.032 0-6.091-4.962-11.033-11.11-11.033zM11.11 29.192c-4.579 0-8.282-3.681-8.282-8.224s3.703-8.224 8.282-8.224 8.282 3.682 8.282 8.224-3.703 8.224-8.282 8.224z"></path>
</svg>
