<!-- Generated by IcoMoon.io -->
<svg version="1.1" xmlns="http://www.w3.org/2000/svg" width="39" height="32" viewBox="0 0 39 32">
<title>ninetyninedesigns</title>
<path d="M0 3.413q-0.032-0.16 0.096-0.32t0.256-0.16q0.352-0.064 0.992-0.224t0.896-0.192q0-0.544 0.032-1.6t0.032-1.536q0.064-0.384 0.416-0.384 0.448 0 0.448 0.448-0.064 1.92-0.064 2.912 0.352-0.064 1.12-0.224t1.12-0.256q0.576-0.128 1.76-0.32t1.792-0.32q12.864-2.208 25.408-2.304 0.192 0 0.32 0.128t0.064 0.352q0 0.352-0.064 1.056t-0.064 1.056q1.344 0.096 4.096 0.352 0.16 0 0.288 0.128t0.096 0.32q-0.736 4.384-2.176 13.184t-2.176 13.216q1.6 0.256 2.432 0.384 0.256 0.032 0.352 0.256t-0.032 0.416-0.32 0.192h-0.096q-0.416-0.064-1.248-0.192t-1.248-0.224q-0.032 0.384-0.16 0.992-0.064 0.288-0.32 0.352-0.032 0.032-0.128 0.032h-0.128q-9.504-2.4-19.2-3.744-3.2-0.064-4.768-0.064-1.76 0-5.28 0.064v0.032q0.032 0.032 0.032 0.064 0.032 0.192-0.128 0.352t-0.352 0.128q-0.352 0-0.384-0.352 0-0.16-0.032-0.48t-0.096-0.544h-0.416q-0.256 0-0.32-0.224t0.032-0.448 0.352-0.192h0.256l-0.192-1.728q-0.192-1.28-0.8-6.24t-1.12-8.032-1.376-6.112zM0.96 3.669q0.672 2.496 1.376 6.432-0.096-2.24-0.096-6.688-0.512 0.064-1.28 0.256zM3.104 6.581q0.032 6.176 0.672 13.568 0.096 1.28 0.352 3.488 0.032 0.288 0.096 0.608t0.096 0.704 0.096 0.608q2.144 0.096 6.144 0.416t5.824 0.416q11.328 0.64 15.456 1.12 0.352-5.12 1.056-14.56t0.928-13.152q-14.976 0.128-30.72 3.424-0.032 1.696 0 3.36zM6.048 11.797q0 2.176 1.376 3.552t3.456 1.376q2.208 0 3.488-1.376h0.064q-0.416 2.24-2.080 3.552-1.312 1.056-3.232 1.216-1.28 0.128-1.664 0.064v2.4q1.12 0 1.824-0.064 3.424-0.256 5.472-2.176 2.784-2.624 2.784-7.456 0-3.008-1.504-4.928t-4.224-1.888q-2.496 0-4.128 1.696t-1.632 4.032zM9.056 11.605q0-1.44 0.736-2.368t1.856-0.896h0.032q1.376 0 2.080 1.12t0.672 2.912q0 0.512-0.16 0.832-0.832 1.344-2.592 1.344-1.216 0-1.92-0.832t-0.704-2.112zM11.904 26.869l3.072 0.32 11.936 1.28q4.48 0.96 6.688 1.536l0.096-0.576q-1.76-0.288-5.28-0.8-7.968-1.12-16.512-1.76zM18.048 11.797q0 2.176 1.376 3.552t3.456 1.376q2.208 0 3.52-1.376h0.032q-0.416 2.24-2.048 3.552-1.344 1.056-3.264 1.216-1.28 0.128-1.664 0.064v2.4q1.12 0 1.824-0.064 3.424-0.256 5.472-2.176 2.784-2.56 2.784-7.456 0-3.008-1.504-4.928t-4.192-1.888q-2.496 0-4.128 1.696t-1.664 4.032zM21.056 11.605q0-1.44 0.736-2.368t1.856-0.896h0.032q1.376 0 2.080 1.12t0.672 2.912q0 0.512-0.16 0.832-0.832 1.344-2.592 1.344-1.216 0-1.92-0.832t-0.704-2.112zM32.48 28.373q0.896 0.128 1.376 0.192 0.64-3.84 2.080-12.544t2.176-13.344q-0.416-0.032-1.12-0.096t-1.344-0.128-1.152-0.064q-0.192 2.72-0.864 11.712t-0.992 13.952q0 0.16-0.128 0.288-0.032 0-0.032 0.032z"></path>
</svg>
