<!-- Generated by IcoMoon.io -->
<svg version="1.1" xmlns="http://www.w3.org/2000/svg" width="28" height="32" viewBox="0 0 28 32">
<title>nintendo-switch</title>
<path d="M5.994 2.094c-2.788 0.5-5.031 2.563-5.737 5.275-0.256 0.981-0.275 1.556-0.244 9.156 0.013 6.975 0.019 7.137 0.138 7.681 0.644 2.906 2.706 4.975 5.644 5.656 0.381 0.087 0.869 0.106 4.006 0.119 3.244 0.025 3.581 0.019 3.669-0.069s0.094-1.206 0.094-13.887c0-9.406-0.019-13.831-0.056-13.912-0.056-0.106-0.156-0.113-3.556-0.106-2.763 0.006-3.594 0.025-3.956 0.087zM11.238 16.006v11.744l-2.363-0.031c-2.175-0.025-2.406-0.038-2.844-0.144-1.869-0.481-3.25-1.919-3.644-3.794-0.125-0.587-0.125-15.006-0.006-15.581 0.35-1.631 1.481-2.981 3-3.588 0.763-0.306 1.119-0.344 3.6-0.35l2.244-0.006v11.75zM6.494 7.806c-0.362 0.069-0.919 0.35-1.219 0.606-0.606 0.525-0.912 1.275-0.862 2.156 0.025 0.456 0.050 0.581 0.237 0.95 0.275 0.563 0.681 0.975 1.244 1.25 0.388 0.194 0.487 0.213 0.994 0.231 0.456 0.019 0.619 0 0.925-0.106 1.256-0.425 2.019-1.644 1.8-2.9-0.244-1.481-1.662-2.481-3.119-2.188zM16.381 2.038c-0.025 0.019-0.038 6.3-0.038 13.969 0 12.644 0.006 13.925 0.094 13.962 0.156 0.056 4.656 0.038 5.212-0.025 2.356-0.269 4.438-1.7 5.563-3.825 0.144-0.275 0.337-0.731 0.438-1.012 0.363-1.087 0.356-0.8 0.356-9.131 0-6.65-0.012-7.644-0.094-8.063-0.575-3.019-2.881-5.3-5.906-5.819-0.406-0.069-1.031-0.087-3.050-0.087-1.4-0.006-2.556 0.013-2.575 0.031zM22.575 14.669c0.906 0.238 1.644 0.925 1.95 1.806 0.194 0.544 0.188 1.344-0.006 1.844-0.356 0.919-1.050 1.563-1.944 1.8-1.45 0.375-2.994-0.5-3.413-1.938-0.125-0.438-0.119-1.181 0.025-1.637 0.431-1.419 1.938-2.256 3.387-1.875z"></path>
</svg>
