<!-- Generated by IcoMoon.io -->
<svg version="1.1" xmlns="http://www.w3.org/2000/svg" width="32" height="32" viewBox="0 0 32 32">
<title>object-group1</title>
<path d="M31.25 8c0.414 0 0.75-0.336 0.75-0.75v-4.5c0-0.414-0.336-0.75-0.75-0.75h-4.5c-0.414 0-0.75 0.336-0.75 0.75v0.75h-20v-0.75c0-0.414-0.336-0.75-0.75-0.75h-4.5c-0.414 0-0.75 0.336-0.75 0.75v4.5c0 0.414 0.336 0.75 0.75 0.75h0.75v16h-0.75c-0.414 0-0.75 0.336-0.75 0.75v4.5c0 0.414 0.336 0.75 0.75 0.75h4.5c0.414 0 0.75-0.336 0.75-0.75v-0.75h20v0.75c0 0.414 0.336 0.75 0.75 0.75h4.5c0.414 0 0.75-0.336 0.75-0.75v-4.5c0-0.414-0.336-0.75-0.75-0.75h-0.75v-16h0.75zM28 4h2v2h-2v-2zM2 4h2v2h-2v-2zM4 28h-2v-2h2v2zM30 28h-2v-2h2v2zM27.5 24h-0.75c-0.414 0-0.75 0.336-0.75 0.75v0.75h-20v-0.75c0-0.414-0.336-0.75-0.75-0.75h-0.75v-16h0.75c0.414 0 0.75-0.336 0.75-0.75v-0.75h20v0.75c0 0.414 0.336 0.75 0.75 0.75h0.75v16zM25.25 12h-5.25v-3.25c0-0.414-0.336-0.75-0.75-0.75h-12.5c-0.414 0-0.75 0.336-0.75 0.75v10.5c0 0.414 0.336 0.75 0.75 0.75h5.25v3.25c0 0.414 0.336 0.75 0.75 0.75h12.5c0.414 0 0.75-0.336 0.75-0.75v-10.5c0-0.414-0.336-0.75-0.75-0.75zM8.5 10.5h9v7h-9v-7zM23.5 21.5h-9v-1.5h4.75c0.414 0 0.75-0.336 0.75-0.75v-4.75h3.5v7z"></path>
</svg>
