<!-- Generated by IcoMoon.io -->
<svg version="1.1" xmlns="http://www.w3.org/2000/svg" width="36" height="32" viewBox="0 0 36 32">
<title>object-ungroup1</title>
<path d="M35.25 14c0.414 0 0.75-0.336 0.75-0.75v-4.5c0-0.414-0.336-0.75-0.75-0.75h-4.5c-0.414 0-0.75 0.336-0.75 0.75v0.75h-5.5v-1.5h0.75c0.414 0 0.75-0.336 0.75-0.75v-4.5c0-0.414-0.336-0.75-0.75-0.75h-4.5c-0.414 0-0.75 0.336-0.75 0.75v0.75h-14v-0.75c0-0.414-0.336-0.75-0.75-0.75h-4.5c-0.414 0-0.75 0.336-0.75 0.75v4.5c0 0.414 0.336 0.75 0.75 0.75h0.75v10h-0.75c-0.414 0-0.75 0.336-0.75 0.75v4.5c0 0.414 0.336 0.75 0.75 0.75h4.5c0.414 0 0.75-0.336 0.75-0.75v-0.75h5.5v1.5h-0.75c-0.414 0-0.75 0.336-0.75 0.75v4.5c0 0.414 0.336 0.75 0.75 0.75h4.5c0.414 0 0.75-0.336 0.75-0.75v-0.75h14v0.75c0 0.414 0.336 0.75 0.75 0.75h4.5c0.414 0 0.75-0.336 0.75-0.75v-4.5c0-0.414-0.336-0.75-0.75-0.75h-0.75v-10h0.75zM22 4h2v2h-2v-2zM22 20h2v2h-2v-2zM4 22h-2v-2h2v2zM4 6h-2v-2h2v2zM6 19.5v-0.75c0-0.414-0.336-0.75-0.75-0.75h-0.75v-10h0.75c0.414 0 0.75-0.336 0.75-0.75v-0.75h14v0.75c0 0.414 0.336 0.75 0.75 0.75h0.75v10h-0.75c-0.414 0-0.75 0.336-0.75 0.75v0.75h-14zM14 28h-2v-2h2v2zM31.5 24h-0.75c-0.414 0-0.75 0.336-0.75 0.75v0.75h-14v-0.75c0-0.414-0.336-0.75-0.75-0.75h-0.75v-1.5h5.5v0.75c0 0.414 0.336 0.75 0.75 0.75h4.5c0.414 0 0.75-0.336 0.75-0.75v-4.5c0-0.414-0.336-0.75-0.75-0.75h-0.75v-5.5h5.5v0.75c0 0.414 0.336 0.75 0.75 0.75h0.75v10zM34 28h-2v-2h2v2zM34 12h-2v-2h2v2z"></path>
</svg>
