<!-- Generated by IcoMoon.io -->
<svg version="1.1" xmlns="http://www.w3.org/2000/svg" width="41" height="32" viewBox="0 0 41 32">
<title>opentable</title>
<path d="M0 13.845v-1.632q0-1.216 2.784-2.080t6.752-0.864 6.752 0.864 2.784 2.080v1.632q-0.032 1.216-2.816 2.048t-6.72 0.864-6.72-0.864-2.816-2.048zM9.184 6.069v-0.864q0.064-0.608 2.048-1.056t4.768-0.416 4.768 0.416 2.016 1.056h0.032v0.864h-0.032q-0.064 0.64-2.016 1.056t-4.768 0.448-4.768-0.448-2.048-1.056zM15.936 21.877v-2.048q0.128-1.792 3.744-3.040t8.672-1.216 8.672 1.216 3.712 3.040v2.048q-0.096 1.76-3.712 3.008t-8.672 1.248-8.672-1.248-3.744-3.008zM23.232 10.965v-1.344q0.064-0.928 2.432-1.568t5.6-0.64 5.632 0.64 2.4 1.568v1.344q0 0.928-2.336 1.6t-5.696 0.672-5.664-0.672-2.368-1.6z"></path>
</svg>
