<!-- Generated by IcoMoon.io -->
<svg version="1.1" xmlns="http://www.w3.org/2000/svg" width="32" height="32" viewBox="0 0 32 32">
<title>open</title>
<path d="M29.333 16.667c-0.736 0-1.333 0.597-1.333 1.333v9.333c0 0.737-0.597 1.333-1.333 1.333h-21.333c-0.737 0-1.333-0.597-1.333-1.333v-21.333c0-0.737 0.597-1.333 1.333-1.333h9.333c0.736 0 1.333-0.597 1.333-1.333s-0.597-1.333-1.333-1.333h-9.333c-2.209 0-4 1.791-4 4v21.333c0 2.209 1.791 4 4 4h21.333c2.209 0 4-1.791 4-4v-9.333c0-0.736-0.597-1.333-1.333-1.333zM30.667 3.333v8c0 0.736-0.597 1.333-1.333 1.333s-1.333-0.597-1.333-1.333v-4.781l-10.924 10.923c-0.52 0.521-1.365 0.521-1.885 0s-0.521-1.365 0-1.885l10.923-10.923h-4.781c-0.736 0-1.333-0.597-1.333-1.333s0.597-1.333 1.333-1.333h8c0.736 0 1.333 0.597 1.333 1.333z"></path>
</svg>
