<!-- Generated by IcoMoon.io -->
<svg version="1.1" xmlns="http://www.w3.org/2000/svg" width="35" height="32" viewBox="0 0 35 32">
<title>openid1</title>
<path d="M0 19.637q-0.032-2.016 0.8-3.744t2.144-2.848 2.944-2.016 3.232-1.376 2.944-0.8 2.176-0.416l0.832-0.096v3.936q-1.824 0.128-3.328 0.608t-2.496 1.184-1.696 1.44-1.12 1.536-0.608 1.376-0.256 0.992l-0.064 0.384q-0.096 0.48-0.096 0.96 0 0.704 0.224 1.344 0.384 1.088 1.216 1.856t1.888 1.408 2.176 1.088 2.048 0.672 1.504 0.416l0.608 0.096v3.296q-3.104-0.32-5.6-1.12t-4.064-1.792-2.656-2.176-1.632-2.272-0.768-1.984-0.32-1.408zM16.32 30.933v-28.864l4.544-3.136v29.504zM21.952 12.021h0.16q1.216 0.032 2.464 0.48 1.344 0.512 2.048 0.992l0.672 0.512-2.656 1.088 10.016 2.496v-7.84l-3.424 1.952q-1.28-1.376-3.584-2.208t-4.032-0.992l-1.664-0.16v3.68z"></path>
</svg>
