<!-- Generated by IcoMoon.io -->
<svg version="1.1" xmlns="http://www.w3.org/2000/svg" width="36" height="32" viewBox="0 0 36 32">
<title>optin-monster</title>
<path d="M34.417 28.144c0 0.726-0.98 1.216-2.010 0.929-0.76-0.203-1.959-1.098-2.263-1.706-0.355-0.726 0.253-2.044 1.182-1.925 0.98 0.101 3.091 1.588 3.091 2.702zM23.304 4.701c-0.236-4.509-6.3-4.982-7.87-1.469 2.787-1.52 5.641-0.98 7.87 1.469zM4.675 25.442c-0.98 0.101-3.091 1.588-3.091 2.702 0 0.726 0.98 1.216 2.010 0.929 0.76-0.203 1.942-1.098 2.246-1.706 0.372-0.726-0.236-2.044-1.165-1.925zM35.785 26.337c0.068 0.22 0.118 0.439 0.118 0.676 0.051 1.976-2.77 4.003-4.594 4.070-1.081 0.051-2.162-0.524-2.668-1.469-7.094 0.253-14.187 0.304-21.264 0-0.524 0.946-1.604 1.503-2.685 1.469-1.807-0.068-4.628-2.094-4.594-4.070 0.017-0.236 0.051-0.456 0.118-0.676-0.348-0.591-0.303-0.955 0.338-0.726 0.203-0.321 0.439-0.591 0.693-0.861-0.161-0.682 0.079-0.881 0.692-0.574 0.287-0.203 0.625-0.405 0.997-0.574 0-0.985 0.74-0.696 1.081-0.355 0.779-0.111 1.258 0.044 1.672 0.355v-1.233c-0.812 0-2.54-0.711-2.871-2.263-0.311-1.295 0.163-2.38 1.571-2.973 0.051-0.372 0.507-0.878 0.929-0.997 0.473-0.118 0.777 0.287 0.878 0.642 0.464 0 1.11 0.092 1.317 0.507 0.338-0.034 0.692-0.084 1.030-0.118-0.152-0.118-0.321-0.22-0.507-0.287-0.321-0.557-0.861-0.692-1.537-0.726 0-0.051 0-0.101 0.017-0.169-1.233-0.034-2.753-0.355-3.429-1.115-1.333-1.477-0.996-5.224 0.76-6.469 0.524-0.355 1.351-0.051 1.419 0.608 0.152 1.287 0.025 1.677 1.638 1.621 0.507-0.49 1.047-0.912 1.655-1.25-0.929-0.085-1.807 0.101-2.736 0.236 0.797-0.78 1.497-1.59 3.547-2.652 1.469-0.743 3.125-1.3 4.763-1.452-1.165-0.49-2.5-0.743-3.733-1.030 4.78-1.013 10.911-1.385 15.268 2.348 1.132 0.963 2.027 2.263 2.668 3.75 2.487 0.303 2.279-0.349 2.415-1.571 0.068-0.642 0.895-0.963 1.419-0.591 0.929 0.659 1.385 1.925 1.537 3.006 0.135 1.115 0.017 2.584-0.777 3.445-0.676 0.76-2.145 1.098-3.361 1.132v0.169c-0.692 0.017-1.267 0.152-1.605 0.726-0.186 0.068-0.355 0.169-0.524 0.287 0.355 0.034 0.709 0.084 1.047 0.118 0.117-0.351 0.783-0.524 1.317-0.524 0.101-0.338 0.422-0.743 0.878-0.642s0.878 0.625 0.929 0.997c0.676 0.27 1.385 0.76 1.571 1.605 0.118 0.507 0.101 0.946 0.017 1.368-0.358 1.579-2.085 2.263-2.871 2.263 0 0.422 0 0.828-0.017 1.233 0.501-0.375 1.023-0.447 1.672-0.355 0.37-0.37 1.098-0.588 1.098 0.355 0.355 0.169 0.709 0.372 0.996 0.574 0.631-0.316 0.854-0.034 0.676 0.574 0.253 0.27 0.507 0.557 0.692 0.861 0.633-0.226 0.689 0.13 0.338 0.726zM31.174 10.461c1.081 0.422 1.638 1.385 1.892 2.229 0.068-0.659-0.169-2.466-0.861-3.192-0.456-0.456-0.878-0.321-0.878 0.051 0 0.389-0.084 0.726-0.152 0.912zM30.009 11.238c0.811 0.98 1.064 2.601 0.794 3.935 0.676-0.135 1.284-0.388 1.638-0.76 0.118-0.135 0.236-0.304 0.304-0.473-0.068-1.334-0.642-2.669-1.858-3.057-0.203 0.203-0.574 0.304-0.878 0.355zM28.641 11.288c0.473 1.284 0.777 2.668 0.895 4.037 0.22 0 0.473-0.017 0.726-0.051 0.372-1.52-0.017-3.226-0.878-3.969-0.236 0-0.507 0-0.743-0.017zM4.861 10.461c-0.068-0.186-0.152-0.524-0.152-0.912 0-0.372-0.439-0.507-0.878-0.051-0.709 0.726-0.929 2.533-0.861 3.192 0.253-0.845 0.811-1.807 1.892-2.229zM5.215 15.173c-0.27-1.334-0.017-2.956 0.794-3.935-0.304-0.051-0.676-0.152-0.878-0.355-1.216 0.388-1.773 1.723-1.858 3.057 0.084 0.169 0.186 0.338 0.304 0.473 0.355 0.388 0.963 0.625 1.638 0.76zM7.799 11.356c-0.321 0.068-0.625 0.186-0.929 0.304l-0.76 0.321v-0.017c-0.456 0.878-0.625 2.145-0.338 3.31 0.287 0.034 0.54 0.051 0.794 0.051 0.152-1.385 0.574-2.736 1.233-3.969zM13.305 9.903c0 2.635 2.145 4.763 4.763 4.763s4.763-2.128 4.763-4.763c0-2.618-2.145-4.746-4.763-4.746s-4.763 2.128-4.763 4.746zM22.831 15.984c0.623 3.163 0.206 4.043 1.030 3.631 0.997-0.507 1.419-2.449 1.436-3.564-0.811-0.051-1.638-0.051-2.466-0.068zM18.355 15.95v-0.017c-0.017 0.321 0.017 2.381 0.27 2.567 0.692 0.338 2.466 0.287 3.192 0.068 0.338-0.101 0.152-2.314 0.101-2.618-1.182-0.017-2.381-0.017-3.564 0zM17.477 15.95v-0.017c-1.216 0.017-2.415 0.017-3.614 0.051-0.118 0.574-0.287 3.057 0.118 3.226 0.811 0.355 2.601 0.321 3.412 0.101 0.287-0.152 0.152-2.837 0.084-3.361zM12.123 19.547c0.338 0.152 0.54 0.152 0.608-0.27 0.118-0.54 0.152-2.297 0.304-3.26-0.76 0.017-1.537 0.051-2.297 0.101-0.338 1.233 0.017 2.821 1.385 3.429zM8.019 18.855c2.736 2.939 5.793 5.354 9.745 6.654 4.222-1.199 7.229-3.749 10.201-6.688-0.693-0.27-0.482-0.648-0.456-0.726-0.557-0.051-1.115-0.118-1.655-0.169-0.591 2.061-2.246 3.31-2.922 1.976-0.169-0.321-0.22-0.726-0.287-1.047-0.236 0.524-0.828 0.507-1.537 0.557-0.828 0.068-1.976 0.084-2.753-0.186-0.186 0.811-0.692 0.811-1.672 0.895-0.878 0.084-3.040 0.253-3.429-0.676-0.068 1.79-2.196 0.625-2.821-0.439-0.203-0.355-0.338-0.709-0.439-1.098-0.49 0.051-0.98 0.101-1.469 0.169 0.153 0.229 0.097 0.566-0.507 0.777zM7.225 28.347c-0.355-1.452-1.165-3.108-2.094-3.378-1.402-0.422-4.307 1.469-4.138 3.412 0.794 1.216 2.5 2.229 3.699 2.28 1.115 0.051 2.246-0.692 2.483-1.807 0.034-0.152 0.051-0.321 0.051-0.507zM7.681 27.975c2.094-1.216 4.324-2.229 6.621-2.939-2.415-1.284-4.256-2.989-6.080-4.814-0.135 0.084-0.321 0.152-0.49 0.22-0.102 0.307 0.545 0.333 0.338 0.777-0.135 0.253-0.54 0.473-0.946 0.574-0.135 0.169-0.321 0.304-0.49 0.405h-0.017c-0.017 0.844-0.017 1.689 0.017 2.533 0.559 0.998 0.964 2.082 1.047 3.243zM27.729 28.769c-2.297-1.334-4.628-2.584-7.229-3.31-0.861 0.388-1.74 0.709-2.635 0.963-0.135 0.051-0.135 0.051-0.27 0-0.743-0.236-1.452-0.507-2.179-0.828-2.517 0.726-4.83 1.824-7.026 3.175h-0.017v0.017c0.017 0 0.017 0 0.017-0.017 6.452 0.253 12.903 0.22 19.338 0zM29.418 24.766l-0.017 0.017c0.034-0.861 0.051-1.723 0.051-2.584-0.186-0.101-0.355-0.253-0.507-0.422-0.405-0.084-0.811-0.321-0.946-0.557-0.118-0.253 0.084-0.473 0.372-0.642-0.017-0.034-0.034-0.101-0.034-0.152-0.186-0.051-0.338-0.118-0.473-0.203-1.976 1.841-4.087 3.547-6.469 4.797 2.432 0.726 4.746 1.756 6.992 2.973 0.066-0.918 0.452-2.234 1.030-3.226zM30.87 24.969c-0.912 0.27-1.74 1.925-2.094 3.378 0 1.489 1.33 2.369 2.533 2.314 1.199-0.051 2.905-1.064 3.699-2.28 0.186-1.942-2.719-3.834-4.138-3.412zM18.169 8.383c0.003 0 0.006 0 0.008 0s0.006-0 0.009-0h-0.017zM18.169 14.43c1.79 0 3.243-1.351 3.243-3.023 0-2.256-2.532-3.63-4.509-2.77 0.591 0.186 1.030 0.726 1.030 1.351 0 1.454-2.081 1.997-2.905 0.709-0.456 2.129 1.211 3.733 3.141 3.733zM4.252 29.63c0.034 0.405 0.76 0.794 1.351 0.591 0.422-0.169 0.912-0.659 1.081-1.013 0.186-0.439-0.068-1.25-0.608-1.148-0.557 0.101-1.858 1.047-1.824 1.571zM29.924 28.059c-0.524-0.101-0.777 0.709-0.591 1.148 0.152 0.355 0.642 0.844 1.081 1.013 0.574 0.203 1.317-0.186 1.334-0.591 0.051-0.524-1.267-1.469-1.824-1.571z"></path>
</svg>
