<!-- Generated by IcoMoon.io -->
<svg version="1.1" xmlns="http://www.w3.org/2000/svg" width="32" height="32" viewBox="0 0 32 32">
<title>outbox</title>
<path d="M4 16.667v10.667c0 1.104 0.449 2.107 1.172 2.828s1.724 1.172 2.828 1.172h16c1.104 0 2.107-0.449 2.828-1.172s1.172-1.724 1.172-2.828v-10.667c0-0.736-0.597-1.333-1.333-1.333s-1.333 0.597-1.333 1.333v10.667c0 0.368-0.148 0.7-0.391 0.943s-0.575 0.391-0.943 0.391h-16c-0.368 0-0.7-0.148-0.943-0.391s-0.391-0.575-0.391-0.943v-10.667c0-0.736-0.597-1.333-1.333-1.333s-1.333 0.597-1.333 1.333zM14.667 6.552v14.115c0 0.736 0.597 1.333 1.333 1.333s1.333-0.597 1.333-1.333v-14.115l3.057 3.057c0.521 0.521 1.365 0.521 1.885 0s0.521-1.365 0-1.885l-5.333-5.333c-0.123-0.123-0.269-0.221-0.432-0.289-0.327-0.135-0.695-0.135-1.021 0-0.157 0.065-0.304 0.161-0.432 0.289l-5.333 5.333c-0.521 0.521-0.521 1.365 0 1.885s1.365 0.521 1.885 0z"></path>
</svg>
