<!-- Generated by IcoMoon.io -->
<svg version="1.1" xmlns="http://www.w3.org/2000/svg" width="28" height="32" viewBox="0 0 28 32">
<title>outdent</title>
<path d="M0 5.25v-2.5c0-0.552 0.448-1 1-1h26c0.552 0 1 0.448 1 1v2.5c0 0.552-0.448 1-1 1h-26c-0.552 0-1-0.448-1-1zM13 14.25h14c0.552 0 1-0.448 1-1v-2.5c0-0.552-0.448-1-1-1h-14c-0.552 0-1 0.448-1 1v2.5c0 0.552 0.448 1 1 1zM1 30.25h26c0.552 0 1-0.448 1-1v-2.5c0-0.552-0.448-1-1-1h-26c-0.552 0-1 0.448-1 1v2.5c0 0.552 0.448 1 1 1zM13 22.25h14c0.552 0 1-0.448 1-1v-2.5c0-0.552-0.448-1-1-1h-14c-0.552 0-1 0.448-1 1v2.5c0 0.552 0.448 1 1 1zM0.293 16.707l6 5.999c0.628 0.628 1.707 0.183 1.707-0.707v-11.998c0-0.896-1.083-1.332-1.707-0.707l-6 6c-0.391 0.39-0.391 1.024 0 1.414z"></path>
</svg>
