<!-- Generated by IcoMoon.io -->
<svg version="1.1" xmlns="http://www.w3.org/2000/svg" width="32" height="32" viewBox="0 0 32 32">
<title>paper-plane1</title>
<path d="M27.5 0.406l-26 14.994c-2.15 1.244-1.944 4.425 0.356 5.369l7.144 2.956v5.275c0 2.9 3.7 4.094 5.412 1.788l2.737-3.694 6.994 2.887c0.369 0.15 0.756 0.225 1.144 0.225 0.512 0 1.019-0.131 1.475-0.387 0.8-0.45 1.35-1.25 1.494-2.156l3.712-24.2c0.381-2.506-2.306-4.3-4.469-3.056zM12 29v-4.038l2.287 0.944-2.287 3.094zM25.288 27.206l-9.613-3.969 8.762-12.644c0.669-0.969-0.594-2.094-1.481-1.325l-13.219 11.519-6.737-2.788 26-15-3.712 24.206z"></path>
</svg>
