<!-- Generated by IcoMoon.io -->
<svg version="1.1" xmlns="http://www.w3.org/2000/svg" width="32" height="32" viewBox="0 0 32 32">
<title>paper-clip1</title>
<path d="M27.644 14.457l-12.253 12.253c-1.303 1.303-3.008 1.953-4.717 1.953s-3.415-0.651-4.717-1.953-1.953-3.008-1.953-4.717 0.651-3.415 1.953-4.717l12.253-12.253c0.781-0.781 1.804-1.172 2.831-1.172s2.048 0.391 2.831 1.172 1.172 1.804 1.172 2.831-0.391 2.048-1.172 2.831l-12.267 12.253c-0.261 0.261-0.601 0.392-0.944 0.392s-0.683-0.131-0.944-0.391-0.391-0.6-0.391-0.944 0.131-0.683 0.391-0.944l11.32-11.307c0.521-0.52 0.521-1.364 0.001-1.885s-1.364-0.521-1.885-0.001l-11.32 11.307c-0.781 0.781-1.172 1.808-1.172 2.829s0.391 2.048 1.172 2.829 1.808 1.172 2.829 1.172 2.048-0.391 2.829-1.172l12.267-12.253c1.303-1.303 1.953-3.011 1.953-4.716s-0.652-3.415-1.953-4.716-3.011-1.953-4.716-1.953-3.415 0.652-4.716 1.953l-12.253 12.253c-1.823 1.823-2.735 4.215-2.735 6.603s0.912 4.78 2.735 6.603 4.215 2.735 6.603 2.735 4.78-0.912 6.603-2.735l12.253-12.253c0.521-0.521 0.521-1.365 0-1.885s-1.365-0.521-1.885 0z"></path>
</svg>
