<!-- Generated by IcoMoon.io -->
<svg version="1.1" xmlns="http://www.w3.org/2000/svg" width="32" height="32" viewBox="0 0 32 32">
<title>paw</title>
<path d="M5.327 20.685c-3.077 0-5.327-3.573-5.327-6.216 0-1.768 1-3.628 3.096-3.628 3.077 0 5.327 3.591 5.327 6.234 0 1.768-0.981 3.609-3.096 3.609zM27.077 27.32c0 2.315-2 2.68-3.962 2.68-2.577 0-4.654-1.641-7.115-1.641-2.577 0-4.769 1.622-7.558 1.622-1.865 0-3.519-0.602-3.519-2.661 0-4.32 6.365-10.737 11.077-10.737s11.077 6.435 11.077 10.737zM11.404 12.737c-3.115 0-5-3.719-5-6.271 0-2.042 1.115-4.466 3.596-4.466 3.135 0 5 3.719 5 6.271 0 2.042-1.115 4.466-3.596 4.466zM17 8.271c0-2.552 1.865-6.271 5-6.271 2.481 0 3.596 2.425 3.596 4.466 0 2.552-1.885 6.271-5 6.271-2.481 0-3.596-2.424-3.596-4.466zM32 14.469c0 2.643-2.25 6.216-5.327 6.216-2.115 0-3.096-1.841-3.096-3.609 0-2.643 2.25-6.234 5.327-6.234 2.096 0 3.096 1.859 3.096 3.628z"></path>
</svg>
