<!-- Generated by IcoMoon.io -->
<svg version="1.1" xmlns="http://www.w3.org/2000/svg" width="31" height="32" viewBox="0 0 31 32">
<title>paypal1</title>
<path d="M0 27.445l6.208-28.512h14.016q1.6 0 3.104 0.576t2.688 1.76 1.696 3.040-0.032 4.32q-0.928 4.352-4.096 6.848t-7.488 2.496h-5.856l-2.016 9.472h-8.224zM3.2 30.933h8.224l2.016-9.44h5.888q4.288 0 7.456-2.496t4.128-6.848q0.896-4.32-1.376-7.008 1.056 2.368 0.384 5.44-0.928 4.352-4.096 6.848t-7.488 2.496h-5.856l-2.016 9.44h-6.912zM11.424 12.533h2.656l1.344-5.856h4q0.064 0 0.544 0.096-0.256-0.928-0.992-1.504t-1.792-0.544h-4zM15.424 12.501q1.536-0.064 2.88-1.184t1.664-2.688q0-0.064 0.032-0.192t0.032-0.192h-3.648z"></path>
</svg>
