<!-- Generated by IcoMoon.io -->
<svg version="1.1" xmlns="http://www.w3.org/2000/svg" width="32" height="32" viewBox="0 0 32 32">
<title>percent1</title>
<path d="M24.391 6.391l-18.667 18.667c-0.521 0.521-0.521 1.365 0 1.885s1.365 0.521 1.885 0l18.667-18.667c0.521-0.521 0.521-1.365 0-1.885s-1.365-0.521-1.885 0zM13.333 9.333c0-1.288-0.524-2.457-1.367-3.3s-2.012-1.367-3.3-1.367-2.457 0.524-3.3 1.367-1.367 2.012-1.367 3.3 0.524 2.457 1.367 3.3 2.012 1.367 3.3 1.367 2.457-0.524 3.3-1.367 1.367-2.012 1.367-3.3zM10.667 9.333c0 0.552-0.223 1.051-0.585 1.415s-0.863 0.585-1.415 0.585-1.051-0.223-1.415-0.585-0.585-0.863-0.585-1.415 0.223-1.051 0.585-1.415 0.863-0.585 1.415-0.585 1.051 0.223 1.415 0.585 0.585 0.863 0.585 1.415zM28 24c0-1.288-0.524-2.457-1.367-3.3s-2.012-1.367-3.3-1.367-2.457 0.524-3.3 1.367-1.367 2.012-1.367 3.3 0.524 2.457 1.367 3.3 2.012 1.367 3.3 1.367 2.457-0.524 3.3-1.367 1.367-2.012 1.367-3.3zM25.333 24c0 0.552-0.223 1.051-0.585 1.415s-0.863 0.585-1.415 0.585-1.051-0.223-1.415-0.585-0.585-0.863-0.585-1.415 0.223-1.051 0.585-1.415 0.863-0.585 1.415-0.585 1.051 0.223 1.415 0.585 0.585 0.863 0.585 1.415z"></path>
</svg>
