<!-- Generated by IcoMoon.io -->
<svg version="1.1" xmlns="http://www.w3.org/2000/svg" width="32" height="32" viewBox="0 0 32 32">
<title>phoenix-squadron</title>
<path d="M6.015 3.926c2.917-2.265 6.619-3.515 10.315-3.421 1.854-0.024 3.706 0.336 5.448 0.961-1.512-0.29-3.074-0.397-4.6-0.153-2.688 0.334-5.204 1.702-7.010 3.709 0.356-0.062 0.676-0.23 1.004-0.367 1.137-0.493 2.35-0.831 3.588-0.929 1.238-0.134 2.484-0.027 3.716 0.121-0.904 0.174-1.825 0.286-2.694 0.601-2.158 0.694-4.091 2.079-5.409 3.926-0.865 1.236-1.481 2.687-1.546 4.208-0.022 1.034 0.327 2.182 1.243 2.761 0.696 0.416 1.553 0.587 2.352 0.422 0.968-0.154 1.885-0.542 2.733-1.024 0.722-0.428 1.421-0.912 2.003-1.52 0.238-0.202 0.159-0.53 0.164-0.802-0.133-0.021-0.275-0.069-0.395 0.019-0.637 0.358-1.38 0.684-2.155 0.938l-0.090 0.026c-1.254 0.387-2.643 0.53-3.893 0.049 0.802 0.108 1.634 0.019 2.366-0.341 1.268-0.609 2.308-1.579 3.413-2.43 1.74-1.331 3.602-2.507 5.573-3.467 1.611-0.751 3.318-1.428 5.113-1.513-0.98 0.86-2.016 1.663-2.933 2.594-0.909 0.877-1.721 1.849-2.514 2.832-0.221 0.288-0.561 0.435-0.851 0.637-1.39 0.939-2.538 2.248-3.253 3.768-0.585 1.234-0.909 2.623-0.738 3.99 0.122 0.858 0.546 1.729 1.31 2.188 0.809 0.499 1.821 0.506 2.726 0.319 2.056-0.467 3.851-1.811 5.080-3.5 1.281-1.725 1.913-3.899 1.828-6.040-0.032-0.47-0.099-0.938-0.104-1.409 0.501 1.221 0.929 2.489 1.044 3.813 0.126 0.895 0.047 1.802-0.101 2.689-0.12 0.689-0.356 1.349-0.488 2.033 1.273-1.421 2.136-3.203 2.466-5.082 0.358-2.211 0.036-4.523-0.891-6.559 1.302 2.007 2.027 4.362 2.238 6.737 0.031 0.798 0.031 1.599 0 2.396-0.182 2.141-0.811 4.247-1.86 6.125-1.637 2.968-4.262 5.368-7.346 6.77-4.907 2.271-10.95 1.963-15.545-0.92-2.428-1.486-4.441-3.645-5.73-6.185-0.92-1.806-1.462-3.801-1.59-5.824v-1.964c0.246-4.373 2.562-8.52 6.015-11.181zM19.931 8.961c0.344-0.050 0.676-0.161 1.001-0.281 0.312-0.111 0.579-0.372 0.647-0.703-0.557 0.313-1.122 0.622-1.648 0.984z"></path>
</svg>
