<!-- Generated by IcoMoon.io -->
<svg version="1.1" xmlns="http://www.w3.org/2000/svg" width="32" height="32" viewBox="0 0 32 32">
<title>pie-graph</title>
<path d="M27.052 21.335c-1.291 3.052-3.695 5.291-6.541 6.447s-6.132 1.223-9.184-0.068-5.291-3.695-6.447-6.541-1.224-6.133 0.067-9.185c1.248-2.952 3.536-5.141 6.252-6.324 0.675-0.295 0.984-1.080 0.691-1.755s-1.080-0.984-1.755-0.691c-3.319 1.445-6.119 4.125-7.644 7.731-1.577 3.731-1.492 7.749-0.083 11.225s4.149 6.419 7.879 7.996 7.749 1.492 11.225 0.083 6.419-4.149 7.996-7.879c0.287-0.679-0.031-1.46-0.709-1.748s-1.46 0.031-1.748 0.709zM27.927 15.333h-10.593v-10.593c2.781 0.307 5.275 1.564 7.152 3.441s3.135 4.371 3.441 7.152zM30.667 16.667c0-4.049-1.643-7.719-4.296-10.371s-6.321-4.296-10.371-4.296c-0.736 0-1.333 0.597-1.333 1.333v13.333c0 0.736 0.597 1.333 1.333 1.333h13.333c0.736 0 1.333-0.597 1.333-1.333z"></path>
</svg>
