<!-- Generated by IcoMoon.io -->
<svg version="1.1" xmlns="http://www.w3.org/2000/svg" width="25" height="32" viewBox="0 0 25 32">
<title>pinterest1</title>
<path d="M0 10.421q0-2.016 0.864-4t2.432-3.68 4.16-2.752 5.696-1.056q5.088 0 8.352 3.136t3.264 7.392q0 5.472-2.752 9.024t-7.168 3.584q-1.44 0-2.688-0.672t-1.792-1.632l-1.28 5.056q-0.16 0.608-0.416 1.216t-0.544 1.216-0.608 1.088-0.608 0.96-0.544 0.768-0.416 0.512l-0.192 0.256q-0.096 0.128-0.256 0.096t-0.192-0.192q0-0.032-0.032-0.448t-0.096-0.864-0.096-1.216-0.032-1.408 0.096-1.536 0.224-1.536q0.352-1.504 2.368-10.016-0.256-0.512-0.416-1.248t-0.16-1.152l-0.032-0.48q0-2.048 1.056-3.424t2.496-1.344q1.184 0 1.856 0.768t0.64 1.984q0 0.736-0.256 1.792t-0.736 2.464-0.64 2.272q-0.32 1.44 0.576 2.496t2.336 1.056q2.528 0 4.192-2.88t1.632-6.912q0-3.104-2.016-5.088t-5.632-1.952q-4.032 0-6.528 2.592t-2.528 6.208q0 2.144 1.216 3.616 0.416 0.48 0.256 1.024-0.064 0.16-0.192 0.736t-0.192 0.736q-0.064 0.352-0.32 0.448t-0.576 0q-1.888-0.768-2.816-2.656t-0.96-4.352z"></path>
</svg>
