<!-- Generated by IcoMoon.io -->
<svg version="1.1" xmlns="http://www.w3.org/2000/svg" width="34" height="32" viewBox="0 0 34 32">
<title>plancast</title>
<path d="M0 18.549q0.32-4.448 5.376-5.536 0.384-2.848 1.376-6.144t2.272-4.672q1.536-1.568 3.84-2.432t4.672-0.832q2.752 0 5.248 1.248t3.744 3.52q0.608 1.152 1.344 4.16t0.96 4.96q0.48 0.192 1.088 0.192 0.96 0 0.96-0.928 0-0.352-0.192-1.088t-0.16-1.12v-0.128h0.032q0.864 0 1.952 1.632 1.088 1.664 1.088 2.592 0 0.64-0.288 1.12t-0.608 0.8-1.056 0.544-1.056 0.352l-1.152 0.256q-0.16 0.032-0.256 0.064v0.832q0 5.536-2.464 8.096l0.8 0.8q0.128 0.064 0.8 0.384t1.152 0.576 0.576 0.576q-2.080 1.632-4.224 1.632-1.088 0-2.4-0.544-2.816 1.184-5.76 1.184-3.776 0-7.488-1.952-1.152 0.256-1.76 0.608-0.224 0.128-0.832 0.576t-1.184 0.768-0.896 0.288q-0.096-0.576-0.096-1.184 0-2.528 1.696-4.032-1.92-3.168-1.984-8.224l-0.224-0.032h-0.096q-0.96-0.032-2.432 0.544-1.536 0.576-2.048 0.608-0.128 0-0.32-0.064zM7.424 21.525q0 0.416 0.224 0.864 0.864 3.072 2.848 4.416 1.376 0.928 3.392 1.504t3.744 0.544q2.112 0 4.672-0.896t3.808-2.304q2.176-2.336 2.176-8.224 0-7.232-2.944-12.128-0.384-0.64-0.544-0.896t-0.608-0.48-1.056-0.256q-1.6 0-3.424 1.952-2.432-1.504-4.48-1.504-1.888 0-3.328 1.376t-2.272 3.328-1.344 4.512-0.704 4.512-0.16 3.68zM13.216 8.501q0-0.704 0.512-1.216t1.152-0.48q0.704 0 1.216 0.48t0.48 1.216-0.48 1.184-1.216 0.48q-0.672 0-1.152-0.48t-0.512-1.184zM15.008 7.925q0 0.384 0.384 0.384 0.16 0 0.288-0.128t0.096-0.256-0.096-0.288-0.288-0.128q-0.384 0-0.384 0.416zM18.016 9.845l0.064-0.064-0.032 0.096zM18.176 9.685l1.664-1.664 1.632 1.664q-0.704 0.224-1.6 0.224-0.928 0-1.696-0.224zM18.24 10.389q0.864 0.16 1.6 0.16 0.704 0 1.568-0.16l-1.568 1.568zM21.6 9.877v-0.096l0.032 0.064zM22.464 8.501q0-0.704 0.512-1.216t1.184-0.48 1.216 0.48 0.48 1.216-0.48 1.184-1.216 0.48-1.184-0.48-0.512-1.184zM24.256 7.925q0 0.16 0.128 0.256t0.256 0.128q0.16 0 0.288-0.128t0.128-0.256q0-0.416-0.416-0.416-0.16 0-0.256 0.128t-0.128 0.288z"></path>
</svg>
