<!-- Generated by IcoMoon.io -->
<svg version="1.1" xmlns="http://www.w3.org/2000/svg" width="32" height="32" viewBox="0 0 32 32">
<title>play-circle3</title>
<path d="M30.667 16.667c0-4.049-1.643-7.719-4.296-10.371s-6.321-4.296-10.371-4.296-7.719 1.643-10.371 4.296-4.296 6.321-4.296 10.371 1.643 7.719 4.296 10.371 6.321 4.296 10.371 4.296 7.719-1.643 10.371-4.296 4.296-6.321 4.296-10.371zM28 16.667c0 3.315-1.341 6.312-3.515 8.485s-5.171 3.515-8.485 3.515-6.312-1.341-8.485-3.515-3.515-5.171-3.515-8.485 1.341-6.312 3.515-8.485 5.171-3.515 8.485-3.515 6.312 1.341 8.485 3.515 3.515 5.171 3.515 8.485zM14.073 10.224c-0.208-0.14-0.464-0.224-0.74-0.224-0.736 0-1.333 0.597-1.333 1.333v10.667c-0.001 0.251 0.071 0.511 0.224 0.74 0.408 0.613 1.236 0.779 1.849 0.369l8-5.333c0.137-0.091 0.267-0.216 0.369-0.369 0.408-0.613 0.243-1.44-0.369-1.849zM14.667 13.825l4.263 2.841-4.263 2.841z"></path>
</svg>
