<!-- Generated by IcoMoon.io -->
<svg version="1.1" xmlns="http://www.w3.org/2000/svg" width="32" height="32" viewBox="0 0 32 32">
<title>play-circle1</title>
<path d="M23.231 14.875l-11-6.688c-0.988-0.55-2.231 0.156-2.231 1.313v13c0 1.15 1.238 1.863 2.231 1.313l11-6.313c1.025-0.569 1.025-2.050 0-2.625zM31.5 16c0-8.563-6.938-15.5-15.5-15.5s-15.5 6.938-15.5 15.5 6.938 15.5 15.5 15.5 15.5-6.938 15.5-15.5zM3.5 16c0-6.906 5.594-12.5 12.5-12.5s12.5 5.594 12.5 12.5-5.594 12.5-12.5 12.5-12.5-5.594-12.5-12.5z"></path>
</svg>
