<!-- Generated by IcoMoon.io -->
<svg version="1.1" xmlns="http://www.w3.org/2000/svg" width="28" height="32" viewBox="0 0 28 32">
<title>plus-square1</title>
<path d="M22 15v2c0 0.413-0.337 0.75-0.75 0.75h-5.5v5.5c0 0.413-0.338 0.75-0.75 0.75h-2c-0.412 0-0.75-0.337-0.75-0.75v-5.5h-5.5c-0.412 0-0.75-0.337-0.75-0.75v-2c0-0.412 0.338-0.75 0.75-0.75h5.5v-5.5c0-0.412 0.338-0.75 0.75-0.75h2c0.412 0 0.75 0.338 0.75 0.75v5.5h5.5c0.413 0 0.75 0.338 0.75 0.75zM28 5v22c0 1.656-1.344 3-3 3h-22c-1.656 0-3-1.344-3-3v-22c0-1.656 1.344-3 3-3h22c1.656 0 3 1.344 3 3zM25 26.625v-21.25c0-0.206-0.169-0.375-0.375-0.375h-21.25c-0.206 0-0.375 0.169-0.375 0.375v21.25c0 0.206 0.169 0.375 0.375 0.375h21.25c0.206 0 0.375-0.169 0.375-0.375z"></path>
</svg>
