<!-- Generated by IcoMoon.io -->
<svg version="1.1" xmlns="http://www.w3.org/2000/svg" width="36" height="32" viewBox="0 0 36 32">
<title>pocket</title>
<path d="M0.064 9.493q-0.224-6.88 0.384-8.64 0.128-0.288 0.288-0.512t0.448-0.384 0.448-0.32 0.544-0.32 0.544-0.256q4.352 0 12.352-0.064t10.528-0.064h3.008t1.76 0 1.792 0.096 1.44 0.192 1.056 0.32q0.512 0.288 0.864 0.768t0.512 0.928 0.256 1.28 0.064 1.344-0.032 1.6 0 1.6q0 6.624-0.736 10.464t-3.072 6.816q-2.24 2.816-5.28 4.48t-6.176 1.984-6.4-0.352-5.952-2.336-4.832-4.288-3.072-5.792q-0.48-1.664-0.736-8.544zM7.488 9.429q-0.832 0.896 0.48 2.848t3.328 3.968q0.064 0.064 1.248 1.28t1.728 1.664 1.504 1.12 1.824 0.928q0.352 0.096 0.704 0.096t0.64-0.032 0.608-0.224 0.512-0.224 0.512-0.384 0.384-0.32 0.384-0.352l0.096-0.096q0.288-0.288 1.92-1.792t2.752-2.592 2.176-2.528 1.12-2.4q-0.48-1.28-1.216-1.792t-1.632-0.288-1.792 0.832-1.888 1.536-1.792 1.792-1.568 1.632-1.184 1.056q-0.864-0.512-2.336-1.92t-2.624-2.624-2.336-2.048-1.76-0.448q-0.8 0.48-1.792 1.312z"></path>
</svg>
