<!-- Generated by IcoMoon.io -->
<svg version="1.1" xmlns="http://www.w3.org/2000/svg" width="32" height="32" viewBox="0 0 32 32">
<title>podcast1</title>
<path d="M0 15.541q0-4.512 2.144-8.352t5.824-6.048 8.032-2.208 8.032 2.208 5.824 6.048 2.144 8.352q0 0.128 0 0.32t-0.032 0.32q-0.256-6.656-4.864-11.296t-11.104-4.64-11.072 4.64-4.896 11.296q0-0.128 0-0.32t-0.032-0.32zM5.856 15.509q0-4.352 2.976-7.456t7.168-3.072 7.168 3.072 2.976 7.456q0 0.096 0 0.32t-0.032 0.32q-0.256-4.128-3.168-7.008t-6.944-2.88-6.944 2.88-3.168 7.008q0-0.096 0-0.32t-0.032-0.32zM11.168 21.749q0-1.056 0.16-1.888t0.32-1.376 0.608-0.928 0.736-0.576 0.896-0.32 0.992-0.128 1.12 0 1.12 0 0.992 0.128 0.928 0.32 0.736 0.576 0.576 0.928 0.352 1.376 0.128 1.888q0 3.776-1.408 6.496t-3.424 2.688-3.392-2.688-1.44-6.496zM12.672 12.789q0-1.408 0.992-2.432t2.336-1.024 2.368 1.024 0.96 2.432-0.96 2.432-2.368 1.024-2.336-1.024-0.992-2.432z"></path>
</svg>
