<!-- Generated by IcoMoon.io -->
<svg version="1.1" xmlns="http://www.w3.org/2000/svg" width="21" height="32" viewBox="0 0 21 32">
<title>posterous</title>
<path d="M0-0.587h3.2l0.256 3.872h0.32l0.16-0.096q2.528-4.256 7.872-4.256 4.16 0 6.816 3.136t2.624 8.128q0 2.976-0.864 5.312t-2.304 3.776-3.232 2.144-3.744 0.736q-2.208 0-4-0.928t-2.784-2.528l-0.064-0.096h-0.352l-0.096 0.224v12.096h-3.616v-24.352q0-2.816-0.192-7.168zM3.808 12.629q0 0.992 0.192 1.76 0.608 2.24 2.368 3.616t4.032 1.376q3.232 0 5.184-2.464t1.952-6.528q0-3.808-1.952-6.208t-5.024-2.4q-2.304 0-4.096 1.44t-2.368 3.776q-0.288 1.056-0.288 1.696v3.936z"></path>
</svg>
