<!-- Generated by IcoMoon.io -->
<svg version="1.1" xmlns="http://www.w3.org/2000/svg" width="25" height="32" viewBox="0 0 25 32">
<title>qrcode1</title>
<path d="M6.857 20.19v2.286h-2.286v-2.286h2.286zM6.857 6.476v2.286h-2.286v-2.286h2.286zM20.571 6.476v2.286h-2.286v-2.286h2.286zM2.286 24.744h6.857v-6.839h-6.857v6.839zM2.286 11.048h6.857v-6.857h-6.857v6.857zM16 11.048h6.857v-6.857h-6.857v6.857zM11.429 15.619v11.429h-11.429v-11.429h11.429zM20.571 24.762v2.286h-2.286v-2.286h2.286zM25.143 24.762v2.286h-2.286v-2.286h2.286zM25.143 15.619v6.857h-6.857v-2.286h-2.286v6.857h-2.286v-11.429h6.857v2.286h2.286v-2.286h2.286zM11.429 1.905v11.429h-11.429v-11.429h11.429zM25.143 1.905v11.429h-11.429v-11.429h11.429z"></path>
</svg>
