<!-- Generated by IcoMoon.io -->
<svg version="1.1" xmlns="http://www.w3.org/2000/svg" width="32" height="32" viewBox="0 0 32 32">
<title>question-circle1</title>
<path d="M16 0.5c-8.56 0-15.5 6.943-15.5 15.5 0 8.562 6.94 15.5 15.5 15.5s15.5-6.938 15.5-15.5c0-8.557-6.94-15.5-15.5-15.5zM16 28.5c-6.908 0-12.5-5.589-12.5-12.5 0-6.906 5.592-12.5 12.5-12.5 6.906 0 12.5 5.592 12.5 12.5s-5.589 12.5-12.5 12.5zM22.703 12.55c0 4.191-4.526 4.255-4.526 5.804v0.396c0 0.414-0.336 0.75-0.75 0.75h-2.853c-0.414 0-0.75-0.336-0.75-0.75v-0.541c0-2.234 1.694-3.127 2.974-3.845 1.098-0.615 1.77-1.034 1.77-1.849 0-1.078-1.375-1.793-2.486-1.793-1.449 0-2.118 0.686-3.059 1.873-0.254 0.32-0.716 0.379-1.042 0.133l-1.739-1.319c-0.319-0.242-0.391-0.692-0.165-1.023 1.477-2.168 3.358-3.387 6.286-3.387 3.067 0 6.341 2.394 6.341 5.55zM18.625 23c0 1.447-1.178 2.625-2.625 2.625s-2.625-1.178-2.625-2.625 1.178-2.625 2.625-2.625 2.625 1.178 2.625 2.625z"></path>
</svg>
