<!-- Generated by IcoMoon.io -->
<svg version="1.1" xmlns="http://www.w3.org/2000/svg" width="31" height="32" viewBox="0 0 31 32">
<title>quinscape</title>
<path d="M18.869 29.663h-0.081c-5.456 0-9.881-4.425-9.881-9.881s4.425-9.881 9.881-9.881c5.931 0 10.512 5.194 9.813 11.037 0.25 0.319 0.512 0.6 0.7 0.956 0.837-1.894 1.269-3.9 1.269-6.106 0-8.444-6.844-15.287-15.287-15.287-8.438 0-15.281 6.844-15.281 15.287s6.844 15.288 15.281 15.288c1.55 0 2.987-0.2 4.4-0.631-0.325-0.219-0.563-0.512-0.837-0.788l0.025 0.006zM17.544 25.3c0-3.425 2.775-6.2 6.2-6.2s6.2 2.775 6.2 6.2c0 3.425-2.775 6.2-6.2 6.2s-6.2-2.775-6.2-6.2z"></path>
</svg>
