<!-- Generated by IcoMoon.io -->
<svg version="1.1" xmlns="http://www.w3.org/2000/svg" width="28" height="32" viewBox="0 0 28 32">
<title>quora1</title>
<path d="M0 13.365q0-3.904 1.92-7.232t5.152-5.28 7.136-1.92q5.888 0 10.080 4.224t4.16 10.208q0 3.808-1.824 7.040t-4.928 5.216q0.032 0.064 0.128 0.192t0.352 0.544 0.672 0.704 1.056 0.672 1.44 0.544v2.432q-1.152 0.224-2.144 0.224-1.6 0-2.72-0.576-1.792-0.928-2.912-3.008-1.536 0.416-3.36 0.416-3.84 0-7.104-1.952t-5.184-5.248-1.92-7.2zM7.072 15.253q0 3.712 2.144 6.336t5.12 2.656q0.832 0 1.664-0.256-0.064-0.096-0.16-0.288t-0.48-0.576-0.736-0.768-0.992-0.608-1.184-0.32v-2.816q0.32-0.032 0.64-0.032 3.808 0 6.496 2.88 2.016-2.592 2.016-6.208v-3.712q0-3.712-2.112-6.368t-5.152-2.624-5.12 2.624-2.144 6.368v3.712z"></path>
</svg>
