<!-- Generated by IcoMoon.io -->
<svg version="1.1" xmlns="http://www.w3.org/2000/svg" width="32" height="32" viewBox="0 0 32 32">
<title>redo</title>
<path d="M31.271 0h-2.963c-0.428 0-0.77 0.358-0.749 0.786l0.248 5.172c-2.843-3.34-7.077-5.458-11.806-5.458-8.541 0-15.506 6.97-15.5 15.512 0.006 8.555 6.944 15.488 15.5 15.488 3.995 0 7.638-1.512 10.386-3.994 0.32-0.289 0.335-0.785 0.030-1.090l-2.123-2.123c-0.279-0.279-0.727-0.295-1.024-0.034-1.938 1.706-4.481 2.741-7.269 2.741-6.079 0-11-4.92-11-11 0-6.079 4.92-11 11-11 3.806 0 7.157 1.929 9.131 4.863l-6.345-0.304c-0.428-0.021-0.786 0.321-0.786 0.749v2.963c0 0.414 0.336 0.75 0.75 0.75h12.521c0.414 0 0.75-0.336 0.75-0.75v-12.521c0-0.414-0.336-0.75-0.75-0.75z"></path>
</svg>
