<!-- Generated by IcoMoon.io -->
<svg version="1.1" xmlns="http://www.w3.org/2000/svg" width="32" height="32" viewBox="0 0 32 32">
<title>registered1</title>
<path d="M16 0.5c-8.56 0-15.5 6.94-15.5 15.5s6.94 15.5 15.5 15.5 15.5-6.94 15.5-15.5-6.94-15.5-15.5-15.5zM16 28.5c-6.908 0-12.5-5.591-12.5-12.5 0-6.908 5.591-12.5 12.5-12.5 6.908 0 12.5 5.591 12.5 12.5 0 6.908-5.591 12.5-12.5 12.5zM22.903 23.388c-3.315-6.018-3.141-5.717-3.329-6.005 1.517-0.867 2.468-2.598 2.468-4.573 0-3.281-1.89-5.328-6.344-5.328h-4.917c-0.414 0-0.75 0.336-0.75 0.75v15.519c0 0.414 0.336 0.75 0.75 0.75h2.411c0.414 0 0.75-0.336 0.75-0.75v-5.229h1.997l2.97 5.581c0.128 0.238 0.376 0.398 0.661 0.398 0 0 0.001 0 0.001 0h2.676c0.571 0 0.932-0.612 0.657-1.112zM16.058 14.994h-2.117v-4.009h1.711c2.026 0 2.433 0.758 2.433 1.982-0 1.307-0.72 2.027-2.027 2.027z"></path>
</svg>
