<!-- Generated by IcoMoon.io -->
<svg version="1.1" xmlns="http://www.w3.org/2000/svg" width="31" height="32" viewBox="0 0 31 32">
<title>rendact</title>
<path d="M15.5 0.5c-8.563 0-15.5 6.938-15.5 15.5s6.938 15.5 15.5 15.5c1.163 0 2.294-0.131 3.381-0.369-0.35-0.462-0.675-0.9-0.994-1.331-0.775 0.131-1.575 0.206-2.394 0.206-7.725-0.006-13.994-6.275-13.994-14.006s6.269-14 14-14 14 6.269 14 14c0 4.438-2.063 8.387-5.281 10.956-1.619 1.175-2.444 1.337-5.219-2.762-4.919-7.056-3-4.444-4.606-6.769 4.55 0.556 14.281-4.5 10.537-10.537-5.306-8.563-23.994-1.025-21.2 7.263 0.2 0.613 0.9 2.413 2.85 2.413 0.125 0 0.162-0.038 0.125-0.106-0.275-0.544-1.256-0.613-1.256-2.338 0-2.531 2.531-5.6 6.269-7.5 4.131-2.019 8.244-1.888 9.887 0.338 1.7 2.394-1.306 7.45-7.525 8.556 0.469-0.588 3.562-4.7 3.925-5.25 1.419-2.162 1.475-3.063 0.875-3.7-0.969-1.056-1.844-0.644-3.169-0.731-0.675-0.056-7.106 11.325-8.525 13.556-0.369 0.563-1.325 2.131-1.325 3.181 0 1.331 0.175 3.212 1.288 3.212 0.662 0 0.5-1.169 0.5-1.663 0-0.806 1.713-3.087 4.675-6.538 1.275 2.256 3.606 7.144 8.137 13.106 6.125-2.069 10.531-7.863 10.531-14.688 0.006-8.563-6.931-15.5-15.494-15.5z"></path>
</svg>
