<!-- Generated by IcoMoon.io -->
<svg version="1.1" xmlns="http://www.w3.org/2000/svg" width="26" height="32" viewBox="0 0 26 32">
<title>rev</title>
<path d="M16.917 17.181c0 2.26-1.838 4.098-4.098 4.098s-4.098-1.838-4.098-4.098 1.838-4.098 4.098-4.098 4.098 1.838 4.098 4.098zM25.639 16.865h-0.008c-0.093-3.847-1.881-7.272-4.645-9.561l-2.836 1.637c2.698 1.752 4.488 4.789 4.488 8.239 0 5.414-4.404 9.818-9.818 9.818s-9.818-4.404-9.818-9.818c0-5.116 3.935-9.329 8.937-9.777v2.445l6.797-3.924-6.797-3.924v2.395c-6.669 0.453-11.938 6.003-11.938 12.786 0 6.974 5.57 12.643 12.504 12.811v0.008h13.135v-13.135z"></path>
</svg>
