<!-- Generated by IcoMoon.io -->
<svg version="1.1" xmlns="http://www.w3.org/2000/svg" width="40" height="32" viewBox="0 0 40 32">
<title>robot</title>
<path d="M0 16v8c0 1.106 0.894 2 2 2h2v-12h-2c-1.106 0-2 0.894-2 2zM29 6h-7v-4c0-1.106-0.894-2-2-2s-2 0.894-2 2v4h-7c-2.762 0-5 2.238-5 5v17c0 2.206 1.794 4 4 4h20c2.206 0 4-1.794 4-4v-17c0-2.762-2.238-5-5-5zM16 26h-4v-2h4v2zM14 18.5c-1.381 0-2.5-1.119-2.5-2.5s1.119-2.5 2.5-2.5 2.5 1.119 2.5 2.5-1.119 2.5-2.5 2.5zM22 26h-4v-2h4v2zM28 26h-4v-2h4v2zM26 18.5c-1.381 0-2.5-1.119-2.5-2.5s1.119-2.5 2.5-2.5 2.5 1.119 2.5 2.5-1.119 2.5-2.5 2.5zM38 14h-2v12h2c1.106 0 2-0.894 2-2v-8c0-1.106-0.894-2-2-2z"></path>
</svg>
