<!-- Generated by IcoMoon.io -->
<svg version="1.1" xmlns="http://www.w3.org/2000/svg" width="28" height="32" viewBox="0 0 28 32">
<title>rocketchat</title>
<path d="M28 16.012c0-5.45-6.225-9.581-13.738-9.581-1.175 0-2.331 0.1-3.456 0.3-0.694-0.656-1.512-1.25-2.375-1.712-4.606-2.256-8.431-0.056-8.431-0.056s3.556 2.944 2.975 5.519c-3.269 3.269-3.281 7.756 0 11.037 0.581 2.581-2.975 5.519-2.975 5.519s3.825 2.2 8.431-0.050c0.863-0.469 1.681-1.056 2.375-1.712 1.125 0.2 2.281 0.3 3.456 0.3 7.519-0.006 13.738-4.113 13.738-9.563zM14.269 23.762c-1.481 0-2.894-0.175-4.206-0.488-1.331 1.613-4.256 3.856-7.1 3.131 0.925-1 2.294-2.694 2-5.475-1.706-1.337-2.725-3.044-2.725-4.906 0-4.275 5.387-7.744 12.031-7.744s12.031 3.469 12.031 7.744c0 4.269-5.387 7.738-12.031 7.738zM15.869 16.019c0 0.887-0.719 1.613-1.6 1.613s-1.6-0.719-1.6-1.613c0-0.887 0.719-1.613 1.6-1.613s1.6 0.725 1.6 1.613zM21.425 16.019c0 0.887-0.712 1.613-1.6 1.613-0.881 0-1.6-0.719-1.6-1.613 0-0.887 0.712-1.613 1.6-1.613 0.881 0 1.6 0.725 1.6 1.613zM10.306 16.019c0 0.887-0.713 1.613-1.6 1.613-0.881 0-1.6-0.719-1.6-1.613 0-0.887 0.713-1.613 1.6-1.613s1.6 0.725 1.6 1.613z"></path>
</svg>
