<!-- Generated by IcoMoon.io -->
<svg version="1.1" xmlns="http://www.w3.org/2000/svg" width="32" height="32" viewBox="0 0 32 32">
<title>rotate-cw</title>
<path d="M26.063 20.223c-0.981 2.777-2.993 4.893-5.459 6.071s-5.375 1.415-8.152 0.433-4.893-2.993-6.071-5.459-1.415-5.375-0.433-8.152 2.993-4.893 5.459-6.071 5.375-1.415 8.152-0.433c1.584 0.56 2.945 1.451 3.983 2.509l3.765 3.545h-4.64c-0.736 0-1.333 0.597-1.333 1.333s0.597 1.333 1.333 1.333h7.996c0.005 0 0.012 0 0.017 0 0.183-0.001 0.356-0.040 0.515-0.109 0.159-0.068 0.305-0.168 0.432-0.3 0.016-0.016 0.031-0.033 0.045-0.051 0.101-0.116 0.179-0.245 0.233-0.383 0.055-0.136 0.087-0.284 0.092-0.437 0.003-0.019 0.003-0.037 0.003-0.056v-7.997c0-0.736-0.597-1.333-1.333-1.333s-1.333 0.597-1.333 1.333v4.913l-3.888-3.66c-1.324-1.349-3.032-2.461-4.997-3.155-3.472-1.228-7.115-0.931-10.192 0.54s-5.596 4.117-6.823 7.589-0.928 7.113 0.541 10.191 4.117 5.596 7.589 6.823 7.113 0.929 10.191-0.541 5.596-4.117 6.823-7.589c0.245-0.695-0.119-1.456-0.813-1.701s-1.456 0.119-1.701 0.813z"></path>
</svg>
