<!-- Generated by IcoMoon.io -->
<svg version="1.1" xmlns="http://www.w3.org/2000/svg" width="32" height="32" viewBox="0 0 32 32">
<title>rotate-ccw</title>
<path d="M3.423 21.109c1.224 3.472 3.74 6.121 6.816 7.595s6.717 1.773 10.191 0.551 6.121-3.74 7.595-6.816 1.773-6.717 0.551-10.191-3.74-6.121-6.816-7.595-6.717-1.773-10.191-0.551c-1.965 0.693-3.673 1.803-4.999 3.149l-3.903 3.667v-4.919c0-0.736-0.597-1.333-1.333-1.333s-1.333 0.597-1.333 1.333v7.997c0 0.020 0 0.040 0.001 0.059 0.007 0.153 0.039 0.3 0.092 0.435 0.053 0.136 0.131 0.264 0.231 0.38 0.016 0.017 0.032 0.036 0.048 0.052 0.121 0.127 0.268 0.229 0.432 0.3 0.159 0.068 0.332 0.107 0.515 0.109 0.005 0 0.009 0 0.015 0h8c0.736 0 1.333-0.597 1.333-1.333s-0.597-1.332-1.333-1.332h-4.635l3.772-3.545c1.039-1.056 2.4-1.945 3.983-2.503 2.779-0.979 5.688-0.74 8.152 0.44s4.475 3.297 5.453 6.076 0.74 5.688-0.44 8.152-3.297 4.475-6.076 5.453-5.688 0.74-8.152-0.44-4.475-3.297-5.453-6.076c-0.245-0.695-1.007-1.059-1.7-0.815s-1.059 1.007-0.815 1.7z"></path>
</svg>
