<!-- Generated by IcoMoon.io -->
<svg version="1.1" xmlns="http://www.w3.org/2000/svg" width="32" height="32" viewBox="0 0 32 32">
<title>rss1</title>
<path d="M0 26.645q0-1.76 1.248-3.008t3.008-1.248 3.008 1.248 1.248 3.008q0 1.792-1.248 3.040t-3.008 1.216-3.008-1.248-1.248-3.008zM0 15.925v-6.112q5.728 0 10.592 2.816t7.712 7.712 2.816 10.592h-6.144q0-6.208-4.384-10.592-4.416-4.416-10.592-4.416zM0 5.077v-6.144q6.496 0 12.416 2.528t10.208 6.848 6.848 10.208 2.528 12.416h-6.144q0-5.248-2.048-10.048t-5.504-8.256-8.256-5.504-10.048-2.048z"></path>
</svg>
