<!-- Generated by IcoMoon.io -->
<svg version="1.1" xmlns="http://www.w3.org/2000/svg" width="32" height="32" viewBox="0 0 32 32">
<title>rss3</title>
<path d="M5.333 16.667c2.945 0 5.611 1.192 7.543 3.124s3.124 4.597 3.124 7.543c0 0.736 0.597 1.333 1.333 1.333s1.333-0.597 1.333-1.333c0-3.681-1.493-7.017-3.905-9.428s-5.747-3.905-9.428-3.905c-0.736 0-1.333 0.597-1.333 1.333s0.597 1.333 1.333 1.333zM5.333 7.333c5.523 0 10.521 2.237 14.143 5.857s5.857 8.62 5.857 14.143c0 0.736 0.597 1.333 1.333 1.333s1.333-0.597 1.333-1.333c0-6.259-2.539-11.928-6.639-16.028s-9.769-6.639-16.028-6.639c-0.736 0-1.333 0.597-1.333 1.333s0.597 1.333 1.333 1.333zM9.333 26c0-0.736-0.3-1.404-0.781-1.885s-1.149-0.781-1.885-0.781-1.404 0.3-1.885 0.781-0.781 1.149-0.781 1.885 0.3 1.404 0.781 1.885 1.149 0.781 1.885 0.781 1.404-0.3 1.885-0.781 0.781-1.149 0.781-1.885z"></path>
</svg>
