<!-- Generated by IcoMoon.io -->
<svg version="1.1" xmlns="http://www.w3.org/2000/svg" width="31" height="32" viewBox="0 0 31 32">
<title>sad-cry1</title>
<path d="M15.5 0.5c-8.563 0-15.5 6.938-15.5 15.5s6.938 15.5 15.5 15.5 15.5-6.938 15.5-15.5-6.938-15.5-15.5-15.5zM24.5 24.65v-7.15c0-0.825-0.675-1.5-1.5-1.5s-1.5 0.675-1.5 1.5v9.462c-1.781 0.975-3.825 1.538-6 1.538s-4.219-0.563-6-1.538v-9.462c0-0.825-0.675-1.5-1.5-1.5s-1.5 0.675-1.5 1.5v7.15c-2.162-2.25-3.5-5.294-3.5-8.65 0-6.894 5.606-12.5 12.5-12.5s12.5 5.606 12.5 12.5c0 3.356-1.337 6.406-3.5 8.65zM12.863 14.656c0.275-0.15 0.431-0.463 0.381-0.775-0.25-1.575-2.138-2.631-3.737-2.631s-3.494 1.056-3.737 2.631c-0.050 0.313 0.106 0.625 0.381 0.775s0.619 0.113 0.856-0.1l0.594-0.531c0.925-0.825 2.887-0.825 3.813 0l0.594 0.531c0.156 0.144 0.494 0.3 0.856 0.1zM21.5 11.25c-1.606 0-3.494 1.056-3.738 2.631-0.050 0.313 0.106 0.625 0.381 0.775 0.281 0.15 0.619 0.113 0.856-0.1l0.594-0.531c0.925-0.825 2.887-0.825 3.813 0l0.594 0.531c0.156 0.137 0.5 0.294 0.856 0.1 0.275-0.15 0.431-0.463 0.381-0.775-0.244-1.575-2.131-2.631-3.738-2.631zM15.5 17c-1.931 0-3.5 1.794-3.5 4s1.569 4 3.5 4 3.5-1.794 3.5-4-1.569-4-3.5-4z"></path>
</svg>
