<!-- Generated by IcoMoon.io -->
<svg version="1.1" xmlns="http://www.w3.org/2000/svg" width="31" height="32" viewBox="0 0 31 32">
<title>sad-tear1</title>
<path d="M15.5 0.5c-8.563 0-15.5 6.938-15.5 15.5s6.938 15.5 15.5 15.5 15.5-6.938 15.5-15.5-6.938-15.5-15.5-15.5zM15.5 28.5c-6.894 0-12.5-5.606-12.5-12.5s5.606-12.5 12.5-12.5 12.5 5.606 12.5 12.5-5.606 12.5-12.5 12.5zM16 19c-0.825 0-1.5 0.675-1.5 1.5s0.675 1.5 1.5 1.5c1.488 0 2.894 0.656 3.85 1.8 0.506 0.613 1.45 0.744 2.113 0.194 0.637-0.531 0.725-1.475 0.194-2.113-1.531-1.831-3.775-2.881-6.156-2.881zM10.5 15c1.106 0 2-0.894 2-2s-0.894-2-2-2-2 0.894-2 2 0.894 2 2 2zM20.5 11c-1.106 0-2 0.894-2 2s0.894 2 2 2 2-0.894 2-2-0.894-2-2-2zM10.15 17.175c-0.713 0.956-2.275 3.163-2.275 4.256 0 1.419 1.175 2.569 2.625 2.569s2.625-1.15 2.625-2.569c0-1.094-1.563-3.3-2.275-4.256-0.175-0.231-0.525-0.231-0.7 0z"></path>
</svg>
