<!-- Generated by IcoMoon.io -->
<svg version="1.1" xmlns="http://www.w3.org/2000/svg" width="32" height="32" viewBox="0 0 32 32">
<title>safari</title>
<path d="M14.806 16.050c0-0.569 0.412-1.106 1.019-1.106 0.556 0 1.088 0.4 1.088 1.006 0 0.569-0.4 1.106-1.006 1.106-0.563 0-1.1-0.419-1.1-1.006zM31.5 16c0 8.563-6.938 15.5-15.5 15.5s-15.5-6.938-15.5-15.5 6.938-15.5 15.5-15.5 15.5 6.938 15.5 15.5zM29.837 16c0-7.644-6.194-13.838-13.838-13.838s-13.838 6.194-13.838 13.838 6.194 13.837 13.838 13.837 13.838-6.194 13.838-13.838zM25.306 22.038c0 0.225 0.813 0.637 1.019 0.762-1.712 2.594-4.363 4.463-7.369 5.206l-0.275-1.156c-0.019-0.156-0.119-0.175-0.262-0.175-0.119 0-0.188 0.175-0.175 0.262l0.275 1.175c-0.831 0.175-1.675 0.262-2.525 0.262-2.269 0-4.5-0.637-6.438-1.819 0.106-0.175 0.762-1.125 0.762-1.262 0-0.119-0.106-0.225-0.225-0.225-0.244 0-0.762 1.038-0.919 1.244-2.612-1.731-4.5-4.412-5.225-7.475l1.194-0.262c0.138-0.038 0.175-0.137 0.175-0.262 0-0.119-0.175-0.188-0.275-0.175l-1.169 0.269c-0.156-0.794-0.244-1.594-0.244-2.406 0-2.319 0.656-4.6 1.887-6.556 0.175 0.106 1.006 0.675 1.144 0.675 0.119 0 0.225-0.088 0.225-0.206 0-0.244-0.919-0.706-1.125-0.85 1.763-2.575 4.444-4.431 7.488-5.119l0.262 1.156c0.037 0.138 0.137 0.175 0.262 0.175s0.188-0.175 0.175-0.275l-0.262-1.144c0.762-0.138 1.537-0.225 2.319-0.225 2.319 0 4.581 0.656 6.556 1.887-0.119 0.175-0.675 0.987-0.675 1.125 0 0.119 0.087 0.225 0.206 0.225 0.244 0 0.706-0.9 0.831-1.106 2.563 1.731 4.394 4.375 5.106 7.388l-0.969 0.206c-0.156 0.037-0.175 0.137-0.175 0.275 0 0.119 0.175 0.188 0.262 0.175l0.988-0.225c0.156 0.794 0.244 1.606 0.244 2.419 0 2.269-0.625 4.5-1.8 6.419-0.175-0.087-0.9-0.606-1.038-0.606-0.131 0-0.238 0.106-0.238 0.225zM23.231 6.9c-0.813 0.763-8.387 7.731-8.6 8.094l-6.037 10.031c0.794-0.744 8.387-7.75 8.581-8.081l6.056-10.044z"></path>
</svg>
