<!-- Generated by IcoMoon.io -->
<svg version="1.1" xmlns="http://www.w3.org/2000/svg" width="32" height="32" viewBox="0 0 32 32">
<title>save3</title>
<path d="M25.333 30c1.104 0 2.107-0.449 2.828-1.172s1.172-1.724 1.172-2.828v-14.667c0-0.341-0.131-0.683-0.391-0.943l-6.667-6.667c-0.241-0.241-0.575-0.391-0.943-0.391h-14.667c-1.104 0-2.107 0.449-2.828 1.172s-1.172 1.724-1.172 2.828v18.667c0 1.104 0.449 2.107 1.172 2.828s1.724 1.172 2.828 1.172zM10.667 27.333v-8h10.667v8zM8 6v5.333c0 0.736 0.597 1.333 1.333 1.333h10.667c0.736 0 1.333-0.597 1.333-1.333s-0.597-1.333-1.333-1.333h-9.333v-4h10.115l5.885 5.885v14.115c0 0.368-0.148 0.7-0.391 0.943s-0.575 0.391-0.943 0.391h-1.333v-9.333c0-0.736-0.597-1.333-1.333-1.333h-13.333c-0.736 0-1.333 0.597-1.333 1.333v9.333h-1.333c-0.368 0-0.7-0.148-0.943-0.391s-0.391-0.575-0.391-0.943v-18.667c0-0.368 0.148-0.7 0.391-0.943s0.575-0.391 0.943-0.391z"></path>
</svg>
