<!-- Generated by IcoMoon.io -->
<svg version="1.1" xmlns="http://www.w3.org/2000/svg" width="28" height="32" viewBox="0 0 28 32">
<title>save1</title>
<path d="M27.121 8.121l-5.243-5.243c-0.543-0.543-1.293-0.879-2.121-0.879h-16.757c-1.657 0-3 1.343-3 3v22c0 1.657 1.343 3 3 3h22c1.657 0 3-1.343 3-3v-16.757c0-0.828-0.336-1.578-0.879-2.121v0zM17 5v5h-8v-5h8zM24.625 27h-21.25c-0.207 0-0.375-0.168-0.375-0.375v0-21.25c0-0.207 0.168-0.375 0.375-0.375v0h2.625v6.5c0 0.828 0.672 1.5 1.5 1.5h11c0.828 0 1.5-0.672 1.5-1.5v-6.257l4.89 4.89c0.068 0.068 0.11 0.162 0.11 0.265 0 0 0 0 0 0v0 16.227c0 0.207-0.168 0.375-0.375 0.375v0zM14 14.5c-3.033 0-5.5 2.467-5.5 5.5s2.467 5.5 5.5 5.5 5.5-2.467 5.5-5.5-2.467-5.5-5.5-5.5zM14 22.5c-1.379 0-2.5-1.122-2.5-2.5s1.121-2.5 2.5-2.5 2.5 1.122 2.5 2.5-1.121 2.5-2.5 2.5z"></path>
</svg>
