<!-- Generated by IcoMoon.io -->
<svg version="1.1" xmlns="http://www.w3.org/2000/svg" width="32" height="32" viewBox="0 0 32 32">
<title>scissors</title>
<path d="M9.837 22.735c0.015 0.016 0.031 0.033 0.047 0.048s0.032 0.031 0.048 0.047c0.457 0.479 0.735 1.124 0.735 1.837 0 0.737-0.297 1.401-0.781 1.885s-1.148 0.781-1.885 0.781-1.401-0.297-1.885-0.781-0.781-1.148-0.781-1.885 0.297-1.401 0.781-1.885 1.148-0.781 1.885-0.781c0.713 0 1.359 0.277 1.837 0.735zM18.352 20.917l7.373 7.36c0.521 0.52 1.365 0.52 1.885-0.001s0.52-1.365-0.001-1.885l-7.373-7.36c-0.521-0.52-1.365-0.52-1.885 0.001s-0.52 1.365 0.001 1.885zM9.932 10.504c-0.016 0.015-0.032 0.031-0.048 0.047s-0.032 0.032-0.047 0.048c-0.479 0.457-1.124 0.735-1.837 0.735-0.737 0-1.401-0.297-1.885-0.781s-0.781-1.148-0.781-1.885 0.297-1.401 0.781-1.885 1.148-0.781 1.885-0.781 1.401 0.297 1.885 0.781 0.781 1.148 0.781 1.885c0 0.713-0.277 1.359-0.735 1.837zM10.709 13.261l3.405 3.405-3.405 3.405c-0.795-0.469-1.721-0.739-2.709-0.739-1.472 0-2.808 0.599-3.771 1.563s-1.563 2.299-1.563 3.771 0.599 2.808 1.563 3.771 2.299 1.563 3.771 1.563 2.808-0.599 3.771-1.563 1.563-2.299 1.563-3.771c0-0.988-0.269-1.915-0.739-2.709l15.015-15.015c0.521-0.521 0.521-1.365 0-1.885s-1.365-0.521-1.885 0l-9.724 9.724-3.405-3.405c0.469-0.795 0.739-1.721 0.739-2.709 0-1.472-0.599-2.808-1.563-3.771s-2.299-1.563-3.771-1.563-2.808 0.599-3.771 1.563-1.563 2.299-1.563 3.771 0.599 2.808 1.563 3.771 2.299 1.563 3.771 1.563c0.988 0 1.915-0.269 2.709-0.739z"></path>
</svg>
