<!-- Generated by IcoMoon.io -->
<svg version="1.1" xmlns="http://www.w3.org/2000/svg" width="28" height="32" viewBox="0 0 28 32">
<title>scribd1</title>
<path d="M0 21.717q0-1.408 1.024-2.432t2.432-1.024 2.432 1.024 1.024 2.432q0 1.472-1.088 2.496 2.080 2.368 5.216 2.368 2.208 0 3.712-1.312 1.504-1.344 1.504-3.392 0-1.248-0.8-2.464-0.736-1.216-1.92-2.048-1.088-0.736-3.68-1.824-2.4-0.96-3.904-1.888-1.344-0.864-2.336-2.048-0.96-1.152-1.472-2.368-0.448-1.248-0.448-2.528 0-3.232 2.592-5.504 2.624-2.272 6.304-2.272 2.464 0 4.96 1.056 2.112 0.896 3.616 2.56 1.184 1.024 1.184 2.56 0 1.44-1.024 2.432t-2.432 1.024q-1.44 0-2.432-1.024t-1.024-2.432q0-0.672 0.32-1.408-1.024-0.512-2.816-0.512-2.208 0-3.584 0.992t-1.376 2.56q0 1.376 1.216 2.432 1.28 1.056 4.096 2.272 2.944 1.28 4.512 2.336 1.632 1.088 2.624 2.368 1.056 1.312 1.536 2.72 0 0.032 0.032 0.096t0.032 0.096q-2.4 1.984-2.4 5.056 0 1.696 0.896 3.328-0.352 0.416-0.768 0.864-2.784 2.624-6.592 2.624t-6.656-2.048-4.448-6.208l0.096-0.032q-0.16-0.48-0.16-0.928zM19.616 24.117q0 1.664 1.152 2.848t2.816 1.152 2.816-1.152 1.152-2.848q0-1.632-1.152-2.816t-2.816-1.152-2.816 1.152-1.152 2.816z"></path>
</svg>
