<!-- Generated by IcoMoon.io -->
<svg version="1.1" xmlns="http://www.w3.org/2000/svg" width="36" height="32" viewBox="0 0 36 32">
<title>share-square1</title>
<path d="M35.121 9.879l-9-8.998c-1.876-1.876-5.121-0.562-5.121 2.121v3.575c-2.653 0.117-5.252 0.409-7.547 1.124-2.198 0.684-3.942 1.724-5.182 3.089-1.507 1.66-2.271 3.748-2.271 6.206 0 3.856 2.074 7.028 5.304 9.047 2.347 1.469 5.328-0.791 4.439-3.484-0.97-2.945-1.072-4.433 5.257-4.922v3.363c0 2.687 3.248 3.995 5.121 2.121l9-9c1.172-1.171 1.172-3.071 0-4.242zM24 21v-6.49c-8.043 0.12-13.594 1.449-11.106 8.99-1.845-1.153-3.894-3.245-3.894-6.504 0-6.833 8.071-7.434 15-7.491v-6.506l9 9-9 9zM25.546 26.281c0.499-0.145 0.934-0.343 1.332-0.594l-0.021 0.013c0.498-0.309 1.143 0.052 1.143 0.638v2.662c0 1.657-1.343 3-3 3h-22c-1.657 0-3-1.343-3-3v-22c0-1.657 1.343-3 3-3h8.25c0.414 0 0.75 0.336 0.75 0.75v0.28c0 0.307-0.187 0.586-0.473 0.697-0.856 0.333-1.65 0.721-2.378 1.162-0.112 0.069-0.247 0.111-0.392 0.111h-5.381c-0.207 0-0.375 0.168-0.375 0.375v0 21.25c0 0.207 0.168 0.375 0.375 0.375v0h21.25c0.207 0 0.375-0.168 0.375-0.375v0-1.623c0-0.336 0.224-0.629 0.546-0.721z"></path>
</svg>
