<!-- Generated by IcoMoon.io -->
<svg version="1.1" xmlns="http://www.w3.org/2000/svg" width="32" height="32" viewBox="0 0 32 32">
<title>share3</title>
<path d="M21.619 24.797c0.033-0.044 0.064-0.089 0.093-0.139 0.027-0.047 0.051-0.095 0.072-0.143 0.097-0.144 0.208-0.279 0.331-0.401 0.484-0.484 1.148-0.781 1.885-0.781s1.401 0.297 1.885 0.781 0.781 1.148 0.781 1.885-0.297 1.401-0.781 1.885-1.148 0.781-1.885 0.781-1.401-0.297-1.885-0.781-0.781-1.148-0.781-1.885c0-0.433 0.103-0.841 0.285-1.203zM21.735 8.741c-0.012-0.023-0.024-0.045-0.037-0.068s-0.027-0.045-0.041-0.067c-0.205-0.377-0.323-0.811-0.323-1.273 0-0.737 0.297-1.401 0.781-1.885s1.148-0.781 1.885-0.781 1.401 0.297 1.885 0.781 0.781 1.148 0.781 1.885-0.297 1.401-0.781 1.885-1.148 0.781-1.885 0.781-1.401-0.297-1.885-0.781c-0.144-0.144-0.272-0.304-0.38-0.477zM10.265 15.259c0.012 0.023 0.024 0.045 0.037 0.068s0.027 0.045 0.041 0.067c0.205 0.377 0.323 0.811 0.323 1.273s-0.117 0.896-0.324 1.275c-0.015 0.021-0.028 0.044-0.041 0.067s-0.025 0.044-0.036 0.067c-0.108 0.173-0.236 0.333-0.38 0.477-0.484 0.484-1.148 0.781-1.885 0.781s-1.401-0.297-1.885-0.781-0.781-1.148-0.781-1.885 0.297-1.401 0.781-1.885 1.148-0.781 1.885-0.781 1.401 0.297 1.885 0.781c0.144 0.144 0.272 0.304 0.38 0.477zM18.867 8.784l-7.077 4.129c-0.005-0.007-0.012-0.012-0.019-0.019-0.963-0.963-2.299-1.561-3.771-1.561s-2.808 0.599-3.771 1.563-1.563 2.299-1.563 3.771 0.599 2.808 1.563 3.771 2.299 1.563 3.771 1.563 2.808-0.599 3.771-1.563c0.007-0.007 0.012-0.012 0.019-0.019l7.079 4.125c-0.131 0.463-0.201 0.952-0.201 1.456 0 1.472 0.599 2.808 1.563 3.771s2.299 1.563 3.771 1.563 2.808-0.599 3.771-1.563 1.563-2.299 1.563-3.771-0.599-2.808-1.563-3.771-2.299-1.563-3.771-1.563-2.808 0.599-3.771 1.563c-0.004 0.004-0.009 0.009-0.013 0.013l-7.083-4.127c0.131-0.461 0.2-0.947 0.2-1.449s-0.069-0.989-0.2-1.451l7.077-4.131c0.005 0.007 0.012 0.012 0.019 0.019 0.963 0.964 2.299 1.563 3.771 1.563s2.808-0.599 3.771-1.563 1.563-2.299 1.563-3.771-0.599-2.808-1.563-3.771-2.299-1.563-3.771-1.563-2.808 0.599-3.771 1.563-1.563 2.299-1.563 3.771c0 0.503 0.069 0.989 0.2 1.451z"></path>
</svg>
