<!-- Generated by IcoMoon.io -->
<svg version="1.1" xmlns="http://www.w3.org/2000/svg" width="32" height="32" viewBox="0 0 32 32">
<title>shield-alt</title>
<path d="M31 8c0 13.83-8.496 21.54-13.846 23.769-0.341 0.146-0.737 0.231-1.154 0.231s-0.813-0.085-1.173-0.238l0.020 0.007c-6.69-2.787-13.846-11.364-13.846-23.769 0 0 0 0 0 0 0-1.24 0.753-2.305 1.827-2.762l0.020-0.007 12-5c0.341-0.146 0.737-0.231 1.154-0.231s0.813 0.085 1.173 0.238l-0.020-0.007 12 5c1.093 0.464 1.846 1.529 1.846 2.769 0 0 0 0 0 0v0zM16 27.895l0.004 0.002c5.858-2.918 10.781-9.769 10.989-19.233l-10.993-4.58v23.811z"></path>
</svg>
