<!-- Generated by IcoMoon.io -->
<svg version="1.1" xmlns="http://www.w3.org/2000/svg" width="32" height="32" viewBox="0 0 32 32">
<title>shield1</title>
<path d="M16 28.483c-1.579-0.896-5.893-3.593-8.067-7.399-0.105-0.184-0.204-0.368-0.297-0.556-0.608-1.215-0.969-2.504-0.969-3.861v-8.409l9.333-3.5 9.333 3.5v8.409c0 1.357-0.361 2.647-0.968 3.863-0.093 0.187-0.193 0.372-0.297 0.556-2.175 3.805-6.489 6.501-8.067 7.399zM16.596 31.192c0 0 6.652-3.3 9.787-8.785 0.128-0.224 0.251-0.453 0.368-0.687 0.757-1.513 1.249-3.211 1.249-5.053v-9.333c0-0.568-0.356-1.053-0.865-1.248l-10.667-4c-0.315-0.119-0.647-0.109-0.936 0l-10.667 4c-0.532 0.199-0.861 0.703-0.865 1.248v9.333c0 1.843 0.492 3.54 1.251 5.055 0.116 0.233 0.239 0.461 0.368 0.687 3.135 5.485 9.787 8.785 9.787 8.785 0.389 0.195 0.827 0.181 1.192 0z"></path>
</svg>
