<!-- Generated by IcoMoon.io -->
<svg version="1.1" xmlns="http://www.w3.org/2000/svg" width="32" height="32" viewBox="0 0 32 32">
<title>shield-off</title>
<path d="M27.527 19.728c0.321-1.035 0.477-2.089 0.473-3.067v-9.328c0-0.568-0.356-1.053-0.865-1.248l-10.667-4c-0.315-0.117-0.645-0.109-0.935 0l-4.213 1.573c-0.689 0.256-1.040 1.024-0.783 1.715s1.025 1.040 1.716 0.783l3.745-1.399 9.335 3.5v8.415c0.003 0.696-0.109 1.481-0.353 2.267-0.219 0.703 0.175 1.451 0.879 1.668s1.451-0.175 1.668-0.879zM6.667 9.219l14.975 14.975c-1.585 1.609-3.507 3.085-5.683 4.265-1.612-0.92-5.869-3.603-8.025-7.375-0.105-0.184-0.204-0.368-0.297-0.556-0.608-1.215-0.969-2.504-0.969-3.861zM0.391 2.943l3.765 3.767c-0.1 0.189-0.155 0.403-0.156 0.624v9.333c0 1.843 0.492 3.54 1.251 5.055 0.116 0.233 0.239 0.461 0.368 0.687 3.135 5.485 9.787 8.785 9.787 8.785 0.397 0.199 0.848 0.18 1.219-0.013 2.647-1.396 4.987-3.155 6.904-5.1l6.197 6.197c0.521 0.521 1.365 0.521 1.885 0s0.521-1.365 0-1.885l-29.335-29.335c-0.521-0.521-1.365-0.521-1.885 0s-0.521 1.365 0 1.885z"></path>
</svg>
