<!-- Generated by IcoMoon.io -->
<svg version="1.1" xmlns="http://www.w3.org/2000/svg" width="28" height="32" viewBox="0 0 28 32">
<title>shirtsinbulk</title>
<path d="M24.701 13.849h0.674v2.096h-0.674v-2.096zM24.701 13.247h0.674v-2.096h-0.674v2.096zM24.701 18.643h0.674v-2.096h-0.674v2.096zM22.422 8.453h-2.096v0.656h2.096v-0.656zM24.701 21.341h0.674v-2.096h-0.674v2.096zM19.469 8.453h-2.096v0.656h2.096v-0.656zM16.516 8.453h-2.078v0.656h2.078v-0.656zM13.563 8.453h-2.078v0.656h2.078v-0.656zM24.701 10.55h0.674v-2.096h-2.096v0.656h1.422v1.44zM8.713 26.737l1.914 0.839 0.273-0.62-1.914-0.839-0.273 0.62zM11.193 27.813l1.896 0.857 0.273-0.62-1.896-0.839-0.273 0.602zM24.701 24.039h0.674v-2.096h-0.674v2.096zM3.773 24.549l1.914 0.838 0.273-0.602-1.914-0.857-0.273 0.62zM6.253 25.643l1.914 0.839 0.273-0.62-1.914-0.838-0.273 0.62zM14.529 28.049l0.273 0.62 1.914-0.857-0.273-0.602-1.914 0.839zM21.93 24.787l0.273 0.602 1.914-0.838-0.273-0.62-1.914 0.857zM19.469 25.862l0.273 0.62 1.914-0.839-0.273-0.62-1.914 0.838zM16.99 26.956l0.273 0.62 1.914-0.839-0.273-0.62-1.914 0.839zM19.469 2.911h-2.096v0.656h2.096v-0.656zM25.357 2.911h-2.078v0.656h2.078v-0.656zM13.563 2.911h-2.078v0.656h2.078v-0.656zM22.422 2.911h-2.096v0.656h2.096v-0.656zM16.516 2.911h-2.078v0.656h2.078v-0.656zM28 0.232v25.375l-14.146 6.162-13.854-6.162v-25.375h28zM26.177 7.542h-24.354v16.88l12.050 5.359 12.305-5.359v-16.88zM26.177 2.055h-24.354v3.664h24.354v-3.664zM4.721 2.911h-2.078v0.656h2.078v-0.656zM10.628 2.911h-2.096v0.656h2.096v-0.656zM7.674 2.911h-2.096v0.656h2.096v-0.656zM8.148 17.695c0-3.135 2.57-5.706 5.706-5.706 3.154 0 5.706 2.57 5.706 5.706 0 3.154-2.552 5.706-5.706 5.706-3.135-0-5.706-2.552-5.706-5.706zM15.695 18.826c0 0.82-1.495 0.893-2.042 0.893-0.766 0-1.859-0.164-2.242-0.93h-0.055l-0.565 1.148c0.93 0.583 1.823 0.766 2.953 0.766 1.221 0 3.19-0.365 3.19-1.951 0-3.008-4.904-1.021-4.904-2.37 0-0.82 1.294-0.93 1.859-0.93 0.674 0 1.823 0.2 2.224 0.82h0.055l0.547-1.057c-0.948-0.383-1.714-0.747-2.771-0.747-1.258 0-3.099 0.401-3.099 1.987 0 2.771 4.849 0.747 4.849 2.37zM7.674 8.453h-2.096v0.656h2.096v-0.656zM3.3 9.109h1.422v-0.656h-2.096v2.096h0.675v-1.44zM3.3 11.151h-0.675v2.096h0.675v-2.096zM10.628 8.453h-2.096v0.656h2.096v-0.656zM3.3 13.849h-0.675v2.096h0.675v-2.096zM3.3 19.245h-0.675v2.096h0.675v-2.096zM3.3 16.547h-0.675v2.096h0.675v-2.096zM3.3 21.943h-0.675v2.096h0.675v-2.096z"></path>
</svg>
