<!-- Generated by IcoMoon.io -->
<svg version="1.1" xmlns="http://www.w3.org/2000/svg" width="31" height="32" viewBox="0 0 31 32">
<title>shopware</title>
<path d="M24.719 28.454c-2.684 1.987-5.872 3.037-9.217 3.037-8.576 0-15.501-6.938-15.501-15.5 0-8.574 6.94-15.5 15.501-15.5 3.831 0 7.509 1.409 10.355 3.969 0.164 0.147 0.036 0.415-0.179 0.386-1.104-0.152-2.297-0.229-3.544-0.229-8.085 0-13.9 3.342-13.9 9.709 0 6.815 5.758 9.117 11.052 11.171 2.102 0.815 4.087 1.585 5.435 2.599 0.119 0.090 0.118 0.269-0.001 0.358zM30.935 14.559c-0.005-0.059-0.034-0.114-0.079-0.152-3.235-2.685-5.851-3.78-9.030-3.78-5.258 0-5.016 3.261-5.016 3.352 0 2.662 3.254 3.876 7.021 5.281 1.942 0.724 3.949 1.473 5.793 2.496 0.117 0.066 0.266 0.012 0.316-0.114 1.181-3.024 1.121-5.639 0.996-7.082z"></path>
</svg>
