<!-- Generated by IcoMoon.io -->
<svg version="1.1" xmlns="http://www.w3.org/2000/svg" width="32" height="32" viewBox="0 0 32 32">
<title>shower</title>
<path d="M24.354 8.475l-9.879 9.879c-0.586 0.586-1.536 0.586-2.121 0l-0.707-0.707c-0.586-0.586-0.586-1.536 0-2.121l0.007-0.007c-2.127-2.513-2.197-6.184-0.212-8.774-0.748-0.472-1.634-0.744-2.581-0.744-2.68 0-4.86 2.18-4.86 4.86v19.14h-4v-19.14c0-4.886 3.974-8.86 8.86-8.86 2.308 0 4.413 0.888 5.991 2.339 2.244-0.719 4.781-0.281 6.667 1.314l0.007-0.007c0.586-0.586 1.536-0.586 2.121 0l0.707 0.707c0.586 0.586 0.586 1.536 0 2.121zM24 13c0 0.552-0.448 1-1 1s-1-0.448-1-1 0.448-1 1-1 1 0.448 1 1zM26 13c0-0.552 0.448-1 1-1s1 0.448 1 1-0.448 1-1 1-1-0.448-1-1zM32 13c0 0.552-0.448 1-1 1s-1-0.448-1-1 0.448-1 1-1 1 0.448 1 1zM22 15c0 0.552-0.448 1-1 1s-1-0.448-1-1 0.448-1 1-1 1 0.448 1 1zM25 14c0.552 0 1 0.448 1 1s-0.448 1-1 1-1-0.448-1-1 0.448-1 1-1zM30 15c0 0.552-0.448 1-1 1s-1-0.448-1-1 0.448-1 1-1 1 0.448 1 1zM20 17c0 0.552-0.448 1-1 1s-1-0.448-1-1 0.448-1 1-1 1 0.448 1 1zM22 17c0-0.552 0.448-1 1-1s1 0.448 1 1-0.448 1-1 1-1-0.448-1-1zM28 17c0 0.552-0.448 1-1 1s-1-0.448-1-1 0.448-1 1-1 1 0.448 1 1zM20 19c0-0.552 0.448-1 1-1s1 0.448 1 1-0.448 1-1 1-1-0.448-1-1zM26 19c0 0.552-0.448 1-1 1s-1-0.448-1-1 0.448-1 1-1 1 0.448 1 1zM20 21c0 0.552-0.448 1-1 1s-1-0.448-1-1 0.448-1 1-1 1 0.448 1 1zM24 21c0 0.552-0.448 1-1 1s-1-0.448-1-1 0.448-1 1-1 1 0.448 1 1zM22 23c0 0.552-0.448 1-1 1s-1-0.448-1-1 0.448-1 1-1 1 0.448 1 1zM20 25c0 0.552-0.448 1-1 1s-1-0.448-1-1 0.448-1 1-1 1 0.448 1 1z"></path>
</svg>
