<!-- Generated by IcoMoon.io -->
<svg version="1.1" xmlns="http://www.w3.org/2000/svg" width="32" height="32" viewBox="0 0 32 32">
<title>shuffle</title>
<path d="M6.276 28.276l20.391-20.391v3.448c0 0.736 0.597 1.333 1.333 1.333s1.333-0.597 1.333-1.333v-6.667c0-0.181-0.036-0.353-0.101-0.511s-0.161-0.304-0.288-0.431c-0.001-0.001-0.001-0.001-0.003-0.003-0.123-0.123-0.269-0.221-0.431-0.288-0.157-0.065-0.329-0.101-0.511-0.101h-6.667c-0.736 0-1.333 0.597-1.333 1.333s0.597 1.333 1.333 1.333h3.448l-20.391 20.391c-0.521 0.521-0.521 1.365 0 1.885s1.365 0.521 1.885 0zM19.057 21.609l5.724 5.724h-3.448c-0.736 0-1.333 0.597-1.333 1.333s0.597 1.333 1.333 1.333h6.667c0.173 0 0.348-0.033 0.511-0.101s0.309-0.167 0.432-0.289c0.128-0.128 0.224-0.275 0.289-0.432s0.101-0.329 0.101-0.511v-6.667c0-0.736-0.597-1.333-1.333-1.333s-1.333 0.597-1.333 1.333v3.448l-5.724-5.724c-0.521-0.521-1.365-0.521-1.885 0s-0.521 1.365 0 1.885zM4.391 6.943l6.667 6.667c0.521 0.521 1.365 0.521 1.885 0s0.521-1.365 0-1.885l-6.667-6.667c-0.521-0.521-1.365-0.521-1.885 0s-0.521 1.365 0 1.885z"></path>
</svg>
