<!-- Generated by IcoMoon.io -->
<svg version="1.1" xmlns="http://www.w3.org/2000/svg" width="32" height="32" viewBox="0 0 32 32">
<title>signature</title>
<path d="M31 20h-5.741c-0.579 0-1.233-0.707-1.611-1.782-0.952-2.71-3.007-4.394-5.363-4.394-1.927 0-3.654 1.128-4.757 3.077l-1.353-10.244c-0.373-1.589-1.591-2.656-3.033-2.656s-2.659 1.067-3.031 2.656l-2.601 11.106c-0.341 1.453-1.151 2.238-1.739 2.238h-0.771c-0.552 0-1 0.448-1 1v2c0 0.552 0.448 1 1 1h0.771c2.623 0 4.887-2.139 5.634-5.325l1.49-6.361 1.828 13.882c0.124 0.941 0.864 1.716 1.809 1.797 0.062 0.006 0.123 0.008 0.183 0.008 0.88 0 1.665-0.579 1.918-1.434l2.064-7.021c0.367-1.045 0.99-1.72 1.588-1.72s1.222 0.675 1.611 1.782c0.952 2.71 3.007 4.394 5.363 4.394h5.741c0.552 0 1-0.448 1-1v-2c0-0.554-0.448-1.001-1-1.001z"></path>
</svg>
