<!-- Generated by IcoMoon.io -->
<svg version="1.1" xmlns="http://www.w3.org/2000/svg" width="32" height="32" viewBox="0 0 32 32">
<title>signal2</title>
<path d="M20 16.667c0-1.104-0.449-2.107-1.172-2.828s-1.724-1.172-2.828-1.172-2.107 0.449-2.828 1.172-1.172 1.724-1.172 2.828 0.449 2.107 1.172 2.828 1.724 1.172 2.828 1.172 2.107-0.449 2.828-1.172 1.172-1.724 1.172-2.828zM17.333 16.667c0 0.368-0.148 0.7-0.391 0.943s-0.575 0.391-0.943 0.391-0.7-0.148-0.943-0.391-0.391-0.575-0.391-0.943 0.148-0.7 0.391-0.943 0.575-0.391 0.943-0.391 0.7 0.148 0.943 0.391 0.391 0.575 0.391 0.943zM20.711 11.957c1.303 1.301 1.955 3.005 1.955 4.713s-0.649 3.412-1.949 4.715c-0.52 0.521-0.52 1.365 0.001 1.885s1.365 0.52 1.885-0.001c1.821-1.823 2.731-4.215 2.729-6.601s-0.915-4.777-2.737-6.599c-0.521-0.52-1.365-0.52-1.885 0.001s-0.52 1.365 0.001 1.885zM11.289 21.376c-1.303-1.3-1.955-3.004-1.956-4.712s0.649-3.412 1.949-4.715c0.52-0.521 0.52-1.365-0.001-1.885s-1.365-0.52-1.885 0.001c-1.82 1.821-2.731 4.213-2.729 6.6s0.915 4.777 2.737 6.599c0.521 0.52 1.365 0.52 1.885-0.001s0.52-1.365-0.001-1.885zM24.484 8.183c2.343 2.344 3.513 5.412 3.513 8.485 0 3.072-1.171 6.14-3.513 8.483-0.52 0.521-0.52 1.365 0 1.885s1.365 0.52 1.885 0c2.863-2.863 4.293-6.617 4.295-10.368 0-3.753-1.432-7.508-4.295-10.371-0.52-0.521-1.365-0.521-1.885 0s-0.521 1.365 0 1.885zM7.516 25.151c-2.343-2.344-3.513-5.412-3.513-8.485 0-3.072 1.171-6.14 3.513-8.483 0.52-0.521 0.52-1.365 0-1.885s-1.365-0.52-1.885 0c-2.863 2.863-4.293 6.617-4.295 10.368 0 3.751 1.432 7.507 4.295 10.371 0.52 0.521 1.365 0.521 1.885 0s0.521-1.365 0-1.885z"></path>
</svg>
