<!-- Generated by IcoMoon.io -->
<svg version="1.1" xmlns="http://www.w3.org/2000/svg" width="32" height="32" viewBox="0 0 32 32">
<title>skype1</title>
<path d="M0 7.669q0-3.616 2.56-6.176t6.176-2.56q2.496 0 4.64 1.344 1.152-0.224 2.56-0.224 6.24 0 10.656 4.416t4.416 10.624q0 1.568-0.352 3.232 0.896 1.888 0.896 3.872 0 3.616-2.56 6.176t-6.176 2.56q-2.176 0-4.128-1.024-1.44 0.256-2.752 0.256-6.208 0-10.624-4.416t-4.416-10.656q0-1.504 0.288-3.008-1.184-2.080-1.184-4.416zM7.072 19.381q0 1.312 0.96 2.72 2.272 3.328 7.872 3.328 1.6 0 3.104-0.352t2.784-1.088 2.112-2.048 0.8-3.008q0-1.856-0.928-3.136t-2.368-1.856-3.040-1.056-3.072-0.736-2.336-0.832-0.96-1.408q0-1.056 1.184-1.568t2.368-0.512q1.28 0 2.112 0.384t1.216 0.96 0.672 1.12 0.8 0.96 1.248 0.416q0.864 0 1.536-0.608t0.64-1.472-0.48-1.728q-0.96-1.76-3.040-2.56t-4.416-0.8q-1.472 0-2.848 0.288t-2.656 0.928-2.048 1.792-0.8 2.784q0 2.112 1.28 3.392t3.104 1.824 3.68 0.928 3.104 1.056 1.28 1.888q0 0.928-0.736 1.568t-1.6 0.864-1.824 0.224q-1.216 0-2.048-0.352t-1.248-0.864-0.704-1.12-0.576-1.12-0.736-0.864-1.184-0.32q-0.896 0-1.536 0.544t-0.672 1.44z"></path>
</svg>
