<!-- Generated by IcoMoon.io -->
<svg version="1.1" xmlns="http://www.w3.org/2000/svg" width="32" height="32" viewBox="0 0 32 32">
<title>slack1</title>
<path d="M19.333 15.333c0.92 0 1.755-0.373 2.357-0.976s0.976-1.437 0.976-2.357v-6.667c0-0.92-0.373-1.755-0.976-2.357s-1.437-0.976-2.357-0.976-1.755 0.373-2.357 0.976-0.976 1.437-0.976 2.357v6.667c0 0.92 0.373 1.755 0.976 2.357s1.437 0.976 2.357 0.976zM19.333 12.667c-0.187 0-0.352-0.073-0.472-0.195s-0.195-0.285-0.195-0.472v-6.667c0-0.187 0.073-0.352 0.195-0.472s0.285-0.195 0.472-0.195 0.352 0.073 0.472 0.195 0.195 0.285 0.195 0.472v6.667c0 0.187-0.073 0.352-0.195 0.472s-0.285 0.195-0.472 0.195zM27.333 15.333c0.92 0 1.755-0.373 2.357-0.976s0.976-1.437 0.976-2.357-0.373-1.755-0.976-2.357-1.437-0.976-2.357-0.976-1.755 0.373-2.357 0.976-0.976 1.437-0.976 2.357v2c0 0.736 0.597 1.333 1.333 1.333zM27.333 12.667h-0.667v-0.667c0-0.187 0.073-0.352 0.195-0.472s0.285-0.195 0.472-0.195 0.352 0.073 0.472 0.195 0.195 0.285 0.195 0.472-0.073 0.352-0.195 0.472-0.285 0.195-0.472 0.195zM12.667 18c-0.92 0-1.755 0.373-2.357 0.976s-0.976 1.437-0.976 2.357v6.667c0 0.92 0.373 1.755 0.976 2.357s1.437 0.976 2.357 0.976 1.755-0.373 2.357-0.976 0.976-1.437 0.976-2.357v-6.667c0-0.92-0.373-1.755-0.976-2.357s-1.437-0.976-2.357-0.976zM12.667 20.667c0.187 0 0.352 0.073 0.472 0.195s0.195 0.285 0.195 0.472v6.667c0 0.187-0.073 0.352-0.195 0.472s-0.285 0.195-0.472 0.195-0.352-0.073-0.472-0.195-0.195-0.285-0.195-0.472v-6.667c0-0.187 0.073-0.352 0.195-0.472s0.285-0.195 0.472-0.195zM4.667 18c-0.92 0-1.755 0.373-2.357 0.976s-0.976 1.437-0.976 2.357 0.373 1.755 0.976 2.357 1.437 0.976 2.357 0.976 1.755-0.373 2.357-0.976 0.976-1.437 0.976-2.357v-2c0-0.736-0.597-1.333-1.333-1.333zM4.667 20.667h0.667v0.667c0 0.187-0.073 0.352-0.195 0.472s-0.285 0.195-0.472 0.195-0.352-0.073-0.472-0.195-0.195-0.285-0.195-0.472 0.073-0.352 0.195-0.472 0.285-0.195 0.472-0.195zM17.333 20c0 0.92 0.373 1.755 0.976 2.357s1.437 0.976 2.357 0.976h6.667c0.92 0 1.755-0.373 2.357-0.976s0.976-1.437 0.976-2.357-0.373-1.755-0.976-2.357-1.437-0.976-2.357-0.976h-6.667c-0.92 0-1.755 0.373-2.357 0.976s-0.976 1.437-0.976 2.357zM20 20c0-0.187 0.073-0.352 0.195-0.472s0.285-0.195 0.472-0.195h6.667c0.187 0 0.352 0.073 0.472 0.195s0.195 0.285 0.195 0.472-0.073 0.352-0.195 0.472-0.285 0.195-0.472 0.195h-6.667c-0.187 0-0.352-0.073-0.472-0.195s-0.195-0.285-0.195-0.472zM20.667 27.333c0.187 0 0.352 0.073 0.472 0.195s0.195 0.285 0.195 0.472-0.073 0.352-0.195 0.472-0.285 0.195-0.472 0.195-0.352-0.073-0.472-0.195-0.195-0.285-0.195-0.472v-0.667zM20.667 24.667h-2c-0.736 0-1.333 0.597-1.333 1.333v2c0 0.92 0.373 1.755 0.976 2.357s1.437 0.976 2.357 0.976 1.755-0.373 2.357-0.976 0.976-1.437 0.976-2.357-0.373-1.755-0.976-2.357-1.437-0.976-2.357-0.976zM12 13.333c0 0.187-0.073 0.352-0.195 0.472s-0.285 0.195-0.472 0.195h-6.667c-0.187 0-0.352-0.073-0.472-0.195s-0.195-0.285-0.195-0.472 0.073-0.352 0.195-0.472 0.285-0.195 0.472-0.195h6.667c0.187 0 0.352 0.073 0.472 0.195s0.195 0.285 0.195 0.472zM14.667 13.333c0-0.92-0.373-1.755-0.976-2.357s-1.437-0.976-2.357-0.976h-6.667c-0.92 0-1.755 0.373-2.357 0.976s-0.976 1.437-0.976 2.357 0.373 1.755 0.976 2.357 1.437 0.976 2.357 0.976h6.667c0.92 0 1.755-0.373 2.357-0.976s0.976-1.437 0.976-2.357zM11.333 6c-0.187 0-0.352-0.073-0.472-0.195s-0.195-0.285-0.195-0.472 0.073-0.352 0.195-0.472 0.285-0.195 0.472-0.195 0.352 0.073 0.472 0.195 0.195 0.285 0.195 0.472v0.667zM11.333 8.667h2c0.736 0 1.333-0.597 1.333-1.333v-2c0-0.92-0.373-1.755-0.976-2.357s-1.437-0.976-2.357-0.976-1.755 0.373-2.357 0.976-0.976 1.437-0.976 2.357 0.373 1.755 0.976 2.357 1.437 0.976 2.357 0.976z"></path>
</svg>
