<!-- Generated by IcoMoon.io -->
<svg version="1.1" xmlns="http://www.w3.org/2000/svg" width="28" height="32" viewBox="0 0 28 32">
<title>slack</title>
<path d="M15.262 13.594l1.206 3.606-3.738 1.25-1.206-3.606 3.738-1.25zM17.85 28.825c-9.625 2.887-13.787 0.65-16.675-8.975s-0.65-13.787 8.975-16.675c9.625-2.888 13.787-0.65 16.675 8.975s0.65 13.787-8.975 16.675zM22.887 16.563c-0.244-0.762-1.075-1.162-1.837-0.919l-1.813 0.606-1.206-3.606 1.813-0.606c0.762-0.244 1.163-1.075 0.919-1.838s-1.075-1.162-1.837-0.919l-1.813 0.606-0.625-1.881c-0.244-0.763-1.075-1.162-1.838-0.919s-1.162 1.075-0.919 1.837l0.625 1.881-3.737 1.256-0.625-1.881c-0.244-0.762-1.075-1.162-1.838-0.919s-1.162 1.075-0.919 1.838l0.625 1.881-1.813 0.606c-0.763 0.244-1.163 1.075-0.919 1.838 0.2 0.581 0.763 0.962 1.344 0.988 0.269 0.038 0.481-0.063 2.306-0.669l1.206 3.606-1.813 0.606c-0.763 0.244-1.162 1.075-0.919 1.837 0.2 0.581 0.763 0.962 1.344 0.988 0.269 0.038 0.481-0.063 2.306-0.669l0.625 1.881c0.231 0.675 0.988 1.163 1.838 0.919 0.762-0.244 1.162-1.075 0.919-1.837l-0.625-1.881 3.738-1.256 0.625 1.881c0.231 0.675 0.988 1.163 1.837 0.919 0.762-0.244 1.163-1.075 0.919-1.837l-0.625-1.881 1.813-0.606c0.762-0.262 1.163-1.094 0.919-1.85z"></path>
</svg>
