<!-- Generated by IcoMoon.io -->
<svg version="1.1" xmlns="http://www.w3.org/2000/svg" width="32" height="32" viewBox="0 0 32 32">
<title>slideshare</title>
<path d="M15.589 13.215c0 1.982-1.732 3.607-3.857 3.607s-3.857-1.625-3.857-3.607c0-2 1.732-3.607 3.857-3.607s3.857 1.607 3.857 3.607zM31.483 16.34c-1.143 1.411-3.322 3.143-6.643 4.5 3.518 11.983-8.59 13.893-8.393 7.75 0 0.107-0.018-3.304-0.018-5.84-0.268-0.054-0.536-0.125-0.857-0.196 0 2.554-0.018 6.143-0.018 6.036 0.196 6.143-11.911 4.232-8.393-7.75-3.322-1.357-5.5-3.089-6.643-4.5-0.571-0.857 0.054-1.768 1-1.107 0.125 0.089 0.268 0.179 0.393 0.268v-12.393c0-1.714 1.286-3.107 2.875-3.107h22.447c1.589 0 2.875 1.393 2.875 3.107v12.393l0.375-0.268c0.946-0.661 1.571 0.25 1 1.107zM28.572 4.518c0-2.054-0.661-2.857-2.554-2.857h-19.858c-1.982 0-2.536 0.679-2.536 2.857v12.018c4.232 2.214 7.857 1.822 9.84 1.75 0.839-0.018 1.375 0.143 1.697 0.482 0.106 0.105 0.626 0.59 1.268 1.071 0.071-0.982 0.625-1.607 2.107-1.554 2.018 0.089 5.732 0.482 10.036-1.857v-11.911zM20.697 9.607c-2.125 0-3.857 1.607-3.857 3.607 0 1.982 1.732 3.607 3.857 3.607 2.143 0 3.857-1.625 3.857-3.607 0-2-1.714-3.607-3.857-3.607z"></path>
</svg>
