<!-- Generated by IcoMoon.io -->
<svg version="1.1" xmlns="http://www.w3.org/2000/svg" width="32" height="32" viewBox="0 0 32 32">
<title>smashmag</title>
<path d="M0 6.549q0-0.8 0.512-1.472t1.312-0.832l6.304-1.504q-2.016 2.304-2.016 5.376 0 5.92 8.096 9.056 0.896 0.352 1.728 0.768t1.76 1.088 1.472 1.472 0.544 1.792q0 1.376-1.12 2.144t-2.56 0.768q-1.856 0-3.872-0.736t-3.36-1.92l-2.528 5.728q1.792 0.992 4.608 1.952-0.32 0.064-0.992 0.288t-1.248 0.32-1.024 0.096q-0.8 0-1.44-0.512t-0.864-1.312l-5.248-21.984q-0.064-0.384-0.064-0.576zM13.408 8.021q0-1.216 1.12-1.888t2.432-0.64q1.568 0 3.52 0.544t2.816 1.504l1.952-5.44q-2.88-1.536-5.952-2.016 0.064 0 1.44-0.384t2.304-0.576 1.344-0.192q0.8 0 1.472 0.512t0.832 1.312l5.248 21.984q0.064 0.384 0.064 0.576 0 0.8-0.512 1.44t-1.312 0.864l-4.64 1.088q1.504-2.24 1.504-4.864 0-3.552-2.24-5.856t-5.92-3.488q-5.472-1.856-5.472-4.48z"></path>
</svg>
