<!-- Generated by IcoMoon.io -->
<svg version="1.1" xmlns="http://www.w3.org/2000/svg" width="31" height="32" viewBox="0 0 31 32">
<title>smile-beam1</title>
<path d="M15.5 0.5c-8.563 0-15.5 6.938-15.5 15.5s6.938 15.5 15.5 15.5 15.5-6.938 15.5-15.5-6.938-15.5-15.5-15.5zM15.5 28.5c-6.894 0-12.5-5.606-12.5-12.5s5.606-12.5 12.5-12.5 12.5 5.606 12.5 12.5-5.606 12.5-12.5 12.5zM20.75 19.538c-1.3 1.563-3.219 2.462-5.25 2.462s-3.95-0.894-5.25-2.462c-0.531-0.637-1.475-0.719-2.113-0.194-0.638 0.531-0.719 1.475-0.194 2.113 1.875 2.25 4.631 3.538 7.556 3.538s5.681-1.288 7.556-3.538c0.531-0.637 0.444-1.581-0.194-2.113-0.637-0.525-1.581-0.444-2.113 0.194zM8.531 13.188c0.481-0.856 1.2-1.35 1.969-1.35s1.488 0.494 1.969 1.35l0.594 1.063c0.131 0.231 0.387 0.294 0.581 0.231 0.225-0.069 0.375-0.281 0.356-0.519-0.206-2.631-2.012-4.463-3.5-4.463s-3.294 1.831-3.5 4.463c-0.019 0.231 0.131 0.45 0.356 0.519 0.213 0.069 0.463-0.031 0.581-0.231l0.594-1.063zM20.5 9.5c-1.488 0-3.294 1.831-3.5 4.463-0.019 0.231 0.131 0.45 0.356 0.519 0.219 0.069 0.462-0.031 0.581-0.231l0.594-1.063c0.481-0.856 1.2-1.35 1.969-1.35s1.488 0.494 1.969 1.35l0.594 1.063c0.131 0.231 0.387 0.294 0.581 0.231 0.225-0.069 0.375-0.281 0.356-0.519-0.206-2.631-2.012-4.463-3.5-4.463z"></path>
</svg>
