<!-- Generated by IcoMoon.io -->
<svg version="1.1" xmlns="http://www.w3.org/2000/svg" width="31" height="32" viewBox="0 0 31 32">
<title>smile-wink1</title>
<path d="M15.5 0.5c-8.563 0-15.5 6.938-15.5 15.5s6.938 15.5 15.5 15.5 15.5-6.938 15.5-15.5-6.938-15.5-15.5-15.5zM15.5 28.5c-6.894 0-12.5-5.606-12.5-12.5s5.606-12.5 12.5-12.5 12.5 5.606 12.5 12.5-5.606 12.5-12.5 12.5zM22.863 19.35c-0.637-0.531-1.581-0.444-2.113 0.194-1.3 1.563-3.219 2.462-5.25 2.462s-3.95-0.894-5.25-2.462c-0.531-0.637-1.481-0.719-2.113-0.194-0.638 0.531-0.719 1.475-0.194 2.113 1.875 2.25 4.631 3.538 7.556 3.538s5.681-1.288 7.556-3.538c0.531-0.637 0.444-1.581-0.194-2.113zM10.5 15c1.106 0 2-0.894 2-2s-0.894-2-2-2-2 0.894-2 2 0.894 2 2 2zM20.5 11.25c-1.606 0-3.494 1.056-3.744 2.631-0.106 0.7 0.719 1.137 1.238 0.675l0.594-0.531c0.925-0.825 2.887-0.825 3.813 0l0.594 0.531c0.531 0.463 1.35 0.019 1.238-0.675-0.238-1.575-2.125-2.631-3.731-2.631z"></path>
</svg>
