<!-- Generated by IcoMoon.io -->
<svg version="1.1" xmlns="http://www.w3.org/2000/svg" width="28" height="32" viewBox="0 0 28 32">
<title>snowflake1</title>
<path d="M27.39 22.245l-4.161-2.409 3.715-0.645c0.365-0.086 0.663-0.324 0.841-0.633 0.155-0.269 0.219-0.592 0.158-0.916-0.132-0.695-0.793-1.127-1.476-0.967l-5.339 1.945-5.133-2.62 5.134-2.62 5.339 1.945c0.683 0.161 1.345-0.272 1.476-0.967s-0.315-1.388-0.999-1.549l-3.715-0.645 4.161-2.409c0.596-0.345 0.788-1.131 0.429-1.755s-1.134-0.85-1.73-0.505l-4.161 2.409 1.3-3.549c0.203-0.674-0.172-1.409-0.838-1.642s-1.37 0.125-1.573 0.799l-0.99 5.608-4.526 2.62v-5.241l4.349-3.664c0.481-0.513 0.437-1.304-0.097-1.765s-1.357-0.42-1.837 0.093l-2.415 2.904v-4.817c0-0.69-0.582-1.25-1.301-1.25s-1.301 0.56-1.301 1.25v4.817l-2.415-2.904c-0.481-0.513-1.303-0.555-1.837-0.093s-0.577 1.252-0.097 1.765l4.349 3.664v5.241l-4.526-2.62-0.99-5.609c-0.203-0.674-0.907-1.032-1.573-0.799s-1.041 0.968-0.838 1.642l1.3 3.549-4.161-2.409c-0.596-0.345-1.371-0.119-1.73 0.505s-0.167 1.409 0.429 1.755l4.161 2.409-3.716 0.646c-0.683 0.161-1.131 0.854-0.999 1.549s0.793 1.127 1.476 0.967l5.339-1.945 5.133 2.62-5.133 2.62-5.339-1.945c-0.683-0.161-1.344 0.272-1.476 0.967s0.315 1.388 0.999 1.549l3.716 0.645-4.161 2.409c-0.596 0.345-0.788 1.131-0.429 1.755s1.134 0.85 1.73 0.505l4.161-2.409-1.3 3.549c-0.108 0.36-0.052 0.738 0.126 1.047 0.155 0.269 0.402 0.486 0.712 0.595 0.666 0.233 1.37-0.125 1.573-0.799l0.99-5.608 4.526-2.62v5.241l-4.349 3.664c-0.481 0.513-0.437 1.303 0.097 1.765s1.357 0.42 1.837-0.093l2.415-2.904v4.818c0 0.69 0.582 1.25 1.301 1.25s1.301-0.56 1.301-1.25v-4.818l2.415 2.904c0.257 0.274 0.611 0.414 0.967 0.414 0.31 0 0.621-0.106 0.87-0.321 0.534-0.462 0.577-1.252 0.097-1.765l-4.349-3.664v-5.241l4.526 2.62 0.99 5.608c0.203 0.674 0.907 1.032 1.573 0.799s1.041-0.968 0.838-1.642l-1.3-3.549 4.161 2.409c0.596 0.345 1.371 0.119 1.73-0.505s0.167-1.409-0.429-1.755z"></path>
</svg>
