<!-- Generated by IcoMoon.io -->
<svg version="1.1" xmlns="http://www.w3.org/2000/svg" width="28" height="32" viewBox="0 0 28 32">
<title>snowflake</title>
<path d="M27.801 18.852c0.125-0.215 0.199-0.473 0.199-0.749 0-0.111-0.012-0.219-0.035-0.322l0.002 0.010c-0.17-0.81-0.959-1.328-1.761-1.156l-5.463 1.565-4.244-2.201 4.244-2.201 5.463 1.565c0.802 0.172 1.591-0.345 1.761-1.156s-0.342-1.607-1.144-1.779l-2.967-0.446 3.317-1.935c0.71-0.414 0.954-1.332 0.544-2.049s-1.318-0.963-2.028-0.549l-3.317 1.935 1.101-2.819c0.254-0.788-0.173-1.634-0.953-1.89s-1.618 0.175-1.871 0.963l-1.389 5.562-3.774 2.201v-4.402l4.073-3.997c0.549-0.616 0.499-1.564-0.11-2.118s-1.548-0.504-2.097 0.111l-1.866 2.373v-3.869c0-0.828-0.665-1.5-1.485-1.5s-1.485 0.672-1.485 1.5v3.869l-1.866-2.373c-0.549-0.616-1.487-0.666-2.097-0.111s-0.659 1.503-0.11 2.118l4.073 3.997v4.402l-3.774-2.201-1.389-5.562c-0.254-0.788-1.091-1.219-1.871-0.963s-1.207 1.103-0.953 1.89l1.101 2.819-3.317-1.935c-0.71-0.414-1.618-0.168-2.028 0.549s-0.167 1.635 0.543 2.049l3.317 1.935-2.967 0.446c-0.802 0.172-1.314 0.968-1.144 1.779s0.959 1.328 1.761 1.156l5.463-1.565 4.243 2.201-4.244 2.201-5.463-1.565c-0.802-0.172-1.591 0.345-1.761 1.156s0.342 1.607 1.144 1.779l2.967 0.446-3.317 1.935c-0.71 0.414-0.954 1.332-0.543 2.049s1.318 0.963 2.028 0.549l3.317-1.935-1.101 2.819c-0.046 0.139-0.073 0.298-0.073 0.464 0 0.276 0.074 0.535 0.203 0.757l-0.004-0.007c0.177 0.31 0.463 0.557 0.827 0.676 0.78 0.256 1.618-0.175 1.871-0.963l1.389-5.562 3.774-2.201v4.402l-4.073 3.997c-0.549 0.616-0.499 1.564 0.11 2.118s1.548 0.504 2.097-0.111l1.866-2.373v3.869c0 0.828 0.665 1.5 1.485 1.5s1.485-0.672 1.485-1.5v-3.869l1.866 2.373c0.271 0.305 0.665 0.497 1.103 0.497 0 0 0 0 0.001 0h-0c0 0 0 0 0.001 0 0.383 0 0.732-0.146 0.993-0.386l-0.001 0.001c0.61-0.554 0.659-1.503 0.11-2.118l-4.073-3.997v-4.402l3.774 2.201 1.39 5.562c0.254 0.788 1.091 1.219 1.871 0.963s1.206-1.102 0.953-1.89l-1.101-2.819 3.317 1.935c0.71 0.414 1.618 0.168 2.028-0.549s0.167-1.635-0.544-2.049l-3.317-1.935 2.967-0.446c0.429-0.092 0.775-0.362 0.978-0.718z"></path>
</svg>
