<!-- Generated by IcoMoon.io -->
<svg version="1.1" xmlns="http://www.w3.org/2000/svg" width="32" height="32" viewBox="0 0 32 32">
<title>songkick</title>
<path d="M0 17.077v-4.288t0.096-1.888 0.224-1.984 0.448-1.696 0.736-1.76 1.152-1.504 1.6-1.504q4.672-3.52 11.392-3.52h0.512v24.864h3.968v-6.656q0.224 0.352 1.248 2.016t1.632 2.56q0.928 1.28 2.048 1.696t2.912 0.416h1.152v-3.776q-1.44 0-2.016-0.224t-1.344-1.312q-0.448-0.576-1.184-1.824t-0.832-1.376l5.472-7.616h-4.736l-4.352 6.048v-14.496q4.32 0.704 7.616 3.2 0.928 0.704 1.632 1.504t1.12 1.504 0.768 1.76 0.448 1.696 0.224 1.984 0.064 1.888v4.288t-0.064 1.888-0.224 1.952-0.448 1.696-0.768 1.792-1.12 1.472-1.632 1.536q-4.672 3.52-11.744 3.52t-11.744-3.52q-0.928-0.704-1.6-1.536t-1.152-1.472-0.736-1.792-0.448-1.696-0.224-1.952-0.096-1.888zM2.592 21.845q2.112 2.144 6.144 2.144 2.56 0 4.416-1.312t1.824-3.776q0-1.632-0.576-2.72t-1.44-1.44-1.856-0.64-1.888-0.288-1.44-0.352-0.576-0.96q0-1.504 2.24-1.472 1.824 0 2.784 0.928l2.496-2.496q-1.92-1.92-5.44-1.92-2.496 0-4.192 1.312t-1.728 3.776q0 1.632 0.672 2.656t1.632 1.44 2.016 0.544 1.888 0.288 1.184 0.448q0.32 0.352 0.32 0.96 0 1.472-2.304 1.472-2.464 0-3.616-1.152z"></path>
</svg>
