<!-- Generated by IcoMoon.io -->
<svg version="1.1" xmlns="http://www.w3.org/2000/svg" width="28" height="32" viewBox="0 0 28 32">
<title>sort-alpha-down</title>
<path d="M11.706 24.707l-4.999 5c-0.391 0.39-1.024 0.39-1.414 0l-4.999-5c-0.629-0.629-0.181-1.707 0.707-1.707h2.999v-20c0-0.552 0.448-1 1-1h2c0.552 0 1 0.448 1 1v20h2.999c0.89 0 1.335 1.079 0.707 1.707zM19.148 13.457c-0.093 0.316-0.38 0.543-0.721 0.543h-2.232c-0.514 0-0.875-0.505-0.71-0.991l3.568-10.5c0.104-0.298 0.382-0.509 0.71-0.509 0 0 0 0 0 0h2.473c0.321 0 0.607 0.205 0.71 0.509l3.569 10.5c0.165 0.486-0.196 0.991-0.71 0.991h-2.233c0 0 0 0-0 0-0.339 0-0.625-0.225-0.718-0.534l-0.001-0.005-0.519-1.769h-2.679l-0.506 1.764zM20.577 8.538h0.835l-0.413-1.434-0.423 1.434zM21.363 26.496l4.216-5.981c0.086-0.12 0.137-0.27 0.137-0.432v0-1.333c0-0.414-0.336-0.75-0.75-0.75h-7.808c-0.414 0-0.75 0.336-0.75 0.75v1.808c0 0.414 0.336 0.75 0.75 0.75h3.529c-0.046 0.062-0.094 0.127-0.142 0.196l-4.2 5.95c-0.086 0.12-0.137 0.27-0.137 0.433 0 0 0 0 0 0v0 1.363c0 0.414 0.336 0.75 0.75 0.75h8.085c0.414 0 0.75-0.336 0.75-0.75v-1.808c0-0.414-0.336-0.75-0.75-0.75h-3.822c0.046-0.062 0.094-0.127 0.142-0.196z"></path>
</svg>
