<!-- Generated by IcoMoon.io -->
<svg version="1.1" xmlns="http://www.w3.org/2000/svg" width="32" height="32" viewBox="0 0 32 32">
<title>sort-by-attributes</title>
<path d="M13.143 25.333q0 0.214-0.179 0.429l-5.696 5.696q-0.179 0.161-0.411 0.161-0.214 0-0.411-0.161l-5.714-5.714q-0.268-0.286-0.125-0.625 0.143-0.357 0.536-0.357h3.429v-24.571q0-0.25 0.161-0.411t0.411-0.161h3.429q0.25 0 0.411 0.161t0.161 0.411v24.571h3.429q0.25 0 0.411 0.161t0.161 0.411zM32 27.619v3.429q0 0.25-0.161 0.411t-0.411 0.161h-14.857q-0.25 0-0.411-0.161t-0.161-0.411v-3.429q0-0.25 0.161-0.411t0.411-0.161h14.857q0.25 0 0.411 0.161t0.161 0.411zM28.571 18.476v3.429q0 0.25-0.161 0.411t-0.411 0.161h-11.429q-0.25 0-0.411-0.161t-0.161-0.411v-3.429q0-0.25 0.161-0.411t0.411-0.161h11.429q0.25 0 0.411 0.161t0.161 0.411zM25.143 9.333v3.429q0 0.25-0.161 0.411t-0.411 0.161h-8q-0.25 0-0.411-0.161t-0.161-0.411v-3.429q0-0.25 0.161-0.411t0.411-0.161h8q0.25 0 0.411 0.161t0.161 0.411zM21.714 0.19v3.429q0 0.25-0.161 0.411t-0.411 0.161h-4.571q-0.25 0-0.411-0.161t-0.161-0.411v-3.429q0-0.25 0.161-0.411t0.411-0.161h4.571q0.25 0 0.411 0.161t0.161 0.411z"></path>
</svg>
