<!-- Generated by IcoMoon.io -->
<svg version="1.1" xmlns="http://www.w3.org/2000/svg" width="32" height="32" viewBox="0 0 32 32">
<title>sort-amount-up</title>
<path d="M0.294 7.293l4.999-5c0.391-0.39 1.024-0.39 1.414 0l4.999 5c0.629 0.629 0.181 1.707-0.707 1.707h-2.999v20c0 0.552-0.448 1-1 1h-2c-0.552 0-1-0.448-1-1v-20h-2.999c-0.89 0-1.335-1.079-0.707-1.707zM15 6h16c0.552 0 1-0.448 1-1v-2c0-0.552-0.448-1-1-1h-16c-0.552 0-1 0.448-1 1v2c0 0.552 0.448 1 1 1zM14 13v-2c0-0.552 0.448-1 1-1h12c0.552 0 1 0.448 1 1v2c0 0.552-0.448 1-1 1h-12c-0.552 0-1-0.448-1-1zM14 29v-2c0-0.552 0.448-1 1-1h4c0.552 0 1 0.448 1 1v2c0 0.552-0.448 1-1 1h-4c-0.552 0-1-0.448-1-1zM14 21v-2c0-0.552 0.448-1 1-1h8c0.552 0 1 0.448 1 1v2c0 0.552-0.448 1-1 1h-8c-0.552 0-1-0.448-1-1z"></path>
</svg>
