<!-- Generated by IcoMoon.io -->
<svg version="1.1" xmlns="http://www.w3.org/2000/svg" width="28" height="32" viewBox="0 0 28 32">
<title>sort-numeric-up</title>
<path d="M19.301 7.112l-1.215-1.3c-0.283-0.302-0.267-0.776 0.035-1.059l2.715-2.546c0.134-0.126 0.314-0.203 0.513-0.203 0 0 0 0 0 0h1.974c0.414 0 0.75 0.336 0.75 0.75v7.942h1.604c0.414 0 0.75 0.336 0.75 0.75v1.808c0 0.414-0.336 0.75-0.75 0.75h-6.823c-0.414 0-0.75-0.336-0.75-0.75v-1.808c0-0.414 0.336-0.75 0.75-0.75h1.588v-3.621c-0.453 0.411-0.888 0.308-1.141 0.038zM17.39 22.022c0-2.041 1.492-4.21 4.256-4.21 2.391 0 4.964 1.804 4.964 5.764 0 3.205-2.015 6.611-5.749 6.611-1.115 0-1.909-0.222-2.409-0.424-0.362-0.146-0.549-0.547-0.433-0.919l0.577-1.843c0.127-0.406 0.566-0.624 0.967-0.482 0.814 0.288 1.742 0.33 2.381-0.259-2.421 0.317-4.555-1.585-4.555-4.239zM23.157 23.231c0-1.393-0.956-2.282-1.615-2.282-0.54 0-0.823 0.498-0.823 0.989 0 0.354 0.113 1.511 1.573 1.511 0.623 0 0.836-0.135 0.859-0.171 0.001-0.003 0.005-0.018 0.005-0.048zM1.001 9h2.999v20c0 0.552 0.448 1 1 1h2c0.552 0 1-0.448 1-1v-20h2.999c0.888 0 1.337-1.078 0.707-1.707l-4.999-5c-0.39-0.39-1.024-0.39-1.414 0l-4.999 5c-0.628 0.628-0.183 1.707 0.707 1.707z"></path>
</svg>
