<!-- Generated by IcoMoon.io -->
<svg version="1.1" xmlns="http://www.w3.org/2000/svg" width="37" height="32" viewBox="0 0 37 32">
<title>soundcloud1</title>
<path d="M0 19.061q0-0.512 0.128-1.408t0.288-0.992q0.192 0.096 0.352 1.024t0.128 1.376q0 0.448-0.128 1.344t-0.352 1.024q-0.416-0.224-0.416-2.368zM2.048 19.061q0-0.8 0.16-2.368t0.192-1.952q0-0.192 0.192-0.192 0.128 0 0.192 0.192 0.384 4.128 0.384 4.32 0 0.768-0.16 2.272t-0.224 1.888q-0.064 0.224-0.192 0.224-0.192 0-0.192-0.224-0.032-0.352-0.192-1.888t-0.16-2.272zM4.64 19.061q0-0.768 0.16-2.368t0.16-1.728q0-0.288 0.224-0.288 0.256 0 0.256 0.288 0.352 3.616 0.352 4.096t-0.352 4.352q0 0.256-0.256 0.256-0.224 0-0.224-0.256 0-0.224-0.16-1.888t-0.16-2.464zM7.584 19.061q0-1.216 0.064-2.592t0.128-3.040 0.096-2.592q0-0.32 0.288-0.32 0.32 0 0.32 0.32 0.032 0.512 0.192 3.552t0.128 4.672q0 0.832-0.16 2.464t-0.16 1.856q0 0.32-0.32 0.32-0.288 0-0.288-0.32-0.288-4.224-0.288-4.32zM10.592 19.061q0-1.76 0.096-5.12t0.128-4.096q0.064-0.384 0.384-0.384t0.384 0.384q0.032 1.024 0.16 4.256t0.096 4.96q0 0.8-0.096 2.304t-0.16 1.952q-0.064 0.384-0.384 0.384t-0.384-0.384q0-0.352-0.096-1.888t-0.128-2.368zM13.632 19.061q0-1.28 0.032-2.72t0.096-3.2 0.064-2.72q0.064-0.48 0.448-0.48t0.448 0.48q0.032 0.96 0.096 2.72t0.064 3.2 0.032 2.72q0 0.064-0.192 4.192v-0.032q-0.064 0.48-0.448 0.48t-0.448-0.448q-0.192-4.128-0.192-4.192zM16.672 19.093q0-0.096 0.192-11.232 0.064-0.576 0.512-0.576t0.512 0.576q0.192 11.136 0.192 11.232 0 0.032-0.192 4.064-0.064 0.544-0.512 0.544t-0.512-0.544q-0.192-4.032-0.192-4.064zM19.232 12.277q0-2.624 0.032-4.96-0.032-0.32 0.416-0.576t1.024-0.384 1.12-0.16 0.768-0.064q3.104 0 5.408 2.304t2.56 5.728q0.896-0.416 1.76-0.416 1.856 0 3.2 1.44t1.344 3.552-1.344 3.52-3.2 1.472h-12.576q-0.192 0-0.32-0.192t-0.16-0.416q0-1.76 0-4.992t-0.032-5.856z"></path>
</svg>
