<!-- Generated by IcoMoon.io -->
<svg version="1.1" xmlns="http://www.w3.org/2000/svg" width="28" height="32" viewBox="0 0 28 32">
<title>speakap</title>
<path d="M22 2h-16c-3.3 0-6 2.7-6 6v16c0 3.3 2.7 6 6 6h16c3.3 0 6-2.7 6-6v-16c0-3.3-2.7-6-6-6zM13.813 23.931c-2.475 0-5.119-1.113-5.119-3.356v-1.7h2.494v1.113c0 0.944 1.219 1.531 2.619 1.531 1.512 0 2.581-0.65 2.581-1.844 0-1.488-1.7-1.994-3.419-2.663-1.994-0.775-3.944-1.637-3.944-4.319 0-3 2.412-4.15 4.994-4.15 2.35 0 4.719 0.881 4.719 2.619v1.95h-2.494v-1.006c0-0.756-1.113-1.156-2.225-1.156-1.219 0-2.225 0.506-2.225 1.637 0 1.381 1.406 1.825 2.938 2.431 2.244 0.775 4.444 1.7 4.444 4.469 0.006 3.038-2.55 4.444-5.363 4.444z"></path>
</svg>
