<!-- Generated by IcoMoon.io -->
<svg version="1.1" xmlns="http://www.w3.org/2000/svg" width="32" height="32" viewBox="0 0 32 32">
<title>speech-bubble</title>
<path d="M29.333 20.667v-13.333c0-1.104-0.449-2.107-1.172-2.828s-1.724-1.172-2.828-1.172h-18.667c-1.104 0-2.107 0.449-2.828 1.172s-1.172 1.724-1.172 2.828v21.333c0 0.341 0.131 0.683 0.391 0.943 0.521 0.521 1.365 0.521 1.885 0l4.943-4.943h15.448c1.104 0 2.107-0.449 2.828-1.172s1.172-1.724 1.172-2.828zM26.667 20.667c0 0.368-0.148 0.7-0.391 0.943s-0.575 0.391-0.943 0.391h-16c-0.368 0-0.701 0.149-0.943 0.391l-3.057 3.057v-18.115c0-0.368 0.148-0.7 0.391-0.943s0.575-0.391 0.943-0.391h18.667c0.368 0 0.7 0.148 0.943 0.391s0.391 0.575 0.391 0.943z"></path>
</svg>
