<!-- Generated by IcoMoon.io -->
<svg version="1.1" xmlns="http://www.w3.org/2000/svg" width="32" height="32" viewBox="0 0 32 32">
<title>square-check</title>
<path d="M26.667 2h-21.333c-2.21 0-4 1.79-4 4v21.333c0 2.21 1.79 4 4 4h21.333c2.21 0 4-1.79 4-4v-21.333c0-2.21-1.79-4-4-4zM28 27.333c0 0.737-0.597 1.333-1.333 1.333h-21.333c-0.736 0-1.333-0.597-1.333-1.333v-21.333c0-0.736 0.597-1.333 1.333-1.333h21.333c0.737 0 1.333 0.597 1.333 1.333v21.333zM20.391 12.424l-5.657 5.657-2.828-2.828c-0.521-0.521-1.365-0.521-1.886 0s-0.521 1.365 0 1.885l3.77 3.771c0.521 0.521 1.365 0.521 1.886 0l6.6-6.6c0.521-0.52 0.521-1.364 0.001-1.885s-1.365-0.521-1.886-0z"></path>
</svg>
