<!-- Generated by IcoMoon.io -->
<svg version="1.1" xmlns="http://www.w3.org/2000/svg" width="32" height="32" viewBox="0 0 32 32">
<title>stack-2</title>
<path d="M5.333 26v-17.104c-1.553 0.547-2.667 2.027-2.667 3.77v13.333c0 2.21 1.79 4 4 4h13.333c1.743 0 3.223-1.113 3.77-2.667h-17.104c-0.737 0-1.333-0.597-1.333-1.333zM25.333 3.333h-13.333c-2.21 0-4 1.79-4 4v13.333c0 2.21 1.79 4 4 4h13.333c2.21 0 4-1.79 4-4v-13.333c0-2.21-1.79-4-4-4zM26.667 20.667c0 0.737-0.597 1.333-1.333 1.333h-13.333c-0.737 0-1.333-0.597-1.333-1.333v-13.333c0-0.737 0.597-1.333 1.333-1.333h13.333c0.737 0 1.333 0.597 1.333 1.333v13.333z"></path>
</svg>
