<!-- Generated by IcoMoon.io -->
<svg version="1.1" xmlns="http://www.w3.org/2000/svg" width="25" height="32" viewBox="0 0 25 32">
<title>stackoverflow</title>
<path d="M0 30.933v-13.344l2.432 0.032-0.096 10.72h16.032v-10.688h2.528v13.28h-20.896zM3.936 23.925h12.544v2.656h-12.544v-2.656zM3.968 21.845l0.256-2.72 12.576 1.216-0.256 2.72zM4.64 16.309l0.736-2.624 12.16 3.424-0.768 2.624zM6.912 9.877l1.408-2.336 10.816 6.528-1.44 2.336zM12.256 3.317l2.208-1.6 7.36 10.272-2.24 1.6zM20.32-0.619l2.688-0.448 2.080 12.448-2.688 0.448z"></path>
</svg>
