<!-- Generated by IcoMoon.io -->
<svg version="1.1" xmlns="http://www.w3.org/2000/svg" width="35" height="32" viewBox="0 0 35 32">
<title>statusnet</title>
<path d="M0 12.309q0-3.904 2.976-6.72 1.856-1.76 4.288-2.4t4.896 0.064 4.384 2.688q1.408 1.472 2.016 3.424t0.48 3.712-0.768 3.264q-0.608 1.312-0.096 2.976t1.28 2.848 1.632 2.176 0.832 1.056l-0.352-0.288q-0.32-0.32-0.672-0.64t-0.992-0.832-1.216-0.864-1.376-0.8-1.44-0.576-1.408-0.256-1.376 0.224q-1.504 0.608-3.296 0.64t-3.744-0.704-3.296-2.208q-2.752-2.912-2.752-6.784zM4.224 11.669q-0.288 2.208 1.088 4t3.552 2.048 3.968-1.056 2.048-3.584-1.056-3.968-3.552-2.048-3.968 1.056-2.080 3.552zM19.52 2.261q0.672-1.888 2.368-2.784t3.616-0.288q1.856 0.576 2.784 2.304t0.256 3.712q-0.768 2.304-3.648 3.328-0.992 0.352-1.76 1.088t-1.12 1.216-0.736 1.28q0.704-3.008-0.768-5.088-1.76-2.56-0.992-4.768zM20.736 18.101q0.064-2.944 2.016-4.96t4.864-2.016q2.848 0 4.864 1.984t2.016 4.992q0 3.52-3.52 6.24-1.216 0.928-1.984 2.272t-0.96 2.176-0.416 2.144q-0.128-1.28-0.32-2.144t-0.96-2.208-2.080-2.368q-3.552-2.656-3.52-6.112zM21.952 2.997q-0.352 0.864 0.032 1.76t1.216 1.216 1.728 0 1.216-1.216q0.352-0.896 0-1.76t-1.216-1.216-1.728 0-1.248 1.216zM24.096 19.477q0.576 1.44 2.080 2.080 1.472 0.608 2.944 0t2.080-2.112 0-2.912-2.080-2.112q-1.472-0.608-2.944 0t-2.080 2.080q-0.608 1.504 0 2.976z"></path>
</svg>
