<!-- Generated by IcoMoon.io -->
<svg version="1.1" xmlns="http://www.w3.org/2000/svg" width="28" height="32" viewBox="0 0 28 32">
<title>staylinked</title>
<path d="M12.6 7.963c0.256-0.2 0.644-0.188 0.863 0.031l10.456 10.287 2.769 2.581c0.231 0.219 0.206 0.563-0.044 0.762l-12.375 10.244c-0.619 0.475-1.081 0.050-1.081 0.050l-13.044-12.256c-0.219-0.219-0.188-0.563 0.075-0.762l2.862-2.181c0.263-0.2 0.65-0.188 0.869 0.031l9.494 9.219c0.231 0.219 0.625 0.231 0.887 0.025l5.825-4.625c0.256-0.2 0.281-0.544 0.056-0.762l-5.25-5.081c-0.225-0.219-0.619-0.231-0.875-0.031l-0.006 0.006c-0.256 0.2-0.65 0.188-0.875-0.031l-4.256-4.019c-0.219-0.219-0.194-0.563 0.069-0.762l3.581-2.725zM13.525 24.044c0.231 0.219 0.631 0.231 0.894 0.025l3.138-2.425-0.019-0.019 0.481-0.375c0.262-0.2 0.288-0.544 0.056-0.762l-3.569-3.4c-0.225-0.219-0.625-0.231-0.887-0.031l-0.006 0.006c-0.262 0.2-0.656 0.194-0.887-0.025l-5.912-5.738c-0.225-0.219-0.194-0.556 0.069-0.762l5.762-4.469c0.256-0.2 0.644-0.188 0.869 0.031l10.025 9.938c0.231 0.219 0.625 0.231 0.881 0.031l2.863-2.238c0.256-0.2 0.275-0.544 0.044-0.762l-13.156-12.912c-0.094-0.075-0.5-0.344-1.019 0.069l-12.925 10.131c-0.263 0.2-0.3 0.544-0.075 0.762l2.644 2.606z"></path>
</svg>
