<!-- Generated by IcoMoon.io -->
<svg version="1.1" xmlns="http://www.w3.org/2000/svg" width="42" height="32" viewBox="0 0 42 32">
<title>steam1</title>
<path d="M0 11.093q0-1.76 1.248-3.008t2.976-1.248q1.504 0 2.688 0.928t1.472 2.4l16.064 6.464q1.024-0.608 2.176-0.608 0.064 0 0.224 0t0.224 0.032l3.52-5.088q0.032-2.336 1.696-4t4-1.632q2.368 0 4.032 1.664t1.664 4.032-1.664 4.032-4.032 1.664l-5.44 3.968q-0.16 1.632-1.376 2.72t-2.848 1.12q-1.536 0-2.688-0.96t-1.472-2.4l-16.064-6.432q-1.024 0.608-2.176 0.608-1.76 0-2.976-1.248t-1.248-3.008zM1.12 11.093q0 1.28 0.928 2.176t2.176 0.928q0.288 0 0.672-0.064l-1.312-0.512v-0.032q-0.896-0.416-1.28-1.344-0.192-0.448-0.192-0.896 0-0.48 0.192-0.96 0.384-0.96 1.28-1.344 0.48-0.224 0.992-0.192 0.416 0 0.864 0.16v-0.032l1.568 0.64q-0.928-1.664-2.784-1.664-1.28 0-2.176 0.896t-0.928 2.24zM23.84 21.749q0.928 1.664 2.784 1.664 1.28 0 2.208-0.928t0.928-2.208-0.896-2.208-2.24-0.896q-0.448 0-0.672 0.064l1.28 0.512q0.96 0.384 1.376 1.344 0.224 0.48 0.224 0.96 0 0.448-0.192 0.928-0.384 0.992-1.344 1.376-0.48 0.192-0.96 0.192-0.448 0-0.928-0.192-0.256-0.096-0.768-0.32t-0.8-0.288zM32.48 11.029q0 1.568 1.12 2.688t2.688 1.12q1.6 0 2.72-1.12t1.12-2.688-1.12-2.688-2.72-1.12q-1.568 0-2.688 1.12t-1.12 2.688zM33.28 10.997q0 1.28 0.896 2.176t2.144 0.896 2.144-0.896 0.896-2.176q0-1.248-0.896-2.144t-2.144-0.896q-1.28 0-2.144 0.896t-0.896 2.144z"></path>
</svg>
