<!-- Generated by IcoMoon.io -->
<svg version="1.1" xmlns="http://www.w3.org/2000/svg" width="36" height="32" viewBox="0 0 36 32">
<title>sticker-mule</title>
<path d="M22.069 31.863c-0.369 0.181-2.006 0.2-2.281-0.031-0.256-0.188-0.137-0.744-0.094-0.938 0.137-0.938-0.156-0.494-0.613-0.719-0.194-0.094-0.256-0.344-0.288-0.625-0.031-0.094-0.063-0.156-0.094-0.219-0.106-0.669 0.425-2.1 0.512-2.712 0.306-1.481-0.044-2.325 0.094-2.931 0.231-1.012 0.256-0.219 0.256-1.869-0.087-1.619 0.206-2.306 0.031-2.431-0.925 0-4.019 0.669-7.012 0.125-2.881-0.556-3.713-1.813-4.088-1.931-0.644-0.281-1.45 0.031-1.706 0.438-0.006 0.006-2.188 4.412-2.475 5.488-0.388 1.281-0.031 2.962 0.256 4.175 0 0.006 0.281 0.913 0.644 1.219 0.131 0.094 0.319 0.156 0.45 0.281 0.175 0.169 0.588 0.95 0.612 1 0.162 0.281 0.225 0.5-0.094 0.656-0.225 0.125-0.581 0.156-0.9 0.156-0.162 0.031-0.094 0.219-0.194 0.313-0.181 0.175-1.294 0.381-1.869 0.156-0.163-0.063-0.356-0.188-0.388-0.313-0.094-0.25 0.131-0.563-0.063-0.781-0.281-0.181-0.819-0.125-1.063-0.75-0.137-0.337-0.163-0.475-0.163-3.087 0-0.606-0.369-2.419-0.512-2.931-0.094-0.344-0.094-0.719 0-1 0.019-0.056 0.256-0.288 0.256-0.813-0.063-0.094-0.287-0.031-0.319-0.094-0.65-5.037-0.369-4.938-0.481-6.144-0.094-1-0.681-2.744-0.419-4.019 0.031-0.15 0.213-1.313 1.512-2.431 1.937-1.669 3.025-2.394 9.938-0.719 0.069 0.025 4.144 1.319 6.919-0.563 0.969-0.706 1.8-0.706 2.219-1 0.006-0.006 3.856-3.256 5.438-4.081 2.95-1.837 4.369-1.044 4.694-1.125 0.294-0.063 0.837-1.613 1.063-1.613 0.344 0 0.1 1.262 0.225 1.619 0.031 0.125 0.225 0.313 0.388 0.313 0.144 0 0.106-0.050 0.644-0.313 0.525-0.338 0.931-1.1 1.288-1.063 0.731 0.1-1.188 2.6-1.188 2.931 0 0.125 0.013 0.050 0.288 0.594 0.163 0.344 0.288 0.844 0.388 1.25 0.519 1.856 0.356 0.912 0.837 2.306 1.263 3.131 1.288 2.825 1.288 3.306 0 0.469-0.256 0.688-0.45 1.031-0.094 0.188-0.288 0.469-0.45 0.5-0.169 0.044 0.438-0.094-0.837 0.156-0.45 0.063-0.837-0.281-0.931-0.594-0.1-0.294 0.175-0.631-0.737-1.431-0.644-0.625-1.319-0.706-1.994-1.063-0.613-0.356-0.744 0.063-1.125 0.5-1.125 1.431-2.125 2.931-3.25 4.363-0.738 0.938-1.512 1.9-2.094 2.962-0.244 0.425-0.594 1.756-0.644 1.869-0.387 1.106-0.344 1.613-1.031 4.269-0.194 0.625-0.356 1.337-0.544 2.025-0.137 0.425-0.462 3.081-0.031 3.712 0.131 0.219 0.544 0.281 0.706 0.5 0.006 0.006 0.6 1.137 0.581 1.25 0 0.381-0.587 0.35-0.706 0.406-0.3 0.181-0.238 0.369-0.4 0.462z"></path>
</svg>
