<!-- Generated by IcoMoon.io -->
<svg version="1.1" xmlns="http://www.w3.org/2000/svg" width="21" height="32" viewBox="0 0 21 32">
<title>stripe1</title>
<path d="M0.032 9.749q-0.352-4.832 4.032-8.064 2.016-1.504 4.64-2.24 2.496-0.736 5.6-0.352t5.792 1.888q-0.064 1.28 0 2.432 0.192 3.808-0.32 4.896-0.288-0.032-1.664-0.448-1.152-0.352-2.112-0.512-0.992-0.192-1.952-0.256-2.24-0.192-3.168 1.216 0.256 1.408 1.216 2.112 0.96 0.672 2.624 1.184 1.568 0.448 2.208 0.832 3.616 2.24 4.448 7.008v2.72q0 2.592-1.44 4.544t-3.776 2.976q-3.36 1.408-7.84 1.216t-7.648-1.888q0.096-1.312 0-2.528-0.096-1.344-0.064-2.592 0.064-1.376 0.384-2.208 0.576 0.096 1.536 0.352 1.696 0.48 2.368 0.608 5.28 1.152 5.664-1.28 0.096-0.704-0.352-1.312t-1.088-0.928q-0.896-0.448-1.536-0.704-0.928-0.384-1.184-0.544-1.408-0.736-1.888-1.024-1.824-1.088-2.56-2.176-1.728-2.464-1.92-4.928z"></path>
</svg>
