<!-- Generated by IcoMoon.io -->
<svg version="1.1" xmlns="http://www.w3.org/2000/svg" width="32" height="32" viewBox="0 0 32 32">
<title>strikethrough</title>
<path d="M31 18h-30c-0.552 0-1-0.448-1-1v-2c0-0.552 0.448-1 1-1h30c0.552 0 1 0.448 1 1v2c0 0.552-0.448 1-1 1zM17.583 19c1.704 0.809 2.908 1.793 2.908 3.515 0 2.069-1.811 3.355-4.726 3.355-2.020 0-4.805-0.755-4.805-2.767v-0.103c0-0.552-0.448-1-1-1h-2.851c-0.552 0-1 0.448-1 1v1.2c0 4.178 4.857 6.364 9.655 6.364 5.536 0 10.126-2.84 10.126-8.402 0-1.238-0.226-2.276-0.634-3.163h-7.673zM15.649 13c-2.026-0.844-3.552-1.809-3.552-3.73 0-2.12 1.931-2.963 4.060-2.963 2.665 0 4.060 1.037 4.060 2.062v0.132c0 0.552 0.448 1 1 1h2.851c0.552 0 1-0.448 1-1v-1.895c0-3.277-4.483-4.992-8.911-4.992-5.325 0-9.42 2.561-9.42 7.853 0 1.419 0.292 2.573 0.799 3.534h8.114z"></path>
</svg>
