<!-- Generated by IcoMoon.io -->
<svg version="1.1" xmlns="http://www.w3.org/2000/svg" width="40" height="32" viewBox="0 0 40 32">
<title>stripe</title>
<path d="M40 16.35c0-2.844-1.375-5.088-4.013-5.088s-4.244 2.244-4.244 5.069c0 3.344 1.894 4.887 4.594 4.887 1.325 0 2.319-0.3 3.075-0.719v-2.087c-0.756 0.381-1.625 0.613-2.725 0.613-1.081 0-2.031-0.381-2.156-1.681h5.431c0.013-0.144 0.038-0.725 0.038-0.994zM34.506 15.3c0-1.25 0.769-1.775 1.462-1.775 0.681 0 1.406 0.525 1.406 1.775h-2.869zM27.45 11.262c-1.087 0-1.788 0.512-2.175 0.869l-0.144-0.688h-2.444v12.8l2.775-0.587 0.006-3.137c0.4 0.294 0.994 0.7 1.962 0.7 1.988 0 3.8-1.45 3.8-4.975 0.006-3.225-1.831-4.981-3.781-4.981zM26.788 18.919c-0.65 0-1.038-0.238-1.306-0.525l-0.019-4.125c0.288-0.319 0.688-0.55 1.325-0.55 1.012 0 1.712 1.137 1.712 2.587 0.006 1.494-0.681 2.613-1.712 2.613zM21.65 7.75v2.262l-2.788 0.594v-2.262l2.788-0.594zM18.869 11.45h2.788v9.575h-2.788v-9.575zM15.881 12.269c0.65-1.194 1.944-0.95 2.319-0.819v2.55c-0.356-0.113-1.462-0.281-2.119 0.581v6.444h-2.769v-9.575h2.4l0.169 0.819zM10.319 11.45h2.106v2.363h-2.106v3.95c0 1.637 1.75 1.125 2.106 0.981v2.113c-0.369 0.2-1.037 0.369-1.95 0.369-1.644 0-2.881-1.063-2.881-2.706l0.013-8.9 2.706-0.575 0.006 2.406zM2.806 14.269c0 1.25 4.244 0.656 4.244 3.962 0 2-1.588 2.988-3.894 2.988-0.956 0-2-0.188-3.031-0.631v-2.5c0.931 0.506 2.119 0.887 3.038 0.887 0.619 0 1.063-0.169 1.063-0.681 0-1.325-4.219-0.825-4.219-3.9 0-1.963 1.5-3.138 3.75-3.138 0.919 0 1.838 0.144 2.756 0.506v2.612c-0.844-0.456-1.919-0.713-2.763-0.713-0.581 0.006-0.944 0.175-0.944 0.606z"></path>
</svg>
