<!-- Generated by IcoMoon.io -->
<svg version="1.1" xmlns="http://www.w3.org/2000/svg" width="42" height="32" viewBox="0 0 42 32">
<title>stumbleupon1</title>
<path d="M0 21.557v-5.792h7.168v5.728q0 0.896 0.64 1.536t1.568 0.672 1.6-0.64 0.64-1.568v-13.536q0-3.744 2.784-6.4t6.56-2.624 6.592 2.656 2.752 6.432v2.944l-4.288 1.28-2.848-1.344v-2.56q0-0.928-0.64-1.568t-1.568-0.64-1.568 0.64-0.672 1.568v13.344q0 3.84-2.752 6.56t-6.592 2.688q-3.872 0-6.624-2.72t-2.752-6.656zM23.168 21.653v-5.856l2.848 1.344 4.288-1.28v5.888q0 0.928 0.64 1.568t1.568 0.672 1.568-0.672 0.64-1.568v-5.984h7.168v5.792q0 3.872-2.72 6.624t-6.624 2.752-6.624-2.72-2.752-6.56z"></path>
</svg>
