<!-- Generated by IcoMoon.io -->
<svg version="1.1" xmlns="http://www.w3.org/2000/svg" width="32" height="32" viewBox="0 0 32 32">
<title>sun1</title>
<path d="M13.757 30.496l-1.263-3.089c-0.038-0.092-0.127-0.156-0.231-0.156-0.049 0-0.094 0.014-0.133 0.038l0.001-0.001-2.838 1.756c-1.842 1.14-4.143-0.532-3.628-2.636l0.794-3.242c0.005-0.018 0.007-0.039 0.007-0.060 0-0.132-0.102-0.239-0.231-0.249l-0.001-0-3.328-0.247c-2.16-0.16-3.039-2.866-1.386-4.265l2.547-2.156c0.054-0.046 0.089-0.114 0.089-0.191s-0.034-0.145-0.088-0.191l-0-0-2.547-2.156c-1.653-1.399-0.774-4.105 1.386-4.265l3.328-0.247c0.13-0.010 0.232-0.117 0.232-0.249 0-0.021-0.003-0.042-0.008-0.062l0 0.002-0.794-3.242c-0.515-2.103 1.786-3.776 3.628-2.636l2.838 1.756c0.037 0.024 0.083 0.038 0.132 0.038 0.104 0 0.193-0.064 0.231-0.154l0.001-0.002 1.263-3.089c0.82-2.004 3.665-2.005 4.485 0l1.263 3.089c0.038 0.092 0.127 0.156 0.231 0.156 0.049 0 0.094-0.014 0.133-0.038l-0.001 0.001 2.838-1.756c1.841-1.14 4.144 0.532 3.628 2.636l-0.794 3.242c-0.005 0.018-0.007 0.039-0.007 0.060 0 0.132 0.102 0.239 0.231 0.249l3.329 0.247c2.16 0.16 3.040 2.866 1.386 4.265l-2.547 2.156c-0.054 0.046-0.089 0.114-0.089 0.191s0.034 0.145 0.088 0.191l0 0 2.547 2.156c1.657 1.403 0.77 4.106-1.386 4.265l-3.328 0.247c-0.13 0.010-0.232 0.117-0.232 0.249 0 0.021 0.003 0.042 0.008 0.062l-0-0.002 0.794 3.241c0.515 2.104-1.786 3.776-3.628 2.636l-2.838-1.756c-0.037-0.024-0.083-0.038-0.132-0.038-0.104 0-0.193 0.064-0.231 0.154l-0.001 0.002-1.263 3.089c-0.822 2.011-3.667 2-4.485 0zM14.808 26.46l1.191 2.913 1.191-2.913c0.644-1.575 2.549-2.192 3.993-1.297l2.676 1.657-0.748-3.057c-0.405-1.653 0.774-3.271 2.468-3.397l3.139-0.233-2.403-2.034c-1.299-1.099-1.297-3.101 0-4.199l2.403-2.034-3.139-0.233c-1.697-0.126-2.872-1.747-2.468-3.397l0.749-3.057-2.676 1.657c-1.447 0.895-3.35 0.275-3.993-1.298l-1.191-2.913-1.191 2.914c-0.644 1.575-2.549 2.192-3.993 1.298l-2.676-1.657 0.749 3.057c0.405 1.653-0.774 3.271-2.468 3.397l-3.139 0.233 2.403 2.034c1.299 1.099 1.297 3.101 0 4.199l-2.403 2.034 3.139 0.233c1.697 0.126 2.872 1.747 2.468 3.397l-0.749 3.057 2.676-1.657c1.449-0.897 3.351-0.272 3.993 1.297zM16 24c-4.411 0-8-3.589-8-8s3.589-8 8-8c4.411 0 8 3.589 8 8s-3.589 8-8 8zM16 11c-2.757 0-5 2.243-5 5s2.243 5 5 5 5-2.243 5-5-2.243-5-5-5z"></path>
</svg>
