<!-- Generated by IcoMoon.io -->
<svg version="1.1" xmlns="http://www.w3.org/2000/svg" width="32" height="32" viewBox="0 0 32 32">
<title>superscript</title>
<path d="M24.7 16c0.216-0.658 1.175-1.33 2.267-2.027 1.039-0.663 2.217-1.414 3.146-2.429 1.091-1.191 1.622-2.511 1.622-4.035 0-3.785-3.169-5.509-6.113-5.509-2.656 0-4.774 1.376-5.902 3.153-0.291 0.458-0.162 1.065 0.289 1.367l1.895 1.269c0.439 0.294 1.029 0.193 1.352-0.226 0.501-0.65 1.176-1.139 1.979-1.139 1.212 0 1.642 0.806 1.642 1.497 0 2.26-7.465 3.564-7.465 10.001 0 0.416 0.035 0.813 0.088 1.208 0.067 0.498 0.49 0.87 0.992 0.87h10.508c0.552 0 1-0.448 1-1v-2c0-0.552-0.448-1-1-1h-6.3zM17 26c0.552 0 1 0.448 1 1v2c0 0.552-0.448 1-1 1h-3.9c-0.355 0-0.666-0.185-0.844-0.463l-0.002-0.004-2.856-4.538c-0.144-0.209-0.276-0.436-0.387-0.638-0.103 0.203-0.228 0.434-0.367 0.661l-2.795 4.509c-0.179 0.286-0.493 0.473-0.85 0.473 0 0 0 0 0 0h-3.999c-0.552 0-1-0.448-1-1v-2c0-0.552 0.448-1 1-1h1.645l3.534-5.169-3.298-4.831h-1.882c-0.552 0-1-0.448-1-1v-2c0-0.552 0.448-1 1-1h4.3c0 0 0 0 0 0 0.359 0 0.674 0.189 0.85 0.473l0.002 0.004 2.493 4.070c0.13 0.22 0.253 0.448 0.358 0.648 0.111-0.203 0.245-0.435 0.39-0.659l2.521-4.065c0.179-0.286 0.493-0.473 0.85-0.473 0 0 0 0 0 0h4.236c0.552 0 1 0.448 1 1v2c0 0.552-0.448 1-1 1h-1.749l-3.293 4.729 3.665 5.271h1.377z"></path>
</svg>
