<!-- Generated by IcoMoon.io -->
<svg version="1.1" xmlns="http://www.w3.org/2000/svg" width="32" height="32" viewBox="0 0 32 32">
<title>swatchbook</title>
<path d="M29.941 20h-6.673l-11.634 11.657c-0.129 0.129-0.281 0.224-0.417 0.343h18.724c1.102 0 1.996-0.896 1.996-2v-8c0-1.104-0.894-2-1.996-2zM27.16 10.444l-5.646-5.657c-0.779-0.781-2.043-0.781-2.823 0l-4.719 4.728v16.485c0 0.185-0.042 0.358-0.054 0.54l13.242-13.268c0.779-0.781 0.779-2.048 0-2.829zM11.976 2c0-1.104-0.894-2-1.996-2h-7.984c-1.103 0-1.996 0.896-1.996 2v24c0 3.314 2.681 6 5.988 6s5.988-2.686 5.988-6v-24zM5.988 27.5c-0.827 0-1.497-0.672-1.497-1.5s0.671-1.5 1.497-1.5 1.497 0.671 1.497 1.5c0.001 0.828-0.67 1.5-1.497 1.5zM7.984 16h-3.992v-4h3.993v4zM7.984 8h-3.992v-4h3.993v4z"></path>
</svg>
