<!-- Generated by IcoMoon.io -->
<svg version="1.1" xmlns="http://www.w3.org/2000/svg" width="32" height="32" viewBox="0 0 32 32">
<title>sync</title>
<path d="M27.558 0.786l0.248 5.173c-2.843-3.34-7.077-5.459-11.806-5.459-7.574 0-13.879 5.433-15.232 12.614-0.087 0.461 0.269 0.886 0.738 0.886h3.068c0.348 0 0.649-0.24 0.73-0.579 1.159-4.833 5.504-8.421 10.696-8.421 3.806 0 7.157 1.928 9.132 4.863l-6.346-0.304c-0.428-0.021-0.786 0.321-0.786 0.749v2.963c0 0.414 0.336 0.75 0.75 0.75h12.521c0.414 0 0.75-0.336 0.75-0.75v-12.521c0-0.414-0.336-0.75-0.75-0.75h-2.963c-0.428 0-0.77 0.358-0.749 0.786zM16 27c-3.806 0-7.157-1.929-9.132-4.863l6.367 0.304c0.428 0.020 0.786-0.321 0.786-0.749v-2.963c0-0.414-0.336-0.75-0.75-0.75h-12.521c-0.414 0-0.75 0.336-0.75 0.75v12.521c0 0.414 0.336 0.75 0.75 0.75h2.962c0.429 0 0.77-0.359 0.749-0.787l-0.258-5.161c2.843 3.334 7.073 5.448 11.797 5.448 7.574 0 13.879-5.433 15.232-12.614 0.087-0.461-0.269-0.886-0.738-0.886h-3.068c-0.348 0-0.649 0.24-0.73 0.579-1.159 4.833-5.504 8.421-10.696 8.421z"></path>
</svg>
