<!-- Generated by IcoMoon.io -->
<svg version="1.1" xmlns="http://www.w3.org/2000/svg" width="32" height="32" viewBox="0 0 32 32">
<title>tasks1</title>
<path d="M18.286 24.762h11.429v-2.286h-11.429v2.286zM11.429 15.619h18.286v-2.286h-18.286v2.286zM22.857 6.476h6.857v-2.286h-6.857v2.286zM32 21.333v4.571q0 0.464-0.339 0.804t-0.804 0.339h-29.714q-0.464 0-0.804-0.339t-0.339-0.804v-4.571q0-0.464 0.339-0.804t0.804-0.339h29.714q0.464 0 0.804 0.339t0.339 0.804zM32 12.19v4.571q0 0.464-0.339 0.804t-0.804 0.339h-29.714q-0.464 0-0.804-0.339t-0.339-0.804v-4.571q0-0.464 0.339-0.804t0.804-0.339h29.714q0.464 0 0.804 0.339t0.339 0.804zM32 3.048v4.571q0 0.464-0.339 0.804t-0.804 0.339h-29.714q-0.464 0-0.804-0.339t-0.339-0.804v-4.571q0-0.464 0.339-0.804t0.804-0.339h29.714q0.464 0 0.804 0.339t0.339 0.804z"></path>
</svg>
