<!-- Generated by IcoMoon.io -->
<svg version="1.1" xmlns="http://www.w3.org/2000/svg" width="32" height="32" viewBox="0 0 32 32">
<title>tasks</title>
<path d="M13 8.25h18c0.55 0 1-0.45 1-1v-2.5c0-0.55-0.45-1-1-1h-18c-0.55 0-1 0.45-1 1v2.5c0 0.55 0.45 1 1 1zM13 18.25h18c0.55 0 1-0.45 1-1v-2.5c0-0.55-0.45-1-1-1h-18c-0.55 0-1 0.45-1 1v2.5c0 0.55 0.45 1 1 1zM13 28.25h18c0.55 0 1-0.45 1-1v-2.5c0-0.55-0.45-1-1-1h-18c-0.55 0-1 0.45-1 1v2.5c0 0.55 0.45 1 1 1zM4 23c-1.656 0-3.038 1.344-3.038 3s1.381 3 3.038 3 3-1.344 3-3-1.344-3-3-3zM9.781 4.313l-5.487 5.488c-0.294 0.294-0.806 0.294-1.1 0l-2.975-2.963c-0.294-0.294-0.294-0.769 0-1.063l0.981-0.981c0.294-0.294 0.769-0.294 1.063 0l1.419 1.381 3.981-3.956c0.294-0.294 0.769-0.294 1.063 0l1.063 1.031c0.287 0.294 0.287 0.769-0.006 1.063zM9.781 14.287l-5.494 5.494c-0.294 0.294-0.806 0.294-1.1 0l-2.969-2.969c-0.294-0.294-0.294-0.769 0-1.063l0.981-0.981c0.294-0.294 0.769-0.294 1.062 0l1.419 1.381 3.981-3.981c0.294-0.294 0.769-0.294 1.063 0l1.063 1.063c0.287 0.287 0.287 0.762-0.006 1.056z"></path>
</svg>
