<!-- Generated by IcoMoon.io -->
<svg version="1.1" xmlns="http://www.w3.org/2000/svg" width="32" height="32" viewBox="0 0 32 32">
<title>teamspeak</title>
<path d="M0.051 14.864c0.147-0.97 0.668-1.69 1.555-2.127 0.219-0.116 0.353-0.219 0.398-0.488 0.386-2.088 1.221-3.996 2.461-5.724 0.147-0.199 0.251-0.334 0.064-0.584-0.231-0.334-0.064-0.636 0.186-0.906 1.754-1.992 3.868-3.444 6.374-4.215 5.988-1.837 11.256-0.584 15.773 3.778 0.418 0.398 0.97 0.803 0.437 1.522-0.084 0.116 0.064 0.219 0.135 0.315 1.291 1.754 2.139 3.714 2.525 5.853 0.051 0.231 0.186 0.315 0.366 0.398 1.086 0.553 1.606 1.459 1.626 2.641 0 1.073 0.116 2.159-0.064 3.232-0.251 1.542-1.824 2.609-3.328 2.294-0.45-0.102-0.584-0.45-0.584-0.887 0-1.754 0.051-3.527 0-5.287-0.116-4.735-2.261-8.301-6.392-10.588-6.939-3.779-15.825 0.436-17.361 8.217-0.379 1.901-0.109 3.017-0.231 7.864-0.019 0.45-0.27 0.7-0.752 0.719-1.927 0.084-3.238-1.137-3.238-3.064v-1.304zM13.859 23.197c0.739-0.27 1.253-0.739 1.407-1.523 0.148-0.771-0.752-1.876-2.024-3.046-1.304-1.201-3.014-2.441-3.964-2.911-1.356-0.752-2.609-0.116-2.891 1.42-0.315 1.638 0 3.212 0.906 4.619 0.636 0.97 1.587 1.42 2.711 1.503 0.726 0.039 3.284 0.135 3.856-0.064zM21.973 23.544c2.281 0.176 3.708-1.784 3.649-3.778-0.134-2.823-4.136-1.030-5.487-0.501-4.572 1.759-2.816 3.433-1.387 3.797zM28.077 22.978c-0.186-0.148-0.45-0.064-0.521 0.148-0.501 1.587-2.795 7.029-10.755 7.594-9.354 0.656 5.018 2.724 9.085-0.398 1.42-1.086 2.975-2.191 2.911-5.339-0.020-0.629-0.302-1.67-0.72-2.004z"></path>
</svg>
