<!-- Generated by IcoMoon.io -->
<svg version="1.1" xmlns="http://www.w3.org/2000/svg" width="28" height="32" viewBox="0 0 28 32">
<title>text-width</title>
<path d="M1 2h26c0.552 0 1 0.448 1 1v6c0 0.552-0.448 1-1 1h-2.218c-0.552 0-1-0.448-1-1v-3h-7.423v8h2.141c0.552 0 1 0.448 1 1v2c0 0.552-0.448 1-1 1h-9c-0.552 0-1-0.448-1-1v-2c0-0.552 0.448-1 1-1h2.141v-8h-7.423v3c0 0.552-0.448 1-1 1h-2.219c-0.552 0-1-0.448-1-1v-6c0-0.552 0.448-1 1-1zM27.707 23.293l-5-5c-0.583-0.583-1.707-0.27-1.707 0.707v3h-14v-2.999c0-0.894-1.082-1.332-1.707-0.707l-5 5c-0.39 0.39-0.39 1.024 0 1.414l5 5c0.583 0.583 1.707 0.27 1.707-0.707v-3h14v2.999c0 0.894 1.082 1.332 1.707 0.707l5-5c0.39-0.39 0.39-1.024 0-1.414z"></path>
</svg>
