<!-- Generated by IcoMoon.io -->
<svg version="1.1" xmlns="http://www.w3.org/2000/svg" width="36" height="32" viewBox="0 0 36 32">
<title>text-height</title>
<path d="M1 2h18c0.552 0 1 0.448 1 1v6c0 0.552-0.448 1-1 1h-2.218c-0.552 0-1-0.448-1-1v-3h-3.423v20h2.141c0.552 0 1 0.448 1 1v2c0 0.552-0.448 1-1 1h-9c-0.552 0-1-0.448-1-1v-2c0-0.552 0.448-1 1-1h2.141v-20h-3.423v3c0 0.552-0.448 1-1 1h-2.219c-0.552 0-1-0.448-1-1v-6c0-0.552 0.448-1 1-1zM30.707 2.293l5 5c0.625 0.625 0.187 1.707-0.707 1.707h-2.999v14h3c0.977 0 1.29 1.124 0.707 1.707l-5 5c-0.39 0.39-1.024 0.39-1.414 0l-5-5c-0.625-0.625-0.187-1.707 0.707-1.707h2.999v-14h-3c-0.977 0-1.29-1.124-0.707-1.707l5-5c0.39-0.391 1.024-0.39 1.414 0z"></path>
</svg>
