<!-- Generated by IcoMoon.io -->
<svg version="1.1" xmlns="http://www.w3.org/2000/svg" width="32" height="32" viewBox="0 0 32 32">
<title>the-red-yeti</title>
<path d="M30.276 15.109l1.291 0.446c-0.598-1.494-1.496-2.31-1.983-2.797l0.446-1.137c0.016 0 0.767-1.737-0.154-1.921-0.039-0.709-0.412-1.691-1.152-1.691-0.476-0.661-1.107-0.769-1.921-0.369-0.553 0.261-1.107 0.63-1.583 1.030-0.331-0.402-0.184 0.024-0.184-1.86-2.317-1.518-2.837-0.733-4.672 0.184l0.031 0.031c-1.322-0.476-2.751-0.753-4.273-0.83-0.347-0.544-1.162-1.194-1.567-1.567l1.552 0.446c-0.343-0.343-1.674-0.807-2.136-0.953 1.137-0.257 1.861-1.298 2.659-2.059-2.183-0.63-4.242-0.369-6.117 0.737l0.738-2.767-0.108-0.030c-1.975 1.51-2.062 2.619-2.106 2.843-0.057-0.149-0.395-1.226-0.953-1.691-0.215 0.553-0.215 1.076-0.031 1.583 0.184 0.522 0.369 0.922 0.522 1.184-1.002-0.206-1.772-0.306-3.074 0h-0.231l2.059 0.891c-1.291 1.214-2.244 2.613-2.92 4.211l-0.107 0.523 0.107 0.107 0.476-0.292c-0.208 0.727-0.329 1.212-0.415 1.614-0.707 0.799-1.276 1.629-1.737 2.521-0.936 0.063-1.989 0.674-2.521 0.891l0.184 0.215 1.798 0.061c-0.031 0.061-0.046 0.138-0.077 0.2-0.456 0.399-2.486 2.353-2.059 5.041l1.261-1.399c0.031 0.108 0.046 0.215 0.077 0.323 0 1.596 0.023 5.602 4.058 9.406 2.736 2.506 6.010 3.767 9.852 3.767 7.608 0 13.941-5.456 13.941-13.218 0.425-0.608-0.078 0.189 1.045-1.567l0.814 0.891 0.154-0.031c-0.108-0.707-0.292-1.399-0.553-2.136-0.139-0.4-0.293-0.646-0.431-0.83zM29.308 12.526l-0.891-0.738 1.137-0.077-0.246 0.814zM24.635 6.947l-0.031 1.368c0.345 1.133 1.055 1.076 1.399 1.076l-0.215-0.292 1.399-0.338c-0.63 0.031-1.184 0.031-1.691 0 0.801-0.133 2.082-1.814 2.69-0.707 0.215 0.476 0.399 1.076 0.584 1.737l0.108-0.369c-0.077-0.261-0.108-0.584-0.108-0.953 0.338 0.031 0.553 0.215 0.584 0.63 0.031 0.399 0.108 0.922 0.215 1.583l0.292-0.707c0.287 0 0.279-0.226-0.154 1.291-1.306-0.544-2.193-0.522-2.905-0.522l1.137-0.999c-1.58 0.509-2.064 0.675-3.428 1.306-0.067-0.338-0.311-0.844-0.999-1.245-0.199 0.239-0.172 0.056-0.046 0.922h-0.154c-0.077-0.523-0.261-0.999-0.523-1.445l0.261-0.215c0.523-0.446 0.738-0.891 0.661-1.368-0.031-0.399-0.338-0.846-0.846-1.291 0.354-0.2 0.953-0.016 1.768 0.537zM22.161 6.317c0.168 0.12 0.712 0.336 1.184 1.076 0.262 0.525 0.249 0.613 0.215 0.692-0.030 0.151-0.029 0.271-0.184 0.446-0.108 0.154-0.338 0.292-0.738 0.476-0.476-0.814-1.030-1.476-1.737-1.952l1.26-0.737zM5.453 8.945l0.077-0.107c0.077-0.184 0.261-0.476 0.584-0.953l0.154-0.215-0.814 0.769 0.338-0.292-0.63 0.584-0.261 0.077c0.769-1.506 1.445-2.582 2.029-3.136 0.584-0.584 0.999-0.999 1.261-1.214l-0.399 0.077c-0.707-0.261-1.214-0.446-1.553-0.522 0.154-0.031 0.231-0.031 0.2-0.031 0.646 0 1.091 0.031 1.306 0.077 0.338 0.107 0.661 0.154 0.999 0.154l0.031-0.107-0.522-2.244 0.846 1.814c0.107-0.154 0.261-0.446 0.369-0.891 0.107-0.399 0.338-0.814 0.63-1.214s0.476-0.661 0.584-0.707c-0.184 0.553-0.292 1.076-0.399 1.583l-0.107 0.446-0.031 0.292 0.154 0.154c1.368-0.846 2.843-1.214 4.457-1.184l1.322 0.031c-0.738 0.846-1.737 1.368-3.028 1.552-0.538 0.092-1.014 0.154-1.46 0.184l-0.016-0.031-0.154-0.077c-0.322-0.061-0.615-0.016-0.876 0.123-0.154-0.016-0.307-0.031-0.446-0.046l-0.154 0.107 0.031 0.077c0.123 0.016 0.246 0.031 0.384 0.046l-0.123 0.215 0.215-0.031-0.661 0.707c-0.261 0.184-0.338 0.399-0.261 0.584l0.338-0.215h0.077c0.399-0.522 0.953-0.846 1.583-0.953v-0.184c0.399 0.031 0.814 0.061 1.214 0.077 0.399 0 0.523 0.031 0.338 0.077 0.476 0.261 0.891 0.553 1.291 0.846 0.846 0.63 1.476 1.368 1.875 2.213 0.553 1.137 0.846 2.321 0.846 3.535 0 0.63-0.077 1.214-0.184 1.768-0.147 0.674-0.488 1.851-0.999 2.874l0.154 0.031c1.139-1.229 2.619-0.999 3.074-0.999l-0.399 0.369 1.399 1.107-0.108 1.921c-0.338-0.769-1.030-1.322-2.059-1.737 1.030 0.922 1.476 1.322 1.368 1.261-0.301-0.176-0.221-0.117-0.676-0.231 0.258 0.258 1.091 1.174 1.137 1.291l0.016 0.016-0.016 0.016c0 0.11 0.098-0.074-0.876 1.429-4.697-0.957-6.641-2.671-8.822-3.95l0.738 0.077c-0.734-1.158-0.977-1.107-2.397-1.629l0.661-0.523c-0.553-0.184-1.138-0.184-1.768 0.031l0.476-0.661-0.077-0.107c-0.931 0.271-1.241 0.573-1.414 0.707-0.071-0.341-0.173-0.777-0.769-1.798l-0.077 1.691-0.846-0.338c0.092-1.569 0.338-3.152 0.829-4.659zM22.729 29.572c-3.12 1.56-3.508 1.401-3.689 1.491-1.86-0.738-3.181-1.983-3.966-3.673l1.875 1.030c-0.611-0.582-1.146-1.034-2.398-2.767l0.738 1.445-1.107-0.476c0.887 1.317 1.467 3.234 4.165 4.596-7.548 1.509-12.439-4.507-12.557-4.642 0.707 0.584 1.445 1.107 2.213 1.552 0.215 0.108 0.446 0.154 0.63 0.077l-0.999-1.291c0.577 0.262 0.593 0.281 4.319 1.814-2.659-1.291-4.611-2.551-5.825-3.766-0.031 0.399-0.077 0.63-0.077 0.63 0.553 0.476 0.999 1.030 1.291 1.66-2.441-1.178-3.599-2.976-4.457-5.164 3.118 3.444 7.428 2.343 7.531 2.321 2.174 1.027 4.367 1.476 7.116 0.661 0.207 0 1.269 1.061 1.583 2.444l0.261-0.184-0.154-1.476c0.559 0.559 1.556 1.41 2.152 0.814-0.974-0.332-1.47-0.593-1.844-1.983 0.286 0.262 0.473 0.566 1.737 0.938l0.077-0.077-0.661-0.891c0.728-0.303-0.221 0.063 1.998-0.676 0.271 2.139 0.566 3.072 0.046 5.595zM29.938 16.169l-0.154 0.031 0.184 0.584c-0.222 0.367-1.483 2.766-4.473 4.98-2.471 1.86-4.786 2.446-5.057 2.521l-0.476-0.446-0.077 0.184 0.891 0.999-0.446-0.292 0.215 0.261h-0.077l-1.368-0.846 0.584 1.66-1.184-1.737-0.077 0.154 0.476 1.814c-0.382-0.515-1.314-2.038-3.551-2.474l2.029 1.322c-1.998 0.292-3.95 0.154-5.825-0.399-0.261-0.077-0.553-0.154-0.846-0.261l0.077-0.184-2.797-1.399 1.629 1.399c-3.604 0.567-7.060-1.588-7.9-5.211l-0.154-1.030-1.397 1.399c1.217-3.594 1.601-3.618 3.212-4.381-0.568-0.333-0.097-0.204-2.397-0.584 0.986-0.362 2.066-0.965 4.565 0.322 0.184-0.092 0.134-0.069 0.231-0.107 0.040-0.199 0.026-0.051 0.061-0.738 0.243 0.626 0.227 0.542 0.184 0.584l0.107 0.031c0.793-0.406 0.558-0.283 1.061-0.553l-0.338 0.846 1.399-0.369-0.522 0.523 0.154 0.154c0.281-0.113 1.897 0.214 2.551 0.999l-1.476-0.154c2.462 1.436 3.216 3.373 3.489 4.349l0.107-0.077c-0.178-1.392-0.773-2.117-0.999-2.505 0.264 0.312 2.45 2.16 6.901 2.874-0.707-0.031-1.445 0.338-2.183 1.184l2.92-1.261-0.584 1.368c0.476-0.63 0.922-1.476 1.322-2.474v-0.031l0.077-0.184-0.077 0.999c0.846-2.613 1.583-4.903 2.213-6.855l0.846-1.737v-0.123l-0.338-0.261h0.63l0.369 0.261 0.154-0.077-0.215-0.999 0.769 1.184 2.613-1.261-0.922 0.814 0.031 0.184 1.107-0.031c0.707 0.031 1.368 0.107 2.059 0.261l-1.476 0.154-0.077 0.184 1.66 1.445c0.63 0.63 1.184 1.291 1.691 1.998-0.703-0.206-0.642-0.215-1.322-0.215l0.769 2.029-0.554-0.799zM12.569 10.605c-2.178 0.901-2.171 0.874-2.259 0.891-1.302 0.296-1.186-1.527-1.184-1.553l0.369-0.077-0.031-0.154c-1.261-0.166-1.939 0.261-2.029 0.307 0.031 0.031 0.184 0.215 0.369 0.584 0.261-0.399 0.553-0.63 0.953-0.661-0.107 0.707-0.077 1.399 0.107 2.106 0.004 0.032 0.161 1.090 1.721 1.506 0.707 0.184 1.691 0.077 3.059-0.338l-0.584 0.031c-0.261-0.922-0.399-1.553-0.369-1.844 0.707-0.553 1.368-0.707 1.921-0.476h0.154l-0.738-0.476-0.446 0.031c-0.369 0.077-0.769 0.261-1.214 0.522l0.199-0.399zM13.261 5.179l-0.154 0.031 0.031 0.184c0.522-0.031 1.076 0.077 1.629 0.369-0.156-0.346-0.623-0.891-1.768-0.891l0.031 0.154 0.231 0.154zM9.065 8.684c-0.252-0.397-0.193-0.316-0.292-0.415 1.356 1.047 1.030 1.338 2.905 1.476l-0.184-0.292c0.553-0.476 0.846-1.076 0.922-1.768 0.107-0.999-0.077-1.844-0.553-2.582l0.814-0.476c0-0.031 0-0.077-0.031-0.107-0.292-0.107-0.584-0.077-0.846 0.107-0.793 0.417-1.749 1.309-1.814 1.399-0.107 0.107-0.215 0.369-0.338 0.846-0.107 0.446-0.184 0.923-0.184 1.476-0.293-0.497-0.658-0.4-1.245-0.369l0.446 0.476c-1.029 0-1.457 0.964-1.476 0.999 0.426-0.001 0.287-0.475 1.875-0.769zM9.941 7.101c0.077-0.476 0.215-0.814 0.399-1.076 0.338-0.399 0.661-0.63 0.999-0.737 0.261-0.107 0.446 0.077 0.63 0.584 0.154 0.476 0.215 1.030 0.184 1.583-0.031 0.584-0.215 1.076-0.523 1.445-0.184 0.215-0.338 0.369-0.399 0.476-0.292 0.031-0.523 0-0.707-0.031l-0.446-0.215-0.338-0.399c0.062-0.631 0.092-1.184 0.2-1.63zM13.861 5.764c-0.399-0.215-0.661 0.184-0.769 1.184s0.154 1.844 0.738 2.474c0.584 0.63 1.137 0.661 1.629 0.184s0.215-1.476-0.707-2.982c-0.199-0.338-0.492-0.63-0.891-0.861zM13.569 8.653c0.335 0.139 0.657 0.119 0.769-0.661v-0.292l-0.077 0.031c-0.268-0.191-0.159-0.281-0.107-0.384l0.031-0.031c-0.055-0.077-0.314-0.507-0.784 0.292-0.031-0.846 0.031-1.368 0.184-1.553 0.077-0.154 0.292-0.077 0.707 0.261 0.399 0.338 0.707 0.999 0.953 2.029 0.412 1.754-1.231 1.641-1.676 0.307zM10.756 8.315c0.098 0.019 0.584-0.068 0.584-0.923h-0.031c-0.34-0.068-0.14-0.342-0.046-0.369-0.107-0.184-0.215-0.261-0.338-0.292-0.509 0-0.728 0.791-0.508 1.322 0.078 0.154 0.201 0.231 0.339 0.261zM13.63 12.158c0.107 0.661 0.292 1.107 0.553 1.368-0.579 0.413-1.721 0.866-2.905 0.999l0.031 0.077c0.522 0.077 1.030 0.031 1.553-0.154l-0.446 0.814c0.261-0.107 0.63-0.446 1.107-0.922 0.746-0.344 0.795-0.317 1.261-0.999-0.796-0.411-0.985-0.864-1.153-1.183z"></path>
</svg>
