<!-- Generated by IcoMoon.io -->
<svg version="1.1" xmlns="http://www.w3.org/2000/svg" width="28" height="32" viewBox="0 0 28 32">
<title>themeco</title>
<path d="M12.484 0.768c0.609-0.352 1.599-0.358 2.212-0.013l11.758 6.622c0.613 0.345 1.11 1.196 1.11 1.899v13.367c0 0.704-0.496 1.556-1.107 1.904l-11.764 6.696c-0.611 0.348-1.599 0.343-2.206-0.013l-11.389-6.67c-0.607-0.356-1.099-1.214-1.099-1.918v-13.366c0-0.704 0.494-1.56 1.102-1.912l11.382-6.596zM7.721 13.063c-0.981 0-1.962 0.009-2.942 0.009v6.242h1.177v-1.837h1.766c3.059 0 3.049-4.414 0-4.414zM16.344 19.233l-1.891-2.131c2.275-0.462 2.141-4.013-0.669-4.031-0.99 0-1.979-0.009-2.969-0.009v6.251h1.177v-2.086h1.133l1.819 2.086h1.4v-0.080zM13.785 14.168c1.436 0 1.431 1.997 0 1.997h-1.793v-1.998h1.793zM7.906 14.070c1.303 0 1.299 2.39 0 2.39h-1.988v-2.389l1.988-0.001zM19.759 12.947c-4.213 0-4.366 6.509 0 6.509 4.274-0.001 4.271-6.509 0-6.509zM19.759 14.017c2.714 0 2.756 4.36 0 4.36-2.758 0-2.734-4.36 0-4.36z"></path>
</svg>
