<!-- Generated by IcoMoon.io -->
<svg version="1.1" xmlns="http://www.w3.org/2000/svg" width="32" height="32" viewBox="0 0 32 32">
<title>thermometer1</title>
<path d="M17.333 20.347c0.003 0.439 0.215 0.861 0.604 1.116 0.465 0.304 0.915 0.739 1.277 1.28 0.716 1.072 0.931 2.329 0.697 3.503s-0.912 2.253-1.984 2.969-2.329 0.931-3.503 0.697-2.253-0.912-2.969-1.984-0.931-2.329-0.697-3.503 0.912-2.253 1.984-2.969c0.357-0.243 0.591-0.649 0.591-1.109v-15.013c0-0.552 0.223-1.051 0.585-1.415s0.863-0.585 1.415-0.585 1.051 0.223 1.415 0.585 0.585 0.863 0.585 1.415zM20 19.675v-14.341c0-1.288-0.524-2.457-1.367-3.3s-2.012-1.367-3.3-1.367-2.457 0.524-3.3 1.367-1.367 2.012-1.367 3.3v14.345c-1.343 1.105-2.205 2.613-2.525 4.227-0.365 1.839-0.029 3.821 1.095 5.505s2.828 2.752 4.667 3.119 3.821 0.029 5.505-1.095 2.752-2.828 3.119-4.667 0.029-3.821-1.095-5.505c-0.409-0.612-0.897-1.147-1.431-1.587z"></path>
</svg>
