<!-- Generated by IcoMoon.io -->
<svg version="1.1" xmlns="http://www.w3.org/2000/svg" width="32" height="32" viewBox="0 0 32 32">
<title>thumbs-down3</title>
<path d="M14.667 20.667c0-0.736-0.597-1.333-1.333-1.333h-7.572c-0.087-0.003-0.204-0.015-0.204-0.015-0.364-0.055-0.669-0.251-0.873-0.528s-0.3-0.627-0.245-0.989l1.84-11.997c0.049-0.319 0.208-0.597 0.433-0.8 0.239-0.215 0.553-0.341 0.915-0.337h13.707v13.051l-4.811 10.824c-0.409-0.131-0.776-0.357-1.075-0.656-0.484-0.484-0.781-1.148-0.781-1.885zM12 22v4c0 1.472 0.599 2.808 1.563 3.771s2.299 1.563 3.771 1.563c0.54 0 1.005-0.321 1.219-0.792l5.333-12c0.080-0.179 0.116-0.367 0.115-0.541v-14.667c0-0.736-0.597-1.333-1.333-1.333h-15.040c-1.023-0.012-1.976 0.375-2.695 1.017-0.673 0.603-1.143 1.435-1.289 2.377l-1.84 12.003c-0.167 1.093 0.128 2.152 0.733 2.975s1.529 1.417 2.62 1.583c0.22 0.033 0.444 0.049 0.656 0.045zM22.667 4.667h3.56c0.481-0.008 0.899 0.159 1.216 0.443 0.284 0.255 0.485 0.6 0.557 0.995v9.049c-0.049 0.453-0.277 0.84-0.607 1.111-0.313 0.259-0.716 0.408-1.148 0.401l-3.579 0.001c-0.736 0-1.333 0.597-1.333 1.333s0.597 1.333 1.333 1.333h3.541c1.080 0.016 2.092-0.36 2.88-1.008 0.829-0.681 1.412-1.668 1.568-2.813 0.007-0.053 0.011-0.116 0.011-0.179v-9.333c0-0.056-0.004-0.119-0.012-0.183-0.148-1.071-0.673-2.013-1.433-2.693-0.8-0.716-1.863-1.144-2.995-1.123h-3.56c-0.736 0-1.333 0.597-1.333 1.333s0.597 1.333 1.333 1.333z"></path>
</svg>
