<!-- Generated by IcoMoon.io -->
<svg version="1.1" xmlns="http://www.w3.org/2000/svg" width="32" height="32" viewBox="0 0 32 32">
<title>thumbs-down1</title>
<path d="M29.142 14.082c0.292-1.415 0.054-2.784-0.562-3.937 0.185-1.492-0.251-3.035-1.084-4.187-0.060-3.494-2.239-5.958-7.059-5.958-0.438 0-0.938 0.001-1.389 0.001-6.474 0-8.486 2.499-11.049 2.499h-0.678c-0.353-0.311-0.815-0.5-1.322-0.5h-4c-1.105 0-2 0.895-2 2v15c0 1.105 0.895 2 2 2h4c0.74 0 1.386-0.402 1.732-1h0.441c1.197 1.060 2.876 3.791 4.298 5.212 0.854 0.854 0.635 6.788 4.485 6.788 3.599 0 5.954-1.996 5.954-6.546 0-1.151-0.246-2.108-0.553-2.909h2.28c3.038 0 5.364-2.598 5.364-5.349 0-1.197-0.31-2.187-0.858-3.115zM4 18.5c-0.828 0-1.5-0.672-1.5-1.5s0.672-1.5 1.5-1.5 1.5 0.672 1.5 1.5-0.672 1.5-1.5 1.5zM24.636 19.546h-6.499c0 2.364 1.773 3.461 1.773 5.909 0 1.484 0 3.546-2.954 3.546-1.182-1.182-0.591-4.136-2.364-5.909-1.66-1.661-4.136-6.091-5.909-6.091h-0.682v-11.636c3.351 0 6.25-2.364 10.727-2.364h2.364c2.22 0 3.801 1.070 3.32 4.119 0.95 0.51 1.656 2.277 0.871 3.598 1.349 1.274 1.169 3.192 0.326 4.101 0.591 0 1.398 1.182 1.392 2.363s-1.044 2.364-2.364 2.364z"></path>
</svg>
