<!-- Generated by IcoMoon.io -->
<svg version="1.1" xmlns="http://www.w3.org/2000/svg" width="32" height="32" viewBox="0 0 32 32">
<title>thumbs-up1</title>
<path d="M29.142 17.918c0.548-0.928 0.858-1.918 0.858-3.115 0-2.751-2.326-5.349-5.364-5.349h-2.28c0.308-0.801 0.553-1.758 0.553-2.909 0-4.55-2.356-6.546-5.954-6.546-3.85 0-3.631 5.933-4.485 6.787-1.422 1.422-3.101 4.153-4.297 5.213h-6.173c-1.105 0-2 0.895-2 2v15c0 1.105 0.895 2 2 2h4c0.931 0 1.713-0.636 1.936-1.497 2.782 0.063 4.691 2.496 11.113 2.496 0.451 0 0.951 0.001 1.389 0.001 4.82 0 6.999-2.464 7.059-5.958 0.832-1.152 1.269-2.695 1.084-4.187 0.616-1.153 0.854-2.521 0.562-3.937zM25.282 21.282c0.785 1.321 0.079 3.088-0.871 3.598 0.481 3.049-1.101 4.119-3.32 4.119h-2.364c-4.477 0-7.377-2.364-10.727-2.364v-11.636h0.682c1.772 0 4.249-4.431 5.909-6.091 1.773-1.772 1.182-4.727 2.364-5.909 2.954 0 2.954 2.061 2.954 3.546 0 2.448-1.773 3.545-1.773 5.909h6.499c1.319 0 2.358 1.182 2.364 2.364s-0.801 2.363-1.392 2.363c0.843 0.91 1.023 2.827-0.326 4.101zM5.5 27c0 0.828-0.672 1.5-1.5 1.5s-1.5-0.672-1.5-1.5 0.672-1.5 1.5-1.5 1.5 0.672 1.5 1.5z"></path>
</svg>
