<!-- Generated by IcoMoon.io -->
<svg version="1.1" xmlns="http://www.w3.org/2000/svg" width="32" height="32" viewBox="0 0 32 32">
<title>times-circle1</title>
<path d="M16 0.5c-8.563 0-15.5 6.938-15.5 15.5s6.938 15.5 15.5 15.5 15.5-6.938 15.5-15.5-6.938-15.5-15.5-15.5zM16 28.5c-6.906 0-12.5-5.594-12.5-12.5s5.594-12.5 12.5-12.5 12.5 5.594 12.5 12.5-5.594 12.5-12.5 12.5zM22.363 12.113l-3.887 3.887 3.887 3.887c0.294 0.294 0.294 0.769 0 1.063l-1.413 1.413c-0.294 0.294-0.769 0.294-1.063 0l-3.887-3.887-3.887 3.887c-0.294 0.294-0.769 0.294-1.063 0l-1.412-1.413c-0.294-0.294-0.294-0.769 0-1.063l3.888-3.887-3.887-3.887c-0.294-0.294-0.294-0.769 0-1.063l1.412-1.412c0.294-0.294 0.769-0.294 1.063 0l3.888 3.888 3.887-3.887c0.294-0.294 0.769-0.294 1.063 0l1.413 1.412c0.294 0.294 0.294 0.769 0 1.063z"></path>
</svg>
