<!-- Generated by IcoMoon.io -->
<svg version="1.1" xmlns="http://www.w3.org/2000/svg" width="31" height="32" viewBox="0 0 31 32">
<title>tired1</title>
<path d="M15.5 0.5c-8.563 0-15.5 6.938-15.5 15.5s6.938 15.5 15.5 15.5 15.5-6.938 15.5-15.5-6.938-15.5-15.5-15.5zM15.5 28.5c-6.894 0-12.5-5.606-12.5-12.5s5.606-12.5 12.5-12.5 12.5 5.606 12.5 12.5-5.606 12.5-12.5 12.5zM23.569 9.512c-0.238-0.275-0.644-0.338-0.956-0.156l-5 3c-0.225 0.137-0.363 0.381-0.363 0.644s0.137 0.506 0.363 0.644l5 3c0.337 0.2 0.738 0.1 0.956-0.156 0.238-0.281 0.244-0.688 0.006-0.969l-2.1-2.519 2.1-2.519c0.238-0.281 0.231-0.694-0.006-0.969zM13.75 13c0-0.262-0.137-0.506-0.363-0.644l-5-3c-0.313-0.188-0.719-0.119-0.956 0.156-0.237 0.281-0.244 0.688-0.006 0.969l2.1 2.519-2.1 2.519c-0.237 0.281-0.231 0.688 0.006 0.969 0.219 0.256 0.619 0.356 0.956 0.156l5-3c0.225-0.137 0.363-0.381 0.363-0.644zM15.5 17c-2.838 0-6.306 2.394-6.738 5.831-0.094 0.738 0.431 1.35 0.969 1.119 1.419-0.606 3.519-0.95 5.769-0.95s4.35 0.344 5.769 0.95c0.531 0.231 1.063-0.375 0.969-1.119-0.431-3.438-3.9-5.831-6.738-5.831z"></path>
</svg>
