<!-- Generated by IcoMoon.io -->
<svg version="1.1" xmlns="http://www.w3.org/2000/svg" width="28" height="32" viewBox="0 0 28 32">
<title>torah</title>
<path d="M28 22.4v-20.8c0-1-0.6-1.6-1.6-1.6h-20.4c-3.4 0-6 2.6-6 6v20c0 3.4 2.6 6 6 6h20.4c0.8 0 1.6-0.6 1.6-1.6v-1c0-0.4-0.2-0.8-0.6-1.2-0.2-1-0.2-3.8 0-4.6 0.4-0.2 0.6-0.6 0.6-1.2zM8.694 8.826c-0.173-0.276 0.025-0.634 0.35-0.634h3.318c0.056 0 0.108-0.029 0.138-0.076l2.15-3.422c0.162-0.258 0.538-0.258 0.701 0l2.15 3.422c0.029 0.046 0.080 0.076 0.138 0.076 0 0 0 0 0 0h3.317c0.325 0 0.523 0.358 0.35 0.634l-1.681 2.674 1.68 2.674c0.173 0.275-0.025 0.633-0.35 0.633h-3.317c-0.056 0-0.108 0.029-0.138 0.076l-2.15 3.423c-0.162 0.258-0.538 0.258-0.701 0l-2.149-3.422c-0.029-0.046-0.080-0.076-0.138-0.076-0 0-0 0-0 0h-3.318c-0.325 0-0.523-0.358-0.35-0.633l1.68-2.675-1.68-2.674zM23.8 28h-17.8c-1.2 0-2-0.8-2-2s1-2 2-2h17.8v4z"></path>
</svg>
