<!-- Generated by IcoMoon.io -->
<svg version="1.1" xmlns="http://www.w3.org/2000/svg" width="31" height="32" viewBox="0 0 31 32">
<title>trade-federation</title>
<path d="M12.653 6.776v5.101h-10.219l3.014 3.869h7.171v12.297h4.038v-12.233h5.204v-3.918h-5.199v-1.198h9.101v-3.918h-13.11zM12.957 7.151h12.361v3.167h-9.102v1.933h5.199v3.183h-5.204v12.233h-3.296v-12.297h-7.298l-2.497-3.119h9.838v-5.101zM15.499 0.55c-8.56 0-15.499 6.939-15.499 15.5s6.939 15.5 15.499 15.5 15.501-6.94 15.501-15.5-6.94-15.5-15.501-15.5zM15.501 1.377c8.104 0 14.672 6.57 14.672 14.674s-6.569 14.672-14.672 14.672-14.674-6.569-14.674-14.673 6.57-14.673 14.674-14.673zM15.501 1.871c-7.831 0-14.181 6.348-14.181 14.179s6.349 14.181 14.181 14.181 14.179-6.349 14.179-14.181-6.348-14.179-14.179-14.179zM15.499 2.702c7.372 0 13.348 5.976 13.348 13.348s-5.976 13.348-13.348 13.348-13.348-5.975-13.348-13.347 5.976-13.348 13.348-13.348zM10.917 9.252l0.979 1.128-1.385-0.591-0.771 1.279 0.134-1.499-1.455-0.338 1.467-0.336-0.129-1.488 0.773 1.292 1.376-0.582-0.99 1.134zM7.971 6.343l0.501 0.775 0.793-0.366-0.582 0.716 0.594 0.641-0.861-0.332-0.426 0.762 0.051-0.921-0.857-0.169 0.892-0.236-0.104-0.868zM23.644 11.068l0.749 1.223 1.305-0.569-0.931 1.091 0.944 1.065-1.325-0.549-0.721 1.227 0.113-1.429-1.39-0.306 1.394-0.335-0.138-1.417zM16.953 17.221l0.866-0.201-0.080-0.886 0.459 0.761 0.817-0.349-0.582 0.672 0.585 0.669-0.819-0.346-0.456 0.763 0.076-0.886-0.868-0.198zM9.114 17.627l1.483-0.242-0.108-1.533 0.688 1.336 1.424-0.576-1.058 1.067 0.988 1.177-1.342-0.676-0.814 1.304 0.229-1.486-1.491-0.371zM13.079 7.273v5.101h-9.694l2.295 2.876h7.356v12.297h3.051v-12.233h5.204v-2.939h-5.204v-2.177h9.108v-2.924h-12.117zM13.758 7.973h10.738v1.523h-9.065v3.514h5.183v1.496h-5.183v12.339h-1.672v-12.339h-7.738l-1.256-1.496h8.994v-5.037z"></path>
</svg>
