<!-- Generated by IcoMoon.io -->
<svg version="1.1" xmlns="http://www.w3.org/2000/svg" width="40" height="32" viewBox="0 0 40 32">
<title>trademark</title>
<path d="M6.070 10.196h-5.32c-0.414 0-0.75-0.336-0.75-0.75v-2.696c0-0.414 0.336-0.75 0.75-0.75h15.535c0.414 0 0.75 0.336 0.75 0.75v2.696c0 0.414-0.336 0.75-0.75 0.75h-5.32v15.054c0 0.414-0.336 0.75-0.75 0.75h-3.395c-0.414 0-0.75-0.336-0.75-0.75v-15.054zM20.614 6h4.089c0.327 0 0.605 0.209 0.707 0.501l0.002 0.005 2.735 7.942c0.448 1.287 1.007 3.301 1.007 3.301h0.056s0.559-2.014 1.007-3.301l2.735-7.942c0.104-0.297 0.382-0.506 0.709-0.506h4.088c0 0 0 0 0 0 0.393 0 0.715 0.302 0.747 0.687l0 0.003 1.501 18.5c0.035 0.437-0.309 0.811-0.748 0.811h-3.381c-0.396 0-0.721-0.307-0.748-0.697l-0-0.002-0.568-8.308c-0.112-1.511 0-3.357 0-3.357h-0.056s-0.671 2.098-1.119 3.357l-1.919 5.296c-0.108 0.291-0.383 0.494-0.705 0.494h-3.144c-0.323 0-0.598-0.204-0.703-0.489l-0.002-0.005-1.919-5.296c-0.448-1.259-1.119-3.357-1.119-3.357h-0.056s0.112 1.846 0 3.357l-0.568 8.308c-0.027 0.393-0.354 0.699-0.748 0.699h-3.408c-0.439 0-0.784-0.375-0.747-0.812l1.527-18.5c0.033-0.387 0.355-0.688 0.747-0.688 0 0 0 0 0 0v0z"></path>
</svg>
