<!-- Generated by IcoMoon.io -->
<svg version="1.1" xmlns="http://www.w3.org/2000/svg" width="28" height="32" viewBox="0 0 28 32">
<title>trash-alt</title>
<path d="M0 5.25v-1.75c0-0.831 0.669-1.5 1.5-1.5h7l0.588-1.169c0.25-0.512 0.769-0.831 1.338-0.831h7.144c0.569 0 1.087 0.319 1.344 0.831l0.587 1.169h7c0.831 0 1.5 0.669 1.5 1.5v1.75c0 0.412-0.337 0.75-0.75 0.75h-26.5c-0.412 0-0.75-0.338-0.75-0.75zM26 8.75v20.25c0 1.656-1.344 3-3 3h-18c-1.656 0-3-1.344-3-3v-20.25c0-0.412 0.337-0.75 0.75-0.75h22.5c0.413 0 0.75 0.338 0.75 0.75zM9 13c0-0.55-0.45-1-1-1s-1 0.45-1 1v14c0 0.55 0.45 1 1 1s1-0.45 1-1v-14zM15 13c0-0.55-0.45-1-1-1s-1 0.45-1 1v14c0 0.55 0.45 1 1 1s1-0.45 1-1v-14zM21 13c0-0.55-0.45-1-1-1s-1 0.45-1 1v14c0 0.55 0.45 1 1 1s1-0.45 1-1v-14z"></path>
</svg>
