<!-- Generated by IcoMoon.io -->
<svg version="1.1" xmlns="http://www.w3.org/2000/svg" width="24" height="32" viewBox="0 0 24 32">
<title>tree</title>
<path d="M23.583 23.464l-5.214-5.464h2.131c1.314 0 1.992-1.575 1.090-2.53l-5.166-5.47h2.076c1.305 0 1.991-1.561 1.099-2.521l-6.5-7c-0.593-0.638-1.605-0.639-2.198 0l-6.5 7c-0.888 0.956-0.211 2.521 1.099 2.521h2.076l-5.166 5.47c-0.902 0.955-0.222 2.53 1.091 2.53h2.131l-5.214 5.464c-0.908 0.952-0.234 2.536 1.085 2.536h7.498c0 2.049-0.699 3.079-2.125 4.219-0.736 0.589-0.318 1.781 0.625 1.781h9c0.943 0 1.361-1.192 0.625-1.781-1.236-0.988-2.124-1.979-2.125-4.218v-0.001h7.498c1.316 0 1.996-1.582 1.085-2.536z"></path>
</svg>
