<!-- Generated by IcoMoon.io -->
<svg version="1.1" xmlns="http://www.w3.org/2000/svg" width="28" height="32" viewBox="0 0 28 32">
<title>trello</title>
<path d="M24.5 2h-21c-1.931 0-3.5 1.569-3.5 3.5v21c0 1.931 1.569 3.5 3.5 3.5h21c1.931 0 3.5-1.569 3.5-3.5v-21c0-1.931-1.569-3.5-3.5-3.5zM12.181 23.212c0 0.925-0.75 1.681-1.681 1.681h-5.181c-0.925 0-1.681-0.75-1.681-1.681v-15.894c0-0.925 0.75-1.681 1.681-1.681h5.181c0.925 0 1.681 0.75 1.681 1.681v15.894zM24.363 16.212c0 0.925-0.75 1.681-1.681 1.681h-5.181c-0.925 0-1.681-0.75-1.681-1.681v-8.894c0-0.925 0.75-1.681 1.681-1.681h5.181c0.925 0 1.681 0.75 1.681 1.681v8.894z"></path>
</svg>
