<!-- Generated by IcoMoon.io -->
<svg version="1.1" xmlns="http://www.w3.org/2000/svg" width="36" height="32" viewBox="0 0 36 32">
<title>tripadvisor</title>
<path d="M12.194 17.824c0 1.762-1.429 3.191-3.191 3.191s-3.191-1.429-3.191-3.191c0-1.762 1.429-3.191 3.191-3.191 0 0 0 0 0.001 0h-0c0.001 0 0.002 0 0.003 0 1.76 0 3.188 1.427 3.188 3.188 0 0.001 0 0.003 0 0.004v-0zM26.992 14.633c-1.762 0-3.191 1.429-3.191 3.191s1.429 3.191 3.191 3.191c1.762 0 3.191-1.429 3.191-3.191v0c0-1.762-1.429-3.191-3.191-3.191v0zM35.992 17.824c-0 4.968-4.028 8.996-8.996 8.996-2.364 0-4.515-0.912-6.12-2.402l0.006 0.005-2.882 3.136-2.884-3.137c-1.596 1.471-3.736 2.372-6.087 2.372-4.967 0-8.994-4.027-8.994-8.994 0-2.617 1.118-4.973 2.902-6.616l0.006-0.006-2.943-3.203h6.541c3.212-2.212 7.186-3.533 11.469-3.533s8.257 1.321 11.538 3.578l-0.069-0.045h6.521l-2.943 3.203c1.805 1.647 2.934 4.010 2.934 6.636 0 0.004 0 0.008 0 0.012v-0.001zM15.091 17.824c0-3.362-2.725-6.087-6.087-6.087s-6.087 2.725-6.087 6.087c0 3.362 2.725 6.087 6.087 6.087v0c3.362 0 6.087-2.725 6.087-6.087v0zM24.755 8.736c-1.995-0.854-4.317-1.351-6.755-1.351s-4.76 0.497-6.87 1.395l0.115-0.043c3.842 1.469 6.756 4.906 6.756 8.912 0-4.005 2.913-7.442 6.755-8.912zM33.080 17.824c0-0 0-0 0-0.001 0-3.362-2.725-6.088-6.087-6.088s-6.087 2.725-6.087 6.088c0 3.362 2.725 6.088 6.087 6.088v0c3.362 0 6.087-2.725 6.087-6.087v-0z"></path>
</svg>
