<!-- Generated by IcoMoon.io -->
<svg version="1.1" xmlns="http://www.w3.org/2000/svg" width="20" height="32" viewBox="0 0 20 32">
<title>tumblr1</title>
<path d="M0 12.053v-4.544q1.92-0.64 3.232-1.76 1.312-1.056 2.144-2.752 0.832-1.632 1.12-4.064h4.576v8.096h7.584v5.024h-7.584v8.192q0 2.752 0.288 3.584 0.288 0.768 1.088 1.248 1.088 0.64 2.432 0.64 2.464 0 4.832-1.568v5.024q-2.016 0.992-3.712 1.376-1.664 0.384-3.584 0.384-2.176 0-3.904-0.544-1.76-0.608-2.848-1.6-1.152-0.992-1.664-2.176-0.448-1.088-0.448-3.36v-11.2h-3.552z"></path>
</svg>
