<!-- Generated by IcoMoon.io -->
<svg version="1.1" xmlns="http://www.w3.org/2000/svg" width="32" height="32" viewBox="0 0 32 32">
<title>tv3</title>
<path d="M16 11.333h10.667c0.368 0 0.7 0.148 0.943 0.391s0.391 0.575 0.391 0.943v14.667c0 0.368-0.148 0.7-0.391 0.943s-0.575 0.391-0.943 0.391h-21.333c-0.368 0-0.7-0.148-0.943-0.391s-0.391-0.575-0.391-0.943v-14.667c0-0.368 0.148-0.7 0.391-0.943s0.575-0.391 0.943-0.391h10.667zM21.724 2.391l-5.724 5.724-5.724-5.724c-0.521-0.521-1.365-0.521-1.885 0s-0.521 1.365 0 1.885l4.391 4.391h-7.448c-1.104 0-2.107 0.449-2.828 1.172s-1.172 1.724-1.172 2.828v14.667c0 1.104 0.449 2.107 1.172 2.828s1.724 1.172 2.828 1.172h21.333c1.104 0 2.107-0.449 2.828-1.172s1.172-1.724 1.172-2.828v-14.667c0-1.104-0.449-2.107-1.172-2.828s-1.724-1.172-2.828-1.172h-7.448l4.391-4.391c0.521-0.521 0.521-1.365 0-1.885s-1.365-0.521-1.885 0z"></path>
</svg>
