<!-- Generated by IcoMoon.io -->
<svg version="1.1" xmlns="http://www.w3.org/2000/svg" width="27" height="32" viewBox="0 0 27 32">
<title>typo3</title>
<path d="M20.675 21.313c-0.438 0.144-0.725 0.144-1.156 0.144-3.575 0-8.787-12.406-8.787-16.556 0-1.544 0.338-2.025 0.869-2.462-4.344 0.531-9.331 2.125-11.019 4.15-0.338 0.481-0.581 1.3-0.581 2.319 0 6.469 6.675 21.094 11.506 21.094 2.269 0 6.081-3.719 9.169-8.688zM18.406 2c4.488 0 8.675 0.725 8.675 3.281 0 5.162-3.281 11.394-4.925 11.394-2.994 0-6.356-8.256-6.356-12.406 0-1.931 0.725-2.269 2.606-2.269z"></path>
</svg>
