<!-- Generated by IcoMoon.io -->
<svg version="1.1" xmlns="http://www.w3.org/2000/svg" width="36" height="32" viewBox="0 0 36 32">
<title>umbrella</title>
<path d="M34.813 16.727c-3.215-2.826-6.723-2.731-9.91 1.921-0.331 0.491-0.932 0.448-1.233 0-0.155-0.227-2.014-3.8-5.669-3.8-2.86 0-4.409 1.961-5.669 3.8-0.302 0.448-0.902 0.491-1.233 0-3.181-4.643-6.663-4.775-9.91-1.921-0.638 0.517-1.307-0.069-1.169-0.593 1.991-7.724 9.889-12.096 17.982-12.096 8.050 0 16.034 4.373 17.982 12.096 0.138 0.52-0.527 1.112-1.169 0.593zM16 16.313v9.687c0 1.103-0.897 2-2 2s-2-0.897-2-2c0-1.105-0.895-2-2-2s-2 0.895-2 2c0 3.308 2.692 6 6 6s6-2.692 6-6v-9.669c-1.365-0.675-2.839-0.609-4-0.018zM20 3.125v-1.125c0-1.105-0.895-2-2-2s-2 0.895-2 2v1.124c0.598-0.055 1.294-0.086 1.997-0.086 0.705 0 1.403 0.031 2.092 0.093l-0.089-0.006z"></path>
</svg>
