<!-- Generated by IcoMoon.io -->
<svg version="1.1" xmlns="http://www.w3.org/2000/svg" width="32" height="32" viewBox="0 0 32 32">
<title>umbrella2</title>
<path d="M29.12 15.333h-26.232c0.516-2.432 1.679-4.632 3.313-6.395 2.156-2.325 5.131-3.887 8.525-4.211 3.684-0.352 7.159 0.821 9.805 3.007 2.289 1.891 3.953 4.535 4.588 7.6zM31.993 16.54c-0.421-4.416-2.595-8.245-5.764-10.863s-7.34-4.027-11.756-3.605c-4.069 0.388-7.641 2.265-10.227 5.052-2.345 2.529-3.879 5.809-4.24 9.409-0.073 0.733 0.461 1.387 1.193 1.46 0.047 0.005 0.093 0.007 0.133 0.007h29.333c0.708 0 1.288-0.552 1.331-1.249-0.001-0.183-0.003-0.197-0.004-0.211zM22.667 26c0 0.737-0.297 1.401-0.781 1.885s-1.148 0.781-1.885 0.781-1.401-0.297-1.885-0.781-0.781-1.148-0.781-1.885v-9.333c0-0.736-0.597-1.333-1.333-1.333s-1.333 0.597-1.333 1.333v9.333c0 1.472 0.599 2.808 1.563 3.771s2.299 1.563 3.771 1.563 2.808-0.599 3.771-1.563 1.563-2.299 1.563-3.771c0-0.736-0.597-1.333-1.333-1.333s-1.333 0.597-1.333 1.333z"></path>
</svg>
