<!-- Generated by IcoMoon.io -->
<svg version="1.1" xmlns="http://www.w3.org/2000/svg" width="32" height="32" viewBox="0 0 32 32">
<title>underline2</title>
<path d="M6.667 4.667v9.333c0 2.577 1.047 4.912 2.733 6.6s4.023 2.733 6.6 2.733 4.912-1.047 6.6-2.733 2.733-4.023 2.733-6.6v-9.333c0-0.736-0.597-1.333-1.333-1.333s-1.333 0.597-1.333 1.333v9.333c0 1.841-0.745 3.507-1.952 4.715s-2.873 1.952-4.715 1.952-3.507-0.745-4.715-1.952-1.952-2.873-1.952-4.715v-9.333c0-0.736-0.597-1.333-1.333-1.333s-1.333 0.597-1.333 1.333zM5.333 30h21.333c0.736 0 1.333-0.597 1.333-1.333s-0.597-1.333-1.333-1.333h-21.333c-0.736 0-1.333 0.597-1.333 1.333s0.597 1.333 1.333 1.333z"></path>
</svg>
