<!-- Generated by IcoMoon.io -->
<svg version="1.1" xmlns="http://www.w3.org/2000/svg" width="28" height="32" viewBox="0 0 28 32">
<title>underline</title>
<path d="M14.017 24.265c-5.729 0-9.788-3.198-9.788-9.462v-10.803h-1.768c-0.552 0-1-0.448-1-1v-2c0-0.552 0.448-1 1-1h8.587c0.552 0 1 0.448 1 1v2c0 0.552-0.448 1-1 1h-1.801v10.803c0 3.356 1.77 4.965 4.77 4.965 2.935 0 4.737-1.59 4.737-4.998v-10.77h-1.768c-0.552 0-1-0.448-1-1v-2c0-0.552 0.448-1 1-1h8.554c0.552 0 1 0.448 1 1v2c0 0.552-0.448 1-1 1h-1.768v10.803c0 6.213-4.055 9.462-9.755 9.462zM1 28h26c0.552 0 1 0.448 1 1v2c0 0.552-0.448 1-1 1h-26c-0.552 0-1-0.448-1-1v-2c0-0.552 0.448-1 1-1z"></path>
</svg>
