<!-- Generated by IcoMoon.io -->
<svg version="1.1" xmlns="http://www.w3.org/2000/svg" width="31" height="32" viewBox="0 0 31 32">
<title>user-circle1</title>
<path d="M15.5 6.5c-3.313 0-6 2.688-6 6s2.688 6 6 6 6-2.688 6-6-2.688-6-6-6zM15.5 15.5c-1.656 0-3-1.344-3-3s1.344-3 3-3 3 1.344 3 3-1.344 3-3 3zM15.5 0.5c-8.563 0-15.5 6.938-15.5 15.5s6.938 15.5 15.5 15.5 15.5-6.938 15.5-15.5-6.938-15.5-15.5-15.5zM15.5 28.5c-3.106 0-5.944-1.144-8.131-3.025 0.931-1.438 2.525-2.413 4.35-2.469 1.3 0.4 2.537 0.6 3.781 0.6s2.481-0.194 3.781-0.6c1.825 0.063 3.419 1.031 4.35 2.469-2.188 1.881-5.025 3.025-8.131 3.025zM25.669 23.244c-1.525-1.962-3.881-3.244-6.569-3.244-0.637 0-1.625 0.6-3.6 0.6-1.969 0-2.963-0.6-3.6-0.6-2.681 0-5.037 1.281-6.569 3.244-1.462-2.044-2.331-4.544-2.331-7.244 0-6.894 5.606-12.5 12.5-12.5s12.5 5.606 12.5 12.5c0 2.7-0.869 5.2-2.331 7.244z"></path>
</svg>
