<!-- Generated by IcoMoon.io -->
<svg version="1.1" xmlns="http://www.w3.org/2000/svg" width="40" height="32" viewBox="0 0 40 32">
<title>user-lock</title>
<path d="M20 20c0-0.694 0.194-1.337 0.506-1.906-0.3-0.031-0.594-0.094-0.906-0.094h-1.044c-1.387 0.637-2.931 1-4.556 1s-3.162-0.363-4.556-1h-1.044c-4.638 0-8.4 3.762-8.4 8.4v2.6c0 1.656 1.344 3 3 3h17.556c-0.344-0.594-0.556-1.269-0.556-2v-10zM14 16c4.419 0 8-3.581 8-8s-3.581-8-8-8-8 3.581-8 8 3.581 8 8 8zM38 18h-2v-3c0-2.762-2.237-5-5-5s-5 2.238-5 5v3h-2c-1.106 0-2 0.894-2 2v10c0 1.106 0.894 2 2 2h14c1.106 0 2-0.894 2-2v-10c0-1.106-0.894-2-2-2zM33 18h-4v-3c0-1.1 0.9-2 2-2s2 0.9 2 2v3z"></path>
</svg>
