<!-- Generated by IcoMoon.io -->
<svg version="1.1" xmlns="http://www.w3.org/2000/svg" width="28" height="32" viewBox="0 0 28 32">
<title>viadeo1</title>
<path d="M0 19.189q0 4.704 3.232 8.224t8.32 3.52q5.056 0 8.288-3.52 3.232-3.456 3.232-8.224 0-2.496-0.864-4.672-1.28 0.8-2.72 1.088 0.704 1.632 0.704 3.648 0 2.432-1.152 4.544-1.184 2.112-3.168 3.232-1.984 1.152-4.32 1.152-2.4 0-4.352-1.152-2.016-1.184-3.136-3.232-1.184-2.080-1.184-4.544 0-3.744 2.56-6.464 2.56-2.656 6.112-2.656 1.632 0 3.136 0.608 0.128-1.248 0.864-2.752-1.824-0.672-4-0.672-5.12 0-8.512 3.776-3.040 3.424-3.040 8.096zM8.96 27.285l1.792 0.128q2.368-1.504 4-3.488t2.304-3.968 0.992-4.032q0.192-1.312 0.192-2.56 0-0.672-0.064-1.28-0.16-1.76-0.384-3.168t-0.512-2.176l-0.288-0.8q-0.704-2.176-1.376-3.808t-1.024-2.144l-0.352-0.544q1.248 0.64 2.016 1.536 0.736 0.928 0.896 1.696 0.128 0.64 0.128 1.248v0.224q-0.032 0.704-0.192 1.12l-0.16 0.416q0.128 1.856 0.16 3.584 0 1.664-0.16 3.264-0.288 3.2-0.96 5.344t-1.6 3.872-1.824 2.752-1.76 1.664-1.312 0.896zM17.76 6.901q0.128-1.28 0.736-2.048l0.576-0.8q0.384-0.448 1.248-0.864t1.536-0.576l0.672-0.192q1.152-0.256 2.144-1.12t1.376-1.632l0.416-0.736q1.312 1.824 1.568 4.128 0.128 1.024 0.096 1.824 0 1.088-0.192 1.888l-0.352 1.44q-0.384 1.056-1.056 1.92t-1.184 1.184l-0.48 0.352q-1.088 0.64-2.144 0.64l-3.488-1.696q1.856-1.024 3.232-2.080t2.048-1.856 1.056-1.408 0.448-0.992l0.064-0.32q-0.576 1.28-1.536 2.336t-1.984 1.664-1.952 1.024-1.504 0.608l-0.576 0.16q-0.8-1.408-0.8-2.528 0-0.16 0.032-0.32z"></path>
</svg>
