<!-- Generated by IcoMoon.io -->
<svg version="1.1" xmlns="http://www.w3.org/2000/svg" width="32" height="32" viewBox="0 0 32 32">
<title>video-off</title>
<path d="M14.213 8.667h4.453c0.368 0 0.7 0.148 0.943 0.391s0.391 0.575 0.391 0.943v4.453c0 0.368 0.149 0.701 0.391 0.943l1.333 1.333c0.468 0.468 1.197 0.516 1.724 0.137l5.885-4.256v10.723c0 0.736 0.597 1.333 1.333 1.333s1.333-0.597 1.333-1.333v-13.333c0.001-0.268-0.081-0.544-0.253-0.781-0.432-0.596-1.265-0.731-1.861-0.299l-7.079 5.121-0.14-0.14v-3.901c0-1.104-0.449-2.107-1.172-2.828s-1.724-1.172-2.828-1.172h-4.453c-0.736 0-1.333 0.597-1.333 1.333s0.597 1.333 1.333 1.333zM6.115 8.667l13.885 13.885v0.781c0 0.368-0.148 0.7-0.391 0.943s-0.575 0.391-0.943 0.391h-14.667c-0.368 0-0.7-0.148-0.943-0.391s-0.391-0.575-0.391-0.943v-13.333c0-0.368 0.148-0.7 0.391-0.943s0.575-0.391 0.943-0.391zM0.391 2.943l3.091 3.091c-0.897 0.116-1.703 0.531-2.309 1.139-0.723 0.721-1.172 1.724-1.172 2.828v13.333c0 1.104 0.449 2.107 1.172 2.828s1.724 1.172 2.828 1.172h14.667c1.104 0 2.107-0.449 2.828-1.172 0.359-0.359 0.651-0.787 0.853-1.261l7.376 7.376c0.521 0.521 1.365 0.521 1.885 0s0.521-1.365 0-1.885l-29.333-29.333c-0.521-0.521-1.365-0.521-1.885 0s-0.521 1.365 0 1.885z"></path>
</svg>
