<!-- Generated by IcoMoon.io -->
<svg version="1.1" xmlns="http://www.w3.org/2000/svg" width="32" height="32" viewBox="0 0 32 32">
<title>video2</title>
<path d="M29.333 12.591v8.152l-5.707-4.076zM4 6c-1.104 0-2.107 0.449-2.828 1.172s-1.172 1.724-1.172 2.828v13.333c0 1.104 0.449 2.107 1.172 2.828s1.724 1.172 2.828 1.172h14.667c1.104 0 2.107-0.449 2.828-1.172s1.172-1.724 1.172-2.828v-4.076l7.225 5.161c0.599 0.428 1.432 0.289 1.86-0.309 0.168-0.237 0.249-0.511 0.248-0.776v-13.333c0-0.736-0.597-1.333-1.333-1.333-0.291 0-0.56 0.093-0.775 0.248l-7.225 5.161v-4.076c0-1.104-0.449-2.107-1.172-2.828s-1.724-1.172-2.828-1.172zM4 8.667h14.667c0.368 0 0.7 0.148 0.943 0.391s0.391 0.575 0.391 0.943v13.333c0 0.368-0.148 0.7-0.391 0.943s-0.575 0.391-0.943 0.391h-14.667c-0.368 0-0.7-0.148-0.943-0.391s-0.391-0.575-0.391-0.943v-13.333c0-0.368 0.148-0.7 0.391-0.943s0.575-0.391 0.943-0.391z"></path>
</svg>
