<!-- Generated by IcoMoon.io -->
<svg version="1.1" xmlns="http://www.w3.org/2000/svg" width="37" height="32" viewBox="0 0 37 32">
<title>vimeo1</title>
<path d="M0 7.637q1.76-2.080 3.52-3.712t3.072-2.496 2.304-1.376 1.536-0.672l0.544-0.128q0.384-0.064 0.768-0.064 0.608 0 1.12 0.192 0.832 0.32 1.376 1.088t0.928 1.76 0.672 2.304 0.48 2.496 0.448 2.528 0.448 2.272q1.024 4 1.664 5.664t1.312 1.696q0.768 0 2.144-1.792t2.976-4.832q0.832-1.536 0.832-2.912 0-0.416-0.064-0.736-0.288-1.664-1.632-2.080-0.352-0.128-0.768-0.128-1.12 0-2.656 0.832 0.704-4.16 4.288-6.688 2.72-1.92 5.568-1.92 0.384 0 0.768 0.032 3.264 0.256 4.448 2.88 0.576 1.216 0.576 2.816 0 0.928-0.192 1.952-0.576 3.264-2.208 6.656t-3.616 5.984-4.256 4.96-3.936 3.776-2.912 2.176q-1.344 0.768-2.496 0.768t-2.24-0.672-1.792-1.536-1.216-1.824q-0.576-1.216-3.104-9.568t-3.104-8.96q-0.032-0.064-0.128-0.128t-0.416-0.16-0.768 0-1.184 0.448-1.6 1.056z"></path>
</svg>
