<!-- Generated by IcoMoon.io -->
<svg version="1.1" xmlns="http://www.w3.org/2000/svg" width="40" height="32" viewBox="0 0 40 32">
<title>virus-slash</title>
<path d="M7.125 14.223h-1.348c-0.982 0-1.777 0.796-1.777 1.777s0.796 1.777 1.777 1.777h1.348c3.168 0 4.754 3.83 2.514 6.070l-0.952 0.953c-0.351 0.326-0.57 0.79-0.57 1.305 0 0.982 0.796 1.777 1.777 1.777 0.515 0 0.979-0.219 1.304-0.569l0.001-0.001 0.953-0.953c2.24-2.24 6.069-0.653 6.069 2.514v1.346c0 0.982 0.796 1.778 1.778 1.778s1.778-0.796 1.778-1.778v0-1.345c0-1.663 1.063-2.869 2.389-3.336l-15.281-11.813c-0.503 0.307-1.11 0.49-1.759 0.496h-0.002zM39.614 28.631l-10.2-7.881c0.261-1.587 1.557-2.97 3.462-2.97h1.347c0.982 0 1.778-0.796 1.778-1.777s-0.796-1.777-1.778-1.777h-1.347c-3.168 0-4.754-3.83-2.514-6.070l0.952-0.956c0.293-0.316 0.473-0.741 0.473-1.207 0-0.982-0.796-1.777-1.777-1.777-0.467 0-0.891 0.18-1.208 0.474l0.001-0.001-0.953 0.951c-2.24 2.24-6.069 0.654-6.069-2.514v-1.346c0-0.982-0.796-1.778-1.778-1.778s-1.778 0.796-1.778 1.778v0 1.347c0 3.168-3.829 4.754-6.069 2.514l-0.953-0.952c-0.322-0.321-0.766-0.52-1.256-0.52s-0.934 0.199-1.256 0.52v0c-0.008 0.009-0.009 0.020-0.018 0.029l-5.829-4.505c-0.168-0.131-0.382-0.211-0.614-0.211-0.32 0-0.605 0.15-0.788 0.384l-0.002 0.002-1.227 1.579c-0.131 0.168-0.211 0.382-0.211 0.614 0 0.32 0.15 0.605 0.384 0.788l0.002 0.002 36.773 28.42c0.168 0.131 0.381 0.211 0.614 0.211 0.32 0 0.605-0.151 0.788-0.385l0.002-0.002 1.227-1.579c0.131-0.168 0.211-0.381 0.211-0.614 0-0.32-0.151-0.605-0.385-0.788l-0.002-0.002zM20.964 14.217l-3.929-3.037c0.286-0.109 0.617-0.175 0.963-0.181l0.002-0c1.657 0 3 1.343 3 3v0c0 0.076-0.030 0.143-0.036 0.217z"></path>
</svg>
