<!-- Generated by IcoMoon.io -->
<svg version="1.1" xmlns="http://www.w3.org/2000/svg" width="31" height="32" viewBox="0 0 31 32">
<title>volleyball-ball</title>
<path d="M13.956 15.213c-0.056-2.313-0.537-4.55-1.419-6.606-5.675 2.65-9.844 7.65-11.269 13.55 0.837 1.925 2.056 3.644 3.556 5.069 1.419-4.95 4.638-9.238 9.131-12.012zM11.65 6.813c-0.938-1.65-2.156-3.131-3.588-4.419-5.688 3.112-9.050 9.556-7.813 16.387 2.087-5.194 6.15-9.5 11.4-11.969zM23.375 17.131c0.538-6.238-1.706-12.344-6.094-16.525-0.919-0.106-3.225-0.344-6.181 0.531 3.581 3.706 5.688 8.637 5.844 13.919 2.031 1.106 4.206 1.813 6.431 2.075zM15.581 17.725c-1.975 1.206-3.669 2.744-5.012 4.538 5.125 3.581 11.531 4.694 17.344 2.988 1.231-1.65 2.137-3.55 2.637-5.619-1.663 0.413-3.356 0.65-5.056 0.65-3.413-0.006-6.806-0.881-9.912-2.556zM9.438 23.956c-0.95 1.625-1.606 3.4-2.006 5.262 2.35 1.438 5.106 2.281 8.069 2.281 3.813 0 7.294-1.381 9.994-3.663-7.056 1.006-12.706-1.55-16.056-3.881zM20.706 1.419c3.456 4.4 5.156 10.075 4.662 15.85 1.894 0.012 3.781-0.3 5.606-0.887 0-0.125 0.019-0.25 0.019-0.375 0-6.738-4.294-12.444-10.288-14.588z"></path>
</svg>
