<!-- Generated by IcoMoon.io -->
<svg version="1.1" xmlns="http://www.w3.org/2000/svg" width="32" height="32" viewBox="0 0 32 32">
<title>volume-1</title>
<path d="M13.333 10.108v13.119l-4.5-3.6c-0.227-0.183-0.517-0.293-0.833-0.293h-4v-5.333h4c0.291 0.001 0.585-0.095 0.833-0.292zM13.833 6.292l-6.301 5.041h-4.865c-0.736 0-1.333 0.597-1.333 1.333v8c0 0.736 0.597 1.333 1.333 1.333h4.865l6.301 5.041c0.575 0.46 1.415 0.367 1.875-0.208 0.197-0.247 0.293-0.543 0.292-0.833v-18.667c0-0.736-0.597-1.333-1.333-1.333-0.316 0-0.607 0.111-0.833 0.292zM19.777 12.889c1.041 1.041 1.561 2.404 1.561 3.771s-0.52 2.729-1.561 3.771c-0.52 0.521-0.52 1.365 0 1.885s1.365 0.52 1.885 0c1.561-1.561 2.343-3.611 2.343-5.656s-0.781-4.095-2.343-5.656c-0.52-0.521-1.365-0.521-1.885 0s-0.521 1.365 0 1.885z"></path>
</svg>
