<!-- Generated by IcoMoon.io -->
<svg version="1.1" xmlns="http://www.w3.org/2000/svg" width="36" height="32" viewBox="0 0 36 32">
<title>w3c</title>
<path d="M0 5.429h2.464l3.424 11.616 2.304-7.808-1.12-3.808h2.464l3.424 11.616 3.424-11.616h9.28v1.152l-3.488 6.016q1.856 0.64 2.752 2.144 0.96 1.6 0.96 3.648 0 2.624-1.376 4.384t-3.584 1.76q-1.632 0-2.88-1.056-1.248-1.088-1.792-2.848l1.92-0.8q0.416 1.088 1.12 1.728 0.64 0.608 1.632 0.608t1.664-1.088q0.704-1.088 0.704-2.688 0-1.664-0.736-2.656-0.864-1.088-2.656-1.088h-0.96v-1.152l3.296-5.696h-3.968l-0.224 0.384-4.864 16.352h-0.224l-3.52-11.84-3.552 11.84h-0.224zM26.176 18.773l0.576 1.6q0.48 1.056 1.056 1.856 1.344 1.856 3.008 2.144 1.44 0.288 2.816-0.576 0.608-0.384 1.12-0.992 0.64-0.64 0.896-1.152 0.128-0.224 0.352-0.64l-0.352-1.888q-0.256 0.512-0.512 0.896t-0.384 0.544l-0.128 0.128q-1.088 1.184-1.952 1.568-1.056 0.48-2.176 0.352-0.864-0.064-1.92-0.768-1.152-0.992-1.376-1.376-0.416-0.576-1.024-1.696zM27.040 12.533q0-2.688 1.056-4.672 0.512-0.96 1.216-1.536t1.344-0.64q1.12-0.128 2.24 0.832 0.576 0.48 1.184 1.6l1.408-2.784 0.384 2.432-1.408 2.72q-0.256-0.512-0.608-0.96t-0.576-0.64l-0.256-0.192q-0.992-0.704-2.048-0.48-0.768 0.16-1.504 0.96t-1.12 1.888q-0.608 1.76-0.608 3.392-0.032 1.28 0.16 2.016-0.384-0.704-0.608-1.696t-0.224-1.632z"></path>
</svg>
