<!-- Generated by IcoMoon.io -->
<svg version="1.1" xmlns="http://www.w3.org/2000/svg" width="32" height="32" viewBox="0 0 32 32">
<title>wifi-off</title>
<path d="M21.708 16.612c1.052 0.513 1.997 1.143 2.752 1.796 0.557 0.481 1.399 0.421 1.881-0.136s0.421-1.399-0.136-1.881c-0.937-0.812-2.079-1.567-3.328-2.177-0.661-0.323-1.46-0.048-1.783 0.613s-0.048 1.46 0.613 1.783zM14.387 8.729c5.36-0.432 10.395 1.291 14.261 4.449 0.195 0.16 0.387 0.323 0.576 0.489 0.552 0.487 1.395 0.433 1.881-0.119s0.433-1.395-0.119-1.881c-0.213-0.188-0.432-0.373-0.652-0.553-4.379-3.577-10.088-5.532-16.163-5.041-0.733 0.057-1.28 0.7-1.221 1.433s0.703 1.281 1.436 1.221zM12.145 23.233c1.32-0.939 2.861-1.327 4.365-1.208 1.188 0.093 2.353 0.504 3.364 1.212 0.311 0.217 0.683 0.284 1.027 0.216l8.823 8.823c0.521 0.521 1.365 0.521 1.885 0s0.521-1.365 0-1.885l-17-17c-0.067-0.084-0.141-0.16-0.225-0.225l-12.108-12.108c-0.521-0.521-1.365-0.521-1.885 0s-0.521 1.365 0 1.885l5.451 5.451c-1.676 0.839-3.32 1.937-4.831 3.273-0.552 0.488-0.604 1.331-0.116 1.883s1.331 0.604 1.883 0.116c1.588-1.404 3.332-2.503 5.069-3.268l3.097 3.097c-1.811 0.609-3.561 1.569-5.132 2.881-0.565 0.472-0.64 1.313-0.168 1.879s1.313 0.64 1.879 0.168c1.693-1.416 3.632-2.333 5.584-2.765l3.719 3.719c-0.035-0.003-0.069-0.007-0.104-0.009-2.107-0.167-4.272 0.38-6.12 1.692-0.6 0.427-0.741 1.259-0.315 1.859s1.259 0.741 1.859 0.315zM16 28.667c0.736 0 1.333-0.597 1.333-1.333s-0.597-1.333-1.333-1.333-1.333 0.597-1.333 1.333 0.597 1.333 1.333 1.333z"></path>
</svg>
