<!-- Generated by IcoMoon.io -->
<svg version="1.1" xmlns="http://www.w3.org/2000/svg" width="35" height="32" viewBox="0 0 35 32">
<title>wikipedia</title>
<path d="M0 4.469v-0.672l0.064-0.064h7.968l0.064 0.064v0.64q0 0.256-0.32 0.256l-0.832 0.032q-1.056 0.032-1.056 0.64 0 0.416 0.224 0.896 1.6 3.904 7.104 15.488l0.192 0.032 3.552-7.072q-0.416-0.96-0.704-1.568l-2.432-4.8-0.64-1.28q-0.832-1.632-1.088-1.952t-1.056-0.416q-0.448-0.064-0.448-0.224v-0.672l0.096-0.064h6.304l0.16 0.032v0.672q0 0.256-0.32 0.256l-0.48 0.064q-0.416 0.064-0.608 0.16t-0.16 0.384 0.128 0.544 0.448 0.992l2.336 4.8 2.592-5.184q0.512-1.024 0.16-1.376-0.192-0.256-1.184-0.352l-0.288-0.032q-0.128 0-0.224-0.096-0.096-0.032-0.096-0.192v-0.608l0.096-0.064q1.824-0.032 5.952 0l0.064 0.064v0.64q0 0.256-0.288 0.256-0.704 0.032-0.96 0.128t-0.544 0.512q-0.736 1.088-0.96 1.536l-3.36 6.272-0.096 0.224 4.096 8.384 0.256 0.096 6.464-15.392q0.384-0.896-0.096-1.312-0.416-0.384-1.248-0.416l-0.608-0.032q-0.096 0-0.192-0.096-0.128-0.064-0.128-0.192v-0.64l0.096-0.064h7.328l0.064 0.064v0.64q0 0.224-0.288 0.288-1.472 0.064-2.112 0.608-0.64 0.512-1.088 1.568l-8 18.144q-0.32 0.736-0.704 0.96t-0.768-0.032-0.736-0.96q-1.216-2.4-3.904-8.416-3.36 6.912-4.192 8.448-1.312 2.272-2.272 0.032-1.024-2.4-4.16-9.12t-4.16-9.152q-0.512-1.344-0.896-1.664-0.352-0.32-1.664-0.416-0.448-0.064-0.448-0.224z"></path>
</svg>
