<!-- Generated by IcoMoon.io -->
<svg version="1.1" xmlns="http://www.w3.org/2000/svg" width="32" height="32" viewBox="0 0 32 32">
<title>wind</title>
<path d="M13.732 7.727c0.26-0.261 0.599-0.392 0.941-0.393s0.683 0.128 0.944 0.388 0.392 0.599 0.393 0.941-0.128 0.683-0.388 0.944c-0.256 0.259-0.589 0.389-0.929 0.393h-12.027c-0.736 0-1.333 0.597-1.333 1.333s0.597 1.333 1.333 1.333h12.057c1.011-0.012 2.021-0.405 2.791-1.18 0.779-0.783 1.167-1.811 1.163-2.832s-0.397-2.047-1.18-2.825-1.809-1.165-2.831-1.163-2.047 0.397-2.825 1.18c-0.52 0.523-0.517 1.367 0.005 1.885s1.367 0.516 1.885-0.005zM15.841 27.487c0.779 0.783 1.803 1.177 2.825 1.18s2.049-0.385 2.832-1.163 1.177-1.803 1.18-2.825-0.385-2.049-1.163-2.832c-0.769-0.775-1.78-1.168-2.791-1.18h-16.059c-0.736 0-1.333 0.597-1.333 1.333s0.597 1.333 1.333 1.333h16.027c0.34 0.004 0.673 0.135 0.931 0.393 0.26 0.261 0.389 0.601 0.388 0.944s-0.132 0.681-0.393 0.941-0.601 0.389-0.944 0.388-0.681-0.132-0.941-0.393c-0.519-0.523-1.364-0.525-1.885-0.005s-0.525 1.364-0.005 1.885zM24.581 11.917c0.392-0.391 0.901-0.584 1.415-0.584s1.023 0.196 1.413 0.588 0.584 0.901 0.584 1.415-0.196 1.023-0.588 1.413c-0.389 0.389-0.897 0.583-1.409 0.584h-23.329c-0.736 0-1.333 0.597-1.333 1.333s0.597 1.333 1.333 1.333h23.336c1.188-0.003 2.379-0.456 3.288-1.363 0.912-0.909 1.369-2.105 1.371-3.299s-0.453-2.389-1.363-3.301-2.107-1.369-3.299-1.371-2.389 0.453-3.301 1.363c-0.521 0.52-0.523 1.364-0.003 1.885s1.364 0.523 1.885 0.003z"></path>
</svg>
