<!-- Generated by IcoMoon.io -->
<svg version="1.1" xmlns="http://www.w3.org/2000/svg" width="32" height="32" viewBox="0 0 32 32">
<title>window-close1</title>
<path d="M29 2h-26c-1.656 0-3 1.344-3 3v22c0 1.656 1.344 3 3 3h26c1.656 0 3-1.344 3-3v-22c0-1.656-1.344-3-3-3zM29 26.625c0 0.206-0.169 0.375-0.375 0.375h-25.25c-0.206 0-0.375-0.169-0.375-0.375v-21.25c0-0.206 0.169-0.375 0.375-0.375h25.25c0.206 0 0.375 0.169 0.375 0.375v21.25zM22.281 12.162l-3.837 3.838 3.837 3.837c0.288 0.288 0.288 0.756 0 1.050l-1.394 1.394c-0.288 0.288-0.756 0.288-1.050 0l-3.838-3.837-3.838 3.837c-0.287 0.288-0.756 0.288-1.050 0l-1.394-1.394c-0.287-0.288-0.287-0.756 0-1.050l3.838-3.838-3.838-3.838c-0.287-0.287-0.287-0.756 0-1.050l1.394-1.394c0.287-0.287 0.756-0.287 1.050 0l3.838 3.838 3.838-3.838c0.288-0.287 0.756-0.287 1.050 0l1.394 1.394c0.294 0.287 0.294 0.756 0 1.050z"></path>
</svg>
