<!-- Generated by IcoMoon.io -->
<svg version="1.1" xmlns="http://www.w3.org/2000/svg" width="29" height="32" viewBox="0 0 29 32">
<title>wolf-pack-battalion</title>
<path d="M14.983 29.471l0.66 0.99 0.33-0.77 0.33 0.44v1.869c1.316-0.495 1.319-4.179 1.594-6.076 0.289-1.993-0.055-5.801 5.086-9.319-0.555-1.476-0.75-3.089-0.165-5.003 1.742 0.209 3.371 0.661 3.959 3.381l-1.897 0.522c0.697 1.44 1.063 2.922 0.825 4.509l-1.705-0.441-0.385 2.089-1.154-0.44-0.55 2.089-1.209-0.44 1.649 1.319 0.55-1.759 1.539 0.33 0.44-2.227 1.649 0.907c0.016-1.251 0.436-3.629-0.55-5.278l1.649 0.33c0.249-1.379-0.149-2.451-0.495-3.546l1.402 0.605c-0.027-1.567-1.871-3.549-3.849-3.656-1.264-0.068-3.546-1.573-3.381-3.244 0.122-1.242 1.091-2.664 2.694-3.106-2.749 2.282-0.605 4.206 0.33 4.591 0.275-0.715 1.096-4.317 0-8.137-2.529 1.429-5.608 4.069-5.828 9.237l-3.629 2.419-0.22 5.828 6.708-3.739 0.44 0.44-1.099 0.22-2.749 2.419-0.99-0.33-1.759 3.079-0.22 7.477 1.319 0.99-2.034 0.99-2.034-0.99 1.319-0.99-0.22-7.477-1.759-3.079-0.99 0.33-2.749-2.419-1.099-0.22 0.44-0.44 6.708 3.739-0.22-5.828-3.629-2.419c-0.22-5.169-3.299-7.809-5.828-9.238-1.096 3.82-0.275 7.423 0 8.137 0.935-0.385 3.079-2.309 0.33-4.591 1.604 0.442 2.572 1.864 2.694 3.106 0.164 1.671-2.118 3.176-3.381 3.244-1.978 0.107-3.822 2.090-3.849 3.657l1.402-0.605c-0.346 1.096-0.744 2.167-0.495 3.546l1.649-0.33c-0.985 1.649-0.566 4.027-0.55 5.278l1.649-0.907 0.44 2.227 1.539-0.33 0.55 1.759 1.649-1.319-1.209 0.441-0.55-2.089-1.154 0.44-0.385-2.089-1.704 0.44c-0.239-1.586 0.128-3.069 0.825-4.509l-1.897-0.523c0.587-2.72 2.217-3.173 3.959-3.381 0.585 1.914 0.39 3.528-0.165 5.003 5.141 3.519 4.797 7.327 5.086 9.319 0.275 1.897 0.278 5.581 1.594 6.076v-1.869l0.33-0.44 0.33 0.77 0.66-0.99 0.715 1.319 0.714-1.319zM19.931 23.532l-0.99-0.66c0.467-0.273 0.86-0.526 1.209-0.77-0.038 0.454-0.017 0.867-0.219 1.43zM21.691 20.454c-0.025 0.684-0.056 1.354-0.11 1.979-0.491-0.116-0.973-0.238-1.319-0.44 0.515-0.494 0.972-1.017 1.429-1.539zM23.23 20.784c-0.001-0.839-0.128-1.513-0.33-2.089-0.336 0.568-0.702 1.136-1.154 1.704l1.484 0.385zM23.45 15.725c1.215 0.801 1.738 2.104 1.869 3.519-0.77-0.283-1.539-0.582-2.309-0.66 0.316-0.749 0.416-1.759 0.44-2.859zM23.34 12.866c0.051 0.894 0.115 1.801 0.11 2.639 1.201-0.507 1.861-0.607 2.749-0.88-0.663-1.184-1.701-1.595-2.859-1.759zM8.605 23.532l0.99-0.66c-0.467-0.273-0.86-0.526-1.209-0.77 0.037 0.454 0.017 0.867 0.219 1.43zM6.846 20.454c0.025 0.684 0.056 1.354 0.11 1.979 0.491-0.116 0.973-0.238 1.319-0.44-0.515-0.494-0.972-1.017-1.429-1.539zM5.306 20.784c0.001-0.839 0.128-1.513 0.33-2.089 0.336 0.568 0.702 1.136 1.154 1.704l-1.484 0.385zM5.086 15.725c-1.215 0.801-1.737 2.104-1.869 3.519 0.77-0.283 1.539-0.582 2.309-0.66-0.316-0.749-0.416-1.759-0.44-2.859zM5.196 12.866c-0.051 0.894-0.115 1.801-0.11 2.639-1.201-0.507-1.861-0.607-2.749-0.88 0.663-1.184 1.701-1.595 2.859-1.759z"></path>
</svg>
