<!-- Generated by IcoMoon.io -->
<svg version="1.1" xmlns="http://www.w3.org/2000/svg" width="36" height="32" viewBox="0 0 36 32">
<title>won-sign</title>
<path d="M35.25 12c0.414 0 0.75-0.336 0.75-0.75v-2.5c0-0.414-0.336-0.75-0.75-0.75h-3.002l1.161-5.038c0.108-0.47-0.249-0.918-0.731-0.918h-2.882c-0 0-0 0-0 0-0.359 0-0.659 0.252-0.733 0.589l-0.001 0.005-0.892 5.363h-6.868l-1.233-5.374c-0.079-0.336-0.376-0.582-0.731-0.582h-2.749c0 0 0 0 0 0-0.354 0-0.65 0.245-0.729 0.575l-0.001 0.005-1.253 5.377h-6.795l-1.092-5.356c-0.072-0.345-0.374-0.6-0.735-0.6 0 0 0 0 0 0h-2.632c-0.48 0-0.837 0.445-0.732 0.914l1.13 5.042h-3c-0.414 0-0.75 0.336-0.75 0.75v2.5c0 0.414 0.336 0.75 0.75 0.75h3.896l0.448 2h-4.345c-0.414 0-0.75 0.336-0.75 0.75v2.5c0 0.414 0.336 0.75 0.75 0.75h5.241l2.558 11.414c0.078 0.338 0.376 0.586 0.732 0.586h3.548c0.349 0 0.652-0.241 0.731-0.581l2.649-11.419h3.443l2.649 11.419c0.080 0.335 0.376 0.58 0.731 0.581h3.552c0 0 0 0 0 0 0.355 0 0.652-0.246 0.73-0.577l0.001-0.005 2.631-11.418h5.306c0.414 0 0.75-0.336 0.75-0.75v-2.5c0-0.414-0.336-0.75-0.75-0.75h-4.384l0.461-2h3.923zM8.627 12h5.047l-0.466 2h-4.174l-0.408-2zM11.489 21.377c-0.387 1.614-0.422 2.953-0.458 2.953h-0.070s-0.106-1.378-0.422-2.953l-0.688-3.377h2.426l-0.787 3.377zM17.136 14l0.125-0.538c0.116-0.498 0.216-0.998 0.3-1.462h0.737c0.084 0.464 0.184 0.965 0.3 1.462l0.125 0.538h-1.587zM25.321 21.377c-0.317 1.575-0.422 2.953-0.422 2.953h-0.070c-0.035 0-0.070-1.339-0.458-2.953l-0.775-3.377h2.444l-0.719 3.377zM26.893 14h-4.214l-0.459-2h5.099l-0.426 2z"></path>
</svg>
