<!-- Generated by IcoMoon.io -->
<svg version="1.1" xmlns="http://www.w3.org/2000/svg" width="28" height="32" viewBox="0 0 28 32">
<title>yahoo2</title>
<path d="M15.75 18.25l0.25 13.75c-0.794-0.137-1.469-0.244-2.019-0.244-0.525 0-1.2 0.106-2.019 0.244l0.25-13.75c-3.438-5.925-6.9-12.3-10.875-18.25 0.744 0.194 1.438 0.244 2.075 0.244 0.563 0 1.275-0.050 2.131-0.244 2.556 4.513 5.131 8.669 8.438 14.094 2.331-3.85 5.694-9.006 8.431-14.094 0.694 0.181 1.375 0.244 2.056 0.244 0.719 0 1.45-0.063 2.188-0.244-2.15 2.994-8.225 13.556-10.906 18.25z"></path>
</svg>
