<!-- Generated by IcoMoon.io -->
<svg version="1.1" xmlns="http://www.w3.org/2000/svg" width="44" height="32" viewBox="0 0 44 32">
<title>yahoo1</title>
<path d="M0 5.621l0.192 0.608q0.128 0.192 0.256 0.32t0.16 0.16l0.064 0.064 0.608 0.32h3.552l9.184 11.008q0.352 0.384 0.352 0.8v6.144q0 0.256-0.064 0.384t-0.192 0.16h-0.096q-3.584 0-4.544 0.096-0.32 0-0.32 0.288v1.76h16.512v-1.824q0-0.096-0.064-0.16t-0.16-0.064h-4.672q-0.288 0-0.288-0.48v-6.464q-0.032-0.096 0.064-0.224t0.16-0.224l0.096-0.096q0.352-0.352 8.448-7.968h4.256q0.288 0 0.576-0.224l0.544-0.608q0.192-0.224 0.192-0.576v-0.448q-0.032-0.096-0.096-0.16t-0.096-0.032h-14.016l-0.224 0.192q-0.032 0.192 0.064 0.384t0.16 0.32l0.064 0.128 0.736 0.736 0.576 0.224h3.68l-6.624 6.24-7.296-9.312h1.312q0.416 0.032 0.704-0.128l2.176-0.672q0.032 0 0.096-0.032t0.16-0.16 0.064-0.288v-0.448q0-0.096-0.064-0.16t-0.128-0.064h-15.744q-0.256 0.032-0.32 0.224v0.256zM38.080 2.133l5.92 0.224-2.656 18.144-1.952-0.096zM38.496 26.549l0.128-3.52 3.52 0.128-0.128 3.52z"></path>
</svg>
