<!-- Generated by IcoMoon.io -->
<svg version="1.1" xmlns="http://www.w3.org/2000/svg" width="24" height="32" viewBox="0 0 24 32">
<title>yelp1</title>
<path d="M0 17.749v0.416q0 1.376 0.192 2.208 0.16 0.576 0.608 0.832t0.928 0.064l6.528-2.016q0.704-0.224 0.992-0.832 0.16-0.32 0.16-0.64t-0.16-0.608q-0.288-0.608-1.024-0.832l-6.528-2.624q-0.448-0.096-0.864 0.256t-0.544 0.96q-0.256 1.152-0.288 2.816zM2.784 2.485q-0.16-0.256-0.16-0.512 0-0.288 0.192-0.576 0.384-0.544 1.216-0.864 2.592-0.992 5.472-1.472h0.16q1.44 0 1.568 1.216 0.8 10.016 0.8 12.576 0 1.056-0.864 1.28-0.192 0.064-0.384 0.064-0.672 0-1.184-0.8-4.736-7.424-6.816-10.912zM4.992 26.997l4.448-5.344q0.608-0.672 1.216-0.672 0.256 0 0.512 0.096 0.8 0.352 0.8 1.44 0 0.16-0.032 0.32v7.104q-0.064 0.448-0.544 0.704-0.288 0.16-0.576 0.16-0.256 0-0.512-0.096-1.152-0.192-2.72-0.832t-2.336-1.184q-0.576-0.448-0.576-0.96 0-0.352 0.32-0.736zM14.4 16.181q-0.192-0.384-0.192-0.736 0-0.544 0.48-1.056l4.16-5.728q0.224-0.256 0.64-0.256 0.096 0 0.224 0.032 0.544 0.064 0.928 0.576 0.8 0.832 1.696 2.272t1.184 2.336q0.096 0.256 0.096 0.48 0 0.288-0.128 0.512-0.256 0.416-0.736 0.512l-6.688 1.696q-0.256 0.064-0.512 0.064-0.736 0-1.152-0.704zM14.784 20.181q-0.288 0.384-0.288 0.768 0 0.512 0.416 1.024l3.648 6.112q0.224 0.288 0.768 0.288h0.096q0.608-0.032 1.056-0.48 0.864-0.768 1.792-2.016t1.312-2.24q0.128-0.352 0.128-0.672 0-0.224-0.096-0.416-0.16-0.448-0.608-0.608l-6.56-2.24q-0.32-0.128-0.608-0.128-0.672 0-1.056 0.608z"></path>
</svg>
