<!-- Generated by IcoMoon.io -->
<svg version="1.1" xmlns="http://www.w3.org/2000/svg" width="24" height="32" viewBox="0 0 24 32">
<title>yelp</title>
<path d="M8.556 20.5c-0.063 0.019-6.825 2.231-7.237 2.231-0.95-0.056-1.156-1.012-1.244-1.95-0.094-0.887-0.087-1.863 0.019-2.925 0.119-1.175 0.344-2.819 1.512-2.75 0.3 0 4.194 1.619 7.044 2.775 1.069 0.425 1.162 2.238-0.094 2.619zM12.175 13.381c0.113 2.388-1.594 3.031-2.95 0.894l-6.644-10.5c-0.094-0.413 0.019-0.775 0.331-1.087 0.975-1.031 6.213-2.487 7.594-2.131 0.469 0.119 0.756 0.381 0.863 0.788 0.081 0.519 0.719 10.463 0.806 12.037zM12.088 23.681c0 0.288 0.012 7.275-0.106 7.594-0.144 0.375-0.438 0.606-0.894 0.7-0.631 0.106-1.694-0.119-3.188-0.669-1.375-0.506-3.544-1.344-3.081-2.656 0.175-0.431 3.212-3.925 4.831-5.85 0.75-0.95 2.487-0.344 2.438 0.881zM23.35 16.319c-0.35 0.231-6.925 1.762-7.381 1.913l0.019-0.038c-1.131 0.294-2.213-1.156-1.456-2.163 0.231-0.231 4.119-5.775 4.55-6.063 0.325-0.225 0.706-0.238 1.144-0.037 1.15 0.55 3.444 3.944 3.587 5.287-0.006 0.181 0.075 0.731-0.462 1.1zM23.981 24.488c-0.169 1.288-2.781 4.588-3.988 5.063-0.431 0.163-0.806 0.125-1.106-0.125-0.313-0.219-3.863-6.069-4.056-6.394-0.681-1.012 0.425-2.488 1.6-2.075 0 0 6.906 2.231 7.169 2.462 0.325 0.256 0.45 0.613 0.381 1.069z"></path>
</svg>
