<!-- Generated by IcoMoon.io -->
<svg version="1.1" xmlns="http://www.w3.org/2000/svg" width="24" height="32" viewBox="0 0 24 32">
<title>yen-sign</title>
<path d="M21.951 2h-4.080c0 0 0 0 0 0-0.294 0-0.549 0.169-0.672 0.416l-0.002 0.004-3.462 7.073c-0.907 2.169-1.696 4.496-1.696 4.496h-0.079s-0.789-2.327-1.696-4.496l-3.462-7.073c-0.125-0.251-0.379-0.42-0.673-0.42-0 0-0 0-0 0h-4.080c-0.566 0-0.928 0.603-0.662 1.103l5.008 9.397h-3.645c-0.414 0-0.75 0.336-0.75 0.75v2c0 0.414 0.336 0.75 0.75 0.75h5.51l1.24 2.327v1.673h-6.75c-0.414 0-0.75 0.336-0.75 0.75v2c0 0.414 0.336 0.75 0.75 0.75h6.75v5.75c0 0.414 0.336 0.75 0.75 0.75h3.5c0.414 0 0.75-0.336 0.75-0.75v-5.75h6.75c0.414 0 0.75-0.336 0.75-0.75v-2c0-0.414-0.336-0.75-0.75-0.75h-6.75v-1.673l1.24-2.327h5.51c0.414 0 0.75-0.336 0.75-0.75v-2c0-0.414-0.336-0.75-0.75-0.75h-3.645l5.008-9.397c0.266-0.5-0.096-1.103-0.662-1.103z"></path>
</svg>
