<?xml version="1.0" standalone="no"?>
<!DOCTYPE svg PUBLIC "-//W3C//DTD SVG 20010904//EN"
 "http://www.w3.org/TR/2001/REC-SVG-20010904/DTD/svg10.dtd">
<svg version="1.0" xmlns="http://www.w3.org/2000/svg"
 width="512.000000pt" height="512.000000pt" viewBox="0 0 512.000000 512.000000"
 preserveAspectRatio="xMidYMid meet">
<metadata>
Created by potrace 1.14, written by Peter Selinger 2001-2017
</metadata>
<g transform="translate(0.000000,512.000000) scale(0.100000,-0.100000)"
fill="#000000" stroke="none">
<path d="M2438 5091 c-32 -10 -120 -55 -195 -99 -76 -44 -156 -90 -178 -102
-22 -12 -107 -61 -190 -109 -82 -49 -240 -140 -350 -203 -110 -64 -216 -125
-235 -137 -19 -12 -46 -27 -60 -34 -14 -6 -56 -31 -95 -53 -38 -23 -88 -52
-111 -65 -23 -13 -123 -71 -223 -129 -100 -58 -202 -116 -226 -130 -104 -59
-186 -145 -225 -234 -48 -107 -48 -105 -46 -1267 l2 -1094 22 -59 c30 -82 62
-133 118 -189 45 -45 102 -81 399 -253 66 -38 129 -74 140 -81 11 -7 27 -16
35 -20 8 -4 47 -26 85 -48 39 -23 90 -53 115 -67 25 -14 86 -49 135 -78 101
-59 138 -80 193 -111 20 -12 152 -88 292 -169 140 -81 272 -157 293 -169 45
-25 79 -45 175 -101 97 -56 176 -80 265 -80 97 1 173 28 327 119 69 41 150 87
180 104 30 16 60 33 65 37 6 4 127 75 270 157 248 143 360 208 658 380 72 42
173 100 222 128 303 174 346 201 398 251 43 40 93 123 118 195 l22 64 0 1115
1 1115 -23 64 c-26 75 -73 151 -126 204 -21 20 -129 90 -239 154 -111 64 -268
155 -351 203 -82 48 -269 156 -415 240 -146 84 -323 187 -394 228 -72 41 -145
83 -164 94 -19 11 -105 61 -191 111 -86 50 -185 102 -221 114 -82 28 -191 30
-272 4z m222 -735 c19 -6 73 -32 120 -59 47 -27 105 -61 129 -75 25 -14 68
-38 95 -55 28 -16 70 -40 93 -53 23 -13 140 -81 260 -151 120 -69 238 -137
263 -151 25 -14 61 -35 80 -47 19 -12 58 -34 85 -50 262 -145 309 -182 358
-285 l32 -65 2 -220 c1 -179 -1 -224 -13 -240 -14 -19 -27 -20 -291 -20 -327
0 -311 -5 -314 100 -4 146 -23 167 -306 326 -21 12 -94 54 -163 94 -132 77
-302 175 -360 208 -107 61 -147 71 -210 54 -19 -5 -204 -107 -411 -227 -207
-120 -389 -225 -405 -233 -86 -44 -123 -117 -124 -237 l0 -86 666 -2 c393 -1
671 -6 678 -11 13 -11 15 -541 3 -578 -5 -13 -19 -24 -35 -27 -15 -2 -304 -5
-642 -4 -338 0 -628 -1 -644 -1 l-28 -1 4 -107 c6 -156 20 -178 173 -267 215
-126 413 -241 455 -264 25 -14 97 -56 161 -93 112 -66 172 -89 214 -83 47 7
77 22 316 160 140 80 325 187 412 237 223 128 247 159 247 323 0 65 3 83 16
88 9 3 141 6 294 6 246 0 279 -2 291 -17 11 -12 14 -64 14 -237 -1 -242 -2
-260 -34 -326 -43 -92 -117 -144 -595 -414 -41 -24 -530 -306 -706 -408 -150
-87 -178 -99 -245 -105 -65 -6 -153 15 -186 43 -8 8 -18 14 -22 14 -3 0 -61
32 -129 71 -67 40 -136 80 -153 89 -16 9 -174 100 -350 202 -176 102 -391 226
-477 276 -181 104 -198 116 -244 175 -71 91 -68 44 -69 923 -2 875 -3 854 61
942 52 71 50 69 564 364 19 11 136 79 260 151 555 322 600 346 645 358 40 10
122 8 165 -5z"/>
</g>
</svg>
