<?xml version="1.0" encoding="utf-8"?>
<!-- Generator: Adobe Illustrator 24.0.1, SVG Export Plug-In . SVG Version: 6.00 Build 0)  -->
<svg version="1.1" id="Capa_1" xmlns="http://www.w3.org/2000/svg" xmlns:xlink="http://www.w3.org/1999/xlink" x="0px" y="0px"
	 viewBox="0 0 26 26" style="enable-background:new 0 0 26 26;" xml:space="preserve">
<style type="text/css">
	.st0{fill-rule:evenodd;clip-rule:evenodd;fill:#C4C4C3;}
</style>
<g id="Capa_1_1_">
</g>
<g id="Capa_2_1_">
	<path class="st0" d="M3.79,26h8.47v-9.2H9.26v-3h2.99V9.9c0-2.1,1.69-3.8,3.79-3.8h3.79v3h-2.99c-0.8,0-1.49,0.7-1.49,1.5v3h4.38
		l-0.5,3h-3.89V26h6.87c2.09,0,3.79-1.7,3.79-3.8V3.8C25.9,1.7,24.21,0,22.11,0H3.79C1.69,0,0,1.7,0,3.8v18.4
		C0,24.3,1.69,26,3.79,26L3.79,26z M1.59,3.79c0-1.3,0.9-2.29,2.19-2.29h18.33c1.3,0,2.29,1,2.29,2.3v18.4c0,1.3-1,2.3-2.29,2.3
		h-5.28v-6.2h3.69l1-6.1h-4.68v-1.5h4.58V4.6h-5.28c-2.89,0-5.28,2.4-5.28,5.3v2.3H7.87v6.1h2.99v6.2H3.89c-1.3,0-2.29-1-2.29-2.3
		V3.79z"/>
</g>
</svg>
