<?xml version="1.0" standalone="no"?>
<!DOCTYPE svg PUBLIC "-//W3C//DTD SVG 20010904//EN"
 "http://www.w3.org/TR/2001/REC-SVG-20010904/DTD/svg10.dtd">
<svg version="1.0" xmlns="http://www.w3.org/2000/svg"
 width="700.000000pt" height="700.000000pt" viewBox="0 0 700.000000 700.000000"
 preserveAspectRatio="xMidYMid meet">
<metadata>
Created by potrace 1.11, written by Peter Selinger 2001-2013
</metadata>
<g transform="translate(0.000000,700.000000) scale(0.100000,-0.100000)"
fill="#000000" stroke="none">
<path d="M3400 6994 c-62 -12 -152 -46 -225 -87 -92 -51 -109 -61 -262 -150
-62 -36 -132 -77 -155 -90 -24 -14 -70 -40 -103 -59 -33 -19 -161 -93 -285
-165 -230 -132 -607 -350 -806 -465 -61 -36 -117 -68 -125 -71 -8 -4 -30 -17
-49 -28 -19 -12 -136 -80 -260 -151 -407 -235 -478 -280 -535 -338 -89 -89
-143 -181 -182 -307 -17 -55 -18 -141 -18 -1568 0 -830 4 -1530 8 -1555 13
-68 62 -184 106 -248 69 -100 156 -174 301 -254 25 -14 143 -82 263 -152 120
-69 220 -126 223 -126 3 0 17 -9 32 -19 15 -10 135 -81 267 -157 132 -75 353
-203 490 -282 138 -80 266 -154 285 -165 51 -28 479 -275 660 -380 85 -50 177
-102 204 -115 175 -88 409 -77 587 29 30 17 189 109 354 204 165 95 314 181
332 191 17 11 62 37 100 58 37 21 109 63 158 92 216 126 457 264 461 264 2 0
23 12 47 27 23 15 51 32 62 38 32 18 298 171 336 194 19 11 57 33 84 48 28 15
58 32 67 38 16 10 198 115 282 164 156 89 234 140 281 183 93 85 158 187 197
310 l23 73 0 1520 c0 1702 6 1564 -73 1724 -51 105 -172 226 -302 301 -52 30
-103 60 -115 67 -11 7 -27 15 -35 20 -8 4 -37 20 -65 36 -27 16 -180 105 -340
197 -159 92 -387 223 -505 292 -118 68 -235 136 -260 150 -125 70 -458 263
-482 279 -15 11 -29 19 -32 19 -2 0 -37 19 -78 43 -40 24 -93 55 -118 69 -25
14 -96 55 -159 92 -62 36 -115 66 -116 66 -2 0 -32 17 -66 38 -79 47 -173 88
-219 97 -48 8 -209 14 -240 9z m189 -1019 c39 -6 120 -40 161 -65 17 -11 401
-233 470 -272 25 -14 144 -83 265 -153 121 -70 236 -136 255 -147 19 -11 49
-28 65 -39 17 -10 37 -22 45 -26 8 -4 67 -37 130 -74 145 -84 163 -95 356
-204 238 -135 333 -240 362 -405 13 -73 14 -567 1 -602 -6 -14 -23 -31 -37
-36 -32 -12 -748 -10 -774 2 -21 9 -30 49 -33 141 -2 88 -17 141 -54 193 -40
55 -84 83 -433 281 -55 30 -92 52 -193 111 -49 29 -109 63 -132 76 -23 13 -92
53 -153 89 -61 36 -113 65 -115 65 -1 0 -34 19 -71 41 -91 56 -129 70 -188 74
-68 4 -117 -13 -227 -77 -52 -30 -114 -66 -139 -80 -25 -14 -155 -89 -289
-167 -134 -77 -248 -141 -253 -141 -4 0 -8 -4 -8 -10 0 -5 -4 -10 -9 -10 -17
0 -312 -175 -351 -208 -21 -18 -51 -58 -66 -89 -26 -52 -28 -66 -29 -177 l0
-121 914 -1 c894 -1 915 -2 930 -21 14 -17 16 -68 16 -402 l0 -383 -28 -24
-28 -24 -887 0 c-488 0 -895 0 -904 0 -15 0 -16 -15 -14 -138 2 -131 3 -142
31 -197 16 -32 46 -71 65 -87 19 -16 123 -80 230 -142 107 -62 344 -198 525
-303 182 -105 352 -203 379 -218 67 -37 169 -41 236 -8 67 33 179 98 192 111
7 7 15 12 19 12 4 0 34 15 66 34 92 54 368 214 405 234 216 122 449 262 475
285 17 16 44 54 59 85 25 50 28 68 30 181 3 88 7 129 17 138 18 18 765 20 797
3 12 -6 25 -21 29 -33 12 -32 12 -551 0 -627 -23 -148 -119 -273 -279 -365
-47 -27 -137 -78 -200 -115 -63 -37 -191 -110 -285 -164 -93 -53 -177 -101
-185 -106 -112 -66 -814 -471 -876 -506 -27 -15 -61 -35 -76 -46 -45 -31 -171
-87 -213 -95 -106 -18 -238 7 -322 60 -30 20 -613 357 -798 462 -22 13 -96 56
-165 95 -126 74 -231 134 -292 168 -433 247 -525 304 -582 364 -67 71 -110
154 -126 249 -7 44 -10 389 -7 1119 4 1155 0 1082 63 1199 32 58 131 157 185
184 19 10 41 22 49 27 13 9 305 178 397 231 89 51 527 303 663 382 85 50 175
101 200 115 25 13 50 27 55 32 6 4 30 19 55 32 25 14 115 66 200 115 154 89
200 110 263 120 18 3 33 6 34 7 5 4 87 -1 132 -9z"/>
</g>
</svg>
