<?xml version="1.0" encoding="UTF-8"?>
<!DOCTYPE svg PUBLIC "-//W3C//DTD SVG 1.1//EN" "http://www.w3.org/Graphics/SVG/1.1/DTD/svg11.dtd">
<!-- Creator: CorelDRAW 2019 (64-Bit) -->
<svg xmlns="http://www.w3.org/2000/svg" xml:space="preserve" width="19.2046mm" height="3.4713mm" version="1.1" style="shape-rendering:geometricPrecision; text-rendering:geometricPrecision; image-rendering:optimizeQuality; fill-rule:evenodd; clip-rule:evenodd"
viewBox="0 0 1912.02 345.6"
 xmlns:xlink="http://www.w3.org/1999/xlink"
 xmlns:xodm="http://www.corel.com/coreldraw/odm/2003">
 <defs>
  <style type="text/css">
   <![CDATA[
    .fil1 {fill:#E6E6E6}
    .fil0 {fill:url(#id0)}
   ]]>
  </style>
  <linearGradient id="id0" gradientUnits="userSpaceOnUse" x1="152" y1="312.79" x2="76.9" y2="39.54">
   <stop offset="0" style="stop-opacity:1; stop-color:#D83E35"/>
   <stop offset="1" style="stop-opacity:1; stop-color:#F26E35"/>
  </linearGradient>
 </defs>
 <g id="Capa_x0020_1">
  <metadata id="CorelCorpID_0Corel-Layer"/>
  <g id="_2491555450416">
   <path class="fil0" d="M306.96 103.79l0 68.31 0 1.39 0 68.31c0.09,4.38 -0.7,8.84 -2.45,13.15 -2.87,7.05 -7.88,12.58 -13.96,16.16l0 0.04 -121.3 70.04c-4.59,2.8 -10,4.41 -15.77,4.41 -5.92,0 -11.44,-1.7 -16.12,-4.62l-120.94 -69.83 0.01 -0.01c-6.09,-3.57 -11.1,-9.11 -13.97,-16.16 -1.71,-4.21 -2.5,-8.56 -2.46,-12.84l0 0 0 -68.65 0 -1.39 0 -68.65 0 0c-0.04,-4.28 0.75,-8.63 2.46,-12.84 2.87,-7.05 7.88,-12.57 13.97,-16.15l-0.01 -0.01 120.94 -69.83c4.68,-2.93 10.19,-4.62 16.12,-4.62 5.77,0 11.18,1.61 15.77,4.4l121.3 70.05 0 0.04c6.08,3.56 11.09,9.1 13.96,16.15 1.75,4.31 2.54,8.78 2.45,13.15zm-83.4 47.13l35.77 0c1.77,-0.31 3.15,-1.86 3.15,-3.72l0 -4.47 0.01 0 0 -18.94c0.06,-3.11 -0.5,-6.28 -1.74,-9.35 -2.03,-5 -5.6,-8.93 -9.92,-11.47l0.01 -0.02 -86.16 -49.75c-3.26,-1.98 -7.1,-3.13 -11.2,-3.13 -4.2,0 -8.12,1.2 -11.44,3.28l-85.89 49.6 0 0c-4.33,2.54 -7.89,6.47 -9.92,11.48 -1.21,2.99 -1.77,6.07 -1.74,9.11l-0.01 0 0 48.75 0 1 0 48.75 0.01 0c-0.03,3.04 0.53,6.13 1.74,9.12 2.03,5.01 5.59,8.93 9.92,11.47l0 0.01 85.89 49.59c3.32,2.08 7.24,3.29 11.44,3.29 4.1,0 7.94,-1.14 11.2,-3.14l86.16 -49.74 -0.01 -0.03c4.32,-2.54 7.89,-6.46 9.92,-11.47 1.24,-3.07 1.8,-6.23 1.74,-9.34l0 -19.68 -0.01 0 0 -5.44c0,-1.88 -1.39,-3.44 -3.2,-3.73l-36.86 0c-0.96,0.2 -1.71,0.94 -1.93,1.88l0 8.08c0.03,1.91 -0.31,3.86 -1.08,5.74 -1.25,3.08 -3.43,5.49 -6.09,7.05l0 0.02 -52.96 30.57c-2.01,1.22 -4.36,1.92 -6.88,1.92 -2.59,0 -5,-0.74 -7.04,-2.01l-52.8 -30.49 0 -0.01c-2.66,-1.55 -4.85,-3.97 -6.1,-7.05 -0.74,-1.84 -1.09,-3.74 -1.07,-5.61l0 0 0 -10.12 24.09 0 0.1 0 34.16 0 29.8 0c2.07,0 3.77,-1.69 3.77,-3.77l0 -35.73c0,-1.36 -1.13,-2.49 -2.49,-2.49l-30.2 0c-0.29,-0.03 -0.59,-0.04 -0.89,-0.04l-58.35 0 0 -8.4 0 0c-0.02,-1.86 0.33,-3.76 1.07,-5.61 1.25,-3.08 3.44,-5.49 6.1,-7.05l0 0 52.8 -30.49c2.04,-1.28 4.45,-2.02 7.04,-2.02 2.52,0 4.87,0.71 6.88,1.92l52.96 30.58 0 0.01c2.66,1.56 4.84,3.98 6.09,7.06 0.77,1.88 1.11,3.82 1.08,5.73l0 5.23c0.29,1.54 1.51,2.76 3.07,3.03z"/>
   <path class="fil1" d="M1791.47 113.86l-83.55 0 0 -35.25 204.1 0 0 35.25 -83.8 0 0 153.14 -36.75 0 0 -153.14zm-1326.27 36.58l150.14 0 0 35.25 -150.14 0 0 24.52c0,2.92 0.49,5.77 1.65,8.46 1.11,2.55 2.64,4.84 4.6,6.8 4.25,4.25 9.28,6.27 15.27,6.27l128.61 0 0 35.25 -130.36 0c-7.61,0 -15.03,-1.36 -22.06,-4.32 -6.75,-2.85 -12.73,-6.88 -17.79,-12.13 -5.22,-5.21 -9.29,-11.23 -12.22,-17.98 -3.05,-7.03 -4.46,-14.47 -4.46,-22.11l0 -75.32c0,-7.65 1.41,-15.09 4.46,-22.11 2.93,-6.76 7,-12.77 12.19,-17.96 5.09,-5.27 11.06,-9.31 17.82,-12.15 7.03,-2.96 14.46,-4.32 22.06,-4.32l130.36 0 0 35.25 -128.61 0c-5.99,0 -11.02,2.02 -15.27,6.26 -1.96,1.97 -3.49,4.25 -4.6,6.82 -1.16,2.68 -1.65,5.54 -1.65,8.44l0 15.05zm251.44 -36.58l-83.55 0 0 -35.25 204.1 0 0 35.25 -83.8 0 0 153.14 -36.75 0 0 -153.14zm175.05 36.58l150.14 0 0 35.25 -150.14 0 0 24.52c0,2.92 0.5,5.77 1.65,8.46 1.11,2.55 2.64,4.84 4.61,6.8 4.24,4.25 9.27,6.27 15.26,6.27l128.61 0 0 35.25 -130.35 0c-7.62,0 -15.04,-1.36 -22.06,-4.32 -6.76,-2.85 -12.73,-6.88 -17.8,-12.13 -5.21,-5.21 -9.28,-11.23 -12.21,-17.98 -3.05,-7.03 -4.46,-14.47 -4.46,-22.11l0 -75.32c0,-7.65 1.41,-15.09 4.46,-22.11 2.93,-6.76 7,-12.77 12.18,-17.96 5.1,-5.27 11.07,-9.31 17.83,-12.15 7.02,-2.96 14.45,-4.32 22.06,-4.32l130.35 0 0 35.25 -128.61 0c-5.99,0 -11.02,2.02 -15.26,6.26 -1.97,1.97 -3.5,4.25 -4.61,6.82 -1.15,2.68 -1.65,5.54 -1.65,8.44l0 15.05zm204.64 5.98l109.08 0c2.84,0 5.59,-0.52 8.19,-1.65 2.57,-1.11 4.87,-2.66 6.9,-4.69 4.32,-4.03 6.18,-9.06 6.18,-14.93 0,-5.92 -2.08,-10.84 -6.26,-15.01 -1.97,-1.98 -4.25,-3.51 -6.82,-4.62 -2.61,-1.13 -5.36,-1.65 -8.19,-1.65l-109.03 -0.03 -0.05 42.59zm0 35.25l0 75.33 -36.75 0 0 -188.41 56.53 0.01 91.04 0c7.62,0 15.02,1.39 22,4.47 6.7,2.95 12.67,7.04 17.85,12.22 5.18,5.17 9.27,11.15 12.22,17.85 3.07,6.98 4.47,14.39 4.47,22 0,8.17 -1.63,16.09 -5.15,23.48 -2.71,5.71 -6.22,10.89 -10.52,15.43 4.3,4.54 7.82,9.71 10.52,15.42 3.48,7.33 5.15,15.13 5.15,23.24l0 54.29 -37.01 0 0 -54.04c0,-5.65 -1.77,-10.53 -5.87,-14.65 -3.78,-4.2 -8.41,-6.37 -13.96,-6.64l-110.52 0zm334.18 32.5c0.63,0.87 1.22,1.78 1.78,2.7 0.55,0.88 1.18,1.71 1.89,2.48 0.61,0.67 1.33,1.2 2.14,1.64 0.67,0.36 1.38,0.5 2.15,0.5 1.61,0 3.12,-0.29 4.54,-0.89 1,-0.45 2.07,-1.08 2.81,-1.93 1.99,-2.26 2.71,-5.01 2.71,-7.98l0 -142.08 37.01 0 0 142.08c0,6.17 -1.1,12.21 -3.43,17.91 -2.27,5.55 -5.52,10.46 -9.71,14.67 -4.11,4.29 -8.96,7.61 -14.41,10.02 -5.71,2.52 -11.77,3.72 -18.01,3.72 -2.91,0 -5.81,-0.21 -8.66,-0.69 -2.72,-0.45 -5.35,-1.13 -7.87,-2.02 -4.66,-1.5 -9.12,-3.61 -12.95,-6.63 -3.51,-2.68 -6.74,-5.74 -9.4,-9.29 -2.19,-2.93 -4.26,-5.96 -6.12,-9.13 -1.13,-1.92 -2.19,-3.9 -3.16,-5.91 -0.73,-1.52 -1.43,-3.01 -2.14,-4.43 -1.3,-2.34 -2.49,-4.71 -3.68,-7.1 -1.87,-3.74 -3.74,-7.49 -5.62,-11.23 -2.36,-4.73 -4.66,-9.51 -6.9,-14.31 -2.45,-5.24 -4.98,-10.44 -7.56,-15.62 -2.65,-5.28 -5.27,-10.56 -7.88,-15.86 -2.41,-4.91 -4.83,-9.81 -7.24,-14.72 -1.98,-4.04 -3.94,-8.08 -5.88,-12.15 -1.29,-2.73 -2.61,-5.49 -4,-8.26 -0.77,-1.68 -1.59,-3.37 -2.49,-4.99 -0.8,-1.44 -1.62,-2.89 -2.51,-4.29 -0.99,-1.58 -2.35,-3.17 -3.58,-4.57 -1.06,-1.2 -2.26,-1.7 -3.85,-1.7 -1.52,0 -2.96,0.33 -4.29,0.89 -1.18,0.54 -2.28,1.17 -3.12,2 -1.99,2.25 -2.66,4.95 -2.66,7.92l0 142.09 -37 0 0 -142.09c0,-12.39 3.85,-23.46 12.38,-32.54 4.1,-4.3 8.98,-7.64 14.42,-10.05 5.86,-2.59 12.13,-3.72 18.52,-3.72 6.02,0 12.09,0.75 17.76,2.71 6.04,1.95 11.15,5.42 15.39,10.02 3.1,3.11 5.79,6.69 8.22,10.32 1.84,2.77 3.55,5.63 5.16,8.52 1.85,3.34 3.62,6.74 5.35,10.19 3.01,6.23 6.1,12.46 9.2,18.66 4.18,8.35 8.34,16.72 12.48,25.08 4.15,8.39 8.28,16.8 12.36,25.22 3.04,6.27 6.06,12.47 9.18,18.52 0.81,1.3 1.56,2.63 2.08,4.07 0.07,0.2 0.06,0.33 0.16,0.5l0.28 0.25 0.27 0.49c1.21,2.11 2.39,4.26 3.47,6.44 0.78,1.54 1.57,3.08 2.41,4.59zm109.53 -73.73l150.14 0 0 35.25 -150.14 0 0 24.52c0,2.92 0.49,5.77 1.65,8.46 1.11,2.55 2.64,4.84 4.61,6.8 4.24,4.25 9.27,6.27 15.26,6.27l128.61 0 0 35.25 -130.35 0c-7.62,0 -15.04,-1.36 -22.07,-4.32 -6.75,-2.85 -12.73,-6.88 -17.8,-12.13 -5.2,-5.21 -9.27,-11.23 -12.21,-17.98 -3.05,-7.03 -4.46,-14.47 -4.46,-22.11l0 -75.32c0,-7.65 1.41,-15.09 4.46,-22.11 2.94,-6.76 7.01,-12.77 12.19,-17.96 5.09,-5.27 11.07,-9.31 17.82,-12.15 7.03,-2.96 14.46,-4.32 22.07,-4.32l130.35 0 0 35.25 -128.61 0c-5.99,0 -11.02,2.02 -15.26,6.26 -1.97,1.97 -3.5,4.25 -4.61,6.82 -1.16,2.68 -1.65,5.54 -1.65,8.44l0 15.05z"/>
  </g>
 </g>
</svg>
